<svg xmlns="http://www.w3.org/2000/svg" viewBox="0 0 1000 1000"><defs><style>.cls-1,.cls-7,.cls-9{fill:none;}.cls-1,.cls-9{stroke:#dadada;}.cls-1,.cls-14,.cls-15,.cls-7,.cls-9{stroke-linecap:round;stroke-linejoin:round;}.cls-1,.cls-14,.cls-7,.cls-9{stroke-width:5px;}.cls-1{opacity:0.4;}.cls-2{fill:#ffe3ec;}.cls-3{fill:#ffcbdc;}.cls-4{fill:#ffb5cd;}.cls-5{fill:#fff;}.cls-6{fill:#2d2d37;}.cls-7{stroke:#ffcbdc;}.cls-8{fill:#bfab9b;}.cls-10{fill:#ffe4ee;}.cls-11{fill:#c8ccce;}.cls-12{fill:#d5d8db;}.cls-13{fill:#e8ebef;}.cls-14{fill:#db3f37;stroke:#c6322e;}.cls-15{fill:#d5d8dd;stroke:#d5d8dd;}.cls-16{fill:#897c74;}.cls-17{fill:#706661;}.cls-18{fill:#7f736c;}.cls-19{fill:#665e5a;}</style></defs><g id="뒷배경"><path class="cls-1" d="M507.65,137.2V96.56a27.42,27.42,0,0,0-27.41-27.42H86.38A27.42,27.42,0,0,0,59,96.56V427.79a27.42,27.42,0,0,0,27.41,27.42H277.25l57.91,59.33L323,455.21H479a28.68,28.68,0,0,0,28.68-28.68"/></g><g id="얼굴"><path class="cls-2" d="M780,364.3s1,36-33,42v117H589V473.69s-37-14.39-47-57.39c0,0-.39,0-1.08.05-6,.16-34.92-.68-34.92-32.05,0-35,17.26-38.46,17.26-38.46S515,209,643,210.64,782,336.3,780,364.3Z"/></g><g id="표정"><path class="cls-3" d="M589,473.69s76,22.61,123-18.39l-28,68H589Z"/><path class="cls-4" d="M728.44,421.35s-26.82-20.18-49.06.95c-27.36,26-4.06,52.52-4.06,52.52s18.31-3.64,36.7-19.52A76.91,76.91,0,0,0,728.44,421.35Z"/><path class="cls-4" d="M589,473.69s-37-14.39-47-57.39c0,0-.39,0-1.08.05l1.57-1.05s27.51-12,43,15.08C599.6,455,589,473.69,589,473.69Z"/><path class="cls-4" d="M675.32,474.82s18.31-3.64,36.7-19.52a76.91,76.91,0,0,0,16.42-33.95"/><ellipse class="cls-5" cx="668.21" cy="394.3" rx="21.5" ry="26"/><ellipse class="cls-6" cx="664.56" cy="394.3" rx="15.72" ry="20.43"/><ellipse class="cls-5" cx="589.02" cy="394.3" rx="21.5" ry="26"/><ellipse class="cls-6" cx="585.37" cy="394.3" rx="15.72" ry="20.43"/><path class="cls-7" d="M754.8,356.53V385s-.69-21.43,11.85-23"/><path class="cls-7" d="M529.74,361.31s4.63,36.25,9.72,47.42"/></g><g id="머리카락"><path class="cls-6" d="M780,364.3c0-39-43-41-42,2,0,0-20-7-41-7s-43-17-43-17,2,9,4,12c0,0-43,18-72-14,0,0-2,4.59,0,13.8,0,0-97,30.2-87-91.8s145-115,162-108c0,0,96-22,135,64,0,0,21,41,12,80S780,364.3,780,364.3Z"/></g><g id="와이셔츠_뒷면" data-name="와이셔츠 뒷면"><polyline class="cls-5" points="566.05 539.2 767.63 539.2 747.46 649.51 661.75 659.84 599.45 632.49 575.44 592.68 566.05 539.2"/></g><g id="넥타이"><polygon class="cls-6" points="643.12 564.15 650.52 585.84 629.84 643.28 701.88 643.28 684.09 585.84 690.89 564.01 666.07 516.54 643.12 564.15"/></g><g id="조끼"><path class="cls-8" d="M883,988.54c-1.82-75.67-25.83-423.23-25.83-423.23-26.14-11.81-86.1-32.71-86.1-32.71S743.64,643.22,667.27,643.22h0c-76.36,0-103.79-110.62-103.79-110.62s-59.94,20.9-86.08,32.71c0,0-24,347.56-25.84,423.23Z"/></g><g id="와이셔츠_깃" data-name="와이셔츠 깃"><path class="cls-5" d="M666.84,524.9l12.36,30.89a13.09,13.09,0,0,0,14,8.1l65.5-13.95c6-1.41,15.62-8.21,11.89-17.27L747,492.08a336.48,336.48,0,0,1-80.17,9.42Z"/><path class="cls-5" d="M666.84,524.9l-12.35,30.89a13.1,13.1,0,0,1-14,8.1L575,549.94c-6-1.41-15.62-8.21-11.9-17.27l23.62-40.59a336.48,336.48,0,0,0,80.17,9.42Z"/><line class="cls-9" x1="694.5" y1="563.27" x2="755.19" y2="550.77"/><line class="cls-9" x1="637.54" y1="563.27" x2="577.49" y2="550.48"/></g><g id="손"><path class="cls-10" d="M623.18,715.32c-12.3-1.4-29.17-4.49-40.25-6.65a126,126,0,0,0-24-2.3c-10.46-.43-23.07,7.35-23.07,7.35h0l-16.83-.28-99.21-2.86a18.4,18.4,0,1,0-1.06,36.79l52.32,1.51a18.36,18.36,0,0,0,2.07,31.59,18.39,18.39,0,0,0,6.8,35.25l56.86,1.64,6,35.23L608,854.47l36,1,4-139.47Z"/></g><g id="팔"><path class="cls-5" d="M477.41,565.3l-24.1,434.57H340.57c6.16-368,135.8-434,136.83-434.56Z"/><path class="cls-9" d="M352.76,840c23.46-159.39,74.49-229.91,103.46-258.11"/><path class="cls-5" d="M898.06,923.18c-42.81,5.16-40.92-357.88-40.92-357.88s89,56.33,110.31,164.66a1.55,1.55,0,0,0,0,.21C969,737,1004.81,910.33,898.06,923.18Z"/><path class="cls-5" d="M731.47,613H871a0,0,0,0,1,0,0V897.84a69.75,69.75,0,0,1-69.75,69.75h0a69.75,69.75,0,0,1-69.75-69.75V613a0,0,0,0,1,0,0Z" transform="translate(-11.85 1568.35) rotate(-88.35)"/><path class="cls-5" d="M967.08,730.24a1.55,1.55,0,0,1,0-.21A1.76,1.76,0,0,1,967.08,730.24Z"/></g><g id="선"><line class="cls-9" x1="669.06" y1="806.15" x2="671.37" y2="726.39"/><path class="cls-9" d="M877,580.43c27.51,23.4,75.54,73.74,90.47,149.53a1.55,1.55,0,0,0,0,.21c.81,3.81,12.29,59.25,3.87,109.85"/><line class="cls-9" x1="867.2" y1="726.39" x2="903.93" y2="735.73"/><line class="cls-9" x1="755.19" y1="497.49" x2="767.63" y2="524.85"/></g><g id="책상_위_사물" data-name="책상 위 사물"><rect class="cls-11" x="86.12" y="843.03" width="682.26" height="14.73"/><rect class="cls-12" x="86.12" y="843.03" width="463.4" height="14.73"/><polygon class="cls-11" points="561.83 843.03 98.6 843.03 51.37 541.28 514.6 541.28 561.83 843.03"/><polygon class="cls-13" points="549.35 843.03 86.12 843.03 38.89 541.28 502.12 541.28 549.35 843.03"/><path class="cls-14" d="M500.63,238.27l-2.19,16.26s209-14.27,311,15.52a2.44,2.44,0,0,0,3.1-2.45l-.73-16.7S671.47,217.22,500.63,238.27Z"/><path class="cls-14" d="M491.56,240.55c-11.87-10.68-13.43-32.9-7.89-49,10.29-29.87,39.38-47.92,68.06-57.2a162.83,162.83,0,0,1,51-7.8c22.63.26,44.93,4.42,67.36,6.9,33.93,3.75,68.77-1.16,102.19,7.21,24,6,45.21,23.22,57,44.82,10.87,19.91,16.54,55-4.22,71.15-17.56,13.61-41.31-.7-58.93-6.74-24.06-8.26-50.91-8.63-76.08-9.49-30.52-1-61.1-2.39-91.64-2.33-26.23.06-52.52,1.71-78.28,6.85C510,247,500,248.13,491.56,240.55Z"/><polygon class="cls-14" points="676.14 134.07 680.79 100.09 695.02 105.53 676.14 134.07"/><path class="cls-15" d="M269.27,411.09h-.44c-8.32-.15-16.12-4.73-22.56-13.26a56.65,56.65,0,0,1-7.18-12.68c-3.82-3.95-33.4-38.25-43.77-51.72-4.37-5.69-8-15.23-10.88-28.36-2.11-9.73-3-17.93-3-18a.88.88,0,1,1,1.76-.18c0,.32,3.42,32.36,13.5,45.47C207.2,346,237.32,380.86,240.49,384a.83.83,0,0,1,.2.32,55.29,55.29,0,0,0,7,12.45c6.18,8.16,13.3,12.37,21.16,12.51h.4c10.5,0,16.83-7.24,23-14.25,4.8-5.49,9.34-10.68,15.49-11.63,2.65-.41,6.07-.85,10-1.36,15.8-2.05,39.68-5.15,48.67-10.6,2.76-1.67,5.47-3.05,8.1-4.38,8.25-4.19,14.77-7.5,17-16.81s-5.27-20.16-13.75-26.79a33.86,33.86,0,0,0-6-3.84.88.88,0,0,1-.48-.6.91.91,0,0,1,.18-.76c2.72-3.38,8.59-13.32,11.33-26.78l.11-.55c.16-.87.3-1.67.4-2.44,1.37-9.71.37-22.64-.7-31.78-1-8.25-2.11-14.4-2.12-14.46s0-.07,0-.1c-1.23-18.56-11.24-30.48-19.42-37.21a62.66,62.66,0,0,0-17.74-10.33.89.89,0,0,1-.61-.89.88.88,0,0,1,.7-.82c4.72-1,19.27,2.68,20.91,3.11a.89.89,0,1,1-.45,1.72,119.86,119.86,0,0,0-15.86-3.1,67,67,0,0,1,14.13,8.89c8.47,7,18.82,19.27,20.11,38.46.11.62,1.2,6.62,2.13,14.52,1.08,9.24,2.08,22.34.69,32.23-.11.8-.24,1.63-.42,2.53l-.11.56c-3,14.6-9,23.9-11,26.69a38.23,38.23,0,0,1,5.38,3.55,45.57,45.57,0,0,1,11.25,12.71c3.22,5.58,4.3,11.08,3.13,15.9-2.46,10.1-9.64,13.75-18,18-2.59,1.32-5.27,2.68-8,4.32-9.31,5.65-33.41,8.77-49.36,10.84-3.94.51-7.35.95-10,1.36-5.5.85-9.83,5.8-14.41,11C287.47,403.2,280.58,411.09,269.27,411.09Z"/><path class="cls-15" d="M364.11,197.79a1,1,0,0,1-.56-.19h0c-9.06-7-32.88-12.55-33.12-12.6a.89.89,0,0,1-.22-1.65,30.33,30.33,0,0,1,12.85-3.29c-15.93-5.44-43.39-1-43.69-.92a.87.87,0,0,1-.92-.43.89.89,0,0,1,.09-1c2.58-3,9.42-5.45,20.34-7.2,2.69-.43,5.31-.77,7.61-1-29.86-2.55-58.54,11.18-58.85,11.33a.86.86,0,0,1-.75,0,.9.9,0,0,1-.5-.56c-13.14-44.88-70.31-87.8-70.88-88.22a.89.89,0,0,1,1.05-1.44c.57.42,57.36,43,71.24,88.18,5.77-2.59,36.82-15.61,66.79-10a.88.88,0,0,1,.72.92.89.89,0,0,1-.83.84c-.08,0-7.4.44-15.33,1.71-7.71,1.24-13.38,2.83-16.7,4.66,8.9-1.17,32.95-3.51,45.52,3.35a.88.88,0,0,1,.42,1,.89.89,0,0,1-.94.62,33.28,33.28,0,0,0-14.16,2c6.42,1.62,23.59,6.33,31.31,12.3a.89.89,0,0,1-.49,1.63Z"/><path class="cls-15" d="M156.34,262.33a.92.92,0,0,1-.48-.14.9.9,0,0,1-.27-1.23c5.41-8.38,16.06-12.92,24.62-16.56,2.53-1.08,4.92-2.1,6.78-3.07,6.14-3.2,15.23-13.63,18.68-17.74l-9.54,1.12a.88.88,0,0,1-.94-.59.89.89,0,0,1,.37-1.05l18.13-11.13-12.11-4.54a.88.88,0,0,1,.06-1.68l15.48-4.61-1.26-7.86a.88.88,0,0,1,1.53-.73l8.51,9.41c2.66-13.08,2.56-35.6-11.32-70.67a280.18,280.18,0,0,0-19.31-39.49l0-.09a.89.89,0,0,1,1.58-.81,285.41,285.41,0,0,1,19.43,39.74c14.66,37,14.09,60.36,11,73.4a.88.88,0,0,1-1.52.39l-7.65-8.46.9,5.66a.88.88,0,0,1-.62,1l-13.69,4.07L216,210.91a.88.88,0,0,1,.57.75.87.87,0,0,1-.42.84l-16.23,10,7.73-.91a.9.9,0,0,1,.88.45.91.91,0,0,1-.08,1c-.52.64-12.64,15.73-20.65,19.91-1.92,1-4.34,2-6.91,3.12-8.33,3.55-18.7,8-23.81,15.89A.91.91,0,0,1,156.34,262.33Z"/><path class="cls-15" d="M168.07,307.89h0a.9.9,0,0,1-.84-.67c-3.74-14.94,7.13-26.7,11.35-30.6-11.78-.55-21.46,10.15-21.56,10.27a.89.89,0,0,1-1.54-.73c1.17-7.44,5.86-14.23,13.58-19.62a52,52,0,0,1,9.66-5.29c-6-3-16.46-.88-22,1a.89.89,0,1,1-.59-1.67c1.77-.61,17.45-5.71,25.17.13a.91.91,0,0,1,.34.86.9.9,0,0,1-.59.7c-.2.06-18.72,6.46-23.11,21.25,3.94-3.56,12.74-10.07,23-8.48a.89.89,0,0,1,.72.66.88.88,0,0,1-.32.93c-.15.12-14.54,11.38-12.88,26.88,2-5.26,6.75-15.28,13.74-17.41a9,9,0,0,1,1.76-.36.89.89,0,0,1,.19,1.77,7.89,7.89,0,0,0-1.43.29c-8.48,2.58-13.64,19.27-13.69,19.44A.89.89,0,0,1,168.07,307.89Z"/><path class="cls-15" d="M179.68,246.48a.89.89,0,0,1-.74-.41c-22.46-34.55-11.55-88.19-2-103.48,9.14-14.55,18.09-51.14,18.18-51.51a.89.89,0,0,1,1.73.42c0,.1-2.29,9.39-5.67,20.37-4.54,14.79-8.83,25.45-12.73,31.67-9.42,15-20.12,67.64,1.94,101.56a.9.9,0,0,1-.75,1.38Z"/><path class="cls-15" d="M357.72,194a.84.84,0,0,1-.35-.07.89.89,0,0,1-.47-1.16c2.84-6.73,7.91-13.46,15.06-20a128.63,128.63,0,0,1,20.87-15.12c4.15-2.46,8.17-4.61,11.79-6.41-4.24,1.45-9.08,3.17-14.19,5.12-21.09,8-37.09,16.21-46.27,23.63a.9.9,0,0,1-1.25-.14.89.89,0,0,1,.13-1.25c11.78-9.52,31.94-18.25,46.77-23.91,16-6.11,29.48-10,29.62-10.07a.89.89,0,0,1,.56,1.68c-.5.19-49.5,18.85-61.46,47.15A.88.88,0,0,1,357.72,194Z"/><path class="cls-15" d="M383.78,249.22a.86.86,0,0,1-.58-.22.89.89,0,0,1-.09-1.25c1.17-1.36,5.27-6.56,8.63-16.53,3.51-10.42,5.06-22.42,4.61-35.67-.54-16.1,5.67-29,11-37.06a66.62,66.62,0,0,1,11.78-13.7.89.89,0,0,1,1.13,1.38c-.23.19-23.12,19.42-22.11,49.32.45,13.46-1.13,25.68-4.71,36.3-3.36,10-7.39,15.3-9,17.12A.85.85,0,0,1,383.78,249.22Z"/><path class="cls-15" d="M271.38,242.12s22.32-39.23,41.19-38.77,20.71,12.42,20.71,12.42,2.53-20.7-19.56-22.66S271.38,242.12,271.38,242.12Z"/><path class="cls-15" d="M368.25,225.44s9.06-4.61,13.39,0-.28,16.68-.28,16.68.12-11.45-2.12-13.12C375.52,226.24,368.25,225.44,368.25,225.44Z"/><path class="cls-15" d="M302.37,327.56a.9.9,0,0,1-.81-.51c-13.53-29.53-69.34-81.34-69.9-81.86a.89.89,0,1,1,1.21-1.31c.56.52,56.63,52.58,70.31,82.43a.88.88,0,0,1-.44,1.17A.8.8,0,0,1,302.37,327.56Z"/><path class="cls-15" d="M263,315.35a33.17,33.17,0,0,1-19.32-6.2c-5.87-4.24-11-10.28-15.28-18a86.88,86.88,0,0,1-8.77-22.65.9.9,0,0,1,.68-1.06.88.88,0,0,1,1.06.67A84.49,84.49,0,0,0,230,290.33c4.14,7.45,9.1,13.3,14.76,17.38a31.37,31.37,0,0,0,24,5.34,29.67,29.67,0,0,0,19.66-13,.89.89,0,0,1,1.23-.26.9.9,0,0,1,.26,1.23,31.47,31.47,0,0,1-20.82,13.82A33,33,0,0,1,263,315.35Z"/><path class="cls-15" d="M270.6,394.58a21.54,21.54,0,0,1-15.68-6.67c-5.35-5.78-6.39-14.49-7.22-21.49a174.27,174.27,0,0,1-.83-19.74c0-2.64,0-5.37-.08-8-.13-5.67-.2-11.09-.23-16.58,0-2.87,0-9.68,0-11.48a.9.9,0,0,1,.89-.89h0a.89.89,0,0,1,.88.9c0,1.79,0,8.6,0,11.46,0,5.48.1,10.89.23,16.55.06,2.66.07,5.4.08,8.06a172.3,172.3,0,0,0,.81,19.53c.81,6.74,1.81,15.13,6.77,20.49a19.76,19.76,0,0,0,20.73,5,16.18,16.18,0,0,0,9.14-8.87,28.13,28.13,0,0,0,1.58-5.39c.7-3.16,1.42-6.43,3.81-9,3.68-4,10.54-7.89,16.05-11l3.14-1.82a.89.89,0,1,1,.9,1.53c-.95.56-2,1.18-3.16,1.83-5.4,3.09-12.13,6.94-15.63,10.71-2.05,2.22-2.7,5.11-3.38,8.17a30.55,30.55,0,0,1-1.68,5.73,18,18,0,0,1-10.16,9.82A20.48,20.48,0,0,1,270.6,394.58Z"/><path class="cls-15" d="M294.61,394.59a.92.92,0,0,1-.39-.09.9.9,0,0,1-.41-1.19c6.63-13.7,25.77-29.83,32.08-34.91h-8.34c-13.44-1.24-25.83-9.28-35.85-23.23a92.56,92.56,0,0,1-11.16-20.85.89.89,0,0,1,1.68-.58,90.82,90.82,0,0,0,10.95,20.43c6.76,9.4,18.23,20.93,34.5,22.46h10.77a.91.91,0,0,1,.85.6.89.89,0,0,1-.3,1c-.07.05-6.57,5.07-13.94,12-9.7,9.12-16.49,17.38-19.64,23.89A.9.9,0,0,1,294.61,394.59Z"/><path class="cls-15" d="M352.52,328.52a38.51,38.51,0,0,0-21.38-6.88c-3.43-.05-9.42.68-9.12,5.36.39,6.2,5.09,11.93,10,15.38,4.34,3,10.3,1.87,15.06.64,3.83-1,9.93-2.16,10.29-7.08C357.59,332.85,355.06,330.29,352.52,328.52Zm-22.32-.18c-2,0-3.69-1-3.69-2.2s1.66-2.2,3.69-2.2,3.71,1,3.71,2.2S332.25,328.34,330.2,328.34Z"/><path class="cls-15" d="M228.94,373.22a.89.89,0,0,1-.84-.63c-9.14-29.07-4.67-91.61-4.63-92.24a.89.89,0,0,1,1.78.13c-.05.63-4.49,62.83,4.54,91.58a.88.88,0,0,1-.58,1.11A.86.86,0,0,1,228.94,373.22Z"/><path class="cls-15" d="M311.16,310.12c-1.12,0-2.23-.05-3.31-.11l-1.07-.05c-5-.2-10.31-.67-14.16-3.82-9-7.38-8.65-23.61-8.07-30.24a63.8,63.8,0,0,1,10.65-29.79c2.46-3.67,6.43-8.75,11.34-12.07,5.5-3.73,10.94-4.48,16.16-2.23a14.34,14.34,0,0,1,6.45,5.71c2.05,3.39,2,7.24,1.89,11,0,.68,0,1.36,0,2,0,5.38-.23,10.7-.68,15.79l-.21,2.17a154.75,154.75,0,0,1-5.89,29.48c-2.18,7.22-2.74,8.25-3.67,9.18a9.6,9.6,0,0,1-4.05,2.34,17.41,17.41,0,0,1-5,.66Zm5.62-77.75c-5.12,0-12.21,2.95-20.1,14.73a62,62,0,0,0-10.36,29c-1.66,19.08,4.64,26.43,7.43,28.71,3.42,2.81,8.35,3.23,13.1,3.43l1.09.05c1.16.05,2.37.11,3.57.1a15.73,15.73,0,0,0,4.48-.58,7.75,7.75,0,0,0,3.32-1.91c.6-.59,1.08-1.32,3.22-8.42a153,153,0,0,0,5.82-29.15l.21-2.14c.44-5.05.67-10.31.68-15.64h0c0-.68,0-1.36,0-2.05.07-3.47.15-7.06-1.64-10a12.63,12.63,0,0,0-5.64-5A13.19,13.19,0,0,0,316.78,232.37Z"/><path class="cls-15" d="M362.35,327.59l-.63,0c-4.06-.34-7.73-4.06-9.42-7.37-2.07-4.05-.78-8.43.35-12.3l0-.12c.31-1.06.62-2.12.92-3.18.9-3.07,1.82-6.26,2.77-9.38s1.92-6.24,2.86-9.28c1.56-5,3.17-10.18,4.65-15.29,1.76-6.05,4.37-12.55,10.37-14.95a13.16,13.16,0,0,1,9.56.12.89.89,0,1,1-.66,1.65,11.34,11.34,0,0,0-8.24-.12c-5.28,2.11-7.6,7.88-9.32,13.79-1.49,5.13-3.1,10.31-4.66,15.33-.94,3-1.92,6.18-2.86,9.27s-1.87,6.29-2.76,9.36l-.93,3.18,0,.12c-1.09,3.72-2.22,7.58-.48,11,1.52,3,4.76,6.14,8,6.41a4.82,4.82,0,0,0,.93,0,5.61,5.61,0,0,0,2.64-1.27,36.54,36.54,0,0,0,6-6.2.89.89,0,1,1,1.42,1.07,38.29,38.29,0,0,1-6.36,6.56,7.42,7.42,0,0,1-3.53,1.61Z"/><path class="cls-15" d="M311.52,310.12a.92.92,0,0,1-.75-.41c-3.13-4.83-3.57-14.34-1.13-24.23A45.29,45.29,0,0,1,317,269.14c3.3-4.3,6.84-6.23,10-5.45a6.23,6.23,0,0,1,3.13,1.93.9.9,0,0,1,.23.67l-.21,2.17a154.75,154.75,0,0,1-5.89,29.48c-2.18,7.22-2.74,8.25-3.67,9.18a9.6,9.6,0,0,1-4.05,2.34,17.41,17.41,0,0,1-5,.66Zm14.09-44.82c-2.19,0-4.76,1.74-7.21,4.92a43.64,43.64,0,0,0-7,15.68c-2.23,9-2,17.91.64,22.43a14.47,14.47,0,0,0,4-.57,7.75,7.75,0,0,0,3.32-1.91c.6-.59,1.08-1.32,3.22-8.42a153,153,0,0,0,5.82-29.15c.06-.58.12-1.16.17-1.74a4.44,4.44,0,0,0-2-1.13A4.17,4.17,0,0,0,325.61,265.3Z"/><path class="cls-15" d="M319.93,306.49a8.67,8.67,0,0,1-3.68,2.12c-2.66-4-3.2-12.23-1-21.19,2.8-11.29,8.93-19.56,14-19.05a155.3,155.3,0,0,1-5.86,29.31C321.18,305,320.69,305.74,319.93,306.49Z"/><path class="cls-15" d="M383.67,291.69c-3.51,17.25-11.51,27.16-11.51,27.16a37.09,37.09,0,0,1-6.18,6.38,39.48,39.48,0,0,1,1-15.85c2.9-11.73,9.42-20.21,14.56-18.94A4.65,4.65,0,0,1,383.67,291.69Z"/><path class="cls-15" d="M362.35,327.59l-.63,0A.87.87,0,0,1,361,327c-1.89-5.39-1.46-13.69,1.17-22.2,4.19-13.56,12.33-22.69,18.54-20.77a7.29,7.29,0,0,1,4.32,4.27.91.91,0,0,1,.07.49c-.11.8-.24,1.63-.42,2.53l-.11.56C381,309.13,373.18,319,372.85,319.41a37.94,37.94,0,0,1-6.34,6.54,7.42,7.42,0,0,1-3.53,1.61ZM379,285.52c-5,0-11.63,8.51-15.11,19.78-2.39,7.73-2.9,15.51-1.38,20.51l.35,0a5.61,5.61,0,0,0,2.64-1.27,36.94,36.94,0,0,0,6-6.2,48,48,0,0,0,4.39-7,75.37,75.37,0,0,0,7-19.77l.11-.55c.15-.77.27-1.49.37-2.19a5.42,5.42,0,0,0-3.12-3.07A4.07,4.07,0,0,0,379,285.52Z"/><path class="cls-15" d="M337.69,364.46h-.11c-6.32,0-10-2.55-10-6.94a.89.89,0,0,1,.88-.9h0a.88.88,0,0,1,.89.88c.05,4.48,5.2,5.17,8.26,5.18a32.83,32.83,0,0,0,20.36-7A24.07,24.07,0,0,0,367.31,337c0-3.17-.89-8.72-4.58-9.45a.89.89,0,0,1-.7-1.05.87.87,0,0,1,1-.69c2.17.43,3.86,2.05,4.9,4.68a18.37,18.37,0,0,1,1.12,6.52,25.81,25.81,0,0,1-10,20.09A34.62,34.62,0,0,1,337.69,364.46Z"/><path class="cls-15" d="M352.09,319.11a.85.85,0,0,1-.31-.06c-2.44-.92-9.47-.28-12,.05a.88.88,0,0,1-.77-.28A35.34,35.34,0,0,0,319.1,308a.89.89,0,0,1,.2-1.77,36.48,36.48,0,0,1,20.73,11c2-.23,9.42-1,12.38.11a.89.89,0,0,1-.32,1.72Z"/><path class="cls-15" d="M367.79,261a.9.9,0,0,1-.28,0,.88.88,0,0,1-.59-1c.51-3.06.48-26-14.18-31.64a11.87,11.87,0,0,0-9.48.09c-7.48,3.39-11.41,13.95-11.45,14a.89.89,0,0,1-1,.57.88.88,0,0,1-.74-.85c0-.22-.67-21.55-13.92-23.68-6.76-1.08-12.45,7.88-16,15.59a116.12,116.12,0,0,0-6.31,17.68.89.89,0,0,1-1.73-.44c.39-1.51,9.57-36.95,24.35-34.58,11.32,1.82,14.33,15.33,15.13,21.88,1.85-3.64,5.47-9.35,10.94-11.83a13.56,13.56,0,0,1,10.86-.14c12.29,4.77,15.36,21.12,15.5,29.61,3.13-5.46,9-14.5,13-13.44a.9.9,0,0,1,.63,1.09.89.89,0,0,1-1.09.63c-2.74-.74-9.16,8.89-12.83,16A.86.86,0,0,1,367.79,261Z"/><path class="cls-15" d="M299.91,337.92a.85.85,0,0,1-.38-.09c-30.82-14.73-124.55-4.09-125.49-4a.87.87,0,0,1-1-.78.89.89,0,0,1,.78-1c.23,0,24-2.75,51.28-3.61,36.73-1.14,62,1.46,75.18,7.75a.88.88,0,0,1,.41,1.18A.89.89,0,0,1,299.91,337.92Z"/><path class="cls-15" d="M357.38,333.86a.89.89,0,0,1-.48-1.64,269.48,269.48,0,0,1,30.38-15.94c16.16-7.23,39.77-15.76,60.54-15.25a.89.89,0,0,1,0,1.78h0c-39.12-.92-89.42,30.6-89.93,30.92A.83.83,0,0,1,357.38,333.86Z"/><path class="cls-15" d="M430.72,362.25a1,1,0,0,1-.49-.14c-21.76-14.18-77.54-11.79-78.1-11.77a.89.89,0,0,1-.08-1.77,303,303,0,0,1,31.07.52c22.55,1.55,38.72,5.43,48.08,11.53a.89.89,0,0,1-.48,1.63Z"/></g><g id="책상"><rect class="cls-16" y="857.76" width="1000" height="47.41"/><rect class="cls-16" y="905.17" width="67.02" height="94.83"/><rect class="cls-16" x="804.88" y="905.17" width="67.02" height="94.83"/><polygon class="cls-17" points="1000 857.76 1000 905.17 871.9 905.17 871.9 1000 838.39 1000 838.39 857.76 1000 857.76"/><rect class="cls-18" x="67.02" y="905.17" width="737.86" height="94.83"/><rect class="cls-19" x="871.9" y="905.17" width="128.1" height="94.83"/><rect class="cls-17" x="33.51" y="905.17" width="33.51" height="94.83"/></g></svg>