<svg xmlns="http://www.w3.org/2000/svg" viewBox="0 0 1000 1000"><defs><style>.cls-1{fill:#ffe3ec;}.cls-2{fill:#ffcbdc;}.cls-3{fill:#ffb5cd;}.cls-4{fill:#fff;}.cls-5{fill:#2d2d37;}.cls-13,.cls-6,.cls-8{fill:none;stroke-linecap:round;stroke-linejoin:round;stroke-width:5px;}.cls-6{stroke:#ffcbdc;}.cls-7{fill:#bfab9b;}.cls-13,.cls-8{stroke:#dadada;}.cls-9{fill:#ffe4ee;}.cls-10{fill:#c8ccce;}.cls-11{fill:#d5d8db;}.cls-12{fill:#e8ebef;}.cls-13{opacity:0.4;}.cls-14{fill:#dadada;}.cls-15{fill:#c6c6c6;}.cls-16{fill:#bfc0c1;}.cls-17{fill:#adadad;}.cls-18{fill:#897c74;}.cls-19{fill:#706661;}.cls-20{fill:#7f736c;}.cls-21{fill:#665e5a;}</style></defs><g id="얼굴"><path class="cls-1" d="M780,364.3s1,36-33,42v117H589V473.69s-37-14.39-47-57.39c0,0-.39,0-1.08.05-6,.16-34.92-.68-34.92-32.05,0-35,17.26-38.46,17.26-38.46S515,209,643,210.64,782,336.3,780,364.3Z"/></g><g id="표정"><path class="cls-2" d="M589,473.69s76,22.61,123-18.39l-28,68H589Z"/><path class="cls-3" d="M728.44,421.35s-26.82-20.18-49.06.95c-27.36,26-4.06,52.52-4.06,52.52s18.31-3.64,36.7-19.52A76.91,76.91,0,0,0,728.44,421.35Z"/><path class="cls-3" d="M589,473.69s-37-14.39-47-57.39c0,0-.39,0-1.08.05l1.57-1.05s27.51-12,43,15.08C599.6,455,589,473.69,589,473.69Z"/><path class="cls-3" d="M675.32,474.82s18.31-3.64,36.7-19.52a76.91,76.91,0,0,0,16.42-33.95"/><ellipse class="cls-4" cx="668.21" cy="394.3" rx="21.5" ry="26"/><ellipse class="cls-5" cx="664.56" cy="394.3" rx="15.72" ry="20.43"/><ellipse class="cls-4" cx="589.02" cy="394.3" rx="21.5" ry="26"/><ellipse class="cls-5" cx="585.37" cy="394.3" rx="15.72" ry="20.43"/><path class="cls-6" d="M754.8,356.53V385s-.69-21.43,11.85-23"/><path class="cls-6" d="M529.74,361.31s4.63,36.25,9.72,47.42"/></g><g id="머리카락"><path class="cls-5" d="M780,364.3c0-39-43-41-42,2,0,0-20-7-41-7s-43-17-43-17,2,9,4,12c0,0-43,18-72-14,0,0-2,4.59,0,13.8,0,0-97,30.2-87-91.8s145-115,162-108c0,0,96-22,135,64,0,0,21,41,12,80S780,364.3,780,364.3Z"/></g><g id="와이셔츠_뒷면" data-name="와이셔츠 뒷면"><polyline class="cls-4" points="566.05 539.2 767.63 539.2 747.46 649.51 661.75 659.84 599.45 632.49 575.44 592.68 566.05 539.2"/></g><g id="넥타이"><polygon class="cls-5" points="643.12 564.15 650.52 585.84 629.84 643.28 701.88 643.28 684.09 585.84 690.89 564.01 666.07 516.54 643.12 564.15"/></g><g id="조끼"><path class="cls-7" d="M883,988.54c-1.82-75.67-25.83-423.23-25.83-423.23-26.14-11.81-86.1-32.71-86.1-32.71S743.64,643.22,667.27,643.22h0c-76.36,0-103.79-110.62-103.79-110.62s-59.94,20.9-86.08,32.71c0,0-24,347.56-25.84,423.23Z"/></g><g id="와이셔츠_깃" data-name="와이셔츠 깃"><path class="cls-4" d="M666.84,524.9l12.36,30.89a13.09,13.09,0,0,0,14,8.1l65.5-13.95c6-1.41,15.62-8.21,11.89-17.27L747,492.08a336.48,336.48,0,0,1-80.17,9.42Z"/><path class="cls-4" d="M666.84,524.9l-12.35,30.89a13.1,13.1,0,0,1-14,8.1L575,549.94c-6-1.41-15.62-8.21-11.9-17.27l23.62-40.59a336.48,336.48,0,0,0,80.17,9.42Z"/><line class="cls-8" x1="694.5" y1="563.27" x2="755.19" y2="550.77"/><line class="cls-8" x1="637.54" y1="563.27" x2="577.49" y2="550.48"/></g><g id="손"><path class="cls-9" d="M623.18,715.32c-12.3-1.4-29.17-4.49-40.25-6.65a126,126,0,0,0-24-2.3c-10.46-.43-23.07,7.35-23.07,7.35h0l-16.83-.28-99.21-2.86a18.4,18.4,0,1,0-1.06,36.79l52.32,1.51a18.36,18.36,0,0,0,2.07,31.59,18.39,18.39,0,0,0,6.8,35.25l56.86,1.64,6,35.23L608,854.47l36,1,4-139.47Z"/></g><g id="팔"><path class="cls-4" d="M477.41,565.3l-24.1,434.57H340.57c6.16-368,135.8-434,136.83-434.56Z"/><path class="cls-8" d="M352.76,840c23.46-159.39,74.49-229.91,103.46-258.11"/><path class="cls-4" d="M898.06,923.18c-42.81,5.16-40.92-357.88-40.92-357.88s89,56.33,110.31,164.66a1.55,1.55,0,0,0,0,.21C969,737,1004.81,910.33,898.06,923.18Z"/><path class="cls-4" d="M731.47,613H871a0,0,0,0,1,0,0V897.84a69.75,69.75,0,0,1-69.75,69.75h0a69.75,69.75,0,0,1-69.75-69.75V613A0,0,0,0,1,731.47,613Z" transform="translate(-11.85 1568.35) rotate(-88.35)"/><path class="cls-4" d="M967.08,730.24a1.55,1.55,0,0,1,0-.21A1.76,1.76,0,0,1,967.08,730.24Z"/></g><g id="선"><line class="cls-8" x1="669.06" y1="806.15" x2="671.37" y2="726.39"/><path class="cls-8" d="M877,580.43c27.51,23.4,75.54,73.74,90.47,149.53a1.55,1.55,0,0,0,0,.21c.81,3.81,12.29,59.25,3.87,109.85"/><line class="cls-8" x1="867.58" y1="739.01" x2="895.51" y2="764.61"/><line class="cls-8" x1="755.19" y1="497.49" x2="767.63" y2="524.85"/></g><g id="책상_위_사물" data-name="책상 위 사물"><rect class="cls-10" x="86.12" y="843.03" width="682.26" height="14.73"/><rect class="cls-11" x="86.12" y="843.03" width="463.4" height="14.73"/><polygon class="cls-10" points="561.83 843.03 98.6 843.03 51.37 541.28 514.6 541.28 561.83 843.03"/><polygon class="cls-12" points="549.35 843.03 86.12 843.03 38.89 541.28 502.12 541.28 549.35 843.03"/><path class="cls-13" d="M188.52,154.77H400.88a16.75,16.75,0,0,1,16.75,16.75V279.19a16.75,16.75,0,0,1-16.75,16.75H130.4a16.75,16.75,0,0,1-16.74-16.75V271"/><rect class="cls-13" x="110.26" y="316.37" width="232.87" height="74.8" rx="16.75"/><rect class="cls-14" x="132.64" y="330.14" width="156.17" height="15.07"/><rect class="cls-14" x="132.64" y="356.43" width="130.47" height="7.32"/><rect class="cls-14" x="132.64" y="368.59" width="130.47" height="8.81"/><rect class="cls-14" x="200.37" y="179.93" width="189.34" height="17.63"/><rect class="cls-14" x="200.37" y="206.22" width="158.18" height="7.32"/><rect class="cls-14" x="200.37" y="218.37" width="158.18" height="8.81"/><rect class="cls-14" x="200.37" y="236.49" width="158.18" height="9.7"/><rect class="cls-14" x="200.37" y="255.88" width="158.18" height="15.11"/><path class="cls-13" d="M397.51,407.64H198.13a16.75,16.75,0,0,0-16.75,16.75V465.7a16.75,16.75,0,0,0,16.75,16.74h160l-4.48,35,32.42-35h11.47a16.74,16.74,0,0,0,16.74-16.74V424.39A16.74,16.74,0,0,0,397.51,407.64Z"/><rect class="cls-14" x="209.71" y="421.41" width="164.37" height="13.78" transform="translate(583.79 856.6) rotate(-180)"/><rect class="cls-14" x="209.71" y="447.7" width="137.31" height="7.32" transform="translate(556.73 902.72) rotate(-180)"/><rect class="cls-14" x="209.71" y="459.86" width="137.31" height="8.81" transform="translate(556.73 928.53) rotate(-180)"/><path class="cls-15" d="M67,264.65v-145h70.69c.48.5.95,1,1.45,1.5q20,19.76,40,39.49a4,4,0,0,1,1.31,3.18q0,49.29,0,98.57v2.22ZM133.11,167V126.07H73.51V258.25H174.06V167Zm37-6.38-30.49-30.1v30.1Z"/><path class="cls-15" d="M114.34,187.65c2,0,3.84-.06,5.67,0,.37,0,.89.63,1,1.06,1,3.08,1.94,6.19,3,9.75l3-10.79h6.15a89,89,0,0,1-3.65,9.58,12.33,12.33,0,0,0,.07,12.26c1.61,3,2.58,6.41,3.92,9.87-2,0-3.8.07-5.58,0-.39,0-.93-.61-1.08-1-1-2.72-1.86-5.48-2.77-8.23-.17-.52-.36-1-.7-2-1,3.54-1.93,6.62-2.73,9.72-.31,1.23-.84,1.72-2.13,1.61s-2.77,0-4.36,0c.18-.64.29-1.12.45-1.58,1.63-4.46,3.3-8.9,4.85-13.39a4.26,4.26,0,0,0,0-2.62c-1.44-4.16-3-8.28-4.52-12.41C114.74,188.91,114.58,188.37,114.34,187.65Z"/><path class="cls-15" d="M142.38,205.4V214h8.06v5.28H136.22V187.72H149.8V193h-7.39v7.31h7.1v5.09Z"/><path class="cls-15" d="M98.39,219.31V187.76H112V193h-7.39v7.31h7v5.18h-7v8.63h7.93v5.24Z"/><rect class="cls-12" x="640.62" y="850.62" width="328.24" height="7.36"/><rect class="cls-11" x="833.49" y="850.62" width="135.36" height="7.36"/><rect class="cls-16" x="640.62" y="850.12" width="192.88" height="1"/><rect class="cls-17" x="833.49" y="850.12" width="135.36" height="1"/><rect class="cls-12" x="640.62" y="842.76" width="328.24" height="7.36"/><rect class="cls-11" x="833.49" y="842.76" width="135.36" height="7.36"/><rect class="cls-16" x="640.62" y="842.26" width="199.7" height="1"/><rect class="cls-17" x="827.1" y="842.26" width="135.36" height="1"/><rect class="cls-12" x="634.22" y="834.89" width="328.24" height="7.36"/><rect class="cls-11" x="827.1" y="834.89" width="135.36" height="7.36"/><rect class="cls-16" x="634.22" y="834.39" width="192.87" height="1"/><rect class="cls-17" x="827.1" y="834.39" width="135.36" height="1"/><rect class="cls-12" x="634.22" y="827.03" width="328.24" height="7.36"/><rect class="cls-11" x="827.1" y="827.03" width="135.36" height="7.36"/><rect class="cls-16" x="647.45" y="826.53" width="192.88" height="1"/><rect class="cls-17" x="840.32" y="826.53" width="135.36" height="1"/><rect class="cls-12" x="647.45" y="819.16" width="328.24" height="7.36"/><rect class="cls-11" x="840.32" y="819.16" width="135.36" height="7.36"/><rect class="cls-16" x="647.45" y="818.66" width="192.88" height="1"/><rect class="cls-17" x="840.32" y="818.66" width="135.36" height="1"/><rect class="cls-12" x="647.45" y="811.3" width="328.24" height="7.36"/><rect class="cls-11" x="840.32" y="811.3" width="135.36" height="7.36"/><rect class="cls-16" x="647.45" y="810.8" width="192.88" height="1"/><rect class="cls-17" x="840.32" y="810.8" width="135.36" height="1"/><rect class="cls-12" x="657.47" y="803.43" width="328.24" height="7.36"/><rect class="cls-11" x="850.35" y="803.43" width="135.36" height="7.36"/><rect class="cls-16" x="657.47" y="802.93" width="192.88" height="1"/><rect class="cls-17" x="850.35" y="802.93" width="135.36" height="1"/><rect class="cls-12" x="657.47" y="795.57" width="328.24" height="7.36"/><rect class="cls-11" x="850.35" y="795.57" width="135.36" height="7.36"/><rect class="cls-16" x="657.47" y="795.07" width="192.88" height="1"/><rect class="cls-17" x="850.35" y="795.07" width="135.36" height="1"/><path class="cls-17" d="M767.27,803.43h22.56c0,.06-3.8,2.69-5.16,6.22a27.56,27.56,0,0,0-1.3,7.19H761.05a20.18,20.18,0,0,1,2.11-7.75C764.85,806.13,766.18,804.06,767.27,803.43Z"/><path class="cls-17" d="M780.26,818.66h22.57c-.05.06-3.8,2.69-5.17,6.22a26.9,26.9,0,0,0-1.29,7.19H774a20.05,20.05,0,0,1,2.12-7.75C777.84,821.36,779.17,819.29,780.26,818.66Z"/><path class="cls-17" d="M673.81,827h22.57c0,.06-3.8,2.69-5.17,6.21a27,27,0,0,0-1.29,7.19H667.59a20.05,20.05,0,0,1,2.12-7.75C671.39,829.72,672.72,827.66,673.81,827Z"/></g><g id="책상"><rect class="cls-18" y="857.76" width="1000" height="47.41"/><rect class="cls-18" y="905.17" width="67.02" height="94.83"/><rect class="cls-18" x="804.88" y="905.17" width="67.02" height="94.83"/><polygon class="cls-19" points="1000 857.76 1000 905.17 871.9 905.17 871.9 1000 838.39 1000 838.39 857.76 1000 857.76"/><rect class="cls-20" x="67.02" y="905.17" width="737.86" height="94.83"/><rect class="cls-21" x="871.9" y="905.17" width="128.1" height="94.83"/><rect class="cls-19" x="33.51" y="905.17" width="33.51" height="94.83"/></g></svg>