<svg xmlns="http://www.w3.org/2000/svg" viewBox="0 0 1000 1000"><defs><style>.cls-1{fill:#ffe3ec;}.cls-2{fill:#ffcbdc;}.cls-3{fill:#ffb5cd;}.cls-4{fill:#fff;}.cls-5{fill:#2d2d37;}.cls-14,.cls-6,.cls-8{fill:none;stroke-linecap:round;stroke-linejoin:round;stroke-width:5px;}.cls-6{stroke:#ffcbdc;}.cls-7{fill:#bfab9b;}.cls-14,.cls-8{stroke:#dadada;}.cls-9{fill:#c8ccce;}.cls-10{fill:#d5d8db;}.cls-11{fill:#e8ebef;}.cls-12{fill:#dadada;}.cls-13{fill:#c6c6c6;}.cls-14,.cls-15{opacity:0.4;}.cls-16{opacity:0.6;}.cls-17{fill:#897c74;}.cls-18{fill:#706661;}.cls-19{fill:#7f736c;}.cls-20{fill:#665e5a;}</style></defs><g id="얼굴"><path class="cls-1" d="M767.8,364.3s1,36-33,42v117h-158V473.69s-37-14.39-47-57.39c0,0-.39,0-1.08.05-6,.16-34.92-.68-34.92-32.05,0-35,17.26-38.46,17.26-38.46S502.8,209,630.8,210.64,769.8,336.3,767.8,364.3Z"/></g><g id="표정"><path class="cls-2" d="M576.8,473.69s76,22.61,123-18.39l-28,68h-95Z"/><path class="cls-3" d="M716.22,421.35s-26.82-20.18-49.06.95c-27.36,26-4.06,52.52-4.06,52.52s18.31-3.64,36.7-19.52A76.91,76.91,0,0,0,716.22,421.35Z"/><path class="cls-3" d="M576.8,473.69s-37-14.39-47-57.39c0,0-.39,0-1.08.05l1.57-1.05s27.51-12,43,15.08C587.37,455,576.8,473.69,576.8,473.69Z"/><path class="cls-3" d="M663.1,474.82s18.31-3.64,36.7-19.52a76.91,76.91,0,0,0,16.42-33.95"/><ellipse class="cls-4" cx="655.99" cy="394.3" rx="21.5" ry="26"/><ellipse class="cls-5" cx="652.34" cy="394.3" rx="15.72" ry="20.43"/><ellipse class="cls-4" cx="576.8" cy="394.3" rx="21.5" ry="26"/><ellipse class="cls-5" cx="573.15" cy="394.3" rx="15.72" ry="20.43"/><path class="cls-6" d="M742.57,356.53V385s-.68-21.43,11.86-23"/><path class="cls-6" d="M517.52,361.31s4.63,36.25,9.72,47.42"/></g><g id="머리카락"><path class="cls-5" d="M767.8,364.3c0-39-43-41-42,2,0,0-20-7-41-7s-43-17-43-17,2,9,4,12c0,0-43,18-72-14,0,0-2,4.59,0,13.8,0,0-97,30.2-87-91.8s145-115,162-108c0,0,96-22,135,64,0,0,21,41,12,80S767.8,364.3,767.8,364.3Z"/></g><g id="와이셔츠_뒷면" data-name="와이셔츠 뒷면"><polyline class="cls-4" points="553.83 539.2 755.41 539.2 735.24 649.51 649.53 659.84 587.23 632.49 563.22 592.68 553.83 539.2"/></g><g id="넥타이"><polygon class="cls-5" points="630.89 564.15 638.29 585.84 617.62 643.28 689.66 643.28 671.87 585.84 678.67 564.01 653.85 516.54 630.89 564.15"/></g><g id="조끼"><path class="cls-7" d="M870.76,988.54c-1.82-75.67-25.83-423.23-25.83-423.23-26.14-11.81-86.1-32.71-86.1-32.71S731.41,643.22,655.05,643.22h0c-76.36,0-103.79-110.62-103.79-110.62s-59.95,20.9-86.08,32.71c0,0-24,347.56-25.84,423.23Z"/></g><g id="와이셔츠_깃" data-name="와이셔츠 깃"><path class="cls-4" d="M654.62,524.9,667,555.79a13.11,13.11,0,0,0,14,8.1l65.5-13.95c6-1.41,15.62-8.21,11.89-17.27l-23.62-40.59a336.48,336.48,0,0,1-80.17,9.42Z"/><path class="cls-4" d="M654.62,524.9l-12.35,30.89a13.11,13.11,0,0,1-14,8.1l-65.5-13.95c-6-1.41-15.61-8.21-11.89-17.27l23.62-40.59a336.48,336.48,0,0,0,80.17,9.42Z"/><line class="cls-8" x1="682.28" y1="563.27" x2="742.97" y2="550.77"/><line class="cls-8" x1="625.32" y1="563.27" x2="565.27" y2="550.48"/></g><g id="팔"><path class="cls-4" d="M465.19,565.3l-24.1,434.57H328.35c6.16-368,135.8-434,136.83-434.56Z"/><path class="cls-8" d="M340.54,840C364,680.63,415,610.11,444,581.91"/><path class="cls-4" d="M845.68,565.3l24.1,434.57H982.52c-6.16-368-135.8-434-136.83-434.56Z"/><path class="cls-8" d="M970.33,840c-23.46-159.39-74.49-229.91-103.46-258.11"/><path class="cls-4" d="M954.86,730.24a1.55,1.55,0,0,1,0-.21A1.76,1.76,0,0,1,954.86,730.24Z"/></g><g id="책상_위_사물" data-name="책상 위 사물"><rect class="cls-9" x="91.56" y="843.03" width="682.26" height="14.73"/><rect class="cls-10" x="91.56" y="843.03" width="463.4" height="14.73"/><polygon class="cls-9" points="567.26 843.03 104.04 843.03 56.81 541.28 520.03 541.28 567.26 843.03"/><polygon class="cls-11" points="554.78 843.03 91.56 843.03 44.33 541.28 507.56 541.28 554.78 843.03"/><path class="cls-12" d="M88.2,232.14,63.3,246.61a3.79,3.79,0,0,0-1.88,3.27V288.6a2.21,2.21,0,0,0,3.36,1.89l13.69-8.35a4.45,4.45,0,0,0,2.14-3.8V260.43a3.13,3.13,0,0,1,1.53-2.69l6.29-3.69a3.13,3.13,0,0,1,3.22,0L98,258a3.12,3.12,0,0,1,1.48,2.65v17.23a4.45,4.45,0,0,0,2.11,3.78l14.16,8.76a2.21,2.21,0,0,0,3.37-1.88V249.34a3.79,3.79,0,0,0-2-3.32L91.93,232.09A3.79,3.79,0,0,0,88.2,232.14Z"/><path class="cls-13" d="M158.81,232.14l-24.87,14.45a3.83,3.83,0,0,0-1.89,3.3v29a3.79,3.79,0,0,0,1.91,3.3l25,14.44a3.81,3.81,0,0,0,3.82,0l25.06-14.57a3.83,3.83,0,0,0,1.89-3.3V249.35a3.8,3.8,0,0,0-2-3.34L162.57,232.1A3.82,3.82,0,0,0,158.81,232.14Z"/><path class="cls-12" d="M258.59,203.12l-14.79-8.5a2,2,0,0,0-2.94,1.71v40.23l-6.59-3.63a5.86,5.86,0,0,0-5.79.06l-22.83,13.27a5.9,5.9,0,0,0-2.93,5.08V278a5.9,5.9,0,0,0,2.94,5.09l23,13.25a5.88,5.88,0,0,0,5.88,0l23-13.38a5.87,5.87,0,0,0,2.92-5.08V206.31A3.66,3.66,0,0,0,258.59,203.12Zm-17.36,67a1.28,1.28,0,0,1-.63,1.11l-8.38,4.87a1.25,1.25,0,0,1-1.28,0l-8.37-4.82a1.29,1.29,0,0,1-.64-1.11v-9.71a1.29,1.29,0,0,1,.64-1.1l8.31-4.84a1.29,1.29,0,0,1,1.26,0l8.43,4.65a1.26,1.26,0,0,1,.66,1.11Z"/><path class="cls-13" d="M298.51,255l-4.84,2.81a.75.75,0,0,0-.37.64v5.65a.73.73,0,0,0,.37.64l4.87,2.81a.75.75,0,0,0,.74,0l4.88-2.84a.75.75,0,0,0,.37-.64v-5.72a.74.74,0,0,0-.39-.65l-4.9-2.71A.76.76,0,0,0,298.51,255Z"/><path class="cls-12" d="M295.6,293l-23.7-14a4.08,4.08,0,0,1-2-3.52V247.44a4.07,4.07,0,0,1,2-3.49l24-14.55a4.89,4.89,0,0,1,5,0L326,244.05a2.72,2.72,0,0,1,1.34,2.34v7.43a2.41,2.41,0,0,1-1.17,2.07l-15.42,9.33a1.32,1.32,0,0,1-2-1.13v-6.88a2.15,2.15,0,0,0-1.12-1.89l-7.78-4.26a2.5,2.5,0,0,0-2.43,0l-7,4a2.49,2.49,0,0,0-1.26,2.17v7.92a2.71,2.71,0,0,0,1.36,2.35L316,282.27a1.27,1.27,0,0,1,0,2.2L301.19,293A5.54,5.54,0,0,1,295.6,293Z"/><path class="cls-13" d="M395.11,246.21l-26.93-14.86a2.5,2.5,0,0,0-2.43,0l-26.51,15.41a2.46,2.46,0,0,0-1.23,2.13v31a2.47,2.47,0,0,0,1.24,2.14l8.22,4.74a8.21,8.21,0,0,0,12.31-7.11V252.14h-4.94v27.51a3.28,3.28,0,0,1-4.91,2.84l-7-4V250.34l24.07-14,24.43,13.47v28.51l-24.26,14.11-4.33-2.5-2.16-1.28-5.13,2.57,4.83,3,5.57,3.22a2.43,2.43,0,0,0,1.23.32,2.48,2.48,0,0,0,1.24-.33l26.72-15.54a2.49,2.49,0,0,0,1.23-2.14V248.37A2.46,2.46,0,0,0,395.11,246.21Z"/><path class="cls-13" d="M362.51,258.82s-.45-7.65,11.84-7.65,11.55,9,11.55,9h-4.57s0-5.06-7.12-5.06-7,3.9-7,3.9-.71,3,7,3,12.25,2.78,12.25,7.42-1.8,8.33-12.52,8.33-12-5.55-12-9.37h4.16s-1,5.36,7.95,5.36,7.76-4.13,7.76-4.13.3-3.37-8.14-3.37S362.51,262.68,362.51,258.82Z"/><rect class="cls-13" x="403.22" y="231.75" width="4.61" height="0.49"/><rect class="cls-13" x="405.28" y="232" width="0.49" height="5.57"/><polygon class="cls-13" points="411.94 237.65 411.48 237.64 409.62 232.24 409.42 232.24 409.42 237.56 408.93 237.56 408.93 232 409.18 231.75 409.8 231.75 410.03 231.92 411.71 236.81 413.44 231.91 413.68 231.75 414.3 231.75 414.54 232 414.54 237.56 414.05 237.56 414.05 232.24 413.85 232.24 411.94 237.65"/><path class="cls-14" d="M83.35,302.31v54.42a26.42,26.42,0,0,0,26.42,26.43H424.4a26.42,26.42,0,0,0,26.42-26.43V291.54a26.42,26.42,0,0,0-26.42-26.42H407.83"/><rect class="cls-12" x="120.54" y="314.33" width="232.71" height="13.78" transform="translate(473.79 642.44) rotate(-180)"/><rect class="cls-12" x="120.54" y="340.62" width="194.41" height="7.32" transform="translate(435.49 688.56) rotate(-180)"/><rect class="cls-12" x="120.54" y="352.78" width="194.41" height="8.81" transform="translate(435.49 714.36) rotate(-180)"/><path class="cls-14" d="M424.36,409.86H225a16.75,16.75,0,0,0-16.75,16.75v41.31A16.74,16.74,0,0,0,225,484.66H385l-4.48,35.05,32.42-35.05h11.47a16.74,16.74,0,0,0,16.75-16.74V426.61A16.75,16.75,0,0,0,424.36,409.86Z"/><rect class="cls-12" x="236.56" y="423.63" width="164.37" height="13.78" transform="translate(637.49 861.05) rotate(-180)"/><rect class="cls-12" x="236.56" y="449.92" width="137.31" height="7.32" transform="translate(610.44 907.16) rotate(-180)"/><rect class="cls-12" x="236.56" y="462.08" width="137.31" height="8.81" transform="translate(610.44 932.97) rotate(-180)"/><g class="cls-15"><path class="cls-12" d="M813.94,317.48c19.54-14.9,30.18-40.15,32.38-64.62s-1.43-49.06-2.16-73.62c-.44-15.05.3-30.58,6.52-44.3,6.68-14.73,20-26.62,35.8-30.14s33.6,2.06,43.48,14.86c9.69,12.54,10.89,30,6.95,45.4s-12.41,29.1-20.76,42.58L889.33,251c-6.75,10.89-13.54,21.84-22.12,31.35-14.38,15.94-33.32,27.25-53.27,35.18"/></g><g class="cls-16"><path class="cls-12" d="M885.54,133.14q-3.91,2.63-8.07,4.87A1.5,1.5,0,1,0,879,140.6q4.14-2.23,8.06-4.87a1.5,1.5,0,1,0-1.51-2.59Z"/></g><g class="cls-16"><path class="cls-12" d="M912.5,138.12l5.1,7.47a1.5,1.5,0,1,0,2.59-1.52l-5.1-7.46a1.5,1.5,0,0,0-2.59,1.51Z"/></g><g class="cls-16"><path class="cls-12" d="M902.34,144.89c-6.2-2.68-12.91,2.09-15.76,7.46-7.55,14.19,19.42,25.41,23.31,8.38,1.25-5.5-.66-15.11-7.55-15.84"/></g></g><g id="책상"><rect class="cls-17" y="857.76" width="1000" height="47.41"/><rect class="cls-17" y="905.17" width="67.02" height="94.83"/><rect class="cls-17" x="804.88" y="905.17" width="67.02" height="94.83"/><polygon class="cls-18" points="1000 857.76 1000 905.17 871.9 905.17 871.9 1000 838.39 1000 838.39 857.76 1000 857.76"/><rect class="cls-19" x="67.02" y="905.17" width="737.86" height="94.83"/><rect class="cls-20" x="871.9" y="905.17" width="128.1" height="94.83"/><rect class="cls-18" x="33.51" y="905.17" width="33.51" height="94.83"/></g></svg>