<svg xmlns="http://www.w3.org/2000/svg" viewBox="0 0 1000 1000"><defs><style>.cls-1{fill:#ffe3ec;}.cls-2{fill:#ffcbdc;}.cls-3{fill:#ffb5cd;}.cls-4{fill:#fff;}.cls-5{fill:#2d2d37;}.cls-10,.cls-12,.cls-6,.cls-8{fill:none;stroke-linecap:round;stroke-linejoin:round;stroke-width:5px;}.cls-6{stroke:#ffcbdc;}.cls-7{fill:#bfab9b;}.cls-8{stroke:#dadada;}.cls-9{fill:#706661;}.cls-10{stroke:#665e5a;}.cls-11{fill:#7f736c;}.cls-12{stroke:#ffde3e;}.cls-13{fill:#ffe4ee;}.cls-14{fill:#dadada;}.cls-15{fill:#7a7a7a;}</style></defs><g id="얼굴"><path class="cls-1" d="M722.89,355.05s1,36-33,42v117h-158V464.44s-37-14.39-47-57.39c0,0-.39,0-1.08.05-6,.16-34.92-.68-34.92-32.05,0-35,17.26-38.46,17.26-38.46s-8.26-136.85,119.74-135.2S724.89,327.05,722.89,355.05Z"/></g><g id="표정"><path class="cls-2" d="M531.9,464.42s76,22.61,123-18.39l-28,68h-95Z"/><path class="cls-3" d="M531.9,464.42s-37-14.39-47-57.39c0,0-.39,0-1.08.05l1.57-1.05s27.51-12,43,15.08C542.48,445.71,531.9,464.42,531.9,464.42Z"/><path class="cls-3" d="M671.33,412.08s-26.82-20.18-49.06.95c-27.37,26-4.06,52.52-4.06,52.52s18.31-3.63,36.69-19.52A76.82,76.82,0,0,0,671.33,412.08Z"/><path class="cls-3" d="M618.21,465.55s18.31-3.63,36.69-19.52a76.82,76.82,0,0,0,16.43-33.95"/><ellipse class="cls-4" cx="611.09" cy="385.03" rx="21.5" ry="26"/><ellipse class="cls-5" cx="607.45" cy="385.03" rx="15.72" ry="20.43"/><ellipse class="cls-4" cx="531.9" cy="385.03" rx="21.5" ry="26"/><ellipse class="cls-5" cx="528.26" cy="385.03" rx="15.72" ry="20.43"/><path class="cls-6" d="M697.68,347.26v28.49s-.68-21.42,11.85-23"/><path class="cls-6" d="M472.63,352.05s4.62,36.24,9.72,47.41"/></g><g id="머리카락"><path class="cls-5" d="M722.9,355c0-39-43-41-42,2,0,0-20-7-41-7s-43-17-43-17,2,9,4,12c0,0-43,18-72-14,0,0-2,4.59,0,13.8,0,0-97,30.2-87-91.8s145-115,162-108c0,0,96-22,135,64,0,0,21,41,12,80S722.9,355,722.9,355Z"/></g><g id="와이셔츠_뒷면" data-name="와이셔츠 뒷면"><polyline class="cls-4" points="508.94 529.94 710.52 529.93 690.35 640.24 604.64 650.58 542.34 623.22 518.33 583.41 508.94 529.94"/></g><g id="넥타이"><polygon class="cls-5" points="586 554.89 593.4 576.57 572.73 634.01 644.77 634.01 626.98 576.57 633.78 554.74 608.96 507.28 586 554.89"/></g><g id="조끼"><path class="cls-7" d="M825.45,1000c-1.83-75.68-25.84-443.9-25.84-443.9-26.13-11.8-86.09-32.7-86.09-32.7S686.1,634,609.74,634h0C533.37,634,505.94,523.4,505.94,523.4S470.78,522,441,522c0,0-18.91,63.44-28.95,162.88C399.46,809.75,395,957.88,394,1000Z"/></g><g id="와이셔츠_깃" data-name="와이셔츠 깃"><path class="cls-4" d="M609.73,515.63l12.35,30.89a13.11,13.11,0,0,0,14,8.1l65.5-14c6-1.41,15.61-8.21,11.89-17.27L689.9,482.81a336.48,336.48,0,0,1-80.17,9.42Z"/><path class="cls-4" d="M609.73,515.63l-12.35,30.89a13.11,13.11,0,0,1-14,8.1l-65.5-14c-6-1.41-15.61-8.21-11.89-17.27l23.62-40.59a336.48,336.48,0,0,0,80.17,9.42Z"/><line class="cls-8" x1="637.39" y1="554" x2="698.08" y2="541.5"/><line class="cls-8" x1="580.42" y1="554" x2="520.38" y2="541.22"/></g><g id="중간소품"><path class="cls-9" d="M826.42,728.79a89.58,89.58,0,1,0-55.88,113.7A89.59,89.59,0,0,0,826.42,728.79ZM682.56,777.84a62.4,62.4,0,1,1,79.21,38.92A62.41,62.41,0,0,1,682.56,777.84Z"/><path class="cls-10" d="M781.82,837.77a89.6,89.6,0,0,0-57.4-168m9,26.05A62.42,62.42,0,0,1,773.26,811.5"/><rect class="cls-9" x="397.1" y="667.92" width="412.94" height="277.97" rx="38.76" transform="translate(1172.53 -24.77) rotate(71.17)"/><path class="cls-11" d="M574.84,924.58,508.59,730.26c-10.69-31.37-3.75-63.94,16.63-78l120.55-77.86c12.55-4.28,27.45,6.1,33.27,23.19l112.16,329c5.83,17.08.38,34.41-12.17,38.69l-147.16,11C608.21,975.24,584.93,954.16,574.84,924.58Z"/><path class="cls-10" d="M740.24,968.12l-108.37,8.09c-23.66-1-46.94-22.05-57-51.63L508.59,730.26c-10.69-31.37-3.75-63.94,16.63-78l86.28-55.73"/><rect class="cls-12" x="492.76" y="698.68" width="33.06" height="67.28" rx="9.42" transform="translate(1038.08 13.95) rotate(71.17)"/><rect class="cls-12" x="557.32" y="888.03" width="33.06" height="67.28" rx="9.42" transform="translate(1261.02 81.09) rotate(71.17)"/></g><g id="손"><path class="cls-13" d="M265.79,217.54,129.64,253.75l4.7,65,1.35,23.61,139.24-10.06-1.35-23.61s21-20.37,18.48-55.71C290,224.61,265.79,217.54,265.79,217.54Z"/><path class="cls-13" d="M558.67,851.2h0a18.4,18.4,0,0,1,18.4,18.4v158.92a2.5,2.5,0,0,1-2.5,2.5H542.76a2.5,2.5,0,0,1-2.5-2.5V869.6a18.4,18.4,0,0,1,18.4-18.4Z" transform="translate(-235.8 1693.85) rotate(-102.76)"/><path class="cls-13" d="M542.85,816.27h0a18.4,18.4,0,0,1,18.4,18.4v164.1a2.5,2.5,0,0,1-2.5,2.5H526.94a2.5,2.5,0,0,1-2.5-2.5V834.67a18.4,18.4,0,0,1,18.4-18.4Z" transform="translate(-223.57 1638.93) rotate(-102.76)"/><path class="cls-13" d="M645.47,820.07,628.55,847.2a2.47,2.47,0,0,1-3.44.78l-90.57-57.76a18.73,18.73,0,0,1-5.81-25.64h0a18.28,18.28,0,0,1,25.39-5.75l90.57,57.77A2.53,2.53,0,0,1,645.47,820.07Z"/><path class="cls-13" d="M533.87,782.51h0a18.4,18.4,0,0,1,18.4,18.4V968.34a2.5,2.5,0,0,1-2.5,2.5H518a2.5,2.5,0,0,1-2.5-2.5V800.91a18.4,18.4,0,0,1,18.4-18.4Z" transform="translate(-203.23 1591) rotate(-102.76)"/><path class="cls-13" d="M531.06,749.81h0a18.4,18.4,0,0,1,18.4,18.4V934.08a2.5,2.5,0,0,1-2.5,2.5H515.16a2.5,2.5,0,0,1-2.5-2.5V768.21a18.4,18.4,0,0,1,18.4-18.4Z" transform="translate(-174 1547.37) rotate(-102.76)"/><polygon class="cls-13" points="542.84 821.65 600.53 950.5 664.12 936.1 699.24 928.14 668.42 792.05 633.29 800.01 542.84 821.65"/><path class="cls-13" d="M608,793.2a74,74,0,0,0,36.14,4.35c24.66-3.43.55,19.05.55,19.05L615,822.94l-23.14-21.17Z"/><path class="cls-13" d="M566.93,810.9s2.07,4.6-3.49,5.82,20.73,1.89,20.73,1.89l-4.93-13.52Z"/><path class="cls-14" d="M195.07,70.37a103.21,103.21,0,1,0,103.2,103.2A103.33,103.33,0,0,0,195.07,70.37Zm0,167.91a64.7,64.7,0,1,1,64.7-64.71A64.78,64.78,0,0,1,195.07,238.28Z"/><rect class="cls-13" x="126.75" y="175.91" width="36.8" height="74.57" rx="18.4" transform="translate(-14.99 11.02) rotate(-4.14)"/><rect class="cls-13" x="161.46" y="167.69" width="36.8" height="79.23" rx="18.4" transform="translate(-14.48 13.51) rotate(-4.14)"/><rect class="cls-13" x="194.68" y="165.29" width="36.8" height="79.86" rx="18.4" transform="translate(-14.24 15.9) rotate(-4.14)"/><path class="cls-13" d="M246.25,166.76h0a18.4,18.4,0,0,1,18.4,18.4v38.32a14.84,14.84,0,0,1-14.84,14.84h-7.12a14.84,14.84,0,0,1-14.84-14.84V185.17a18.4,18.4,0,0,1,18.4-18.4Z" transform="translate(-13.96 18.28) rotate(-4.14)"/></g><g id="팔"><path class="cls-4" d="M744.34,675h139.5a0,0,0,0,1,0,0V916.51a69.75,69.75,0,0,1-69.75,69.75h0a69.75,69.75,0,0,1-69.75-69.75V675A0,0,0,0,1,744.34,675Z" transform="translate(183.81 1808.07) rotate(-102.76)"/><path class="cls-4" d="M231,679.37l-.72.06a70.34,70.34,0,0,1-15.19-.55Z"/><path class="cls-4" d="M451.16,521.94s-14.54,71.29-27.58,122.63c-7.37,22.49-11.32,39.25-11.49,40v0L231,679.08l-15.91-.49h0a69.79,69.79,0,0,1-59.39-64L135.14,330.46,274.28,320.4,288.6,518.49Z"/></g><g id="선"><path class="cls-6" d="M132.13,239.29s2.61,12,17.46,11,15.66-14.37,15.66-14.37l-3-41.62"/><path class="cls-6" d="M165.24,235.86s2.62,12,17.47,11,15.65-14.37,15.65-14.37l-3.22-44.56"/><path class="cls-6" d="M198.51,234.49s2.62,12,17.47,11,15.65-14.37,15.65-14.37l-3-41.62"/><path class="cls-6" d="M231.63,229s2.62,12,17.47,11,15.65-14.37,15.65-14.37l-3-41.62"/><path class="cls-6" d="M241.36,268.51c11.51,7.86,26.18-5.37,26.18-5.37"/><line class="cls-8" x1="186.56" y1="370.35" x2="266.13" y2="364.6"/><line class="cls-8" x1="711.19" y1="874.1" x2="693.57" y2="796.29"/><line class="cls-6" x1="548.92" y1="924.45" x2="481.14" y2="939.8"/><line class="cls-6" x1="540.56" y1="892.22" x2="466.91" y2="908.9"/><line class="cls-6" x1="534.22" y1="859.54" x2="459.56" y2="876.44"/><path class="cls-15" d="M204.1,116.88l-23.55,1.7a9.78,9.78,0,0,1-10.46-9L162.17,0h43.29l7.69,106.41A9.79,9.79,0,0,1,204.1,116.88Z"/><path class="cls-8" d="M379.14,683.9,231,679.37l-15.91-.49h0a69.79,69.79,0,0,1-59.39-64L136,342.36"/><line class="cls-8" x1="301.65" y1="519.06" x2="427.46" y2="521.73"/><line class="cls-8" x1="272.46" y1="541.5" x2="288.6" y2="518.78"/><path class="cls-8" d="M825.45,566.56c29.09,18.85,106.9,94.49,136.31,194.45,0,0,7.29,32.19,5.86,50.2"/><line class="cls-8" x1="840.37" y1="752.93" x2="866.66" y2="747.32"/><path class="cls-8" d="M967.61,810.26a69.76,69.76,0,0,1-54.34,69.41l-214,48.47"/><line class="cls-8" x1="275.11" y1="332.3" x2="287.03" y2="497.17"/></g></svg>