<svg xmlns="http://www.w3.org/2000/svg" viewBox="0 0 1000 1000"><defs><style>.cls-1{fill:#dadada;}.cls-1,.cls-14,.cls-2,.cls-3,.cls-4{opacity:0.5;}.cls-11,.cls-13,.cls-2{fill:none;stroke-linejoin:round;stroke-width:5px;}.cls-13,.cls-2{stroke:#dadada;}.cls-3{fill:#ff5f40;}.cls-4{fill:#4374ff;}.cls-5{fill:#bfbfbf;}.cls-6{fill:#ffe3ec;}.cls-7{fill:#ffcbdc;}.cls-8{fill:#ffb5cd;}.cls-9{fill:#fff;}.cls-10{fill:#2d2d37;}.cls-11{stroke:#ffcbdc;}.cls-11,.cls-13{stroke-linecap:round;}.cls-12{fill:#bfab9b;}.cls-14{fill:#ffea55;}.cls-15{fill:#ffe4ee;}.cls-16{fill:#7a7a7a;}.cls-17{fill:#f9f9f9;}.cls-18{fill:#efefef;}.cls-19{fill:#34a5ea;}.cls-20{fill:#939393;}.cls-21{fill:#c1c1c1;}.cls-22{fill:#f4f4f4;}.cls-23{fill:#b5b5b5;}.cls-24{fill:#c6c6c6;}.cls-25{fill:#897c74;}.cls-26{fill:#706661;}.cls-27{fill:#7f736c;}.cls-28{fill:#665e5a;}</style></defs><g id="뒷배경"><rect class="cls-1" x="45.92" y="139.72" width="675.05" height="20.16" rx="3.55"/><rect class="cls-1" x="45.92" y="550.98" width="675.05" height="20.16" rx="3.55"/><line class="cls-2" x1="87.31" y1="159.87" x2="87.31" y2="550.98"/><rect class="cls-3" x="151.51" y="204.14" width="49.24" height="302.57"/><rect class="cls-4" x="238.92" y="303.53" width="49.24" height="203.19"/><rect class="cls-3" x="326.33" y="387.23" width="49.24" height="119.48"/><rect class="cls-4" x="493.29" y="446.97" width="49.24" height="59.74"/><rect class="cls-4" x="413.74" y="342.31" width="49.24" height="164.4"/><path class="cls-5" d="M341.07,114.14h19.76a8.75,8.75,0,0,1,8.75,8.75v16.83a0,0,0,0,1,0,0H332.32a0,0,0,0,1,0,0V122.89A8.75,8.75,0,0,1,341.07,114.14Z"/><rect class="cls-5" x="332.32" y="571.14" width="37.26" height="361.1"/><rect class="cls-5" x="304.99" y="128.79" width="92.39" height="17.53" rx="8.77"/></g><g id="얼굴"><path class="cls-6" d="M768.23,364.54s1,36-33,42v117h-158V473.93s-37-14.39-47-57.39c0,0-.39,0-1.08,0-6,.16-34.92-.68-34.92-32,0-35,17.26-38.46,17.26-38.46s-8.26-136.85,119.74-135.2S770.23,336.54,768.23,364.54Z"/></g><g id="표정"><path class="cls-7" d="M577.18,473.91s76,22.61,123-18.39l-28,68h-95Z"/><path class="cls-8" d="M577.18,473.91s-37-14.39-47-57.39c0,0-.39,0-1.08.05l1.57-1.05s27.51-12,43,15.08C587.76,455.2,577.18,473.91,577.18,473.91Z"/><path class="cls-8" d="M716.61,421.57s-26.82-20.18-49.06.95c-27.37,26-4.06,52.52-4.06,52.52s18.31-3.63,36.69-19.52A76.82,76.82,0,0,0,716.61,421.57Z"/><path class="cls-8" d="M663.49,475s18.31-3.63,36.69-19.52a76.82,76.82,0,0,0,16.43-33.95"/><ellipse class="cls-9" cx="656.37" cy="394.52" rx="21.5" ry="26"/><ellipse class="cls-10" cx="652.73" cy="394.52" rx="15.72" ry="20.43"/><ellipse class="cls-9" cx="577.18" cy="394.52" rx="21.5" ry="26"/><ellipse class="cls-10" cx="573.54" cy="394.52" rx="15.72" ry="20.43"/><path class="cls-11" d="M743,356.75v28.49s-.68-21.42,11.85-23"/><path class="cls-11" d="M517.91,361.54s4.62,36.24,9.72,47.41"/></g><g id="머리카락"><path class="cls-10" d="M768.18,364.52c0-39-43-41-42,2,0,0-20-7-41-7s-43-17-43-17,2,9,4,12c0,0-43,18-72-14,0,0-2,4.6,0,13.8,0,0-97,30.2-87-91.8s145-115,162-108c0,0,96-22,135,64,0,0,21,41,12,80S768.18,364.52,768.18,364.52Z"/></g><g id="와이셔츠_뒷면" data-name="와이셔츠 뒷면"><polyline class="cls-9" points="554.22 539.43 755.8 539.43 735.63 649.73 649.92 660.07 587.62 632.71 563.61 592.9 554.22 539.43"/></g><g id="넥타이"><polygon class="cls-10" points="631.28 564.38 638.68 586.06 618.01 643.5 690.05 643.5 672.26 586.06 679.06 564.24 654.24 516.77 631.28 564.38"/></g><g id="조끼"><path class="cls-12" d="M871.15,988.77c-1.83-75.68-25.84-423.24-25.84-423.24-26.13-11.8-86.09-32.7-86.09-32.7S731.8,643.44,655.44,643.44h0c-76.36,0-103.79-110.61-103.79-110.61s-59.95,20.9-86.09,32.7c0,0-24,347.56-25.83,423.24Z"/></g><g id="와이셔츠_깃" data-name="와이셔츠 깃"><path class="cls-9" d="M655,525.12,667.36,556a13.11,13.11,0,0,0,14,8.1l65.5-13.94c6-1.42,15.61-8.22,11.89-17.28L735.18,492.3A336.48,336.48,0,0,1,655,501.72Z"/><path class="cls-9" d="M655,525.12,642.66,556a13.11,13.11,0,0,1-14,8.1l-65.5-13.94c-6-1.42-15.61-8.22-11.89-17.28l23.62-40.59A336.48,336.48,0,0,0,655,501.72Z"/><line class="cls-13" x1="682.67" y1="563.49" x2="743.36" y2="550.99"/><line class="cls-13" x1="625.71" y1="563.49" x2="565.66" y2="550.71"/></g><g id="중간소품"><polygon class="cls-14" points="762.16 152.35 781.07 121.21 799.97 90.08 785.35 85.04 770.72 80 766.44 116.17 762.16 152.35"/><polygon class="cls-14" points="781.78 166.69 813.29 148.42 844.8 130.16 834.38 118.73 823.96 107.3 802.87 136.99 781.78 166.69"/><polygon class="cls-14" points="793.98 180.06 830.36 181.74 866.75 183.42 864.16 168.17 861.58 152.92 827.78 166.49 793.98 180.06"/></g><g id="팔"><path class="cls-9" d="M845.31,565.53,868,974.26l78.47-40.52c55.23-206.87-101.13-368.21-101.13-368.21"/><path class="cls-13" d="M958.05,832c-4.12-119.42-68.26-212.42-97.92-249.27"/><path class="cls-9" d="M465.55,565.49,442.88,974.22l-78.47-40.51C309.19,726.83,465.55,565.49,465.55,565.49"/><path class="cls-13" d="M352.74,834.11c2.74-96.65,45-176.2,76.95-223"/></g><g id="선"><path class="cls-15" d="M710.39,544.65h0a18.4,18.4,0,0,1,18.4,18.4V669.93a2.5,2.5,0,0,1-2.5,2.5H694.48a2.5,2.5,0,0,1-2.5-2.5V563.05a18.4,18.4,0,0,1,18.4-18.4Z" transform="translate(-133.58 205.18) rotate(-15.04)"/><path class="cls-15" d="M742.75,530.06h0a18.4,18.4,0,0,1,18.4,18.4V655.34a2.5,2.5,0,0,1-2.5,2.5H726.84a2.5,2.5,0,0,1-2.5-2.5V548.46a18.4,18.4,0,0,1,18.4-18.4Z" transform="translate(-128.68 213.08) rotate(-15.04)"/><path class="cls-15" d="M774.89,521.42h0a18.4,18.4,0,0,1,18.4,18.4V646.7a2.5,2.5,0,0,1-2.5,2.5H759a2.5,2.5,0,0,1-2.5-2.5V539.82A18.4,18.4,0,0,1,774.89,521.42Z" transform="translate(-125.34 221.12) rotate(-15.04)"/><path class="cls-15" d="M808,516.53h0a18.4,18.4,0,0,1,18.4,18.4V641.81a2.5,2.5,0,0,1-2.5,2.5H792.13a2.5,2.5,0,0,1-2.5-2.5V534.93A18.4,18.4,0,0,1,808,516.53Z" transform="matrix(0.97, -0.26, 0.26, 0.97, -122.93, 229.56)"/><path class="cls-15" d="M822.73,564.21l-126.81,61.4,16.92,63,9.34,34.78,134.34-36.09-9.34-34.78s19.7-25.74,10.51-60C850.31,565,822.73,564.21,822.73,564.21Z"/><path class="cls-9" d="M913,1000H801a69.76,69.76,0,0,1-11.39-23.55L715.73,701.33l.5-.13,134.22-36.07,5.95,22.16,68,253A69.62,69.62,0,0,1,913,1000Z"/><line class="cls-11" x1="725.27" y1="593" x2="716.68" y2="561.03"/><line class="cls-11" x1="757.41" y1="584.37" x2="748.81" y2="552.39"/><line class="cls-11" x1="789.54" y1="575.73" x2="780.95" y2="543.76"/><line class="cls-11" x1="828.29" y1="584.88" x2="839.26" y2="625.73"/><line class="cls-11" x1="833.78" y1="605.31" x2="839.87" y2="595.88"/><line class="cls-13" x1="775.93" y1="732.44" x2="852.98" y2="711.74"/><path class="cls-15" d="M572.22,547.2H604a2.5,2.5,0,0,1,2.5,2.5V656.58a18.4,18.4,0,0,1-18.4,18.4h0a18.4,18.4,0,0,1-18.4-18.4V549.7A2.5,2.5,0,0,1,572.22,547.2Z" transform="translate(961.73 1372.5) rotate(-162.23)"/><path class="cls-15" d="M540.59,531.08H572.4a2.5,2.5,0,0,1,2.5,2.5V640.46a18.4,18.4,0,0,1-18.4,18.4h0a18.4,18.4,0,0,1-18.4-18.4V533.58A2.5,2.5,0,0,1,540.59,531.08Z" transform="translate(904.9 1331.38) rotate(-162.23)"/><path class="cls-15" d="M508.9,520.93h31.81a2.5,2.5,0,0,1,2.5,2.5V630.3a18.4,18.4,0,0,1-18.4,18.4h0a18.4,18.4,0,0,1-18.4-18.4V523.42a2.5,2.5,0,0,1,2.5-2.5Z" transform="translate(846.12 1301.88) rotate(-162.23)"/><path class="cls-15" d="M476,514.46h31.81a2.5,2.5,0,0,1,2.5,2.5V623.84a18.4,18.4,0,0,1-18.4,18.4h0a18.4,18.4,0,0,1-18.4-18.4V517a2.5,2.5,0,0,1,2.5-2.5Z" transform="translate(783.92 1279.23) rotate(-162.23)"/><path class="cls-15" d="M478,561.46l123.74,67.37-19.89,62.08-11,34.3L438.41,682.76l11-34.29s-18.46-26.64-7.65-60.38C450.44,561,478,561.46,478,561.46Z"/><path class="cls-9" d="M578.38,703.52,491.45,974.81A69.43,69.43,0,0,1,477.07,1000H373a69.73,69.73,0,0,1-14.4-67.76l79.93-249.43,7-21.86,132.35,42.41Z"/><line class="cls-11" x1="574" y1="594.86" x2="584.11" y2="563.33"/><line class="cls-11" x1="542.31" y1="584.71" x2="552.41" y2="553.18"/><line class="cls-11" x1="510.62" y1="574.55" x2="520.72" y2="543.02"/><line class="cls-11" x1="471.49" y1="581.84" x2="458.58" y2="622.13"/><line class="cls-11" x1="465.03" y1="601.99" x2="459.4" y2="592.29"/><line class="cls-13" x1="516.76" y1="731.73" x2="440.78" y2="707.38"/><line class="cls-13" x1="852.98" y1="674.56" x2="886.96" y2="801.01"/><line class="cls-13" x1="440.78" y1="675.77" x2="400.29" y2="801.01"/><line class="cls-13" x1="739.66" y1="500" x2="751.15" y2="519.75"/><line class="cls-13" x1="571.43" y1="498.16" x2="557.82" y2="521.55"/></g><g id="책상_위_사물" data-name="책상 위 사물"><path class="cls-16" d="M386.86,804.8v.12l-.73.1-.72.13-.45.1a4.54,4.54,0,0,0-.5.12c-.45.11-.89.25-1.33.39l-.47.17,0,0-.64.26-.65.29c-.25.12-.49.24-.72.37h0a14.37,14.37,0,0,0-1.72,1l-.57.41a5.46,5.46,0,0,0-.55.43,13.31,13.31,0,0,0-1.06.93c-.26.24-.5.49-.74.75s-.34.36-.49.55c-.3.35-.59.71-.85,1.08-.16.21-.32.43-.46.65,0,0-.07.1-.1.16-.15.23-.3.46-.43.7l0,0c-.15.24-.28.49-.41.75h0a7.6,7.6,0,0,0-.37.76c-.11.22-.2.44-.29.67a17.87,17.87,0,0,0-.6,1.74l0,.11a5.62,5.62,0,0,0-.15.55s0,.06,0,.09c-.07.3-.14.6-.19.9q-.14.72-.21,1.47c0,.27-.05.54-.06.82s0,.3,0,.46a2.81,2.81,0,0,0,0,.29v18.06c0,.29,0,.57,0,.85s0,.5.05.75a.22.22,0,0,0,0,.08c0,.28.06.55.1.82a17.22,17.22,0,0,0,.48,2.29c.07.25.14.5.23.75a17.09,17.09,0,0,0,1.41,3.18q.21.39.45.75l.1.15c.12.19.24.36.37.54a16.41,16.41,0,0,0,1.49,1.84,7.86,7.86,0,0,0,.64.65c.26.27.53.51.81.75a18,18,0,0,0,3.12,2.14h0c.42.23.84.44,1.27.63l.56.23c.46.18.93.35,1.4.49l.68.19.66.16c.58.12,1.17.22,1.76.29V858H78.54A17.65,17.65,0,0,1,60.9,840.31V822.45a17.64,17.64,0,0,1,16.35-17.6c.42,0,.86-.05,1.29-.05Z"/><path class="cls-17" d="M386.86,804.8v.12l-.73.1-.72.13-.45.1a4.05,4.05,0,0,0-.5.12c-.45.11-.89.25-1.33.39l-.47.17,0,0-.64.26-.65.29c-.25.12-.49.24-.72.37h0a18.8,18.8,0,0,0-1.72,1l-.57.41-.55.43c-.37.3-.72.61-1.06.93s-.5.49-.74.75-.34.36-.49.55c-.3.35-.59.71-.85,1.08-.16.21-.31.43-.46.65,0,0-.07.1-.1.16-.15.23-.29.46-.43.7l0,0c-.15.24-.28.49-.41.75h0c-.13.25-.26.5-.37.76s-.2.44-.29.67a17.87,17.87,0,0,0-.6,1.74l0,.11c-.06.18-.1.37-.15.55,0,0,0,.06,0,.09-.07.3-.14.6-.19.9q-.14.72-.21,1.47c0,.27-.05.54-.06.82s0,.3,0,.46a2.81,2.81,0,0,0,0,.29v18.06c0,.29,0,.57,0,.85s0,.5.05.75a.22.22,0,0,0,0,.08c0,.28.06.55.1.82a17.22,17.22,0,0,0,.48,2.29c.07.25.14.5.23.75a17.09,17.09,0,0,0,1.41,3.18q.21.39.45.75l.1.15.37.54a16.41,16.41,0,0,0,1.49,1.84,7.86,7.86,0,0,0,.64.65c.26.27.53.51.81.75a18,18,0,0,0,3.12,2.14h0c.42.23.84.44,1.27.63l.56.23c.46.18.93.35,1.4.49l.68.19.66.16c.58.12,1.17.22,1.76.29V858H268.42a17.92,17.92,0,0,1-1.95-.11,17.49,17.49,0,0,1-5.67-1.62l-.76-.38a17.44,17.44,0,0,1-3.1-2.14c-.28-.24-.56-.49-.82-.75a17.29,17.29,0,0,1-2.6-3.18c-.15-.24-.31-.49-.44-.75a16.5,16.5,0,0,1-1.42-3.18c-.09-.25-.16-.5-.23-.75a17.62,17.62,0,0,1-.59-3.19c0-.25,0-.5-.05-.75s0-.57,0-.85V822.25c0-.25,0-.5,0-.75a17.65,17.65,0,0,1,.47-3.19c.06-.25.12-.5.2-.75a16.24,16.24,0,0,1,1.27-3.18c.12-.25.25-.5.4-.75a17.1,17.1,0,0,1,2.36-3.19c.24-.26.48-.51.74-.75a17.76,17.76,0,0,1,3.88-2.82l.69-.35a17.41,17.41,0,0,1,6.11-1.65l.25,0c.42,0,.84-.05,1.26-.05Z"/><path class="cls-16" d="M387.86,805.87a1,1,0,0,1-1,1H233a.94.94,0,0,1-.47-.12,1,1,0,0,1-.53-.88,1,1,0,0,1,1-1h153.9A1,1,0,0,1,387.86,805.87Z"/><path class="cls-16" d="M387.83,856.85a1,1,0,0,1-1,1H232.92a1,1,0,0,1-1-1,1,1,0,0,1,.39-.79,1,1,0,0,1,.61-.21H386.83A1,1,0,0,1,387.83,856.85Z"/><path class="cls-18" d="M376.7,809.69c-.26.24-.5.49-.74.75H255.49c.24-.26.48-.51.74-.75Z"/><path class="cls-18" d="M373.6,813.63c-.15.24-.28.49-.41.75H252.73c.12-.25.25-.5.4-.75Z"/><path class="cls-18" d="M371.93,817.56l0,.11c-.06.18-.1.37-.15.55,0,0,0,.06,0,.09H251.26c.06-.25.12-.5.2-.75Z"/><path class="cls-18" d="M371.27,821.5c0,.15,0,.3,0,.46a2.81,2.81,0,0,0,0,.29H250.77c0-.25,0-.5,0-.75Z"/><rect class="cls-18" x="250.77" y="825.43" width="120.47" height="0.75"/><rect class="cls-18" x="250.77" y="829.36" width="120.47" height="0.75"/><rect class="cls-18" x="250.77" y="833.3" width="120.47" height="0.75"/><rect class="cls-18" x="250.77" y="837.23" width="120.47" height="0.75"/><path class="cls-18" d="M371.31,841.91H250.84c0-.25,0-.5-.05-.75H371.26C371.27,841.41,371.29,841.66,371.31,841.91Z"/><path class="cls-18" d="M372.13,845.85H251.66c-.09-.25-.16-.5-.23-.75H371.9C372,845.35,372,845.6,372.13,845.85Z"/><path class="cls-18" d="M374,849.78H253.52c-.15-.24-.31-.49-.44-.75H373.54Q373.75,849.42,374,849.78Z"/><path class="cls-18" d="M377.4,853.71H256.94c-.28-.24-.56-.49-.82-.75H376.59C376.85,853.23,377.12,853.47,377.4,853.71Z"/><path class="cls-19" d="M216.47,804.8l-.43.05h-.91C215.58,804.85,216,804.83,216.47,804.8Z"/><path class="cls-19" d="M216.47,804.8l-.43.05h-.91C215.58,804.85,216,804.83,216.47,804.8Z"/><path class="cls-20" d="M214.61,822.45v17.86A17.65,17.65,0,0,0,232.25,858l-.43-.05c.44,0,.89.05,1.34.05h5.11l-.28-.06c.45,0,.91.06,1.37.06h.91a17.65,17.65,0,0,1-17.64-17.65V822.45A17.5,17.5,0,0,1,240.27,805l-4.12-.17h-4.47A17.64,17.64,0,0,0,214.61,822.45Z"/><path class="cls-20" d="M87.79,822.45v17.86A17.65,17.65,0,0,0,105.43,858l-.43-.05c.44,0,.89.05,1.34.05h5.11l-.28-.06c.45,0,.91.06,1.37.06h.91a17.65,17.65,0,0,1-17.64-17.65V822.45A17.5,17.5,0,0,1,113.45,805l-4.12-.17h-4.47A17.64,17.64,0,0,0,87.79,822.45Z"/><path class="cls-21" d="M387.38,769.34V787.2A17.64,17.64,0,0,1,371,804.8c-.42,0-.86.05-1.29.05H61.42v-.12l.67-.09q.33,0,.66-.12l.51-.1.41-.1a17.34,17.34,0,0,0,2.25-.72l.56-.23.06,0c.35-.15.69-.32,1-.5l.18-.1h0l.07,0c.33-.18.65-.37,1-.56h0l.77-.53a4.61,4.61,0,0,0,.38-.28c.3-.21.59-.45.87-.68l0,0c.28-.24.55-.48.81-.75a7.86,7.86,0,0,0,.64-.65,16.41,16.41,0,0,0,1.49-1.84c.13-.18.25-.35.37-.54l.1-.15q.24-.36.45-.75a17.09,17.09,0,0,0,1.41-3.18c.09-.25.16-.5.23-.75a17.22,17.22,0,0,0,.48-2.29c0-.27.08-.54.1-.82a.22.22,0,0,0,0-.08c0-.25,0-.5,0-.75s0-.56,0-.85V769.14a2.81,2.81,0,0,0,0-.29c0-.16,0-.31,0-.46s0-.55-.06-.82q-.08-.75-.21-1.47c0-.3-.12-.6-.19-.9,0,0,0-.05,0-.07,0-.2-.1-.4-.15-.6l0-.08a17.87,17.87,0,0,0-.6-1.74c-.09-.23-.18-.45-.29-.67a7.6,7.6,0,0,0-.37-.76h0c-.13-.26-.26-.51-.41-.75l0,0c-.13-.24-.28-.47-.43-.7,0-.06-.07-.11-.1-.16-.14-.22-.3-.44-.46-.65-.26-.37-.55-.73-.85-1.08-.15-.19-.32-.37-.49-.55s-.48-.51-.74-.75-.34-.33-.52-.48l-.54-.45-.41-.33c-.17-.13-.34-.26-.52-.38s-.3-.22-.46-.32l-.34-.22c-.36-.23-.73-.44-1.11-.64h0c-.23-.13-.47-.25-.72-.37l-.65-.29-.64-.26,0,0-.47-.17c-.34-.11-.68-.22-1-.31a5.36,5.36,0,0,0-.54-.14c-.24-.06-.47-.12-.71-.16l-.72-.13-.73-.1v-.12H369.74A17.65,17.65,0,0,1,387.38,769.34Z"/><path class="cls-17" d="M77.05,787.2c0,.29,0,.57,0,.85s0,.5,0,.75a17.78,17.78,0,0,1-.59,3.19c-.07.25-.14.5-.23.75a17.09,17.09,0,0,1-1.41,3.18q-.21.39-.45.75a17,17,0,0,1-2.6,3.18c-.26.27-.53.51-.81.75a17.62,17.62,0,0,1-9.46,4.13v.12H179.87a17.54,17.54,0,0,0,11.48-4.25c.28-.24.56-.49.82-.75a17.29,17.29,0,0,0,2.6-3.18c.15-.24.31-.49.44-.75a16.5,16.5,0,0,0,1.42-3.18c.09-.25.16-.5.23-.75a17.62,17.62,0,0,0,.59-3.19c0-.25,0-.5.05-.75s0-.57,0-.85V769.14c0-.25,0-.5,0-.75a17.65,17.65,0,0,0-.47-3.19c-.06-.25-.12-.5-.2-.75a16.24,16.24,0,0,0-1.27-3.18c-.12-.25-.25-.5-.4-.75a17.1,17.1,0,0,0-2.36-3.19c-.24-.26-.48-.51-.74-.75a17.54,17.54,0,0,0-12.19-4.89H61.43v.12a17.59,17.59,0,0,1,10.16,4.77c.26.24.5.49.74.75a17.21,17.21,0,0,1,2.36,3.19c.15.24.28.49.41.75a16.85,16.85,0,0,1,1.26,3.18c.08.25.14.5.2.75a16.69,16.69,0,0,1,.46,3.19q0,.38,0,.75Z"/><path class="cls-21" d="M215.33,753.76H61.42a1,1,0,1,1,0-2H215.33a1,1,0,1,1,0,2Z"/><path class="cls-22" d="M71.59,756.58c.26.24.5.49.74.75H192.8c-.24-.26-.48-.51-.74-.75Z"/><path class="cls-22" d="M74.69,760.52c.15.24.28.49.41.75H195.56c-.12-.25-.25-.5-.4-.75Z"/><path class="cls-22" d="M76.36,764.45c.08.25.14.5.2.75H197c-.06-.25-.12-.5-.2-.75Z"/><path class="cls-22" d="M77,768.39q0,.38,0,.75H197.52c0-.25,0-.5,0-.75Z"/><rect class="cls-22" x="77.05" y="772.32" width="120.47" height="0.75"/><rect class="cls-22" x="77.05" y="776.25" width="120.47" height="0.75"/><rect class="cls-22" x="77.05" y="780.19" width="120.47" height="0.75"/><rect class="cls-22" x="77.05" y="784.12" width="120.47" height="0.75"/><path class="cls-22" d="M77,788.8H197.45c0-.25,0-.5.05-.75H77C77,788.3,77,788.55,77,788.8Z"/><path class="cls-22" d="M76.16,792.74H196.63c.09-.25.16-.5.23-.75H76.39C76.32,792.24,76.25,792.49,76.16,792.74Z"/><path class="cls-22" d="M74.3,796.67H194.77c.15-.24.31-.49.44-.75H74.75Q74.54,796.31,74.3,796.67Z"/><path class="cls-22" d="M70.89,800.6H191.35c.28-.24.56-.49.82-.75H71.7C71.44,800.12,71.17,800.36,70.89,800.6Z"/><path class="cls-21" d="M215.36,804.74H61.46a1,1,0,0,1,0-2h153.9a1,1,0,0,1,0,2Z"/><path class="cls-20" d="M233.68,769.34V787.2A17.65,17.65,0,0,1,216,804.85l.43-.05c-.44,0-.89.05-1.34.05H210l.28-.06c-.45,0-.91.06-1.37.06H208a17.65,17.65,0,0,0,17.64-17.65V769.34A17.65,17.65,0,0,0,208,751.69h8.59A17.64,17.64,0,0,1,233.68,769.34Z"/><path class="cls-20" d="M360.5,769.34V787.2a17.65,17.65,0,0,1-17.64,17.65l.43-.05c-.44,0-.89.05-1.34.05h-5.11l.28-.06c-.45,0-.91.06-1.37.06h-.91a17.65,17.65,0,0,0,17.64-17.65V769.34a17.65,17.65,0,0,0-17.64-17.65h8.59A17.64,17.64,0,0,1,360.5,769.34Z"/><path class="cls-23" d="M60.9,716.28v17.86a17.64,17.64,0,0,0,16.35,17.6c.42,0,.86,0,1.29,0H386.86v-.12l-.67-.09-.66-.12-.51-.1-.41-.1a17.34,17.34,0,0,1-2.25-.72l-.56-.23-.06,0c-.35-.15-.69-.32-1-.5l-.18-.1h0l-.07,0c-.33-.18-.65-.37-1-.56h0l-.77-.53a4.61,4.61,0,0,1-.38-.28c-.3-.21-.59-.45-.87-.68,0,0,0,0,0,0-.28-.24-.55-.48-.81-.75a7.86,7.86,0,0,1-.64-.65,16.41,16.41,0,0,1-1.49-1.84c-.13-.18-.25-.35-.37-.54l-.1-.15q-.24-.36-.45-.75a17.09,17.09,0,0,1-1.41-3.18c-.09-.25-.16-.5-.23-.75a17.22,17.22,0,0,1-.48-2.29c0-.27-.08-.54-.1-.82a.22.22,0,0,1,0-.08c0-.25,0-.5-.05-.75s0-.56,0-.85V716.08a2.81,2.81,0,0,1,0-.29c0-.16,0-.31,0-.46s0-.55.06-.82q.07-.75.21-1.47c0-.3.12-.6.19-.9,0,0,0,0,0-.07,0-.2.1-.4.15-.6l0-.08a17.87,17.87,0,0,1,.6-1.74c.09-.23.18-.45.29-.67a7.6,7.6,0,0,1,.37-.76h0c.13-.26.26-.51.41-.75l0-.05c.13-.24.28-.47.43-.7,0-.06.07-.11.1-.16.14-.22.3-.44.46-.65.26-.37.55-.73.85-1.08.15-.19.32-.37.49-.55s.48-.51.74-.75.34-.33.52-.48l.54-.45.41-.33c.17-.13.34-.26.52-.38s.3-.22.46-.32l.34-.22c.36-.23.73-.44,1.11-.64h0c.23-.13.47-.25.72-.37L382,700l.64-.26,0,0,.47-.17c.34-.11.68-.22,1-.31a5.36,5.36,0,0,1,.54-.14c.24-.06.47-.12.71-.16l.72-.13.73-.1v-.12H78.54A17.65,17.65,0,0,0,60.9,716.28Z"/><path class="cls-17" d="M371.24,734.14c0,.29,0,.57,0,.85s0,.5.05.75a17.78,17.78,0,0,0,.59,3.19c.07.25.14.5.23.75a17.09,17.09,0,0,0,1.41,3.18q.21.39.45.75a17,17,0,0,0,2.6,3.18c.26.27.53.51.81.75a17.62,17.62,0,0,0,9.46,4.13v.12H268.42a17.54,17.54,0,0,1-11.48-4.25c-.28-.24-.56-.49-.82-.75a17.29,17.29,0,0,1-2.6-3.18c-.15-.24-.31-.49-.44-.75a16.5,16.5,0,0,1-1.42-3.18c-.09-.25-.16-.5-.23-.75a17.62,17.62,0,0,1-.59-3.19c0-.25,0-.5-.05-.75s0-.57,0-.85V716.08c0-.25,0-.5,0-.75a17.65,17.65,0,0,1,.47-3.19c.06-.25.12-.5.2-.75a16.24,16.24,0,0,1,1.27-3.18c.12-.25.25-.5.4-.75a17.1,17.1,0,0,1,2.36-3.19c.24-.26.48-.51.74-.75a17.54,17.54,0,0,1,12.19-4.89H386.86v.12a17.59,17.59,0,0,0-10.16,4.77c-.26.24-.5.49-.74.75a17.21,17.21,0,0,0-2.36,3.19c-.15.24-.28.49-.41.75a16.85,16.85,0,0,0-1.26,3.18c-.08.25-.14.5-.2.75a16.69,16.69,0,0,0-.46,3.19q0,.38,0,.75Z"/><path class="cls-23" d="M233,700.7h153.9a1,1,0,0,0,0-2H233a1,1,0,0,0,0,2Z"/><path class="cls-22" d="M376.7,703.52c-.26.24-.5.49-.74.75H255.49c.24-.26.48-.51.74-.75Z"/><path class="cls-22" d="M373.6,707.46c-.15.24-.28.49-.41.75H252.73c.12-.25.25-.5.4-.75Z"/><path class="cls-22" d="M371.93,711.39c-.08.25-.14.5-.2.75H251.26c.06-.25.12-.5.2-.75Z"/><path class="cls-22" d="M371.27,715.33q0,.38,0,.75H250.77c0-.25,0-.5,0-.75Z"/><rect class="cls-22" x="250.77" y="719.26" width="120.47" height="0.75"/><rect class="cls-22" x="250.77" y="723.19" width="120.47" height="0.75"/><rect class="cls-22" x="250.77" y="727.13" width="120.47" height="0.75"/><rect class="cls-22" x="250.77" y="731.06" width="120.47" height="0.75"/><path class="cls-22" d="M371.31,735.74H250.84c0-.25,0-.5-.05-.75H371.26C371.27,735.24,371.29,735.49,371.31,735.74Z"/><path class="cls-22" d="M372.13,739.68H251.66c-.09-.25-.16-.5-.23-.75H371.9C372,739.18,372,739.43,372.13,739.68Z"/><path class="cls-22" d="M374,743.61H253.52c-.15-.24-.31-.49-.44-.75H373.54Q373.75,743.25,374,743.61Z"/><path class="cls-22" d="M377.4,747.54H256.94c-.28-.24-.56-.49-.82-.75H376.59C376.85,747.06,377.12,747.3,377.4,747.54Z"/><path class="cls-23" d="M232.92,751.68H386.83a1,1,0,1,0,0-2H232.92a1,1,0,1,0,0,2Z"/><path class="cls-20" d="M214.6,716.28v17.86a17.65,17.65,0,0,0,17.64,17.65l-.43,0c.44,0,.89,0,1.34,0h5.11l-.28-.06c.45,0,.91.06,1.37.06h.91a17.65,17.65,0,0,1-17.64-17.65V716.28a17.65,17.65,0,0,1,17.64-17.65h-8.59A17.64,17.64,0,0,0,214.6,716.28Z"/><path class="cls-20" d="M87.79,716.28v17.86a17.65,17.65,0,0,0,17.64,17.65l-.43,0c.44,0,.89,0,1.34,0h5.11l-.28-.06c.45,0,.91.06,1.37.06h.91a17.65,17.65,0,0,1-17.64-17.65V716.28a17.65,17.65,0,0,1,17.64-17.65h-8.59A17.64,17.64,0,0,0,87.79,716.28Z"/><path class="cls-24" d="M332.84,711.77H318.33a10.73,10.73,0,0,1,3.32,4,17.45,17.45,0,0,1,.83,4.62h14.36a12.73,12.73,0,0,0-1.36-5C334.4,713.5,333.54,712.18,332.84,711.77Z"/><path class="cls-24" d="M292.84,727.88H278.32a10.54,10.54,0,0,1,3.32,4,17.27,17.27,0,0,1,.84,4.62h14.36a12.73,12.73,0,0,0-1.36-5C294.39,729.62,293.54,728.29,292.84,727.88Z"/><path class="cls-24" d="M118.28,773.07H132.8a10.54,10.54,0,0,0-3.32,4,17.21,17.21,0,0,0-.84,4.62H114.28a12.81,12.81,0,0,1,1.36-5C116.72,774.8,117.58,773.47,118.28,773.07Z"/></g><g id="책상"><rect class="cls-25" y="857.98" width="1000" height="47.41"/><rect class="cls-25" y="905.4" width="67.02" height="94.83"/><rect class="cls-25" x="804.88" y="905.39" width="67.02" height="94.83"/><polygon class="cls-26" points="1000 857.98 1000 905.39 871.9 905.39 871.9 1000.22 838.39 1000.22 838.39 857.98 1000 857.98"/><rect class="cls-27" x="67.02" y="905.39" width="737.86" height="94.83"/><rect class="cls-28" x="871.9" y="905.39" width="128.1" height="94.83"/><rect class="cls-26" x="33.51" y="905.39" width="33.51" height="94.83"/></g></svg>