<svg xmlns="http://www.w3.org/2000/svg" viewBox="0 0 1000 1000"><defs><style>.cls-1{fill:#ffe3ec;}.cls-2{fill:#ffcbdc;}.cls-3{fill:#ffb5cd;}.cls-10,.cls-4{fill:#fff;}.cls-5{fill:#2d2d37;}.cls-11,.cls-6,.cls-8{fill:none;}.cls-6{stroke:#ffcbdc;}.cls-10,.cls-6,.cls-8,.cls-9{stroke-linecap:round;stroke-linejoin:round;stroke-width:5px;}.cls-7{fill:#bfab9b;}.cls-8{stroke:#dadada;}.cls-9{fill:#db3f37;}.cls-10,.cls-9{stroke:#c6322e;}.cls-12{fill:#ffe4ee;}</style></defs><g id="얼굴"><path class="cls-1" d="M745.62,355.05s1,36-33,42v117h-158V464.44s-37-14.39-47-57.39c0,0-.39,0-1.08.05-6,.16-34.92-.68-34.92-32.05,0-35,17.26-38.46,17.26-38.46s-8.26-136.85,119.74-135.2S747.62,327.05,745.62,355.05Z"/></g><g id="표정"><path class="cls-2" d="M554.64,464.42s76,22.61,123-18.39l-28,68h-95Z"/><path class="cls-3" d="M554.64,464.42s-37-14.39-47-57.39c0,0-.39,0-1.08.05l1.57-1.05s27.51-12,43,15.08C565.22,445.71,554.64,464.42,554.64,464.42Z"/><path class="cls-3" d="M694.06,412.08S667.24,391.9,645,413c-27.36,26-4.06,52.52-4.06,52.52s18.31-3.63,36.7-19.52A76.87,76.87,0,0,0,694.06,412.08Z"/><path class="cls-3" d="M640.94,465.55s18.31-3.63,36.7-19.52a76.87,76.87,0,0,0,16.42-33.95"/><ellipse class="cls-4" cx="633.83" cy="385.03" rx="21.5" ry="26"/><ellipse class="cls-5" cx="630.18" cy="385.03" rx="15.72" ry="20.43"/><ellipse class="cls-4" cx="554.64" cy="385.03" rx="21.5" ry="26"/><ellipse class="cls-5" cx="550.99" cy="385.03" rx="15.72" ry="20.43"/><path class="cls-6" d="M720.41,347.26v28.49s-.68-21.42,11.86-23"/><path class="cls-6" d="M495.36,352.05s4.63,36.24,9.72,47.41"/></g><g id="머리카락"><path class="cls-5" d="M745.64,355c0-39-43-41-42,2,0,0-20-7-41-7s-43-17-43-17,2,9,4,12c0,0-43,18-72-14,0,0-2,4.59,0,13.8,0,0-97,30.2-87-91.8s145-115,162-108c0,0,96-22,135,64,0,0,21,41,12,80S745.64,355,745.64,355Z"/></g><g id="와이셔츠_뒷면" data-name="와이셔츠 뒷면"><polyline class="cls-4" points="531.67 529.94 733.25 529.93 713.08 640.24 627.37 650.58 565.07 623.22 541.06 583.41 531.67 529.94"/></g><g id="넥타이"><polygon class="cls-5" points="608.74 554.89 616.14 576.57 595.46 634.01 667.5 634.01 649.71 576.57 656.51 554.74 631.69 507.28 608.74 554.89"/></g><g id="조끼"><path class="cls-7" d="M848.18,1000c-1.82-75.68-25.83-443.9-25.83-443.9-26.14-11.8-86.1-32.7-86.1-32.7S708.83,634,632.47,634h0C556.1,634,528.67,523.4,528.67,523.4s-33.31,3-64.76,10.33c0,0-19.05,51.73-29.1,151.17-12.61,124.85-17,273-18.06,315.1Z"/></g><g id="와이셔츠_깃" data-name="와이셔츠 깃"><path class="cls-4" d="M632.46,515.63l12.35,30.89a13.11,13.11,0,0,0,14.05,8.1l65.5-14c6-1.41,15.62-8.21,11.89-17.27l-23.62-40.59a336.48,336.48,0,0,1-80.17,9.42Z"/><path class="cls-4" d="M632.46,515.63l-12.35,30.89a13.11,13.11,0,0,1-14.05,8.1l-65.5-14c-6-1.41-15.61-8.21-11.89-17.27l23.62-40.59a336.48,336.48,0,0,0,80.17,9.42Z"/><line class="cls-8" x1="660.12" y1="554" x2="720.81" y2="541.5"/><line class="cls-8" x1="603.16" y1="554" x2="543.11" y2="541.22"/></g><g id="중간소품"><polygon class="cls-9" points="151.55 492.44 115.23 495.18 78.91 497.92 83.32 512.75 87.73 527.57 119.64 510.01 151.55 492.44"/><polygon class="cls-9" points="151.48 468.07 117.04 456.22 82.6 444.36 80.79 459.72 78.97 475.08 115.23 471.58 151.48 468.07"/><polygon class="cls-9" points="155.58 450.44 135.78 419.87 115.97 389.3 105.07 400.28 94.18 411.25 124.88 430.85 155.58 450.44"/><path class="cls-9" d="M473.24,448.46h71.54a18.36,18.36,0,0,1,18.36,18.36V539.4a18.36,18.36,0,0,1-18.36,18.36H473.24a0,0,0,0,1,0,0V448.46a0,0,0,0,1,0,0Z" transform="translate(35.05 -33.75) rotate(3.86)"/><path class="cls-9" d="M477,445.56l-7.36,109.05L224.92,595.83l-6.63,1.11a14.92,14.92,0,0,1-17.36-15.72l12.31-182.41a14.93,14.93,0,0,1,18.45-13.49l7.31,1.8Z"/><polygon class="cls-10" points="477.02 445.56 469.66 554.61 224.92 595.83 239 387.12 477.02 445.56"/><line class="cls-11" x1="238.73" y1="387.05" x2="224.63" y2="595.87"/></g><g id="손"><path class="cls-12" d="M505.65,696.69l-3,28.63c-.14,1.37-50.08.33-51.45.19l-57.91-6a18.4,18.4,0,0,1-16.39-20.21h0a18.39,18.39,0,0,1,20.21-16.39L503.42,694A2.5,2.5,0,0,1,505.65,696.69Z"/><path class="cls-12" d="M438.42,606.55h0a18.4,18.4,0,0,1,18.4,18.4V731.83a2.5,2.5,0,0,1-2.5,2.5H422.51a2.5,2.5,0,0,1-2.5-2.5V625A18.4,18.4,0,0,1,438.42,606.55Z" transform="translate(-273.87 1036.98) rotate(-84.05)"/><path class="cls-12" d="M441.87,573.45h0a18.4,18.4,0,0,1,18.4,18.4V698.73a2.5,2.5,0,0,1-2.5,2.5H426a2.5,2.5,0,0,1-2.5-2.5V591.86a18.4,18.4,0,0,1,18.4-18.4Z" transform="translate(-237.85 1010.74) rotate(-84.05)"/><path class="cls-12" d="M449.17,540.76h0a18.4,18.4,0,0,1,18.4,18.4V666a2.5,2.5,0,0,1-2.5,2.5H433.27a2.5,2.5,0,0,1-2.5-2.5V559.16a18.4,18.4,0,0,1,18.4-18.4Z" transform="translate(-198.78 988.7) rotate(-84.05)"/><path class="cls-12" d="M439.31,585.11l11.9,140.4,51.14,2.82,19.13,4.91,64.24-108.55-55.25-30.78s-17-27.62-52.2-31.29C450,559.67,439.31,585.11,439.31,585.11Z"/><line class="cls-6" x1="431.28" y1="686.43" x2="398.35" y2="682.99"/><line class="cls-6" x1="434.73" y1="653.33" x2="401.8" y2="649.89"/><line class="cls-6" x1="438.18" y1="620.23" x2="405.25" y2="616.79"/><line class="cls-6" x1="481.63" y1="589.53" x2="475.02" y2="580.46"/><path class="cls-12" d="M145.45,136.46h0a18.4,18.4,0,0,1,18.4,18.4V261.74a2.5,2.5,0,0,1-2.5,2.5H129.54a2.5,2.5,0,0,1-2.5-2.5V154.86a18.4,18.4,0,0,1,18.4-18.4Z" transform="translate(-91.58 128.84) rotate(-37.23)"/><path class="cls-12" d="M169.9,110.72h0a18.4,18.4,0,0,1,18.4,18.4V236a2.5,2.5,0,0,1-2.5,2.5H154a2.5,2.5,0,0,1-2.5-2.5V129.12a18.4,18.4,0,0,1,18.4-18.4Z" transform="translate(-71.02 138.39) rotate(-37.23)"/><path class="cls-12" d="M196.39,90.58h0A18.4,18.4,0,0,1,214.8,109V215.86a2.5,2.5,0,0,1-2.5,2.5H180.49a2.5,2.5,0,0,1-2.5-2.5V109A18.4,18.4,0,0,1,196.39,90.58Z" transform="translate(-53.44 150.32) rotate(-37.23)"/><path class="cls-12" d="M225.23,73.53h0a18.4,18.4,0,0,1,18.4,18.4V198.81a2.5,2.5,0,0,1-2.5,2.5H209.33a2.5,2.5,0,0,1-2.5-2.5V91.93a18.4,18.4,0,0,1,18.4-18.4Z" transform="translate(-37.24 164.29) rotate(-37.23)"/><path class="cls-12" d="M232.78,116.94,138.5,221.62l46.62,62.79,114.12-80.24-10.15-15.11s6.51-28.56-14.93-56.77C256.94,109.63,232.78,116.94,232.78,116.94Z"/><path class="cls-6" d="M132.69,208.15s8.76,8.65,20.62-.36,5.26-20.59,5.26-20.59L133.32,154"/><path class="cls-6" d="M158.56,187.19s8.76,8.65,20.62-.36,5.26-20.59,5.26-20.59l-27-35.57"/><path class="cls-6" d="M185.68,167.87s8.76,8.66,20.62-.35,5.26-20.59,5.26-20.59l-25.24-33.22"/><path class="cls-6" d="M211.55,146.91a14.8,14.8,0,0,0,12.13,3.71"/><path class="cls-6" d="M231.06,125.51s-16.17,38.63,2.67,46.07,25.42-17.4,25.42-17.4"/><line class="cls-8" x1="250.27" y1="293.67" x2="315.75" y2="248.08"/><line class="cls-8" x1="195.99" y1="299.83" x2="252.83" y2="379.6"/><line class="cls-8" x1="309.5" y1="218.84" x2="459.8" y2="426.85"/></g><g id="팔"><path class="cls-4" d="M655.89,571.8h139.5a0,0,0,0,1,0,0V922a69.75,69.75,0,0,1-69.75,69.75h0A69.75,69.75,0,0,1,655.89,922V571.8A0,0,0,0,1,655.89,571.8Z" transform="translate(-316.7 1008.09) rotate(-59.38)"/></g><g id="선"><line class="cls-8" x1="574.23" y1="715.02" x2="614.87" y2="646.36"/><line class="cls-8" x1="847.19" y1="772.52" x2="878.41" y2="790.99"/><path class="cls-8" d="M858.63,926.32c31.57,2.63,62.94-5.42,79.67-21.86,28.59-28.09,41.53-57.32,38.12-103.73-3.49-47.51-26.67-93.37-52.35-133-19.13-29.55-42.35-60.35-68.94-87.25"/></g><g id="책상_위_사물" data-name="책상 위 사물"><path class="cls-10" d="M193.67,454.74h12.52a0,0,0,0,1,0,0v55a0,0,0,0,1,0,0H193.67a6.93,6.93,0,0,1-6.93-6.93V461.67A6.93,6.93,0,0,1,193.67,454.74Z" transform="translate(32.91 -12.13) rotate(3.86)"/><polygon class="cls-10" points="497.28 590.95 451.9 588.93 454.45 557.16 469.66 554.6 498.85 555.64 497.28 590.95"/><line class="cls-6" x1="449.17" y1="588.67" x2="501.71" y2="590.95"/></g></svg>