<svg xmlns="http://www.w3.org/2000/svg" viewBox="0 0 1000 1000"><defs><style>.cls-1{fill:#ffe3ec;}.cls-2{fill:#ffcbdc;}.cls-3{fill:#ffb5cd;}.cls-14,.cls-4{fill:#fff;}.cls-5{fill:#2d2d37;}.cls-15,.cls-16,.cls-6,.cls-8{fill:none;stroke-linecap:round;stroke-linejoin:round;}.cls-6{stroke:#ffcbdc;}.cls-14,.cls-16,.cls-6,.cls-8{stroke-width:5px;}.cls-7{fill:#bfab9b;}.cls-8{stroke:#dadada;}.cls-13,.cls-9{fill:#dadada;}.cls-10{fill:#ffea55;}.cls-10,.cls-16{opacity:0.5;}.cls-11{fill:#ffe4ee;}.cls-12{fill:#e54d26;}.cls-13{opacity:0.1;}.cls-14{stroke:#2d2d37;stroke-miterlimit:10;}.cls-15{stroke:#fff;stroke-width:3px;}.cls-16{stroke:#e54d26;}.cls-17{fill:#897c74;}.cls-18{fill:#706661;}.cls-19{fill:#7f736c;}.cls-20{fill:#665e5a;}</style></defs><g id="얼굴"><path class="cls-1" d="M780,364.3s1,36-33,42v117H589V473.69s-37-14.39-47-57.39c0,0-.39,0-1.08.05-6,.16-34.92-.68-34.92-32.05,0-35,17.26-38.46,17.26-38.46S515,209,643,210.64,782,336.3,780,364.3Z"/></g><g id="표정"><path class="cls-2" d="M589,473.69s76,22.61,123-18.39l-28,68H589Z"/><path class="cls-3" d="M728.44,421.35s-26.82-20.18-49.06.95c-27.36,26-4.06,52.52-4.06,52.52s18.31-3.64,36.7-19.52A76.91,76.91,0,0,0,728.44,421.35Z"/><path class="cls-3" d="M589,473.69s-37-14.39-47-57.39c0,0-.39,0-1.08.05l1.57-1.05s27.51-12,43,15.08C599.6,455,589,473.69,589,473.69Z"/><path class="cls-3" d="M675.32,474.82s18.31-3.64,36.7-19.52a76.91,76.91,0,0,0,16.42-33.95"/><ellipse class="cls-4" cx="668.21" cy="394.3" rx="21.5" ry="26"/><ellipse class="cls-5" cx="664.56" cy="394.3" rx="15.72" ry="20.43"/><ellipse class="cls-4" cx="589.02" cy="394.3" rx="21.5" ry="26"/><ellipse class="cls-5" cx="585.37" cy="394.3" rx="15.72" ry="20.43"/><path class="cls-6" d="M754.8,356.53V385s-.69-21.43,11.85-23"/><path class="cls-6" d="M529.74,361.31s4.63,36.25,9.72,47.42"/></g><g id="머리카락"><path class="cls-5" d="M780,364.3c0-39-43-41-42,2,0,0-20-7-41-7s-43-17-43-17,2,9,4,12c0,0-43,18-72-14,0,0-2,4.59,0,13.8,0,0-97,30.2-87-91.8s145-115,162-108c0,0,96-22,135,64,0,0,21,41,12,80S780,364.3,780,364.3Z"/></g><g id="와이셔츠_뒷면" data-name="와이셔츠 뒷면"><polyline class="cls-4" points="566.05 539.2 767.63 539.2 747.46 649.51 661.75 659.84 599.45 632.49 575.44 592.68 566.05 539.2"/></g><g id="넥타이"><polygon class="cls-5" points="643.12 564.15 650.52 585.84 629.84 643.28 701.88 643.28 684.09 585.84 690.89 564.01 666.07 516.54 643.12 564.15"/></g><g id="조끼"><path class="cls-7" d="M883,988.54c-1.82-75.67-25.83-423.23-25.83-423.23-26.14-11.81-86.1-32.71-86.1-32.71S743.64,643.22,667.27,643.22h0c-76.36,0-103.79-110.62-103.79-110.62s-59.94,20.9-86.08,32.71c0,0-24,347.56-25.84,423.23Z"/></g><g id="와이셔츠_깃" data-name="와이셔츠 깃"><path class="cls-4" d="M666.84,524.9l12.36,30.89a13.09,13.09,0,0,0,14,8.1l65.5-13.95c6-1.41,15.62-8.21,11.89-17.27L747,492.08a336.48,336.48,0,0,1-80.17,9.42Z"/><path class="cls-4" d="M666.84,524.9l-12.35,30.89a13.1,13.1,0,0,1-14,8.1L575,549.94c-6-1.41-15.62-8.21-11.9-17.27l23.62-40.59a336.48,336.48,0,0,0,80.17,9.42Z"/><line class="cls-8" x1="694.5" y1="563.27" x2="755.19" y2="550.77"/><line class="cls-8" x1="637.54" y1="563.27" x2="577.49" y2="550.48"/></g><g id="중간소품"><rect class="cls-9" x="462.91" y="604.26" width="44.3" height="131.02" transform="translate(-57.62 45.77) rotate(-5.1)"/><rect class="cls-5" x="457.2" y="734.97" width="69.91" height="28.47" transform="translate(-64.65 46.71) rotate(-5.1)"/><polygon class="cls-10" points="787.81 152.35 806.71 121.21 825.61 90.08 810.99 85.04 796.37 80 792.09 116.17 787.81 152.35"/><polygon class="cls-10" points="807.42 166.69 838.94 148.42 870.45 130.16 860.03 118.73 849.61 107.3 828.52 136.99 807.42 166.69"/><polygon class="cls-10" points="819.62 180.06 856.01 181.74 892.39 183.42 889.81 168.17 887.22 152.92 853.42 166.49 819.62 180.06"/></g><g id="손"><path class="cls-11" d="M148.79,230.23h0a18.4,18.4,0,0,1,18.4,18.4V355.51a2.5,2.5,0,0,1-2.5,2.5H132.88a2.5,2.5,0,0,1-2.5-2.5V248.63a18.4,18.4,0,0,1,18.4-18.4Z" transform="matrix(0.8, -0.61, 0.61, 0.8, -147.64, 149.98)"/><path class="cls-11" d="M173.24,204.49h0a18.4,18.4,0,0,1,18.4,18.4V329.77a2.5,2.5,0,0,1-2.5,2.5H157.33a2.5,2.5,0,0,1-2.5-2.5V222.89a18.4,18.4,0,0,1,18.4-18.4Z" transform="translate(-127.08 159.52) rotate(-37.23)"/><path class="cls-11" d="M199.74,184.36h0a18.4,18.4,0,0,1,18.4,18.4V309.64a2.5,2.5,0,0,1-2.5,2.5H183.83a2.5,2.5,0,0,1-2.5-2.5V202.76a18.4,18.4,0,0,1,18.4-18.4Z" transform="translate(-109.49 171.45) rotate(-37.23)"/><path class="cls-11" d="M228.58,167.31h0a18.4,18.4,0,0,1,18.4,18.4V292.59a2.5,2.5,0,0,1-2.5,2.5H212.67a2.5,2.5,0,0,1-2.5-2.5V185.71a18.4,18.4,0,0,1,18.4-18.4Z" transform="translate(-93.3 185.43) rotate(-37.23)"/><path class="cls-11" d="M236.12,210.71,141.84,315.39l46.63,62.79,114.11-80.24-10.15-15.11s6.51-28.56-14.93-56.76C260.28,203.41,236.12,210.71,236.12,210.71Z"/><path class="cls-6" d="M136,301.92s8.76,8.66,20.62-.36S161.91,281,161.91,281l-25.24-33.23"/><path class="cls-6" d="M161.9,281s8.76,8.65,20.62-.36S187.78,260,187.78,260l-27-35.57"/><path class="cls-6" d="M189,261.65s8.76,8.65,20.62-.36,5.27-20.58,5.27-20.58l-25.25-33.23"/><path class="cls-6" d="M214.89,240.69a14.83,14.83,0,0,0,12.13,3.7"/><path class="cls-6" d="M234.4,219.28s-16.16,38.63,2.67,46.08S262.49,248,262.49,248"/><line class="cls-8" x1="253.61" y1="387.44" x2="319.09" y2="341.85"/><line class="cls-8" x1="441.36" y1="718.83" x2="451.55" y2="732.52"/><line class="cls-8" x1="199.33" y1="393.61" x2="384.5" y2="642.42"/><line class="cls-8" x1="312.84" y1="312.61" x2="463.15" y2="520.63"/></g><g id="선"><line class="cls-8" x1="755.19" y1="497.49" x2="767.63" y2="524.85"/><path class="cls-11" d="M521.25,690.18l-4.78,28.38c-.23,1.36-50-2.83-51.36-3.06l-57.41-9.68a18.4,18.4,0,0,1-15.09-21.21h0a18.4,18.4,0,0,1,21.21-15.08L519.21,687.3A2.49,2.49,0,0,1,521.25,690.18Z"/><path class="cls-11" d="M455.82,595.85h0a18.4,18.4,0,0,1,18.4,18.4V721.13a2.5,2.5,0,0,1-2.5,2.5H439.91a2.5,2.5,0,0,1-2.5-2.5V614.25A18.4,18.4,0,0,1,455.82,595.85Z" transform="translate(-270.53 999.49) rotate(-80.43)"/><path class="cls-11" d="M461.35,563h0a18.4,18.4,0,0,1,18.4,18.4V688.31a2.5,2.5,0,0,1-2.5,2.5H445.44a2.5,2.5,0,0,1-2.5-2.5V581.43a18.4,18.4,0,0,1,18.4-18.4Z" transform="translate(-233.56 977.59) rotate(-80.43)"/><path class="cls-11" d="M470.71,530.86h0a18.4,18.4,0,0,1,18.4,18.4V656.14a2.5,2.5,0,0,1-2.5,2.5H454.8a2.5,2.5,0,0,1-2.5-2.5V549.26A18.4,18.4,0,0,1,470.71,530.86Z" transform="translate(-194.04 959.99) rotate(-80.43)"/><path class="cls-11" d="M462.09,574.63l3,140.87,50.85,6,18.78,6.11,71-104.28-53.19-34.21s-15.18-28.63-50.12-34.52C474.34,549.92,462.09,574.63,462.09,574.63Z"/><line class="cls-6" x1="447.68" y1="675.24" x2="415.03" y2="669.73"/><line class="cls-6" x1="453.21" y1="642.42" x2="420.57" y2="636.92"/><line class="cls-6" x1="458.75" y1="609.61" x2="426.1" y2="604.1"/><line class="cls-6" x1="504.06" y1="581.71" x2="498.03" y2="572.25"/><path class="cls-4" d="M669.73,566.29h139.5a0,0,0,0,1,0,0V916.46a69.75,69.75,0,0,1-69.75,69.75h0a69.75,69.75,0,0,1-69.75-69.75V566.29a0,0,0,0,1,0,0Z" transform="translate(-305.16 1017.3) rotate(-59.38)"/><line class="cls-8" x1="588.08" y1="709.52" x2="628.71" y2="640.85"/><line class="cls-8" x1="861.04" y1="767.01" x2="892.25" y2="785.49"/><path class="cls-8" d="M872.47,920.82c31.57,2.62,62.94-5.43,79.67-21.87,28.59-28.09,41.53-57.32,38.12-103.73-3.49-47.51-26.67-93.36-52.35-133C918.79,632.65,895.56,601.86,869,575"/></g><g id="책상_위_사물" data-name="책상 위 사물"><polygon class="cls-12" points="498.61 533.21 447.55 537.77 408.5 73.89 447.61 70.4 498.61 533.21"/><rect class="cls-5" x="439.39" y="535.43" width="69.91" height="28.47" transform="translate(-46.98 44.34) rotate(-5.1)"/><rect class="cls-13" x="430.1" y="78.76" width="6.21" height="319.8" transform="translate(-19.5 39.45) rotate(-5.1)"/><polygon class="cls-9" points="497.67 561.88 453.55 565.82 454.45 575.99 499.31 580.25 497.67 561.88"/><line class="cls-6" x1="455.06" y1="576.19" x2="503.82" y2="579.85"/><rect class="cls-5" x="96.66" y="644.6" width="291.81" height="213.64" rx="11.36"/><rect class="cls-14" x="86.81" y="556.8" width="283.11" height="35.21" rx="6.68" transform="translate(-180.19 110.53) rotate(-19.69)"/><path class="cls-5" d="M116.92,595.59l-2.22,38.19-7.39,2.65a6.69,6.69,0,0,1-8.54-4l-7.36-20.58a6.67,6.67,0,0,1,4-8.54Z"/><polygon class="cls-5" points="178.36 573.6 176.13 611.8 142.35 623.88 144.58 585.69 178.36 573.6"/><polygon class="cls-5" points="209.67 562.4 207.44 600.59 241.21 588.51 243.44 550.31 209.67 562.4"/><polygon class="cls-5" points="306.84 527.63 304.62 565.82 270.84 577.9 273.06 539.71 306.84 527.63"/><path class="cls-5" d="M358,516.42,365.32,537a6.68,6.68,0,0,1-4,8.54l-26.09,9.33,2.22-38.19,12-4.3A6.68,6.68,0,0,1,358,516.42Z"/><rect class="cls-14" x="99.8" y="647.92" width="283.11" height="35.21" rx="6.68"/><path class="cls-5" d="M129.29,647.92l-15,35.21h-7.85a6.68,6.68,0,0,1-6.68-6.68V654.6a6.68,6.68,0,0,1,6.68-6.68Z"/><polygon class="cls-5" points="194.54 647.92 179.57 683.13 143.7 683.13 158.67 647.92 194.54 647.92"/><polygon class="cls-5" points="227.8 647.92 212.83 683.13 248.7 683.13 263.67 647.92 227.8 647.92"/><polygon class="cls-5" points="331 647.92 316.04 683.13 280.17 683.13 295.13 647.92 331 647.92"/><path class="cls-5" d="M382.91,654.6v21.85a6.68,6.68,0,0,1-6.68,6.68H348.52l15-35.21h12.75A6.68,6.68,0,0,1,382.91,654.6Z"/><path class="cls-15" d="M147.21,701.1A24.73,24.73,0,0,0,134.51,720a6.06,6.06,0,0,0,1.57,5.22c2.76,2.57,7.1.88,10.06-.4a17.1,17.1,0,0,0,8.22-7.21,13.46,13.46,0,0,0,.07,4.61,4,4,0,0,0,5,3.1c3.49-.59,6.93-3,9.5-5.29-1.07,1,2.15,2.79,2.7,2.94,3.11.89,6.78-1.2,9.95-1.41"/><line class="cls-15" x1="215.55" y1="722.53" x2="355.39" y2="722.53"/><line class="cls-15" x1="215.55" y1="756.2" x2="355.39" y2="756.2"/><line class="cls-15" x1="124.48" y1="794.15" x2="360.64" y2="794.15"/><line class="cls-15" x1="185.86" y1="794.15" x2="185.86" y2="843.84"/><line class="cls-15" x1="299.27" y1="794.15" x2="299.27" y2="843.84"/><path class="cls-15" d="M136.78,744.57a22.37,22.37,0,0,0-6.25,6.24c-1.89,2.84-1.76,6.28,1.43,8.12a8.4,8.4,0,0,0,5.29.88,11.68,11.68,0,0,0,8.4-5.62c-2,2.34-.4,6.27,2.36,7.6,7.09,3.41,14.14-2.64,19.6-6.49-2.79,2-.1,3.61,2,4.4,10.1,3.79,20.36,0,30.66.06"/><line class="cls-16" x1="361.29" y1="67.69" x2="383.56" y2="81.67"/><line class="cls-16" x1="412.3" y1="28.49" x2="418.87" y2="53.95"/><line class="cls-16" x1="469.12" y1="41.22" x2="457.17" y2="64.64"/></g><g id="책상"><rect class="cls-17" y="857.76" width="1000" height="47.41"/><rect class="cls-17" y="905.17" width="67.02" height="94.83"/><rect class="cls-17" x="804.88" y="905.17" width="67.02" height="94.83"/><polygon class="cls-18" points="1000 857.76 1000 905.17 871.9 905.17 871.9 1000 838.39 1000 838.39 857.76 1000 857.76"/><rect class="cls-19" x="67.02" y="905.17" width="737.86" height="94.83"/><rect class="cls-20" x="871.9" y="905.17" width="128.1" height="94.83"/><rect class="cls-18" x="33.51" y="905.17" width="33.51" height="94.83"/></g></svg>