<svg xmlns="http://www.w3.org/2000/svg" viewBox="0 0 1000 1000"><defs><style>.cls-1{fill:#c7cedd;}.cls-1,.cls-2{opacity:0.2;}.cls-2{fill:#c1c1c1;}.cls-3{fill:#ffe3ec;}.cls-4{fill:#ffcbdc;}.cls-5{fill:#ffb5cd;}.cls-11,.cls-6{fill:#fff;}.cls-7{fill:#2d2d37;}.cls-10,.cls-8{fill:none;stroke-linecap:round;stroke-linejoin:round;stroke-width:5px;}.cls-8{stroke:#ffcbdc;}.cls-9{fill:#bfab9b;}.cls-10{stroke:#dadada;}.cls-11{opacity:0.5;}.cls-12{fill:#fff293;}.cls-13{fill:#f7de40;}.cls-14{fill:#6b6b72;}.cls-15{fill:#c8ccce;}.cls-16{fill:#d5d8db;}.cls-17{fill:#e8ebef;}.cls-18{fill:#897c74;}.cls-19{fill:#706661;}.cls-20{fill:#7f736c;}.cls-21{fill:#665e5a;}</style></defs><g id="뒷배경"><rect class="cls-1" width="582.41" height="1000"/><rect class="cls-2" x="566.91" width="15.49" height="881.69"/></g><g id="얼굴"><path class="cls-3" d="M739.41,364.52s1,36-33,42v117h-158V473.91s-37-14.39-47-57.39c0,0-.39,0-1.08.05-6,.16-34.92-.68-34.92-32.05,0-35,17.26-38.46,17.26-38.46s-8.26-136.85,119.74-135.2S741.41,336.52,739.41,364.52Z"/></g><g id="표정"><path class="cls-4" d="M548.41,473.91s76,22.61,123-18.39l-28,68h-95Z"/><path class="cls-5" d="M687.84,421.57s-26.82-20.18-49.06.95c-27.37,26-4.06,52.52-4.06,52.52s18.31-3.63,36.69-19.52A76.82,76.82,0,0,0,687.84,421.57Z"/><path class="cls-5" d="M548.41,473.91s-37-14.39-47-57.39c0,0-.39,0-1.08.05l1.57-1.05s27.51-12,43,15.08C559,455.2,548.41,473.91,548.41,473.91Z"/><path class="cls-5" d="M634.72,475s18.31-3.63,36.69-19.52a76.82,76.82,0,0,0,16.43-33.95"/><ellipse class="cls-6" cx="627.6" cy="394.52" rx="21.5" ry="26"/><ellipse class="cls-7" cx="623.96" cy="394.52" rx="15.72" ry="20.43"/><ellipse class="cls-6" cx="548.41" cy="394.52" rx="21.5" ry="26"/><ellipse class="cls-7" cx="544.77" cy="394.52" rx="15.72" ry="20.43"/><path class="cls-8" d="M714.19,356.75v28.49s-.68-21.42,11.85-23"/><path class="cls-8" d="M489.14,361.54s4.62,36.24,9.72,47.41"/></g><g id="머리카락"><path class="cls-7" d="M739.41,364.52c0-39-43-41-42,2,0,0-20-7-41-7s-43-17-43-17,2,9,4,12c0,0-43,18-72-14,0,0-2,4.6,0,13.8,0,0-97,30.2-87-91.8s145-115,162-108c0,0,96-22,135,64,0,0,21,41,12,80S739.41,364.52,739.41,364.52Z"/></g><g id="와이셔츠_뒷면" data-name="와이셔츠 뒷면"><polyline class="cls-6" points="525.45 539.43 727.03 539.43 706.86 649.73 621.15 660.07 558.85 632.71 534.84 592.9 525.45 539.43"/></g><g id="넥타이"><polygon class="cls-7" points="602.51 564.38 609.91 586.06 589.24 643.5 661.28 643.5 643.49 586.06 650.29 564.24 625.47 516.77 602.51 564.38"/></g><g id="조끼"><path class="cls-9" d="M842.38,988.77c-1.82-75.68-25.83-423.24-25.83-423.24-26.14-11.8-86.1-32.7-86.1-32.7S703,643.44,626.67,643.44h0c-76.36,0-103.79-110.61-103.79-110.61s-59.95,20.9-86.09,32.7c0,0-24,347.56-25.83,423.24Z"/></g><g id="와이셔츠_깃" data-name="와이셔츠 깃"><path class="cls-6" d="M626.24,525.12,638.59,556a13.11,13.11,0,0,0,14,8.1l65.5-13.94c6-1.42,15.61-8.22,11.89-17.28L706.41,492.3a336.48,336.48,0,0,1-80.17,9.42Z"/><path class="cls-6" d="M626.24,525.12,613.89,556a13.11,13.11,0,0,1-14,8.1l-65.5-13.94c-6-1.42-15.61-8.22-11.89-17.28l23.62-40.59a336.48,336.48,0,0,0,80.17,9.42Z"/><line class="cls-10" x1="653.9" y1="563.49" x2="714.59" y2="550.99"/><line class="cls-10" x1="596.94" y1="563.49" x2="536.89" y2="550.71"/></g><g id="중간소품"><rect class="cls-11" x="59.71" y="79.32" width="67.17" height="11.85" transform="translate(-30.12 58.07) rotate(-30)"/><rect class="cls-11" x="245.96" y="249.45" width="67.17" height="11.85" transform="matrix(0.87, -0.5, 0.5, 0.87, -90.24, 173.99)"/><rect class="cls-11" x="366.92" y="249.45" width="67.17" height="11.85" transform="translate(181.35 -166.04) rotate(30)"/><polygon class="cls-12" points="226.26 209.89 83.11 220.22 83.11 77.08 226.26 77.08 226.26 209.89"/><path class="cls-13" d="M83.11,220.22l122.18-37.68s-1.83,23.7,21,27.35Z"/><polygon class="cls-12" points="411.97 380.33 268.82 390.66 268.82 247.51 411.97 247.51 411.97 380.33"/><path class="cls-13" d="M268.82,390.66,391,353s-1.82,23.71,21,27.36Z"/></g><g id="팔"><path class="cls-6" d="M436.81,565.52l-24.1,434.57H300c6.16-368,135.8-434,136.83-434.56Z"/><path class="cls-10" d="M312.16,840.25c23.45-159.39,74.49-229.91,103.46-258.11"/><path class="cls-6" d="M817.3,565.52l24.1,434.57H954.14c-6.16-368-135.8-434-136.83-434.56Z"/><path class="cls-10" d="M941.94,840.25c-23.45-159.39-74.48-229.91-103.45-258.11"/><path class="cls-6" d="M926.48,730.46a1.55,1.55,0,0,1,0-.21A1.76,1.76,0,0,1,926.48,730.46Z"/></g><g id="책상_위_사물" data-name="책상 위 사물"><path class="cls-14" d="M743.1,359.13a7.71,7.71,0,0,1-.94,3.71,9.27,9.27,0,0,1-2.75,2.68c-2.76-19.84-7.47-26.3-16.06-29.79a2.3,2.3,0,0,0-3.24,2.13V357a14.25,14.25,0,0,1-.2,28.12l-25.46,70.45-2.23,6.17H631.14a11,11,0,0,1-10.75,8.63H605.27a11,11,0,1,1,0-22h15.12a11,11,0,0,1,10.34,7.22h57.15l26.31-72.81V335.24a5.58,5.58,0,0,1,7.06-5.38,26.91,26.91,0,0,1,11.13,6.27,33.18,33.18,0,0,1,9.19,14.72C742.24,353,743.28,356.1,743.1,359.13Z"/><rect class="cls-15" x="85.01" y="843.26" width="682.26" height="14.73"/><rect class="cls-16" x="85.01" y="843.26" width="463.4" height="14.73"/><polygon class="cls-15" points="560.72 843.25 97.49 843.25 50.26 541.5 513.49 541.5 560.72 843.25"/><polygon class="cls-17" points="548.24 843.25 85.01 843.25 37.78 541.5 501.01 541.5 548.24 843.25"/></g><g id="책상"><rect class="cls-18" y="857.98" width="1000" height="47.41"/><rect class="cls-18" y="905.4" width="67.02" height="94.83"/><rect class="cls-18" x="804.88" y="905.39" width="67.02" height="94.83"/><polygon class="cls-19" points="1000 857.98 1000 905.39 871.9 905.39 871.9 1000.22 838.39 1000.22 838.39 857.98 1000 857.98"/><rect class="cls-20" x="67.02" y="905.39" width="737.86" height="94.83"/><rect class="cls-21" x="871.9" y="905.39" width="128.1" height="94.83"/><rect class="cls-19" x="33.51" y="905.39" width="33.51" height="94.83"/></g></svg>