<svg xmlns="http://www.w3.org/2000/svg" viewBox="0 0 1000 1000"><defs><style>.cls-1{fill:#f2f2f2;}.cls-2{fill:#e2e2e2;}.cls-3{fill:#dbdbdb;}.cls-4{fill:#c6c6c6;}.cls-12,.cls-14,.cls-5,.cls-6{fill:none;stroke-linecap:round;stroke-linejoin:round;}.cls-5{stroke:#dbdbdb;stroke-width:2px;}.cls-14,.cls-6{stroke:#dadada;}.cls-12,.cls-14,.cls-6{stroke-width:5px;}.cls-6{opacity:0.4;}.cls-7{fill:#ffe3ec;}.cls-8{fill:#ffcbdc;}.cls-9{fill:#ffb5cd;}.cls-10{fill:#fff;}.cls-11{fill:#2d2d37;}.cls-12{stroke:#ffcbdc;}.cls-13{fill:#bfab9b;}.cls-15{fill:#ffe4ee;}.cls-16{fill:#c8ccce;}.cls-17{fill:#d5d8db;}.cls-18{fill:#e8ebef;}.cls-19{fill:#897c74;}.cls-20{fill:#706661;}.cls-21{fill:#7f736c;}.cls-22{fill:#665e5a;}</style></defs><g id="뒷배경"><rect class="cls-1" x="100.44" y="97.1" width="117.45" height="231.83"/><rect class="cls-1" x="436.78" y="97.1" width="117.45" height="231.83"/><polygon class="cls-2" points="327.33 368.93 217.89 328.93 217.89 97.1 327.33 137.1 327.33 368.93"/><polygon class="cls-3" points="327.33 368.93 436.78 328.93 436.78 97.1 327.33 137.1 327.33 368.93"/><rect class="cls-3" x="114.74" y="114.58" width="82.72" height="2.3"/><rect class="cls-3" x="114.74" y="124.16" width="82.72" height="2.3"/><rect class="cls-3" x="114.74" y="131.6" width="82.72" height="5.79"/><rect class="cls-3" x="114.74" y="142.2" width="56.51" height="2.3"/><rect class="cls-3" x="114.74" y="160.24" width="82.72" height="33.7"/><polygon class="cls-4" points="313.97 187.58 231.25 156.33 231.25 122.63 313.97 153.88 313.97 187.58"/><polygon class="cls-4" points="340.69 269.11 423.42 237.85 423.42 158.66 340.69 189.91 340.69 269.11"/><polygon class="cls-4" points="340.69 309.33 423.42 278.07 423.42 248.53 340.69 279.78 340.69 309.33"/><polygon class="cls-4" points="231.25 162.68 231.25 169.57 313.97 200.83 313.97 193.93 231.25 162.68"/><polygon class="cls-4" points="231.25 174.87 231.25 180.76 269.89 195.03 269.89 189.14 231.25 174.87"/><polygon class="cls-4" points="423.42 122.63 423.42 129.52 340.69 160.77 340.69 153.88 423.42 122.63"/><polygon class="cls-4" points="423.42 134.82 423.42 140.71 384.78 154.97 384.78 149.08 423.42 134.82"/><polygon class="cls-4" points="231.25 202.8 231.25 209.69 313.97 240.95 313.97 234.05 231.25 202.8"/><polygon class="cls-4" points="231.25 214.99 231.25 221.88 269.89 236.15 269.89 229.25 231.25 214.99"/><polygon class="cls-4" points="231.25 230.37 231.25 236.26 290.06 257.42 290.06 251.53 231.25 230.37"/><polygon class="cls-4" points="275.33 290.01 275.33 296.9 313.97 311.17 313.97 304.27 275.33 290.01"/><polygon class="cls-4" points="251.42 303.6 251.42 310.94 313.97 333.44 313.97 326.11 251.42 303.6"/><path class="cls-5" d="M115.64,311.72h18.74V257.47A18.74,18.74,0,0,0,124.59,241a15.42,15.42,0,0,0-9-28"/><path class="cls-5" d="M194.29,225.81a13.56,13.56,0,0,0-12.68,23.73A16.48,16.48,0,0,0,173,264v47.7h21.28"/><path class="cls-5" d="M160.7,261a11.06,11.06,0,1,0-12.84,0,13.45,13.45,0,0,0-7,11.81v38.9h26.88v-38.9A13.45,13.45,0,0,0,160.7,261Z"/><rect class="cls-3" x="457.27" y="114.58" width="82.72" height="2.3"/><rect class="cls-3" x="457.27" y="124.16" width="82.72" height="2.3"/><rect class="cls-3" x="457.27" y="131.6" width="82.72" height="5.79"/><rect class="cls-3" x="457.27" y="142.2" width="56.51" height="2.3"/><rect class="cls-3" x="457.27" y="254.15" width="82.72" height="2.3"/><rect class="cls-3" x="457.27" y="263.72" width="82.72" height="2.3"/><rect class="cls-3" x="457.27" y="271.17" width="82.72" height="5.79"/><rect class="cls-3" x="457.27" y="281.77" width="56.51" height="2.3"/><rect class="cls-3" x="457.27" y="160.24" width="82.72" height="33.7"/><rect class="cls-3" x="495.5" y="205.02" width="44.49" height="33.7"/><path class="cls-6" d="M608.81,142.2V92.77a33.35,33.35,0,0,0-33.35-33.35H91.51A33.36,33.36,0,0,0,58.15,92.77v269.4a33.36,33.36,0,0,0,33.36,33.35H269.89l70.43,72.17-14.77-72.17h182"/></g><g id="얼굴"><path class="cls-7" d="M799,364.3s1,36-33,42v117H608V473.69s-37-14.39-47-57.39c0,0-.39,0-1.08.05-6,.16-34.92-.68-34.92-32.05,0-35,17.26-38.46,17.26-38.46S534,209,662,210.64,801,336.3,799,364.3Z"/></g><g id="표정"><path class="cls-8" d="M608,473.69s76,22.61,123-18.39l-28,68H608Z"/><path class="cls-9" d="M747.45,421.35s-26.82-20.18-49.06.95c-27.37,26-4.06,52.52-4.06,52.52s18.3-3.64,36.69-19.52A77,77,0,0,0,747.45,421.35Z"/><path class="cls-9" d="M608,473.69s-37-14.39-47-57.39c0,0-.39,0-1.08.05l1.57-1.05s27.51-12,43,15.08C618.6,455,608,473.69,608,473.69Z"/><path class="cls-9" d="M694.33,474.82s18.3-3.64,36.69-19.52a77,77,0,0,0,16.43-33.95"/><ellipse class="cls-10" cx="687.21" cy="394.3" rx="21.5" ry="26"/><ellipse class="cls-11" cx="683.56" cy="394.3" rx="15.72" ry="20.43"/><ellipse class="cls-10" cx="608.02" cy="394.3" rx="21.5" ry="26"/><ellipse class="cls-11" cx="604.37" cy="394.3" rx="15.72" ry="20.43"/><path class="cls-12" d="M773.8,356.53V385s-.69-21.43,11.85-23"/><path class="cls-12" d="M548.74,361.31s4.63,36.25,9.72,47.42"/></g><g id="머리카락"><path class="cls-11" d="M799,364.3c0-39-43-41-42,2,0,0-20-7-41-7s-43-17-43-17,2,9,4,12c0,0-43,18-72-14,0,0-2,4.59,0,13.8,0,0-97,30.2-87-91.8s145-115,162-108c0,0,96-22,135,64,0,0,21,41,12,80S799,364.3,799,364.3Z"/></g><g id="와이셔츠_뒷면" data-name="와이셔츠 뒷면"><polyline class="cls-10" points="585.06 539.2 786.63 539.2 766.46 649.51 680.76 659.84 618.45 632.49 594.44 592.68 585.06 539.2"/></g><g id="넥타이"><polygon class="cls-11" points="662.12 564.15 669.52 585.84 648.84 643.28 720.89 643.28 703.1 585.84 709.9 564.01 685.07 516.54 662.12 564.15"/></g><g id="조끼"><path class="cls-13" d="M902,988.54c-1.83-75.67-25.84-423.23-25.84-423.23C850,553.5,790.06,532.6,790.06,532.6S762.64,643.22,686.28,643.22h0c-76.37,0-103.79-110.62-103.79-110.62s-60,20.9-86.09,32.71c0,0-24,347.56-25.83,423.23Z"/></g><g id="와이셔츠_깃" data-name="와이셔츠 깃"><path class="cls-10" d="M685.85,524.9l12.35,30.89a13.1,13.1,0,0,0,14,8.1l65.5-13.95c6-1.41,15.62-8.21,11.9-17.27L766,492.08a336.48,336.48,0,0,1-80.17,9.42Z"/><path class="cls-10" d="M685.85,524.9l-12.36,30.89a13.09,13.09,0,0,1-14,8.1L594,549.94c-6-1.41-15.62-8.21-11.89-17.27l23.62-40.59a336.48,336.48,0,0,0,80.17,9.42Z"/><line class="cls-14" x1="713.51" y1="563.27" x2="774.19" y2="550.77"/><line class="cls-14" x1="656.54" y1="563.27" x2="596.49" y2="550.48"/></g><g id="손"><path class="cls-15" d="M642.19,715.32c-12.3-1.4-29.18-4.49-40.26-6.65a126,126,0,0,0-24-2.3c-10.46-.43-23.06,7.35-23.06,7.35h0l-16.84-.28-99.21-2.86a18.4,18.4,0,1,0-1.06,36.79l52.32,1.51a18.36,18.36,0,0,0,2.07,31.59,18.39,18.39,0,0,0,6.8,35.25l56.86,1.64,6,35.23L627,854.47l36,1,4-139.47Z"/></g><g id="팔"><path class="cls-10" d="M496.41,565.3l-24.1,434.57H359.57c6.16-368,135.8-434,136.83-434.56Z"/><path class="cls-14" d="M371.77,840c23.45-159.39,74.49-229.91,103.45-258.11"/><path class="cls-10" d="M917.06,923.18c-42.81,5.16-40.92-357.88-40.92-357.88s89,56.33,110.31,164.66a1.55,1.55,0,0,0,0,.21C988,737,1023.81,910.33,917.06,923.18Z"/><path class="cls-10" d="M750.47,613H890a0,0,0,0,1,0,0V897.84a69.75,69.75,0,0,1-69.75,69.75h0a69.75,69.75,0,0,1-69.75-69.75V613a0,0,0,0,1,0,0Z" transform="translate(6.61 1587.35) rotate(-88.35)"/><path class="cls-10" d="M986.08,730.24a1.55,1.55,0,0,1,0-.21A1.76,1.76,0,0,1,986.08,730.24Z"/></g><g id="선"><line class="cls-14" x1="688.07" y1="806.15" x2="690.37" y2="726.39"/><path class="cls-14" d="M896,580.43c27.51,23.4,75.55,73.74,90.47,149.53a1.55,1.55,0,0,0,0,.21c.81,3.81,12.29,59.25,3.87,109.85"/><line class="cls-14" x1="886.2" y1="726.39" x2="922.93" y2="735.73"/><line class="cls-14" x1="774.19" y1="497.49" x2="786.63" y2="524.85"/></g><g id="책상_위_사물" data-name="책상 위 사물"><rect class="cls-16" x="105.13" y="843.03" width="682.26" height="14.73"/><rect class="cls-17" x="105.13" y="843.03" width="463.4" height="14.73"/><polygon class="cls-16" points="580.83 843.03 117.61 843.03 70.38 541.28 533.6 541.28 580.83 843.03"/><polygon class="cls-18" points="568.35 843.03 105.13 843.03 57.9 541.28 521.12 541.28 568.35 843.03"/></g><g id="책상"><rect class="cls-19" x="0.12" y="857.76" width="1000" height="47.41"/><rect class="cls-19" x="0.12" y="905.17" width="67.02" height="94.83"/><rect class="cls-19" x="805" y="905.17" width="67.02" height="94.83"/><polygon class="cls-20" points="1000.13 857.76 1000.13 905.17 872.02 905.17 872.02 1000 838.51 1000 838.51 857.76 1000.13 857.76"/><rect class="cls-21" x="67.14" y="905.17" width="737.86" height="94.83"/><rect class="cls-22" x="872.02" y="905.17" width="128.1" height="94.83"/><rect class="cls-20" x="33.63" y="905.17" width="33.51" height="94.83"/></g></svg>