<svg xmlns="http://www.w3.org/2000/svg" viewBox="0 0 1000 1000"><defs><style>.cls-1{fill:#ffe3ec;}.cls-2{fill:#ffcbdc;}.cls-3{fill:#ffb5cd;}.cls-4{fill:#fff;}.cls-5{fill:#2d2d37;}.cls-11,.cls-12,.cls-15,.cls-6,.cls-8{fill:none;}.cls-6{stroke:#ffcbdc;}.cls-6,.cls-8{stroke-linecap:round;stroke-linejoin:round;stroke-width:5px;}.cls-7{fill:#bfab9b;}.cls-8{stroke:#dadada;}.cls-9{fill:#5aba68;}.cls-10{fill:#4ea858;}.cls-11{stroke:#52aa5d;}.cls-11,.cls-12,.cls-15{stroke-miterlimit:10;}.cls-12{stroke:#47994d;}.cls-13{fill:#ffffd7;}.cls-14{fill:#ffd817;}.cls-15{stroke:#ffce00;}.cls-16{fill:#52aa5d;}.cls-17{fill:#47994d;}.cls-18{fill:#897c74;}.cls-19{fill:#706661;}.cls-20{fill:#7f736c;}.cls-21{fill:#665e5a;}</style></defs><g id="얼굴"><path class="cls-1" d="M640.42,364.52s1,36-33,42v117h-158V473.91s-37-14.39-47-57.39c0,0-.39,0-1.08.05-6,.16-34.92-.68-34.92-32.05,0-35,17.26-38.46,17.26-38.46s-8.26-136.85,119.74-135.2S642.42,336.52,640.42,364.52Z"/></g><g id="표정"><path class="cls-2" d="M449.42,473.91s76,22.61,123-18.39l-28,68h-95Z"/><path class="cls-3" d="M588.85,421.57s-26.82-20.18-49.06.95c-27.37,26-4.06,52.52-4.06,52.52s18.3-3.63,36.69-19.52A77,77,0,0,0,588.85,421.57Z"/><path class="cls-3" d="M449.42,473.91s-37-14.39-47-57.39c0,0-.39,0-1.08.05l1.57-1.05s27.51-12,43,15.08C460,455.2,449.42,473.91,449.42,473.91Z"/><path class="cls-3" d="M535.73,475s18.3-3.63,36.69-19.52a77,77,0,0,0,16.43-33.95"/><ellipse class="cls-4" cx="528.61" cy="394.52" rx="21.5" ry="26"/><ellipse class="cls-5" cx="524.97" cy="394.52" rx="15.72" ry="20.43"/><ellipse class="cls-4" cx="449.42" cy="394.52" rx="21.5" ry="26"/><ellipse class="cls-5" cx="445.78" cy="394.52" rx="15.72" ry="20.43"/><path class="cls-6" d="M615.2,356.75v28.49s-.68-21.42,11.85-23"/><path class="cls-6" d="M390.14,361.54s4.63,36.24,9.73,47.41"/></g><g id="머리카락"><path class="cls-5" d="M640.42,364.52c0-39-43-41-42,2,0,0-20-7-41-7s-43-17-43-17,2,9,4,12c0,0-43,18-72-14,0,0-2,4.6,0,13.8,0,0-97,30.2-87-91.8s145-115,162-108c0,0,96-22,135,64,0,0,21,41,12,80S640.42,364.52,640.42,364.52Z"/></g><g id="와이셔츠_뒷면" data-name="와이셔츠 뒷면"><polyline class="cls-4" points="426.46 539.43 628.03 539.43 607.86 649.73 522.16 660.07 459.85 632.71 435.84 592.9 426.46 539.43"/></g><g id="넥타이"><polygon class="cls-5" points="503.52 564.38 510.92 586.06 490.25 643.5 562.29 643.5 544.5 586.06 551.3 564.24 526.48 516.77 503.52 564.38"/></g><g id="조끼"><path class="cls-7" d="M743.39,988.77c-1.83-75.68-25.84-423.24-25.84-423.24-26.13-11.8-86.09-32.7-86.09-32.7S604,643.44,527.68,643.44h0c-76.36,0-103.79-110.61-103.79-110.61s-59.95,20.9-86.09,32.7c0,0-24,347.56-25.83,423.24Z"/></g><g id="와이셔츠_깃" data-name="와이셔츠 깃"><path class="cls-4" d="M527.25,525.12,539.6,556a13.11,13.11,0,0,0,14,8.1l65.5-13.94c6-1.42,15.61-8.22,11.89-17.28L607.42,492.3a336.48,336.48,0,0,1-80.17,9.42Z"/><path class="cls-4" d="M527.25,525.12,514.9,556a13.11,13.11,0,0,1-14,8.1l-65.5-13.94c-6-1.42-15.62-8.22-11.89-17.28l23.62-40.59a336.48,336.48,0,0,0,80.17,9.42Z"/><line class="cls-8" x1="554.91" y1="563.49" x2="615.59" y2="550.99"/><line class="cls-8" x1="497.94" y1="563.49" x2="437.89" y2="550.71"/></g><g id="팔"><path class="cls-4" d="M337.82,565.52l-24.1,434.57H201c6.15-368,135.8-434,136.83-434.56Z"/><path class="cls-8" d="M213.17,840.25c23.45-159.39,74.49-229.91,103.45-258.11"/><path class="cls-4" d="M718.31,565.52l24.1,434.57H855.15c-6.16-368-135.8-434-136.83-434.56Z"/><path class="cls-8" d="M843,840.25C819.5,680.86,768.46,610.34,739.5,582.14"/><path class="cls-4" d="M827.49,730.46a1.55,1.55,0,0,1,0-.21A1.76,1.76,0,0,1,827.49,730.46Z"/></g><g id="책상_위_사물" data-name="책상 위 사물"><rect class="cls-9" x="613.18" y="777.48" width="225.21" height="104.21"/><rect class="cls-10" x="838.39" y="777.48" width="81.02" height="104.21"/><line class="cls-11" x1="613.18" y1="790.2" x2="838.39" y2="790.2"/><line class="cls-11" x1="613.18" y1="801.6" x2="838.39" y2="801.6"/><line class="cls-11" x1="613.18" y1="813" x2="838.39" y2="813"/><line class="cls-11" x1="613.18" y1="824.39" x2="838.39" y2="824.39"/><line class="cls-11" x1="613.18" y1="835.79" x2="838.39" y2="835.79"/><line class="cls-11" x1="613.18" y1="847.19" x2="838.39" y2="847.19"/><line class="cls-11" x1="613.18" y1="858.58" x2="838.39" y2="858.58"/><line class="cls-11" x1="613.18" y1="869.98" x2="838.39" y2="869.98"/><line class="cls-12" x1="838.39" y1="790.2" x2="919.19" y2="790.2"/><line class="cls-12" x1="838.39" y1="801.6" x2="919.19" y2="801.6"/><line class="cls-12" x1="838.39" y1="813" x2="919.19" y2="813"/><line class="cls-12" x1="838.39" y1="824.39" x2="919.19" y2="824.39"/><line class="cls-12" x1="838.39" y1="835.79" x2="919.19" y2="835.79"/><line class="cls-12" x1="838.39" y1="847.19" x2="919.19" y2="847.19"/><line class="cls-12" x1="838.39" y1="858.58" x2="919.19" y2="858.58"/><line class="cls-12" x1="838.39" y1="869.98" x2="919.19" y2="869.98"/><rect class="cls-13" x="725.79" y="777.48" width="17.32" height="104.21"/><rect class="cls-14" x="82.76" y="792.46" width="84.49" height="16.38"/><line class="cls-15" x1="82.76" y1="808.84" x2="167.25" y2="808.84"/><line class="cls-15" x1="82.76" y1="792.46" x2="167.25" y2="792.46"/><line class="cls-15" x1="87.2" y1="792.46" x2="87.2" y2="808.84"/><line class="cls-15" x1="93.35" y1="792.46" x2="93.35" y2="808.84"/><line class="cls-15" x1="99.51" y1="792.46" x2="99.51" y2="808.84"/><line class="cls-15" x1="105.66" y1="792.46" x2="105.66" y2="808.84"/><line class="cls-15" x1="111.82" y1="792.46" x2="111.82" y2="808.84"/><line class="cls-15" x1="117.97" y1="792.46" x2="117.97" y2="808.84"/><line class="cls-15" x1="124.13" y1="792.46" x2="124.13" y2="808.84"/><line class="cls-15" x1="130.28" y1="792.46" x2="130.28" y2="808.84"/><line class="cls-15" x1="136.44" y1="792.46" x2="136.44" y2="808.84"/><line class="cls-15" x1="142.59" y1="792.46" x2="142.59" y2="808.84"/><line class="cls-15" x1="148.74" y1="792.46" x2="148.74" y2="808.84"/><line class="cls-15" x1="154.9" y1="792.46" x2="154.9" y2="808.84"/><line class="cls-15" x1="161.05" y1="792.46" x2="161.05" y2="808.84"/><rect class="cls-14" x="213.17" y="790.52" width="84.49" height="16.38"/><line class="cls-15" x1="213.17" y1="806.9" x2="297.66" y2="806.9"/><line class="cls-15" x1="213.17" y1="790.52" x2="297.66" y2="790.52"/><line class="cls-15" x1="217.61" y1="790.52" x2="217.61" y2="806.9"/><line class="cls-15" x1="223.77" y1="790.52" x2="223.77" y2="806.9"/><line class="cls-15" x1="229.92" y1="790.52" x2="229.92" y2="806.9"/><line class="cls-15" x1="236.08" y1="790.52" x2="236.08" y2="806.9"/><line class="cls-15" x1="242.23" y1="790.52" x2="242.23" y2="806.9"/><line class="cls-15" x1="248.39" y1="790.52" x2="248.39" y2="806.9"/><line class="cls-15" x1="254.54" y1="790.52" x2="254.54" y2="806.9"/><line class="cls-15" x1="260.69" y1="790.52" x2="260.69" y2="806.9"/><line class="cls-15" x1="266.85" y1="790.52" x2="266.85" y2="806.9"/><line class="cls-15" x1="273" y1="790.52" x2="273" y2="806.9"/><line class="cls-15" x1="279.16" y1="790.52" x2="279.16" y2="806.9"/><line class="cls-15" x1="285.31" y1="790.52" x2="285.31" y2="806.9"/><line class="cls-15" x1="291.47" y1="790.52" x2="291.47" y2="806.9"/><rect class="cls-14" x="224.78" y="774.14" width="84.49" height="16.38"/><line class="cls-15" x1="224.78" y1="790.52" x2="309.27" y2="790.52"/><line class="cls-15" x1="224.78" y1="774.14" x2="309.27" y2="774.14"/><line class="cls-15" x1="229.22" y1="774.14" x2="229.22" y2="790.52"/><line class="cls-15" x1="235.38" y1="774.14" x2="235.38" y2="790.52"/><line class="cls-15" x1="241.53" y1="774.14" x2="241.53" y2="790.52"/><line class="cls-15" x1="247.68" y1="774.14" x2="247.68" y2="790.52"/><line class="cls-15" x1="253.84" y1="774.14" x2="253.84" y2="790.52"/><line class="cls-15" x1="259.99" y1="774.14" x2="259.99" y2="790.52"/><line class="cls-15" x1="266.15" y1="774.14" x2="266.15" y2="790.52"/><line class="cls-15" x1="272.3" y1="774.14" x2="272.3" y2="790.52"/><line class="cls-15" x1="278.46" y1="774.14" x2="278.46" y2="790.52"/><line class="cls-15" x1="284.61" y1="774.14" x2="284.61" y2="790.52"/><line class="cls-15" x1="290.77" y1="774.14" x2="290.77" y2="790.52"/><line class="cls-15" x1="296.92" y1="774.14" x2="296.92" y2="790.52"/><line class="cls-15" x1="303.07" y1="774.14" x2="303.07" y2="790.52"/><rect class="cls-14" x="85.95" y="808.84" width="84.49" height="16.38"/><line class="cls-15" x1="85.95" y1="825.22" x2="170.44" y2="825.22"/><line class="cls-15" x1="85.95" y1="808.84" x2="170.44" y2="808.84"/><line class="cls-15" x1="90.39" y1="808.84" x2="90.39" y2="825.22"/><line class="cls-15" x1="96.55" y1="808.84" x2="96.55" y2="825.22"/><line class="cls-15" x1="102.7" y1="808.84" x2="102.7" y2="825.22"/><line class="cls-15" x1="108.85" y1="808.84" x2="108.85" y2="825.22"/><line class="cls-15" x1="115.01" y1="808.84" x2="115.01" y2="825.22"/><line class="cls-15" x1="121.16" y1="808.84" x2="121.16" y2="825.22"/><line class="cls-15" x1="127.32" y1="808.84" x2="127.32" y2="825.22"/><line class="cls-15" x1="133.47" y1="808.84" x2="133.47" y2="825.22"/><line class="cls-15" x1="139.63" y1="808.84" x2="139.63" y2="825.22"/><line class="cls-15" x1="145.78" y1="808.84" x2="145.78" y2="825.22"/><line class="cls-15" x1="151.94" y1="808.84" x2="151.94" y2="825.22"/><line class="cls-15" x1="158.09" y1="808.84" x2="158.09" y2="825.22"/><line class="cls-15" x1="164.24" y1="808.84" x2="164.24" y2="825.22"/><rect class="cls-14" x="85.95" y="841.6" width="84.49" height="16.38"/><line class="cls-15" x1="85.95" y1="857.98" x2="170.44" y2="857.98"/><line class="cls-15" x1="85.95" y1="841.6" x2="170.44" y2="841.6"/><line class="cls-15" x1="90.39" y1="841.6" x2="90.39" y2="857.98"/><line class="cls-15" x1="96.55" y1="841.6" x2="96.55" y2="857.98"/><line class="cls-15" x1="102.7" y1="841.6" x2="102.7" y2="857.98"/><line class="cls-15" x1="108.85" y1="841.6" x2="108.85" y2="857.98"/><line class="cls-15" x1="115.01" y1="841.6" x2="115.01" y2="857.98"/><line class="cls-15" x1="121.16" y1="841.6" x2="121.16" y2="857.98"/><line class="cls-15" x1="127.32" y1="841.6" x2="127.32" y2="857.98"/><line class="cls-15" x1="133.47" y1="841.6" x2="133.47" y2="857.98"/><line class="cls-15" x1="139.63" y1="841.6" x2="139.63" y2="857.98"/><line class="cls-15" x1="145.78" y1="841.6" x2="145.78" y2="857.98"/><line class="cls-15" x1="151.94" y1="841.6" x2="151.94" y2="857.98"/><line class="cls-15" x1="158.09" y1="841.6" x2="158.09" y2="857.98"/><line class="cls-15" x1="164.24" y1="841.6" x2="164.24" y2="857.98"/><rect class="cls-14" x="76.56" y="825.22" width="84.49" height="16.38"/><line class="cls-15" x1="76.56" y1="841.6" x2="161.05" y2="841.6"/><line class="cls-15" x1="76.56" y1="825.22" x2="161.05" y2="825.22"/><line class="cls-15" x1="81.01" y1="825.22" x2="81.01" y2="841.6"/><line class="cls-15" x1="87.16" y1="825.22" x2="87.16" y2="841.6"/><line class="cls-15" x1="93.32" y1="825.22" x2="93.32" y2="841.6"/><line class="cls-15" x1="99.47" y1="825.22" x2="99.47" y2="841.6"/><line class="cls-15" x1="105.63" y1="825.22" x2="105.63" y2="841.6"/><line class="cls-15" x1="111.78" y1="825.22" x2="111.78" y2="841.6"/><line class="cls-15" x1="117.93" y1="825.22" x2="117.93" y2="841.6"/><line class="cls-15" x1="124.09" y1="825.22" x2="124.09" y2="841.6"/><line class="cls-15" x1="130.24" y1="825.22" x2="130.24" y2="841.6"/><line class="cls-15" x1="136.4" y1="825.22" x2="136.4" y2="841.6"/><line class="cls-15" x1="142.55" y1="825.22" x2="142.55" y2="841.6"/><line class="cls-15" x1="148.71" y1="825.22" x2="148.71" y2="841.6"/><line class="cls-15" x1="154.86" y1="825.22" x2="154.86" y2="841.6"/><rect class="cls-9" x="627.93" y="752.48" width="225.21" height="24.54"/><rect class="cls-10" x="853.13" y="752.48" width="81.02" height="24.54"/><line class="cls-11" x1="627.93" y1="765.21" x2="853.13" y2="765.21"/><line class="cls-12" x1="853.13" y1="765.21" x2="933.93" y2="765.21"/><rect class="cls-16" x="627.93" y="776.52" width="225.21" height="1"/><rect class="cls-16" x="627.93" y="751.98" width="225.21" height="1"/><rect class="cls-13" x="744.48" y="751.98" width="17.32" height="25.54"/><rect class="cls-17" x="853.13" y="776.52" width="80.8" height="1"/><rect class="cls-17" x="853.13" y="751.98" width="80.8" height="1"/><rect class="cls-9" x="184.7" y="807.4" width="225.21" height="24.54"/><rect class="cls-10" x="409.91" y="807.4" width="81.02" height="24.54"/><line class="cls-11" x1="184.7" y1="820.13" x2="409.91" y2="820.13"/><line class="cls-12" x1="409.91" y1="820.13" x2="490.71" y2="820.13"/><rect class="cls-16" x="184.7" y="831.44" width="225.21" height="1"/><rect class="cls-16" x="184.7" y="806.9" width="225.21" height="1"/><rect class="cls-13" x="301.26" y="806.9" width="17.32" height="25.54"/><rect class="cls-17" x="409.91" y="831.44" width="80.8" height="1"/><rect class="cls-17" x="409.91" y="806.9" width="80.8" height="1"/><rect class="cls-9" x="193.83" y="832.94" width="225.21" height="24.54"/><rect class="cls-10" x="419.04" y="832.94" width="81.02" height="24.54"/><line class="cls-11" x1="193.83" y1="845.67" x2="419.04" y2="845.67"/><line class="cls-12" x1="419.04" y1="845.67" x2="499.84" y2="845.67"/><rect class="cls-16" x="193.83" y="856.98" width="225.21" height="1"/><rect class="cls-16" x="193.83" y="832.44" width="225.21" height="1"/><rect class="cls-13" x="310.39" y="832.44" width="17.32" height="25.54"/><rect class="cls-17" x="419.04" y="856.98" width="80.8" height="1"/><rect class="cls-17" x="419.04" y="832.44" width="80.8" height="1"/></g><g id="책상"><rect class="cls-18" y="857.98" width="1000" height="47.41"/><rect class="cls-18" y="905.4" width="67.02" height="94.83"/><rect class="cls-18" x="804.88" y="905.39" width="67.02" height="94.83"/><polygon class="cls-19" points="1000 857.98 1000 905.39 871.9 905.39 871.9 1000.22 838.39 1000.22 838.39 857.98 1000 857.98"/><rect class="cls-20" x="67.02" y="905.39" width="737.86" height="94.83"/><rect class="cls-21" x="871.9" y="905.39" width="128.1" height="94.83"/><rect class="cls-19" x="33.51" y="905.39" width="33.51" height="94.83"/></g></svg>