<svg xmlns="http://www.w3.org/2000/svg" viewBox="0 0 1000 1000"><defs><style>.cls-1{fill:#ffe3ec;}.cls-2{fill:#ffcbdc;}.cls-3{fill:#ffb5cd;}.cls-4{fill:#fff;}.cls-5{fill:#2d2d37;}.cls-11,.cls-15,.cls-6,.cls-8{fill:none;}.cls-6{stroke:#ffcbdc;}.cls-10,.cls-11,.cls-15,.cls-6,.cls-8{stroke-linecap:round;stroke-linejoin:round;stroke-width:5px;}.cls-7{fill:#bfab9b;}.cls-8{stroke:#dadada;}.cls-9{fill:#ffe4ee;}.cls-10{fill:#ffde3e;stroke:#fcd329;}.cls-11{stroke:#c8ccce;}.cls-11,.cls-15{opacity:0.5;}.cls-12{fill:#e54d26;}.cls-13{fill:#f16528;}.cls-14{opacity:0.08;}.cls-15{stroke:#ffea55;}</style></defs><g id="얼굴"><path class="cls-1" d="M724.89,355.05s1,36-33,42v117h-158V464.44s-37-14.39-47-57.39c0,0-.39,0-1.08.05-6,.16-34.92-.68-34.92-32.05,0-35,17.26-38.46,17.26-38.46s-8.26-136.85,119.74-135.2S726.89,327.05,724.89,355.05Z"/></g><g id="표정"><path class="cls-2" d="M533.9,464.42s76,22.61,123-18.39l-28,68h-95Z"/><path class="cls-3" d="M533.9,464.42s-37-14.39-47-57.39c0,0-.39,0-1.08.05l1.57-1.05s27.51-12,43,15.08C544.48,445.71,533.9,464.42,533.9,464.42Z"/><path class="cls-3" d="M673.33,412.08s-26.82-20.18-49.06.95c-27.37,26-4.06,52.52-4.06,52.52s18.31-3.63,36.69-19.52A76.82,76.82,0,0,0,673.33,412.08Z"/><path class="cls-3" d="M620.21,465.55s18.31-3.63,36.69-19.52a76.82,76.82,0,0,0,16.43-33.95"/><ellipse class="cls-4" cx="613.09" cy="385.03" rx="21.5" ry="26"/><ellipse class="cls-5" cx="609.45" cy="385.03" rx="15.72" ry="20.43"/><ellipse class="cls-4" cx="533.9" cy="385.03" rx="21.5" ry="26"/><ellipse class="cls-5" cx="530.26" cy="385.03" rx="15.72" ry="20.43"/><path class="cls-6" d="M699.68,347.26v28.49s-.68-21.42,11.86-23"/><path class="cls-6" d="M474.63,352.05s4.63,36.24,9.72,47.41"/></g><g id="머리카락"><path class="cls-5" d="M724.9,355c0-39-43-41-42,2,0,0-20-7-41-7s-43-17-43-17,2,9,4,12c0,0-43,18-72-14,0,0-2,4.59,0,13.8,0,0-97,30.2-87-91.8s145-115,162-108c0,0,96-22,135,64,0,0,21,41,12,80S724.9,355,724.9,355Z"/></g><g id="와이셔츠_뒷면" data-name="와이셔츠 뒷면"><polyline class="cls-4" points="510.94 529.94 712.52 529.93 692.35 640.24 606.64 650.58 544.34 623.22 520.33 583.41 510.94 529.94"/></g><g id="넥타이"><polygon class="cls-5" points="588 554.89 595.4 576.57 574.73 634.01 646.77 634.01 628.98 576.57 635.78 554.74 610.96 507.28 588 554.89"/></g><g id="조끼"><path class="cls-7" d="M396,1000H827.45c-1.82-75.67-25.83-443.89-25.83-443.89-26.14-11.81-86.1-32.71-86.1-32.71S688.1,634,611.74,634h0c-38.18,0-64.13-27.66-80.53-55.31a230.72,230.72,0,0,1-23.26-55.31s-24.29-20-51.51-40.58c-7.06,43-23,101-34.49,140.29l-13.23,43.55-7.42,195.05c-3.21,63.18-4.73,115.82-5.27,138.29Z"/></g><g id="와이셔츠_깃" data-name="와이셔츠 깃"><path class="cls-4" d="M611.73,515.63l12.35,30.89a13.11,13.11,0,0,0,14,8.1l65.5-14c6-1.41,15.61-8.21,11.89-17.27L691.9,482.81a336.48,336.48,0,0,1-80.17,9.42Z"/><path class="cls-4" d="M611.73,515.63l-12.35,30.89a13.11,13.11,0,0,1-14,8.1l-65.5-14c-6-1.41-15.61-8.21-11.89-17.27l23.62-40.59a336.48,336.48,0,0,0,80.17,9.42Z"/><line class="cls-8" x1="639.39" y1="554" x2="700.08" y2="541.5"/><line class="cls-8" x1="582.43" y1="554" x2="522.38" y2="541.22"/></g><g id="손"><path class="cls-9" d="M222.65,167.81,128.37,272.5,175,335.29,289.1,255.05,279,239.93s6.5-28.55-14.93-56.76C246.8,160.51,222.65,167.81,222.65,167.81Z"/><path class="cls-10" d="M169.51,126h59.87a0,0,0,0,1,0,0V294.26a16.85,16.85,0,0,1-16.85,16.85H186.36a16.85,16.85,0,0,1-16.85-16.85V126a0,0,0,0,1,0,0Z" transform="translate(262.44 -70.54) rotate(54.67)"/><path class="cls-11" d="M628.45-56.88,643-88.44A6.91,6.91,0,0,0,636-98.2L601.45-95l-36.1,3.49a38.81,38.81,0,0,0-18.71,7L236.38,135.38l53.79,75.89L600.43-8.62A38.92,38.92,0,0,0,613.2-24Z"/><line class="cls-11" x1="590.81" y1="-58.82" x2="282.58" y2="159.64"/><rect class="cls-10" x="172.03" y="148.44" width="177.77" height="53.11" rx="7.2" transform="translate(252.82 -139.06) rotate(54.67)"/><path class="cls-9" d="M560.67,851.2h0a18.4,18.4,0,0,1,18.4,18.4v158.92a2.5,2.5,0,0,1-2.5,2.5H544.76a2.5,2.5,0,0,1-2.5-2.5V869.6a18.4,18.4,0,0,1,18.4-18.4Z" transform="translate(-233.36 1695.8) rotate(-102.76)"/><path class="cls-9" d="M544.85,816.27h0a18.4,18.4,0,0,1,18.4,18.4v164.1a2.5,2.5,0,0,1-2.5,2.5H528.94a2.5,2.5,0,0,1-2.5-2.5V834.67a18.4,18.4,0,0,1,18.4-18.4Z" transform="translate(-221.12 1640.88) rotate(-102.76)"/><path class="cls-9" d="M647.48,820.07,630.55,847.2a2.47,2.47,0,0,1-3.44.78l-90.57-57.76a18.72,18.72,0,0,1-5.8-25.64h0a18.27,18.27,0,0,1,25.38-5.75l90.57,57.77A2.53,2.53,0,0,1,647.48,820.07Z"/><path class="cls-9" d="M535.88,782.51h0a18.4,18.4,0,0,1,18.4,18.4V968.34a2.5,2.5,0,0,1-2.5,2.5H520a2.5,2.5,0,0,1-2.5-2.5V800.91a18.4,18.4,0,0,1,18.4-18.4Z" transform="translate(-200.79 1592.95) rotate(-102.76)"/><path class="cls-9" d="M533.06,749.81h0a18.4,18.4,0,0,1,18.4,18.4V934.08a2.5,2.5,0,0,1-2.5,2.5H517.16a2.5,2.5,0,0,1-2.5-2.5V768.21A18.4,18.4,0,0,1,533.06,749.81Z" transform="translate(-171.56 1549.33) rotate(-102.76)"/><polygon class="cls-9" points="544.84 821.65 602.54 950.5 666.12 936.1 701.24 928.14 670.42 792.05 635.3 800.01 544.84 821.65"/><path class="cls-9" d="M610,793.2a74.05,74.05,0,0,0,36.15,4.35c24.65-3.43.54,19.05.54,19.05L617,822.94l-23.15-21.17Z"/><path class="cls-9" d="M568.93,810.9s2.08,4.6-3.49,5.82,20.74,1.89,20.74,1.89l-4.94-13.52Z"/><path class="cls-9" d="M119.22,192.76h0a18.4,18.4,0,0,1,18.4,18.4v41.39a14.78,14.78,0,0,1-14.78,14.78h0a22,22,0,0,1-22-22V211.16A18.4,18.4,0,0,1,119.22,192.76Z" transform="translate(-114.89 119.02) rotate(-37.23)"/><path class="cls-9" d="M144.86,166.62h0a18.4,18.4,0,0,1,18.4,18.4v41.6a18.52,18.52,0,0,1-18.52,18.52h0a18.29,18.29,0,0,1-18.29-18.29V185a18.4,18.4,0,0,1,18.4-18.4Z" transform="translate(-95.04 129.61) rotate(-37.23)"/><path class="cls-9" d="M171.89,146.3h0a18.4,18.4,0,0,1,18.4,18.4v44.65a17.22,17.22,0,0,1-17.22,17.22h0A19.59,19.59,0,0,1,153.49,207V164.7a18.4,18.4,0,0,1,18.4-18.4Z" transform="translate(-77.77 142) rotate(-37.23)"/><path class="cls-9" d="M199.93,131.19h0a18.4,18.4,0,0,1,18.4,18.4v41a14,14,0,0,1-14,14h-12.2a10.56,10.56,0,0,1-10.56-10.56V149.59a18.4,18.4,0,0,1,18.4-18.4Z" transform="matrix(0.8, -0.61, 0.61, 0.8, -60.85, 155.2)"/><path class="cls-6" d="M122.55,259s8.77,8.66,20.62-.35,5.27-20.59,5.27-20.59l-25.25-33.22"/><path class="cls-6" d="M148.42,238.06s8.76,8.66,20.62-.35,5.27-20.59,5.27-20.59l-27-35.57"/><path class="cls-6" d="M175.55,218.75s8.76,8.66,20.61-.35,5.27-20.59,5.27-20.59l-25.25-33.22"/><path class="cls-6" d="M203.26,199s8.76,8.66,20.62-.35S229.14,178,229.14,178L203.89,144.8"/><line class="cls-8" x1="240.13" y1="344.55" x2="305.61" y2="298.96"/><line class="cls-8" x1="185.85" y1="350.71" x2="399.51" y2="650.58"/><line class="cls-8" x1="299.37" y1="269.71" x2="449.67" y2="477.73"/><path class="cls-9" d="M261.92,238.09,227.5,251,217,228.63l-14.8-1.7a15.5,15.5,0,0,1,3.54-30.8l26.27,3a15.48,15.48,0,0,1,13.27,11.67l9.55,13.5Z"/><path class="cls-6" d="M225.2,246.08,217,228.63l-14.8-1.7a15.5,15.5,0,0,1,3.54-30.8l26.27,3c9.57,1.1,14.33,11,18.29,18.49.41.78,2.91,5.7,5.49,10.52"/></g><g id="팔"><path class="cls-4" d="M746.35,675h139.5a0,0,0,0,1,0,0V916.51a69.75,69.75,0,0,1-69.75,69.75h0a69.75,69.75,0,0,1-69.75-69.75V675A0,0,0,0,1,746.35,675Z" transform="translate(186.25 1810.02) rotate(-102.76)"/></g><g id="선"><line class="cls-8" x1="713.19" y1="874.1" x2="695.57" y2="796.29"/><line class="cls-6" x1="550.92" y1="924.45" x2="483.14" y2="939.8"/><line class="cls-6" x1="542.56" y1="892.22" x2="468.91" y2="908.9"/><line class="cls-6" x1="536.22" y1="859.54" x2="461.56" y2="876.44"/><path class="cls-8" d="M827.45,566.56C856.54,585.41,934.36,661.05,963.76,761c0,0,7.29,32.19,5.86,50.2"/><line class="cls-8" x1="842.37" y1="752.93" x2="868.66" y2="747.32"/><path class="cls-8" d="M969.62,810.26a69.77,69.77,0,0,1-54.35,69.41l-214,48.47"/></g><g id="책상_위_사물" data-name="책상 위 사물"><polygon class="cls-12" points="330.51 680.66 747.54 599.19 790.83 1028.93 630.87 1110.04 451.38 1097.87 330.51 680.66"/><polygon class="cls-13" points="545.31 674.61 714.02 641.65 754.43 1009.64 623.64 1075.53 545.31 674.61"/><polygon class="cls-4" points="714.92 969.07 614.86 1022.61 613.09 1023.56 500.79 1014.47 478.35 934.29 529.44 923.78 539.12 961.23 601.67 968.06 603.44 967.13 657.44 938.84 648.85 871.59 468.5 908.72 427.27 754.41 683.49 701.43 690.23 753.3 500.83 789.75 513.12 844.66 696.35 808.57 714.92 969.07"/><polygon class="cls-14" points="586.31 884.48 468.51 908.73 427.27 754.41 555.71 727.86 565.38 777.33 500.84 789.75 513.12 844.67 576.11 832.26 586.31 884.48"/><polygon class="cls-14" points="613.45 1023.37 613.09 1023.56 500.79 1014.48 478.35 934.3 529.44 923.78 539.12 961.24 601.67 968.07 602.56 967.6 613.45 1023.37"/><ellipse class="cls-15" cx="247.56" cy="668.42" rx="30.55" ry="57.31"/><ellipse class="cls-15" cx="294.33" cy="741.28" rx="19.4" ry="36.38"/></g></svg>