<svg xmlns="http://www.w3.org/2000/svg" viewBox="0 0 1000 1000"><defs><style>.cls-1{fill:#ffe3ec;}.cls-2{fill:#ffcbdc;}.cls-3{fill:#ffb5cd;}.cls-4{fill:#fff;}.cls-5{fill:#2d2d37;}.cls-13,.cls-6,.cls-8{fill:none;}.cls-6{stroke:#ffcbdc;}.cls-13,.cls-15,.cls-6,.cls-8{stroke-linecap:round;stroke-linejoin:round;stroke-width:5px;}.cls-7{fill:#bfab9b;}.cls-13,.cls-8{stroke:#dadada;}.cls-9{fill:#ffe4ee;}.cls-10{fill:#c8ccce;}.cls-11{fill:#d5d8db;}.cls-12{fill:#e8ebef;}.cls-13{opacity:0.4;}.cls-14{fill:#dadada;}.cls-15{fill:#db3f37;stroke:#c6322e;}.cls-16{fill:#d8452e;}.cls-17{fill:#c6c6c6;}.cls-18{fill:#897c74;}.cls-19{fill:#706661;}.cls-20{fill:#7f736c;}.cls-21{fill:#665e5a;}</style></defs><g id="얼굴"><path class="cls-1" d="M780,364.3s1,36-33,42v117H589V473.69s-37-14.39-47-57.39c0,0-.39,0-1.08.05-6,.16-34.92-.68-34.92-32.05,0-35,17.26-38.46,17.26-38.46S515,209,643,210.64,782,336.3,780,364.3Z"/></g><g id="표정"><path class="cls-2" d="M589,473.69s76,22.61,123-18.39l-28,68H589Z"/><path class="cls-3" d="M728.44,421.35s-26.82-20.18-49.06.95c-27.36,26-4.06,52.52-4.06,52.52s18.31-3.64,36.7-19.52A76.91,76.91,0,0,0,728.44,421.35Z"/><path class="cls-3" d="M589,473.69s-37-14.39-47-57.39c0,0-.39,0-1.08.05l1.57-1.05s27.51-12,43,15.08C599.6,455,589,473.69,589,473.69Z"/><path class="cls-3" d="M675.32,474.82s18.31-3.64,36.7-19.52a76.91,76.91,0,0,0,16.42-33.95"/><ellipse class="cls-4" cx="668.21" cy="394.3" rx="21.5" ry="26"/><ellipse class="cls-5" cx="664.56" cy="394.3" rx="15.72" ry="20.43"/><ellipse class="cls-4" cx="589.02" cy="394.3" rx="21.5" ry="26"/><ellipse class="cls-5" cx="585.37" cy="394.3" rx="15.72" ry="20.43"/><path class="cls-6" d="M754.8,356.53V385s-.69-21.43,11.85-23"/><path class="cls-6" d="M529.74,361.31s4.63,36.25,9.72,47.42"/></g><g id="머리카락"><path class="cls-5" d="M780,364.3c0-39-43-41-42,2,0,0-20-7-41-7s-43-17-43-17,2,9,4,12c0,0-43,18-72-14,0,0-2,4.59,0,13.8,0,0-97,30.2-87-91.8s145-115,162-108c0,0,96-22,135,64,0,0,21,41,12,80S780,364.3,780,364.3Z"/></g><g id="와이셔츠_뒷면" data-name="와이셔츠 뒷면"><polyline class="cls-4" points="566.05 539.2 767.63 539.2 747.46 649.51 661.75 659.84 599.45 632.49 575.44 592.68 566.05 539.2"/></g><g id="넥타이"><polygon class="cls-5" points="643.12 564.15 650.52 585.84 629.84 643.28 701.88 643.28 684.09 585.84 690.89 564.01 666.07 516.54 643.12 564.15"/></g><g id="조끼"><path class="cls-7" d="M883,988.54c-1.82-75.67-25.83-423.23-25.83-423.23-26.14-11.81-86.1-32.71-86.1-32.71S743.64,643.22,667.27,643.22h0c-76.36,0-103.79-110.62-103.79-110.62s-59.94,20.9-86.08,32.71c0,0-24,347.56-25.84,423.23Z"/></g><g id="와이셔츠_깃" data-name="와이셔츠 깃"><path class="cls-4" d="M666.84,524.9l12.36,30.89a13.09,13.09,0,0,0,14,8.1l65.5-13.95c6-1.41,15.62-8.21,11.89-17.27L747,492.08a336.48,336.48,0,0,1-80.17,9.42Z"/><path class="cls-4" d="M666.84,524.9l-12.35,30.89a13.1,13.1,0,0,1-14,8.1L575,549.94c-6-1.41-15.62-8.21-11.9-17.27l23.62-40.59a336.48,336.48,0,0,0,80.17,9.42Z"/><line class="cls-8" x1="694.5" y1="563.27" x2="755.19" y2="550.77"/><line class="cls-8" x1="637.54" y1="563.27" x2="577.49" y2="550.48"/></g><g id="팔"><path class="cls-8" d="M352.76,840c23.46-159.39,74.49-229.91,103.46-258.11"/><path class="cls-4" d="M967.08,730.24a1.55,1.55,0,0,1,0-.21A1.76,1.76,0,0,1,967.08,730.24Z"/></g><g id="선"><line class="cls-8" x1="755.19" y1="497.49" x2="767.63" y2="524.85"/><path class="cls-9" d="M577,572.22h0a18.4,18.4,0,0,1,18.4,18.4V697.5a2.5,2.5,0,0,1-2.5,2.5H561.09a2.5,2.5,0,0,1-2.5-2.5V590.62A18.4,18.4,0,0,1,577,572.22Z" transform="translate(-281.8 631.66) rotate(-47.49)"/><path class="cls-9" d="M596.48,542.53h0a18.4,18.4,0,0,1,18.4,18.4V667.81a2.5,2.5,0,0,1-2.5,2.5H580.57a2.5,2.5,0,0,1-2.5-2.5V560.94a18.4,18.4,0,0,1,18.4-18.4Z" transform="translate(-253.6 636.39) rotate(-47.49)"/><path class="cls-9" d="M706.74,620.9l-31.93,1.55a2.48,2.48,0,0,1-2.61-2.38l-4.13-107.35a18.73,18.73,0,0,1,17.77-19.38h0A18.27,18.27,0,0,1,705,510.93l4.13,107.34A2.54,2.54,0,0,1,706.74,620.9Z"/><path class="cls-9" d="M619,518h0a18.4,18.4,0,0,1,18.4,18.4V643.28a2.5,2.5,0,0,1-2.5,2.5H603.06a2.5,2.5,0,0,1-2.5-2.5V536.4A18.4,18.4,0,0,1,619,518Z" transform="translate(-228.22 645.01) rotate(-47.49)"/><path class="cls-9" d="M619.6,439.93h0a18.4,18.4,0,0,1,18.4,18.4v173.9a2.5,2.5,0,0,1-2.5,2.5H603.7a2.5,2.5,0,0,1-2.5-2.5V458.34a18.4,18.4,0,0,1,18.4-18.4Z" transform="translate(-195.17 631.03) rotate(-47.49)"/><polygon class="cls-9" points="646.97 537.45 573.96 658.27 622.01 702.32 648.56 726.66 742.85 623.79 716.29 599.46 646.97 537.45"/><path class="cls-9" d="M707.48,574.79a74.1,74.1,0,0,0,17,32.18c16.86,18.31-15.35,11.3-15.35,11.3L687,597.45l4.22-31.08Z"/><path class="cls-9" d="M669.53,551.12s-2.6,4.33-6.77.45S673,569.69,673,569.69l8.31-11.76Z"/><path class="cls-4" d="M897.73,922c-42.81,5.16-40.92-357.88-40.92-357.88s89,56.33,110.31,164.66a1.55,1.55,0,0,0,0,.21C968.62,735.86,1004.48,909.19,897.73,922Z"/><path class="cls-4" d="M740.38,602.81h139.5a0,0,0,0,1,0,0V887.69a69.75,69.75,0,0,1-69.75,69.75h0a69.75,69.75,0,0,1-69.75-69.75V602.81A0,0,0,0,1,740.38,602.81Z" transform="translate(-312.36 850.23) rotate(-47.49)"/><path class="cls-4" d="M966.75,729.09a1.55,1.55,0,0,1,0-.21A1.76,1.76,0,0,1,966.75,729.09Z"/><line class="cls-6" x1="581.22" y1="615.01" x2="556.81" y2="592.64"/><line class="cls-6" x1="603.7" y1="590.47" x2="579.3" y2="568.11"/><line class="cls-6" x1="626.19" y1="565.94" x2="601.79" y2="543.57"/><line class="cls-8" x1="699.78" y1="705.69" x2="753.69" y2="646.87"/><path class="cls-8" d="M876.65,579.29c27.51,23.4,75.55,73.74,90.47,149.53a1.55,1.55,0,0,0,0,.21c.81,3.8,12.29,59.24,3.87,109.85"/><line class="cls-8" x1="867.25" y1="737.86" x2="895.18" y2="763.47"/></g><g id="책상_위_사물" data-name="책상 위 사물"><rect class="cls-10" x="86.12" y="843.03" width="682.26" height="14.73"/><rect class="cls-11" x="86.12" y="843.03" width="463.4" height="14.73"/><polygon class="cls-10" points="561.83 843.03 98.6 843.03 51.37 541.28 514.6 541.28 561.83 843.03"/><polygon class="cls-12" points="549.35 843.03 86.12 843.03 38.89 541.28 502.12 541.28 549.35 843.03"/><path class="cls-13" d="M216.79,274.79H417c9.25,0,16.74,6.29,16.74,14v90.33c0,7.76-7.49,14-16.74,14H146.56c-9.25,0-16.75-6.29-16.75-14V329.78"/><rect class="cls-14" x="258.06" y="299.84" width="141.39" height="17.63"/><rect class="cls-14" x="258.06" y="326.12" width="118.12" height="7.32"/><rect class="cls-14" x="258.06" y="338.28" width="118.12" height="8.81"/><rect class="cls-14" x="258.06" y="356.4" width="118.12" height="9.7"/><path class="cls-13" d="M461.81,410H262.43a16.74,16.74,0,0,0-16.75,16.74V468a16.75,16.75,0,0,0,16.75,16.75h160l-4.48,35,32.42-35h11.47A16.75,16.75,0,0,0,478.56,468V426.73A16.74,16.74,0,0,0,461.81,410Z"/><rect class="cls-14" x="274.01" y="423.76" width="164.37" height="13.78" transform="translate(712.39 861.3) rotate(-180)"/><rect class="cls-14" x="274.01" y="450.05" width="137.31" height="7.32" transform="translate(685.34 907.41) rotate(-180)"/><rect class="cls-14" x="274.01" y="462.2" width="137.31" height="8.81" transform="translate(685.34 933.22) rotate(-180)"/><path class="cls-15" d="M496.66,279.32c-11.87,1.77-41.68,3.69-42.75,20.51-.79,12.29,17.57,13.81,26.07,14.37,50,3.28,100.14,4.92,150.26,5.52,29.81.36,59.62,1.56,89.44,1.38,27.67-.17,62-3.5,87.83-14.78l-8.37-13.16-78.41-7.75L613,274.68H552.51Z"/><path class="cls-15" d="M497.07,265l-1-24.06c-.5-41.32,34.66-72.79,71.69-90.48a55.94,55.94,0,0,1,9-3.36l56.06-15.72a163.65,163.65,0,0,1,95.38,14.21l35.72,20a27,27,0,0,1,3.45,2.27c36.76,28.44,50.56,56.67,46.55,94.46l-3.28,30.91"/><path class="cls-15" d="M496.66,279.32s183.2-6.23,310.85,27l3.11-13.16-1.54-.68a15.35,15.35,0,0,0-2.39-.83C679.12,258.78,497.07,265,497.07,265S495.14,272.44,496.66,279.32Z"/><path class="cls-15" d="M694.4,133.71s46.39,81,25.11,141"/><path class="cls-15" d="M602,140s-53.86,55-43.53,124.51"/><ellipse class="cls-4" cx="642.85" cy="216.06" rx="42.4" ry="38.75"/><polygon class="cls-16" points="612.99 224.25 621.92 232.19 633.01 206.41 642.28 219.35 653.91 208.52 659.82 236.03 670.13 230.24 657.43 196.25 643.57 207.48 632.64 193.74 612.99 224.25"/><path class="cls-17" d="M226.18,325a18,18,0,0,1-22.57,4.83l-21.13-11.19a27.25,27.25,0,0,0-15.47-3l-36.52,3.64a27.32,27.32,0,0,0-14.57,6L97.43,340.46A18,18,0,0,1,69.1,320.64l16.14-46.09A18.71,18.71,0,0,1,101,262.11l83.52-8.34a18.73,18.73,0,0,1,18,9.07l24.93,42A18,18,0,0,1,226.18,325Z"/><rect class="cls-17" x="91" y="256.48" width="33.6" height="12.21" rx="4.5" transform="translate(-25.56 12.01) rotate(-5.7)"/><rect class="cls-17" x="159.97" y="249.59" width="33.6" height="12.21" rx="4.5" transform="translate(-24.54 18.84) rotate(-5.7)"/><rect class="cls-4" x="97.33" y="286.23" width="26.36" height="7.09" transform="translate(387.88 151.01) rotate(84.3)"/><rect class="cls-4" x="97.33" y="286.23" width="26.36" height="7.09" transform="translate(249.28 567.14) rotate(174.3)"/><circle class="cls-4" cx="171.47" cy="283.69" r="3.81"/><circle class="cls-4" cx="187.51" cy="282.09" r="3.81"/><circle class="cls-4" cx="178.69" cy="274.87" r="3.81"/><circle class="cls-4" cx="180.29" cy="290.91" r="3.81"/><rect class="cls-4" x="152.19" y="307.21" width="12.96" height="2.43" transform="translate(-29.87 17.3) rotate(-5.7)"/><rect class="cls-4" x="130.75" y="309.35" width="12.96" height="2.43" transform="translate(-30.19 15.18) rotate(-5.7)"/></g><g id="책상"><rect class="cls-18" y="857.76" width="1000" height="47.41"/><rect class="cls-18" y="905.17" width="67.02" height="94.83"/><rect class="cls-18" x="804.88" y="905.17" width="67.02" height="94.83"/><polygon class="cls-19" points="1000 857.76 1000 905.17 871.9 905.17 871.9 1000 838.39 1000 838.39 857.76 1000 857.76"/><rect class="cls-20" x="67.02" y="905.17" width="737.86" height="94.83"/><rect class="cls-21" x="871.9" y="905.17" width="128.1" height="94.83"/><rect class="cls-19" x="33.51" y="905.17" width="33.51" height="94.83"/></g></svg>