<svg xmlns="http://www.w3.org/2000/svg" viewBox="0 0 1000 1000"><defs><style>.cls-1{fill:#ffe3ec;}.cls-2{fill:#ffcbdc;}.cls-3{fill:#ffb5cd;}.cls-13,.cls-4{fill:#fff;}.cls-5{fill:#2d2d37;}.cls-11,.cls-6,.cls-8{fill:none;}.cls-6{stroke:#ffcbdc;}.cls-12,.cls-13,.cls-6,.cls-8,.cls-9{stroke-linecap:round;stroke-linejoin:round;stroke-width:5px;}.cls-7{fill:#bfab9b;}.cls-8{stroke:#dadada;}.cls-9{fill:#ff9b50;stroke:#ff9343;}.cls-10{fill:#ffe4ee;}.cls-12{fill:#db3f37;stroke:#c6322e;}.cls-13{stroke:#dfdfdf;}.cls-14{fill:#ffea55;opacity:0.5;}.cls-15{fill:#897c74;}.cls-16{fill:#706661;}.cls-17{fill:#7f736c;}.cls-18{fill:#665e5a;}</style></defs><g id="얼굴"><path class="cls-1" d="M815.49,364.32s1,36-33,42v117h-158V473.71s-37-14.39-47-57.39c0,0-.39,0-1.08.05-6,.16-34.92-.68-34.92-32.05,0-35,17.26-38.46,17.26-38.46S550.49,209,678.49,210.66,817.49,336.32,815.49,364.32Z"/></g><g id="표정"><path class="cls-2" d="M624.49,473.71s76,22.61,123-18.39l-28,68h-95Z"/><path class="cls-3" d="M763.91,421.37s-26.82-20.18-49.06.95c-27.36,26-4.06,52.52-4.06,52.52s18.31-3.64,36.7-19.52A76.87,76.87,0,0,0,763.91,421.37Z"/><path class="cls-3" d="M624.49,473.71s-37-14.39-47-57.39c0,0-.39,0-1.08.05l1.57-1.05s27.51-12,43,15.08C635.07,455,624.49,473.71,624.49,473.71Z"/><path class="cls-3" d="M710.79,474.84s18.31-3.64,36.7-19.52a76.87,76.87,0,0,0,16.42-33.95"/><ellipse class="cls-4" cx="703.68" cy="394.32" rx="21.5" ry="26"/><ellipse class="cls-5" cx="700.03" cy="394.32" rx="15.72" ry="20.43"/><ellipse class="cls-4" cx="624.49" cy="394.32" rx="21.5" ry="26"/><ellipse class="cls-5" cx="620.84" cy="394.32" rx="15.72" ry="20.43"/><path class="cls-6" d="M790.26,356.55V385s-.68-21.42,11.86-23"/><path class="cls-6" d="M565.21,361.34s4.63,36.24,9.72,47.41"/></g><g id="머리카락"><path class="cls-5" d="M815.49,364.32c0-39-43-41-42,2,0,0-20-7-41-7s-43-17-43-17,2,9,4,12c0,0-43,18-72-14,0,0-2,4.59,0,13.8,0,0-97,30.2-87-91.8s145-115,162-108c0,0,96-22,135,64,0,0,21,41,12,80S815.49,364.32,815.49,364.32Z"/></g><g id="와이셔츠_뒷면" data-name="와이셔츠 뒷면"><polyline class="cls-4" points="601.52 539.23 803.1 539.22 782.93 649.53 697.22 659.87 634.92 632.51 610.91 592.7 601.52 539.23"/></g><g id="넥타이"><polygon class="cls-5" points="678.59 564.18 685.99 585.86 665.31 643.3 737.35 643.3 719.56 585.86 726.37 564.03 701.54 516.57 678.59 564.18"/></g><g id="조끼"><path class="cls-7" d="M918.45,988.57c-1.82-75.68-25.83-423.24-25.83-423.24-26.14-11.81-86.1-32.7-86.1-32.7S779.1,643.24,702.74,643.24h0c-76.36,0-103.79-110.61-103.79-110.61s-60,20.89-86.08,32.7c0,0-24,347.56-25.84,423.24Z"/></g><g id="와이셔츠_깃" data-name="와이셔츠 깃"><path class="cls-4" d="M702.31,524.92l12.35,30.89a13.11,13.11,0,0,0,14.05,8.1L794.21,550c6-1.41,15.62-8.21,11.89-17.27L782.48,492.1a336.48,336.48,0,0,1-80.17,9.42Z"/><path class="cls-4" d="M702.31,524.92,690,555.81a13.1,13.1,0,0,1-14.05,8.1L610.42,550c-6-1.41-15.62-8.21-11.9-17.27l23.62-40.59a336.48,336.48,0,0,0,80.17,9.42Z"/><line class="cls-8" x1="729.97" y1="563.29" x2="790.66" y2="550.79"/><line class="cls-8" x1="673.01" y1="563.29" x2="612.96" y2="550.51"/></g><g id="중간소품"><rect class="cls-9" x="717.16" y="569.46" width="26.6" height="157.07" transform="translate(1030.78 -281.14) rotate(66.34)"/></g><g id="팔"><polygon class="cls-4" points="170.81 565.3 186.91 589.95 151.13 594.23 170.81 565.3"/><path class="cls-8" d="M382.33,702.12c31.26-53.67,80.24-102,106.57-128.22"/><path class="cls-8" d="M369.12,727.62a278.2,278.2,0,0,1,13.21-25.5"/><polygon class="cls-10" points="149.65 549.21 188.53 571.43 265.88 474.9 257.75 465.7 248.05 435.68 199.16 477.27 146.59 506.45 149.65 549.21"/><path class="cls-10" d="M206.46,535.65a2.49,2.49,0,0,1-2.91.55l-4.39-2.11-40.69-19.52-.35,1.37c1.77,3.48,2.65,8.46-.39,14.79a19.76,19.76,0,0,1-5.11,6.82h0l-3,11.65L97.17,524a18.41,18.41,0,0,1,8-35h.35a18.18,18.18,0,0,1,7.6,1.81l2.32,1.11L153,510l0,0,.06,0,5.8,2.78,41.71,20Z"/><path class="cls-10" d="M220.86,505.64a2.33,2.33,0,0,1-.22.71l-7.66,16L206.88,535a2.42,2.42,0,0,1-.42.62,2.49,2.49,0,0,1-2.91.55l-4.39-2.11-40.69-19.52-1.7-.82L107.19,490a16.35,16.35,0,0,1-1.7-.93A18.41,18.41,0,0,1,115.17,455h.08a18.31,18.31,0,0,1,7.86,1.82l44.61,21.41,5.56,2.66h0L219.47,503A2.5,2.5,0,0,1,220.86,505.64Z"/><path class="cls-10" d="M265.88,474.9l-30.11,10.76a2.48,2.48,0,0,1-3.18-1.53l-.54-1.56-2.7-7.81h0l-1.53-4.41v0l-.08-.25-13.1-37.87h0l-2.21-6.38-.17-.49L210,418.94h0l-12.56-36.32a18.72,18.72,0,0,1,11.38-23.7,18.26,18.26,0,0,1,23.46,11.25l20.88,60.41,0,.05h0L258.88,447h0l8.53,24.69A2.52,2.52,0,0,1,265.88,474.9Z"/><path class="cls-10" d="M235,476.35l-.44.92h0l-2.54,5.29L221.27,505a2.61,2.61,0,0,1-.41.61,2.49,2.49,0,0,1-2.92.56l-47.69-22.89h0l-3.41-1.64L121.59,460a18.4,18.4,0,0,1,4.63-34.69,17.74,17.74,0,0,1,3.34-.31,18.38,18.38,0,0,1,7.95,1.82l38.58,18.51L227.58,470l.15.07,6.14,2.95A2.5,2.5,0,0,1,235,476.35Z"/><path class="cls-10" d="M158.24,322.82h0a18.4,18.4,0,0,1,18.4,18.4v173.9a2.5,2.5,0,0,1-2.5,2.5H142.33a2.5,2.5,0,0,1-2.5-2.5V341.23a18.4,18.4,0,0,1,18.4-18.4Z" transform="translate(-289.08 381.07) rotate(-64.36)"/><path class="cls-10" d="M158.12,515.94c1.77,3.48,2.65,8.46-.39,14.79a19.76,19.76,0,0,1-5.11,6.82Z"/><path class="cls-10" d="M265.88,474.9l-30.11,10.76a2.48,2.48,0,0,1-3.18-1.53l-.54-1.56L221.27,505a2.61,2.61,0,0,1-.41.61,2.33,2.33,0,0,1-.22.71l-7.66,16L206.88,535a2.42,2.42,0,0,1-.42.62,2.49,2.49,0,0,1-2.91.55l-4.39-2.11-40.69-19.52.44-1.74.67-2.64,7.25-28.52.4-1.56.49-1.92,7.48-29.42.45-1.73.44-1.75,8.37-32.89.24.11,18.73,8.71.24.11.42.2,8.16,3.79,8.61,4,15.85,7.37L258.88,447h0l8.53,24.69A2.52,2.52,0,0,1,265.88,474.9Z"/><path class="cls-10" d="M210,418.93s-1.23,4.89-6.35,2.4,15.08,14.35,15.08,14.35L223.28,422Z"/><path class="cls-6" d="M139.54,540.45a14.78,14.78,0,0,0,13.08-2.89c8.89-8.81,5.5-21.62,5.5-21.62a15.38,15.38,0,0,0-1.35-2.19,16.41,16.41,0,0,0-3.66-3.7l-.06,0,0,0-37.6-18"/><path class="cls-6" d="M153,510s11.74,3.71,18.18-9.72-4.7-20.72-4.7-20.72l-40.28-19.33"/><path class="cls-6" d="M168.34,480.44s11.74,3.7,18.19-9.72S181.82,450,181.82,450l-41.21-19.78"/><path class="cls-6" d="M213.43,437.11s8.16,31.39,21.16,40.16"/><path class="cls-10" d="M213,522.32,206.88,535a2.42,2.42,0,0,1-.42.62,2.49,2.49,0,0,1-2.91.55l-4.39-2.11,1.46-1.25Z"/><polygon class="cls-10" points="188.53 571.43 191.49 584.49 293 549.21 267.42 471.69 188.53 571.43"/><line class="cls-11" x1="278.17" y1="527.96" x2="274.45" y2="524.31"/><line class="cls-8" x1="252.59" y1="847.14" x2="189.09" y2="598.73"/><line class="cls-8" x1="360.88" y1="725.16" x2="307.37" y2="567.26"/><path class="cls-8" d="M366,781.11c0-14.59.07-29.2-1-43.76"/><line class="cls-8" x1="231.74" y1="635.85" x2="307.37" y2="613.97"/><line class="cls-8" x1="422.12" y1="884.7" x2="467.6" y2="839.8"/></g><g id="선"><line class="cls-8" x1="790.66" y1="497.51" x2="803.1" y2="524.87"/><path class="cls-4" d="M900.32,567.09,923,975.81l78.47-40.51c55.23-206.88-101.13-368.21-101.13-368.21"/><path class="cls-8" d="M1013.06,833.55c-4.13-119.42-68.26-212.43-97.92-249.27"/><path class="cls-10" d="M722.48,561.74h0a18.4,18.4,0,0,1,18.4,18.4V687a2.5,2.5,0,0,1-2.5,2.5H706.58a2.5,2.5,0,0,1-2.5-2.5V580.14A18.4,18.4,0,0,1,722.48,561.74Z" transform="translate(-195.45 359.57) rotate(-24.73)"/><path class="cls-10" d="M751.93,541.9h0a18.4,18.4,0,0,1,18.4,18.4V667.19a2.5,2.5,0,0,1-2.5,2.5H736a2.5,2.5,0,0,1-2.5-2.5V560.31a18.4,18.4,0,0,1,18.4-18.4Z" transform="translate(-184.46 370.07) rotate(-24.73)"/><path class="cls-10" d="M782.16,528h0a18.4,18.4,0,0,1,18.4,18.4V653.26a2.5,2.5,0,0,1-2.5,2.5H766.25a2.5,2.5,0,0,1-2.5-2.5V546.39a18.4,18.4,0,0,1,18.4-18.4Z" transform="translate(-175.86 381.44) rotate(-24.73)"/><path class="cls-10" d="M814,517.58h0a18.4,18.4,0,0,1,18.4,18.4V642.86a2.5,2.5,0,0,1-2.5,2.5H798.1a2.5,2.5,0,0,1-2.5-2.5V536a18.4,18.4,0,0,1,18.4-18.4Z" transform="translate(-168.59 393.81) rotate(-24.73)"/><path class="cls-10" d="M825.77,563,711.1,644.89l27.26,59.22,15.07,32.71,126.35-58.19-15.06-32.71s15.09-28.68.27-60.86C853.09,559.21,825.77,563,825.77,563Z"/><path class="cls-4" d="M988,977.41,877.71,996.25A69.76,69.76,0,0,1,862.52,975L743.36,716.19l.47-.21,126.24-58.14,9.59,20.84L989.23,916.6A69.62,69.62,0,0,1,988,977.41Z"/><line class="cls-6" x1="734.54" y1="607.81" x2="720.69" y2="577.74"/><line class="cls-6" x1="764.76" y1="593.89" x2="750.92" y2="563.81"/><line class="cls-6" x1="794.99" y1="579.97" x2="781.14" y2="549.89"/><line class="cls-6" x1="834.72" y1="582.46" x2="852.42" y2="620.89"/><line class="cls-6" x1="843.57" y1="601.68" x2="847.99" y2="591.36"/><line class="cls-8" x1="807.94" y1="736.73" x2="880.41" y2="703.36"/><line class="cls-8" x1="906.4" y1="736.73" x2="941.07" y2="812.02"/></g><g id="책상_위_사물" data-name="책상 위 사물"><path class="cls-12" d="M535.58,246.06l-2.19,16.26s209-14.27,311,15.51a2.42,2.42,0,0,0,3.1-2.44l-.73-16.7S706.42,225,535.58,246.06Z"/><path class="cls-12" d="M526.51,248.34c-11.87-10.68-13.42-32.9-7.89-49,10.29-29.87,39.38-47.93,68.06-57.2a162.83,162.83,0,0,1,51-7.8c22.63.26,44.93,4.42,67.37,6.9,33.92,3.75,68.76-1.17,102.18,7.21,24,6,45.21,23.22,57,44.82,10.88,19.91,16.55,55.05-4.22,71.15-17.56,13.6-41.31-.7-58.93-6.75-24.06-8.25-50.91-8.63-76.08-9.48-30.52-1-61.09-2.39-91.64-2.33-26.22,0-52.52,1.71-78.27,6.85C544.92,254.79,534.94,255.91,526.51,248.34Z"/><polygon class="cls-12" points="711.1 141.85 715.75 107.88 729.97 113.32 711.1 141.85"/><rect class="cls-9" x="855.74" y="561.33" width="26.6" height="51.86" transform="translate(1058.12 -444.42) rotate(66.34)"/><line class="cls-6" x1="834.72" y1="582.46" x2="852.42" y2="620.89"/><path class="cls-13" d="M957,546.12c-4.28,10.3-10.25,23.11-18.41,32.61a46.28,46.28,0,0,1-9.52,8.6c-11.25,7.41-30.84,6.15-39.14-5.32A18.25,18.25,0,0,1,886.61,570c.71-11.88,10.37-22.12,21.25-25.94a23.05,23.05,0,0,1,3-.83,29.18,29.18,0,0,1,17,2.08c6.26,2.61,12.84,6.09,19.79,4.6C950.13,549.34,955.94,548.74,957,546.12Z"/><path class="cls-12" d="M938.62,578.73a18.94,18.94,0,0,0,0-2.61,7.76,7.76,0,0,0-2.15-5c-1.65-1.58-3.73-1.69-5.83-2.16-1.86-.42-3.86-1.34-4.45-3.15-.75-2.26,1-4.47,2-6.66a4,4,0,0,0,.36-2.46,3.3,3.3,0,0,0-2.21-2.15c-2.45-.84-5.11-.45-7.58-1.33-4.26-1.53-7.66-5.5-7.9-10a29.18,29.18,0,0,1,17,2.08c6.26,2.61,12.84,6.09,19.79,4.6,2.43-.52,8.24-1.12,9.33-3.74C952.75,556.42,946.78,569.23,938.62,578.73Z"/><path class="cls-14" d="M430.55,395.18a2.5,2.5,0,0,1-2.5-2.5c0-29.71-12.84-54.81-28.05-54.81a2.5,2.5,0,0,1,0-5c15.21,0,28.05-25.1,28.05-54.81a2.5,2.5,0,0,1,5,0c0,29.71,12.85,54.81,28.05,54.81a2.5,2.5,0,0,1,0,5c-15.2,0-28.05,25.1-28.05,54.81A2.5,2.5,0,0,1,430.55,395.18Zm-20.89-59.81c9.55,5.1,17.16,17.64,20.89,34.07,3.73-16.43,11.34-29,20.89-34.07-9.55-5.1-17.16-17.64-20.89-34.07C426.82,317.73,419.21,330.27,409.66,335.37Z"/><path class="cls-14" d="M477.32,447.11a2.5,2.5,0,0,1-2.5-2.5c0-18.37-7.73-33.88-16.89-33.88a2.5,2.5,0,0,1,0-5c9.16,0,16.89-15.52,16.89-33.89a2.5,2.5,0,0,1,5,0c0,18.37,7.74,33.89,16.9,33.89a2.5,2.5,0,0,1,0,5c-9.16,0-16.9,15.51-16.9,33.88A2.5,2.5,0,0,1,477.32,447.11ZM465.8,408.23c5,3.32,9.08,9.76,11.52,18,2.45-8.29,6.52-14.73,11.52-18-5-3.33-9.07-9.77-11.52-18.06C474.88,398.46,470.8,404.9,465.8,408.23Z"/><path class="cls-14" d="M910.86,339.47a2.5,2.5,0,0,1-2.5-2.5c0-18.36-7.73-33.88-16.89-33.88a2.5,2.5,0,0,1,0-5c9.16,0,16.89-15.52,16.89-33.88a2.5,2.5,0,1,1,5,0c0,18.36,7.74,33.88,16.9,33.88a2.5,2.5,0,0,1,0,5c-9.16,0-16.9,15.52-16.9,33.88A2.5,2.5,0,0,1,910.86,339.47Zm-11.52-38.88c5,3.32,9.08,9.76,11.52,18.06,2.45-8.3,6.52-14.74,11.52-18.06-5-3.33-9.07-9.76-11.52-18.06C908.42,290.83,904.34,297.26,899.34,300.59Z"/></g><g id="책상"><rect class="cls-15" y="857.78" width="1000" height="47.41"/><rect class="cls-15" y="905.19" width="67.02" height="94.83"/><rect class="cls-15" x="804.88" y="905.19" width="67.02" height="94.83"/><polygon class="cls-16" points="1000 857.78 1000 905.19 871.9 905.19 871.9 1000.02 838.39 1000.02 838.39 857.78 1000 857.78"/><rect class="cls-17" x="67.02" y="905.19" width="737.86" height="94.83"/><rect class="cls-18" x="871.9" y="905.19" width="128.1" height="94.83"/><rect class="cls-16" x="33.51" y="905.19" width="33.51" height="94.83"/></g></svg>