<svg xmlns="http://www.w3.org/2000/svg" viewBox="0 0 1000 1000"><defs><style>.cls-1{fill:#ffc522;}.cls-1,.cls-2{opacity:0.5;}.cls-2{fill:#659331;}.cls-3{fill:#ffe3ec;}.cls-4{fill:#ffcbdc;}.cls-5{fill:#ffb5cd;}.cls-6{fill:#fff;}.cls-7{fill:#2d2d37;}.cls-10,.cls-8{fill:none;stroke-linecap:round;stroke-linejoin:round;stroke-width:5px;}.cls-8{stroke:#ffcbdc;}.cls-9{fill:#bfab9b;}.cls-10{stroke:#dadada;}.cls-11{fill:#ffe4ee;}.cls-12{fill:#897c74;}.cls-13{fill:#706661;}.cls-14{fill:#7f736c;}.cls-15{fill:#665e5a;}</style></defs><g id="뒷배경"><path class="cls-1" d="M353.52,448.45a11.11,11.11,0,0,0-5.54,1.49L314.4,416.36H240L218.21,438.1v86.21l17.62,17.63a11.15,11.15,0,1,0,3.83-3.82l-16-16V440.34l18.57-18.57h70L344.1,453.7a11,11,0,0,0-1.7,5.87,11.13,11.13,0,1,0,11.12-11.12ZM245.35,542a5.72,5.72,0,1,1-5.72,5.71A5.71,5.71,0,0,1,245.35,542Zm108.17-76.67a5.72,5.72,0,1,1,5.72-5.71A5.71,5.71,0,0,1,353.52,465.28Z"/><path class="cls-1" d="M361.94,505.13a11,11,0,0,0-5.65,1.56l-21.18-20.91H287v2.7a8.54,8.54,0,1,0-8.54,8.54,8.53,8.53,0,0,0,8.54-8.54v2.7h45.92l19.56,19.3a11,11,0,0,0-1.63,5.76,11.12,11.12,0,1,0,11.12-11.12Zm0,16.83a5.72,5.72,0,1,1,5.72-5.71A5.71,5.71,0,0,1,361.94,522Z"/><path class="cls-2" d="M343.52,532.57a8.55,8.55,0,0,0-8.1,5.84h-52.7l-28.45-26.74V477.26a8.55,8.55,0,1,0-5.41,0V514l31.72,29.8h54.84a8.53,8.53,0,1,0,8.1-11.24Z"/><path class="cls-2" d="M145.57,607.2V574.09l-22.91-22.9V464.62a11.12,11.12,0,1,0-5.4,0v88.81l22.9,22.9V607.2a8.54,8.54,0,1,0,5.41,0ZM114.25,453.85a5.71,5.71,0,1,1,5.71,5.71A5.72,5.72,0,0,1,114.25,453.85Z"/><path class="cls-1" d="M190,619.25l-25.8-25.8V528.56a8.54,8.54,0,1,0-5.41,0v67.13l25.8,25.8V735.1L171.1,748.57a8.63,8.63,0,1,0,3,4.63L190,737.33Z"/><path class="cls-1" d="M321.61,269.44a11.13,11.13,0,0,0-11.12,11.12,11,11,0,0,0,1.59,5.71l-20.4,20.4v35.8a8.56,8.56,0,1,0,5.4.18V308.91l18.82-18.82a11.12,11.12,0,1,0,5.71-20.65Zm0,16.84a5.72,5.72,0,1,1,5.71-5.72A5.73,5.73,0,0,1,321.61,286.28Z"/><path class="cls-2" d="M327.73,350.62a22.27,22.27,0,0,0-22,19.14H220.36L184.13,406V574.13l26,27.29V755.19L179.1,783.32v88.51h9.73V787.64l31.07-28.13v-162l-26-27.3V410l30.53-30.53h82.1a22.24,22.24,0,1,0,21.23-28.87Zm0,34.75a12.51,12.51,0,1,1,12.51-12.51A12.52,12.52,0,0,1,327.73,385.37Z"/><path class="cls-2" d="M169.71,302.49a22.23,22.23,0,0,0-19.05,33.71l-25.31,25.28v44.09l-34,34V599.81l42.41,42.41V871.83h9.73V638.19l-42.41-42.41V443.61l34-34V365.52l22.31-22.28a22.24,22.24,0,1,0,12.32-40.75Zm0,34.75a12.51,12.51,0,1,1,12.51-12.51A12.53,12.53,0,0,1,169.71,337.24Z"/><path class="cls-2" d="M850.83,82.6a8.54,8.54,0,1,0-8.09-11.24H811.87L789,48.46H700.16a11.12,11.12,0,1,0,0,5.4h86.57l22.9,22.91h33.11A8.52,8.52,0,0,0,850.83,82.6ZM695.1,51.16a5.72,5.72,0,1,1-5.71-5.71A5.71,5.71,0,0,1,695.1,51.16Z"/><path class="cls-1" d="M804.09,121.18l-25.8-25.8h-64.9a8.54,8.54,0,1,1,0-5.41h67.14l25.79,25.8H919.93L933.4,102.3a8.63,8.63,0,1,1,4.63,3l-15.86,15.87Z"/><path class="cls-2" d="M560.27,123.15a22.23,22.23,0,0,0,18.51-34.56l22.28-22.31h44.08l34-34H831.32l42.41,42.41h233.64V65H877.76L835.35,22.54H675.12l-34,34H597L571.74,81.86a22.24,22.24,0,1,0-11.47,41.29Zm0-9.73a12.51,12.51,0,1,1,12.51-12.51A12.53,12.53,0,0,1,560.27,113.42Z"/></g><g id="얼굴"><path class="cls-3" d="M729,364.3s1,36-33,42v117H538V473.69s-37-14.39-47-57.39c0,0-.39,0-1.08.05-6,.16-34.92-.68-34.92-32.05,0-35,17.26-38.46,17.26-38.46S464,209,592,210.64,731,336.3,729,364.3Z"/></g><g id="표정"><path class="cls-4" d="M538,473.69s76,22.61,123-18.39l-28,68H538Z"/><path class="cls-5" d="M677.46,421.35s-26.82-20.18-49.06.95c-27.37,26-4.06,52.52-4.06,52.52s18.31-3.64,36.69-19.52A76.87,76.87,0,0,0,677.46,421.35Z"/><path class="cls-5" d="M538,473.69s-37-14.39-47-57.39c0,0-.39,0-1.08.05l1.57-1.05s27.51-12,43,15.08C548.61,455,538,473.69,538,473.69Z"/><path class="cls-5" d="M624.34,474.82s18.31-3.64,36.69-19.52a76.87,76.87,0,0,0,16.43-33.95"/><ellipse class="cls-6" cx="617.22" cy="394.3" rx="21.5" ry="26"/><ellipse class="cls-7" cx="613.58" cy="394.3" rx="15.72" ry="20.43"/><ellipse class="cls-6" cx="538.03" cy="394.3" rx="21.5" ry="26"/><ellipse class="cls-7" cx="534.39" cy="394.3" rx="15.72" ry="20.43"/><path class="cls-8" d="M703.81,356.53V385s-.68-21.43,11.86-23"/><path class="cls-8" d="M478.76,361.31s4.62,36.25,9.72,47.42"/></g><g id="머리카락"><path class="cls-7" d="M729,364.3c0-39-43-41-42,2,0,0-20-7-41-7s-43-17-43-17,2,9,4,12c0,0-43,18-72-14,0,0-2,4.59,0,13.8,0,0-97,30.2-87-91.8s145-115,162-108c0,0,96-22,135,64,0,0,21,41,12,80S729,364.3,729,364.3Z"/></g><g id="와이셔츠_뒷면" data-name="와이셔츠 뒷면"><polyline class="cls-6" points="515.07 539.2 716.65 539.2 696.48 649.51 610.77 659.84 548.47 632.49 524.46 592.68 515.07 539.2"/></g><g id="넥타이"><polygon class="cls-7" points="592.13 564.15 599.53 585.84 578.86 643.28 650.9 643.28 633.11 585.84 639.91 564.01 615.09 516.54 592.13 564.15"/></g><g id="조끼"><path class="cls-9" d="M832,988.54c-1.82-75.67-25.83-423.23-25.83-423.23-26.14-11.81-86.1-32.71-86.1-32.71S692.65,643.22,616.29,643.22h0c-76.36,0-103.79-110.62-103.79-110.62s-59.95,20.9-86.09,32.71c0,0-24,347.56-25.83,423.23Z"/></g><g id="와이셔츠_깃" data-name="와이셔츠 깃"><path class="cls-6" d="M615.86,524.9l12.35,30.89a13.11,13.11,0,0,0,14,8.1l65.5-13.95c6-1.41,15.61-8.21,11.89-17.27L696,492.08a336.48,336.48,0,0,1-80.17,9.42Z"/><path class="cls-6" d="M615.86,524.9l-12.35,30.89a13.11,13.11,0,0,1-14,8.1L524,549.94c-6-1.41-15.61-8.21-11.89-17.27l23.62-40.59a336.48,336.48,0,0,0,80.17,9.42Z"/><line class="cls-10" x1="643.52" y1="563.27" x2="704.21" y2="550.77"/><line class="cls-10" x1="586.56" y1="563.27" x2="526.51" y2="550.48"/></g><g id="손"><path class="cls-11" d="M732.83,460.14,755,437.34a2.5,2.5,0,0,0,0-3.53l-97.67-104.1a18.4,18.4,0,0,0-26,.34h0a18.41,18.41,0,0,0,.34,26l97.67,104.1A2.5,2.5,0,0,0,732.83,460.14Z"/><path class="cls-11" d="M771.56,458.48l22.19-22.79a2.5,2.5,0,0,0,0-3.53L696,328.05a18.4,18.4,0,0,0-26,.35h0a18.4,18.4,0,0,0,.35,26L768,458.53A2.5,2.5,0,0,0,771.56,458.48Z"/><path class="cls-11" d="M713.11,377.95h31.81a2.5,2.5,0,0,1,2.5,2.5V487.32a18.4,18.4,0,0,1-18.4,18.4h0a18.4,18.4,0,0,1-18.4-18.4V380.44a2.5,2.5,0,0,1,2.5-2.5Z" transform="translate(1263.89 -221.94) rotate(97.64)"/><path class="cls-11" d="M660.79,474.78c0,.27.05.53.07.8l0,.3.06.35a.17.17,0,0,0,0,.07,20.88,20.88,0,0,0,2.71,6.93q.57,1,1.32,2.07a18.34,18.34,0,0,0,14.72,6.64l37-1.13,69.78-2.11a2.48,2.48,0,0,0,2.41-2.56l-1-31.8a2.5,2.5,0,0,0-2.57-2.43l-106.83,3.24a18.4,18.4,0,0,0-17.83,19C660.76,474.34,660.78,474.56,660.79,474.78Z"/><path class="cls-11" d="M663.67,483.23q.57,1,1.32,2.07a33.45,33.45,0,0,0,2.23,2.84l5.71,5.37,1.29,1.22L685,504.86a18.4,18.4,0,0,0,26-.79l.77-.82a18.4,18.4,0,0,0-.79-26L690.4,457.88a2.5,2.5,0,0,0-3.53.1l-22.58,24A2.54,2.54,0,0,0,663.67,483.23Z"/><path class="cls-11" d="M668,444.93c.38.66.82,1.36,1.32,2.06a33.9,33.9,0,0,0,2.23,2.84l5.71,5.38,1.29,1.21,10.76,10.13a18.39,18.39,0,0,0,26-.79l.77-.81a18.42,18.42,0,0,0-.78-26l-20.58-19.36a2.5,2.5,0,0,0-3.53.11l-22.57,24A2.51,2.51,0,0,0,668,444.93Z"/><polygon class="cls-11" points="794.2 432.85 831.52 532 757.75 577.11 697.66 491.4 794.2 432.85"/><path class="cls-11" d="M672.93,493.51l1.29,1.22A8.16,8.16,0,0,0,672.93,493.51Z"/><polygon class="cls-11" points="678.22 443.66 665.7 438.25 669 460.08 678.29 459.47 678.22 443.66"/><polygon class="cls-11" points="708.23 506.47 738.61 586.47 831.52 532 708.23 506.47"/><polygon class="cls-11" points="831.52 532 834.17 572.03 738.61 586.47 770.68 531.42 831.52 532"/><polyline class="cls-11" points="728.2 559.06 730.06 587.04 738.61 586.47"/></g><g id="팔"><path class="cls-6" d="M426.43,565.3l-24.1,434.57H289.59c6.16-368,135.8-434,136.83-434.56Z"/><path class="cls-10" d="M301.78,840c23.45-159.39,74.49-229.91,103.46-258.11"/><path class="cls-6" d="M882.12,761.1a1.6,1.6,0,0,1,0-.21S882.09,761,882.12,761.1Z"/><path class="cls-6" d="M767.47,505H907a0,0,0,0,1,0,0V839.64a69.75,69.75,0,0,1-69.75,69.75h0a69.75,69.75,0,0,1-69.75-69.75V505a0,0,0,0,1,0,0Z" transform="translate(-177.32 292.74) rotate(-17.97)"/><path class="cls-10" d="M845.79,507.52l98.68,304.3c7.94,24.5,5.58,49.45-4.57,68.67"/></g><g id="선"><line class="cls-8" x1="740.92" y1="418.83" x2="671.68" y2="345.03"/><line class="cls-8" x1="719.68" y1="430.56" x2="697.32" y2="422.02"/><line class="cls-8" x1="704.58" y1="491.18" x2="687.9" y2="481.55"/><path class="cls-4" d="M704.58,455.78c-4.88-.51-9.76-1-14.65-1.54a67.79,67.79,0,0,0-14.45-.31,2.31,2.31,0,0,0-2.25,2.25,2.27,2.27,0,0,0,2.25,2.25,67.79,67.79,0,0,1,14.45.31c4.89.5,9.77,1,14.65,1.54a2.27,2.27,0,0,0,2.25-2.25,2.31,2.31,0,0,0-2.25-2.25Z"/><path class="cls-4" d="M680.9,441.89l3.8,13.41a2.25,2.25,0,1,0,4.34-1.19l-3.8-13.42a2.25,2.25,0,1,0-4.34,1.2Z"/><line class="cls-8" x1="638.72" y1="361.31" x2="679.66" y2="407.26"/><line class="cls-8" x1="704.58" y1="339.98" x2="724.85" y2="362.74"/><path class="cls-8" d="M683.07,414.73s-28.35,4.1-16.33,39"/><path class="cls-8" d="M674.22,494.73S652.88,472.4,660.75,458a12,12,0,0,1,6-4.27"/><line class="cls-8" x1="704.58" y1="491.18" x2="714.67" y2="518.92"/><line class="cls-10" x1="769.87" y1="578.05" x2="842.54" y2="552.88"/><path class="cls-7" d="M519.16,372.58q18.83-1,37.69-.53c3.86.09,3.86-5.91,0-6q-18.84-.49-37.69.53a3.08,3.08,0,0,0-3,3,3,3,0,0,0,3,3Z"/><path class="cls-7" d="M589.72,368.68c7.32,4.9,16,6,24.53,4.13,4.43-1,8.8-2.29,13.18-3.47l13.47-3.65c3.72-1,2.14-6.8-1.6-5.79-8.4,2.28-16.77,4.76-25.24,6.8a28.81,28.81,0,0,1-11.16.81,25.16,25.16,0,0,1-10.15-4,3,3,0,0,0-4.11,1.07,3.07,3.07,0,0,0,1.08,4.11Z"/></g><g id="책상"><rect class="cls-12" x="1.71" y="857.76" width="1000" height="47.41"/><rect class="cls-12" x="1.71" y="905.17" width="67.02" height="94.83"/><rect class="cls-12" x="806.59" y="905.17" width="67.02" height="94.83"/><polygon class="cls-13" points="1001.71 857.76 1001.71 905.17 873.61 905.17 873.61 1000 840.1 1000 840.1 857.76 1001.71 857.76"/><rect class="cls-14" x="68.73" y="905.17" width="737.86" height="94.83"/><rect class="cls-15" x="873.61" y="905.17" width="128.1" height="94.83"/><rect class="cls-13" x="35.22" y="905.17" width="33.51" height="94.83"/></g></svg>