<svg xmlns="http://www.w3.org/2000/svg" viewBox="0 0 1000 1000"><defs><style>.cls-1{fill:#ffe3ec;}.cls-2{fill:#ffcbdc;}.cls-3{fill:#ffb5cd;}.cls-4{fill:#fff;}.cls-17,.cls-5{fill:#2d2d37;}.cls-15,.cls-16,.cls-19,.cls-6,.cls-8,.cls-9{fill:none;}.cls-6{stroke:#ffcbdc;}.cls-15,.cls-6,.cls-8,.cls-9{stroke-linecap:round;stroke-linejoin:round;}.cls-6,.cls-8,.cls-9{stroke-width:5px;}.cls-7{fill:#bfab9b;}.cls-8,.cls-9{stroke:#dadada;}.cls-9{opacity:0.4;}.cls-10{fill:#dadada;}.cls-11{fill:#c6c6c6;}.cls-12{fill:#ffe633;}.cls-13{fill:#72dc84;}.cls-14{fill:#f73;}.cls-15{stroke:#f25f1d;stroke-width:2px;}.cls-16{stroke:#2d2d37;}.cls-16,.cls-19{stroke-miterlimit:10;}.cls-16,.cls-17,.cls-20{opacity:0.1;}.cls-18{fill:#8b5f49;}.cls-19{stroke:#000;}.cls-21{fill:#897c74;}.cls-22{fill:#706661;}.cls-23{fill:#7f736c;}.cls-24{fill:#665e5a;}</style></defs><g id="얼굴"><path class="cls-1" d="M771.65,364.3s1,36-33,42v117h-158V473.69s-37-14.39-47-57.39c0,0-.39,0-1.08.05-6,.16-34.92-.68-34.92-32.05,0-35,17.26-38.46,17.26-38.46S506.65,209,634.65,210.64,773.65,336.3,771.65,364.3Z"/></g><g id="표정"><path class="cls-2" d="M580.65,473.69s76,22.61,123-18.39l-28,68h-95Z"/><path class="cls-3" d="M720.08,421.35s-26.82-20.18-49.07.95c-27.36,26-4.06,52.52-4.06,52.52s18.31-3.64,36.7-19.52A77,77,0,0,0,720.08,421.35Z"/><path class="cls-3" d="M580.65,473.69s-37-14.39-47-57.39c0,0-.39,0-1.08.05l1.57-1.05s27.51-12,43,15.08C591.23,455,580.65,473.69,580.65,473.69Z"/><path class="cls-3" d="M667,474.82s18.31-3.64,36.7-19.52a77,77,0,0,0,16.43-33.95"/><ellipse class="cls-4" cx="659.84" cy="394.3" rx="21.5" ry="26"/><ellipse class="cls-5" cx="656.19" cy="394.3" rx="15.72" ry="20.43"/><ellipse class="cls-4" cx="580.65" cy="394.3" rx="21.5" ry="26"/><ellipse class="cls-5" cx="577" cy="394.3" rx="15.72" ry="20.43"/><path class="cls-6" d="M746.43,356.53V385s-.69-21.43,11.85-23"/><path class="cls-6" d="M521.37,361.31s4.63,36.25,9.72,47.42"/></g><g id="머리카락"><path class="cls-5" d="M771.65,364.3c0-39-43-41-42,2,0,0-20-7-41-7s-43-17-43-17,2,9,4,12c0,0-43,18-72-14,0,0-2,4.59,0,13.8,0,0-97,30.2-87-91.8s145-115,162-108c0,0,96-22,135,64,0,0,21,41,12,80S771.65,364.3,771.65,364.3Z"/></g><g id="와이셔츠_뒷면" data-name="와이셔츠 뒷면"><polyline class="cls-4" points="557.69 539.2 759.26 539.2 739.09 649.51 653.38 659.84 591.08 632.49 567.07 592.68 557.69 539.2"/></g><g id="넥타이"><polygon class="cls-5" points="634.75 564.15 642.15 585.84 621.47 643.28 693.51 643.28 675.72 585.84 682.53 564.01 657.7 516.54 634.75 564.15"/></g><g id="조끼"><path class="cls-7" d="M874.61,988.54c-1.82-75.67-25.83-423.23-25.83-423.23-26.14-11.81-86.1-32.71-86.1-32.71S735.27,643.22,658.9,643.22h0c-76.36,0-103.79-110.62-103.79-110.62S495.16,553.5,469,565.31c0,0-24,347.56-25.84,423.23Z"/></g><g id="와이셔츠_깃" data-name="와이셔츠 깃"><path class="cls-4" d="M658.47,524.9l12.36,30.89a13.09,13.09,0,0,0,14,8.1l65.5-13.95c6-1.41,15.62-8.21,11.89-17.27l-23.62-40.59a336.48,336.48,0,0,1-80.17,9.42Z"/><path class="cls-4" d="M658.47,524.9l-12.35,30.89a13.1,13.1,0,0,1-14,8.1l-65.5-13.95c-6-1.41-15.62-8.21-11.9-17.27l23.62-40.59a336.48,336.48,0,0,0,80.17,9.42Z"/><line class="cls-8" x1="686.13" y1="563.27" x2="746.82" y2="550.77"/><line class="cls-8" x1="629.17" y1="563.27" x2="569.12" y2="550.48"/></g><g id="팔"><path class="cls-4" d="M469,565.3l-24.1,434.57H332.2c6.16-368,135.8-434,136.83-434.56Z"/><path class="cls-8" d="M344.39,840c23.46-159.39,74.49-229.91,103.46-258.11"/><path class="cls-4" d="M849.53,565.3l24.1,434.57H986.37c-6.16-368-135.8-434-136.83-434.56Z"/><path class="cls-8" d="M974.18,840c-23.45-159.39-74.49-229.91-103.46-258.11"/><path class="cls-4" d="M958.71,730.24a1.55,1.55,0,0,1,0-.21A1.76,1.76,0,0,1,958.71,730.24Z"/></g><g id="책상_위_사물" data-name="책상 위 사물"><path class="cls-9" d="M197.45,356.54H396.83a16.74,16.74,0,0,1,16.74,16.75V414.6a16.73,16.73,0,0,1-16.74,16.74h-9.75l-7.75,42.35-20.19-42.35H197.45A16.74,16.74,0,0,1,180.7,414.6V373.29A16.75,16.75,0,0,1,197.45,356.54Z"/><rect class="cls-10" x="205.22" y="371.33" width="164.37" height="13.78"/><rect class="cls-10" x="205.22" y="397.62" width="137.31" height="7.32"/><rect class="cls-10" x="205.22" y="409.78" width="137.31" height="8.81"/><path class="cls-9" d="M131.72,234.37H366.29a22.21,22.21,0,0,1,22.21,22.21v54.79a22.21,22.21,0,0,1-22.21,22.2H101.85a22.21,22.21,0,0,1-22.21-22.2v-7.89"/><rect class="cls-10" x="151.32" y="253.98" width="182.03" height="18.28"/><rect class="cls-10" x="151.32" y="288.85" width="152.07" height="9.71"/><rect class="cls-10" x="151.32" y="304.97" width="152.07" height="11.69"/><path class="cls-11" d="M90.67,270H87.39a8.21,8.21,0,0,1-.67-1.23c-.68-1.93-1.33-3.87-2-5.82a1.58,1.58,0,0,0-1.35-1.21,20.4,20.4,0,0,1-2.79-.61,1.67,1.67,0,0,0-1.9.57c-1.46,1.53-3,3-4.44,4.54a1.17,1.17,0,0,1-1.64.21c-1.56-.91-3.14-1.78-4.72-2.65a1.22,1.22,0,0,1-.7-1.59c.58-2.07,1.06-4.16,1.61-6.23a1.49,1.49,0,0,0-.43-1.66,27.66,27.66,0,0,1-2-2.08,1.87,1.87,0,0,0-2.1-.62c-1.92.47-3.86.86-5.77,1.33a1.39,1.39,0,0,1-1.88-.86c-.69-1.48-1.47-2.93-2.26-4.36a1.52,1.52,0,0,1,.37-2.21c1.54-1.31,2.95-2.74,4.46-4.08a1.86,1.86,0,0,0,.65-1.91,24.39,24.39,0,0,0-.56-2.7,2,2,0,0,0-.94-1.19c-2.35-.92-4.74-1.73-7.11-2.57v-2.46c.21-1.37.45-2.74.6-4.11A1.4,1.4,0,0,1,53.26,225c1.42-.19,2.82-.66,4.23-.71,2.47-.07,3.74-1.32,4.34-3.59a1.93,1.93,0,0,0-.24-1.9c-1.31-1.66-2.56-3.37-3.86-5a1.16,1.16,0,0,1,0-1.65c1.21-1.48,2.45-2.93,3.6-4.46a1.39,1.39,0,0,1,1.94-.46c1.47.64,3,1.09,4.43,1.86a3.55,3.55,0,0,0,4.6-.5,2.05,2.05,0,0,0,.9-1.89c-.19-2-.32-4.08-.5-6.12a1.27,1.27,0,0,1,1-1.56c1.91-.61,3.83-1.23,5.72-1.91a1.23,1.23,0,0,1,1.65.53c.92,1.35,2,2.62,2.78,4.05.92,1.66,2.08,2.46,4,2.08a1.68,1.68,0,0,0,1.43-.88c1-1.89,2-3.73,3-5.6a1.3,1.3,0,0,1,1.78-.81,57,57,0,0,0,5.57,1.32,1.56,1.56,0,0,1,1.48,1.8c0,2,.11,4,.19,5.94a2.82,2.82,0,0,0,4,2.23c1.79-1,3.59-2,5.36-3a1.33,1.33,0,0,1,1.89.27c1.33,1.42,2.69,2.82,4.1,4.16a1.51,1.51,0,0,1,.21,2.23c-1.08,1.69-2.05,3.46-3.11,5.17a1.65,1.65,0,0,0,0,1.91,9.45,9.45,0,0,0,.76,1.32,2,2,0,0,0,1.15.7c2,.2,4,.33,6,.43,1.77.09,1.81.12,2.21,1.85s.83,3.41,1.25,5.12v1.23c-1.69.86-3.33,1.85-5.08,2.55s-2.8,1.81-2.6,3.9a2.25,2.25,0,0,0,1,1.86c1.73,1.22,3.41,2.51,5.12,3.75a1.19,1.19,0,0,1,.49,1.58c-.71,1.88-1.38,3.78-2,5.67a1.13,1.13,0,0,1-1.33.83c-1.09-.12-2.18-.2-3.26-.36-4.11-.64-4.1-.64-6.11,2.12a1.8,1.8,0,0,0-.22,1.9c.78,1.93,1.46,3.89,2.23,5.82a1.45,1.45,0,0,1-.58,2c-1.45,1-2.86,2.1-4.24,3.22a1.36,1.36,0,0,1-2-.08c-1.54-1.29-3.13-2.52-4.68-3.81a1.66,1.66,0,0,0-1.87-.35c-.82.35-1.64.67-2.48,1a1.67,1.67,0,0,0-1.18,1.39c-.41,2-.89,4.06-1.26,6.1-.16.89-.53,1.32-1.45,1.38S91.63,269.84,90.67,270Zm19.18-36.81a21.6,21.6,0,1,0-23.46,21.42A21.52,21.52,0,0,0,109.85,233.17Z"/><path class="cls-11" d="M63.64,301.76l-1.47-.27a3.52,3.52,0,0,1-.2-.6c-.15-.92-.28-1.85-.41-2.77a.7.7,0,0,0-.51-.65,10.54,10.54,0,0,1-1.2-.51.77.77,0,0,0-.9.1c-.78.57-1.58,1.11-2.36,1.68a.54.54,0,0,1-.75,0c-.62-.54-1.26-1.05-1.9-1.57a.55.55,0,0,1-.18-.77c.42-.88.81-1.78,1.23-2.67a.7.7,0,0,0-.06-.78,9.69,9.69,0,0,1-.71-1.09.88.88,0,0,0-.9-.45c-.9.06-1.8.07-2.7.13a.64.64,0,0,1-.77-.54c-.18-.72-.41-1.43-.65-2.14a.69.69,0,0,1,.34-1c.8-.46,1.55-1,2.33-1.47a.83.83,0,0,0,.45-.8c0-.42,0-.84,0-1.26a.93.93,0,0,0-.33-.61c-1-.6-2-1.16-3-1.73l.2-1.1c.2-.6.42-1.19.6-1.79a.64.64,0,0,1,.74-.54,18,18,0,0,1,1.95,0,1.91,1.91,0,0,0,2.24-1.26.87.87,0,0,0,0-.87c-.45-.85-.87-1.72-1.31-2.58a.54.54,0,0,1,.15-.74c.66-.56,1.34-1.11,2-1.7a.64.64,0,0,1,.91-.05c.6.41,1.27.74,1.83,1.2a1.61,1.61,0,0,0,2.1.14A.9.9,0,0,0,61,272c.08-.93.19-1.86.27-2.79a.59.59,0,0,1,.56-.63c.9-.11,1.81-.23,2.72-.38a.55.55,0,0,1,.69.37c.31.68.68,1.34.92,2a1.56,1.56,0,0,0,1.64,1.26.76.76,0,0,0,.72-.28c.58-.76,1.2-1.5,1.79-2.26a.6.6,0,0,1,.87-.22,25.37,25.37,0,0,0,2.39,1,.71.71,0,0,1,.51.93c-.15.89-.27,1.79-.4,2.68a1.29,1.29,0,0,0,1.62,1.33c.89-.3,1.77-.59,2.65-.91a.62.62,0,0,1,.83.27c.48.75,1,1.49,1.5,2.2a.69.69,0,0,1-.09,1c-.62.67-1.2,1.38-1.82,2.06a.77.77,0,0,0-.17.86,6.21,6.21,0,0,0,.23.65,1,1,0,0,0,.46.41c.88.25,1.77.47,2.67.68s.8.2.84,1,.09,1.6.14,2.4l-.1.55c-.83.25-1.64.56-2.49.73a1.56,1.56,0,0,0-1.48,1.54,1,1,0,0,0,.28.91c.68.69,1.32,1.4,2,2.1a.55.55,0,0,1,.09.75c-.47.78-.93,1.58-1.38,2.37a.51.51,0,0,1-.67.26c-.47-.14-1-.26-1.42-.42-1.8-.62-1.79-.62-2.92.45a.81.81,0,0,0-.25.83c.19.93.33,1.87.52,2.8a.66.66,0,0,1-.42.85c-.73.34-1.45.7-2.16,1.09a.62.62,0,0,1-.89-.19c-.58-.71-1.2-1.39-1.78-2.09a.76.76,0,0,0-.82-.31c-.39.09-.79.16-1.19.23a.77.77,0,0,0-.64.52c-.35.88-.73,1.75-1.06,2.64a.64.64,0,0,1-.76.5C64.53,301.77,64.08,301.78,63.64,301.76Zm11.6-14.94A9.84,9.84,0,1,0,63,294.51,9.82,9.82,0,0,0,75.24,286.82Z"/><path class="cls-5" d="M155,830.64a27.13,27.13,0,0,0,27.13,27.12h92.82a27.13,27.13,0,0,0,27.13-27.12v-17.1H155Z"/><path class="cls-12" d="M280.53,525.54a73.54,73.54,0,0,0-125.54,52V809H302.07V577.53A73.28,73.28,0,0,0,280.53,525.54Z"/><rect class="cls-13" x="154.99" y="808.98" width="147.08" height="4.56"/><circle cx="204.46" cy="554.37" r="6.15"/><circle cx="222.38" cy="554.37" r="6.15"/><path class="cls-14" d="M203.74,564.47a6.72,6.72,0,0,0-6.8,6.34,6.53,6.53,0,0,0,6.53,6.73,6.54,6.54,0,0,0-6.53,6.74,6.71,6.71,0,0,0,6.8,6.33h14.47a13.07,13.07,0,0,0,13.07-13.07h0a13.07,13.07,0,0,0-13.07-13.07Z"/><line class="cls-15" x1="206.09" y1="577.54" x2="220.22" y2="577.54"/><line class="cls-16" x1="154.99" y1="702.76" x2="302.07" y2="702.76"/><circle class="cls-17" cx="161.67" cy="710.26" r="1.73"/><circle class="cls-17" cx="161.67" cy="718.49" r="1.73"/><circle class="cls-17" cx="161.67" cy="726.71" r="1.73"/><circle class="cls-17" cx="161.67" cy="734.94" r="1.73"/><circle class="cls-17" cx="161.67" cy="743.16" r="1.73"/><circle class="cls-17" cx="161.67" cy="751.39" r="1.73"/><circle class="cls-17" cx="161.67" cy="759.61" r="1.73"/><circle class="cls-17" cx="161.67" cy="767.84" r="1.73"/><circle class="cls-17" cx="161.67" cy="776.06" r="1.73"/><circle class="cls-17" cx="161.67" cy="784.29" r="1.73"/><circle class="cls-17" cx="161.67" cy="792.51" r="1.73"/><circle class="cls-17" cx="161.67" cy="800.74" r="1.73"/><circle class="cls-17" cx="169.1" cy="710.26" r="1.73"/><circle class="cls-17" cx="169.1" cy="718.49" r="1.73"/><circle class="cls-17" cx="169.1" cy="726.71" r="1.73"/><circle class="cls-17" cx="169.1" cy="734.94" r="1.73"/><circle class="cls-17" cx="169.1" cy="743.16" r="1.73"/><circle class="cls-17" cx="169.1" cy="751.39" r="1.73"/><circle class="cls-17" cx="169.1" cy="759.61" r="1.73"/><circle class="cls-17" cx="169.1" cy="767.84" r="1.73"/><circle class="cls-17" cx="169.1" cy="776.06" r="1.73"/><circle class="cls-17" cx="169.1" cy="784.29" r="1.73"/><circle class="cls-17" cx="169.1" cy="792.51" r="1.73"/><circle class="cls-17" cx="169.1" cy="800.74" r="1.73"/><circle class="cls-17" cx="176.53" cy="710.26" r="1.73"/><circle class="cls-17" cx="176.53" cy="718.49" r="1.73"/><circle class="cls-17" cx="176.53" cy="726.71" r="1.73"/><circle class="cls-17" cx="176.53" cy="734.94" r="1.73"/><circle class="cls-17" cx="176.53" cy="743.16" r="1.73"/><circle class="cls-17" cx="176.53" cy="751.39" r="1.73"/><circle class="cls-17" cx="176.53" cy="759.61" r="1.73"/><circle class="cls-17" cx="176.53" cy="767.84" r="1.73"/><circle class="cls-17" cx="176.53" cy="776.06" r="1.73"/><circle class="cls-17" cx="176.53" cy="784.29" r="1.73"/><circle class="cls-17" cx="176.53" cy="792.51" r="1.73"/><circle class="cls-17" cx="176.53" cy="800.74" r="1.73"/><circle class="cls-17" cx="183.95" cy="710.26" r="1.73"/><circle class="cls-17" cx="183.95" cy="718.49" r="1.73"/><circle class="cls-17" cx="183.95" cy="726.71" r="1.73"/><circle class="cls-17" cx="183.95" cy="734.94" r="1.73"/><circle class="cls-17" cx="183.95" cy="743.16" r="1.73"/><circle class="cls-17" cx="183.95" cy="751.39" r="1.73"/><circle class="cls-17" cx="183.95" cy="759.61" r="1.73"/><circle class="cls-17" cx="183.95" cy="767.84" r="1.73"/><circle class="cls-17" cx="183.95" cy="776.06" r="1.73"/><circle class="cls-17" cx="183.95" cy="784.29" r="1.73"/><circle class="cls-17" cx="183.95" cy="792.51" r="1.73"/><circle class="cls-17" cx="183.95" cy="800.74" r="1.73"/><circle class="cls-17" cx="191.38" cy="710.26" r="1.73"/><circle class="cls-17" cx="191.38" cy="718.49" r="1.73"/><circle class="cls-17" cx="191.38" cy="726.71" r="1.73"/><circle class="cls-17" cx="191.38" cy="734.94" r="1.73"/><circle class="cls-17" cx="191.38" cy="743.16" r="1.73"/><circle class="cls-17" cx="191.38" cy="751.39" r="1.73"/><circle class="cls-17" cx="191.38" cy="759.61" r="1.73"/><circle class="cls-17" cx="191.38" cy="767.84" r="1.73"/><circle class="cls-17" cx="191.38" cy="776.06" r="1.73"/><circle class="cls-17" cx="191.38" cy="784.29" r="1.73"/><circle class="cls-17" cx="191.38" cy="792.51" r="1.73"/><circle class="cls-17" cx="191.38" cy="800.74" r="1.73"/><circle class="cls-17" cx="198.81" cy="710.26" r="1.73"/><circle class="cls-17" cx="198.81" cy="718.49" r="1.73"/><circle class="cls-17" cx="198.81" cy="726.71" r="1.73"/><circle class="cls-17" cx="198.81" cy="734.94" r="1.73"/><circle class="cls-17" cx="198.81" cy="743.16" r="1.73"/><circle class="cls-17" cx="198.81" cy="751.39" r="1.73"/><circle class="cls-17" cx="198.81" cy="759.61" r="1.73"/><circle class="cls-17" cx="198.81" cy="767.84" r="1.73"/><circle class="cls-17" cx="198.81" cy="776.06" r="1.73"/><circle class="cls-17" cx="198.81" cy="784.29" r="1.73"/><circle class="cls-17" cx="198.81" cy="792.51" r="1.73"/><circle class="cls-17" cx="198.81" cy="800.74" r="1.73"/><circle class="cls-17" cx="206.23" cy="710.26" r="1.73"/><circle class="cls-17" cx="206.23" cy="718.49" r="1.73"/><circle class="cls-17" cx="206.23" cy="726.71" r="1.73"/><circle class="cls-17" cx="206.23" cy="734.94" r="1.73"/><circle class="cls-17" cx="206.23" cy="743.16" r="1.73"/><circle class="cls-17" cx="206.23" cy="751.39" r="1.73"/><circle class="cls-17" cx="206.23" cy="759.61" r="1.73"/><circle class="cls-17" cx="206.23" cy="767.84" r="1.73"/><circle class="cls-17" cx="206.23" cy="776.06" r="1.73"/><circle class="cls-17" cx="206.23" cy="784.29" r="1.73"/><circle class="cls-17" cx="206.23" cy="792.51" r="1.73"/><circle class="cls-17" cx="206.23" cy="800.74" r="1.73"/><circle class="cls-17" cx="213.66" cy="710.26" r="1.73"/><circle class="cls-17" cx="213.66" cy="718.49" r="1.73"/><circle class="cls-17" cx="213.66" cy="726.71" r="1.73"/><circle class="cls-17" cx="213.66" cy="734.94" r="1.73"/><circle class="cls-17" cx="213.66" cy="743.16" r="1.73"/><circle class="cls-17" cx="213.66" cy="751.39" r="1.73"/><circle class="cls-17" cx="213.66" cy="759.61" r="1.73"/><circle class="cls-17" cx="213.66" cy="767.84" r="1.73"/><circle class="cls-17" cx="213.66" cy="776.06" r="1.73"/><circle class="cls-17" cx="213.66" cy="784.29" r="1.73"/><circle class="cls-17" cx="213.66" cy="792.51" r="1.73"/><circle class="cls-17" cx="213.66" cy="800.74" r="1.73"/><circle class="cls-17" cx="221.09" cy="710.26" r="1.73"/><circle class="cls-17" cx="221.09" cy="718.49" r="1.73"/><circle class="cls-17" cx="221.09" cy="726.71" r="1.73"/><circle class="cls-17" cx="221.09" cy="734.94" r="1.73"/><circle class="cls-17" cx="221.09" cy="743.16" r="1.73"/><circle class="cls-17" cx="221.09" cy="751.39" r="1.73"/><circle class="cls-17" cx="221.09" cy="759.61" r="1.73"/><circle class="cls-17" cx="221.09" cy="767.84" r="1.73"/><circle class="cls-17" cx="221.09" cy="776.06" r="1.73"/><circle class="cls-17" cx="221.09" cy="784.29" r="1.73"/><circle class="cls-17" cx="221.09" cy="792.51" r="1.73"/><circle class="cls-17" cx="221.09" cy="800.74" r="1.73"/><circle class="cls-17" cx="228.52" cy="710.26" r="1.73"/><circle class="cls-17" cx="228.52" cy="718.49" r="1.73"/><circle class="cls-17" cx="228.52" cy="726.71" r="1.73"/><circle class="cls-17" cx="228.52" cy="734.94" r="1.73"/><circle class="cls-17" cx="228.52" cy="743.16" r="1.73"/><circle class="cls-17" cx="228.52" cy="751.39" r="1.73"/><circle class="cls-17" cx="228.52" cy="759.61" r="1.73"/><circle class="cls-17" cx="228.52" cy="767.84" r="1.73"/><circle class="cls-17" cx="228.52" cy="776.06" r="1.73"/><circle class="cls-17" cx="228.52" cy="784.29" r="1.73"/><circle class="cls-17" cx="228.52" cy="792.51" r="1.73"/><circle class="cls-17" cx="228.52" cy="800.74" r="1.73"/><circle class="cls-17" cx="235.94" cy="710.26" r="1.73"/><circle class="cls-17" cx="235.94" cy="718.49" r="1.73"/><circle class="cls-17" cx="235.94" cy="726.71" r="1.73"/><circle class="cls-17" cx="235.94" cy="734.94" r="1.73"/><circle class="cls-17" cx="235.94" cy="743.16" r="1.73"/><circle class="cls-17" cx="235.94" cy="751.39" r="1.73"/><circle class="cls-17" cx="235.94" cy="759.61" r="1.73"/><circle class="cls-17" cx="235.94" cy="767.84" r="1.73"/><circle class="cls-17" cx="235.94" cy="776.06" r="1.73"/><circle class="cls-17" cx="235.94" cy="784.29" r="1.73"/><circle class="cls-17" cx="235.94" cy="792.51" r="1.73"/><circle class="cls-17" cx="235.94" cy="800.74" r="1.73"/><circle class="cls-17" cx="243.37" cy="710.26" r="1.73"/><circle class="cls-17" cx="243.37" cy="718.49" r="1.73"/><circle class="cls-17" cx="243.37" cy="726.71" r="1.73"/><circle class="cls-17" cx="243.37" cy="734.94" r="1.73"/><circle class="cls-17" cx="243.37" cy="743.16" r="1.73"/><circle class="cls-17" cx="243.37" cy="751.39" r="1.73"/><circle class="cls-17" cx="243.37" cy="759.61" r="1.73"/><circle class="cls-17" cx="243.37" cy="767.84" r="1.73"/><circle class="cls-17" cx="243.37" cy="776.06" r="1.73"/><circle class="cls-17" cx="243.37" cy="784.29" r="1.73"/><circle class="cls-17" cx="243.37" cy="792.51" r="1.73"/><circle class="cls-17" cx="243.37" cy="800.74" r="1.73"/><circle class="cls-17" cx="250.8" cy="710.26" r="1.73"/><circle class="cls-17" cx="250.8" cy="718.49" r="1.73"/><circle class="cls-17" cx="250.8" cy="726.71" r="1.73"/><circle class="cls-17" cx="250.8" cy="734.94" r="1.73"/><circle class="cls-17" cx="250.8" cy="743.16" r="1.73"/><circle class="cls-17" cx="250.8" cy="751.39" r="1.73"/><circle class="cls-17" cx="250.8" cy="759.61" r="1.73"/><circle class="cls-17" cx="250.8" cy="767.84" r="1.73"/><circle class="cls-17" cx="250.8" cy="776.06" r="1.73"/><circle class="cls-17" cx="250.8" cy="784.29" r="1.73"/><circle class="cls-17" cx="250.8" cy="792.51" r="1.73"/><circle class="cls-17" cx="250.8" cy="800.74" r="1.73"/><circle class="cls-17" cx="258.22" cy="710.26" r="1.73"/><circle class="cls-17" cx="258.22" cy="718.49" r="1.73"/><circle class="cls-17" cx="258.22" cy="726.71" r="1.73"/><circle class="cls-17" cx="258.22" cy="734.94" r="1.73"/><circle class="cls-17" cx="258.22" cy="743.16" r="1.73"/><circle class="cls-17" cx="258.22" cy="751.39" r="1.73"/><circle class="cls-17" cx="258.22" cy="759.61" r="1.73"/><circle class="cls-17" cx="258.22" cy="767.84" r="1.73"/><circle class="cls-17" cx="258.22" cy="776.06" r="1.73"/><circle class="cls-17" cx="258.22" cy="784.29" r="1.73"/><circle class="cls-17" cx="258.22" cy="792.51" r="1.73"/><circle class="cls-17" cx="258.22" cy="800.74" r="1.73"/><circle class="cls-17" cx="265.65" cy="710.26" r="1.73"/><circle class="cls-17" cx="265.65" cy="718.49" r="1.73"/><circle class="cls-17" cx="265.65" cy="726.71" r="1.73"/><circle class="cls-17" cx="265.65" cy="734.94" r="1.73"/><circle class="cls-17" cx="265.65" cy="743.16" r="1.73"/><circle class="cls-17" cx="265.65" cy="751.39" r="1.73"/><circle class="cls-17" cx="265.65" cy="759.61" r="1.73"/><circle class="cls-17" cx="265.65" cy="767.84" r="1.73"/><circle class="cls-17" cx="265.65" cy="776.06" r="1.73"/><circle class="cls-17" cx="265.65" cy="784.29" r="1.73"/><circle class="cls-17" cx="265.65" cy="792.51" r="1.73"/><circle class="cls-17" cx="265.65" cy="800.74" r="1.73"/><circle class="cls-17" cx="272.66" cy="710.26" r="1.73"/><circle class="cls-17" cx="272.66" cy="718.49" r="1.73"/><circle class="cls-17" cx="272.66" cy="726.71" r="1.73"/><circle class="cls-17" cx="272.66" cy="734.94" r="1.73"/><circle class="cls-17" cx="272.66" cy="743.16" r="1.73"/><circle class="cls-17" cx="272.66" cy="751.39" r="1.73"/><circle class="cls-17" cx="272.66" cy="759.61" r="1.73"/><circle class="cls-17" cx="272.66" cy="767.84" r="1.73"/><circle class="cls-17" cx="272.66" cy="776.06" r="1.73"/><circle class="cls-17" cx="272.66" cy="784.29" r="1.73"/><circle class="cls-17" cx="272.66" cy="792.51" r="1.73"/><circle class="cls-17" cx="272.66" cy="800.74" r="1.73"/><circle class="cls-17" cx="280.09" cy="710.26" r="1.73"/><circle class="cls-17" cx="280.09" cy="718.49" r="1.73"/><circle class="cls-17" cx="280.09" cy="726.71" r="1.73"/><circle class="cls-17" cx="280.09" cy="734.94" r="1.73"/><circle class="cls-17" cx="280.09" cy="743.16" r="1.73"/><circle class="cls-17" cx="280.09" cy="751.39" r="1.73"/><circle class="cls-17" cx="280.09" cy="759.61" r="1.73"/><circle class="cls-17" cx="280.09" cy="767.84" r="1.73"/><circle class="cls-17" cx="280.09" cy="776.06" r="1.73"/><circle class="cls-17" cx="280.09" cy="784.29" r="1.73"/><circle class="cls-17" cx="280.09" cy="792.51" r="1.73"/><circle class="cls-17" cx="280.09" cy="800.74" r="1.73"/><circle class="cls-17" cx="287.51" cy="710.26" r="1.73"/><circle class="cls-17" cx="287.51" cy="718.49" r="1.73"/><circle class="cls-17" cx="287.51" cy="726.71" r="1.73"/><circle class="cls-17" cx="287.51" cy="734.94" r="1.73"/><circle class="cls-17" cx="287.51" cy="743.16" r="1.73"/><circle class="cls-17" cx="287.51" cy="751.39" r="1.73"/><circle class="cls-17" cx="287.51" cy="759.61" r="1.73"/><circle class="cls-17" cx="287.51" cy="767.84" r="1.73"/><circle class="cls-17" cx="287.51" cy="776.06" r="1.73"/><circle class="cls-17" cx="287.51" cy="784.29" r="1.73"/><circle class="cls-17" cx="287.51" cy="792.51" r="1.73"/><circle class="cls-17" cx="287.51" cy="800.74" r="1.73"/><circle class="cls-17" cx="294.94" cy="710.26" r="1.73"/><circle class="cls-17" cx="294.94" cy="718.49" r="1.73"/><circle class="cls-17" cx="294.94" cy="726.71" r="1.73"/><circle class="cls-17" cx="294.94" cy="734.94" r="1.73"/><circle class="cls-17" cx="294.94" cy="743.16" r="1.73"/><circle class="cls-17" cx="294.94" cy="751.39" r="1.73"/><circle class="cls-17" cx="294.94" cy="759.61" r="1.73"/><circle class="cls-17" cx="294.94" cy="767.84" r="1.73"/><circle class="cls-17" cx="294.94" cy="776.06" r="1.73"/><circle class="cls-17" cx="294.94" cy="784.29" r="1.73"/><circle class="cls-17" cx="294.94" cy="792.51" r="1.73"/><circle class="cls-17" cx="294.94" cy="800.74" r="1.73"/><path class="cls-5" d="M323.71,830.64a27.13,27.13,0,0,0,27.13,27.12h92.82a27.13,27.13,0,0,0,27.13-27.12v-17.1H323.71Z"/><path class="cls-18" d="M449.25,525.54a73.54,73.54,0,0,0-125.54,52V809H470.79V577.53A73.28,73.28,0,0,0,449.25,525.54Z"/><rect class="cls-13" x="323.71" y="808.98" width="147.08" height="4.56"/><circle cx="373.18" cy="554.37" r="6.15"/><circle cx="391.1" cy="554.37" r="6.15"/><line class="cls-16" x1="323.71" y1="702.76" x2="470.79" y2="702.76"/><circle class="cls-17" cx="330.39" cy="710.26" r="1.73"/><circle class="cls-17" cx="330.39" cy="718.49" r="1.73"/><circle class="cls-17" cx="330.39" cy="726.71" r="1.73"/><circle class="cls-17" cx="330.39" cy="734.94" r="1.73"/><circle class="cls-17" cx="330.39" cy="743.16" r="1.73"/><circle class="cls-17" cx="330.39" cy="751.39" r="1.73"/><circle class="cls-17" cx="330.39" cy="759.61" r="1.73"/><circle class="cls-17" cx="330.39" cy="767.84" r="1.73"/><circle class="cls-17" cx="330.39" cy="776.06" r="1.73"/><circle class="cls-17" cx="330.39" cy="784.29" r="1.73"/><circle class="cls-17" cx="330.39" cy="792.51" r="1.73"/><circle class="cls-17" cx="330.39" cy="800.74" r="1.73"/><circle class="cls-17" cx="337.82" cy="710.26" r="1.73"/><circle class="cls-17" cx="337.82" cy="718.49" r="1.73"/><circle class="cls-17" cx="337.82" cy="726.71" r="1.73"/><circle class="cls-17" cx="337.82" cy="734.94" r="1.73"/><circle class="cls-17" cx="337.82" cy="743.16" r="1.73"/><circle class="cls-17" cx="337.82" cy="751.39" r="1.73"/><circle class="cls-17" cx="337.82" cy="759.61" r="1.73"/><circle class="cls-17" cx="337.82" cy="767.84" r="1.73"/><circle class="cls-17" cx="337.82" cy="776.06" r="1.73"/><circle class="cls-17" cx="337.82" cy="784.29" r="1.73"/><circle class="cls-17" cx="337.82" cy="792.51" r="1.73"/><circle class="cls-17" cx="337.82" cy="800.74" r="1.73"/><circle class="cls-17" cx="345.24" cy="710.26" r="1.73"/><circle class="cls-17" cx="345.24" cy="718.49" r="1.73"/><circle class="cls-17" cx="345.24" cy="726.71" r="1.73"/><circle class="cls-17" cx="345.24" cy="734.94" r="1.73"/><circle class="cls-17" cx="345.24" cy="743.16" r="1.73"/><circle class="cls-17" cx="345.24" cy="751.39" r="1.73"/><circle class="cls-17" cx="345.24" cy="759.61" r="1.73"/><circle class="cls-17" cx="345.24" cy="767.84" r="1.73"/><circle class="cls-17" cx="345.24" cy="776.06" r="1.73"/><circle class="cls-17" cx="345.24" cy="784.29" r="1.73"/><circle class="cls-17" cx="345.24" cy="792.51" r="1.73"/><circle class="cls-17" cx="345.24" cy="800.74" r="1.73"/><circle class="cls-17" cx="352.67" cy="710.26" r="1.73"/><circle class="cls-17" cx="352.67" cy="718.49" r="1.73"/><circle class="cls-17" cx="352.67" cy="726.71" r="1.73"/><circle class="cls-17" cx="352.67" cy="734.94" r="1.73"/><circle class="cls-17" cx="352.67" cy="743.16" r="1.73"/><circle class="cls-17" cx="352.67" cy="751.39" r="1.73"/><circle class="cls-17" cx="352.67" cy="759.61" r="1.73"/><circle class="cls-17" cx="352.67" cy="767.84" r="1.73"/><circle class="cls-17" cx="352.67" cy="776.06" r="1.73"/><circle class="cls-17" cx="352.67" cy="784.29" r="1.73"/><circle class="cls-17" cx="352.67" cy="792.51" r="1.73"/><circle class="cls-17" cx="352.67" cy="800.74" r="1.73"/><circle class="cls-17" cx="360.1" cy="710.26" r="1.73"/><circle class="cls-17" cx="360.1" cy="718.49" r="1.73"/><circle class="cls-17" cx="360.1" cy="726.71" r="1.73"/><circle class="cls-17" cx="360.1" cy="734.94" r="1.73"/><circle class="cls-17" cx="360.1" cy="743.16" r="1.73"/><circle class="cls-17" cx="360.1" cy="751.39" r="1.73"/><circle class="cls-17" cx="360.1" cy="759.61" r="1.73"/><circle class="cls-17" cx="360.1" cy="767.84" r="1.73"/><circle class="cls-17" cx="360.1" cy="776.06" r="1.73"/><circle class="cls-17" cx="360.1" cy="784.29" r="1.73"/><circle class="cls-17" cx="360.1" cy="792.51" r="1.73"/><circle class="cls-17" cx="360.1" cy="800.74" r="1.73"/><circle class="cls-17" cx="367.53" cy="710.26" r="1.73"/><circle class="cls-17" cx="367.53" cy="718.49" r="1.73"/><circle class="cls-17" cx="367.53" cy="726.71" r="1.73"/><circle class="cls-17" cx="367.53" cy="734.94" r="1.73"/><circle class="cls-17" cx="367.53" cy="743.16" r="1.73"/><circle class="cls-17" cx="367.53" cy="751.39" r="1.73"/><circle class="cls-17" cx="367.53" cy="759.61" r="1.73"/><circle class="cls-17" cx="367.53" cy="767.84" r="1.73"/><circle class="cls-17" cx="367.53" cy="776.06" r="1.73"/><circle class="cls-17" cx="367.53" cy="784.29" r="1.73"/><circle class="cls-17" cx="367.53" cy="792.51" r="1.73"/><circle class="cls-17" cx="367.53" cy="800.74" r="1.73"/><circle class="cls-17" cx="374.95" cy="710.26" r="1.73"/><circle class="cls-17" cx="374.95" cy="718.49" r="1.73"/><circle class="cls-17" cx="374.95" cy="726.71" r="1.73"/><circle class="cls-17" cx="374.95" cy="734.94" r="1.73"/><circle class="cls-17" cx="374.95" cy="743.16" r="1.73"/><circle class="cls-17" cx="374.95" cy="751.39" r="1.73"/><circle class="cls-17" cx="374.95" cy="759.61" r="1.73"/><circle class="cls-17" cx="374.95" cy="767.84" r="1.73"/><circle class="cls-17" cx="374.95" cy="776.06" r="1.73"/><circle class="cls-17" cx="374.95" cy="784.29" r="1.73"/><circle class="cls-17" cx="374.95" cy="792.51" r="1.73"/><circle class="cls-17" cx="374.95" cy="800.74" r="1.73"/><circle class="cls-17" cx="382.38" cy="710.26" r="1.73"/><circle class="cls-17" cx="382.38" cy="718.49" r="1.73"/><circle class="cls-17" cx="382.38" cy="726.71" r="1.73"/><circle class="cls-17" cx="382.38" cy="734.94" r="1.73"/><circle class="cls-17" cx="382.38" cy="743.16" r="1.73"/><circle class="cls-17" cx="382.38" cy="751.39" r="1.73"/><circle class="cls-17" cx="382.38" cy="759.61" r="1.73"/><circle class="cls-17" cx="382.38" cy="767.84" r="1.73"/><circle class="cls-17" cx="382.38" cy="776.06" r="1.73"/><circle class="cls-17" cx="382.38" cy="784.29" r="1.73"/><circle class="cls-17" cx="382.38" cy="792.51" r="1.73"/><circle class="cls-17" cx="382.38" cy="800.74" r="1.73"/><circle class="cls-17" cx="389.81" cy="710.26" r="1.73"/><circle class="cls-17" cx="389.81" cy="718.49" r="1.73"/><circle class="cls-17" cx="389.81" cy="726.71" r="1.73"/><circle class="cls-17" cx="389.81" cy="734.94" r="1.73"/><circle class="cls-17" cx="389.81" cy="743.16" r="1.73"/><circle class="cls-17" cx="389.81" cy="751.39" r="1.73"/><circle class="cls-17" cx="389.81" cy="759.61" r="1.73"/><circle class="cls-17" cx="389.81" cy="767.84" r="1.73"/><circle class="cls-17" cx="389.81" cy="776.06" r="1.73"/><circle class="cls-17" cx="389.81" cy="784.29" r="1.73"/><circle class="cls-17" cx="389.81" cy="792.51" r="1.73"/><circle class="cls-17" cx="389.81" cy="800.74" r="1.73"/><circle class="cls-17" cx="397.23" cy="710.26" r="1.73"/><circle class="cls-17" cx="397.23" cy="718.49" r="1.73"/><circle class="cls-17" cx="397.23" cy="726.71" r="1.73"/><circle class="cls-17" cx="397.23" cy="734.94" r="1.73"/><circle class="cls-17" cx="397.23" cy="743.16" r="1.73"/><circle class="cls-17" cx="397.23" cy="751.39" r="1.73"/><circle class="cls-17" cx="397.23" cy="759.61" r="1.73"/><circle class="cls-17" cx="397.23" cy="767.84" r="1.73"/><circle class="cls-17" cx="397.23" cy="776.06" r="1.73"/><circle class="cls-17" cx="397.23" cy="784.29" r="1.73"/><circle class="cls-17" cx="397.23" cy="792.51" r="1.73"/><circle class="cls-17" cx="397.23" cy="800.74" r="1.73"/><circle class="cls-17" cx="404.66" cy="710.26" r="1.73"/><circle class="cls-17" cx="404.66" cy="718.49" r="1.73"/><circle class="cls-17" cx="404.66" cy="726.71" r="1.73"/><circle class="cls-17" cx="404.66" cy="734.94" r="1.73"/><circle class="cls-17" cx="404.66" cy="743.16" r="1.73"/><circle class="cls-17" cx="404.66" cy="751.39" r="1.73"/><circle class="cls-17" cx="404.66" cy="759.61" r="1.73"/><circle class="cls-17" cx="404.66" cy="767.84" r="1.73"/><circle class="cls-17" cx="404.66" cy="776.06" r="1.73"/><circle class="cls-17" cx="404.66" cy="784.29" r="1.73"/><circle class="cls-17" cx="404.66" cy="792.51" r="1.73"/><circle class="cls-17" cx="404.66" cy="800.74" r="1.73"/><circle class="cls-17" cx="412.09" cy="710.26" r="1.73"/><circle class="cls-17" cx="412.09" cy="718.49" r="1.73"/><circle class="cls-17" cx="412.09" cy="726.71" r="1.73"/><circle class="cls-17" cx="412.09" cy="734.94" r="1.73"/><circle class="cls-17" cx="412.09" cy="743.16" r="1.73"/><circle class="cls-17" cx="412.09" cy="751.39" r="1.73"/><circle class="cls-17" cx="412.09" cy="759.61" r="1.73"/><circle class="cls-17" cx="412.09" cy="767.84" r="1.73"/><circle class="cls-17" cx="412.09" cy="776.06" r="1.73"/><circle class="cls-17" cx="412.09" cy="784.29" r="1.73"/><circle class="cls-17" cx="412.09" cy="792.51" r="1.73"/><circle class="cls-17" cx="412.09" cy="800.74" r="1.73"/><circle class="cls-17" cx="419.52" cy="710.26" r="1.73"/><circle class="cls-17" cx="419.52" cy="718.49" r="1.73"/><circle class="cls-17" cx="419.52" cy="726.71" r="1.73"/><circle class="cls-17" cx="419.52" cy="734.94" r="1.73"/><circle class="cls-17" cx="419.52" cy="743.16" r="1.73"/><circle class="cls-17" cx="419.52" cy="751.39" r="1.73"/><circle class="cls-17" cx="419.52" cy="759.61" r="1.73"/><circle class="cls-17" cx="419.52" cy="767.84" r="1.73"/><circle class="cls-17" cx="419.52" cy="776.06" r="1.73"/><circle class="cls-17" cx="419.52" cy="784.29" r="1.73"/><circle class="cls-17" cx="419.52" cy="792.51" r="1.73"/><circle class="cls-17" cx="419.52" cy="800.74" r="1.73"/><circle class="cls-17" cx="426.94" cy="710.26" r="1.73"/><circle class="cls-17" cx="426.94" cy="718.49" r="1.73"/><circle class="cls-17" cx="426.94" cy="726.71" r="1.73"/><circle class="cls-17" cx="426.94" cy="734.94" r="1.73"/><circle class="cls-17" cx="426.94" cy="743.16" r="1.73"/><circle class="cls-17" cx="426.94" cy="751.39" r="1.73"/><circle class="cls-17" cx="426.94" cy="759.61" r="1.73"/><circle class="cls-17" cx="426.94" cy="767.84" r="1.73"/><circle class="cls-17" cx="426.94" cy="776.06" r="1.73"/><circle class="cls-17" cx="426.94" cy="784.29" r="1.73"/><circle class="cls-17" cx="426.94" cy="792.51" r="1.73"/><circle class="cls-17" cx="426.94" cy="800.74" r="1.73"/><circle class="cls-17" cx="434.37" cy="710.26" r="1.73"/><circle class="cls-17" cx="434.37" cy="718.49" r="1.73"/><circle class="cls-17" cx="434.37" cy="726.71" r="1.73"/><circle class="cls-17" cx="434.37" cy="734.94" r="1.73"/><circle class="cls-17" cx="434.37" cy="743.16" r="1.73"/><circle class="cls-17" cx="434.37" cy="751.39" r="1.73"/><circle class="cls-17" cx="434.37" cy="759.61" r="1.73"/><circle class="cls-17" cx="434.37" cy="767.84" r="1.73"/><circle class="cls-17" cx="434.37" cy="776.06" r="1.73"/><circle class="cls-17" cx="434.37" cy="784.29" r="1.73"/><circle class="cls-17" cx="434.37" cy="792.51" r="1.73"/><circle class="cls-17" cx="434.37" cy="800.74" r="1.73"/><circle class="cls-17" cx="441.38" cy="710.26" r="1.73"/><circle class="cls-17" cx="441.38" cy="718.49" r="1.73"/><circle class="cls-17" cx="441.38" cy="726.71" r="1.73"/><circle class="cls-17" cx="441.38" cy="734.94" r="1.73"/><circle class="cls-17" cx="441.38" cy="743.16" r="1.73"/><circle class="cls-17" cx="441.38" cy="751.39" r="1.73"/><circle class="cls-17" cx="441.38" cy="759.61" r="1.73"/><circle class="cls-17" cx="441.38" cy="767.84" r="1.73"/><circle class="cls-17" cx="441.38" cy="776.06" r="1.73"/><circle class="cls-17" cx="441.38" cy="784.29" r="1.73"/><circle class="cls-17" cx="441.38" cy="792.51" r="1.73"/><circle class="cls-17" cx="441.38" cy="800.74" r="1.73"/><circle class="cls-17" cx="448.81" cy="710.26" r="1.73"/><circle class="cls-17" cx="448.81" cy="718.49" r="1.73"/><circle class="cls-17" cx="448.81" cy="726.71" r="1.73"/><circle class="cls-17" cx="448.81" cy="734.94" r="1.73"/><circle class="cls-17" cx="448.81" cy="743.16" r="1.73"/><circle class="cls-17" cx="448.81" cy="751.39" r="1.73"/><circle class="cls-17" cx="448.81" cy="759.61" r="1.73"/><circle class="cls-17" cx="448.81" cy="767.84" r="1.73"/><circle class="cls-17" cx="448.81" cy="776.06" r="1.73"/><circle class="cls-17" cx="448.81" cy="784.29" r="1.73"/><circle class="cls-17" cx="448.81" cy="792.51" r="1.73"/><circle class="cls-17" cx="448.81" cy="800.74" r="1.73"/><circle class="cls-17" cx="456.23" cy="710.26" r="1.73"/><circle class="cls-17" cx="456.23" cy="718.49" r="1.73"/><circle class="cls-17" cx="456.23" cy="726.71" r="1.73"/><circle class="cls-17" cx="456.23" cy="734.94" r="1.73"/><circle class="cls-17" cx="456.23" cy="743.16" r="1.73"/><circle class="cls-17" cx="456.23" cy="751.39" r="1.73"/><circle class="cls-17" cx="456.23" cy="759.61" r="1.73"/><circle class="cls-17" cx="456.23" cy="767.84" r="1.73"/><circle class="cls-17" cx="456.23" cy="776.06" r="1.73"/><circle class="cls-17" cx="456.23" cy="784.29" r="1.73"/><circle class="cls-17" cx="456.23" cy="792.51" r="1.73"/><circle class="cls-17" cx="456.23" cy="800.74" r="1.73"/><circle class="cls-17" cx="463.66" cy="710.26" r="1.73"/><circle class="cls-17" cx="463.66" cy="718.49" r="1.73"/><circle class="cls-17" cx="463.66" cy="726.71" r="1.73"/><circle class="cls-17" cx="463.66" cy="734.94" r="1.73"/><circle class="cls-17" cx="463.66" cy="743.16" r="1.73"/><circle class="cls-17" cx="463.66" cy="751.39" r="1.73"/><circle class="cls-17" cx="463.66" cy="759.61" r="1.73"/><circle class="cls-17" cx="463.66" cy="767.84" r="1.73"/><circle class="cls-17" cx="463.66" cy="776.06" r="1.73"/><circle class="cls-17" cx="463.66" cy="784.29" r="1.73"/><circle class="cls-17" cx="463.66" cy="792.51" r="1.73"/><circle class="cls-17" cx="463.66" cy="800.74" r="1.73"/><ellipse class="cls-4" cx="381.49" cy="583.93" rx="17.7" ry="21.05"/><path d="M383.08,577.07a1.84,1.84,0,0,1-3.19,0l-1.8-3.12-1.84-3.18a1.8,1.8,0,0,1,1.56-2.7h7.35a1.8,1.8,0,0,1,1.56,2.7L384.88,574Z"/><polyline class="cls-19" points="374.68 591.24 381.49 585.65 381.49 568.93"/><line class="cls-19" x1="381.49" y1="585.65" x2="386.96" y2="591.24"/><circle class="cls-18" cx="438.81" cy="515.11" r="15.27"/><circle class="cls-18" cx="359.89" cy="511.22" r="15.27"/><path class="cls-20" d="M448.06,522.38,427.71,510a11.91,11.91,0,0,1,20.35,12.37Z"/><path class="cls-20" d="M370.78,505.91,350,517.58a11.91,11.91,0,0,1,20.76-11.67Z"/></g><g id="책상"><rect class="cls-21" y="857.76" width="1000" height="47.41"/><rect class="cls-21" y="905.17" width="67.02" height="94.83"/><rect class="cls-21" x="804.88" y="905.17" width="67.02" height="94.83"/><polygon class="cls-22" points="1000 857.76 1000 905.17 871.9 905.17 871.9 1000 838.39 1000 838.39 857.76 1000 857.76"/><rect class="cls-23" x="67.02" y="905.17" width="737.86" height="94.83"/><rect class="cls-24" x="871.9" y="905.17" width="128.1" height="94.83"/><rect class="cls-22" x="33.51" y="905.17" width="33.51" height="94.83"/></g></svg>