<svg xmlns="http://www.w3.org/2000/svg" viewBox="0 0 1000 1000"><defs><style>.cls-1{fill:#ffe3ec;}.cls-2{fill:#ffcbdc;}.cls-3{fill:#ffb5cd;}.cls-4{fill:#fff;}.cls-5{fill:#2d2d37;}.cls-13,.cls-6,.cls-8{fill:none;stroke-linecap:round;stroke-linejoin:round;stroke-width:5px;}.cls-6{stroke:#ffcbdc;}.cls-7{fill:#bfab9b;}.cls-13,.cls-8{stroke:#dadada;}.cls-9{fill:#ffe4ee;}.cls-10{fill:#c8ccce;}.cls-11{fill:#d5d8db;}.cls-12{fill:#e8ebef;}.cls-13{opacity:0.4;}.cls-14{fill:#dadada;}.cls-15{fill:#c6c6c6;}.cls-16{fill:#897c74;}.cls-17{fill:#706661;}.cls-18{fill:#7f736c;}.cls-19{fill:#665e5a;}</style></defs><g id="얼굴"><path class="cls-1" d="M780,364.52s1,36-33,42v117H589V473.91s-37-14.39-47-57.39c0,0-.39,0-1.08.05-6,.16-34.92-.68-34.92-32.05,0-35,17.26-38.46,17.26-38.46S515,209.21,643,210.86,782,336.52,780,364.52Z"/></g><g id="표정"><path class="cls-2" d="M589,473.91s76,22.61,123-18.39l-28,68H589Z"/><path class="cls-3" d="M728.44,421.57s-26.82-20.18-49.06.95c-27.36,26-4.06,52.52-4.06,52.52s18.31-3.63,36.7-19.52A76.87,76.87,0,0,0,728.44,421.57Z"/><path class="cls-3" d="M589,473.91s-37-14.39-47-57.39c0,0-.39,0-1.08.05l1.57-1.05s27.51-12,43,15.08C599.6,455.2,589,473.91,589,473.91Z"/><path class="cls-3" d="M675.32,475s18.31-3.63,36.7-19.52a76.87,76.87,0,0,0,16.42-33.95"/><ellipse class="cls-4" cx="668.21" cy="394.52" rx="21.5" ry="26"/><ellipse class="cls-5" cx="664.56" cy="394.52" rx="15.72" ry="20.43"/><ellipse class="cls-4" cx="589.02" cy="394.52" rx="21.5" ry="26"/><ellipse class="cls-5" cx="585.37" cy="394.52" rx="15.72" ry="20.43"/><path class="cls-6" d="M754.8,356.75v28.49s-.69-21.42,11.85-23"/><path class="cls-6" d="M529.74,361.54s4.63,36.24,9.72,47.41"/></g><g id="머리카락"><path class="cls-5" d="M780,364.52c0-39-43-41-42,2,0,0-20-7-41-7s-43-17-43-17,2,9,4,12c0,0-43,18-72-14,0,0-2,4.6,0,13.8,0,0-97,30.2-87-91.8s145-115,162-108c0,0,96-22,135,64,0,0,21,41,12,80S780,364.52,780,364.52Z"/></g><g id="와이셔츠_뒷면" data-name="와이셔츠 뒷면"><polyline class="cls-4" points="566.05 539.43 767.63 539.43 747.46 649.73 661.75 660.07 599.45 632.71 575.44 592.9 566.05 539.43"/></g><g id="넥타이"><polygon class="cls-5" points="643.12 564.38 650.52 586.06 629.84 643.5 701.88 643.5 684.09 586.06 690.89 564.24 666.07 516.77 643.12 564.38"/></g><g id="조끼"><path class="cls-7" d="M883,988.77c-1.82-75.68-25.83-423.24-25.83-423.24-26.14-11.8-86.1-32.7-86.1-32.7S743.64,643.44,667.27,643.44h0c-76.36,0-103.79-110.61-103.79-110.61s-59.94,20.9-86.08,32.7c0,0-24,347.56-25.84,423.24Z"/></g><g id="와이셔츠_깃" data-name="와이셔츠 깃"><path class="cls-4" d="M666.84,525.12,679.2,556a13.09,13.09,0,0,0,14,8.1l65.5-13.94c6-1.42,15.62-8.22,11.89-17.28L747,492.3a336.48,336.48,0,0,1-80.17,9.42Z"/><path class="cls-4" d="M666.84,525.12,654.49,556a13.1,13.1,0,0,1-14,8.1L575,550.17c-6-1.42-15.62-8.22-11.9-17.28l23.62-40.59a336.48,336.48,0,0,0,80.17,9.42Z"/><line class="cls-8" x1="694.5" y1="563.49" x2="755.19" y2="550.99"/><line class="cls-8" x1="637.54" y1="563.49" x2="577.49" y2="550.71"/></g><g id="손"><path class="cls-9" d="M623.18,715.54c-12.3-1.4-29.17-4.49-40.25-6.64a125.18,125.18,0,0,0-24-2.3c-10.46-.44-23.07,7.35-23.07,7.35h0l-16.83-.28-99.21-2.87a18.4,18.4,0,1,0-1.06,36.79l52.32,1.51a18.36,18.36,0,0,0,2.07,31.59A18.39,18.39,0,0,0,480,816l56.86,1.64,6,35.23L608,854.7l36,1,4-139.48Z"/></g><g id="팔"><path class="cls-4" d="M477.41,565.52l-24.1,434.57H340.57c6.16-368,135.8-434,136.83-434.56Z"/><path class="cls-8" d="M352.76,840.25c23.46-159.39,74.49-229.91,103.46-258.11"/><path class="cls-4" d="M898.06,923.41c-42.81,5.16-40.92-357.88-40.92-357.88s89,56.33,110.31,164.66a1.55,1.55,0,0,0,0,.21C969,737.23,1004.81,910.56,898.06,923.41Z"/><path class="cls-4" d="M731.47,613.18H871a0,0,0,0,1,0,0V898.06a69.75,69.75,0,0,1-69.75,69.75h0a69.75,69.75,0,0,1-69.75-69.75V613.18a0,0,0,0,1,0,0Z" transform="translate(-12.07 1568.57) rotate(-88.35)"/><path class="cls-4" d="M967.08,730.46a1.55,1.55,0,0,1,0-.21A1.76,1.76,0,0,1,967.08,730.46Z"/></g><g id="선"><line class="cls-8" x1="669.06" y1="806.37" x2="671.37" y2="726.62"/><path class="cls-8" d="M877,580.66c27.51,23.4,75.54,73.74,90.47,149.53a1.55,1.55,0,0,0,0,.21c.81,3.8,12.29,59.24,3.87,109.85"/><line class="cls-8" x1="867.2" y1="726.62" x2="903.93" y2="735.96"/><line class="cls-8" x1="755.19" y1="497.72" x2="767.63" y2="525.07"/></g><g id="책상_위_사물" data-name="책상 위 사물"><rect class="cls-10" x="86.12" y="843.26" width="682.26" height="14.73"/><rect class="cls-11" x="86.12" y="843.26" width="463.4" height="14.73"/><polygon class="cls-10" points="561.83 843.25 98.6 843.25 51.37 541.5 514.6 541.5 561.83 843.25"/><polygon class="cls-12" points="549.35 843.25 86.12 843.25 38.89 541.5 502.12 541.5 549.35 843.25"/><rect class="cls-13" x="110.26" y="110.28" width="232.87" height="74.8" rx="16.75"/><rect class="cls-14" x="170.3" y="124.05" width="143.15" height="17.63"/><rect class="cls-14" x="170.3" y="150.34" width="119.59" height="7.32"/><rect class="cls-14" x="170.3" y="162.49" width="119.59" height="8.81"/><rect class="cls-13" x="110.26" y="305.04" width="232.87" height="74.8" rx="16.75"/><rect class="cls-14" x="170.3" y="318.81" width="143.15" height="17.63"/><rect class="cls-14" x="170.3" y="345.1" width="119.59" height="7.32"/><rect class="cls-14" x="170.3" y="357.26" width="119.59" height="8.81"/><rect class="cls-13" x="181.38" y="207.66" width="232.87" height="74.8" rx="16.75" transform="translate(595.63 490.12) rotate(-180)"/><rect class="cls-14" x="211.07" y="221.43" width="143.15" height="17.63" transform="translate(565.28 460.49) rotate(-180)"/><rect class="cls-14" x="211.07" y="247.72" width="119.59" height="7.32" transform="translate(541.72 502.76) rotate(-180)"/><rect class="cls-14" x="211.07" y="259.88" width="119.59" height="8.81" transform="translate(541.72 528.57) rotate(-180)"/><path class="cls-13" d="M397.51,411.17H198.13a16.74,16.74,0,0,0-16.75,16.74v41.31A16.75,16.75,0,0,0,198.13,486h160l-4.48,35L386,486h11.47a16.74,16.74,0,0,0,16.74-16.75V427.91A16.73,16.73,0,0,0,397.51,411.17Z"/><rect class="cls-14" x="211.07" y="424.94" width="143.15" height="17.63" transform="translate(565.28 867.5) rotate(-180)"/><rect class="cls-14" x="211.07" y="451.23" width="119.59" height="7.32" transform="translate(541.72 909.77) rotate(-180)"/><rect class="cls-14" x="211.07" y="463.38" width="119.59" height="8.81" transform="translate(541.72 935.58) rotate(-180)"/><rect class="cls-15" x="67.21" y="67.23" width="89.75" height="89.75" rx="20.82"/><path class="cls-4" d="M126,79.15H98.16a19,19,0,0,0-19,19V126a19,19,0,0,0,19,19H126a19,19,0,0,0,19-19V98.17a19,19,0,0,0-19-19m13,47.37a12.64,12.64,0,0,1-12.63,12.63H97.83a12.63,12.63,0,0,1-12.62-12.63V98A12.63,12.63,0,0,1,97.83,85.38h28.51A12.64,12.64,0,0,1,139,98Z"/><path class="cls-4" d="M112.09,95.17a17.1,17.1,0,1,0,17.09,17.09,17.09,17.09,0,0,0-17.09-17.09m0,28.18a11.09,11.09,0,1,1,11.08-11.09,11.08,11.08,0,0,1-11.08,11.09"/><path class="cls-4" d="M129.75,90.53a4,4,0,1,0,4,4,4,4,0,0,0-4-4"/><rect class="cls-15" x="369.67" y="165.98" width="89.75" height="89.75" rx="20.82"/><polygon class="cls-4" points="390.55 232.73 406.62 232.73 406.62 210.39 422.01 232.73 438.54 232.73 438.54 188.97 422.47 188.97 422.47 211.53 406.97 188.97 390.55 188.97 390.55 232.73"/><rect class="cls-15" x="65.29" y="260.26" width="89.75" height="89.75" rx="20.82"/><path class="cls-4" d="M128.4,286.79H92a8.84,8.84,0,0,0-8.85,8.84v19A8.85,8.85,0,0,0,92,323.49H128.4a8.84,8.84,0,0,0,8.84-8.85v-19A8.84,8.84,0,0,0,128.4,286.79ZM104,311.8V298.47l12.42,6.67Z"/><rect class="cls-15" x="369.38" y="369.19" width="89.75" height="89.75" rx="20.82"/><path class="cls-4" d="M445,390.56v12H434.62a1.63,1.63,0,0,0-1.63,1.63v10.68h12l-1.36,12.31H433v31.8H419.31v-31.8h-8.66V414.72h9.12V403.14a12.58,12.58,0,0,1,12.58-12.58Z"/></g><g id="책상"><rect class="cls-16" y="857.98" width="1000" height="47.41"/><rect class="cls-16" y="905.4" width="67.02" height="94.83"/><rect class="cls-16" x="804.88" y="905.39" width="67.02" height="94.83"/><polygon class="cls-17" points="1000 857.98 1000 905.39 871.9 905.39 871.9 1000.22 838.39 1000.22 838.39 857.98 1000 857.98"/><rect class="cls-18" x="67.02" y="905.39" width="737.86" height="94.83"/><rect class="cls-19" x="871.9" y="905.39" width="128.1" height="94.83"/><rect class="cls-17" x="33.51" y="905.39" width="33.51" height="94.83"/></g></svg>