<svg xmlns="http://www.w3.org/2000/svg" xmlns:xlink="http://www.w3.org/1999/xlink" viewBox="0 0 1000 1000"><defs><style>.cls-1,.cls-19,.cls-7,.cls-9{fill:none;}.cls-2{fill:#ffe3ec;}.cls-3{fill:#ffcbdc;}.cls-4{fill:#ffb5cd;}.cls-5{fill:#fff;}.cls-6{fill:#2d2d37;}.cls-7{stroke:#ffcbdc;}.cls-19,.cls-7,.cls-9{stroke-linecap:round;stroke-linejoin:round;stroke-width:5px;}.cls-8{fill:#bfab9b;}.cls-19,.cls-9{stroke:#dadada;}.cls-10{fill:#e8ebef;}.cls-11{fill:#383842;}.cls-12{fill:#2b2b33;}.cls-13{fill:#43434c;}.cls-14{isolation:isolate;}.cls-15{clip-path:url(#clip-path);}.cls-16{fill:#96969b;}.cls-17{fill:#cbcbcd;}.cls-18{fill:#ffe4ee;}.cls-19{opacity:0.4;}.cls-20{fill:#dadada;}.cls-21{fill:#c6c6c6;}.cls-22{fill:#897c74;}.cls-23{fill:#706661;}.cls-24{fill:#7f736c;}.cls-25{fill:#665e5a;}</style><clipPath id="clip-path"><polygon class="cls-1" points="523.6 636.1 522.91 614.88 558.9 616.14 559.59 637.35 523.6 636.1"/></clipPath></defs><g id="얼굴"><path class="cls-2" d="M775.26,364.3s1,36-33,42v117h-158V473.69s-37-14.39-47-57.39c0,0-.39,0-1.08.05-6,.16-34.92-.68-34.92-32.05,0-35,17.26-38.46,17.26-38.46S510.26,209,638.26,210.64,777.26,336.3,775.26,364.3Z"/></g><g id="표정"><path class="cls-3" d="M584.26,473.69s76,22.61,123-18.39l-28,68h-95Z"/><path class="cls-4" d="M723.68,421.35s-26.82-20.18-49.06.95c-27.36,26-4.06,52.52-4.06,52.52s18.31-3.64,36.7-19.52A76.91,76.91,0,0,0,723.68,421.35Z"/><path class="cls-4" d="M584.26,473.69s-37-14.39-47-57.39c0,0-.39,0-1.08.05l1.57-1.05s27.51-12,43,15.08C594.84,455,584.26,473.69,584.26,473.69Z"/><path class="cls-4" d="M670.56,474.82s18.31-3.64,36.7-19.52a76.91,76.91,0,0,0,16.42-33.95"/><ellipse class="cls-5" cx="663.45" cy="394.3" rx="21.5" ry="26"/><ellipse class="cls-6" cx="659.8" cy="394.3" rx="15.72" ry="20.43"/><ellipse class="cls-5" cx="584.26" cy="394.3" rx="21.5" ry="26"/><ellipse class="cls-6" cx="580.61" cy="394.3" rx="15.72" ry="20.43"/><path class="cls-7" d="M750,356.53V385s-.68-21.43,11.86-23"/><path class="cls-7" d="M525,361.31s4.63,36.25,9.72,47.42"/></g><g id="머리카락"><path class="cls-6" d="M775.26,364.3c0-39-43-41-42,2,0,0-20-7-41-7s-43-17-43-17,2,9,4,12c0,0-43,18-72-14,0,0-2,4.59,0,13.8,0,0-97,30.2-87-91.8s145-115,162-108c0,0,96-22,135,64,0,0,21,41,12,80S775.26,364.3,775.26,364.3Z"/></g><g id="와이셔츠_뒷면" data-name="와이셔츠 뒷면"><polyline class="cls-5" points="561.29 539.2 762.87 539.2 742.7 649.51 656.99 659.84 594.69 632.49 570.68 592.68 561.29 539.2"/></g><g id="넥타이"><polygon class="cls-6" points="638.36 564.15 645.76 585.84 625.08 643.28 697.12 643.28 679.33 585.84 686.13 564.01 661.31 516.54 638.36 564.15"/></g><g id="조끼"><path class="cls-8" d="M878.22,988.54c-1.82-75.67-25.83-423.23-25.83-423.23-26.14-11.81-86.1-32.71-86.1-32.71S738.87,643.22,662.51,643.22h0c-76.36,0-103.79-110.62-103.79-110.62s-60,20.9-86.08,32.71c0,0-24,347.56-25.84,423.23Z"/></g><g id="와이셔츠_깃" data-name="와이셔츠 깃"><path class="cls-5" d="M662.08,524.9l12.35,30.89a13.11,13.11,0,0,0,14.05,8.1L754,549.94c6-1.41,15.62-8.21,11.89-17.27l-23.62-40.59a336.48,336.48,0,0,1-80.17,9.42Z"/><path class="cls-5" d="M662.08,524.9l-12.35,30.89a13.11,13.11,0,0,1-14.05,8.1l-65.5-13.95c-6-1.41-15.61-8.21-11.89-17.27l23.62-40.59a336.48,336.48,0,0,0,80.17,9.42Z"/><line class="cls-9" x1="689.74" y1="563.27" x2="750.43" y2="550.77"/><line class="cls-9" x1="632.78" y1="563.27" x2="572.73" y2="550.48"/></g><g id="중간소품"><polygon class="cls-10" points="747.71 848.19 562.89 848.19 514.6 589.95 699.42 589.95 747.71 848.19"/><polygon class="cls-11" points="737.03 856.74 552.21 856.74 503.92 598.5 688.74 598.5 737.03 856.74"/><polygon class="cls-12" points="688.74 598.5 699.42 589.95 747.71 848.19 737.03 856.74 688.74 598.5"/><polygon class="cls-13" points="503.92 598.5 514.6 589.95 699.42 589.95 688.74 598.5 503.92 598.5"/><g class="cls-14"><g class="cls-15"><path class="cls-6" d="M534.34,632.14a6.9,6.9,0,0,1-6.63-6.5,5.87,5.87,0,0,1,6.23-6,6.9,6.9,0,0,1,6.63,6.5,5.87,5.87,0,0,1-6.23,6m-.5-15.61a8.73,8.73,0,0,0-9.27,9,10.27,10.27,0,0,0,9.87,9.67,8.74,8.74,0,0,0,9.28-9,10.29,10.29,0,0,0-9.88-9.67"/><path class="cls-5" d="M534.44,635.2a10.27,10.27,0,0,1-9.87-9.67,8.73,8.73,0,0,1,9.27-9,10.29,10.29,0,0,1,9.88,9.67,8.74,8.74,0,0,1-9.28,9m-.65-19.94a9.92,9.92,0,0,0-10.53,10.23,11.67,11.67,0,0,0,11.22,11A9.93,9.93,0,0,0,545,626.25a11.68,11.68,0,0,0-11.23-11"/><path class="cls-16" d="M531.52,625.05a1.66,1.66,0,0,1-1.59-1.56,1.41,1.41,0,0,1,1.49-1.44A1.65,1.65,0,0,1,533,623.6a1.4,1.4,0,0,1-1.49,1.45m2.42-5.46a5.87,5.87,0,0,0-6.23,6,6.9,6.9,0,0,0,6.63,6.5,5.87,5.87,0,0,0,6.23-6,6.9,6.9,0,0,0-6.63-6.5"/><path class="cls-17" d="M531.42,622.05a1.41,1.41,0,0,0-1.49,1.44,1.66,1.66,0,0,0,1.59,1.56A1.4,1.4,0,0,0,533,623.6a1.65,1.65,0,0,0-1.59-1.55"/><path class="cls-5" d="M554.27,621.87a4.39,4.39,0,0,0-4.68,4.54,5.17,5.17,0,0,0,5,4.87,4.4,4.4,0,0,0,4.68-4.53,5.18,5.18,0,0,0-5-4.88"/></g></g></g><g id="손"><path class="cls-18" d="M661.57,749.16h0a18.4,18.4,0,0,1,18.4,18.4V926.49a2.5,2.5,0,0,1-2.5,2.5H645.66a2.5,2.5,0,0,1-2.5-2.5V767.56a18.4,18.4,0,0,1,18.4-18.4Z" transform="translate(-177.5 1500.64) rotate(-90)"/><path class="cls-18" d="M653.29,711.53h0a18.4,18.4,0,0,1,18.4,18.4V894a2.5,2.5,0,0,1-2.5,2.5H637.38a2.5,2.5,0,0,1-2.5-2.5V729.94a18.4,18.4,0,0,1,18.4-18.4Z" transform="translate(-150.74 1457.32) rotate(-90)"/><path class="cls-18" d="M651.62,676.59h0A18.4,18.4,0,0,1,670,695V862.42a2.5,2.5,0,0,1-2.5,2.5H635.71a2.5,2.5,0,0,1-2.5-2.5V695a18.4,18.4,0,0,1,18.4-18.4Z" transform="translate(-119.13 1422.37) rotate(-90)"/><path class="cls-18" d="M656.27,644.09h0a18.4,18.4,0,0,1,18.4,18.4V828.36a2.5,2.5,0,0,1-2.5,2.5H640.37a2.5,2.5,0,0,1-2.5-2.5V662.49A18.4,18.4,0,0,1,656.27,644.09Z" transform="translate(-81.2 1393.74) rotate(-90)"/><polygon class="cls-18" points="672.52 719.07 700.33 857.47 765.52 857.47 801.53 857.47 801.53 717.94 765.52 717.94 672.52 719.07"/><path class="cls-5" d="M859.14,638.28h139.5a0,0,0,0,1,0,0V867.41a69.75,69.75,0,0,1-69.75,69.75h0a69.75,69.75,0,0,1-69.75-69.75V638.28A0,0,0,0,1,859.14,638.28Z" transform="translate(141.17 1716.61) rotate(-90)"/><line class="cls-9" x1="825.13" y1="807.41" x2="825.13" y2="727.62"/><line class="cls-7" x1="655.74" y1="820.67" x2="586.24" y2="820.67"/><line class="cls-7" x1="654.71" y1="787.39" x2="579.19" y2="787.39"/><line class="cls-7" x1="654.71" y1="752.35" x2="579.19" y2="752.35"/><polygon class="cls-18" points="779.45 717.97 717.18 684.93 725.16 727.62 779.45 717.97"/><polygon class="cls-5" points="135.34 565.3 151.44 589.95 115.66 594.23 135.34 565.3"/></g><g id="팔"><path class="cls-9" d="M346.87,702.12c31.25-53.67,80.23-102,106.56-128.22"/><path class="cls-9" d="M333.66,727.62a273.3,273.3,0,0,1,13.21-25.5"/><path class="cls-5" d="M853.14,565.3l24.1,434.57,201.09-212.15c-16.44-161.9-224.15-221.89-225.18-222.41Z"/><path class="cls-9" d="M875.54,573.16c57.53,22.1,113,54.37,152.93,102.18,32.77,39.25,71.82,102.33,36.9,152.2a70.07,70.07,0,0,1-24.6,22.07"/><path class="cls-5" d="M962.32,730.24a1.55,1.55,0,0,1,0-.21A1.76,1.76,0,0,1,962.32,730.24Z"/><line class="cls-9" x1="870.42" y1="717.94" x2="962.32" y2="721.17"/><polygon class="cls-18" points="114.18 549.21 153.06 571.43 230.41 474.9 222.28 465.7 212.58 435.68 163.69 477.27 111.12 506.45 114.18 549.21"/><path class="cls-18" d="M171,535.65a2.49,2.49,0,0,1-2.91.55l-4.39-2.11L123,514.57l-.35,1.37c1.77,3.48,2.65,8.46-.39,14.79a19.76,19.76,0,0,1-5.11,6.82h0l-3,11.65L61.7,524a18.41,18.41,0,0,1,8-35H70a18.18,18.18,0,0,1,7.6,1.81L79.94,492l37.6,18,0,0,.06,0,5.8,2.78,41.71,20Z"/><path class="cls-18" d="M185.39,505.64a2.33,2.33,0,0,1-.22.71l-7.66,16L171.41,535a2.42,2.42,0,0,1-.42.62,2.49,2.49,0,0,1-2.91.55l-4.39-2.11L123,514.57l-1.7-.82L71.72,490A16.35,16.35,0,0,1,70,489,18.41,18.41,0,0,1,79.7,455h.08a18.31,18.31,0,0,1,7.86,1.82l44.61,21.41,5.56,2.66h0L184,503A2.5,2.5,0,0,1,185.39,505.64Z"/><path class="cls-18" d="M230.41,474.9,200.3,485.66a2.48,2.48,0,0,1-3.18-1.53l-.54-1.56-2.7-7.81h0l-1.53-4.41v0l-.08-.25-13.1-37.87h0L177,425.81l-.17-.49-2.21-6.38h0L162,382.61a18.72,18.72,0,0,1,11.38-23.7,18.26,18.26,0,0,1,23.46,11.25l20.88,60.41,0,.05h0L223.41,447h0L232,471.69A2.52,2.52,0,0,1,230.41,474.9Z"/><path class="cls-18" d="M199.57,476.35l-.44.92h0l-2.54,5.29L185.8,505a2.61,2.61,0,0,1-.41.61,2.49,2.49,0,0,1-2.92.56l-47.69-22.89h0l-3.41-1.64L86.12,460a18.4,18.4,0,0,1,4.63-34.69,17.74,17.74,0,0,1,3.34-.31,18.38,18.38,0,0,1,8,1.82l38.58,18.51L192.11,470l.15.07L198.4,473A2.5,2.5,0,0,1,199.57,476.35Z"/><path class="cls-18" d="M122.77,322.82h0a18.4,18.4,0,0,1,18.4,18.4v173.9a2.5,2.5,0,0,1-2.5,2.5H106.86a2.5,2.5,0,0,1-2.5-2.5V341.23A18.4,18.4,0,0,1,122.77,322.82Z" transform="translate(-309.2 349.1) rotate(-64.36)"/><path class="cls-18" d="M122.65,515.94c1.77,3.48,2.65,8.46-.39,14.79a19.76,19.76,0,0,1-5.11,6.82Z"/><path class="cls-18" d="M230.41,474.9,200.3,485.66a2.48,2.48,0,0,1-3.18-1.53l-.54-1.56L185.8,505a2.61,2.61,0,0,1-.41.61,2.33,2.33,0,0,1-.22.71l-7.66,16L171.41,535a2.42,2.42,0,0,1-.42.62,2.49,2.49,0,0,1-2.91.55l-4.39-2.11L123,514.57l.44-1.74.67-2.64,7.25-28.52.4-1.56.49-1.92,7.48-29.42.45-1.73.44-1.75L149,412.4l.24.11L168,421.22l.24.11.42.2,8.16,3.79,8.61,4,15.85,7.37L223.41,447h0L232,471.69A2.52,2.52,0,0,1,230.41,474.9Z"/><path class="cls-18" d="M174.55,418.93s-1.23,4.89-6.35,2.4,15.08,14.35,15.08,14.35L187.81,422Z"/><path class="cls-7" d="M104.07,540.45a14.78,14.78,0,0,0,13.08-2.89c8.89-8.81,5.5-21.62,5.5-21.62a15.38,15.38,0,0,0-1.35-2.19,16.41,16.41,0,0,0-3.66-3.7l-.06,0,0,0-37.6-18"/><path class="cls-7" d="M117.54,510s11.74,3.71,18.18-9.72-4.7-20.72-4.7-20.72L90.74,460.22"/><path class="cls-7" d="M132.87,480.44s11.74,3.7,18.19-9.72S146.35,450,146.35,450l-41.21-19.78"/><path class="cls-7" d="M178,437.11s8.16,31.39,21.16,40.16"/><path class="cls-18" d="M177.51,522.32,171.41,535a2.42,2.42,0,0,1-.42.62,2.49,2.49,0,0,1-2.91.55l-4.39-2.11,1.46-1.25Z"/><polygon class="cls-18" points="153.06 571.43 156.02 584.49 257.53 549.21 231.95 471.69 153.06 571.43"/><line class="cls-1" x1="242.7" y1="527.96" x2="238.98" y2="524.31"/><line class="cls-9" x1="217.12" y1="847.14" x2="153.62" y2="598.73"/><line class="cls-9" x1="325.41" y1="725.16" x2="271.9" y2="567.26"/><path class="cls-9" d="M330.54,781.11c0-14.59.07-29.2-1-43.76"/><line class="cls-9" x1="196.27" y1="635.85" x2="271.9" y2="613.97"/><line class="cls-9" x1="386.65" y1="884.7" x2="432.13" y2="839.8"/></g><g id="선"><line class="cls-7" x1="741.1" y1="717.94" x2="688.74" y2="717.94"/></g><g id="책상_위_사물" data-name="책상 위 사물"><path class="cls-19" d="M240.57,296.54H440a16.75,16.75,0,0,1,16.75,16.75V354.6A16.74,16.74,0,0,1,440,371.34h-9.74l4.48,35.05-32.43-35.05H240.57a16.74,16.74,0,0,1-16.75-16.74V313.29A16.75,16.75,0,0,1,240.57,296.54Z"/><rect class="cls-20" x="248.34" y="311.33" width="164.37" height="13.78"/><rect class="cls-20" x="248.34" y="337.62" width="137.31" height="7.32"/><rect class="cls-20" x="248.34" y="349.78" width="137.31" height="8.81"/><path class="cls-19" d="M174.84,174.37H409.41a22.21,22.21,0,0,1,22.21,22.21v54.79a22.21,22.21,0,0,1-22.21,22.21H145a22.21,22.21,0,0,1-22.21-22.21v-7.89"/><rect class="cls-20" x="194.45" y="193.98" width="182.03" height="18.28"/><rect class="cls-20" x="194.45" y="228.85" width="152.07" height="9.71"/><rect class="cls-20" x="194.45" y="244.97" width="152.07" height="11.69"/><path class="cls-21" d="M133.79,210h-3.28a8.21,8.21,0,0,1-.67-1.23c-.68-1.93-1.32-3.87-2-5.81a1.59,1.59,0,0,0-1.35-1.21,21.66,21.66,0,0,1-2.79-.62,1.69,1.69,0,0,0-1.91.57c-1.46,1.53-3,3-4.44,4.54a1.16,1.16,0,0,1-1.63.21c-1.56-.91-3.15-1.77-4.73-2.65a1.21,1.21,0,0,1-.69-1.59c.57-2.07,1-4.16,1.61-6.23a1.53,1.53,0,0,0-.43-1.66,24.21,24.21,0,0,1-2-2.08,1.9,1.9,0,0,0-2.1-.62c-1.92.47-3.86.86-5.78,1.33a1.39,1.39,0,0,1-1.88-.86c-.68-1.48-1.46-2.93-2.26-4.36a1.52,1.52,0,0,1,.38-2.21c1.53-1.3,3-2.74,4.45-4.08a1.84,1.84,0,0,0,.65-1.91,24.39,24.39,0,0,0-.56-2.7,2,2,0,0,0-.94-1.19c-2.35-.92-4.73-1.72-7.11-2.57v-2.46c.21-1.37.46-2.73.6-4.11A1.41,1.41,0,0,1,96.39,165a41,41,0,0,1,4.23-.7c2.47-.08,3.74-1.33,4.33-3.6a1.91,1.91,0,0,0-.24-1.89c-1.31-1.67-2.56-3.37-3.85-5.05a1.17,1.17,0,0,1,0-1.65c1.22-1.47,2.46-2.93,3.61-4.45a1.38,1.38,0,0,1,1.94-.47c1.46.64,3,1.09,4.42,1.86a3.55,3.55,0,0,0,4.6-.5,2.05,2.05,0,0,0,.91-1.88c-.19-2-.32-4.09-.51-6.13a1.28,1.28,0,0,1,1-1.56c1.92-.61,3.83-1.22,5.72-1.91a1.22,1.22,0,0,1,1.65.53c.92,1.36,2,2.62,2.78,4.05.93,1.66,2.08,2.46,4,2.08.66-.13,1.11-.25,1.43-.88,1-1.88,2-3.72,3-5.6a1.32,1.32,0,0,1,1.79-.81,55.65,55.65,0,0,0,5.57,1.32,1.56,1.56,0,0,1,1.48,1.8c0,2,.1,4,.18,5.94a2.82,2.82,0,0,0,4,2.23c1.79-1,3.59-2,5.36-3a1.34,1.34,0,0,1,1.89.27c1.33,1.42,2.69,2.82,4.1,4.16a1.5,1.5,0,0,1,.22,2.23c-1.09,1.69-2.06,3.46-3.12,5.17a1.64,1.64,0,0,0,0,1.91,8.32,8.32,0,0,0,.76,1.33,2,2,0,0,0,1.14.69c2,.2,4,.33,6,.43,1.76.09,1.81.12,2.2,1.85s.83,3.41,1.25,5.12v1.23c-1.69.86-3.32,1.85-5.08,2.56s-2.79,1.8-2.6,3.89a2.23,2.23,0,0,0,1,1.86c1.72,1.22,3.4,2.51,5.12,3.75a1.2,1.2,0,0,1,.48,1.58c-.7,1.88-1.38,3.78-2,5.67a1.14,1.14,0,0,1-1.34.83c-1.09-.12-2.18-.2-3.25-.36-4.12-.63-4.11-.64-6.11,2.12a1.76,1.76,0,0,0-.22,1.9c.77,1.93,1.45,3.89,2.23,5.82a1.45,1.45,0,0,1-.59,2c-1.45,1-2.86,2.1-4.24,3.22a1.34,1.34,0,0,1-2-.08c-1.55-1.29-3.14-2.52-4.68-3.81a1.67,1.67,0,0,0-1.88-.34c-.81.34-1.64.66-2.48,1a1.7,1.7,0,0,0-1.18,1.4c-.4,2-.89,4-1.26,6.09-.15.89-.53,1.32-1.44,1.38S134.76,209.84,133.79,210ZM153,173.17a21.6,21.6,0,1,0-23.46,21.42A21.52,21.52,0,0,0,153,173.17Z"/><path class="cls-21" d="M106.76,241.76l-1.47-.27a3.52,3.52,0,0,1-.2-.6c-.15-.92-.28-1.85-.41-2.77a.71.71,0,0,0-.5-.65A9.82,9.82,0,0,1,103,237a.78.78,0,0,0-.9.1c-.78.57-1.58,1.11-2.37,1.68a.51.51,0,0,1-.74,0c-.63-.53-1.27-1-1.91-1.57a.56.56,0,0,1-.18-.77c.43-.88.81-1.78,1.23-2.67a.68.68,0,0,0-.06-.77,11.46,11.46,0,0,1-.71-1.1.88.88,0,0,0-.89-.45c-.9.06-1.8.07-2.7.13A.64.64,0,0,1,93,231c-.18-.72-.41-1.43-.65-2.14a.69.69,0,0,1,.35-1c.79-.46,1.54-1,2.33-1.46a.86.86,0,0,0,.44-.81,8.66,8.66,0,0,0,0-1.25,1,1,0,0,0-.32-.62c-1-.6-2-1.15-3-1.73l.2-1.1c.2-.6.43-1.19.6-1.79a.65.65,0,0,1,.74-.54,18.27,18.27,0,0,1,2,0,1.91,1.91,0,0,0,2.23-1.26.87.87,0,0,0,0-.87c-.45-.85-.87-1.72-1.32-2.57a.54.54,0,0,1,.15-.74c.67-.56,1.34-1.12,2-1.71a.64.64,0,0,1,.91-.05c.6.41,1.27.74,1.83,1.2a1.64,1.64,0,0,0,2.11.15.94.94,0,0,0,.55-.77c.08-.93.19-1.86.28-2.79a.58.58,0,0,1,.55-.62c.91-.12,1.82-.24,2.72-.39a.56.56,0,0,1,.7.37c.3.68.67,1.34.91,2a1.56,1.56,0,0,0,1.64,1.26.76.76,0,0,0,.72-.28c.58-.76,1.2-1.5,1.79-2.26a.6.6,0,0,1,.87-.22,24,24,0,0,0,2.39,1,.72.72,0,0,1,.52.93c-.16.89-.28,1.79-.4,2.68a1.28,1.28,0,0,0,1.62,1.33c.88-.3,1.77-.59,2.64-.91a.61.61,0,0,1,.83.28c.48.74,1,1.48,1.5,2.19a.69.69,0,0,1-.09,1c-.62.67-1.2,1.38-1.81,2.07a.74.74,0,0,0-.17.85,3.68,3.68,0,0,0,.23.66,1,1,0,0,0,.45.4c.89.25,1.78.47,2.67.68s.8.2.84,1,.09,1.6.14,2.4l-.1.55c-.83.25-1.64.56-2.48.73a1.59,1.59,0,0,0-1.49,1.54,1,1,0,0,0,.29.91c.67.69,1.32,1.4,2,2.1a.54.54,0,0,1,.09.75c-.47.78-.92,1.58-1.38,2.37a.51.51,0,0,1-.66.27c-.48-.15-1-.27-1.43-.43-1.79-.62-1.79-.62-2.91.45a.81.81,0,0,0-.26.84c.19.92.34,1.86.53,2.79a.67.67,0,0,1-.43.85c-.73.34-1.45.71-2.16,1.09a.6.6,0,0,1-.88-.19c-.59-.71-1.2-1.39-1.79-2.09a.75.75,0,0,0-.81-.31c-.4.09-.79.17-1.19.23a.76.76,0,0,0-.65.53c-.34.88-.73,1.74-1.06,2.63a.64.64,0,0,1-.76.5C107.65,241.77,107.21,241.78,106.76,241.76Zm11.6-14.94a9.84,9.84,0,1,0-12.26,7.69A9.81,9.81,0,0,0,118.36,226.82Z"/></g><g id="책상"><rect class="cls-22" y="857.76" width="1000" height="47.41"/><rect class="cls-22" y="905.17" width="67.02" height="94.83"/><rect class="cls-22" x="804.88" y="905.17" width="67.02" height="94.83"/><polygon class="cls-23" points="1000 857.76 1000 905.17 871.9 905.17 871.9 1000 838.39 1000 838.39 857.76 1000 857.76"/><rect class="cls-24" x="67.02" y="905.17" width="737.86" height="94.83"/><rect class="cls-25" x="871.9" y="905.17" width="128.1" height="94.83"/><rect class="cls-23" x="33.51" y="905.17" width="33.51" height="94.83"/></g></svg>