<svg xmlns="http://www.w3.org/2000/svg" viewBox="0 0 1000 1000"><defs><style>.cls-1{fill:#f2f2f2;}.cls-2{fill:#dadada;}.cls-11,.cls-3,.cls-9{fill:none;stroke-linecap:round;stroke-linejoin:round;stroke-width:5px;}.cls-11,.cls-3{stroke:#dadada;}.cls-3{opacity:0.4;}.cls-4{fill:#ffe3ec;}.cls-5{fill:#ffcbdc;}.cls-6{fill:#ffb5cd;}.cls-7{fill:#fff;}.cls-8{fill:#2d2d37;}.cls-9{stroke:#ffcbdc;}.cls-10{fill:#bfab9b;}.cls-12{fill:#ffea55;opacity:0.5;}.cls-13{fill:#ffe4ee;}.cls-14{fill:#c8ccce;}.cls-15{fill:#d5d8db;}.cls-16{fill:#e8ebef;}.cls-17{fill:#bfc0c1;}.cls-18{fill:#adadad;}.cls-19{fill:#897c74;}.cls-20{fill:#706661;}.cls-21{fill:#7f736c;}.cls-22{fill:#665e5a;}</style></defs><g id="뒷배경"><rect class="cls-1" x="120.53" y="120.39" width="227.94" height="298.17" rx="14.98"/><rect class="cls-2" x="204.73" y="147.23" width="127.4" height="48.5"/><rect class="cls-2" x="142.85" y="268.34" width="189.27" height="54.08"/><rect class="cls-2" x="142.85" y="334.51" width="189.27" height="54.08"/><rect class="cls-2" x="142.85" y="208.08" width="189.27" height="16.48"/><rect class="cls-2" x="142.85" y="233.32" width="189.27" height="16.48"/><circle class="cls-2" cx="169.8" cy="151.55" r="9.9"/><path class="cls-2" d="M169.8,164.82h0a15.81,15.81,0,0,1,15.81,15.81v15.1a0,0,0,0,1,0,0H154a0,0,0,0,1,0,0v-15.1A15.81,15.81,0,0,1,169.8,164.82Z"/><path class="cls-3" d="M373.67,120.34V418.6a27.82,27.82,0,0,1-27.82,27.83H322.53l-14.61,65-31-65H123.14A27.83,27.83,0,0,1,95.32,418.6V120.34a27.83,27.83,0,0,1,27.82-27.83H345.85A27.82,27.82,0,0,1,373.67,120.34Z"/></g><g id="얼굴"><path class="cls-4" d="M753.79,315.08s1,36-33,42v117h-158V424.47s-37-14.39-47-57.39c0,0-.39,0-1.08.05-6,.16-34.92-.68-34.92-32.05,0-35,17.26-38.46,17.26-38.46s-8.26-136.85,119.74-135.2S755.79,287.08,753.79,315.08Z"/></g><g id="표정"><path class="cls-5" d="M562.79,424.47s76,22.61,123-18.39l-28,68h-95Z"/><path class="cls-6" d="M649.1,425.6s18.31-3.64,36.69-19.52a76.87,76.87,0,0,0,16.43-33.95"/><path class="cls-6" d="M562.79,424.47s-37-14.39-47-57.39c0,0-.39,0-1.08.05l1.57-1.05s27.51-12,43,15.08C573.37,405.76,562.79,424.47,562.79,424.47Z"/><path class="cls-6" d="M702.22,372.13s-26.82-20.18-49.06.95c-27.37,26-4.06,52.52-4.06,52.52s18.31-3.64,36.69-19.52A76.87,76.87,0,0,0,702.22,372.13Z"/><ellipse class="cls-7" cx="641.98" cy="345.08" rx="21.5" ry="26"/><ellipse class="cls-8" cx="638.34" cy="345.08" rx="15.72" ry="20.43"/><ellipse class="cls-7" cx="562.79" cy="345.08" rx="21.5" ry="26"/><ellipse class="cls-8" cx="559.15" cy="345.08" rx="15.72" ry="20.43"/><path class="cls-9" d="M728.57,307.31V335.8s-.68-21.43,11.85-23"/><path class="cls-9" d="M503.52,312.09s4.62,36.25,9.72,47.42"/></g><g id="머리카락"><path class="cls-8" d="M753.79,315.08c0-39-43-41-42,2,0,0-20-7-41-7s-43-17-43-17,2,9,4,12c0,0-43,18-72-14,0,0-2,4.59,0,13.8,0,0-97,30.2-87-91.8s145-115,162-108c0,0,96-22,135,64,0,0,21,41,12,80S753.79,315.08,753.79,315.08Z"/></g><g id="와이셔츠_뒷면" data-name="와이셔츠 뒷면"><polyline class="cls-7" points="539.83 489.98 741.41 489.98 721.24 600.29 635.53 610.62 573.23 583.27 549.22 543.46 539.83 489.98"/></g><g id="넥타이"><polygon class="cls-8" points="616.89 514.94 624.29 536.62 603.62 594.06 675.66 594.06 657.87 536.62 664.67 514.79 639.85 467.32 616.89 514.94"/></g><g id="조끼"><path class="cls-10" d="M856.35,939.44c-1.83-75.68-25.84-423.24-25.84-423.24-26.14-11.8-86.09-32.7-86.09-32.7S717,594.11,640.64,594.11h0c-76.37,0-103.79-110.61-103.79-110.61s-60,20.9-86.09,32.7c0,0-24,347.56-25.83,423.24Z"/></g><g id="와이셔츠_깃" data-name="와이셔츠 깃"><path class="cls-7" d="M640.62,475.68,653,506.57a13.11,13.11,0,0,0,14,8.1l65.5-13.95c6-1.41,15.61-8.21,11.89-17.27l-23.62-40.59a336.48,336.48,0,0,1-80.17,9.42Z"/><path class="cls-7" d="M640.62,475.68l-12.35,30.89a13.11,13.11,0,0,1-14,8.1l-65.5-13.95c-6-1.41-15.61-8.21-11.89-17.27l23.62-40.59a336.48,336.48,0,0,0,80.17,9.42Z"/><line class="cls-11" x1="668.28" y1="514.05" x2="728.97" y2="501.55"/><line class="cls-11" x1="611.32" y1="514.05" x2="551.27" y2="501.26"/></g><g id="중간소품"><polygon class="cls-12" points="754.86 105.92 773.76 74.79 792.66 43.65 778.04 38.62 763.42 33.58 759.14 69.75 754.86 105.92"/><polygon class="cls-12" points="774.48 120.26 805.99 102 837.5 83.73 827.08 72.3 816.66 60.87 795.57 90.57 774.48 120.26"/><polygon class="cls-12" points="786.67 133.64 823.06 135.32 859.44 136.99 856.86 121.74 854.27 106.5 820.47 120.07 786.67 133.64"/></g><g id="손"><path class="cls-13" d="M605.39,483.54h0a18.4,18.4,0,0,1,18.4,18.4V608.82a2.5,2.5,0,0,1-2.5,2.5H589.48a2.5,2.5,0,0,1-2.5-2.5V501.94a18.4,18.4,0,0,1,18.4-18.4Z" transform="translate(-206.57 464.42) rotate(-36.28)"/><path class="cls-13" d="M630.26,458.21h0a18.4,18.4,0,0,1,18.4,18.4V583.49a2.5,2.5,0,0,1-2.5,2.5H614.35a2.5,2.5,0,0,1-2.5-2.5V476.61a18.4,18.4,0,0,1,18.4-18.4Z" transform="translate(-186.76 474.23) rotate(-36.28)"/><path class="cls-13" d="M657.09,438.51h0a18.4,18.4,0,0,1,18.4,18.4V563.79a2.5,2.5,0,0,1-2.5,2.5H641.18a2.5,2.5,0,0,1-2.5-2.5V456.92A18.4,18.4,0,0,1,657.09,438.51Z" transform="translate(-169.9 486.29) rotate(-36.28)"/><path class="cls-13" d="M686.21,421.94h0a18.4,18.4,0,0,1,18.4,18.4V547.22a2.5,2.5,0,0,1-2.5,2.5H670.3a2.5,2.5,0,0,1-2.5-2.5V440.35a18.4,18.4,0,0,1,18.4-18.4Z" transform="translate(-154.45 500.31) rotate(-36.28)"/><path class="cls-13" d="M694,465.4,598.09,568.58l38.58,52.55,21.31,29,112.13-82.32-21.31-29s9-31.12-11.92-59.68C720,456.19,694,465.4,694,465.4Z"/><line class="cls-9" x1="613.62" y1="527.55" x2="594.03" y2="500.87"/><line class="cls-9" x1="640.45" y1="507.86" x2="620.86" y2="481.17"/><line class="cls-9" x1="667.28" y1="488.16" x2="647.68" y2="461.48"/><line class="cls-9" x1="700.95" y1="474.82" x2="731.74" y2="516.75"/></g><g id="팔"><path class="cls-11" d="M330.56,785.51C354,626.12,405,555.6,434,527.4"/><path class="cls-7" d="M884.08,902c-42.93,4.06-53.61-385.85-53.61-385.85s89,56.33,110.31,164.66a1.55,1.55,0,0,0,0,.21C942.28,687.85,996,891.4,884.08,902Z"/><path class="cls-7" d="M736.8,544.19H876.3a0,0,0,0,1,0,0V856a69.75,69.75,0,0,1-69.75,69.75h0A69.75,69.75,0,0,1,736.8,856V544.19a0,0,0,0,1,0,0Z" transform="translate(-278.54 619.84) rotate(-36.28)"/><path class="cls-7" d="M940.82,681a1.55,1.55,0,0,1,0-.21A1.76,1.76,0,0,1,940.82,681Z"/></g><g id="선"><line class="cls-11" x1="704.34" y1="636.56" x2="766.76" y2="586.86"/><path class="cls-11" d="M852.11,532.83A284.83,284.83,0,0,1,910,601.45c31.8,53.08,39.83,114.08,41.15,174.81"/><line class="cls-11" x1="844.17" y1="668.32" x2="866.04" y2="698.11"/></g><g id="책상_위_사물" data-name="책상 위 사물"><rect class="cls-14" x="70.8" y="843.26" width="682.26" height="14.73"/><rect class="cls-15" x="70.8" y="843.26" width="463.4" height="14.73"/><polygon class="cls-14" points="546.51 843.25 83.28 843.25 36.05 541.5 499.28 541.5 546.51 843.25"/><polygon class="cls-16" points="534.03 843.25 70.8 843.25 23.57 541.5 486.8 541.5 534.03 843.25"/><rect class="cls-16" x="640.62" y="850.62" width="328.24" height="7.36"/><rect class="cls-15" x="833.49" y="850.62" width="135.36" height="7.36"/><rect class="cls-17" x="640.62" y="850.12" width="192.88" height="1"/><rect class="cls-18" x="833.49" y="850.12" width="135.36" height="1"/><rect class="cls-16" x="640.62" y="842.76" width="328.24" height="7.36"/><rect class="cls-15" x="833.49" y="842.76" width="135.36" height="7.36"/><rect class="cls-17" x="640.62" y="842.26" width="199.7" height="1"/><rect class="cls-18" x="827.1" y="842.26" width="135.36" height="1"/><rect class="cls-16" x="634.22" y="834.89" width="328.24" height="7.36"/><rect class="cls-15" x="827.1" y="834.89" width="135.36" height="7.36"/><rect class="cls-17" x="634.22" y="834.39" width="192.88" height="1"/><rect class="cls-18" x="827.1" y="834.39" width="135.36" height="1"/><rect class="cls-16" x="634.22" y="827.03" width="328.24" height="7.36"/><rect class="cls-15" x="827.1" y="827.03" width="135.36" height="7.36"/><rect class="cls-17" x="647.45" y="826.53" width="192.88" height="1"/><rect class="cls-18" x="840.32" y="826.53" width="135.36" height="1"/><rect class="cls-16" x="647.45" y="819.16" width="328.24" height="7.36"/><rect class="cls-15" x="840.32" y="819.16" width="135.36" height="7.36"/><rect class="cls-17" x="647.45" y="818.66" width="192.88" height="1"/><rect class="cls-18" x="840.32" y="818.66" width="135.36" height="1"/><rect class="cls-16" x="647.45" y="811.3" width="328.24" height="7.36"/><rect class="cls-15" x="840.32" y="811.3" width="135.36" height="7.36"/><rect class="cls-17" x="647.45" y="810.8" width="192.88" height="1"/><rect class="cls-18" x="840.32" y="810.8" width="135.36" height="1"/><rect class="cls-16" x="657.47" y="803.43" width="328.24" height="7.36"/><rect class="cls-15" x="850.35" y="803.43" width="135.36" height="7.36"/><rect class="cls-17" x="657.47" y="802.93" width="192.88" height="1"/><rect class="cls-18" x="850.35" y="802.93" width="135.36" height="1"/><rect class="cls-16" x="657.47" y="795.57" width="328.24" height="7.36"/><rect class="cls-15" x="850.35" y="795.57" width="135.36" height="7.36"/><rect class="cls-17" x="657.47" y="795.07" width="192.88" height="1"/><rect class="cls-18" x="850.35" y="795.07" width="135.36" height="1"/><path class="cls-18" d="M767.27,803.43h22.56c0,.06-3.8,2.69-5.16,6.22a27.56,27.56,0,0,0-1.3,7.19H761.05a20.18,20.18,0,0,1,2.11-7.75C764.85,806.13,766.18,804.06,767.27,803.43Z"/><path class="cls-18" d="M780.26,818.66h22.57c-.05.06-3.8,2.69-5.17,6.22a26.9,26.9,0,0,0-1.29,7.19H774a20.05,20.05,0,0,1,2.12-7.75C777.84,821.36,779.17,819.29,780.26,818.66Z"/><path class="cls-18" d="M673.81,827h22.57c0,.06-3.8,2.69-5.17,6.21a27,27,0,0,0-1.29,7.19H667.59a20.05,20.05,0,0,1,2.12-7.75C671.39,829.72,672.72,827.66,673.81,827Z"/></g><g id="책상"><rect class="cls-19" x="1.93" y="857.98" width="1000" height="47.41"/><rect class="cls-19" x="1.93" y="905.4" width="67.02" height="94.83"/><rect class="cls-19" x="806.81" y="905.39" width="67.02" height="94.83"/><polygon class="cls-20" points="1001.93 857.98 1001.93 905.39 873.83 905.39 873.83 1000.22 840.32 1000.22 840.32 857.98 1001.93 857.98"/><rect class="cls-21" x="68.95" y="905.39" width="737.86" height="94.83"/><rect class="cls-22" x="873.83" y="905.39" width="128.1" height="94.83"/><rect class="cls-20" x="35.44" y="905.39" width="33.51" height="94.83"/></g></svg>