<svg xmlns="http://www.w3.org/2000/svg" viewBox="0 0 1000 1000"><defs><style>.cls-1,.cls-10,.cls-17,.cls-8{fill:none;stroke-linecap:round;stroke-linejoin:round;}.cls-1,.cls-10{stroke:#dadada;}.cls-1,.cls-10,.cls-8{stroke-width:5px;}.cls-1{opacity:0.4;}.cls-2{fill:#2b3b56;opacity:0.2;}.cls-3{fill:#ffe3ec;}.cls-4{fill:#ffcbdc;}.cls-5{fill:#ffb5cd;}.cls-6{fill:#fff;}.cls-7{fill:#2d2d37;}.cls-8{stroke:#ffcbdc;}.cls-9{fill:#bfab9b;}.cls-11{fill:#ffea55;}.cls-11,.cls-16,.cls-17{opacity:0.5;}.cls-12{fill:#ffe4ee;}.cls-13{fill:#c8ccce;}.cls-14{fill:#d5d8db;}.cls-15{fill:#e8ebef;}.cls-16{fill:#c6c6c6;}.cls-17{stroke:#c6c6c6;stroke-width:4px;}.cls-18{fill:#897c74;}.cls-19{fill:#706661;}.cls-20{fill:#7f736c;}.cls-21{fill:#665e5a;}</style></defs><g id="뒷배경"><path class="cls-1" d="M603.53,133.8v-37c0-20.62-14.93-37.34-33.35-37.34h-484c-18.42,0-33.35,16.72-33.35,37.34V398.4c0,20.63,14.93,37.34,33.35,37.34H264.6L335,516.54l-14.77-80.8h182"/><rect class="cls-2" x="422.49" y="103.84" width="55.15" height="6.7"/><rect class="cls-2" x="422.49" y="117.49" width="137.02" height="36.16"/><rect class="cls-2" x="104.73" y="342.21" width="36.89" height="6.7" transform="translate(246.34 691.12) rotate(-180)"/><rect class="cls-2" x="104.73" y="355.86" width="91.66" height="29.16" transform="translate(301.11 740.88) rotate(-180)"/><rect class="cls-2" x="429.87" y="268.99" width="137.02" height="6.62"/><rect class="cls-2" x="429.87" y="280.57" width="78.64" height="24.75"/></g><g id="얼굴"><path class="cls-3" d="M780,364.3s1,36-33,42v117H589V473.69s-37-14.39-47-57.39c0,0-.39,0-1.08.05-6,.16-34.92-.68-34.92-32.05,0-35,17.26-38.46,17.26-38.46S515,209,643,210.64,782,336.3,780,364.3Z"/></g><g id="표정"><path class="cls-4" d="M589,473.69s76,22.61,123-18.39l-28,68H589Z"/><path class="cls-5" d="M728.44,421.35s-26.82-20.18-49.06.95c-27.36,26-4.06,52.52-4.06,52.52s18.31-3.64,36.7-19.52A76.91,76.91,0,0,0,728.44,421.35Z"/><path class="cls-5" d="M589,473.69s-37-14.39-47-57.39c0,0-.39,0-1.08.05l1.57-1.05s27.51-12,43,15.08C599.6,455,589,473.69,589,473.69Z"/><path class="cls-5" d="M675.32,474.82s18.31-3.64,36.7-19.52a76.91,76.91,0,0,0,16.42-33.95"/><ellipse class="cls-6" cx="668.21" cy="394.3" rx="21.5" ry="26"/><ellipse class="cls-7" cx="664.56" cy="394.3" rx="15.72" ry="20.43"/><ellipse class="cls-6" cx="589.02" cy="394.3" rx="21.5" ry="26"/><ellipse class="cls-7" cx="585.37" cy="394.3" rx="15.72" ry="20.43"/><path class="cls-8" d="M754.8,356.53V385s-.69-21.43,11.85-23"/><path class="cls-8" d="M529.74,361.31s4.63,36.25,9.72,47.42"/></g><g id="머리카락"><path class="cls-7" d="M780,364.3c0-39-43-41-42,2,0,0-20-7-41-7s-43-17-43-17,2,9,4,12c0,0-43,18-72-14,0,0-2,4.59,0,13.8,0,0-97,30.2-87-91.8s145-115,162-108c0,0,96-22,135,64,0,0,21,41,12,80S780,364.3,780,364.3Z"/></g><g id="와이셔츠_뒷면" data-name="와이셔츠 뒷면"><polyline class="cls-6" points="566.05 539.2 767.63 539.2 747.46 649.51 661.75 659.84 599.45 632.49 575.44 592.68 566.05 539.2"/></g><g id="넥타이"><polygon class="cls-7" points="643.12 564.15 650.52 585.84 629.84 643.28 701.88 643.28 684.09 585.84 690.89 564.01 666.07 516.54 643.12 564.15"/></g><g id="조끼"><path class="cls-9" d="M883,988.54c-1.82-75.67-25.83-423.23-25.83-423.23-26.14-11.81-86.1-32.71-86.1-32.71S743.64,643.22,667.27,643.22h0c-76.36,0-103.79-110.62-103.79-110.62s-59.94,20.9-86.08,32.71c0,0-24,347.56-25.84,423.23Z"/></g><g id="와이셔츠_깃" data-name="와이셔츠 깃"><path class="cls-6" d="M666.84,524.9l12.36,30.89a13.09,13.09,0,0,0,14,8.1l65.5-13.95c6-1.41,15.62-8.21,11.89-17.27L747,492.08a336.48,336.48,0,0,1-80.17,9.42Z"/><path class="cls-6" d="M666.84,524.9l-12.35,30.89a13.1,13.1,0,0,1-14,8.1L575,549.94c-6-1.41-15.62-8.21-11.9-17.27l23.62-40.59a336.48,336.48,0,0,0,80.17,9.42Z"/><line class="cls-10" x1="694.5" y1="563.27" x2="755.19" y2="550.77"/><line class="cls-10" x1="637.54" y1="563.27" x2="577.49" y2="550.48"/></g><g id="중간소품"><polygon class="cls-11" points="771.28 149.16 790.18 118.02 809.09 86.89 794.46 81.85 779.84 76.81 775.56 112.98 771.28 149.16"/><polygon class="cls-11" points="790.9 163.5 822.41 145.23 853.92 126.96 843.5 115.53 833.08 104.11 811.99 133.8 790.9 163.5"/><polygon class="cls-11" points="803.1 176.87 839.48 178.55 875.87 180.23 873.28 164.98 870.7 149.73 836.9 163.3 803.1 176.87"/></g><g id="팔"><path class="cls-6" d="M477.41,565.3l-24.1,434.57H340.57c6.16-368,135.8-434,136.83-434.56Z"/><path class="cls-10" d="M352.76,840c23.46-159.39,74.49-229.91,103.46-258.11"/></g><g id="선"><line class="cls-10" x1="755.19" y1="497.49" x2="767.63" y2="524.85"/><path class="cls-6" d="M864.85,567.06l22.66,408.73L966,935.28c55.23-206.88-101.13-368.22-101.13-368.22"/><path class="cls-10" d="M977.59,833.53c-4.12-119.43-68.26-212.43-97.92-249.27"/><path class="cls-12" d="M729.93,546.19h0a18.4,18.4,0,0,1,18.4,18.4V671.47a2.5,2.5,0,0,1-2.5,2.5H714a2.5,2.5,0,0,1-2.5-2.5V564.59A18.4,18.4,0,0,1,729.93,546.19Z" transform="translate(-133.3 210.3) rotate(-15.04)"/><path class="cls-12" d="M762.29,531.59h0a18.4,18.4,0,0,1,18.4,18.4V656.87a2.5,2.5,0,0,1-2.5,2.5H746.38a2.5,2.5,0,0,1-2.5-2.5V550A18.4,18.4,0,0,1,762.29,531.59Z" transform="translate(-128.41 218.2) rotate(-15.04)"/><path class="cls-12" d="M794.43,523h0a18.4,18.4,0,0,1,18.4,18.4V648.24a2.5,2.5,0,0,1-2.5,2.5H778.52a2.5,2.5,0,0,1-2.5-2.5V541.36a18.4,18.4,0,0,1,18.4-18.4Z" transform="translate(-125.07 226.25) rotate(-15.04)"/><path class="cls-12" d="M827.57,518.06h0a18.4,18.4,0,0,1,18.4,18.4V643.34a2.5,2.5,0,0,1-2.5,2.5H811.67a2.5,2.5,0,0,1-2.5-2.5V536.46A18.4,18.4,0,0,1,827.57,518.06Z" transform="translate(-122.66 234.68) rotate(-15.04)"/><path class="cls-12" d="M842.27,565.74,715.46,627.15l16.91,63,9.35,34.78,134.34-36.1L866.72,654s19.7-25.73,10.51-59.94C869.84,566.58,842.27,565.74,842.27,565.74Z"/><path class="cls-6" d="M932.5,1001.53H820.58A69.76,69.76,0,0,1,809.19,978L735.27,702.86l.5-.13L870,666.66l6,22.16,68,253A69.62,69.62,0,0,1,932.5,1001.53Z"/><line class="cls-8" x1="744.81" y1="594.54" x2="736.21" y2="562.56"/><line class="cls-8" x1="776.94" y1="585.9" x2="768.35" y2="553.93"/><line class="cls-8" x1="809.08" y1="577.27" x2="800.49" y2="545.29"/><line class="cls-8" x1="847.83" y1="586.41" x2="858.8" y2="627.27"/><line class="cls-8" x1="853.31" y1="606.84" x2="859.41" y2="597.42"/><line class="cls-10" x1="795.47" y1="733.97" x2="872.52" y2="713.27"/><line class="cls-10" x1="872.52" y1="676.09" x2="906.5" y2="802.55"/></g><g id="책상_위_사물" data-name="책상 위 사물"><rect class="cls-13" x="86.12" y="843.03" width="682.26" height="14.73"/><rect class="cls-14" x="86.12" y="843.03" width="463.4" height="14.73"/><polygon class="cls-13" points="561.83 843.03 98.6 843.03 51.37 541.28 514.6 541.28 561.83 843.03"/><polygon class="cls-15" points="549.35 843.03 86.12 843.03 38.89 541.28 502.12 541.28 549.35 843.03"/><path class="cls-16" d="M365.73,236.8a49.86,49.86,0,0,0-47.23-49.73V161.43c0-3.22-2.85-6.91-24-9.84-14.17-2-33-3.05-53-3.05s-38.81,1.08-53,3.05c-21.15,2.93-24,6.62-24,9.84V312.18c0,3.22,2.85,6.9,24,9.84,14.17,2,33,3.05,53,3.05s38.81-1.08,53-3.05c21.16-2.94,24-6.62,24-9.84V286.53A49.85,49.85,0,0,0,365.73,236.8ZM318.5,211.7a25.23,25.23,0,0,1,0,50.2Zm-77-58c40.79,0,67.23,4.45,71.53,7.78-4.3,3.33-30.74,7.77-71.53,7.77s-67.22-4.44-71.52-7.77C174.29,158.1,200.73,153.65,241.51,153.65Zm0,166.3c-42.11,0-68.92-4.73-71.87-8.09V166.94c3.51,1.52,9.33,3,18.89,4.33,14.17,2,33,3,53,3s38.81-1.08,53-3c9.57-1.33,15.38-2.81,18.89-4.33V311.86C310.44,315.22,283.62,320,241.51,320Zm77-38.55V267a30.34,30.34,0,0,0,0-60.46V192.2a44.67,44.67,0,0,1,0,89.2Z"/><polyline class="cls-17" points="311.23 139.75 327.75 116.13 404.65 116.13"/><polyline class="cls-17" points="417.46 280.57 372.54 280.57 365.73 272.3"/><polyline class="cls-17" points="258.55 339.55 244.77 362.57 213.83 362.57"/></g><g id="책상"><rect class="cls-18" y="857.76" width="1000" height="47.41"/><rect class="cls-18" y="905.17" width="67.02" height="94.83"/><rect class="cls-18" x="804.88" y="905.17" width="67.02" height="94.83"/><polygon class="cls-19" points="1000 857.76 1000 905.17 871.9 905.17 871.9 1000 838.39 1000 838.39 857.76 1000 857.76"/><rect class="cls-20" x="67.02" y="905.17" width="737.86" height="94.83"/><rect class="cls-21" x="871.9" y="905.17" width="128.1" height="94.83"/><rect class="cls-19" x="33.51" y="905.17" width="33.51" height="94.83"/></g></svg>