<svg xmlns="http://www.w3.org/2000/svg" viewBox="0 0 1000 1000"><defs><style>.cls-1{fill:#ffea55;}.cls-1,.cls-2{opacity:0.5;}.cls-2,.cls-3{fill:#efd01b;}.cls-3{opacity:0.6;}.cls-12,.cls-14,.cls-4{fill:none;stroke-linecap:round;stroke-linejoin:round;stroke-width:5px;}.cls-14,.cls-4{stroke:#dadada;}.cls-4,.cls-5{opacity:0.4;}.cls-6{fill:#dadada;}.cls-7{fill:#ffe3ec;}.cls-8{fill:#ffcbdc;}.cls-9{fill:#ffb5cd;}.cls-10{fill:#fff;}.cls-11{fill:#2d2d37;}.cls-12{stroke:#ffcbdc;}.cls-13{fill:#bfab9b;}.cls-15{fill:#ffe4ee;}.cls-16{fill:#c8ccce;}.cls-17{fill:#d5d8db;}.cls-18{fill:#e8ebef;}.cls-19{fill:#897c74;}.cls-20{fill:#706661;}.cls-21{fill:#7f736c;}.cls-22{fill:#665e5a;}</style></defs><g id="뒷배경"><polygon class="cls-1" points="218.89 277.55 75.75 287.88 75.75 144.74 218.89 144.74 218.89 277.55"/><path class="cls-2" d="M75.75,287.88,197.92,250.2s-1.82,23.7,21,27.35Z"/><polygon class="cls-1" points="218.89 561.47 75.75 571.8 75.75 428.65 218.89 428.65 218.89 561.47"/><path class="cls-2" d="M75.75,571.8l122.17-37.69s-1.82,23.71,21,27.36Z"/><polygon class="cls-1" points="458.01 446.49 314.86 456.82 314.86 313.67 458.01 313.67 458.01 446.49"/><path class="cls-2" d="M314.86,456.82,437,419.13s-1.82,23.71,21,27.35Z"/><polygon class="cls-1" points="458.01 269.32 314.86 279.66 314.86 136.51 458.01 136.51 458.01 269.32"/><path class="cls-2" d="M314.86,279.66,437,242s-1.82,23.71,21,27.35Z"/><path class="cls-2" d="M314.86,648.64,437,611s-1.82,23.71,21,27.36Z"/><polygon class="cls-1" points="673.55 285.8 530.4 296.14 530.4 152.99 673.55 152.99 673.55 285.8"/><path class="cls-2" d="M530.4,287.88,652.58,250.2s-1.83,23.7,21,27.35Z"/><polygon class="cls-1" points="938.65 277.55 795.5 287.88 795.5 144.74 938.65 144.74 938.65 277.55"/><path class="cls-2" d="M795.5,287.88,917.68,250.2s-1.83,23.7,21,27.35Z"/><polygon class="cls-1" points="938.65 518.06 795.5 528.39 795.5 385.24 938.65 385.24 938.65 518.06"/><path class="cls-2" d="M795.5,528.39l122.18-37.68s-1.83,23.7,21,27.35Z"/><polygon class="cls-1" points="242.21 833.58 99.07 843.91 99.07 700.76 242.21 700.76 242.21 833.58"/><path class="cls-3" d="M64.52,781.27,186.7,743.58s-1.83,23.71,21,27.36Z"/><line class="cls-4" x1="274.91" y1="1.02" x2="274.91" y2="840.25"/><line class="cls-4" x1="712.59" y1="1.02" x2="712.59" y2="840.25"/><line class="cls-4" x1="35" y1="95.06" x2="965" y2="95.06"/><g class="cls-5"><path class="cls-6" d="M93.43,74.94c15.17-7,31-14.52,42.34-27.18A56.21,56.21,0,0,0,143.92,36a3,3,0,0,0-4.71-3.64,29.91,29.91,0,0,0-8.1,31.46c2.24,6.28,6.74,11.48,13.7,12.17,6.28.62,12.91-2.22,18.41-5a61.83,61.83,0,0,0,17.19-12.79l-5-2.92c-.72,4.16-1.5,8.32-2.14,12.49-.32,2-.44,4.15.68,6a6.19,6.19,0,0,0,5.3,2.76,18.68,18.68,0,0,0,5.38-1.06l6.22-1.77,12.68-3.61c3.71-1.06,2.13-6.85-1.59-5.79-7,2-14,4.19-21.07,6a7,7,0,0,1-1.45.24c-.22,0-.68-.07-.29.16.07,0-.07,0-.11-.25,0,.07,0-.64,0-.72a18.43,18.43,0,0,1,.29-2l1.88-10.9a3.15,3.15,0,0,0-1.38-3.39,3.05,3.05,0,0,0-3.64.47,56.74,56.74,0,0,1-12.69,10.08c-4.59,2.66-9.94,5.23-15.27,5.9a9.72,9.72,0,0,1-7-1.41,12.8,12.8,0,0,1-3.94-5.31A22.59,22.59,0,0,1,136,49.88a23.65,23.65,0,0,1,7.47-13.26L138.74,33C131.3,47.49,117.21,56.55,103,63.74c-4.16,2.11-8.38,4.08-12.61,6a3,3,0,0,0-1.08,4.1,3.07,3.07,0,0,0,4.11,1.08Z"/></g><g class="cls-5"><path class="cls-6" d="M446.11,74.94c15.17-7,31-14.52,42.34-27.18A56.64,56.64,0,0,0,496.61,36a3,3,0,0,0-4.72-3.64,29.91,29.91,0,0,0-8.1,31.46c2.24,6.28,6.74,11.48,13.7,12.17,6.29.62,12.91-2.22,18.41-5a61.68,61.68,0,0,0,17.19-12.79l-5-2.92c-.71,4.16-1.5,8.32-2.14,12.49-.32,2-.44,4.15.68,6a6.19,6.19,0,0,0,5.3,2.76,18.82,18.82,0,0,0,5.39-1.06l6.21-1.77,12.68-3.61c3.71-1.06,2.13-6.85-1.59-5.79-7,2-14,4.19-21.07,6a7,7,0,0,1-1.45.24c-.22,0-.68-.07-.29.16.07,0-.07,0-.11-.25,0,.07,0-.64,0-.72a18.43,18.43,0,0,1,.29-2l1.88-10.9a3.13,3.13,0,0,0-1.38-3.39,3.05,3.05,0,0,0-3.64.47,56.74,56.74,0,0,1-12.69,10.08c-4.59,2.66-9.94,5.23-15.27,5.9a9.72,9.72,0,0,1-7-1.41A12.8,12.8,0,0,1,490,63.26a22.67,22.67,0,0,1-1.3-13.38,23.65,23.65,0,0,1,7.47-13.26L491.42,33C484,47.49,469.89,56.55,455.69,63.74c-4.16,2.11-8.38,4.08-12.61,6a3,3,0,0,0-1.08,4.1,3.07,3.07,0,0,0,4.11,1.08Z"/></g><g class="cls-5"><path class="cls-6" d="M813.18,74.94c15.17-7,31-14.52,42.35-27.18A56.59,56.59,0,0,0,863.68,36,3,3,0,0,0,859,32.37a29.9,29.9,0,0,0-8.11,31.46c2.25,6.28,6.74,11.48,13.71,12.17,6.28.62,12.91-2.22,18.41-5a62,62,0,0,0,17.19-12.79l-5-2.92c-.71,4.16-1.49,8.32-2.14,12.49-.32,2-.44,4.15.69,6a6.17,6.17,0,0,0,5.3,2.76,18.75,18.75,0,0,0,5.38-1.06l6.22-1.77,12.68-3.61c3.7-1.06,2.13-6.85-1.6-5.79-7,2-14,4.19-21.07,6a6.88,6.88,0,0,1-1.44.24c-.22,0-.69-.07-.3.16.08,0-.06,0-.11-.25,0,.07,0-.64,0-.72a18.55,18.55,0,0,1,.3-2l1.87-10.9a3.12,3.12,0,0,0-1.38-3.39,3,3,0,0,0-3.63.47,57,57,0,0,1-12.69,10.08c-4.59,2.66-10,5.23-15.28,5.9a9.69,9.69,0,0,1-7-1.41,12.8,12.8,0,0,1-3.94-5.31,22.68,22.68,0,0,1-1.31-13.38,23.71,23.71,0,0,1,7.47-13.26L858.5,33C851.05,47.49,837,56.55,822.76,63.74c-4.15,2.11-8.37,4.08-12.61,6a3,3,0,0,0-1.07,4.1,3.06,3.06,0,0,0,4.1,1.08Z"/></g></g><g id="얼굴"><path class="cls-7" d="M770.12,364.52s1,36-33,42v117h-158V473.91s-37-14.39-47-57.39c0,0-.39,0-1.08.05-6,.16-34.92-.68-34.92-32.05,0-35,17.26-38.46,17.26-38.46s-8.26-136.85,119.74-135.2S772.12,336.52,770.12,364.52Z"/></g><g id="표정"><path class="cls-8" d="M579.12,473.91s76,22.61,123-18.39l-28,68h-95Z"/><path class="cls-9" d="M718.54,421.57s-26.82-20.18-49.06.95c-27.36,26-4.06,52.52-4.06,52.52s18.31-3.63,36.7-19.52A76.87,76.87,0,0,0,718.54,421.57Z"/><path class="cls-9" d="M579.12,473.91s-37-14.39-47-57.39c0,0-.39,0-1.08.05l1.57-1.05s27.51-12,43,15.08C589.7,455.2,579.12,473.91,579.12,473.91Z"/><path class="cls-9" d="M665.42,475s18.31-3.63,36.7-19.52a76.87,76.87,0,0,0,16.42-33.95"/><ellipse class="cls-10" cx="658.31" cy="394.52" rx="21.5" ry="26"/><ellipse class="cls-11" cx="654.66" cy="394.52" rx="15.72" ry="20.43"/><ellipse class="cls-10" cx="579.12" cy="394.52" rx="21.5" ry="26"/><ellipse class="cls-11" cx="575.47" cy="394.52" rx="15.72" ry="20.43"/><path class="cls-12" d="M744.89,356.75v28.49s-.68-21.42,11.86-23"/><path class="cls-12" d="M519.84,361.54s4.63,36.24,9.72,47.41"/></g><g id="머리카락"><path class="cls-11" d="M770.12,364.52c0-39-43-41-42,2,0,0-20-7-41-7s-43-17-43-17,2,9,4,12c0,0-43,18-72-14,0,0-2,4.6,0,13.8,0,0-97,30.2-87-91.8s145-115,162-108c0,0,96-22,135,64,0,0,21,41,12,80S770.12,364.52,770.12,364.52Z"/></g><g id="와이셔츠_뒷면" data-name="와이셔츠 뒷면"><polyline class="cls-10" points="556.15 539.43 757.73 539.43 737.56 649.73 651.85 660.07 589.55 632.71 565.54 592.9 556.15 539.43"/></g><g id="넥타이"><polygon class="cls-11" points="633.22 564.38 640.62 586.06 619.94 643.5 691.98 643.5 674.19 586.06 680.99 564.24 656.17 516.77 633.22 564.38"/></g><g id="조끼"><path class="cls-13" d="M873.08,988.77c-1.82-75.68-25.83-423.24-25.83-423.24-26.14-11.8-86.1-32.7-86.1-32.7S733.73,643.44,657.37,643.44h0c-76.36,0-103.79-110.61-103.79-110.61s-60,20.9-86.08,32.7c0,0-24,347.56-25.84,423.24Z"/></g><g id="와이셔츠_깃" data-name="와이셔츠 깃"><path class="cls-10" d="M656.94,525.12,669.29,556a13.11,13.11,0,0,0,14.05,8.1l65.5-13.94c6-1.42,15.62-8.22,11.89-17.28L737.11,492.3a336.48,336.48,0,0,1-80.17,9.42Z"/><path class="cls-10" d="M656.94,525.12,644.59,556a13.11,13.11,0,0,1-14.05,8.1L565,550.17c-6-1.42-15.61-8.22-11.89-17.28l23.62-40.59a336.48,336.48,0,0,0,80.17,9.42Z"/><line class="cls-14" x1="684.6" y1="563.49" x2="745.29" y2="550.99"/><line class="cls-14" x1="627.64" y1="563.49" x2="567.59" y2="550.71"/></g><g id="손"><path class="cls-15" d="M567.43,573.58h0a18.4,18.4,0,0,1,18.4,18.4V698.86a2.5,2.5,0,0,1-2.5,2.5H551.52a2.5,2.5,0,0,1-2.5-2.5V592A18.4,18.4,0,0,1,567.43,573.58Z" transform="translate(-285.91 625.05) rotate(-47.49)"/><path class="cls-15" d="M586.9,543.9h0a18.4,18.4,0,0,1,18.4,18.4V669.18a2.5,2.5,0,0,1-2.5,2.5H571a2.5,2.5,0,0,1-2.5-2.5V562.3a18.4,18.4,0,0,1,18.4-18.4Z" transform="translate(-257.71 629.78) rotate(-47.49)"/><path class="cls-15" d="M697.17,622.27l-31.94,1.55a2.48,2.48,0,0,1-2.6-2.39L658.5,514.09a18.73,18.73,0,0,1,17.76-19.38h0a18.28,18.28,0,0,1,19.19,17.59l4.13,107.34A2.55,2.55,0,0,1,697.17,622.27Z"/><path class="cls-15" d="M609.39,519.37h0a18.4,18.4,0,0,1,18.4,18.4V644.65a2.5,2.5,0,0,1-2.5,2.5H593.48a2.5,2.5,0,0,1-2.5-2.5V537.77A18.4,18.4,0,0,1,609.39,519.37Z" transform="translate(-232.34 638.4) rotate(-47.49)"/><path class="cls-15" d="M610,441.3h0a18.4,18.4,0,0,1,18.4,18.4V633.6a2.5,2.5,0,0,1-2.5,2.5H594.12a2.5,2.5,0,0,1-2.5-2.5V459.7A18.4,18.4,0,0,1,610,441.3Z" transform="translate(-199.28 624.42) rotate(-47.49)"/><polygon class="cls-15" points="637.4 538.82 564.38 659.64 612.44 703.69 638.99 728.02 733.27 625.16 706.72 600.83 637.4 538.82"/><path class="cls-15" d="M697.91,576.16a74,74,0,0,0,17,32.18c16.87,18.31-15.34,11.3-15.34,11.3l-22.15-20.82,4.21-31.08Z"/><path class="cls-15" d="M660,552.49s-2.6,4.33-6.78.45,10.27,18.11,10.27,18.11l8.3-11.75Z"/></g><g id="팔"><path class="cls-10" d="M467.51,565.52l-24.1,434.57H330.67c6.16-368,135.8-434,136.83-434.56Z"/><path class="cls-14" d="M342.86,840.25c23.45-159.39,74.49-229.91,103.46-258.11"/><path class="cls-10" d="M888.16,923.41c-42.81,5.16-40.92-357.88-40.92-357.88s89,56.33,110.31,164.66a1.55,1.55,0,0,0,0,.21C959.05,737.23,994.91,910.56,888.16,923.41Z"/><path class="cls-10" d="M730.81,604.18h139.5a0,0,0,0,1,0,0V889.06a69.75,69.75,0,0,1-69.75,69.75h0a69.75,69.75,0,0,1-69.75-69.75V604.18a0,0,0,0,1,0,0Z" transform="translate(-316.48 843.62) rotate(-47.49)"/><path class="cls-10" d="M957.18,730.46a1.55,1.55,0,0,1,0-.21A1.76,1.76,0,0,1,957.18,730.46Z"/></g><g id="선"><line class="cls-12" x1="571.65" y1="616.38" x2="547.24" y2="594.01"/><line class="cls-12" x1="594.13" y1="591.84" x2="569.73" y2="569.47"/><line class="cls-12" x1="616.62" y1="567.31" x2="592.21" y2="544.94"/><line class="cls-14" x1="690.21" y1="707.05" x2="744.12" y2="648.24"/><path class="cls-14" d="M867.07,580.66c27.51,23.4,75.55,73.74,90.48,149.53a1.55,1.55,0,0,0,0,.21c.81,3.8,12.29,59.24,3.87,109.85"/><line class="cls-14" x1="857.68" y1="739.23" x2="885.61" y2="764.84"/><line class="cls-14" x1="745.29" y1="497.72" x2="757.73" y2="525.07"/></g><g id="책상_위_사물" data-name="책상 위 사물"><rect class="cls-16" x="88.06" y="843.26" width="682.26" height="14.73"/><rect class="cls-17" x="88.06" y="843.26" width="463.4" height="14.73"/><polygon class="cls-16" points="563.76 843.25 100.54 843.25 53.31 541.5 516.53 541.5 563.76 843.25"/><polygon class="cls-18" points="551.28 843.25 88.06 843.25 40.83 541.5 504.05 541.5 551.28 843.25"/></g><g id="책상"><rect class="cls-19" x="1.93" y="857.98" width="1000" height="47.41"/><rect class="cls-19" x="1.93" y="905.4" width="67.02" height="94.83"/><rect class="cls-19" x="806.81" y="905.39" width="67.02" height="94.83"/><polygon class="cls-20" points="1001.93 857.98 1001.93 905.39 873.83 905.39 873.83 1000.22 840.32 1000.22 840.32 857.98 1001.93 857.98"/><rect class="cls-21" x="68.95" y="905.39" width="737.86" height="94.83"/><rect class="cls-22" x="873.83" y="905.39" width="128.1" height="94.83"/><rect class="cls-20" x="35.44" y="905.39" width="33.51" height="94.83"/></g></svg>