<svg xmlns="http://www.w3.org/2000/svg" viewBox="0 0 1000 1000"><defs><style>.cls-1,.cls-12,.cls-17,.cls-19,.cls-3,.cls-5,.cls-7,.cls-8{fill:none;stroke-linecap:round;stroke-linejoin:round;}.cls-1,.cls-19,.cls-5,.cls-8{stroke:#dadada;}.cls-1,.cls-3{stroke-width:3px;}.cls-1,.cls-4,.cls-5{opacity:0.4;}.cls-2{fill:#3e73e9;}.cls-12,.cls-3,.cls-7{stroke:#fff;}.cls-11,.cls-4{fill:#dadada;}.cls-5{stroke-width:6px;}.cls-6{fill:#2b3b56;opacity:0.2;}.cls-7,.cls-8{stroke-width:2px;}.cls-9{fill:#63c6b3;}.cls-10{fill:#fff;}.cls-13{fill:#ffe3ec;}.cls-14{fill:#ffcbdc;}.cls-15{fill:#ffb5cd;}.cls-16{fill:#2d2d37;}.cls-17{stroke:#ffcbdc;}.cls-17,.cls-19{stroke-width:5px;}.cls-18{fill:#bfab9b;}.cls-20{fill:#ffe4ee;}.cls-21{fill:#c8ccce;}.cls-22{fill:#d5d8db;}.cls-23{fill:#e8ebef;}.cls-24{fill:#897c74;}.cls-25{fill:#706661;}.cls-26{fill:#7f736c;}.cls-27{fill:#665e5a;}</style></defs><g id="뒷배경"><rect class="cls-1" x="127.08" y="284.4" width="282.5" height="62.75" rx="31.37"/><path class="cls-1" d="M216,308.33a15.65,15.65,0,0,0-3.29,9.81,3.22,3.22,0,0,0,.53,2c2.12,2.6,9.23-.76,11.36-2,4-2.36,6.34-5.64,8.56-9.64a13,13,0,0,0,0,11.5,6.07,6.07,0,0,0,5.09,3.26c5.05-.05,7.09-6.3,9.52-9.78-.8,1.17,0,2.74.92,3.85,2.29,2.88,5.64,5.76,9.59,4.49a6.79,6.79,0,0,0,4.54-5.36c-.22,1.57,5.35,2.41,6.31,2.6,4.87,1,10.91-2.88,15.39-.87"/><circle class="cls-2" cx="162.48" cy="315.78" r="24.47"/><circle class="cls-3" cx="160.76" cy="313.55" r="10.52"/><line class="cls-3" x1="167.67" y1="321.48" x2="174.71" y2="328.51"/><rect class="cls-4" x="213.1" y="398.05" width="109.6" height="31.37" rx="15.69"/><rect class="cls-4" x="523.19" y="65.63" width="186.81" height="62.75" rx="4.32"/><polygon class="cls-5" points="446.4 437.61 408.11 412.65 408.56 458.35 422.89 450.5 430.89 465.09 440.07 460.06 432.07 445.46 446.4 437.61"/><rect class="cls-1" x="58.07" y="133.6" width="282.5" height="62.75" rx="4.32"/><rect class="cls-2" x="371.88" y="65.63" width="169.06" height="62.75" rx="4.32"/><rect class="cls-6" x="132.02" y="153.67" width="55.15" height="6.7"/><rect class="cls-6" x="132.02" y="167.31" width="137.02" height="10.92"/><path class="cls-7" d="M423.78,89.57a15.6,15.6,0,0,0-3.29,9.8,3.16,3.16,0,0,0,.53,2c2.12,2.6,9.22-.76,11.35-2,4.05-2.36,6.35-5.64,8.57-9.64a13,13,0,0,0,0,11.5,6.07,6.07,0,0,0,5.08,3.26c5.06,0,7.1-6.3,9.53-9.78-.8,1.17,0,2.74.91,3.85,2.29,2.88,5.65,5.76,9.6,4.49a6.77,6.77,0,0,0,4.54-5.36c-.22,1.57,5.35,2.41,6.3,2.6,4.88,1,10.92-2.88,15.4-.87"/><path class="cls-8" d="M596.37,89.38a15.65,15.65,0,0,0-3.29,9.81,3.17,3.17,0,0,0,.53,2c2.12,2.6,9.22-.76,11.35-2,4-2.36,6.35-5.65,8.57-9.64a13,13,0,0,0,0,11.5,6.06,6.06,0,0,0,5.08,3.25c5.06-.05,7.1-6.29,9.53-9.77-.8,1.16,0,2.73.91,3.84,2.29,2.89,5.65,5.76,9.6,4.49a6.77,6.77,0,0,0,4.54-5.36c-.22,1.57,5.35,2.42,6.3,2.61,4.88,1,10.92-2.89,15.4-.88"/><path class="cls-8" d="M236.44,409.44a9,9,0,0,0-1.9,5.66,1.82,1.82,0,0,0,.3,1.13c1.23,1.51,5.33-.43,6.56-1.15a13.27,13.27,0,0,0,4.95-5.57,7.54,7.54,0,0,0,0,6.65A3.49,3.49,0,0,0,249.3,418c2.92,0,4.1-3.63,5.5-5.64-.46.67,0,1.58.53,2.22,1.32,1.67,3.26,3.33,5.54,2.59a3.89,3.89,0,0,0,2.62-3.09c-.13.91,3.09,1.39,3.64,1.5,2.82.56,6.31-1.66,8.89-.5"/><rect class="cls-2" x="354.03" y="205.86" width="109.91" height="109.91" rx="14.94"/><path class="cls-9" d="M429.91,238.5H388.08a8.11,8.11,0,0,0-8.11,8.11V273a8.11,8.11,0,0,0,8.11,8.11h27.53L430.76,294l-.85-12.8A8.11,8.11,0,0,0,438,273V246.61A8.11,8.11,0,0,0,429.91,238.5Z"/><circle class="cls-10" cx="395.73" cy="259.67" r="3.99"/><circle class="cls-10" cx="409.09" cy="259.67" r="3.99"/><circle class="cls-10" cx="422.25" cy="259.67" r="3.99"/><path class="cls-6" d="M96.81,143.16a21.89,21.89,0,0,0-10,41.38V178a10,10,0,1,1,19.92,0v6.54a21.89,21.89,0,0,0-10-41.38Zm0,22.79a5.85,5.85,0,1,1,5.85-5.85A5.85,5.85,0,0,1,96.81,166Z"/><circle class="cls-11" cx="307.84" cy="413.74" r="8.64"/><line class="cls-12" x1="304.37" y1="410.27" x2="311.31" y2="417.21"/><line class="cls-12" x1="311.31" y1="410.27" x2="304.37" y2="417.21"/><rect class="cls-2" x="138.01" y="451.93" width="57.28" height="28.06" rx="14.03"/><circle class="cls-10" cx="152.22" cy="465.95" r="10.21"/><rect class="cls-4" x="789.68" y="114.35" width="57.28" height="28.06" rx="14.03" transform="translate(1636.65 256.76) rotate(180)"/><circle class="cls-10" cx="832.76" cy="128.38" r="10.21"/></g><g id="얼굴"><path class="cls-13" d="M780,364.3s1,36-33,42v117H589V473.69s-37-14.39-47-57.39c0,0-.39,0-1.08.05-6,.16-34.92-.68-34.92-32.05,0-35,17.26-38.46,17.26-38.46S515,209,643,210.64,782,336.3,780,364.3Z"/></g><g id="표정"><path class="cls-14" d="M589,473.69s76,22.61,123-18.39l-28,68H589Z"/><path class="cls-15" d="M728.44,421.35s-26.82-20.18-49.06.95c-27.36,26-4.06,52.52-4.06,52.52s18.31-3.64,36.7-19.52A76.91,76.91,0,0,0,728.44,421.35Z"/><path class="cls-15" d="M589,473.69s-37-14.39-47-57.39c0,0-.39,0-1.08.05l1.57-1.05s27.51-12,43,15.08C599.6,455,589,473.69,589,473.69Z"/><path class="cls-15" d="M675.32,474.82s18.31-3.64,36.7-19.52a76.91,76.91,0,0,0,16.42-33.95"/><ellipse class="cls-10" cx="668.21" cy="394.3" rx="21.5" ry="26"/><ellipse class="cls-16" cx="664.56" cy="394.3" rx="15.72" ry="20.43"/><ellipse class="cls-10" cx="589.02" cy="394.3" rx="21.5" ry="26"/><ellipse class="cls-16" cx="585.37" cy="394.3" rx="15.72" ry="20.43"/><path class="cls-17" d="M754.8,356.53V385s-.69-21.43,11.85-23"/><path class="cls-17" d="M529.74,361.31s4.63,36.25,9.72,47.42"/></g><g id="머리카락"><path class="cls-16" d="M780,364.3c0-39-43-41-42,2,0,0-20-7-41-7s-43-17-43-17,2,9,4,12c0,0-43,18-72-14,0,0-2,4.59,0,13.8,0,0-97,30.2-87-91.8s145-115,162-108c0,0,96-22,135,64,0,0,21,41,12,80S780,364.3,780,364.3Z"/></g><g id="와이셔츠_뒷면" data-name="와이셔츠 뒷면"><polyline class="cls-10" points="566.05 539.2 767.63 539.2 747.46 649.51 661.75 659.84 599.45 632.49 575.44 592.68 566.05 539.2"/></g><g id="넥타이"><polygon class="cls-16" points="643.12 564.15 650.52 585.84 629.84 643.28 701.88 643.28 684.09 585.84 690.89 564.01 666.07 516.54 643.12 564.15"/></g><g id="조끼"><path class="cls-18" d="M883,988.54c-1.82-75.67-25.83-423.23-25.83-423.23-26.14-11.81-86.1-32.71-86.1-32.71S743.64,643.22,667.27,643.22h0c-76.36,0-103.79-110.62-103.79-110.62s-59.94,20.9-86.08,32.71c0,0-24,347.56-25.84,423.23Z"/></g><g id="와이셔츠_깃" data-name="와이셔츠 깃"><path class="cls-10" d="M666.84,524.9l12.36,30.89a13.09,13.09,0,0,0,14,8.1l65.5-13.95c6-1.41,15.62-8.21,11.89-17.27L747,492.08a336.48,336.48,0,0,1-80.17,9.42Z"/><path class="cls-10" d="M666.84,524.9l-12.35,30.89a13.1,13.1,0,0,1-14,8.1L575,549.94c-6-1.41-15.62-8.21-11.9-17.27l23.62-40.59a336.48,336.48,0,0,0,80.17,9.42Z"/><line class="cls-19" x1="694.5" y1="563.27" x2="755.19" y2="550.77"/><line class="cls-19" x1="637.54" y1="563.27" x2="577.49" y2="550.48"/></g><g id="손"><path class="cls-20" d="M623.18,715.32c-12.3-1.4-29.17-4.49-40.25-6.65a126,126,0,0,0-24-2.3c-10.46-.43-23.07,7.35-23.07,7.35h0l-16.83-.28-99.21-2.86a18.4,18.4,0,1,0-1.06,36.79l52.32,1.51a18.36,18.36,0,0,0,2.07,31.59,18.39,18.39,0,0,0,6.8,35.25l56.86,1.64,6,35.23L608,854.47l36,1,4-139.47Z"/></g><g id="팔"><path class="cls-10" d="M477.41,565.3l-24.1,434.57H340.57c6.16-368,135.8-434,136.83-434.56Z"/><path class="cls-19" d="M352.76,840c23.46-159.39,74.49-229.91,103.46-258.11"/><path class="cls-10" d="M898.06,923.18c-42.81,5.16-40.92-357.88-40.92-357.88s89,56.33,110.31,164.66a1.55,1.55,0,0,0,0,.21C969,737,1004.81,910.33,898.06,923.18Z"/><path class="cls-10" d="M731.47,613H871a0,0,0,0,1,0,0V897.84a69.75,69.75,0,0,1-69.75,69.75h0a69.75,69.75,0,0,1-69.75-69.75V613A0,0,0,0,1,731.47,613Z" transform="translate(-11.85 1568.35) rotate(-88.35)"/><path class="cls-10" d="M967.08,730.24a1.55,1.55,0,0,1,0-.21A1.76,1.76,0,0,1,967.08,730.24Z"/></g><g id="선"><line class="cls-19" x1="669.06" y1="806.15" x2="671.37" y2="726.39"/><path class="cls-19" d="M877,580.43c27.51,23.4,75.54,73.74,90.47,149.53a1.55,1.55,0,0,0,0,.21c.81,3.81,12.29,59.25,3.87,109.85"/><line class="cls-19" x1="867.2" y1="726.39" x2="903.93" y2="735.73"/><line class="cls-19" x1="755.19" y1="497.49" x2="767.63" y2="524.85"/></g><g id="책상_위_사물" data-name="책상 위 사물"><rect class="cls-21" x="86.12" y="843.03" width="682.26" height="14.73"/><rect class="cls-22" x="86.12" y="843.03" width="463.4" height="14.73"/><polygon class="cls-21" points="561.83 843.03 98.6 843.03 51.37 541.28 514.6 541.28 561.83 843.03"/><polygon class="cls-23" points="549.35 843.03 86.12 843.03 38.89 541.28 502.12 541.28 549.35 843.03"/></g><g id="책상"><rect class="cls-24" y="857.76" width="1000" height="47.41"/><rect class="cls-24" y="905.17" width="67.02" height="94.83"/><rect class="cls-24" x="804.88" y="905.17" width="67.02" height="94.83"/><polygon class="cls-25" points="1000 857.76 1000 905.17 871.9 905.17 871.9 1000 838.39 1000 838.39 857.76 1000 857.76"/><rect class="cls-26" x="67.02" y="905.17" width="737.86" height="94.83"/><rect class="cls-27" x="871.9" y="905.17" width="128.1" height="94.83"/><rect class="cls-25" x="33.51" y="905.17" width="33.51" height="94.83"/></g></svg>