<svg xmlns="http://www.w3.org/2000/svg" viewBox="0 0 1000 1000"><defs><style>.cls-1,.cls-11,.cls-13,.cls-4{fill:none;stroke-linecap:round;stroke-linejoin:round;}.cls-1,.cls-13{stroke:#dadada;}.cls-1,.cls-11,.cls-13{stroke-width:5px;}.cls-1{opacity:0.4;}.cls-2{fill:#2b3b56;opacity:0.2;}.cls-3,.cls-5{fill:#3e73e9;}.cls-4{stroke:#fff;stroke-width:2px;}.cls-5{opacity:0.8;}.cls-6{fill:#fff;}.cls-7{fill:#ffe3ec;}.cls-8{fill:#ffcbdc;}.cls-9{fill:#ffb5cd;}.cls-10{fill:#2d2d37;}.cls-11{stroke:#ffcbdc;}.cls-12{fill:#bfab9b;}.cls-14{fill:#ffe4ee;}.cls-15{fill:#c8ccce;}.cls-16{fill:#d5d8db;}.cls-17{fill:#e8ebef;}.cls-18{fill:#897c74;}.cls-19{fill:#706661;}.cls-20{fill:#7f736c;}.cls-21{fill:#665e5a;}</style></defs><g id="뒷배경"><path class="cls-1" d="M518,158V68.14a29.35,29.35,0,0,0-29.35-29.35H67.1A29.35,29.35,0,0,0,37.75,68.14V422.67A29.35,29.35,0,0,0,67.1,452H271.39l62,63.5-13-63.5H487.3a30.7,30.7,0,0,0,30.7-30.7"/><path class="cls-2" d="M161.49,126.42A44.2,44.2,0,0,0,141.37,210V196.76a20.12,20.12,0,0,1,40.24,0V210a44.2,44.2,0,0,0-20.12-83.55Zm0,46a11.81,11.81,0,1,1,11.81-11.81A11.81,11.81,0,0,1,161.49,172.44Z"/><rect class="cls-2" x="116.48" y="230.21" width="90.02" height="9.04"/><rect class="cls-3" x="84.1" y="347.61" width="154.78" height="29.16" rx="4.32"/><rect class="cls-2" x="327.14" y="202.16" width="32.57" height="32.57" rx="4.32"/><rect class="cls-2" x="123.77" y="243.61" width="75.43" height="4.52"/><rect class="cls-2" x="374.1" y="209.48" width="90.02" height="9.04"/><rect class="cls-2" x="374.1" y="222.88" width="75.43" height="4.52"/><rect class="cls-2" x="327.14" y="245.87" width="32.57" height="32.57" rx="4.32"/><rect class="cls-2" x="374.1" y="253.2" width="90.02" height="9.04"/><rect class="cls-2" x="374.1" y="266.6" width="75.43" height="4.52"/><rect class="cls-2" x="327.14" y="289.59" width="32.57" height="32.57" rx="4.32"/><rect class="cls-2" x="374.1" y="296.91" width="90.02" height="9.04"/><rect class="cls-2" x="374.1" y="310.32" width="75.43" height="4.52"/><rect class="cls-2" x="105.81" y="273.92" width="111.36" height="6.47"/><rect class="cls-2" x="107.99" y="283.88" width="107" height="4.13"/><rect class="cls-2" x="115.82" y="291.5" width="94.88" height="4.13"/><rect class="cls-2" x="124.11" y="300.28" width="74.76" height="4.13"/><path class="cls-4" d="M143.62,360a8.6,8.6,0,0,0-1.81,5.38,1.71,1.71,0,0,0,.29,1.07c1.17,1.42,5.06-.41,6.22-1.1a12.63,12.63,0,0,0,4.7-5.28,7.14,7.14,0,0,0,0,6.31,3.34,3.34,0,0,0,2.79,1.78c2.77,0,3.89-3.45,5.22-5.36-.44.64,0,1.5.5,2.11,1.25,1.58,3.09,3.16,5.26,2.46a3.72,3.72,0,0,0,2.49-2.94c-.13.86,2.92,1.32,3.45,1.43,2.67.53,6-1.58,8.43-.48"/><path class="cls-2" d="M234.27,409.76H88.71a19.24,19.24,0,0,1-19.22-19.22V99.43A19.25,19.25,0,0,1,88.71,80.21H234.27a19.25,19.25,0,0,1,19.22,19.22V390.54A19.24,19.24,0,0,1,234.27,409.76ZM88.71,83.21A16.24,16.24,0,0,0,72.49,99.43V390.54a16.24,16.24,0,0,0,16.22,16.22H234.27a16.24,16.24,0,0,0,16.22-16.22V99.43a16.24,16.24,0,0,0-16.22-16.22Z"/><path class="cls-2" d="M469.07,409.76H323.5a19.24,19.24,0,0,1-19.22-19.22V99.43A19.25,19.25,0,0,1,323.5,80.21H469.07a19.25,19.25,0,0,1,19.22,19.22V390.54A19.25,19.25,0,0,1,469.07,409.76ZM323.5,83.21a16.24,16.24,0,0,0-16.22,16.22V390.54a16.24,16.24,0,0,0,16.22,16.22H469.07a16.24,16.24,0,0,0,16.22-16.22V99.43a16.24,16.24,0,0,0-16.22-16.22Z"/><rect class="cls-3" x="318.89" y="347.61" width="154.78" height="29.16" rx="4.32"/><path class="cls-4" d="M378.41,360a8.6,8.6,0,0,0-1.81,5.38,1.71,1.71,0,0,0,.29,1.07c1.17,1.42,5.06-.41,6.22-1.1a12.63,12.63,0,0,0,4.7-5.28,7.14,7.14,0,0,0,0,6.31,3.34,3.34,0,0,0,2.79,1.78c2.77,0,3.89-3.45,5.22-5.36-.44.64,0,1.5.5,2.11,1.25,1.58,3.09,3.16,5.26,2.46a3.72,3.72,0,0,0,2.49-2.94c-.13.86,2.92,1.32,3.45,1.43,2.67.53,6-1.58,8.43-.48"/><path class="cls-5" d="M246.82,364.18h31.71a1,1,0,0,0,1-1V226.31H296a4,4,0,0,0,3.9,3h4v-8.08h-4a4,4,0,0,0-3.9,3H278.53a1,1,0,0,0-1,1V362.18H246.82a4,4,0,0,0-3.9-3h-4v8.08h4A4,4,0,0,0,246.82,364.18Z"/><path class="cls-2" d="M484.63,99.43v28.26a104.11,104.11,0,0,1-178,0V99.43a16.24,16.24,0,0,1,16.22-16.22H468.41A16.24,16.24,0,0,1,484.63,99.43Z"/><path class="cls-6" d="M395.63,98.92a23.6,23.6,0,0,0-10.74,44.61v-7.05a10.74,10.74,0,1,1,21.47,0v7.05a23.6,23.6,0,0,0-10.73-44.61Zm0,24.58a6.31,6.31,0,1,1,6.3-6.31A6.31,6.31,0,0,1,395.63,123.5Z"/><rect class="cls-6" x="375.98" y="152.85" width="39.3" height="3.05"/><rect class="cls-6" x="379.16" y="157.96" width="32.93" height="1.73"/><path class="cls-5" d="M397.62,376.76v4a4,4,0,0,0,3,3.9v42.36H161.77V384.7a4,4,0,0,0,3-3.9v-4h-8.08v4a4,4,0,0,0,3,3.9v43.36a1,1,0,0,0,1,1H401.66a1,1,0,0,0,1-1V384.7a4,4,0,0,0,3-3.9v-4Z"/></g><g id="얼굴"><path class="cls-7" d="M780.05,364.3s1,36-33,42v117h-158V473.69s-37-14.39-47-57.39c0,0-.39,0-1.08.05-6,.16-34.92-.68-34.92-32.05,0-35,17.26-38.46,17.26-38.46S515.05,209,643.05,210.64,782.05,336.3,780.05,364.3Z"/></g><g id="표정"><path class="cls-8" d="M589.05,473.69s76,22.61,123-18.39l-28,68h-95Z"/><path class="cls-9" d="M728.47,421.35s-26.82-20.18-49.06.95c-27.36,26-4.06,52.52-4.06,52.52s18.31-3.64,36.7-19.52A76.91,76.91,0,0,0,728.47,421.35Z"/><path class="cls-9" d="M589.05,473.69s-37-14.39-47-57.39c0,0-.39,0-1.08.05l1.57-1.05s27.51-12,43,15.08C599.63,455,589.05,473.69,589.05,473.69Z"/><path class="cls-9" d="M675.35,474.82s18.31-3.64,36.7-19.52a76.91,76.91,0,0,0,16.42-33.95"/><ellipse class="cls-6" cx="668.24" cy="394.3" rx="21.5" ry="26"/><ellipse class="cls-10" cx="664.59" cy="394.3" rx="15.72" ry="20.43"/><ellipse class="cls-6" cx="589.05" cy="394.3" rx="21.5" ry="26"/><ellipse class="cls-10" cx="585.4" cy="394.3" rx="15.72" ry="20.43"/><path class="cls-11" d="M754.82,356.53V385s-.68-21.43,11.86-23"/><path class="cls-11" d="M529.77,361.31s4.63,36.25,9.72,47.42"/></g><g id="머리카락"><path class="cls-10" d="M780.05,364.3c0-39-43-41-42,2,0,0-20-7-41-7s-43-17-43-17,2,9,4,12c0,0-43,18-72-14,0,0-2,4.59,0,13.8,0,0-97,30.2-87-91.8s145-115,162-108c0,0,96-22,135,64,0,0,21,41,12,80S780.05,364.3,780.05,364.3Z"/></g><g id="와이셔츠_뒷면" data-name="와이셔츠 뒷면"><polyline class="cls-6" points="566.09 539.2 767.66 539.2 747.49 649.51 661.78 659.84 599.48 632.49 575.47 592.68 566.09 539.2"/></g><g id="넥타이"><polygon class="cls-10" points="643.15 564.15 650.55 585.84 629.87 643.28 701.91 643.28 684.12 585.84 690.92 564.01 666.1 516.54 643.15 564.15"/></g><g id="조끼"><path class="cls-12" d="M883,988.54c-1.82-75.67-25.83-423.23-25.83-423.23-26.14-11.81-86.1-32.71-86.1-32.71S743.66,643.22,667.3,643.22h0c-76.36,0-103.79-110.62-103.79-110.62s-59.95,20.9-86.08,32.71c0,0-24,347.56-25.84,423.23Z"/></g><g id="와이셔츠_깃" data-name="와이셔츠 깃"><path class="cls-6" d="M666.87,524.9l12.36,30.89a13.09,13.09,0,0,0,14,8.1l65.5-13.95c6-1.41,15.62-8.21,11.89-17.27L747,492.08a336.48,336.48,0,0,1-80.17,9.42Z"/><path class="cls-6" d="M666.87,524.9l-12.35,30.89a13.1,13.1,0,0,1-14,8.1L575,549.94c-6-1.41-15.62-8.21-11.9-17.27l23.62-40.59a336.48,336.48,0,0,0,80.17,9.42Z"/><line class="cls-13" x1="694.53" y1="563.27" x2="755.22" y2="550.77"/><line class="cls-13" x1="637.57" y1="563.27" x2="577.52" y2="550.48"/></g><g id="팔"><path class="cls-6" d="M477.44,565.3l-24.1,434.57H340.6c6.16-368,135.8-434,136.83-434.56Z"/><path class="cls-13" d="M352.79,840c23.45-159.39,74.49-229.91,103.46-258.11"/></g><g id="선"><line class="cls-13" x1="755.22" y1="497.49" x2="767.66" y2="524.85"/><path class="cls-6" d="M967.08,730.24a1.55,1.55,0,0,1,0-.21A1.76,1.76,0,0,1,967.08,730.24Z"/><line class="cls-13" x1="755.19" y1="497.49" x2="767.63" y2="524.85"/><path class="cls-14" d="M577,572.22h0a18.4,18.4,0,0,1,18.4,18.4V697.5a2.5,2.5,0,0,1-2.5,2.5H561.09a2.5,2.5,0,0,1-2.5-2.5V590.62a18.4,18.4,0,0,1,18.4-18.4Z" transform="translate(-281.8 631.66) rotate(-47.49)"/><path class="cls-14" d="M596.48,542.53h0a18.4,18.4,0,0,1,18.4,18.4V667.81a2.5,2.5,0,0,1-2.5,2.5H580.57a2.5,2.5,0,0,1-2.5-2.5V560.94a18.4,18.4,0,0,1,18.4-18.4Z" transform="translate(-253.6 636.39) rotate(-47.49)"/><path class="cls-14" d="M706.74,620.9l-31.93,1.55a2.48,2.48,0,0,1-2.61-2.38l-4.13-107.35a18.73,18.73,0,0,1,17.77-19.38h0A18.27,18.27,0,0,1,705,510.93l4.13,107.34A2.54,2.54,0,0,1,706.74,620.9Z"/><path class="cls-14" d="M619,518h0a18.4,18.4,0,0,1,18.4,18.4V643.28a2.5,2.5,0,0,1-2.5,2.5H603.06a2.5,2.5,0,0,1-2.5-2.5V536.4A18.4,18.4,0,0,1,619,518Z" transform="translate(-228.22 645.01) rotate(-47.49)"/><path class="cls-14" d="M619.6,439.93h0a18.4,18.4,0,0,1,18.4,18.4v173.9a2.5,2.5,0,0,1-2.5,2.5H603.7a2.5,2.5,0,0,1-2.5-2.5V458.34a18.4,18.4,0,0,1,18.4-18.4Z" transform="translate(-195.17 631.03) rotate(-47.49)"/><polygon class="cls-14" points="646.97 537.45 573.96 658.27 622.01 702.32 648.56 726.66 742.85 623.79 716.29 599.46 646.97 537.45"/><path class="cls-14" d="M707.48,574.79a74.1,74.1,0,0,0,17,32.18c16.86,18.31-15.35,11.3-15.35,11.3L687,597.45l4.22-31.08Z"/><path class="cls-14" d="M669.53,551.12s-2.6,4.33-6.77.45S673,569.69,673,569.69l8.31-11.76Z"/><path class="cls-6" d="M897.73,922c-42.81,5.16-40.92-357.88-40.92-357.88s89,56.33,110.31,164.66a1.55,1.55,0,0,0,0,.21C968.62,735.86,1004.48,909.19,897.73,922Z"/><path class="cls-6" d="M740.38,602.81h139.5a0,0,0,0,1,0,0V887.69a69.75,69.75,0,0,1-69.75,69.75h0a69.75,69.75,0,0,1-69.75-69.75V602.81a0,0,0,0,1,0,0Z" transform="translate(-312.36 850.23) rotate(-47.49)"/><path class="cls-6" d="M966.75,729.09a1.55,1.55,0,0,1,0-.21A1.76,1.76,0,0,1,966.75,729.09Z"/><line class="cls-11" x1="581.22" y1="615.01" x2="556.81" y2="592.64"/><line class="cls-11" x1="603.7" y1="590.47" x2="579.3" y2="568.11"/><line class="cls-11" x1="626.19" y1="565.94" x2="601.79" y2="543.57"/><line class="cls-13" x1="699.78" y1="705.69" x2="753.69" y2="646.87"/><path class="cls-13" d="M876.65,579.29c27.51,23.4,75.55,73.74,90.47,149.53a1.55,1.55,0,0,0,0,.21c.81,3.8,12.29,59.24,3.87,109.85"/><line class="cls-13" x1="867.25" y1="737.86" x2="895.18" y2="763.47"/><path class="cls-1" d="M846.79,67.59c-16.12-6.23-36.92-12.11-52.59-1.39-22.87,15.65.82,37.58,16.63,46,10.71,5.72,22.5,9.11,34.32,11.88,8.87,2.07,26.27,3.24,25-11-.52-5.85-4.67-10.71-9.1-14.58-10.54-9.19-24.33-15.23-38.29-14.4S795,93.54,790.05,106.6a23.73,23.73,0,0,0-1.26,13.82c1.77,7.39,7.8,13,14.15,17.16,7,4.61,15.88,8.34,24.45,7.88,6.26-.33,20.44-4.84,8.83-10.5a74.39,74.39,0,0,0-28-7.35c-6.42-.38-13.1.14-18.79,3.12-15,7.88-9,20.44-.85,30.78"/></g><g id="책상_위_사물" data-name="책상 위 사물"><rect class="cls-15" x="86.15" y="843.03" width="682.26" height="14.73"/><rect class="cls-16" x="86.15" y="843.03" width="463.4" height="14.73"/><polygon class="cls-15" points="561.86 843.03 98.63 843.03 51.4 541.28 514.63 541.28 561.86 843.03"/><polygon class="cls-17" points="549.38 843.03 86.15 843.03 38.92 541.28 502.15 541.28 549.38 843.03"/></g><g id="책상"><rect class="cls-18" x="0.03" y="857.76" width="1000" height="47.41"/><rect class="cls-18" x="0.03" y="905.17" width="67.02" height="94.83"/><rect class="cls-18" x="804.91" y="905.17" width="67.02" height="94.83"/><polygon class="cls-19" points="1000.03 857.76 1000.03 905.17 871.93 905.17 871.93 1000 838.42 1000 838.42 857.76 1000.03 857.76"/><rect class="cls-20" x="67.04" y="905.17" width="737.86" height="94.83"/><rect class="cls-21" x="871.93" y="905.17" width="128.1" height="94.83"/><rect class="cls-19" x="33.54" y="905.17" width="33.51" height="94.83"/></g></svg>