<svg xmlns="http://www.w3.org/2000/svg" viewBox="0 0 1000 1000"><defs><style>.cls-1{fill:#ffe3ec;}.cls-2{fill:#ffcbdc;}.cls-3{fill:#ffb5cd;}.cls-11,.cls-4{fill:#fff;}.cls-5{fill:#2d2d37;}.cls-12,.cls-6,.cls-8{fill:none;stroke-linecap:round;stroke-linejoin:round;}.cls-6{stroke:#ffcbdc;}.cls-11,.cls-6,.cls-8{stroke-width:5px;}.cls-7{fill:#bfab9b;}.cls-8{stroke:#dadada;}.cls-9{fill:#ffea55;opacity:0.5;}.cls-10{fill:#ffe4ee;}.cls-11{stroke:#2d2d37;stroke-miterlimit:10;}.cls-12{stroke:#fff;stroke-width:3px;}.cls-13{fill:#897c74;}.cls-14{fill:#706661;}.cls-15{fill:#7f736c;}.cls-16{fill:#665e5a;}</style></defs><g id="얼굴"><path class="cls-1" d="M640.42,364.3s1,36-33,42v117h-158V473.69s-37-14.39-47-57.39c0,0-.39,0-1.08.05-6,.16-34.92-.68-34.92-32.05,0-35,17.26-38.46,17.26-38.46S375.42,209,503.42,210.64,642.42,336.3,640.42,364.3Z"/></g><g id="표정"><path class="cls-2" d="M449.42,473.69s76,22.61,123-18.39l-28,68h-95Z"/><path class="cls-3" d="M588.85,421.35s-26.82-20.18-49.06.95c-27.37,26-4.06,52.52-4.06,52.52s18.3-3.64,36.69-19.52A77,77,0,0,0,588.85,421.35Z"/><path class="cls-3" d="M449.42,473.69s-37-14.39-47-57.39c0,0-.39,0-1.08.05l1.57-1.05s27.51-12,43,15.08C460,455,449.42,473.69,449.42,473.69Z"/><path class="cls-3" d="M535.73,474.82s18.3-3.64,36.69-19.52a77,77,0,0,0,16.43-33.95"/><ellipse class="cls-4" cx="528.61" cy="394.3" rx="21.5" ry="26"/><ellipse class="cls-5" cx="524.97" cy="394.3" rx="15.72" ry="20.43"/><ellipse class="cls-4" cx="449.42" cy="394.3" rx="21.5" ry="26"/><ellipse class="cls-5" cx="445.78" cy="394.3" rx="15.72" ry="20.43"/><path class="cls-6" d="M615.2,356.53V385s-.68-21.43,11.85-23"/><path class="cls-6" d="M390.14,361.31s4.63,36.25,9.73,47.42"/></g><g id="머리카락"><path class="cls-5" d="M640.42,364.3c0-39-43-41-42,2,0,0-20-7-41-7s-43-17-43-17,2,9,4,12c0,0-43,18-72-14,0,0-2,4.59,0,13.8,0,0-97,30.2-87-91.8s145-115,162-108c0,0,96-22,135,64,0,0,21,41,12,80S640.42,364.3,640.42,364.3Z"/></g><g id="와이셔츠_뒷면" data-name="와이셔츠 뒷면"><polyline class="cls-4" points="426.46 539.2 628.03 539.2 607.86 649.51 522.16 659.84 459.85 632.49 435.84 592.68 426.46 539.2"/></g><g id="넥타이"><polygon class="cls-5" points="503.52 564.15 510.92 585.84 490.25 643.28 562.29 643.28 544.5 585.84 551.3 564.01 526.48 516.54 503.52 564.15"/></g><g id="조끼"><path class="cls-7" d="M743.39,988.54c-1.83-75.67-25.84-423.23-25.84-423.23-26.13-11.81-86.09-32.71-86.09-32.71S604,643.22,527.68,643.22h0c-76.36,0-103.79-110.62-103.79-110.62s-59.95,20.9-86.09,32.71c0,0-24,347.56-25.83,423.23Z"/></g><g id="와이셔츠_깃" data-name="와이셔츠 깃"><path class="cls-4" d="M527.25,524.9l12.35,30.89a13.11,13.11,0,0,0,14,8.1l65.5-13.95c6-1.41,15.61-8.21,11.89-17.27l-23.62-40.59a336.48,336.48,0,0,1-80.17,9.42Z"/><path class="cls-4" d="M527.25,524.9,514.9,555.79a13.11,13.11,0,0,1-14,8.1l-65.5-13.95c-6-1.41-15.62-8.21-11.89-17.27l23.62-40.59a336.48,336.48,0,0,0,80.17,9.42Z"/><line class="cls-8" x1="554.91" y1="563.27" x2="615.59" y2="550.77"/><line class="cls-8" x1="497.94" y1="563.27" x2="437.89" y2="550.48"/></g><g id="중간소품"><polygon class="cls-9" points="645.37 152.35 664.27 121.21 683.17 90.08 668.55 85.04 653.93 80 649.65 116.17 645.37 152.35"/><polygon class="cls-9" points="664.99 166.69 696.5 148.42 728.01 130.16 717.59 118.73 707.17 107.3 686.08 136.99 664.99 166.69"/><polygon class="cls-9" points="677.18 180.06 713.57 181.74 749.95 183.42 747.37 168.17 744.78 152.92 710.98 166.49 677.18 180.06"/></g><g id="팔"><path class="cls-4" d="M714.68,565.53l22.67,408.73,78.47-40.52C871,726.87,714.68,565.53,714.68,565.53"/><path class="cls-8" d="M827.42,832c-4.12-119.42-68.26-212.42-97.91-249.27"/><path class="cls-4" d="M334.92,565.49,312.26,974.22l-78.47-40.51C178.56,726.83,334.92,565.49,334.92,565.49"/><path class="cls-8" d="M222.12,834.11c2.74-96.65,44.95-176.2,76.94-223"/><path class="cls-10" d="M579.76,544.65h0a18.4,18.4,0,0,1,18.4,18.4V669.93a2.5,2.5,0,0,1-2.5,2.5H563.85a2.5,2.5,0,0,1-2.5-2.5V563.05a18.4,18.4,0,0,1,18.4-18.4Z" transform="translate(-138.05 171.29) rotate(-15.04)"/><path class="cls-10" d="M612.12,530.06h0a18.4,18.4,0,0,1,18.4,18.4V655.34a2.5,2.5,0,0,1-2.5,2.5H596.22a2.5,2.5,0,0,1-2.5-2.5V548.46a18.4,18.4,0,0,1,18.4-18.4Z" transform="translate(-133.15 179.18) rotate(-15.04)"/><path class="cls-10" d="M644.26,521.42h0a18.4,18.4,0,0,1,18.4,18.4V646.7a2.5,2.5,0,0,1-2.5,2.5H628.36a2.5,2.5,0,0,1-2.5-2.5V539.82a18.4,18.4,0,0,1,18.4-18.4Z" transform="translate(-129.81 187.23) rotate(-15.04)"/><path class="cls-10" d="M677.41,516.53h0a18.4,18.4,0,0,1,18.4,18.4V641.81a2.5,2.5,0,0,1-2.5,2.5H661.5a2.5,2.5,0,0,1-2.5-2.5V534.93a18.4,18.4,0,0,1,18.4-18.4Z" transform="translate(-127.41 195.66) rotate(-15.04)"/><path class="cls-10" d="M692.11,564.21l-126.82,61.4,16.92,63,9.35,34.78L725.9,687.26l-9.35-34.78s19.71-25.74,10.52-60C719.68,565,692.11,564.21,692.11,564.21Z"/><path class="cls-4" d="M782.33,1000H670.41A69.76,69.76,0,0,1,659,976.45L585.1,701.33l.5-.13,134.22-36.07,5.95,22.16,68,253A69.62,69.62,0,0,1,782.33,1000Z"/><line class="cls-6" x1="594.64" y1="593" x2="586.05" y2="561.03"/><line class="cls-6" x1="626.78" y1="584.37" x2="618.19" y2="552.39"/><line class="cls-6" x1="658.92" y1="575.73" x2="650.33" y2="543.76"/><line class="cls-6" x1="697.66" y1="584.88" x2="708.64" y2="625.73"/><line class="cls-6" x1="703.15" y1="605.31" x2="709.24" y2="595.88"/><line class="cls-8" x1="645.31" y1="732.44" x2="722.36" y2="711.74"/><path class="cls-10" d="M441.6,547.2h31.81a2.5,2.5,0,0,1,2.5,2.5V656.58A18.4,18.4,0,0,1,457.5,675h0a18.4,18.4,0,0,1-18.4-18.4V549.7A2.5,2.5,0,0,1,441.6,547.2Z" transform="translate(706.71 1332.64) rotate(-162.23)"/><path class="cls-10" d="M410,531.08h31.81a2.5,2.5,0,0,1,2.5,2.5V640.46a18.4,18.4,0,0,1-18.4,18.4h0a18.4,18.4,0,0,1-18.4-18.4V533.58a2.5,2.5,0,0,1,2.5-2.5Z" transform="translate(649.88 1291.52) rotate(-162.23)"/><path class="cls-10" d="M378.27,520.93h31.81a2.5,2.5,0,0,1,2.5,2.5V630.3a18.4,18.4,0,0,1-18.4,18.4h0a18.4,18.4,0,0,1-18.4-18.4V523.42a2.5,2.5,0,0,1,2.5-2.5Z" transform="translate(591.1 1262.02) rotate(-162.23)"/><path class="cls-10" d="M345.4,514.46h31.81a2.5,2.5,0,0,1,2.5,2.5V623.84a18.4,18.4,0,0,1-18.4,18.4h0a18.4,18.4,0,0,1-18.4-18.4V517a2.5,2.5,0,0,1,2.5-2.5Z" transform="translate(528.9 1239.37) rotate(-162.23)"/><path class="cls-10" d="M347.39,561.46l123.75,67.37-19.89,62.08-11,34.3L307.79,682.76l11-34.29s-18.46-26.64-7.65-60.38C319.81,561,347.39,561.46,347.39,561.46Z"/><path class="cls-4" d="M447.75,703.52,360.82,974.81A69.43,69.43,0,0,1,346.44,1000H242.37A69.73,69.73,0,0,1,228,932.24L307.9,682.81l7-21.86,132.35,42.41Z"/><line class="cls-6" x1="443.38" y1="594.86" x2="453.48" y2="563.33"/><line class="cls-6" x1="411.69" y1="584.71" x2="421.79" y2="553.18"/><line class="cls-6" x1="379.99" y1="574.55" x2="390.1" y2="543.02"/><line class="cls-6" x1="340.86" y1="581.84" x2="327.95" y2="622.13"/><line class="cls-6" x1="334.41" y1="601.99" x2="328.77" y2="592.29"/><line class="cls-8" x1="386.14" y1="731.73" x2="310.16" y2="707.38"/><line class="cls-8" x1="722.36" y1="674.56" x2="756.34" y2="801.01"/><line class="cls-8" x1="310.16" y1="675.77" x2="269.67" y2="801.01"/><line class="cls-8" x1="609.03" y1="500" x2="620.53" y2="519.75"/><line class="cls-8" x1="440.81" y1="498.16" x2="427.2" y2="521.55"/></g><g id="책상_위_사물" data-name="책상 위 사물"><rect class="cls-5" x="57.89" y="644.6" width="291.81" height="213.64" rx="11.36"/><circle class="cls-4" cx="898.58" cy="688.63" r="60.49"/><circle class="cls-4" cx="778.5" cy="588.48" r="72.79"/><rect class="cls-11" x="513.06" y="692.34" width="46.47" height="50.89" transform="translate(1072.59 1435.57) rotate(-180)"/><path class="cls-5" d="M855.8,731.4a60.49,60.49,0,1,0,0-85.54A60.5,60.5,0,0,0,855.8,731.4Zm55.55-63.86a18.92,18.92,0,1,1,0-26.76A18.91,18.91,0,0,1,911.35,667.54Zm-21.57,15.88a3.48,3.48,0,1,1,3.48,3.48A3.48,3.48,0,0,1,889.78,683.42Zm3.48,6.93a3.49,3.49,0,1,1-3.48,3.48A3.49,3.49,0,0,1,893.26,690.35Zm7.15-6.93a3.48,3.48,0,1,1,3.48,3.48A3.48,3.48,0,0,1,900.41,683.42Zm3.48,6.93a3.49,3.49,0,1,1-3.48,3.48A3.49,3.49,0,0,1,903.89,690.35Zm15.77,12.26a18.92,18.92,0,1,1,26.76,0A18.93,18.93,0,0,1,919.66,702.61Zm-33.86,7.11a18.92,18.92,0,1,1,0,26.76A18.92,18.92,0,0,1,885.8,709.72Zm-35.07-8.32a18.92,18.92,0,1,1,26.76,0A18.91,18.91,0,0,1,850.73,701.4Z"/><path class="cls-5" d="M707,601.93a72.77,72.77,0,1,0,58.07-85A72.78,72.78,0,0,0,707,601.93Zm65.08-15.34a4.19,4.19,0,1,1-5.83,1.09A4.19,4.19,0,0,1,772.06,586.59Zm7.06-10.35a4.19,4.19,0,1,1-5.82,1.1A4.19,4.19,0,0,1,779.12,576.24Zm26.39,0a22.76,22.76,0,1,1,18.16-26.58A22.76,22.76,0,0,1,805.51,576.2Zm2.61,13.91A22.76,22.76,0,1,1,790,616.68,22.75,22.75,0,0,1,808.12,590.11Zm-23.16.26a4.18,4.18,0,1,1,5.81-1.09A4.19,4.19,0,0,1,785,590.37Zm-7.07,10.35a4.19,4.19,0,1,1,5.82-1.1A4.21,4.21,0,0,1,777.89,600.72Zm-26.39,0a22.76,22.76,0,1,1-18.16,26.57A22.75,22.75,0,0,1,751.5,600.76Zm-11-58.65a22.76,22.76,0,1,1-18.16,26.58A22.76,22.76,0,0,1,740.47,542.11Z"/><path class="cls-4" d="M806.93,667.55H561.18a14.7,14.7,0,0,0-14.7,14.7V843.54a14.7,14.7,0,0,0,14.7,14.69H806.93a14.7,14.7,0,0,0,14.7-14.69V682.25A14.7,14.7,0,0,0,806.93,667.55ZM600.86,798a18.22,18.22,0,1,1,18.21-18.22A18.21,18.21,0,0,1,600.86,798Zm45.76-25.64a18.21,18.21,0,1,1,18.21-18.21A18.21,18.21,0,0,1,646.62,772.4Z"/><path class="cls-5" d="M546.48,682.25V843.54a14.7,14.7,0,0,0,14.7,14.69H806.93a14.7,14.7,0,0,0,14.7-14.69V682.25a14.7,14.7,0,0,0-14.7-14.7H561.18A14.7,14.7,0,0,0,546.48,682.25ZM749,779.82A18.21,18.21,0,1,1,767.25,798,18.21,18.21,0,0,1,749,779.82Zm-45.76-25.63a18.21,18.21,0,1,1,18.21,18.21A18.21,18.21,0,0,1,703.28,754.19Z"/><rect class="cls-4" x="718.78" y="812.05" width="79.07" height="5.02" transform="translate(1516.62 1629.12) rotate(-180)"/><rect class="cls-4" x="718.78" y="821.57" width="79.07" height="5.02" transform="translate(1516.62 1648.15) rotate(-180)"/><rect class="cls-4" x="718.78" y="831.08" width="79.07" height="5.02" transform="translate(1516.62 1667.18) rotate(-180)"/><path class="cls-5" d="M486.18,753.43l36.5-2.85a5,5,0,0,0,5-5V690a5,5,0,0,0-5-5l-36.5-2.84a5,5,0,0,0-5,5v61.32A5,5,0,0,0,486.18,753.43Z"/><rect class="cls-11" x="48.05" y="556.8" width="283.11" height="35.21" rx="6.68" transform="translate(-182.45 97.47) rotate(-19.69)"/><path class="cls-5" d="M78.16,595.59l-2.23,38.19-7.39,2.65a6.69,6.69,0,0,1-8.54-4l-7.36-20.58a6.69,6.69,0,0,1,4-8.54Z"/><polygon class="cls-5" points="139.59 573.6 137.36 611.8 103.59 623.88 105.82 585.69 139.59 573.6"/><polygon class="cls-5" points="170.91 562.4 168.68 600.59 202.45 588.51 204.68 550.31 170.91 562.4"/><polygon class="cls-5" points="268.07 527.63 265.85 565.82 232.08 577.9 234.3 539.71 268.07 527.63"/><path class="cls-5" d="M319.2,516.42,326.56,537a6.69,6.69,0,0,1-4,8.54l-26.09,9.33,2.22-38.19,12-4.3A6.69,6.69,0,0,1,319.2,516.42Z"/><rect class="cls-11" x="61.04" y="647.92" width="283.11" height="35.21" rx="6.68"/><path class="cls-5" d="M90.53,647.92l-15,35.21H67.72A6.68,6.68,0,0,1,61,676.45V654.6a6.68,6.68,0,0,1,6.68-6.68Z"/><polygon class="cls-5" points="155.78 647.92 140.81 683.13 104.94 683.13 119.91 647.92 155.78 647.92"/><polygon class="cls-5" points="189.04 647.92 174.07 683.13 209.94 683.13 224.91 647.92 189.04 647.92"/><polygon class="cls-5" points="292.24 647.92 277.28 683.13 241.41 683.13 256.37 647.92 292.24 647.92"/><path class="cls-5" d="M344.15,654.6v21.85a6.68,6.68,0,0,1-6.68,6.68H309.76l15-35.21h12.75A6.68,6.68,0,0,1,344.15,654.6Z"/><path class="cls-12" d="M108.45,701.1A24.7,24.7,0,0,0,95.75,720a6,6,0,0,0,1.56,5.22c2.76,2.57,7.11.88,10.07-.4a17.12,17.12,0,0,0,8.21-7.21,13.46,13.46,0,0,0,.08,4.61,4,4,0,0,0,5,3.1c3.49-.59,6.94-3,9.51-5.29-1.07,1,2.15,2.79,2.7,2.94,3.1.89,6.78-1.2,9.95-1.41"/><line class="cls-12" x1="176.78" y1="722.53" x2="316.62" y2="722.53"/><line class="cls-12" x1="176.78" y1="756.2" x2="316.62" y2="756.2"/><line class="cls-12" x1="85.72" y1="794.15" x2="321.88" y2="794.15"/><line class="cls-12" x1="147.1" y1="794.15" x2="147.1" y2="843.84"/><line class="cls-12" x1="260.5" y1="794.15" x2="260.5" y2="843.84"/><path class="cls-12" d="M98,744.57a22.5,22.5,0,0,0-6.25,6.24c-1.89,2.84-1.76,6.28,1.43,8.12a8.41,8.41,0,0,0,5.29.88,11.7,11.7,0,0,0,8.41-5.62c-2,2.34-.4,6.27,2.35,7.6,7.09,3.41,14.15-2.64,19.61-6.49-2.79,2-.11,3.61,2,4.4,10.1,3.79,20.37,0,30.67.06"/></g><g id="책상"><rect class="cls-13" y="857.76" width="1000" height="47.41"/><rect class="cls-13" y="905.17" width="67.02" height="94.83"/><rect class="cls-13" x="804.88" y="905.17" width="67.02" height="94.83"/><polygon class="cls-14" points="1000 857.76 1000 905.17 871.9 905.17 871.9 1000 838.39 1000 838.39 857.76 1000 857.76"/><rect class="cls-15" x="67.02" y="905.17" width="737.86" height="94.83"/><rect class="cls-16" x="871.9" y="905.17" width="128.1" height="94.83"/><rect class="cls-14" x="33.51" y="905.17" width="33.51" height="94.83"/></g></svg>