<?xml version="1.0" standalone="no"?>
<!DOCTYPE svg PUBLIC "-//W3C//DTD SVG 1.1//EN" "http://www.w3.org/Graphics/SVG/1.1/DTD/svg11.dtd" >
<svg xmlns="http://www.w3.org/2000/svg" xmlns:xlink="http://www.w3.org/1999/xlink" version="1.1">
<metadata>
Created by FontForge 20170731 at Thu Jun 23 05:29:34 2016
 By Aleksey,,,
Copyright c 2016 NAVER Corporation. All rights reserved. Font designed by Sandoll Communications Inc.
</metadata>
<defs>
<font id="NanumSquareEB" horiz-adv-x="910" >
  <font-face 
    font-family="NanumSquare ExtraBold"
    font-weight="800"
    font-stretch="normal"
    units-per-em="1000"
    panose-1="2 11 6 0 0 1 1 1 1 1"
    ascent="800"
    descent="-200"
    x-height="525"
    cap-height="695"
    bbox="-56 -255 1245 864"
    underline-thickness="50"
    underline-position="-150"
    unicode-range="U+0001-FFE6"
  />
<missing-glyph 
d="M855 -143h-800v900h800v-900zM455 278l-335 -385h670zM95 -76l334 384l-334 384v-768zM454 337l334 384h-667zM815 693l-334 -386l334 -384v770z" />
    <glyph glyph-name=".notdef" 
d="M855 -143h-800v900h800v-900zM455 278l-335 -385h670zM95 -76l334 384l-334 384v-768zM454 337l334 384h-667zM815 693l-334 -386l334 -384v770z" />
    <glyph glyph-name=".null" horiz-adv-x="0" 
 />
    <glyph glyph-name="nonmarkingreturn" horiz-adv-x="333" 
 />
    <glyph glyph-name="uni0001" horiz-adv-x="250" 
 />
    <glyph glyph-name="uni0001" unicode="&#xa0;" horiz-adv-x="250" 
 />
    <glyph glyph-name="uni0001" unicode=" " horiz-adv-x="250" 
 />
    <glyph glyph-name="uni0001" horiz-adv-x="250" 
 />
    <glyph glyph-name="uni0001" horiz-adv-x="250" 
 />
    <glyph glyph-name="uni0001" horiz-adv-x="250" 
 />
    <glyph glyph-name="uni0001" horiz-adv-x="250" 
 />
    <glyph glyph-name="uni0001" horiz-adv-x="250" 
 />
    <glyph glyph-name="uni0001" horiz-adv-x="250" 
 />
    <glyph glyph-name="uni0001" horiz-adv-x="250" 
 />
    <glyph glyph-name="uni0001" horiz-adv-x="250" 
 />
    <glyph glyph-name="uni0001" horiz-adv-x="250" 
 />
    <glyph glyph-name="uni0001" horiz-adv-x="250" 
 />
    <glyph glyph-name="uni0001" horiz-adv-x="250" 
 />
    <glyph glyph-name="uni0001" horiz-adv-x="250" 
 />
    <glyph glyph-name="uni0001" horiz-adv-x="250" 
 />
    <glyph glyph-name="uni0001" horiz-adv-x="250" 
 />
    <glyph glyph-name="uni0001" horiz-adv-x="250" 
 />
    <glyph glyph-name="uni0001" horiz-adv-x="250" 
 />
    <glyph glyph-name="uni0001" horiz-adv-x="250" 
 />
    <glyph glyph-name="uni0001" horiz-adv-x="250" 
 />
    <glyph glyph-name="uni0001" unicode="&#xd;" horiz-adv-x="250" 
 />
    <glyph glyph-name="uni0001" horiz-adv-x="250" 
 />
    <glyph glyph-name="uni0001" horiz-adv-x="250" 
 />
    <glyph glyph-name="uni0001" unicode="&#xa;" horiz-adv-x="250" 
 />
    <glyph glyph-name="uni0001" unicode="&#x9;" horiz-adv-x="250" 
 />
    <glyph glyph-name="uni0001" horiz-adv-x="250" 
 />
    <glyph glyph-name="uni0001" horiz-adv-x="250" 
 />
    <glyph glyph-name="uni0001" horiz-adv-x="250" 
 />
    <glyph glyph-name="uni0001" horiz-adv-x="250" 
 />
    <glyph glyph-name="uni0001" horiz-adv-x="250" 
 />
    <glyph glyph-name="uni0001" horiz-adv-x="250" 
 />
    <glyph glyph-name="uni0001" horiz-adv-x="250" 
 />
    <glyph glyph-name="uni0001" horiz-adv-x="250" 
 />
    <glyph glyph-name="exclam" unicode="!" horiz-adv-x="320" 
d="M94 58h132v-130h-132v130zM108 155l-19 588h142l-19 -588h-104z" />
    <glyph glyph-name="quotedbl" unicode="&#x22;" horiz-adv-x="401" 
d="M57 488l-13 250h130l-13 -250h-104zM240 488l-13 250h130l-13 -250h-104z" />
    <glyph glyph-name="numbersign" unicode="#" horiz-adv-x="643" 
d="M562 269v-109h-105l-25 -186h-102l24 186h-120l-24 -186h-103l24 186h-89v109h104l18 136h-91v109h106l24 181h103l-24 -181h120l24 181h102l-24 -181h89v-109h-103l-19 -136h91zM389 405h-123l-19 -136h124z" />
    <glyph glyph-name="dollar" unicode="$" horiz-adv-x="652" 
d="M295 -24q-32 2 -64.5 9t-63 17.5t-57 24t-45.5 29.5l61 93q39 -28 78.5 -44t90.5 -24v210q-36 9 -73 21.5t-67.5 35t-50 58t-19.5 89.5v18q0 29 10.5 59t34.5 55.5t64.5 43.5t100.5 23v57h74v-56q54 -3 107 -19.5t88 -47.5l-59 -85q-35 24 -69 35t-67 13v-203
q66 -18 108.5 -37.5t67 -44t34 -55t9.5 -68.5v-8q0 -55 -17 -91.5t-46.5 -59.5t-69.5 -34t-86 -14v-69h-74v69zM463 174q0 17 -2.5 31.5t-12.5 26.5t-28.5 22t-50.5 19v-193q53 6 73.5 30.5t20.5 53.5v10zM208 500q0 -22 5 -36.5t15.5 -25t27 -18t39.5 -14.5v183
q-30 -3 -47.5 -12t-26.5 -20t-11 -22t-2 -18v-17z" />
    <glyph glyph-name="percent" unicode="%" horiz-adv-x="917" 
d="M185 -25l431 720h115l-430 -720h-116zM229 709q79 0 125 -46.5t46 -125.5v-39q0 -79 -46 -125.5t-125 -46.5t-125 46.5t-46 125.5v39q0 79 46 125.5t125 46.5zM229 411q42 0 57 24t15 65v35q0 40 -15 64.5t-57 24.5t-57 -24.5t-15 -64.5v-35q0 -41 15 -65t57 -24z
M688 349q79 0 125 -46.5t46 -125.5v-39q0 -79 -46 -125.5t-125 -46.5t-125 46.5t-46 125.5v39q0 79 46 125.5t125 46.5zM688 51q42 0 57 24t15 65v35q0 40 -15 64.5t-57 24.5t-57 -24.5t-15 -64.5v-35q0 -41 15 -65t57 -24z" />
    <glyph glyph-name="ampersand" unicode="&#x26;" horiz-adv-x="690" 
d="M631 371q0 -78 -13.5 -139t-42.5 -110l122 -147h-153l-48 60q-44 -37 -94.5 -54.5t-102.5 -17.5h-8q-45 0 -90 10.5t-81 33.5t-58 60.5t-22 90.5v19q0 36 12 66t33 54.5t51 45t66 37.5l-24 27q-29 33 -42 63.5t-13 66.5v12q0 69 50 113t141 44q47 0 82.5 -13t59 -35
t35.5 -51.5t12 -61.5v-11q0 -48 -27 -93.5t-100 -90.5l118 -135q5 12 9 25.5t6.5 31t3.5 41.5t1 58h117zM296 75q79 0 126 46l-150 177q-61 -31 -83.5 -60.5t-22.5 -62.5v-14q0 -36 35 -61t95 -25zM244 535q0 -19 20 -46.5t44 -54.5q24 15 38.5 27.5t23 24t11.5 23t3 24.5v7
q0 24 -18 42.5t-52 18.5q-38 0 -54 -17.5t-16 -38.5v-10z" />
    <glyph glyph-name="quotesingle" unicode="'" horiz-adv-x="218" 
d="M57 488l-13 250h130l-13 -250h-104z" />
    <glyph glyph-name="parenleft" unicode="(" horiz-adv-x="361" 
d="M190 274q0 -114 30 -226t107 -218h-120q-75 89 -111 203t-36 246v40q0 132 36 245t111 202h120q-74 -100 -105.5 -210.5t-31.5 -231.5v-50z" />
    <glyph glyph-name="parenright" unicode=")" horiz-adv-x="361" 
d="M171 324q0 121 -31.5 231.5t-105.5 210.5h120q75 -89 111 -202t36 -245v-40q0 -132 -36 -246t-111 -203h-120q77 106 107 218t30 226v50z" />
    <glyph glyph-name="asterisk" unicode="*" horiz-adv-x="479" 
d="M92 392l-51 97l136 49l-136 48l51 97l111 -83l-16 133h106l-17 -133l112 83l50 -97l-136 -48l136 -49l-50 -97l-112 83l17 -132h-106l17 132z" />
    <glyph glyph-name="plus" unicode="+" horiz-adv-x="600" 
d="M356 574v-205h202v-104h-202v-219h-112v219h-202v104h202v205h112z" />
    <glyph glyph-name="comma" unicode="," horiz-adv-x="343" 
d="M111 57h142l-82 -232h-102z" />
    <glyph glyph-name="hyphen" unicode="-" horiz-adv-x="428" 
d="M44 386h340v-104h-340v104z" />
    <glyph glyph-name="period" unicode="." horiz-adv-x="343" 
d="M108 58h127v-130h-127v130z" />
    <glyph glyph-name="slash" unicode="/" horiz-adv-x="485" 
d="M459 777l-310 -908h-123l309 908h124z" />
    <glyph glyph-name="zero" unicode="0" horiz-adv-x="620" 
d="M575 279q0 -154 -65 -235t-196 -81q-129 0 -199 82t-70 234v112q0 152 69.5 233.5t196.5 81.5q128 0 196 -81.5t68 -233.5v-112zM446 392q0 62 -11.5 100t-30 58.5t-43 27.5t-50.5 7q-25 0 -49.5 -7t-44 -28t-31.5 -59t-12 -99v-114q0 -62 12.5 -100t32.5 -59t45 -28
t50 -7q26 0 50 7t42 27.5t29 58.5t11 101v114z" />
    <glyph glyph-name="one" unicode="1" horiz-adv-x="620" 
d="M338 -26v577l-164 -94l-62 104l241 134h113v-721h-128z" />
    <glyph glyph-name="two" unicode="2" horiz-adv-x="620" 
d="M316 343q31 32 49 56t27 43t11 35t2 31v8q0 29 -23.5 52.5t-79.5 23.5q-20 0 -39.5 -4t-38.5 -15t-37.5 -31t-36.5 -51l-96 63q13 23 32.5 50t49 49.5t70 37.5t95.5 15q61 0 105 -15t72.5 -40.5t42 -59t13.5 -70.5v-10q0 -59 -26.5 -112.5t-77.5 -104.5l-212 -214h343
v-106h-510v96z" />
    <glyph glyph-name="three" unicode="3" horiz-adv-x="620" 
d="M66 602q36 47 86 75.5t128 28.5q51 0 92 -13t70 -36.5t45 -57t16 -73.5v-10q0 -21 -4.5 -45.5t-16.5 -47t-32 -41.5t-51 -31q72 -13 106 -57t34 -106v-15q0 -41 -16 -79t-48.5 -67t-82 -46.5t-115.5 -17.5q-63 0 -121.5 19.5t-109.5 60.5l63 100q26 -19 47.5 -32
t41.5 -20.5t39 -10.5t41 -3q68 0 100 27t32 75v13q0 53 -31 77.5t-100 24.5h-97v110h86q34 0 55.5 7.5t33.5 21t16.5 33t4.5 42.5v8q0 41 -26.5 59.5t-71.5 18.5q-46 0 -74.5 -17t-52.5 -43z" />
    <glyph glyph-name="four" unicode="4" horiz-adv-x="620" 
d="M500 443v-216h98v-103h-98v-150h-126v150h-359v83l328 488h138l-315 -468h208v216h126z" />
    <glyph glyph-name="five" unicode="5" horiz-adv-x="620" 
d="M443 215q0 58 -33.5 89t-93.5 31q-46 0 -79.5 -17t-57.5 -40h-86l23 417h409v-106h-294l-8 -188q25 15 57 26t77 11q52 0 92 -18t67.5 -48.5t41.5 -70.5t14 -83v-15q0 -43 -14.5 -86t-46 -77t-80 -55.5t-116.5 -21.5q-78 0 -140 17.5t-116 62.5l62 101q25 -20 49 -33
t47.5 -20t47.5 -9.5t49 -2.5q66 0 97.5 35.5t31.5 89.5v11z" />
    <glyph glyph-name="six" unicode="6" horiz-adv-x="620" 
d="M489 550q-34 20 -71 30t-82 10q-28 0 -53.5 -10t-46 -33.5t-34.5 -62t-17 -96.5q26 31 70.5 47t91.5 16q52 0 94 -16.5t71 -47t44.5 -73.5t15.5 -95v-20q0 -50 -17.5 -93.5t-50.5 -75t-80.5 -49.5t-107.5 -18q-69 0 -118 21.5t-80 61.5t-45.5 96.5t-14.5 125.5v46
q0 119 22.5 195.5t61.5 120t91 60t111 16.5q49 0 100 -11.5t92 -38.5zM187 203q0 -59 32 -91.5t94 -32.5q66 0 99.5 32.5t33.5 92.5v11q0 63 -31 93.5t-97 30.5q-35 0 -59.5 -9.5t-40.5 -26t-23.5 -38.5t-7.5 -47v-15z" />
    <glyph glyph-name="seven" unicode="7" horiz-adv-x="620" 
d="M291 -26h-135l277 613h-381v108h515v-98z" />
    <glyph glyph-name="eight" unicode="8" horiz-adv-x="620" 
d="M210 491q0 -24 9 -41.5t23.5 -29t32.5 -17t36 -5.5q19 0 36.5 5.5t31.5 17t22.5 29t8.5 41.5v10q0 47 -27.5 70.5t-72.5 23.5q-42 0 -71 -23.5t-29 -70.5v-10zM192 173q0 -47 33 -72.5t87 -25.5t85 25.5t31 72.5v10q0 27 -9.5 46t-25 32t-36.5 19t-45 6t-45.5 -6
t-38 -18.5t-26.5 -32t-10 -46.5v-10zM60 182q0 30 10 56.5t26.5 48t37.5 36.5t44 22q-26 13 -44.5 31.5t-30.5 39t-18 41.5t-6 39v12q0 39 13.5 74.5t42 63t72 44t102.5 16.5q58 0 101.5 -16.5t72.5 -44t43.5 -63t14.5 -74.5v-12q0 -18 -5.5 -38t-17.5 -40t-30.5 -39
t-44.5 -34q23 -7 44.5 -22.5t37.5 -36.5t25.5 -47.5t9.5 -56.5v-17q0 -43 -16 -80t-47.5 -64t-77.5 -42.5t-106 -15.5q-62 0 -109.5 15.5t-79.5 42.5t-48 64t-16 80v17z" />
    <glyph glyph-name="nine" unicode="9" horiz-adv-x="620" 
d="M131 119q34 -20 71 -30t82 -10q35 0 62 10t46 33.5t29.5 62t13.5 96.5q-26 -31 -70.5 -47t-91.5 -16q-53 0 -94.5 16.5t-70.5 46.5t-44.5 72.5t-15.5 95.5v20q0 50 17.5 93.5t50.5 75.5t80.5 50t107.5 18q69 0 118 -21.5t80 -61.5t45.5 -96.5t14.5 -125.5v-46
q0 -119 -20.5 -195.5t-58 -120t-90.5 -60t-117 -16.5q-49 0 -100 11.5t-92 38.5zM433 466q0 59 -32 91.5t-94 32.5q-66 0 -99.5 -32.5t-33.5 -92.5v-11q0 -63 31 -93.5t97 -30.5q34 0 59 9.5t41 26t23.5 38.5t7.5 47v15z" />
    <glyph glyph-name="colon" unicode=":" horiz-adv-x="403" 
d="M138 131h127v-130h-127v130zM138 581h127v-130h-127v130z" />
    <glyph glyph-name="semicolon" unicode=";" horiz-adv-x="403" 
d="M138 581h127v-130h-127v130zM141 136h142l-82 -231h-102z" />
    <glyph glyph-name="less" unicode="&#x3c;" horiz-adv-x="620" 
d="M203 319l344 -171v-127l-484 250v99l484 250v-126l-344 -169v-6z" />
    <glyph glyph-name="equal" unicode="=" horiz-adv-x="620" 
d="M74 478h472v-105h-472v105zM74 267h472v-105h-472v105z" />
    <glyph glyph-name="greater" unicode="&#x3e;" horiz-adv-x="620" 
d="M417 325l-344 169v126l484 -250v-99l-484 -250v127l344 171v6z" />
    <glyph glyph-name="question" unicode="?" horiz-adv-x="557" 
d="M200 141v44q0 25 1.5 45t8.5 39.5t22.5 40.5t44.5 47q33 31 53 51.5t30.5 37t13.5 31t3 34.5v10q0 31 -24.5 54.5t-83.5 23.5q-47 0 -85.5 -18t-70.5 -49l-70 88q48 48 106.5 70t123.5 22q55 0 98 -14t73 -38.5t45.5 -59t15.5 -75.5v-14q0 -37 -10 -65.5t-26.5 -52.5
t-38 -45.5t-44.5 -43.5q-19 -18 -32 -31.5t-20.5 -26t-11 -27.5t-3.5 -37v-41h-119zM194 58h132v-130h-132v130z" />
    <glyph glyph-name="at" unicode="@" horiz-adv-x="1003" 
d="M763 35q-40 0 -74 19t-48 67h-1q-9 -24 -28 -40t-41 -26t-44.5 -14t-40.5 -4q-49 0 -87.5 14.5t-65.5 41.5t-41 64.5t-14 82.5v80q0 46 14 83.5t39 64t60 41t77 14.5q57 0 88 -16.5t42 -35.5v44h115v-307q0 -42 13 -62.5t45 -20.5q20 0 36 8.5t27 29t16.5 53.5t5.5 82v8
q0 84 -24.5 148.5t-71 109t-114 67.5t-153.5 23q-74 0 -137 -24t-109.5 -70t-73 -113t-26.5 -153v-14q0 -93 26 -162.5t73.5 -116.5t114.5 -70.5t150 -23.5q72 0 144.5 15.5t133.5 47.5l35 -81q-63 -34 -141.5 -52.5t-168.5 -18.5q-110 0 -196.5 32.5t-146 92.5t-90.5 145.5
t-31 190.5v16q0 97 31 179t89 141.5t139.5 93t183.5 33.5q111 0 197 -31t144.5 -87.5t88.5 -136.5t30 -178v-10q0 -45 -8.5 -92t-30 -85t-58.5 -62.5t-93 -24.5zM401 254q0 -51 22.5 -79t69.5 -28q42 0 69.5 24.5t27.5 71.5v71q0 48 -23 75t-74 27q-43 0 -67.5 -25.5
t-24.5 -86.5v-50z" />
    <glyph glyph-name="A" unicode="A" horiz-adv-x="690" 
d="M672 -26h-139l-70 198h-243l-71 -198h-131l268 721h115zM257 279h169l-49 147q-13 36 -20.5 60.5t-15.5 50.5q-4 -15 -7.5 -27t-7.5 -24.5t-8.5 -26.5t-11.5 -33z" />
    <glyph glyph-name="B" unicode="B" horiz-adv-x="661" 
d="M81 695h280q227 0 227 -176v-21q0 -24 -5.5 -46.5t-19 -42t-35.5 -34t-54 -22.5q66 -10 106.5 -49.5t40.5 -114.5v-25q0 -89 -56 -139.5t-173 -50.5h-311v721zM208 80h116q42 0 73.5 3.5t52 14t30.5 29.5t10 51v22q0 28 -9.5 46.5t-31.5 30t-57.5 16t-86.5 4.5h-97v-217z
M208 589v-188h94q37 0 66.5 2t49 11t30 27.5t10.5 52.5v18q0 46 -35.5 61.5t-116.5 15.5h-98z" />
    <glyph glyph-name="C" unicode="C" horiz-adv-x="658" 
d="M356 706q76 0 134.5 -18t113.5 -62l-69 -98q-44 37 -87 48.5t-92 11.5q-32 0 -63 -9.5t-55 -34.5t-39 -68t-15 -110v-74q0 -57 14 -97t37.5 -65t54.5 -36.5t65 -11.5q50 0 102.5 15.5t95.5 59.5l68 -98q-32 -32 -67.5 -50.5t-70.5 -29t-69 -13.5t-64 -3q-59 0 -112.5 17
t-94 54t-64.5 94t-24 138v129q0 81 23.5 139.5t64.5 97t95.5 56.5t117.5 18z" />
    <glyph glyph-name="D" unicode="D" horiz-adv-x="700" 
d="M332 695q161 0 237 -79.5t76 -229.5v-103q0 -75 -17 -132.5t-54.5 -96.5t-96.5 -59.5t-143 -20.5h-253v721h251zM208 82h107q48 0 85.5 11t63 35t39 63.5t13.5 96.5v93q0 114 -50.5 160t-150.5 46h-107v-505z" />
    <glyph glyph-name="E" unicode="E" horiz-adv-x="608" 
d="M545 695v-106h-337v-194h316v-104h-316v-211h344v-106h-471v721h464z" />
    <glyph glyph-name="F" unicode="F" horiz-adv-x="581" 
d="M81 -26v721h464v-108h-336v-206h315v-108h-315v-299h-128z" />
    <glyph glyph-name="G" unicode="G" horiz-adv-x="686" 
d="M375 706q64 0 127 -18t119 -63l-69 -98q-40 35 -86 49t-91 14q-42 0 -77 -9.5t-60.5 -34t-40 -68t-14.5 -112.5v-74q0 -59 15 -99.5t41.5 -66t63 -36.5t80.5 -11q35 0 63 5t55 16v173h-151v107h278v-351q-24 -16 -54 -28.5t-63 -20.5t-67.5 -12.5t-66.5 -4.5
q-69 0 -127.5 17t-102 54t-68 94t-24.5 138v129q0 81 24 139.5t66.5 97t101.5 56.5t128 18z" />
    <glyph glyph-name="H" unicode="H" horiz-adv-x="717" 
d="M508 297h-299v-323h-128v721h128v-292h299v292h128v-721h-128v323z" />
    <glyph glyph-name="I" unicode="I" horiz-adv-x="290" 
d="M81 695h128v-721h-128v721z" />
    <glyph glyph-name="J" unicode="J" horiz-adv-x="491" 
d="M283 695h128v-516q0 -60 -15.5 -101.5t-45 -67t-71.5 -36.5t-94 -11q-45 0 -91.5 16t-81.5 47l59 98q32 -24 56.5 -34t59.5 -10q47 0 71.5 28t24.5 102v485z" />
    <glyph glyph-name="K" unicode="K" horiz-adv-x="666" 
d="M362 377l294 -403h-162l-218 310l-67 -73v-237h-128v721h128v-330l284 330h148z" />
    <glyph glyph-name="L" unicode="L" horiz-adv-x="558" 
d="M209 695v-613h329v-108h-457v721h128z" />
    <glyph glyph-name="M" unicode="M" horiz-adv-x="875" 
d="M237 474q-8 19 -16 44.5t-21 64.5v-609h-119v721h182l177 -448l170 448h184v-721h-121v609q-11 -45 -19 -67.5t-15 -41.5l-151 -380h-102z" />
    <glyph glyph-name="N" unicode="N" horiz-adv-x="721" 
d="M81 695h147l246 -437q11 -20 24.5 -49.5t21.5 -64.5v551h120v-721h-147l-247 438q-14 24 -26 52t-19 59v-549h-120v721z" />
    <glyph glyph-name="O" unicode="O" horiz-adv-x="720" 
d="M360 706q61 0 116.5 -17.5t97.5 -55t66.5 -96.5t24.5 -143v-119q0 -85 -24.5 -144.5t-66 -96.5t-97 -54t-117.5 -17t-117.5 17t-97 54t-66 96.5t-24.5 144.5v119q0 84 24.5 143t66.5 96.5t97.5 55t116.5 17.5zM360 80q37 0 69 9.5t56 33.5t37.5 65t13.5 103v87
q0 62 -13.5 103t-37.5 65t-56 33.5t-69 9.5q-36 0 -68 -9.5t-56 -33.5t-38 -65t-14 -103v-87q0 -62 14 -103t38 -65t56 -33.5t68 -9.5z" />
    <glyph glyph-name="P" unicode="P" horiz-adv-x="636" 
d="M81 695h272q65 0 111.5 -15.5t76.5 -43t44.5 -65.5t14.5 -82v-21q0 -44 -15 -83.5t-46 -69t-77 -47t-109 -17.5h-144v-277h-128v721zM209 588v-229h127q63 0 99 24t36 87v18q0 30 -9 49t-25.5 30.5t-39.5 16t-50 4.5h-138z" />
    <glyph glyph-name="Q" unicode="Q" horiz-adv-x="714" 
d="M360 706q61 0 116.5 -17.5t97.5 -55t66.5 -96.5t24.5 -143v-119q0 -72 -17 -124t-47 -90l83 -82l-73 -75l-93 92q-35 -17 -75 -25t-83 -8q-62 0 -117.5 17t-97 54t-66 96.5t-24.5 144.5v119q0 84 24.5 143t66.5 96.5t97.5 55t116.5 17.5zM360 80q17 0 33.5 1.5t31.5 6.5
l-85 85l73 75l94 -94q14 24 21.5 57.5t7.5 79.5v87q0 62 -13.5 103t-37.5 65t-56 33.5t-69 9.5q-36 0 -68 -9.5t-56 -33.5t-38 -65t-14 -103v-87q0 -62 14 -103t38 -65t56 -33.5t68 -9.5z" />
    <glyph glyph-name="R" unicode="R" horiz-adv-x="660" 
d="M356 263h-147v-289h-128v721h273q56 0 99.5 -15t73 -41t45 -62.5t15.5 -79.5v-37q0 -57 -28 -102.5t-84 -70.5q36 -79 70.5 -156.5t70.5 -156.5h-139zM209 588v-218h118q74 0 103.5 26t29.5 67v30q0 42 -28 68.5t-94 26.5h-129z" />
    <glyph glyph-name="S" unicode="S" horiz-adv-x="626" 
d="M314 78q69 0 100 24.5t31 61.5v11q0 44 -32.5 65.5t-94.5 35.5q-45 10 -90.5 21t-82 33t-59.5 59.5t-23 100.5v13q0 33 13 68.5t43 65.5t79.5 49.5t122.5 19.5q60 0 115 -12.5t110 -47.5l-60 -99q-44 28 -82 36.5t-81 8.5q-34 0 -59 -8t-41.5 -21t-24.5 -28t-8 -30v-12
q0 -26 12.5 -42t33.5 -26.5t49.5 -17t60.5 -13.5q64 -14 107.5 -34.5t70 -46.5t38 -57.5t11.5 -68.5v-13q0 -60 -21.5 -100.5t-58.5 -65t-85 -35t-100 -10.5q-39 0 -76.5 6.5t-70.5 17.5t-61.5 26.5t-49.5 32.5l62 102q33 -28 85 -49t117 -21z" />
    <glyph glyph-name="T" unicode="T" horiz-adv-x="571" 
d="M561 695v-108h-211v-613h-128v613h-212v108h551z" />
    <glyph glyph-name="U" unicode="U" horiz-adv-x="696" 
d="M348 79q39 0 68 9.5t47.5 32t27.5 59t9 89.5v426h128v-424q0 -89 -18.5 -148t-54 -94.5t-87.5 -50.5t-120 -15t-120 15t-87.5 50.5t-54 94.5t-18.5 148v424h128v-426q0 -53 9 -89.5t27.5 -59t47.5 -32t68 -9.5z" />
    <glyph glyph-name="V" unicode="V" horiz-adv-x="707" 
d="M28 695h137l189 -564l196 564h130l-272 -721h-115z" />
    <glyph glyph-name="W" unicode="W" horiz-adv-x="992" 
d="M27 695h133l132 -535l146 535h123l145 -534l137 534h123l-199 -721h-122l-146 555l-152 -555h-124z" />
    <glyph glyph-name="X" unicode="X" horiz-adv-x="669" 
d="M419 344l224 -370h-148l-165 291l-160 -291h-144l223 377l-205 344h154l144 -266l149 266h143z" />
    <glyph glyph-name="Y" unicode="Y" horiz-adv-x="648" 
d="M388 259v-285h-128v285l-247 436h143l171 -318l168 318h140z" />
    <glyph glyph-name="Z" unicode="Z" horiz-adv-x="629" 
d="M578 598l-395 -514h414v-110h-572v105l390 506h-366v110h529v-97z" />
    <glyph glyph-name="bracketleft" unicode="[" horiz-adv-x="422" 
d="M380 -170h-293v936h293v-110h-164v-716h164v-110z" />
    <glyph glyph-name="backslash" unicode="\" horiz-adv-x="962" 
d="M32 398h106l-74 297h127l64 -297h105l78 297h111l70 -297h96l60 297h125l-73 -297h103v-71h-120l-84 -353h-110l-81 353h-96l-89 -353h-106l-88 353h-124v71zM301 169l42 158h-74zM672 163l29 164h-67zM457 398h62l-28 132z" />
    <glyph glyph-name="bracketright" unicode="]" horiz-adv-x="422" 
d="M42 -60h164v716h-164v110h293v-936h-293v110z" />
    <glyph glyph-name="asciicircum" unicode="^" horiz-adv-x="524" 
d="M364 401l-102 224l-102 -224h-118l162 323h117l161 -323h-118z" />
    <glyph glyph-name="underscore" unicode="_" horiz-adv-x="520" 
d="M520 -150h-520v75h520v-75z" />
    <glyph glyph-name="grave" unicode="`" horiz-adv-x="620" 
d="M326 562l-148 155h149l113 -155h-114z" />
    <glyph glyph-name="a" unicode="a" horiz-adv-x="573" 
d="M234 -34q-89 0 -138 40.5t-49 113.5v32q0 34 10.5 62.5t35 49.5t64.5 33t98 12h126v21q0 51 -23.5 73.5t-74.5 22.5q-86 0 -156 -55l-62 92q42 29 95 51.5t124 22.5q48 0 89 -12t70.5 -34.5t46 -55t16.5 -74.5v-387h-113l-2 68q-8 -18 -25.5 -32.5t-39.5 -24t-46 -14.5
t-46 -5zM381 211h-123q-50 0 -69.5 -19t-19.5 -51v-12q0 -27 19 -42t56 -15q77 0 114 37q17 17 20 36.5t3 50.5v15z" />
    <glyph glyph-name="b" unicode="b" horiz-adv-x="613" 
d="M195 38v-64h-120v756h126v-259q13 19 32.5 32t40 20.5t41 10.5t37.5 3q53 0 93.5 -16.5t67.5 -47.5t40.5 -74t13.5 -97v-97q0 -56 -16 -100.5t-45 -75t-69.5 -47t-90.5 -16.5q-55 0 -92 20t-56 52h-3zM442 282q0 70 -27 108.5t-88 38.5q-63 0 -95.5 -36.5t-32.5 -93.5
v-117q0 -19 10 -38.5t27 -35t41 -25.5t53 -10q55 0 83.5 38.5t28.5 107.5v63z" />
    <glyph glyph-name="c" unicode="c" horiz-adv-x="527" 
d="M295 537q39 0 69 -5.5t54 -14.5t43 -21t35 -24l-61 -92q-34 27 -67.5 37t-72.5 10q-24 0 -46 -7.5t-39 -24t-27 -43t-10 -64.5v-67q0 -42 11.5 -70t29.5 -44.5t40 -23t43 -6.5q52 0 86.5 12.5t63.5 34.5l60 -92q-28 -26 -82 -46t-129 -20q-122 0 -186 67.5t-64 185.5v69
q0 118 66.5 183.5t182.5 65.5z" />
    <glyph glyph-name="d" unicode="d" horiz-adv-x="612" 
d="M418 39h-3q-22 -40 -65 -56.5t-93 -16.5q-106 0 -158.5 61.5t-52.5 173.5v97q0 56 15.5 100.5t44.5 75t69.5 47t90.5 16.5q33 0 57.5 -6t42 -14.5t28.5 -19t17 -19.5v252h126v-756h-119v65zM170 220q0 -70 28.5 -108.5t83.5 -38.5q31 0 55.5 10.5t41 29t25.5 43t9 52.5
v112q0 19 -7.5 38.5t-23 35t-39 25.5t-56.5 10q-60 0 -88.5 -39t-28.5 -108v-62z" />
    <glyph glyph-name="e" unicode="e" horiz-adv-x="582" 
d="M417 299v24q0 22 -6.5 42t-21.5 35t-38 24t-56 9q-63 0 -94.5 -33t-31.5 -80v-21h248zM524 25q-40 -27 -94 -43t-132 -16q-48 0 -93 12.5t-80.5 42t-57 79t-21.5 123.5v57q0 67 19.5 115.5t53.5 80t79.5 46.5t98.5 15q52 0 96.5 -15t76.5 -45.5t50 -76t18 -105.5v-91
h-369q0 -66 35 -99.5t101 -33.5q49 0 87 10.5t80 34.5z" />
    <glyph glyph-name="f" unicode="f" horiz-adv-x="406" 
d="M111 422h-88v103h88v38q0 83 44.5 128t135.5 45q31 0 59 -5t45 -11l-20 -101q-30 10 -72 10q-66 0 -66 -69v-35h139v-103h-139v-448h-126v448z" />
    <glyph glyph-name="g" unicode="g" horiz-adv-x="612" 
d="M413 48h-2q-22 -40 -63 -56t-91 -16q-106 0 -158.5 61.5t-52.5 173.5v87q0 55 15.5 99.5t44.5 75.5t69.5 47.5t90.5 16.5q32 0 57 -6t43.5 -15t30.5 -19.5t18 -19.5h1v48h121v-546q0 -115 -63 -171.5t-199 -56.5q-52 0 -103.5 17t-85.5 43l57 98q8 -7 23 -15.5t33 -15.5
t38 -11.5t40 -4.5q67 0 101.5 28.5t34.5 89.5v68zM170 230q0 -70 28.5 -108.5t83.5 -38.5q31 0 55.5 10.5t41 29t25.5 43t9 52.5v102q0 19 -7.5 38.5t-23 35t-39 25.5t-56.5 10q-60 0 -88.5 -39t-28.5 -108v-52z" />
    <glyph glyph-name="h" unicode="h" horiz-adv-x="621" 
d="M359 537q37 0 71.5 -11t61.5 -35.5t43 -63.5t16 -94v-359h-126v332q0 121 -105 121q-15 0 -35.5 -4.5t-39 -18t-31.5 -38.5t-13 -66v-326h-126v756h119v-268h2q29 42 71.5 58.5t91.5 16.5z" />
    <glyph glyph-name="i" unicode="i" horiz-adv-x="282" 
d="M78 525h126v-551h-126v551zM75 742h132v-136h-132v136z" />
    <glyph glyph-name="j" unicode="j" horiz-adv-x="306" 
d="M99 742h132v-136h-132v136zM228 -76q0 -39 -9.5 -70.5t-30 -54.5t-54 -35.5t-81.5 -12.5q-31 0 -61.5 4.5t-47.5 10.5l20 102q22 -6 38.5 -8t33.5 -2q35 0 50.5 15.5t15.5 55.5v596h126v-601z" />
    <glyph glyph-name="k" unicode="k" horiz-adv-x="584" 
d="M352 297l223 -323h-161l-150 234l-63 -70v-164h-126v756h126v-438l206 233h159z" />
    <glyph glyph-name="l" unicode="l" horiz-adv-x="276" 
d="M75 730h126v-756h-126v756z" />
    <glyph glyph-name="m" unicode="m" horiz-adv-x="925" 
d="M665 537q38 0 72.5 -13t60.5 -39t41.5 -65t15.5 -91v-355h-126v329q0 37 -8 61t-22 37.5t-32 18.5t-38 5q-18 0 -36.5 -5.5t-32.5 -19t-23 -36.5t-9 -57v-333h-126v331q0 35 -8 58t-21.5 37t-31.5 19.5t-39 5.5q-45 0 -73 -28t-28 -85v-338h-126v551h119v-70h2
q20 38 58.5 60t92.5 22q51 0 91.5 -23t55.5 -61q29 42 68.5 63t102.5 21z" />
    <glyph glyph-name="n" unicode="n" horiz-adv-x="621" 
d="M359 537q37 0 71.5 -11t61.5 -35.5t43 -63.5t16 -94v-359h-126v332q0 121 -105 121q-15 0 -35.5 -4.5t-39 -18t-31.5 -38.5t-13 -66v-326h-126v551h119v-63h2q29 42 71.5 58.5t91.5 16.5z" />
    <glyph glyph-name="o" unicode="o" horiz-adv-x="608" 
d="M304 76q28 0 52 8t41.5 25t27.5 45t10 67v61q0 79 -35.5 112t-95.5 33t-95.5 -33t-35.5 -112v-61q0 -39 10 -67t27.5 -45t41.5 -25t52 -8zM304 -34q-59 0 -106.5 17t-81 49t-52 79.5t-18.5 107.5v65q0 61 18.5 108t52 79t81 49t106.5 17q58 0 106 -17t81.5 -49t52 -79
t18.5 -108v-65q0 -60 -18.5 -107.5t-52 -79.5t-81.5 -49t-106 -17z" />
    <glyph glyph-name="p" unicode="p" horiz-adv-x="613" 
d="M345 -34q-50 0 -86 17.5t-58 46.5v-270h-126v765h121v-60q14 21 33 35t39.5 22t42 11.5t40.5 3.5q54 0 94.5 -17t67.5 -47.5t40.5 -74t13.5 -96.5v-97q0 -56 -15.5 -100t-44.5 -75t-70 -47.5t-92 -16.5zM442 282q0 70 -27 108.5t-88 38.5q-63 0 -95.5 -36.5t-32.5 -93.5
v-117q0 -19 10 -38.5t27 -35t41 -25.5t53 -10q55 0 83.5 38.5t28.5 107.5v63z" />
    <glyph glyph-name="q" unicode="q" horiz-adv-x="612" 
d="M413 38h-3q-22 -40 -62.5 -56t-90.5 -16q-106 0 -158.5 61.5t-52.5 173.5v97q0 56 15.5 100.5t44.5 75t69.5 47t90.5 16.5q31 0 55.5 -6t42.5 -14.5t30 -19t19 -19.5h2v47h122v-765h-124v278zM170 220q0 -70 28.5 -108.5t83.5 -38.5q31 0 55.5 10.5t41 29t25.5 43t9 52.5
v112q0 19 -7.5 38.5t-23 35t-39 25.5t-56.5 10q-60 0 -88.5 -39t-28.5 -108v-62z" />
    <glyph glyph-name="r" unicode="r" horiz-adv-x="442" 
d="M394 412q-14 6 -30 9t-40 3q-26 0 -48.5 -9t-39 -25.5t-26 -39t-9.5 -49.5v-327h-126v551h121v-80h2q22 42 58.5 67t95.5 25q21 0 42 -3t36 -8z" />
    <glyph glyph-name="s" unicode="s" horiz-adv-x="513" 
d="M257 73q43 0 68.5 11.5t25.5 43.5v6q0 14 -3.5 23.5t-15.5 16.5t-34.5 13t-61.5 14q-50 10 -85.5 23.5t-58 33.5t-33 48t-10.5 67v10q0 28 11.5 55.5t37 49.5t66 35.5t98.5 13.5q48 0 101.5 -9t101.5 -41l-54 -91q-28 19 -62.5 27t-70.5 8q-59 0 -81 -13.5t-22 -35.5v-6
q0 -15 4 -24t15 -15.5t31 -11.5t52 -11q52 -11 90.5 -23t63 -31.5t36.5 -49t12 -73.5v-11q0 -32 -14.5 -61t-42.5 -51t-69 -35t-93 -13q-69 0 -130.5 18t-101.5 50l56 96q37 -25 79 -41t94 -16z" />
    <glyph glyph-name="t" unicode="t" horiz-adv-x="413" 
d="M110 421h-88v104h88v141h126v-141h139v-104h-139v-290q0 -35 14.5 -46t39.5 -11q19 0 37.5 3.5t40.5 12.5l20 -101q-17 -8 -46.5 -15.5t-66.5 -7.5q-47 0 -79 11t-51 32t-27 51.5t-8 69.5v291z" />
    <glyph glyph-name="u" unicode="u" horiz-adv-x="618" 
d="M261 -35q-87 0 -139 51.5t-52 152.5v356h126v-329q0 -36 8 -59.5t22 -37t33 -19t41 -5.5q19 0 39.5 6t37.5 21t28.5 40t11.5 62v321h126v-551h-120v66h-2q-12 -20 -30 -34t-39.5 -23t-45 -13.5t-45.5 -4.5z" />
    <glyph glyph-name="v" unicode="v" horiz-adv-x="536" 
d="M186 -26l-180 551h138l125 -433h4l126 433h131l-180 -551h-164z" />
    <glyph glyph-name="w" unicode="w" horiz-adv-x="786" 
d="M154 -26l-137 551h135l81 -427h4l100 427h119l95 -427h4l88 427h126l-136 -551h-147l-90 388h-4l-91 -388h-147z" />
    <glyph glyph-name="x" unicode="x" horiz-adv-x="547" 
d="M355 260l174 -286h-150l-109 201l-110 -201h-142l178 286l-171 265h151l103 -184l106 184h139z" />
    <glyph glyph-name="y" unicode="y" horiz-adv-x="559" 
d="M155 525l125 -407h4l126 407h134l-286 -780l-118 41l71 181l-196 558h140z" />
    <glyph glyph-name="z" unicode="z" horiz-adv-x="498" 
d="M458 425l-270 -341h286v-110h-452v86l282 355h-262v110h416v-100z" />
    <glyph glyph-name="braceleft" unicode="{" horiz-adv-x="479" 
d="M35 360q55 1 80.5 17.5t25.5 59.5v178q0 74 45.5 112.5t122.5 38.5h121v-111h-98q-21 0 -33.5 -5t-19 -15.5t-8 -28.5t-1.5 -43v-133q0 -18 -4 -37t-14 -36t-27 -30.5t-43 -19.5q25 -6 42 -18.5t27.5 -29.5t14.5 -36.5t4 -38.5v-159q0 -26 2 -42t8.5 -25.5t18.5 -13
t33 -3.5h98v-111h-121q-77 0 -122.5 35t-45.5 108v203q0 44 -25.5 61t-80.5 18v105z" />
    <glyph glyph-name="bar" unicode="|" horiz-adv-x="307" 
d="M217 -170h-127v935h127v-935z" />
    <glyph glyph-name="braceright" unicode="}" horiz-adv-x="479" 
d="M437 255q-55 -1 -80.5 -18t-25.5 -61v-203q0 -73 -45.5 -108t-122.5 -35h-121v111h98q21 0 33 3.5t18.5 13t8.5 25.5t2 42v159q0 19 4 38.5t14.5 36.5t27 29.5t42.5 18.5q-26 6 -43 19.5t-27 30.5t-14 36t-4 37v133q0 25 -1.5 43t-8 28.5t-19 15.5t-33.5 5h-98v111h121
q77 0 122.5 -38.5t45.5 -112.5v-178q0 -43 25.5 -59.5t80.5 -17.5v-105z" />
    <glyph glyph-name="asciitilde" unicode="~" horiz-adv-x="600" 
d="M393 222q-35 0 -60 14t-44.5 31t-37.5 31t-39 14q-25 0 -37.5 -27t-16.5 -66h-104q1 42 13.5 79t33 64t48 42.5t60.5 15.5q36 0 61.5 -14t45.5 -31t37 -31t38 -14q9 0 18 4t16 14.5t12.5 28.5t8.5 46h104q-5 -100 -49 -150.5t-108 -50.5z" />
    <glyph glyph-name="exclamdown" unicode="&#xa1;" horiz-adv-x="320" 
d="M94 754h132v-132h-132v132zM212 520l19 -600h-142l19 600h104z" />
    <glyph glyph-name="cent" unicode="&#xa2;" horiz-adv-x="520" 
d="M266 64q-112 5 -172.5 69.5t-60.5 176.5v54q0 112 62.5 174.5t170.5 66.5v90h55v-91q29 -3 51.5 -9t41.5 -15t34.5 -19.5t30.5 -21.5l-59 -89q-50 38 -99 46v-322q35 5 60.5 16t48.5 28l62 -88q-23 -22 -66.5 -40.5t-104.5 -24.5v-91h-55v90zM157 312q0 -38 10.5 -64
t26.5 -42.5t35 -24.5t37 -9v325q-18 -2 -37.5 -9t-35 -22.5t-26 -40.5t-10.5 -61v-52z" />
    <glyph glyph-name="cent" unicode="&#xffe0;" horiz-adv-x="520" 
d="M266 64q-112 5 -172.5 69.5t-60.5 176.5v54q0 112 62.5 174.5t170.5 66.5v90h55v-91q29 -3 51.5 -9t41.5 -15t34.5 -19.5t30.5 -21.5l-59 -89q-50 38 -99 46v-322q35 5 60.5 16t48.5 28l62 -88q-23 -22 -66.5 -40.5t-104.5 -24.5v-91h-55v90zM157 312q0 -38 10.5 -64
t26.5 -42.5t35 -24.5t37 -9v325q-18 -2 -37.5 -9t-35 -22.5t-26 -40.5t-10.5 -61v-52z" />
    <glyph glyph-name="sterling" unicode="&#xa3;" horiz-adv-x="512" 
d="M44 377h54v84q0 63 19.5 111t54 80.5t82.5 49.5t104 17q51 0 93 -11.5t62 -26.5l-40 -106q-27 17 -53 22t-55 5q-26 0 -50.5 -7t-44.5 -23.5t-32 -44t-12 -67.5v-83h208v-84h-208v-42q0 -35 -1.5 -59t-6.5 -42.5t-14 -34t-24 -31.5v-2h325v-108h-492v85q44 26 64.5 68
t20.5 116v50h-54v84z" />
    <glyph glyph-name="sterling" unicode="&#xffe1;" horiz-adv-x="512" 
d="M44 377h54v84q0 63 19.5 111t54 80.5t82.5 49.5t104 17q51 0 93 -11.5t62 -26.5l-40 -106q-27 17 -53 22t-55 5q-26 0 -50.5 -7t-44.5 -23.5t-32 -44t-12 -67.5v-83h208v-84h-208v-42q0 -35 -1.5 -59t-6.5 -42.5t-14 -34t-24 -31.5v-2h325v-108h-492v85q44 26 64.5 68
t20.5 116v50h-54v84z" />
    <glyph glyph-name="currency" unicode="&#xa4;" 
d="M850 580l-123 -108q21 -36 33 -78.5t12 -89.5q0 -49 -14 -95.5t-40 -85.5l129 -114l-63 -71l-129 117q-42 -35 -94.5 -55.5t-112.5 -20.5q-56 0 -106 17.5t-92 49.5l-124 -108l-64 71l122 107q-27 40 -43.5 87.5t-16.5 100.5q0 47 13 91.5t37 82.5l-114 102l69 67
l108 -96q42 35 96.5 56t114.5 21q64 0 118.5 -23t98.5 -61l116 103zM675 304q0 47 -18 88.5t-48.5 72t-72 48.5t-88.5 18t-88.5 -18t-72.5 -48.5t-48.5 -72t-17.5 -88.5t17.5 -88.5t48.5 -72.5t72.5 -48.5t88.5 -17.5t88.5 17.5t72 48.5t48.5 72.5t18 88.5z" />
    <glyph glyph-name="yen" unicode="&#xa5;" horiz-adv-x="558" 
d="M220 106h-161v92h161v34h-161v94h141l-195 362h128l150 -298h1l154 298h117l-200 -362h144v-94h-163v-34h163v-92h-163v-132h-116v132z" />
    <glyph glyph-name="yen" unicode="&#xffe5;" horiz-adv-x="558" 
d="M220 106h-161v92h161v34h-161v94h141l-195 362h128l150 -298h1l154 298h117l-200 -362h144v-94h-163v-34h163v-92h-163v-132h-116v132z" />
    <glyph glyph-name="section" unicode="&#xa7;" horiz-adv-x="553" 
d="M239 365l-9 2q-38 -5 -56.5 -23.5t-18.5 -47.5q0 -33 17.5 -51t67.5 -32l68 -20q1 -1 3 -1t4 -1q3 -1 5 -2q77 15 77 72q0 16 -4 28.5t-14.5 22t-28 17.5t-44.5 16zM255 -172q-60 0 -108.5 11t-83.5 31v105q18 -8 36.5 -14.5t38.5 -12t44.5 -8.5t54.5 -3q60 0 86.5 17.5
t26.5 51.5q0 16 -3 27t-12 19.5t-24.5 15.5t-40.5 14l-81 22q-36 9 -67 22.5t-53.5 33.5t-35 49t-12.5 70q0 54 25 86.5t72 49.5q-23 22 -36.5 52.5t-13.5 77.5q0 82 56.5 130.5t171.5 48.5q63 0 102 -10.5t68 -25.5v-104q-27 12 -66 22t-91 10q-49 0 -76 -15t-27 -49
q0 -15 3 -26t11 -19.5t21 -15t34 -13.5l86 -23q42 -11 74.5 -24.5t54.5 -33.5t33.5 -48.5t11.5 -68.5q0 -57 -24 -90.5t-70 -49.5q26 -22 40 -52t14 -72q0 -93 -61 -140.5t-179 -47.5z" />
    <glyph glyph-name="dieresis" unicode="&#xa8;" horiz-adv-x="418" 
d="M57 693h110v-112h-110v112zM251 693h110v-112h-110v112z" />
    <glyph glyph-name="copyright" unicode="&#xa9;" horiz-adv-x="808" 
d="M418 27q67 0 122.5 22.5t95.5 63.5t62 97.5t22 124.5q0 69 -22.5 126t-63 97.5t-95.5 62.5t-121 22q-65 0 -119.5 -22t-94 -62.5t-62 -97.5t-22.5 -126q0 -68 22.5 -124.5t62 -97.5t94 -63.5t119.5 -22.5zM418 -33q-83 0 -150.5 29t-115 79t-73.5 117t-26 143
q0 77 26 144t73.5 117t115 78.5t150.5 28.5q85 0 153.5 -28.5t116.5 -78.5t73.5 -117t25.5 -144q0 -76 -26 -143t-74 -117t-116 -79t-153 -29zM427 545q48 0 82 -12t69 -39l-50 -76q-22 17 -44.5 26t-56.5 9q-38 0 -59.5 -24.5t-21.5 -66.5v-52q0 -48 23 -72t59 -24
q38 0 64.5 9.5t46.5 25.5l47 -77q-24 -21 -62.5 -35.5t-97.5 -14.5q-93 0 -139.5 49.5t-46.5 137.5v53q0 88 49.5 135.5t137.5 47.5z" />
    <glyph glyph-name="ordfeminine" unicode="&#xaa;" horiz-adv-x="471" 
d="M198 279q-73 0 -111.5 31t-38.5 88v28q0 30 9 54.5t29 42t52 27.5t77 10h94v9q0 37 -15.5 52.5t-58.5 15.5q-35 0 -65 -13.5t-54 -30.5l-55 82q33 22 75.5 40t97.5 18q40 0 74 -9t59 -27t38.5 -44.5t13.5 -62.5v-306h-105v49q-8 -27 -38.5 -40.5t-77.5 -13.5zM309 468
h-93q-35 0 -47.5 -12.5t-12.5 -33.5v-11q0 -39 50 -39q56 0 79.5 18.5t23.5 60.5v17z" />
    <glyph glyph-name="guillemotleft" unicode="&#xab;" 
d="M816 19l-32 -53l-482 314v45l474 325l39 -51l-434 -296zM610 16l-36 -54l-480 318v45l473 328l37 -53l-431 -298z" />
    <glyph glyph-name="guillemotleft" unicode="&#x226a;" 
d="M816 19l-32 -53l-482 314v45l474 325l39 -51l-434 -296zM610 16l-36 -54l-480 318v45l473 328l37 -53l-431 -298z" />
    <glyph glyph-name="logicalnot" unicode="&#xac;" 
d="M881 -153h-65v252h-789v65h854v-317z" />
    <glyph glyph-name="logicalnot" unicode="&#xffe2;" 
d="M881 -153h-65v252h-789v65h854v-317z" />
    <glyph glyph-name="uni00AD" unicode="&#xad;" horiz-adv-x="438" 
d="M438 275h-438v82h438v-82z" />
    <glyph glyph-name="uni00AD" unicode="&#x2013;" horiz-adv-x="438" 
d="M438 275h-438v82h438v-82z" />
    <glyph glyph-name="degree" unicode="&#xb0;" horiz-adv-x="322" 
d="M293 609q0 -27 -9.5 -51t-26.5 -42t-41.5 -28.5t-54.5 -10.5t-54.5 10.5t-41.5 28.5t-26.5 42t-9.5 51t9.5 51t26.5 42t41.5 28.5t54.5 10.5t54.5 -10.5t41.5 -28.5t26.5 -42t9.5 -51zM221 609q0 26 -16 44t-44 18t-44 -18t-16 -44t16 -44t44 -18t44 18t16 44z" />
    <glyph glyph-name="plusminus" unicode="&#xb1;" horiz-adv-x="620" 
d="M367 652v-188h202v-106h-202v-190h-114v190h-202v106h202v188h114zM51 121h518v-106h-518v106z" />
    <glyph glyph-name="uni00B2" unicode="&#xb2;" horiz-adv-x="400" 
d="M181 510q21 22 33 37t18.5 26t8 19.5t1.5 17.5v2q0 17 -12.5 28t-39.5 11q-26 0 -44.5 -13t-34.5 -37l-85 56q11 17 26 34t35.5 30.5t47 21.5t59.5 8q39 0 69 -10t50 -28t30.5 -42.5t10.5 -52.5v-5q0 -20 -8 -40.5t-20.5 -40.5t-29 -39t-32.5 -36l-79 -80h187v-93h-340
v69z" />
    <glyph glyph-name="uni00B3" unicode="&#xb3;" horiz-adv-x="400" 
d="M34 677q23 35 62.5 54.5t90.5 19.5q74 0 117 -31.5t43 -88.5v-9q0 -38 -16.5 -61.5t-42.5 -35.5q41 -7 62 -34t21 -60v-15q0 -29 -10 -54.5t-31.5 -44.5t-55.5 -30t-82 -11q-53 0 -95 15.5t-73 40.5l52 83q29 -23 57.5 -33.5t54.5 -10.5q38 0 53.5 15t15.5 34v8
q0 9 -3 17.5t-12 15.5t-24.5 11t-39.5 4h-58v91h58q34 0 46 12.5t12 33.5v5q0 19 -12.5 30t-42.5 11q-18 0 -39 -10t-35 -29z" />
    <glyph glyph-name="acute" unicode="&#xb4;" horiz-adv-x="620" 
d="M178 562l113 155h149l-148 -155h-114z" />
    <glyph glyph-name="paragraph" unicode="&#xb6;" horiz-adv-x="589" 
d="M275 341h-39q-45 0 -84.5 12.5t-68 37t-45 59.5t-16.5 80q0 40 13 75.5t41.5 61.5t73.5 41t109 15h271v-855h-87v774h-82v-774h-86v473z" />
    <glyph glyph-name="periodcentered" unicode="&#xb7;" horiz-adv-x="421" 
d="M146 366h129v-128h-129v128z" />
    <glyph glyph-name="periodcentered" unicode="&#x30fb;" horiz-adv-x="421" 
d="M146 366h129v-128h-129v128z" />
    <glyph glyph-name="cedilla" unicode="&#xb8;" horiz-adv-x="620" 
d="M214 -139q55 5 77.5 16.5t22.5 25.5q0 17 -20 23.5t-58 6.5v107h68v-52q100 -8 100 -79q0 -23 -9.5 -42t-31.5 -33t-58.5 -23.5t-90.5 -13.5v64z" />
    <glyph glyph-name="uni00B9" unicode="&#xb9;" horiz-adv-x="400" 
d="M179 284v334l-100 -60l-55 92l172 92h96v-458h-113z" />
    <glyph glyph-name="ordmasculine" unicode="&#xba;" horiz-adv-x="499" 
d="M250 731q95 0 152 -52t57 -147v-56q0 -97 -57 -148t-152 -51q-47 0 -86 13t-66.5 38.5t-42.5 62.5t-15 85v56q0 48 15 85t42.5 62.5t66.5 38.5t86 13zM250 376q51 0 74 27.5t23 81.5v38q0 55 -23 82t-74 27t-75 -27t-24 -82v-38q0 -54 24 -81.5t75 -27.5z" />
    <glyph glyph-name="guillemotright" unicode="&#xbb;" 
d="M816 280l-480 -318l-34 54l435 286q-18 13 -51 35.5t-73.5 50.5t-85 58.5t-86 59t-75.5 52t-54.5 38t-24 17t18.5 -12.5l39 53l471 -328v-45zM610 280l-482 -314l-34 53l435 282q27 -18 17 -11t-44 30t-84.5 58t-104 72t-104.5 71.5t-84.5 58t-44 30.5t16.5 -11l39 51
l474 -325v-45z" />
    <glyph glyph-name="guillemotright" unicode="&#x226b;" 
d="M816 280l-480 -318l-34 54l435 286q-18 13 -51 35.5t-73.5 50.5t-85 58.5t-86 59t-75.5 52t-54.5 38t-24 17t18.5 -12.5l39 53l471 -328v-45zM610 280l-482 -314l-34 53l435 282q27 -18 17 -11t-44 30t-84.5 58t-104 72t-104.5 71.5t-84.5 58t-44 30.5t16.5 -11l39 51
l474 -325v-45z" />
    <glyph glyph-name="onequarter" unicode="&#xbc;" horiz-adv-x="884" 
d="M725 258h104v-169h54v-89h-54v-83h-107v83h-227v72l189 303h114zM682 709h103l-523 -775h-103zM179 237v334l-100 -60l-55 92l172 92h96v-458h-113zM722 89v164l-102 -164h102z" />
    <glyph glyph-name="onehalf" unicode="&#xbd;" horiz-adv-x="935" 
d="M682 709h103l-523 -775h-103zM179 237v334l-100 -60l-55 92l172 92h96v-458h-113zM716 143q21 22 33 37t18.5 26t8 19.5t1.5 17.5v2q0 17 -12.5 28t-39.5 11q-26 0 -44.5 -13t-34.5 -37l-85 56q11 17 26 34t35.5 30.5t47 21.5t59.5 8q39 0 69 -10t50 -28t30.5 -42.5
t10.5 -52.5v-5q0 -20 -8 -40.5t-20.5 -40.5t-29 -39t-32.5 -36l-79 -80h187v-93h-340v69z" />
    <glyph glyph-name="threequarters" unicode="&#xbe;" horiz-adv-x="899" 
d="M740 258h104v-169h54v-89h-54v-83h-107v83h-227v72l189 303h114zM34 630q23 35 62.5 54.5t90.5 19.5q74 0 117 -31.5t43 -88.5v-9q0 -38 -16.5 -61.5t-42.5 -35.5q41 -7 62 -34t21 -60v-15q0 -29 -10 -54.5t-31.5 -44.5t-55.5 -30t-82 -11q-53 0 -95 15.5t-73 40.5l52 83
q29 -23 57.5 -33.5t54.5 -10.5q38 0 53.5 15t15.5 34v8q0 9 -3 17.5t-12 15.5t-24.5 11t-39.5 4h-58v91h58q34 0 46 12.5t12 33.5v5q0 19 -12.5 30t-42.5 11q-18 0 -39 -10t-35 -29zM697 709h103l-523 -775h-103zM737 89v164l-102 -164h102z" />
    <glyph glyph-name="questiondown" unicode="&#xbf;" horiz-adv-x="564" 
d="M361 485v-45q0 -25 -3.5 -44.5t-13 -38.5t-26.5 -40t-44 -49q-36 -37 -56.5 -57.5t-30 -34.5t-11.5 -27t-2 -34v-10q0 -11 4.5 -24t15.5 -24t31 -18t51 -7q47 0 86.5 18.5t71.5 49.5l75 -92q-51 -50 -106 -69t-125 -19q-55 0 -98 13.5t-73 37.5t-45.5 58t-15.5 75v11
q0 37 10 65.5t26.5 52.5t38 45t44.5 43q33 31 46.5 57t13.5 65v42h136zM357 574h-132v132h132v-132z" />
    <glyph glyph-name="AE" unicode="&#xc6;" horiz-adv-x="963" 
d="M924 589h-320v-194h299v-104h-299v-211h327v-106h-454v200h-214l-122 -200h-143l448 721h478v-106zM329 283h148v265q-10 -29 -23 -55t-36 -64z" />
    <glyph glyph-name="Eth" unicode="&#xd0;" horiz-adv-x="716" 
d="M12 387h85v308h251q161 0 237 -79.5t76 -229.5v-103q0 -75 -17 -132.5t-54.5 -96.5t-96.5 -59.5t-143 -20.5h-253v332h-85v81zM224 387h210v-81h-210v-224h107q48 0 85.5 11t63 35t39 63.5t13.5 96.5v93q0 114 -50.5 160t-150.5 46h-107v-200z" />
    <glyph glyph-name="multiply" unicode="&#xd7;" horiz-adv-x="620" 
d="M239 315l-185 195l66 64l184 -195l186 198l63 -61l-185 -199l185 -197l-65 -63l-186 197l-185 -197l-63 61z" />
    <glyph glyph-name="Oslash" unicode="&#xd8;" horiz-adv-x="820" 
d="M76 13l63 74q-22 35 -34 81.5t-12 106.5v119q0 84 24.5 143t66.5 96.5t97.5 55t116.5 17.5q60 0 113.5 -16.5t94.5 -51.5l58 70l63 -50l-69 -82q22 -34 33.5 -79.5t11.5 -102.5v-119q0 -85 -24.5 -144.5t-66 -96.5t-97 -54t-117.5 -17q-60 0 -112 15t-93 48l-54 -63z
M398 589q-36 0 -68 -9.5t-56 -33.5t-38 -65t-14 -103v-87q0 -29 3 -51.5t7 -42.5l293 347q-23 26 -56.5 35.5t-70.5 9.5zM398 80q37 0 69 9.5t56 33.5t37.5 65t13.5 103v87q0 54 -10 88l-290 -342q24 -24 56 -34t68 -10z" />
    <glyph glyph-name="Thorn" unicode="&#xde;" horiz-adv-x="636" 
d="M81 695h128v-128h144q65 0 111.5 -16t76.5 -44t44.5 -66t14.5 -82v-21q0 -47 -15.5 -88t-46.5 -71.5t-77.5 -48t-107.5 -17.5h-144v-139h-128v721zM209 458v-236h127q73 0 104.5 32t31.5 86v18q0 48 -28 74t-97 26h-138z" />
    <glyph glyph-name="germandbls" unicode="&#xdf;" horiz-adv-x="566" 
d="M363 364q0 -27 20 -43.5t59 -34.5t63 -37t36.5 -39t17 -41.5t4.5 -43.5v-5q0 -29 -11.5 -56.5t-35 -49t-58.5 -35t-83 -13.5q-54 0 -93.5 16t-69.5 38l60 94q25 -20 53.5 -31.5t54.5 -11.5q59 0 59 51v2q0 13 -1.5 22.5t-7 17.5t-16 15t-28.5 16q-31 15 -57.5 32
t-46 37.5t-30.5 44.5t-11 53v9q0 27 10.5 48t26.5 38.5t35 32t35 30t26.5 32t10.5 37.5v3q0 19 -16.5 29.5t-59.5 10.5q-24 0 -44 -6.5t-34 -21.5t-22 -40.5t-8 -63.5v-526h-126v559q0 51 18.5 89.5t50 63.5t74 37.5t89.5 12.5q57 0 96 -12.5t63.5 -32.5t35 -45.5
t10.5 -50.5v-10q0 -30 -11 -52.5t-27.5 -41.5t-36 -34t-36 -29t-27.5 -28t-11 -30v-6z" />
    <glyph glyph-name="ae" unicode="&#xe6;" horiz-adv-x="881" 
d="M785 119q14 -23 26 -47t26 -47q-40 -27 -92 -43t-132 -16q-59 0 -109.5 19.5t-83.5 64.5q-8 -11 -22.5 -25.5t-37.5 -27.5t-57.5 -22t-82.5 -9q-89 0 -136 40.5t-47 113.5v37q0 37 10 65t33.5 46.5t61 27.5t92.5 9h129v29q0 51 -18.5 72.5t-75.5 21.5q-47 0 -80 -14.5
t-71 -40.5l-63 92q42 29 93 51.5t122 22.5q54 0 97.5 -16t72.5 -45q32 32 75.5 46.5t96.5 14.5q52 0 96 -15.5t76 -46.5t49.5 -77t17.5 -106v-87h-364q0 -33 10 -58t28 -41.5t42 -25t53 -8.5q52 0 88 10.5t77 34.5zM363 198h-117q-54 0 -70.5 -11t-16.5 -36v-17
q0 -27 17 -43t54 -16q32 0 54 5t37 16q23 16 32.5 34.5t9.5 50.5v17zM731 308v24q0 42 -32.5 71.5t-86.5 29.5q-60 0 -92.5 -26.5t-32.5 -73.5v-25h244z" />
    <glyph glyph-name="eth" unicode="&#xf0;" horiz-adv-x="622" 
d="M124 598l106 44q-16 11 -33.5 20.5t-37.5 19.5l40 71q30 -14 62 -32t62 -40l122 52l29 -68l-82 -34q36 -31 67 -68.5t54.5 -82.5t36.5 -98.5t13 -115.5v-47q0 -60 -18.5 -107.5t-52.5 -79.5t-82 -49t-106 -17q-59 0 -106.5 17t-81.5 49t-52.5 79.5t-18.5 107.5v52
q0 61 17.5 108t50 79t78 49t101.5 17q23 0 42 -1t32 -4q-14 21 -30.5 39.5t-34.5 34.5l-148 -62zM304 76q56 0 94 38t38 117v26q0 46 -9.5 76.5t-27 48.5t-41 25t-51.5 7q-57 0 -96 -38t-39 -117v-28q0 -79 38 -117t94 -38z" />
    <glyph glyph-name="divide" unicode="&#xf7;" horiz-adv-x="620" 
d="M568 369v-104h-516v104h516zM252 571h114v-112h-114v112zM252 175h114v-112h-114v112z" />
    <glyph glyph-name="oslash" unicode="&#xf8;" horiz-adv-x="626" 
d="M313 -34q-95 0 -159 43l-44 -50l-46 39l45 51q-54 65 -54 170v65q0 61 18.5 108t52 79t81 49t106.5 17q107 0 174 -55l43 49l46 -39l-48 -55q43 -61 43 -153v-65q0 -60 -18.5 -107.5t-52 -79.5t-81.5 -49t-106 -17zM182 221q0 -46 13 -75l214 246q-34 35 -96 35
q-60 0 -95.5 -33t-35.5 -112v-61zM313 76q28 0 52 8t41.5 25t27.5 45t10 67v61q0 29 -6 52l-206 -236q17 -12 37.5 -17t43.5 -5z" />
    <glyph glyph-name="thorn" unicode="&#xfe;" horiz-adv-x="613" 
d="M347 -34q-61 0 -96 18t-49 46v-270h-126v970h126v-251q12 17 29.5 28.5t38 18.5t42 10t41.5 3q111 0 162.5 -61.5t51.5 -173.5v-99q0 -56 -15.5 -100.5t-44.5 -75t-69.5 -47t-90.5 -16.5zM443 282q0 70 -29.5 109.5t-82.5 39.5q-63 0 -97 -35.5t-34 -92.5v-118
q0 -19 10 -38.5t27 -35t41 -25.5t53 -10q55 0 83.5 39t28.5 108v59z" />
    <glyph glyph-name="dcroat" unicode="&#x111;" horiz-adv-x="605" 
d="M268 655h143v75h126v-75h74v-70h-74v-611h-119v65h-3q-22 -40 -65 -56.5t-93 -16.5q-106 0 -158.5 61.5t-52.5 173.5v97q0 56 15.5 100.5t44.5 75t69.5 47t90.5 16.5q33 0 57.5 -6t42 -14.5t28.5 -19t17 -19.5v107h-143v70zM170 220q0 -70 28.5 -108.5t83.5 -38.5
q31 0 55.5 10.5t41 29t25.5 43t9 52.5v112q0 19 -7.5 38.5t-23 35t-39 25.5t-56.5 10q-60 0 -88.5 -39t-28.5 -108v-62z" />
    <glyph glyph-name="Hbar" unicode="&#x126;" horiz-adv-x="717" 
d="M508 273h-299v-299h-128v508h-70v81h70v132h128v-132h299v132h128v-132h70v-81h-70v-508h-128v299zM508 377v105h-299v-105h299z" />
    <glyph glyph-name="hbar" unicode="&#x127;" horiz-adv-x="602" 
d="M-6 655h68v75h119v-75h156v-70h-156v-123h2q29 42 71.5 58.5t91.5 16.5q37 0 71.5 -11t61.5 -35.5t43 -63.5t16 -94v-359h-126v332q0 121 -105 121q-15 0 -35.5 -4.5t-39 -18t-31.5 -38.5t-13 -66v-326h-126v611h-68v70z" />
    <glyph glyph-name="dotlessi" unicode="&#x131;" horiz-adv-x="298" 
d="M86 525h126v-551h-126v551z" />
    <glyph glyph-name="IJ" unicode="&#x132;" horiz-adv-x="781" 
d="M573 695h128v-516q0 -60 -15.5 -101.5t-45 -67t-71.5 -36.5t-94 -11q-45 0 -91.5 16t-81.5 47l59 98q32 -24 56.5 -34t59.5 -10q47 0 71.5 28t24.5 102v485zM81 695h128v-721h-128v721z" />
    <glyph glyph-name="ij" unicode="&#x133;" horiz-adv-x="540" 
d="M79 525h126v-551h-126v551zM76 742h132v-136h-132v136zM332 742h132v-136h-132v136zM461 -76q0 -39 -9.5 -70.5t-30 -54.5t-54 -35.5t-81.5 -12.5q-31 0 -61.5 4.5t-47.5 10.5l20 102q22 -6 38.5 -8t33.5 -2q35 0 50.5 15.5t15.5 55.5v596h126v-601z" />
    <glyph glyph-name="kgreenlandic" unicode="&#x138;" horiz-adv-x="582" 
d="M360 307l216 -333h-161l-143 241l-70 -71v-170h-126v551h126v-229l208 229h160z" />
    <glyph glyph-name="Ldot" unicode="&#x13f;" horiz-adv-x="558" 
d="M209 695v-613h329v-108h-457v721h128zM363 441h127v-130h-127v130z" />
    <glyph glyph-name="ldot" unicode="&#x140;" horiz-adv-x="474" 
d="M80 730h126v-756h-126v756zM298 437h127v-130h-127v130z" />
    <glyph glyph-name="Lslash" unicode="&#x141;" horiz-adv-x="611" 
d="M262 695v-302l148 84l34 -63l-182 -104v-228h329v-108h-457v264l-90 -52l-34 63l124 70v376h128z" />
    <glyph glyph-name="lslash" unicode="&#x142;" horiz-adv-x="356" 
d="M6 310l109 60v360h126v-288l81 45l28 -54l-109 -62v-397h-126v326l-79 -44z" />
    <glyph glyph-name="napostrophe" unicode="&#x149;" horiz-adv-x="633" 
d="M0 520l20 178h102l-40 -178h-82zM411 537q37 0 71.5 -11t61.5 -35.5t43 -63.5t16 -94v-359h-126v332q0 121 -105 121q-15 0 -35.5 -4.5t-39 -18t-31.5 -38.5t-13 -66v-326h-126v551h119v-63h2q29 42 71.5 58.5t91.5 16.5z" />
    <glyph glyph-name="Eng" unicode="&#x14a;" horiz-adv-x="721" 
d="M81 695h145l246 -422q15 -26 31.5 -55t19.5 -55v532h117v-772q0 -46 -13 -78.5t-37 -53.5t-57 -30.5t-73 -9.5q-31 0 -59.5 4.5t-45.5 10.5l20 102q23 -6 44 -8t39 -2q32 0 48.5 15t16.5 55v41l-294 487q-12 20 -20 38.5t-11 35.5v-556h-117v721z" />
    <glyph glyph-name="eng" unicode="&#x14b;" horiz-adv-x="582" 
d="M360 537q37 0 71.5 -11t61.5 -35.5t43 -63.5t16 -94v-417q0 -78 -45 -121.5t-134 -43.5q-31 0 -59.5 4.5t-45.5 10.5l20 102q22 -6 43.5 -8t38.5 -2q8 0 18 1.5t18.5 8t14 19t5.5 34.5v385q0 121 -105 121q-15 0 -35.5 -4.5t-39 -18t-31.5 -38.5t-13 -66v-326h-126v551
h119v-63h2q29 42 71.5 58.5t91.5 16.5z" />
    <glyph glyph-name="OE" unicode="&#x152;" horiz-adv-x="991" 
d="M928 589h-320v-194h299v-104h-299v-211h327v-106h-579q-147 0 -224 75.5t-77 227.5v115q0 75 20.5 132t59.5 95t95 57t126 19h572v-106zM481 88v495h-107q-36 0 -70.5 -9t-61 -31.5t-42.5 -60t-16 -94.5v-107q0 -57 16 -94.5t42 -59t60.5 -30.5t71.5 -9h107z" />
    <glyph glyph-name="oe" unicode="&#x153;" horiz-adv-x="926" 
d="M878 25q-40 -27 -91.5 -43t-130.5 -16q-52 0 -101.5 17.5t-84.5 60.5q-61 -78 -188 -78q-120 0 -180.5 66t-60.5 187v67q0 61 17.5 108t49 79t76 49t98.5 17q63 0 110.5 -21t79.5 -61q34 42 82 62t101 20q54 0 97.5 -15.5t74.5 -46.5t48 -77t17 -106v-84h-362v-5
q0 -33 10 -57.5t28 -41t42.5 -24.5t52.5 -8q26 0 47 2.5t40 8t37 14t39 20.5zM282 76q57 0 86.5 38t29.5 117v43q0 79 -29.5 117t-86.5 38q-114 0 -114 -155v-43q0 -155 114 -155zM772 311v21q0 42 -31.5 71.5t-85.5 29.5q-56 0 -90.5 -26.5t-34.5 -82.5v-13h242z" />
    <glyph glyph-name="Tbar" unicode="&#x166;" horiz-adv-x="571" 
d="M561 695v-108h-211v-208h136v-81h-136v-324h-128v324h-130v81h130v208h-212v108h551z" />
    <glyph glyph-name="tbar" unicode="&#x167;" horiz-adv-x="390" 
d="M102 262h-72v72h72v87h-88v104h88v141h126v-141h139v-104h-139v-87h111v-72h-111v-131q0 -35 14.5 -46t39.5 -11q19 0 37.5 3.5t40.5 12.5l20 -101q-17 -8 -46.5 -15.5t-66.5 -7.5q-47 0 -79 11t-51 32t-27 51.5t-8 69.5v132z" />
    <glyph glyph-name="uni02BC" unicode="&#x2bc;" horiz-adv-x="30" 
 />
    <glyph glyph-name="caron" unicode="&#x2c7;" horiz-adv-x="620" 
d="M359 557h-99l-109 157h89q17 -19 34.5 -36t34.5 -36q17 19 35 36t35 36h88z" />
    <glyph glyph-name="uni02D0" unicode="&#x2d0;" 
d="M551 553l-97 -95l-97 95h194zM551 72h-194l97 95z" />
    <glyph glyph-name="uni02D0" unicode="&#x2236;" 
d="M551 553l-97 -95l-97 95h194zM551 72h-194l97 95z" />
    <glyph glyph-name="breve" unicode="&#x2d8;" horiz-adv-x="620" 
d="M310 577q-62 0 -99.5 33.5t-42.5 93.5h86q6 -25 15.5 -40.5t40.5 -15.5q32 0 41.5 15.5t14.5 40.5h86q-2 -60 -40.5 -93.5t-101.5 -33.5z" />
    <glyph glyph-name="dotaccent" unicode="&#x2d9;" horiz-adv-x="620" 
d="M251 696h117v-115h-117v115z" />
    <glyph glyph-name="ring" unicode="&#x2da;" horiz-adv-x="310" 
d="M153 592q23 0 37 12t14 35t-14 37.5t-37 14.5q-20 0 -34 -14.5t-14 -37.5t14 -35t34 -12zM153 540q-21 0 -40 8t-33 21.5t-22 31.5t-8 38q0 43 30 72t73 29q45 0 75 -29t30 -72q0 -20 -8 -38t-22 -31.5t-33.5 -21.5t-41.5 -8z" />
    <glyph glyph-name="ogonek" unicode="&#x2db;" horiz-adv-x="620" 
d="M339 -204q-55 0 -87.5 29t-32.5 73q0 21 9 40.5t22.5 36t30 28.5t30.5 18h84q-31 -25 -53 -55.5t-22 -54.5q0 -22 16 -29.5t34 -7.5q10 0 19 1t13 1v-69q-12 -5 -26.5 -8t-36.5 -3z" />
    <glyph glyph-name="tilde" unicode="&#x2dc;" horiz-adv-x="620" 
d="M146 568q3 34 13.5 58.5t26 40t34 22.5t37.5 7q15 0 30 -5t28 -11.5t25 -11.5t21 -5q25 0 33 36h78q-3 -35 -14 -59t-26.5 -39.5t-34 -22.5t-36.5 -7q-15 0 -30 5t-28 11.5t-25 11.5t-21 5q-15 0 -22.5 -8t-11.5 -28h-77v0z" />
    <glyph glyph-name="hungarumlaut" unicode="&#x2dd;" horiz-adv-x="620" 
d="M361 709h122l-74 -157h-93zM181 709h124l-74 -157h-97z" />
    <glyph glyph-name="Alpha" unicode="&#x391;" horiz-adv-x="688" 
d="M672 -26h-139l-70 198h-243l-71 -198h-131l268 721h115zM257 279h169l-49 147q-13 36 -20.5 60.5t-15.5 50.5q-4 -15 -7.5 -27t-7.5 -24.5t-8.5 -26.5t-11.5 -33z" />
    <glyph glyph-name="Beta" unicode="&#x392;" horiz-adv-x="661" 
d="M81 695h280q227 0 227 -176v-21q0 -24 -5.5 -46.5t-19 -42t-35.5 -34t-54 -22.5q66 -10 106.5 -49.5t40.5 -114.5v-25q0 -89 -56 -139.5t-173 -50.5h-311v721zM208 80h116q42 0 73.5 3.5t52 14t30.5 29.5t10 51v22q0 28 -9.5 46.5t-31.5 30t-57.5 16t-86.5 4.5h-97v-217z
M208 589v-188h94q37 0 66.5 2t49 11t30 27.5t10.5 52.5v18q0 46 -35.5 61.5t-116.5 15.5h-98z" />
    <glyph glyph-name="Gamma" unicode="&#x393;" horiz-adv-x="558" 
d="M81 -26v721h477v-105h-349v-616h-128z" />
    <glyph glyph-name="uni0394" unicode="&#x394;" horiz-adv-x="691" 
d="M287 695h130l263 -721h-658zM189 76h323l-160 477z" />
    <glyph glyph-name="Epsilon" unicode="&#x395;" horiz-adv-x="608" 
d="M545 695v-106h-337v-194h316v-104h-316v-211h344v-106h-471v721h464z" />
    <glyph glyph-name="Zeta" unicode="&#x396;" horiz-adv-x="629" 
d="M578 598l-395 -514h414v-110h-572v105l390 506h-366v110h529v-97z" />
    <glyph glyph-name="Eta" unicode="&#x397;" horiz-adv-x="717" 
d="M508 297h-299v-323h-128v721h128v-292h299v292h128v-721h-128v323z" />
    <glyph glyph-name="Theta" unicode="&#x398;" horiz-adv-x="720" 
d="M360 706q61 0 116.5 -17.5t97.5 -55t66.5 -96.5t24.5 -143v-119q0 -85 -24.5 -144.5t-66 -96.5t-97 -54t-117.5 -17t-117.5 17t-97 54t-66 96.5t-24.5 144.5v119q0 84 24.5 143t66.5 96.5t97.5 55t116.5 17.5zM360 80q37 0 69 9.5t56 33.5t37.5 65t13.5 103v87
q0 62 -13.5 103t-37.5 65t-56 33.5t-69 9.5q-36 0 -68 -9.5t-56 -33.5t-38 -65t-14 -103v-87q0 -62 14 -103t38 -65t56 -33.5t68 -9.5zM511 291h-302v90h302v-90z" />
    <glyph glyph-name="Iota" unicode="&#x399;" horiz-adv-x="290" 
d="M81 695h128v-721h-128v721z" />
    <glyph glyph-name="Kappa" unicode="&#x39a;" horiz-adv-x="666" 
d="M362 377l294 -403h-162l-218 310l-67 -73v-237h-128v721h128v-330l284 330h148z" />
    <glyph glyph-name="Lambda" unicode="&#x39b;" horiz-adv-x="707" 
d="M689 -26h-139l-195 540h-1l-205 -540h-131l286 721h106z" />
    <glyph glyph-name="Mu" unicode="&#x39c;" horiz-adv-x="875" 
d="M237 519q-8 19 -16 44.5t-21 64.5v-609h-119v721h182l177 -448l170 448h184v-721h-121v609q-11 -45 -19 -67.5t-15 -41.5l-151 -380h-102z" />
    <glyph glyph-name="Nu" unicode="&#x39d;" horiz-adv-x="721" 
d="M81 695h147l246 -437q11 -20 24.5 -49.5t21.5 -64.5v551h120v-721h-147l-247 438q-14 24 -26 52t-19 59v-549h-120v721z" />
    <glyph glyph-name="Xi" unicode="&#x39e;" horiz-adv-x="623" 
d="M542 82v-108h-505v108h505zM77 397h419v-108h-419v108zM37 587v108h498v-108h-498z" />
    <glyph glyph-name="Omicron" unicode="&#x39f;" horiz-adv-x="720" 
d="M360 706q61 0 116.5 -17.5t97.5 -55t66.5 -96.5t24.5 -143v-119q0 -85 -24.5 -144.5t-66 -96.5t-97 -54t-117.5 -17t-117.5 17t-97 54t-66 96.5t-24.5 144.5v119q0 84 24.5 143t66.5 96.5t97.5 55t116.5 17.5zM360 80q37 0 69 9.5t56 33.5t37.5 65t13.5 103v87
q0 62 -13.5 103t-37.5 65t-56 33.5t-69 9.5q-36 0 -68 -9.5t-56 -33.5t-38 -65t-14 -103v-87q0 -62 14 -103t38 -65t56 -33.5t68 -9.5z" />
    <glyph glyph-name="Pi" unicode="&#x3a0;" horiz-adv-x="689" 
d="M612 -26h-128v616h-275v-616h-128v721h531v-721z" />
    <glyph glyph-name="Rho" unicode="&#x3a1;" horiz-adv-x="636" 
d="M81 695h272q65 0 111.5 -15.5t76.5 -43t44.5 -65.5t14.5 -82v-21q0 -44 -15 -83.5t-46 -69t-77 -47t-109 -17.5h-144v-277h-128v721zM209 588v-229h127q63 0 99 24t36 87v18q0 30 -9 49t-25.5 30.5t-39.5 16t-50 4.5h-138z" />
    <glyph glyph-name="Sigma" unicode="&#x3a3;" horiz-adv-x="543" 
d="M511 695v-108h-316l195 -255l-197 -250h325v-108h-481v90l209 267l-209 277v87h474z" />
    <glyph glyph-name="Tau" unicode="&#x3a4;" horiz-adv-x="571" 
d="M561 695v-108h-211v-613h-128v613h-212v108h551z" />
    <glyph glyph-name="Upsilon" unicode="&#x3a5;" horiz-adv-x="648" 
d="M388 259v-285h-128v285l-247 436h143l171 -318l168 318h140z" />
    <glyph glyph-name="Phi" unicode="&#x3a6;" horiz-adv-x="762" 
d="M50 376q0 52 19.5 95.5t54.5 75.5t85 52.5t112 26.5v92h119v-92q62 -7 112 -27t85.5 -52t55 -75.5t19.5 -95.5v-53q0 -53 -19.5 -96.5t-55 -75t-85.5 -51.5t-112 -27v-99h-119v99q-62 7 -112 27t-85 52t-54.5 75t-19.5 96v53zM589 370q0 25 -7 48t-24.5 41.5t-46 31.5
t-71.5 19v-323q43 6 71.5 19t46 31.5t24.5 42t7 49.5v41zM173 329q0 -26 7 -49.5t24 -42t45.5 -31.5t71.5 -19v323q-43 -6 -71.5 -19t-45.5 -31.5t-24 -41.5t-7 -48v-41z" />
    <glyph glyph-name="Chi" unicode="&#x3a7;" horiz-adv-x="669" 
d="M419 344l224 -370h-148l-165 291l-160 -291h-144l223 377l-205 344h154l144 -266l149 266h143z" />
    <glyph glyph-name="Psi" unicode="&#x3a8;" horiz-adv-x="729" 
d="M303 152q-121 16 -184.5 90.5t-63.5 208.5v224h127v-199q0 -54 9 -91t25 -61.5t38 -38t49 -19.5v409h126v-408q26 6 48 19t37.5 36.5t24 60.5t8.5 93v199h127v-224q0 -133 -63.5 -207.5t-181.5 -91.5v-178h-126v178z" />
    <glyph glyph-name="uni03A9" unicode="&#x3a9;" horiz-adv-x="753" 
d="M737 -26h-313v112q25 6 47 19.5t38.5 38t25.5 61t9 86.5v89q0 107 -40.5 159t-127.5 52t-127.5 -52t-40.5 -159v-89q0 -50 9 -86.5t25.5 -61t38 -38t47.5 -19.5v-112h-313v112h139q-28 26 -49.5 74.5t-21.5 114.5v119q0 150 75.5 231t217.5 81t217.5 -81t75.5 -231v-119
q0 -66 -21.5 -114.5t-49.5 -74.5h139v-112z" />
    <glyph glyph-name="alpha" unicode="&#x3b1;" horiz-adv-x="603" 
d="M402 45h-1q-12 -34 -50 -56.5t-88 -22.5q-114 0 -166.5 59t-52.5 172v111q0 109 55 169t157 60q60 0 95.5 -22.5t49.5 -51.5v62h126v-551h-125v71zM170 207q0 -74 28 -102.5t84 -28.5q19 0 40.5 7t38.5 21t28.5 36.5t11.5 52.5v112q0 25 -6.5 47.5t-21 39t-37 26
t-54.5 9.5q-30 0 -51.5 -7t-35 -22.5t-19.5 -42t-6 -65.5v-83z" />
    <glyph glyph-name="beta" unicode="&#x3b2;" horiz-adv-x="589" 
d="M507 544q0 -74 -30 -115t-80 -58q31 -4 60.5 -15t52 -32t36 -53t13.5 -77v-19q0 -47 -15.5 -85.5t-43 -66t-64.5 -42.5t-80 -15q-57 0 -95.5 21t-58.5 52v-279h-126v760q0 53 17 93.5t46.5 67.5t69.5 41t87 14q52 0 91.5 -15t66 -40.5t40 -58t13.5 -67.5v-11zM202 202
q0 -22 4.5 -44.5t18.5 -41t40 -30t68 -11.5q18 0 35.5 4.5t31.5 16.5t22.5 31.5t8.5 49.5v14q0 39 -10 64.5t-31 39.5t-54 18.5t-80 3.5v98q69 0 96 28t27 82v15q0 12 -3 27.5t-12 30t-25.5 24.5t-43.5 10q-44 0 -68.5 -31.5t-24.5 -101.5v-297z" />
    <glyph glyph-name="gamma" unicode="&#x3b3;" horiz-adv-x="533" 
d="M136 525l131 -439l136 439h126l-200 -558v-207h-126v205l-199 560h132z" />
    <glyph glyph-name="delta" unicode="&#x3b4;" horiz-adv-x="576" 
d="M288 -34q-118 0 -180.5 64t-62.5 185v26q0 42 11.5 82t33.5 72t54.5 54t74.5 29q-41 29 -66.5 62t-25.5 75v8q0 50 41 81.5t134 31.5q53 0 93 -8.5t76 -25.5l-35 -101q-28 17 -57 24.5t-62 7.5q-38 0 -51.5 -9.5t-13.5 -21.5q0 -9 7.5 -19.5t27 -26.5t51.5 -38t82 -54
q33 -21 54.5 -48t34 -57t17.5 -62t5 -64v-18q0 -121 -62.5 -185t-180.5 -64zM288 76q57 0 86.5 38t29.5 103v14q0 46 -6.5 76t-20.5 47t-36.5 24t-55.5 7q-59 0 -86 -43t-27 -113v-12q0 -65 29.5 -103t86.5 -38z" />
    <glyph glyph-name="epsilon" unicode="&#x3b5;" horiz-adv-x="508" 
d="M416 409q-67 31 -149 31q-25 0 -41 -5.5t-25.5 -14t-13 -18t-3.5 -17.5v-9q0 -37 21 -54.5t78 -17.5h67v-94h-67q-24 0 -44.5 -2.5t-35 -10t-23 -22.5t-8.5 -39v-5q0 -21 10.5 -34t26 -19.5t34 -8.5t35.5 -2q38 0 76.5 11.5t74.5 36.5l49 -92q-17 -13 -41.5 -23.5
t-53.5 -18t-60.5 -11.5t-62.5 -4q-105 0 -164.5 39.5t-59.5 114.5v14q0 56 34.5 91t94.5 36q-30 3 -52 15t-35.5 29t-20 37.5t-6.5 40.5v14q0 65 52 102.5t162 37.5q109 0 182 -35z" />
    <glyph glyph-name="zeta" unicode="&#x3b6;" horiz-adv-x="470" 
d="M264 -98q22 14 41.5 26.5t19.5 29.5q0 8 -7.5 12.5t-22 8.5t-35 8t-45.5 12q-46 13 -80.5 32t-58 47t-35 66.5t-11.5 92.5v23q0 49 14 99.5t38.5 97.5t58.5 89t75 76h-146v108h367l12 -70q-59 -37 -112.5 -82t-93.5 -94.5t-63.5 -101.5t-23.5 -102v-19q0 -40 10 -66.5
t29.5 -44t48 -29.5t64.5 -23q53 -17 82.5 -31t44 -29t17.5 -33t3 -42q0 -23 -10.5 -43t-27 -37.5t-37 -33t-39.5 -28.5z" />
    <glyph glyph-name="eta" unicode="&#x3b7;" horiz-adv-x="616" 
d="M362 537q40 0 75 -12t60.5 -37t40 -63t14.5 -90v-575h-126v546q0 66 -24 93.5t-78 27.5t-88 -32t-34 -95v-326h-126v551h121v-59q24 37 64.5 54t100.5 17z" />
    <glyph glyph-name="theta" unicode="&#x3b8;" horiz-adv-x="578" 
d="M289 736q78 0 126.5 -31.5t75.5 -82t36.5 -114t9.5 -128.5v-60q0 -65 -9.5 -128.5t-36.5 -114t-75.5 -82t-126.5 -31.5t-126.5 31.5t-75.5 82t-36.5 114t-9.5 128.5v60q0 66 10 129.5t37 114t75.5 81.5t125.5 31zM410 410q0 34 -2 72t-13 70t-36 53.5t-70 21.5t-70 -21.5
t-36 -53.5t-13 -70t-2 -72h242zM168 302q0 -34 2 -74t13 -74.5t36 -57.5t70 -23t70 23t36 57.5t13 74.5t2 74h-242z" />
    <glyph glyph-name="iota" unicode="&#x3b9;" horiz-adv-x="299" 
d="M299 -20q-14 -5 -38.5 -9.5t-49.5 -4.5q-39 0 -65.5 9.5t-42 27t-22.5 41t-7 50.5v431h126v-391q0 -15 1 -25t5 -17t12.5 -10t24.5 -3q15 0 26.5 2.5t18.5 4.5z" />
    <glyph glyph-name="kappa" unicode="&#x3ba;" horiz-adv-x="574" 
d="M360 307l216 -333h-161l-143 241l-70 -71v-170h-126v551h126v-229l208 229h161z" />
    <glyph glyph-name="lambda" unicode="&#x3bb;" horiz-adv-x="535" 
d="M65 705q17 13 42.5 22t50.5 9q49 0 74.5 -16.5t42.5 -62.5l257 -683h-128l-139 396h-3l-127 -396h-134l196 562l-18 63q-11 35 -33 35q-11 0 -22.5 -4.5t-23.5 -11.5z" />
    <glyph glyph-name="uni03BC" unicode="&#x3bc;" horiz-adv-x="625" 
d="M549 525v-551h-121v68q-11 -38 -43 -57t-68 -19q-38 0 -71 18.5t-44 48.5v-273h-126v765h126v-331q0 -32 10.5 -55t26.5 -37.5t36 -21t40 -6.5t39.5 6.5t34.5 21t24.5 37.5t9.5 55v331h126z" />
    <glyph glyph-name="nu" unicode="&#x3bd;" horiz-adv-x="531" 
d="M184 -26l-180 551h138l125 -433h4l126 433h131l-180 -551h-164z" />
    <glyph glyph-name="xi" unicode="&#x3be;" horiz-adv-x="461" 
d="M171 216q0 -44 35.5 -69t112.5 -48q47 -14 76 -27t45.5 -28t22 -34t5.5 -46q0 -44 -31.5 -78t-76.5 -66l-79 83q24 14 42.5 26.5t18.5 27.5q0 13 -25.5 19.5t-60.5 16.5q-46 13 -85 29.5t-67.5 42t-44.5 61.5t-16 88v12q0 40 13.5 71t36 52.5t51.5 33.5t61 14
q-26 4 -50.5 16t-43.5 30t-30.5 43t-11.5 57v19q0 37 14 68.5t41.5 55t69 37t96.5 13.5q56 0 106.5 -12t82.5 -35l-56 -94q-25 17 -60.5 26.5t-71.5 9.5q-48 0 -72 -20t-24 -52v-12q0 -97 155 -97h41v-109h-44q-50 0 -84 -6.5t-54.5 -20.5t-29 -35.5t-8.5 -51.5v-11z" />
    <glyph glyph-name="omicron" unicode="&#x3bf;" horiz-adv-x="608" 
d="M304 76q28 0 52 8t41.5 25t27.5 45t10 67v61q0 79 -35.5 112t-95.5 33t-95.5 -33t-35.5 -112v-61q0 -39 10 -67t27.5 -45t41.5 -25t52 -8zM304 -34q-59 0 -106.5 17t-81 49t-52 79.5t-18.5 107.5v65q0 61 18.5 108t52 79t81 49t106.5 17q58 0 106 -17t81.5 -49t52 -79
t18.5 -108v-65q0 -60 -18.5 -107.5t-52 -79.5t-81.5 -49t-106 -17z" />
    <glyph glyph-name="pi" unicode="&#x3c0;" horiz-adv-x="582" 
d="M562 -19q-15 -6 -39.5 -10.5t-50.5 -4.5q-73 0 -104 34t-31 94v327h-89v-447h-127v447h-109v108h558v-108h-109v-287q0 -35 9.5 -45.5t34.5 -10.5q13 0 24 2.5t18 4.5z" />
    <glyph glyph-name="rho" unicode="&#x3c1;" horiz-adv-x="618" 
d="M329 539q118 0 181 -66t63 -187v-67q0 -121 -52.5 -187t-168.5 -66q-56 0 -92 20.5t-49 42.5v-269h-126v526q0 122 63 187.5t181 65.5zM329 76q57 0 87 38t30 117v43q0 79 -30 117t-87 38t-87 -38t-30 -117v-43q0 -79 30 -117t87 -38z" />
    <glyph glyph-name="sigma" unicode="&#x3c3;" horiz-adv-x="612" 
d="M592 423h-92q35 -23 49 -61.5t14 -86.5v-55q0 -59 -18 -106t-52 -80t-81.5 -50.5t-107.5 -17.5t-107.5 17.5t-81.5 50.5t-52 80t-18 106v55q0 120 67.5 187t202.5 67h277v-106zM304 76q57 0 94.5 38.5t37.5 116.5v33q0 78 -37.5 116.5t-94.5 38.5q-58 0 -95 -38.5
t-37 -116.5v-33q0 -78 37 -116.5t95 -38.5z" />
    <glyph glyph-name="tau" unicode="&#x3c4;" horiz-adv-x="566" 
d="M447 -11q-23 -11 -52 -17t-73 -6q-61 0 -88 32.5t-27 98.5v324h-191v108h534v-108h-217v-290q0 -29 6 -41.5t25 -12.5q16 0 29 3t30 10z" />
    <glyph glyph-name="upsilon" unicode="&#x3c5;" horiz-adv-x="581" 
d="M291 78q25 0 44.5 6t32.5 22t20 43.5t7 70.5v305h126v-323q0 -54 -11 -97.5t-37.5 -74t-70.5 -47.5t-111 -17t-111.5 17t-71 47.5t-37.5 74t-11 97.5v323h126v-305q0 -43 7.5 -70.5t21.5 -43.5t33.5 -22t42.5 -6z" />
    <glyph glyph-name="phi" unicode="&#x3c6;" horiz-adv-x="690" 
d="M281 -240v210q-113 17 -175 83t-62 177v45q0 61 20.5 110t59.5 83.5t94.5 52.5t126.5 18q70 0 126 -18.5t95 -52.5t59.5 -83t20.5 -110v-45q0 -111 -63 -178t-178 -82v-210h-124zM522 271q0 37 -9.5 62.5t-25 43t-37 27.5t-45.5 16v-338q25 4 46.5 14t37 28t24.5 45t9 65
v37zM168 234q0 -37 9 -62.5t24 -42.5t35.5 -27t44.5 -16v334q-24 -6 -44.5 -16.5t-36 -28t-24 -43t-8.5 -61.5v-37z" />
    <glyph glyph-name="chi" unicode="&#x3c7;" horiz-adv-x="575" 
d="M288 236l118 289h132l-174 -369l106 -258q8 -20 15.5 -26.5t18.5 -6.5q9 0 17 2.5t15 5.5l33 -90q-17 -14 -46 -23t-61 -9q-36 0 -59 14t-36 49l-97 262l-135 -316h-133l192 394l-99 235q-8 18 -15.5 28t-18.5 11q-9 1 -17 -2.5t-15 -7.5l-34 88q17 14 45 23.5t60 9.5
q36 0 60.5 -17t36.5 -48z" />
    <glyph glyph-name="psi" unicode="&#x3c8;" horiz-adv-x="726" 
d="M301 -240v211q-48 6 -91.5 22.5t-77 45.5t-53 71.5t-19.5 101.5v313h123v-297q0 -36 9.5 -61.5t25.5 -42t37.5 -26.5t45.5 -14v441h124v-441q24 4 45 14t37.5 26.5t26 42t9.5 61.5v297h123v-313q0 -59 -20 -101.5t-53.5 -71.5t-77 -45.5t-90.5 -22.5v-211h-124z" />
    <glyph glyph-name="omega" unicode="&#x3c9;" horiz-adv-x="772" 
d="M386 53q-13 -42 -51 -64.5t-83 -22.5q-42 0 -78.5 15t-62.5 46.5t-41 81.5t-15 121v15q0 36 7.5 77.5t20.5 82.5t30.5 78.5t36.5 65.5l113 -59q-32 -58 -55.5 -122.5t-23.5 -126.5v-15q0 -21 3.5 -46t12.5 -47.5t24 -37.5t38 -15q37 0 49.5 30.5t12.5 80.5v198h124v-199
q0 -50 12 -80t49 -30q23 0 38.5 15t25 37.5t13.5 47.5t4 46v15q0 62 -23.5 126.5t-56.5 122.5l112 59q19 -28 36.5 -65.5t30.5 -78.5t20.5 -82.5t7.5 -77.5v-15q0 -71 -15 -121t-41.5 -81.5t-63 -46.5t-78.5 -15q-45 0 -81.5 22.5t-49.5 64.5h-2z" />
    <glyph glyph-name="uni0401" unicode="&#x401;" horiz-adv-x="608" 
d="M167 854h110v-112h-110v112zM361 854h110v-112h-110v112zM545 695v-106h-337v-194h316v-104h-316v-211h344v-106h-471v721h464z" />
    <glyph glyph-name="uni0410" unicode="&#x410;" horiz-adv-x="688" 
d="M671 -26h-139l-70 198h-243l-71 -198h-131l268 721h115zM256 279h169l-49 147l-20 60t-16 50q-4 -15 -7.5 -27t-7.5 -24t-9 -26t-11 -33z" />
    <glyph glyph-name="uni0411" unicode="&#x411;" horiz-adv-x="651" 
d="M209 78h145q27 0 50.5 2.5t40 12t26 28t9.5 50.5v32q0 35 -9 56.5t-25.5 33t-38.5 15t-47 3.5h-151v-233zM549 591h-340v-177h151q130 0 190.5 -53t60.5 -156v-35q0 -44 -13 -80.5t-42.5 -62t-77 -39.5t-116.5 -14h-281v721h468v-104z" />
    <glyph glyph-name="uni0412" unicode="&#x412;" horiz-adv-x="661" 
d="M81 695h280q227 0 227 -176v-21q0 -24 -5.5 -46.5t-19 -42t-35.5 -34t-54 -22.5q66 -10 106.5 -49.5t40.5 -114.5v-25q0 -89 -56 -139.5t-173 -50.5h-311v721zM208 80h116q42 0 73.5 3.5t52 14t30.5 29.5t10 51v22q0 28 -9.5 46.5t-31.5 30t-57.5 16t-86.5 4.5h-97v-217z
M208 589v-188h94q37 0 66.5 2t49 11t30 27.5t10.5 52.5v18q0 46 -35.5 61.5t-116.5 15.5h-98z" />
    <glyph glyph-name="uni0413" unicode="&#x413;" horiz-adv-x="580" 
d="M81 -26v721h477v-105h-349v-616h-128z" />
    <glyph glyph-name="uni0414" unicode="&#x414;" horiz-adv-x="664" 
d="M590 695v-618h60v-273h-110v170h-422v-170h-108v273h60q37 66 57 125.5t29.5 118t11 118.5t1.5 126v130h421zM287 532q0 -65 -2 -121.5t-11 -110t-26.5 -108t-48.5 -115.5h281v515h-193v-60z" />
    <glyph glyph-name="uni0415" unicode="&#x415;" horiz-adv-x="608" 
d="M545 695v-106h-337v-194h316v-104h-316v-211h344v-106h-471v721h464z" />
    <glyph glyph-name="uni0416" unicode="&#x416;" horiz-adv-x="939" 
d="M406 300h-8q-8 0 -14.5 -1.5t-13.5 -7.5t-16 -18.5t-23 -33.5l-173 -265h-138l194 292q25 38 45.5 57.5t44.5 28.5q-14 7 -26 16t-22.5 22t-20.5 31t-21 43l-30 69q-17 38 -33 51t-36 13q-14 0 -25 -2t-22 -6l-23 96q11 6 32 11.5t49 5.5q52 0 89 -22.5t66 -84.5l48 -104
q13 -28 23.5 -45.5t19 -27t15.5 -13t13 -3.5h6v293h127v-293h6q6 0 13 3.5t15.5 13t19 27t23.5 45.5l48 104q28 62 65.5 84.5t89.5 22.5q28 0 49 -5.5t32 -11.5l-23 -96q-11 4 -22 6t-25 2q-20 0 -36 -13t-33 -51l-30 -69q-11 -25 -21 -43t-20.5 -31t-22.5 -22t-26 -16
q24 -9 44.5 -28.5t45.5 -57.5l194 -292h-138l-173 265q-14 21 -23 33.5t-16 18.5t-13.5 7.5t-14.5 1.5h-8v-326h-127v326z" />
    <glyph glyph-name="uni0417" unicode="&#x417;" horiz-adv-x="570" 
d="M40 586q16 24 39.5 45.5t54.5 38t69 26.5t83 10q121 0 183 -49t62 -130v-11q0 -57 -37 -100t-107 -61q37 -2 69 -15.5t54.5 -35.5t35.5 -51t13 -62v-16q0 -44 -17.5 -82.5t-52 -67.5t-86 -45.5t-118.5 -16.5q-73 0 -143.5 20.5t-121.5 61.5l59 93q53 -37 109.5 -54.5
t105.5 -17.5q58 0 94 28.5t36 88.5v16q0 29 -13 48.5t-35.5 31t-52 16.5t-62.5 5h-81v100h84q68 0 103 30.5t35 81.5v7q0 37 -30.5 60.5t-84.5 23.5q-47 0 -82.5 -18t-69.5 -66z" />
    <glyph glyph-name="uni0418" unicode="&#x418;" horiz-adv-x="721" 
d="M640 -26h-120v549q-7 -31 -19 -59t-26 -52l-247 -438h-147v721h120v-551q8 35 21.5 64.5t24.5 49.5l246 437h147v-721z" />
    <glyph glyph-name="uni0419" unicode="&#x419;" horiz-adv-x="721" 
d="M368 737q-62 0 -99.5 33.5t-42.5 93.5h86q6 -25 15.5 -40.5t40.5 -15.5q32 0 41.5 15.5t14.5 40.5h86q-2 -60 -40.5 -93.5t-101.5 -33.5zM640 -26h-120v549q-7 -31 -19 -59t-26 -52l-247 -438h-147v721h120v-551q8 35 21.5 64.5t24.5 49.5l246 437h147v-721z" />
    <glyph glyph-name="uni041A" unicode="&#x41a;" horiz-adv-x="650" 
d="M92 695h126v-293h11q12 0 23.5 5t22.5 17t23.5 33t27.5 54l32 69q16 36 34 59.5t38 37.5t43.5 19.5t50.5 5.5q26 0 46.5 -5t31.5 -10l-24 -98q-23 9 -46 9q-20 0 -37.5 -14t-35.5 -55l-22 -53q-12 -29 -23 -49.5t-22.5 -34.5t-23.5 -23.5t-26 -16.5q24 -9 44.5 -28.5
t45.5 -57.5l194 -292h-138l-163 250q-17 26 -29.5 41t-23 23t-21 10t-22.5 2h-11v-326h-126v721z" />
    <glyph glyph-name="uni041B" unicode="&#x41b;" horiz-adv-x="706" 
d="M625 695v-721h-128v616h-185v-215q0 -87 -12.5 -151.5t-44.5 -113t-86 -83t-138 -59.5l-38 113q63 25 100.5 48t58 57.5t26.5 87.5t6 137v284h441z" />
    <glyph glyph-name="uni041C" unicode="&#x41c;" horiz-adv-x="876" 
d="M234 474q-14 35 -34 109v-609h-119v721h182l177 -448l170 448h184v-721h-121v609q-8 -35 -15.5 -62t-15.5 -47l-151 -380h-108z" />
    <glyph glyph-name="uni041D" unicode="&#x41d;" horiz-adv-x="717" 
d="M508 297h-299v-323h-128v721h128v-292h299v292h128v-721h-128v323z" />
    <glyph glyph-name="uni041E" unicode="&#x41e;" horiz-adv-x="720" 
d="M360 706q61 0 116.5 -17.5t97.5 -55t66.5 -96.5t24.5 -143v-119q0 -85 -24.5 -144.5t-66 -96.5t-97 -54t-117.5 -17t-117.5 17t-97 54t-66 96.5t-24.5 144.5v119q0 84 24.5 143t66.5 96.5t97.5 55t116.5 17.5zM360 80q37 0 69 9.5t56 33.5t37.5 65t13.5 103v87
q0 62 -13.5 103t-37.5 65t-56 33.5t-69 9.5q-36 0 -68 -9.5t-56 -33.5t-38 -65t-14 -103v-87q0 -62 14 -103t38 -65t56 -33.5t68 -9.5z" />
    <glyph glyph-name="uni041F" unicode="&#x41f;" horiz-adv-x="693" 
d="M612 -26h-128v616h-275v-616h-128v721h531v-721z" />
    <glyph glyph-name="uni0420" unicode="&#x420;" horiz-adv-x="636" 
d="M81 695h272q65 0 111.5 -15.5t76.5 -43t44.5 -65.5t14.5 -82v-21q0 -44 -15 -83.5t-46 -69t-77 -47t-109 -17.5h-144v-277h-128v721zM209 588v-229h127q63 0 99 24t36 87v18q0 30 -9 49t-25.5 30.5t-39.5 16t-50 4.5h-138z" />
    <glyph glyph-name="uni0421" unicode="&#x421;" horiz-adv-x="658" 
d="M356 706q77 0 135 -20t113 -65l-69 -98q-45 38 -87.5 52.5t-91.5 14.5q-32 0 -63 -10t-55 -35t-39 -68.5t-15 -110.5v-74q0 -57 14 -97.5t39 -65.5t58.5 -36.5t71.5 -11.5q54 0 99 17t88 55l67 -94q-32 -32 -67.5 -50.5t-70.5 -29t-69 -13.5t-64 -3q-59 0 -112.5 17
t-94 54t-64.5 94t-24 138v129q0 81 23.5 139.5t64.5 97t95.5 56.5t117.5 18z" />
    <glyph glyph-name="uni0422" unicode="&#x422;" horiz-adv-x="571" 
d="M561 695v-108h-211v-613h-128v613h-212v108h551z" />
    <glyph glyph-name="uni0423" unicode="&#x423;" horiz-adv-x="572" 
d="M147 695l151 -376l131 376h138l-281 -732l-126 43l65 165l-220 524h142z" />
    <glyph glyph-name="uni0424" unicode="&#x424;" horiz-adv-x="762" 
d="M50 376q0 52 19.5 95.5t54.5 75.5t85 52.5t112 26.5v92h119v-92q62 -7 112 -27t85.5 -52t55 -75.5t19.5 -95.5v-53q0 -53 -19.5 -96.5t-55 -75t-85.5 -51.5t-112 -27v-99h-119v99q-62 7 -112 27t-85 52t-54.5 75t-19.5 96v53zM589 370q0 27 -7 50.5t-24.5 41.5t-46 30
t-71.5 18v-323q43 6 71.5 18.5t46 31.5t24.5 42t7 50v41zM172 329q0 -27 7 -50t24.5 -42t46 -31.5t71.5 -18.5v323q-43 -6 -71.5 -18t-46 -30t-24.5 -41.5t-7 -50.5v-41z" />
    <glyph glyph-name="uni0425" unicode="&#x425;" horiz-adv-x="669" 
d="M419 344l224 -370h-148l-165 291l-160 -291h-144l223 377l-205 344h154l144 -266l149 266h143z" />
    <glyph glyph-name="uni0426" unicode="&#x426;" horiz-adv-x="676" 
d="M209 695v-616h265v616h128v-616h60v-275h-128v170h-453v721h128z" />
    <glyph glyph-name="uni0427" unicode="&#x427;" horiz-adv-x="645" 
d="M198 695v-245q0 -37 6.5 -62t20 -40t34.5 -21.5t49 -6.5q43 0 71 10t57 29v336h128v-721h-128v276q-27 -16 -60 -25.5t-76 -9.5q-49 0 -91 12.5t-73 38t-48.5 64.5t-17.5 92v273h128z" />
    <glyph glyph-name="uni0428" unicode="&#x428;" horiz-adv-x="970" 
d="M208 695v-616h213v616h127v-616h213v616h128v-721h-808v721h127z" />
    <glyph glyph-name="uni0429" unicode="&#x429;" horiz-adv-x="963" 
d="M81 695h127v-617h213v617h127v-617h213v617h128v-616h60v-275h-128v170h-740v721z" />
    <glyph glyph-name="uni042A" unicode="&#x42a;" horiz-adv-x="716" 
d="M278 79h136q70 0 102.5 22t32.5 81v33q0 32 -8 52t-24.5 31.5t-42.5 15.5t-61 4h-135v-239zM278 421h151q130 0 190.5 -54.5t60.5 -157.5v-36q0 -44 -13 -81t-42.5 -63t-77 -40.5t-116.5 -14.5h-281v617h-135v104h263v-274z" />
    <glyph glyph-name="uni042B" unicode="&#x42b;" horiz-adv-x="869" 
d="M788 695v-721h-128v721h128zM209 79h136q70 0 102.5 22t32.5 81v33q0 32 -8.5 52t-26 31.5t-43 15.5t-58.5 4h-135v-239zM209 695v-274h151q130 0 190.5 -54.5t60.5 -157.5v-36q0 -44 -13 -81t-42.5 -63t-77 -40.5t-116.5 -14.5h-281v721h128z" />
    <glyph glyph-name="uni042C" unicode="&#x42c;" horiz-adv-x="647" 
d="M209 79h136q70 0 102.5 22t32.5 81v33q0 32 -8.5 52t-26 31.5t-43 15.5t-58.5 4h-135v-239zM209 695v-274h151q130 0 190.5 -54.5t60.5 -157.5v-36q0 -44 -13 -81t-42.5 -63t-77 -40.5t-116.5 -14.5h-281v721h128z" />
    <glyph glyph-name="uni042D" unicode="&#x42d;" horiz-adv-x="658" 
d="M155 391h321q0 98 -39.5 149.5t-131.5 51.5q-54 0 -97.5 -16.5t-87.5 -55.5l-66 101q56 45 113.5 65t134.5 20q63 0 117.5 -18.5t95.5 -57t64.5 -99t23.5 -144.5v-100q0 -88 -24.5 -149.5t-66.5 -100.5t-98.5 -56.5t-120.5 -17.5q-39 0 -73 5t-64.5 17t-59.5 30.5
t-58 45.5l67 94q47 -46 91.5 -62t98.5 -16q47 0 81 15.5t56 43.5t32.5 66.5t11.5 84.5h-321v104z" />
    <glyph glyph-name="uni042E" unicode="&#x42e;" horiz-adv-x="931" 
d="M584 706q61 0 114.5 -17.5t93 -55t62 -96.5t22.5 -143v-119q0 -85 -22.5 -144.5t-61.5 -96.5t-92.5 -54t-115.5 -17t-115.5 17t-92.5 54t-61.5 96.5t-22.5 144.5v5h-85v-306h-126v721h126v-310h85v9q0 84 22.5 143t62 96.5t93 55t114.5 17.5zM584 80q37 0 67 9.5
t51.5 33.5t33 65t11.5 103v87q0 62 -11.5 103t-33 65t-51.5 33.5t-67 9.5q-36 0 -66 -9.5t-51.5 -33.5t-33.5 -65t-12 -103v-87q0 -62 12 -103t33.5 -65t51.5 -33.5t66 -9.5z" />
    <glyph glyph-name="uni042F" unicode="&#x42f;" horiz-adv-x="686" 
d="M605 -26h-128v292h-104q-20 0 -32.5 -8.5t-23.5 -29.5l-125 -254h-133l139 276q11 23 22.5 34.5t23.5 18.5q-42 11 -70 30t-44.5 42t-23.5 47.5t-7 47.5v31q0 43 15.5 79t45 61.5t73 39.5t99.5 14h273v-721zM350 588q-66 0 -95 -24.5t-29 -66.5v-30q0 -21 7 -38.5
t22.5 -30.5t41 -20.5t62.5 -7.5h118v218h-127z" />
    <glyph glyph-name="uni0430" unicode="&#x430;" horiz-adv-x="583" 
d="M234 -34q-89 0 -138 40.5t-49 113.5v32q0 71 49 114t159 43h126v21q0 51 -23.5 73.5t-74.5 22.5q-86 0 -156 -55l-62 92q42 29 95 51.5t124 22.5q48 0 89 -12t70.5 -34.5t46 -55t16.5 -74.5v-387h-113l-2 68q-8 -18 -25.5 -32.5t-39.5 -24t-46 -14.5t-46 -5zM381 211
h-123q-48 0 -68.5 -19t-20.5 -51v-12q0 -27 19.5 -42t58.5 -15q37 0 64.5 10t42.5 27q14 16 20.5 36.5t6.5 54.5v11z" />
    <glyph glyph-name="uni0431" unicode="&#x431;" horiz-adv-x="629" 
d="M328 500q51 0 92 -17t70.5 -47.5t45 -74t15.5 -96.5v-59q0 -55 -18.5 -99t-52 -75.5t-80 -48.5t-102.5 -17t-102.5 17t-80 49t-52 78t-18.5 103v55q0 120 27 204.5t82 140.5t138.5 86.5t196.5 41.5l16 -111q-57 -6 -106.5 -16.5t-90 -30t-71 -49.5t-49.5 -75
q20 17 54.5 29t85.5 12zM298 76q57 0 91.5 36.5t34.5 100.5v40q0 64 -34.5 100.5t-91.5 36.5t-91.5 -36.5t-34.5 -100.5v-40q0 -64 34.5 -100.5t91.5 -36.5z" />
    <glyph glyph-name="uni0432" unicode="&#x432;" horiz-adv-x="565" 
d="M76 513h221q108 0 155.5 -35t47.5 -102v-7q0 -38 -20.5 -68.5t-69.5 -42.5q53 -8 84 -36.5t31 -72.5v-20q0 -35 -11.5 -63.5t-36 -48.5t-64.5 -31.5t-97 -11.5h-240v539zM203 76h82q52 0 81.5 11.5t29.5 48.5v14q0 16 -4.5 27t-17.5 17.5t-37 9t-62 2.5h-72v-130z
M203 411v-107h72q57 0 77 10t20 36v12q0 26 -20.5 37.5t-76.5 11.5h-72z" />
    <glyph glyph-name="uni0433" unicode="&#x433;" horiz-adv-x="430" 
d="M425 513v-107h-223v-432h-126v539h349z" />
    <glyph glyph-name="uni0434" unicode="&#x434;" horiz-adv-x="596" 
d="M523 513v-435h48v-241h-126v137h-299v-137h-126v241h43q26 34 42.5 67.5t26 70.5t13 80t3.5 96v121h375zM274 350q0 -43 -3 -78t-11 -66.5t-22 -62.5t-36 -65h195v331h-123v-59z" />
    <glyph glyph-name="uni0435" unicode="&#x435;" horiz-adv-x="567" 
d="M416 299v24q0 22 -6.5 42t-21.5 35t-38 24t-56 9q-63 0 -94.5 -33t-31.5 -80v-21h248zM523 25q-40 -27 -92.5 -44t-121.5 -17q-52 0 -100 13t-84.5 43t-58 79.5t-21.5 123.5v57q0 67 19.5 115.5t53.5 80t79.5 46.5t98.5 15q52 0 96.5 -15t76.5 -45.5t50 -76t18 -105.5
v-91h-369q0 -133 140 -133q91 0 164 44z" />
    <glyph glyph-name="uni0436" unicode="&#x436;" horiz-adv-x="772" 
d="M323 -26v228h-3q-9 0 -17.5 -8t-27.5 -39l-115 -181h-144l145 218q10 16 19 26.5t17 18t17.5 12t21.5 7.5q-14 2 -27 14t-27 44l-26 57q-10 20 -21 27t-26 7t-28 -3t-24 -8l-27 108q14 8 35.5 13t49.5 5q27 0 48 -4.5t38 -16t31 -31t28 -48.5l22 -45q21 -42 28 -55.5
t12 -13.5h1v207h126v-207h1q5 0 12 13.5t28 55.5l22 45q14 29 28 48.5t31 31t38 16t48 4.5q28 0 49.5 -5t35.5 -13l-27 -108q-11 5 -24 8t-28 3t-26 -7t-21 -27l-26 -57q-14 -32 -27 -44t-27 -14q12 -3 21.5 -7.5t17.5 -12t16.5 -18t19.5 -26.5l145 -218h-144l-115 181
q-10 15 -16.5 24.5t-11.5 14.5t-9 6.5t-8 1.5h-3v-228h-126z" />
    <glyph glyph-name="uni0437" unicode="&#x437;" horiz-adv-x="465" 
d="M19 437q34 39 82 62.5t109 23.5q49 0 86.5 -11t63 -30t38 -44.5t12.5 -53.5v-8q0 -43 -22 -73.5t-67 -42.5q53 -7 82 -41t29 -84v-11q0 -34 -14.5 -63t-42 -50t-68 -33t-91.5 -12q-26 0 -55.5 3.5t-58 11t-54 19t-44.5 26.5l53 93q38 -25 76.5 -36t82.5 -11
q42 0 65.5 14.5t23.5 46.5v10q0 38 -23 49t-77 11h-73v106h75q46 0 61.5 12.5t15.5 37.5v7q0 52 -71 52q-35 0 -64.5 -15t-56.5 -51z" />
    <glyph glyph-name="uni0438" unicode="&#x438;" horiz-adv-x="619" 
d="M543 -26h-121v343q-6 -17 -18 -38.5t-28 -44.5l-198 -260h-102v539h121v-338q11 25 22 42t27 38l196 258h101v-539z" />
    <glyph glyph-name="uni0439" unicode="&#x439;" horiz-adv-x="619" 
d="M543 -26h-121v344q-6 -17 -18 -39t-28 -43l-198 -262h-102v539h121v-340q11 24 21.5 41t27.5 38l196 261h101v-539zM310 577q-62 0 -99.5 33.5t-42.5 93.5h86q6 -25 15.5 -40.5t40.5 -15.5q32 0 41.5 15.5t14.5 40.5h86q-2 -60 -40.5 -93.5t-101.5 -33.5z" />
    <glyph glyph-name="uni043A" unicode="&#x43a;" horiz-adv-x="540" 
d="M78 511h126v-205h5q10 0 18.5 14t23.5 47l25 56q26 57 61.5 76t83.5 19q29 0 50.5 -6t35.5 -13l-25 -105q-8 4 -22.5 7t-29.5 3q-17 0 -26.5 -6t-17.5 -22l-29 -61q-11 -24 -23 -38.5t-31 -20.5q24 -7 40 -21.5t35 -42.5l145 -218h-147l-121 191q-15 23 -23 30t-21 7h-7
v-228h-126v537z" />
    <glyph glyph-name="uni043B" unicode="&#x43b;" horiz-adv-x="605" 
d="M529 513v-539h-126v433h-150v-133q0 -54 -9 -104t-33 -91.5t-66 -70.5t-108 -40l-27 113q34 15 57 29t36 36t18.5 55t5.5 84v228h402z" />
    <glyph glyph-name="uni043C" unicode="&#x43c;" horiz-adv-x="715" 
d="M221 273q-8 20 -13 40t-12 44v-383h-120v539h159l124 -324l123 324h157v-539h-128v383q-5 -20 -11 -40t-14 -40l-84 -224h-95z" />
    <glyph glyph-name="uni043D" unicode="&#x43d;" horiz-adv-x="624" 
d="M202 513v-207h220v207h126v-539h-126v224h-220v-224h-126v539h126z" />
    <glyph glyph-name="uni043E" unicode="&#x43e;" horiz-adv-x="608" 
d="M304 76q28 0 52 8t41.5 25t27.5 45t10 67v61q0 79 -35.5 112t-95.5 33t-95.5 -33t-35.5 -112v-61q0 -39 10 -67t27.5 -45t41.5 -25t52 -8zM304 -34q-59 0 -106.5 17t-81 49t-52 79.5t-18.5 107.5v65q0 61 18.5 108t52 79t81 49t106.5 17q58 0 106 -17t81.5 -49t52 -79
t18.5 -108v-65q0 -60 -18.5 -107.5t-52 -79.5t-81.5 -49t-106 -17z" />
    <glyph glyph-name="uni043F" unicode="&#x43f;" horiz-adv-x="601" 
d="M525 513v-539h-126v431h-197v-431h-126v539h449z" />
    <glyph glyph-name="uni0440" unicode="&#x440;" horiz-adv-x="621" 
d="M354 -34q-57 0 -93 16.5t-59 46.5v-269h-126v769h121v-60q24 39 63 54.5t95 15.5q55 0 95.5 -17t66 -47.5t38 -74t12.5 -96.5v-99q0 -58 -15.5 -102.5t-43 -75t-67 -46t-87.5 -15.5zM443 282q0 70 -29.5 109.5t-82.5 39.5q-63 0 -97 -35.5t-34 -92.5v-118q0 -19 10 -38.5
t27 -35t41 -25.5t53 -10q55 0 83.5 39t28.5 108v59z" />
    <glyph glyph-name="uni0441" unicode="&#x441;" horiz-adv-x="524" 
d="M294 537q39 0 69 -5.5t54 -14.5t43 -21t35 -24l-61 -92q-34 27 -67.5 37t-72.5 10q-24 0 -46 -7.5t-39 -24t-27 -43t-10 -64.5v-67q0 -42 10 -70t27 -44.5t39.5 -23t47.5 -6.5q52 0 86.5 12.5t63.5 34.5l60 -92q-28 -26 -82 -46t-129 -20q-122 0 -186 67.5t-64 185.5v69
q0 118 66.5 183.5t182.5 65.5z" />
    <glyph glyph-name="uni0442" unicode="&#x442;" horiz-adv-x="475" 
d="M457 513v-108h-160v-431h-126v431h-153v108h439z" />
    <glyph glyph-name="uni0443" unicode="&#x443;" horiz-adv-x="535" 
d="M143 529l123 -411h8l124 411h134l-288 -784l-118 41l73 181l-196 562h140z" />
    <glyph glyph-name="uni0444" unicode="&#x444;" horiz-adv-x="699" 
d="M414 695v-177q115 -14 176.5 -79t61.5 -168v-53q0 -103 -61.5 -168t-176.5 -79v-198h-122v198q-115 14 -176.5 79t-61.5 168v53q0 104 61.5 168.5t176.5 78.5v177h122zM525 267q0 37 -10 62t-25.5 42t-35.5 26.5t-40 14.5v-340q20 6 40 16t35.5 27.5t25.5 43t10 63.5v45z
M181 222q0 -37 10 -63t25.5 -43.5t35.5 -27.5t40 -16v340q-20 -5 -39.5 -14.5t-35.5 -26.5t-26 -42t-10 -62v-45z" />
    <glyph glyph-name="uni0445" unicode="&#x445;" horiz-adv-x="541" 
d="M353 263l170 -289h-155l-101 203l-102 -203h-147l174 289l-167 266h158l94 -184l99 184h142z" />
    <glyph glyph-name="uni0446" unicode="&#x446;" horiz-adv-x="585" 
d="M512 513v-433h48v-243h-126v137h-358v539h126v-433h184v433h126z" />
    <glyph glyph-name="uni0447" unicode="&#x447;" horiz-adv-x="557" 
d="M166 513v-165q0 -57 20.5 -75.5t68.5 -18.5q27 0 50.5 9t47.5 26v224h126v-547h-126v214q-17 -13 -46 -23t-73 -10q-33 0 -67.5 9t-62.5 28t-46 49.5t-18 73.5v206h126z" />
    <glyph glyph-name="uni0448" unicode="&#x448;" horiz-adv-x="824" 
d="M76 -26v539h126v-435h147v435h126v-435h147v435h126v-539h-672z" />
    <glyph glyph-name="uni0449" unicode="&#x449;" horiz-adv-x="821" 
d="M748 78h48v-241h-126v137h-594v539h126v-435h147v435h126v-435h147v435h126v-435z" />
    <glyph glyph-name="uni044A" unicode="&#x44a;" horiz-adv-x="575" 
d="M15 513h226v-174h116q90 0 143 -44t53 -129v-19q0 -37 -12 -68.5t-36.5 -55t-61 -36.5t-85.5 -13h-243v432h-100v107zM241 78h65q64 0 91.5 14t27.5 58v12q0 24 -6.5 38t-20 22t-35.5 10.5t-53 2.5h-69v-157z" />
    <glyph glyph-name="uni044B" unicode="&#x44b;" horiz-adv-x="775" 
d="M202 513v-174h116q99 0 147.5 -45t48.5 -130v-15q0 -37 -10.5 -69t-33.5 -55.5t-60 -37t-91 -13.5h-243v539h126zM699 513v-539h-126v539h126zM202 78h65q64 0 91.5 14t27.5 58v12q0 24 -6.5 38t-20 22t-35.5 10.5t-53 2.5h-69v-157z" />
    <glyph glyph-name="uni044C" unicode="&#x44c;" horiz-adv-x="536" 
d="M202 78h65q27 0 49 2t37.5 9.5t24 22t8.5 38.5v12q0 26 -8.5 41t-23.5 22t-36 8.5t-47 1.5h-69v-157zM202 513v-174h116q99 0 147.5 -45t48.5 -130v-15q0 -37 -10.5 -69t-33.5 -55.5t-60 -37t-91 -13.5h-243v539h126z" />
    <glyph glyph-name="uni044D" unicode="&#x44d;" horiz-adv-x="524" 
d="M135 300h217q0 59 -28.5 96t-93.5 37q-33 0 -69 -11.5t-71 -40.5l-60 90q37 30 84 49t116 19q116 0 182.5 -65.5t66.5 -183.5v-71q0 -128 -64 -190.5t-186 -62.5q-78 0 -131.5 19.5t-81.5 45.5l62 92q37 -27 71 -38.5t72 -11.5q36 0 60.5 8.5t39.5 24.5t22 39t9 51h-217
v104z" />
    <glyph glyph-name="uni044E" unicode="&#x44e;" horiz-adv-x="788" 
d="M498 539q113 0 174 -64.5t61 -188.5v-67q0 -124 -61 -188.5t-174 -64.5q-50 0 -92.5 13.5t-74 41t-49.5 69.5t-18 100h-60v-216h-124v539h124v-211h60q0 114 58 175.5t176 61.5zM498 76q55 0 81.5 37t26.5 118v43q0 81 -26.5 118t-81.5 37t-81.5 -37t-26.5 -118v-43
q0 -81 26.5 -118t81.5 -37z" />
    <glyph glyph-name="uni044F" unicode="&#x44f;" horiz-adv-x="551" 
d="M475 -26h-126v200h-45q-34 0 -49 -8.5t-26 -31.5l-76 -160h-145l87 175q14 29 28.5 44t37.5 23q-25 3 -47 13.5t-38.5 28t-26 41t-9.5 52.5v11q0 32 9.5 59.5t31.5 48t58 32t90 11.5h246v-539zM233 409q-35 0 -50 -14t-15 -46v-7q0 -32 26.5 -46t77.5 -14h77v127h-116z
" />
    <glyph glyph-name="uni0451" unicode="&#x451;" horiz-adv-x="567" 
d="M325 693h110v-112h-110v112zM131 693h110v-112h-110v112zM416 299v24q0 22 -6.5 42t-21.5 35t-38 24t-56 9q-63 0 -94.5 -33t-31.5 -80v-21h248zM523 25q-40 -27 -92.5 -44t-121.5 -17q-52 0 -100 13t-84.5 43t-58 79.5t-21.5 123.5v57q0 67 19.5 115.5t53.5 80
t79.5 46.5t98.5 15q52 0 96.5 -15t76.5 -45.5t50 -76t18 -105.5v-91h-369q0 -133 140 -133q91 0 164 44z" />
    <glyph glyph-name="uni2010" unicode="&#x2010;" horiz-adv-x="420" 
d="M394 234h-368v113h368v-113z" />
    <glyph glyph-name="emdash" unicode="&#x2014;" horiz-adv-x="876" 
d="M876 275h-876v82h876v-82z" />
    <glyph glyph-name="emdash" unicode="&#x2015;" horiz-adv-x="876" 
d="M876 275h-876v82h876v-82z" />
    <glyph glyph-name="uni2016" unicode="&#x2016;" 
d="M571 -180h-57v960h57v-960zM395 -180h-56v960h56v-960z" />
    <glyph glyph-name="quoteleft" unicode="&#x2018;" horiz-adv-x="200" 
d="M148 544h-136l80 231h96z" />
    <glyph glyph-name="quoteright" unicode="&#x2019;" horiz-adv-x="200" 
d="M52 759h136l-80 -231h-96z" />
    <glyph glyph-name="quotereversed" unicode="&#x201b;" horiz-adv-x="30" 
 />
    <glyph glyph-name="quotedblleft" unicode="&#x201c;" horiz-adv-x="350" 
d="M144 544h-122l80 231h84zM294 544h-122l80 231h84z" />
    <glyph glyph-name="quotedblright" unicode="&#x201d;" horiz-adv-x="350" 
d="M206 759h122l-80 -231h-84zM56 759h122l-80 -231h-84z" />
    <glyph glyph-name="uni201F" unicode="&#x201f;" horiz-adv-x="30" 
 />
    <glyph glyph-name="dagger" unicode="&#x2020;" horiz-adv-x="492" 
d="M195 395h-168v100h168v200h103v-200h167v-100h-167v-486h-103v486z" />
    <glyph glyph-name="daggerdbl" unicode="&#x2021;" horiz-adv-x="492" 
d="M27 208h168v188h-168v99h168v200h103v-200h167v-99h-167v-188h167v-99h-167v-200h-103v200h-168v99z" />
    <glyph glyph-name="bullet" unicode="&#x2022;" horiz-adv-x="970" 
 />
    <glyph glyph-name="twodotenleader" unicode="&#x2025;" 
d="M248 366h129v-128h-129v128zM532 366h129v-128h-129v128z" />
    <glyph glyph-name="ellipsis" unicode="&#x2026;" 
d="M390 366h129v-128h-129v128zM120 366h129v-128h-129v128zM660 366h129v-128h-129v128z" />
    <glyph glyph-name="ellipsis" unicode="&#x22ef;" 
d="M390 366h129v-128h-129v128zM120 366h129v-128h-129v128zM660 366h129v-128h-129v128z" />
    <glyph glyph-name="perthousand" unicode="&#x2030;" horiz-adv-x="1303" 
d="M185 -25l431 720h115l-430 -720h-116zM229 709q79 0 125 -46.5t46 -125.5v-39q0 -79 -46 -125.5t-125 -46.5t-125 46.5t-46 125.5v39q0 79 46 125.5t125 46.5zM229 411q42 0 57.5 24t15.5 65v35q0 40 -15.5 64.5t-57.5 24.5t-57.5 -24.5t-15.5 -64.5v-35q0 -41 15.5 -65
t57.5 -24zM688 349q79 0 125 -46.5t46 -125.5v-39q0 -79 -46 -125.5t-125 -46.5t-125 46.5t-46 125.5v39q0 79 46 125.5t125 46.5zM688 51q42 0 57.5 24t15.5 65v35q0 40 -15.5 64.5t-57.5 24.5t-57.5 -24.5t-15.5 -64.5v-35q0 -41 15.5 -65t57.5 -24zM1074 349
q79 0 125 -46.5t46 -125.5v-39q0 -79 -46 -125.5t-125 -46.5t-125 46.5t-46 125.5v39q0 79 46 125.5t125 46.5zM1074 51q42 0 57.5 24t15.5 65v35q0 40 -15.5 64.5t-57.5 24.5t-57.5 -24.5t-15.5 -64.5v-35q0 -41 15.5 -65t57.5 -24z" />
    <glyph glyph-name="minute" unicode="&#x2032;" horiz-adv-x="399" 
d="M299 740l-137 -268h-62l69 268h130z" />
    <glyph glyph-name="second" unicode="&#x2033;" horiz-adv-x="600" 
d="M300 740l-137 -268h-63l69 268h131zM500 740l-137 -268h-63l69 268h131z" />
    <glyph glyph-name="uni2034" unicode="&#x2034;" horiz-adv-x="268" 
 />
    <glyph glyph-name="uni2035" unicode="&#x2035;" horiz-adv-x="970" 
 />
    <glyph glyph-name="uni2036" unicode="&#x2036;" horiz-adv-x="970" 
 />
    <glyph glyph-name="guilsinglleft" unicode="&#x2039;" horiz-adv-x="970" 
 />
    <glyph glyph-name="guilsinglright" unicode="&#x203a;" horiz-adv-x="970" 
 />
    <glyph glyph-name="uni203B" unicode="&#x203b;" horiz-adv-x="920" 
d="M527 298l325 -320q-18 -18 -36.5 -35.5t-36.5 -36.5q-81 81 -159.5 162.5t-159.5 162.5l-317 -325q-19 19 -37.5 36.5t-37.5 35.5l325 320l-323 321l68 75l320 -328l323 328q18 -18 35 -37l34 -38zM556 595q0 -19 -8 -36t-21 -30.5t-31 -21.5t-37 -8q-20 0 -37 8
t-30.5 21.5t-21 30.5t-7.5 36t7.5 36.5t20 31t30 21t37.5 7.5q19 0 37 -7.5t31.5 -21t21.5 -31t8 -36.5zM261 297q0 -19 -8 -36t-21.5 -30.5t-31 -21.5t-36.5 -8t-36.5 8t-31 21.5t-21.5 30.5t-8 36t8 36.5t21.5 31t30.5 21t36 7.5t36.5 -7.5t31 -21t22 -31t8.5 -36.5z
M868 297q0 -19 -7 -36t-20 -30t-30 -20.5t-37 -7.5q-19 0 -36.5 7.5t-31 20.5t-21.5 30t-8 36q0 21 8 38.5t21 30t30.5 20t36.5 7.5q40 0 67.5 -27t27.5 -69zM555 -8q0 -19 -7.5 -36.5t-20.5 -30.5t-30.5 -20.5t-37.5 -7.5t-37 7.5t-29.5 20.5t-20 30.5t-7.5 36.5
q0 39 26.5 66.5t66.5 27.5q19 0 37 -7.5t31 -20t21 -30t8 -36.5z" />
    <glyph glyph-name="exclamdbl" unicode="&#x203c;" horiz-adv-x="970" 
 />
    <glyph glyph-name="uni203E" unicode="&#x203e;" 
d="M905 723h-900v39h900v-39z" />
    <glyph glyph-name="uni203E" unicode="&#xffe3;" 
d="M905 723h-900v39h900v-39z" />
    <glyph glyph-name="uni2042" unicode="&#x2042;" horiz-adv-x="970" 
 />
    <glyph glyph-name="uni2074" unicode="&#x2074;" horiz-adv-x="400" 
d="M241 625h104v-169h54v-89h-54v-83h-107v83h-227v72l189 303h114zM238 456v164l-102 -164h102z" />
    <glyph glyph-name="uni207A" unicode="&#x207a;" horiz-adv-x="30" 
 />
    <glyph glyph-name="uni207B" unicode="&#x207b;" horiz-adv-x="30" 
 />
    <glyph glyph-name="uni207C" unicode="&#x207c;" horiz-adv-x="30" 
 />
    <glyph glyph-name="uni207D" unicode="&#x207d;" horiz-adv-x="30" 
 />
    <glyph glyph-name="uni207E" unicode="&#x207e;" horiz-adv-x="30" 
 />
    <glyph glyph-name="uni207F" unicode="&#x207f;" horiz-adv-x="483" 
d="M432 284h-109v258q0 49 -17.5 70t-55.5 21q-18 0 -34 -4.5t-28 -15.5t-19.5 -30t-7.5 -48v-251h-110v440h102v-48q23 30 51 42t79 12q29 0 56 -9.5t47.5 -30t33 -51t12.5 -72.5v-283z" />
    <glyph glyph-name="uni2081" unicode="&#x2081;" horiz-adv-x="400" 
d="M179 -112v334l-100 -60l-55 92l172 92h96v-458h-113z" />
    <glyph glyph-name="uni2082" unicode="&#x2082;" horiz-adv-x="400" 
d="M181 114q21 22 33 37t18.5 26t8 19.5t1.5 17.5v2q0 17 -12.5 28t-39.5 11q-26 0 -44.5 -13t-34.5 -37l-85 56q11 17 26 34t35.5 30.5t47 21.5t59.5 8q39 0 69 -10t50 -28t30.5 -42.5t10.5 -52.5v-5q0 -20 -8 -40.5t-20.5 -40.5t-29 -39t-32.5 -36l-79 -80h187v-93h-340
v69z" />
    <glyph glyph-name="uni2083" unicode="&#x2083;" horiz-adv-x="400" 
d="M34 279q23 35 62.5 54.5t90.5 19.5q74 0 117 -31.5t43 -88.5v-9q0 -38 -16.5 -61.5t-42.5 -35.5q41 -7 62 -34t21 -60v-15q0 -29 -10 -54.5t-31.5 -44.5t-55.5 -30t-82 -11q-53 0 -95 15.5t-73 40.5l52 83q29 -23 57.5 -33.5t54.5 -10.5q38 0 53.5 15t15.5 34v8
q0 9 -3 17.5t-12 15.5t-24.5 11t-39.5 4h-58v91h58q34 0 46 12.5t12 33.5v5q0 19 -12.5 30t-42.5 11q-18 0 -39 -10t-35 -29z" />
    <glyph glyph-name="uni2084" unicode="&#x2084;" horiz-adv-x="400" 
d="M241 231h104v-169h54v-89h-54v-83h-107v83h-227v72l189 303h114zM238 62v164l-102 -164h102z" />
    <glyph glyph-name="uni20A9" unicode="&#x20a9;" horiz-adv-x="962" 
d="M32 398h106l-74 297h127l64 -297h105l78 297h111l70 -297h96l60 297h125l-73 -297h103v-71h-120l-84 -353h-110l-81 353h-96l-89 -353h-106l-88 353h-124v71zM301 169l42 158h-74zM672 163l29 164h-67zM457 398h62l-28 132z" />
    <glyph glyph-name="uni2103" unicode="&#x2103;" horiz-adv-x="866" 
d="M249 628q0 -20 -7.5 -37t-21 -30.5t-32 -21t-40.5 -7.5t-40.5 7.5t-32 21t-21 30.5t-7.5 37q0 19 7.5 36.5t21 31t32 21t40.5 7.5t40.5 -7.5t32 -21t21 -31t7.5 -36.5zM188 628q0 16 -11 27.5t-29 11.5t-29 -11.5t-11 -27.5t11 -27.5t29 -11.5t29 11.5t11 27.5zM548 706
q76 0 134.5 -18t113.5 -62l-69 -98q-44 37 -87 48.5t-92 11.5q-32 0 -63 -9.5t-55 -34.5t-39 -68t-15 -110v-74q0 -57 14 -97t37.5 -65t54.5 -36.5t65 -11.5q50 0 102.5 15.5t95.5 59.5l68 -98q-32 -32 -67.5 -50.5t-70.5 -29t-69 -13.5t-64 -3q-59 0 -112.5 17t-94 54
t-64.5 94t-24 138v129q0 81 23.5 139.5t64.5 97t95.5 56.5t117.5 18z" />
    <glyph glyph-name="uni2109" unicode="&#x2109;" horiz-adv-x="770" 
d="M285 -26v721h464v-108h-336v-206h315v-108h-315v-299h-128zM249 628q0 -20 -7.5 -37t-21 -30.5t-32 -21t-40.5 -7.5t-40.5 7.5t-32 21t-21 30.5t-7.5 37q0 19 7.5 36.5t21 31t32 21t40.5 7.5t40.5 -7.5t32 -21t21 -31t7.5 -36.5zM188 628q0 16 -11 27.5t-29 11.5
t-29 -11.5t-11 -27.5t11 -27.5t29 -11.5t29 11.5t11 27.5z" />
    <glyph glyph-name="uni2113" unicode="&#x2113;" 
d="M494 -34q-81 0 -120 33t-39 116v401q0 39 7.5 73.5t24.5 60.5t44.5 41t68.5 15q43 0 71.5 -15t45.5 -41t23.5 -60.5t6.5 -73.5v-100q0 -55 -13.5 -101t-36.5 -83.5t-54 -66t-66 -48.5v-9q0 -22 12 -31.5t32 -9.5q18 0 35 7.5t30 20.5l58 -78q-20 -20 -52.5 -35.5
t-77.5 -15.5zM457 236q17 30 32.5 77.5t15.5 104.5v73q0 48 -6.5 76.5t-18.5 28.5t-17.5 -28.5t-5.5 -76.5v-255z" />
    <glyph glyph-name="uni2116" unicode="&#x2116;" horiz-adv-x="890" 
d="M54 695h143l131 -387q6 -19 12 -36t11.5 -35.5t11.5 -40.5t12 -51v550h109v-721h-143l-134 387q-14 38 -25.5 75.5t-18.5 87.5v-550h-109v721zM682 513q38 0 70.5 -11.5t56.5 -35t37.5 -58t13.5 -79.5v-47q0 -45 -13.5 -80t-37.5 -58.5t-56.5 -35.5t-70.5 -12t-70 12
t-55.5 35.5t-37 58.5t-13.5 80v47q0 45 13.5 79.5t37 57.5t55.5 35t70 12zM682 188q33 0 53.5 24t20.5 78v29q0 54 -20.5 78.5t-53.5 24.5q-32 0 -53 -24.5t-21 -78.5v-29q0 -54 21 -78t53 -24zM534 64h297v-90h-297v90z" />
    <glyph glyph-name="uni2121" unicode="&#x2121;" horiz-adv-x="1066" 
d="M714 513v-104h-194v-102h173v-104h-173v-125h201v-104h-325v539h318zM485 695v-104h-176v-617h-125v617h-178v104h479zM880 513v-435h180v-104h-304v539h124z" />
    <glyph glyph-name="trademark" unicode="&#x2122;" horiz-adv-x="709" 
d="M311 695h106l75 -177h2l86 177h100v-326h-87v197l-66 -134h-69l-67 148h-2v-211h-78v326zM102 627h-89v68h272v-68h-89v-258h-94v258z" />
    <glyph glyph-name="Omega" unicode="&#x2126;" 
d="M836 -26h-313v110q55 12 87.5 63.5t32.5 146.5v86q0 105 -50 158t-138 53t-138 -53t-50 -158v-86q0 -95 32.5 -146.5t87.5 -63.5v-110h-313v112h133q-8 8 -19 22t-21 36.5t-17.5 54.5t-7.5 76v119q0 75 22.5 133.5t63.5 98t98.5 60t128.5 20.5t128.5 -20.5t98.5 -60
t63.5 -98t22.5 -133.5v-119q0 -44 -7.5 -76t-17.5 -54.5t-21.5 -36.5t-18.5 -22h133v-112z" />
    <glyph glyph-name="uni212B" unicode="&#x212b;" horiz-adv-x="688" 
d="M447 686q0 -34 -21 -61l245 -651h-139l-70 198h-243l-71 -198h-131l241 648q-23 26 -23 64q0 42 29.5 71.5t76.5 29.5t76.5 -29.5t29.5 -71.5zM256 279h169l-49 147q-13 36 -20.5 60.5t-15.5 50.5q-4 -15 -7.5 -27t-7.5 -24.5t-8.5 -26.5t-11.5 -33zM384 686
q0 17 -12 29.5t-31 12.5t-31 -12.5t-12 -29.5t12 -29.5t31 -12.5t31 12.5t12 29.5z" />
    <glyph glyph-name="onethird" unicode="&#x2153;" horiz-adv-x="920" 
d="M682 709h103l-523 -775h-103zM179 237v334l-100 -60l-55 92l172 92h96v-458h-113zM554 310q23 35 62.5 54.5t90.5 19.5q74 0 117 -31.5t43 -88.5v-9q0 -38 -16.5 -61.5t-42.5 -35.5q41 -7 62 -34t21 -60v-15q0 -29 -10 -54.5t-31.5 -44.5t-55.5 -30t-82 -11
q-53 0 -95 15.5t-73 40.5l52 83q29 -23 57.5 -33.5t54.5 -10.5q38 0 53.5 15t15.5 34v8q0 9 -3 17.5t-12 15.5t-24.5 11t-39.5 4h-58v91h58q34 0 46 12.5t12 33.5v5q0 19 -12.5 30t-42.5 11q-18 0 -39 -10t-35 -29z" />
    <glyph glyph-name="twothirds" unicode="&#x2154;" horiz-adv-x="970" 
d="M732 709h103l-523 -775h-103zM187 463q21 22 33 37t18.5 26t8 19.5t1.5 17.5v2q0 17 -12.5 28t-39.5 11q-26 0 -44.5 -13t-34.5 -37l-85 56q11 17 26 34t35.5 30.5t47 21.5t59.5 8q39 0 69 -10t50 -28t30.5 -42.5t10.5 -52.5v-5q0 -20 -8 -40.5t-20.5 -40.5t-29 -39
t-32.5 -36l-79 -80h187v-93h-340v69zM604 310q23 35 62.5 54.5t90.5 19.5q74 0 117 -31.5t43 -88.5v-9q0 -38 -16.5 -61.5t-42.5 -35.5q41 -7 62 -34t21 -60v-15q0 -29 -10 -54.5t-31.5 -44.5t-55.5 -30t-82 -11q-53 0 -95 15.5t-73 40.5l52 83q29 -23 57.5 -33.5
t54.5 -10.5q38 0 53.5 15t15.5 34v8q0 9 -3 17.5t-12 15.5t-24.5 11t-39.5 4h-58v91h58q34 0 46 12.5t12 33.5v5q0 19 -12.5 30t-42.5 11q-18 0 -39 -10t-35 -29z" />
    <glyph glyph-name="oneeighth" unicode="&#x215b;" horiz-adv-x="909" 
d="M682 709h103l-523 -775h-103zM668 250q0 -25 16.5 -38t36.5 -13t35.5 13t15.5 38v6q0 20 -12.5 33t-38.5 13t-39.5 -13t-13.5 -33v-6zM661 47q0 -23 16 -37t46 -14q25 0 41 14t16 37v8q0 22 -16 35t-42 13q-29 0 -45 -12.5t-16 -35.5v-8zM551 52q0 37 22.5 65t49.5 36
q-14 7 -25.5 18.5t-19 25t-11.5 27t-4 24.5v7q0 27 10 50.5t29.5 41t49 28t68.5 10.5t69 -11t49.5 -29t29.5 -41.5t10 -48.5v-7q0 -23 -15 -51t-44 -44q27 -8 49 -36t22 -65v-13q0 -27 -11 -50.5t-33 -41.5t-53.5 -28t-72.5 -10t-72.5 10t-53 28t-32.5 41.5t-11 50.5v13z
M179 237v334l-100 -60l-55 92l172 92h96v-458h-113z" />
    <glyph glyph-name="threeeighths" unicode="&#x215c;" horiz-adv-x="926" 
d="M697 709h103l-523 -775h-103zM685 250q0 -25 16.5 -38t36.5 -13t35.5 13t15.5 38v6q0 20 -12.5 33t-38.5 13t-39.5 -13t-13.5 -33v-6zM678 47q0 -23 16 -37t46 -14q25 0 41 14t16 37v8q0 22 -16 35t-42 13q-29 0 -45 -12.5t-16 -35.5v-8zM568 52q0 37 22.5 65t49.5 36
q-14 7 -25.5 18.5t-19 25t-11.5 27t-4 24.5v7q0 27 10 50.5t29.5 41t49 28t68.5 10.5t69 -11t49.5 -29t29.5 -41.5t10 -48.5v-7q0 -23 -15 -51t-44 -44q27 -8 49 -36t22 -65v-13q0 -27 -11 -50.5t-33 -41.5t-53.5 -28t-72.5 -10t-72.5 10t-53 28t-32.5 41.5t-11 50.5v13z
M34 630q23 35 62.5 54.5t90.5 19.5q74 0 117 -31.5t43 -88.5v-9q0 -38 -16.5 -61.5t-42.5 -35.5q41 -7 62 -34t21 -60v-15q0 -29 -10 -54.5t-31.5 -44.5t-55.5 -30t-82 -11q-53 0 -95 15.5t-73 40.5l52 83q29 -23 57.5 -33.5t54.5 -10.5q38 0 53.5 15t15.5 34v8q0 9 -3 17.5
t-12 15.5t-24.5 11t-39.5 4h-58v91h58q34 0 46 12.5t12 33.5v5q0 19 -12.5 30t-42.5 11q-18 0 -39 -10t-35 -29z" />
    <glyph glyph-name="fiveeighths" unicode="&#x215d;" horiz-adv-x="919" 
d="M692 709h103l-523 -775h-103zM372 382q0 -30 -11 -57.5t-33 -48.5t-54 -34t-75 -13q-46 0 -86.5 11t-75.5 40l50 82q28 -20 50.5 -30t59.5 -10q30 0 47 18.5t17 42.5v4q0 26 -12.5 42t-42.5 16q-21 0 -39 -9t-30 -25h-73l15 284h262v-85h-171l-2 -94q13 8 30.5 13.5
t42.5 5.5q31 0 55.5 -12t41.5 -32t25.5 -45.5t8.5 -53.5v-10zM678 250q0 -25 16.5 -38t36.5 -13t35.5 13t15.5 38v6q0 20 -12.5 33t-38.5 13t-39.5 -13t-13.5 -33v-6zM671 47q0 -23 16 -37t46 -14q25 0 41 14t16 37v8q0 22 -16 35t-42 13q-29 0 -45 -12.5t-16 -35.5v-8z
M561 52q0 37 22.5 65t49.5 36q-14 7 -25.5 18.5t-19 25t-11.5 27t-4 24.5v7q0 27 10 50.5t29.5 41t49 28t68.5 10.5t69 -11t49.5 -29t29.5 -41.5t10 -48.5v-7q0 -23 -15 -51t-44 -44q27 -8 49 -36t22 -65v-13q0 -27 -11 -50.5t-33 -41.5t-53.5 -28t-72.5 -10t-72.5 10
t-53 28t-32.5 41.5t-11 50.5v13z" />
    <glyph glyph-name="seveneighths" unicode="&#x215e;" horiz-adv-x="827" 
d="M598 709h103l-523 -775h-103zM180 237h-117l173 364h-216v94h337v-88zM586 250q0 -25 16.5 -38t36.5 -13t35.5 13t15.5 38v6q0 20 -12.5 33t-38.5 13t-39.5 -13t-13.5 -33v-6zM579 47q0 -23 16 -37t46 -14q25 0 41 14t16 37v8q0 22 -16 35t-42 13q-29 0 -45 -12.5
t-16 -35.5v-8zM469 52q0 37 22.5 65t49.5 36q-14 7 -25.5 18.5t-19 25t-11.5 27t-4 24.5v7q0 27 10 50.5t29.5 41t49 28t68.5 10.5t69 -11t49.5 -29t29.5 -41.5t10 -48.5v-7q0 -23 -15 -51t-44 -44q27 -8 49 -36t22 -65v-13q0 -27 -11 -50.5t-33 -41.5t-53.5 -28t-72.5 -10
t-72.5 10t-53 28t-32.5 41.5t-11 50.5v13z" />
    <glyph glyph-name="uni2160" unicode="&#x2160;" 
d="M390 695h128v-721h-128v721z" />
    <glyph glyph-name="uni2161" unicode="&#x2161;" 
d="M269 695h128v-721h-128v721zM513 695h128v-721h-128v721z" />
    <glyph glyph-name="uni2162" unicode="&#x2162;" 
d="M153 695h128v-721h-128v721zM627 695h128v-721h-128v721zM392 695h128v-721h-128v721z" />
    <glyph glyph-name="uni2163" unicode="&#x2163;" 
d="M309 695h133q37 -140 71.5 -275.5t71.5 -274.5q37 139 72 274.5t72 275.5h129l-219 -721h-116zM155 695h128v-721h-128v721z" />
    <glyph glyph-name="uni2164" unicode="&#x2164;" 
d="M398 -26q-69 181 -139.5 360.5t-139.5 360.5h139l195 -542q51 137 103 271t103 271h131q-72 -181 -143 -360.5t-143 -360.5h-106v0z" />
    <glyph glyph-name="uni2165" unicode="&#x2165;" 
d="M52 695h133q37 -139 71.5 -274t71.5 -273q37 138 72 273t72 274h129l-219 -721h-116zM627 695h128v-721h-128v721z" />
    <glyph glyph-name="uni2166" unicode="&#x2166;" 
d="M13 695h125l133 -552q33 139 65 275.5t65 276.5h123q-48 -181 -96 -360.5t-96 -360.5h-120zM711 695h114v-721h-114v721zM543 695h114v-721h-114v721z" />
    <glyph glyph-name="uni2167" unicode="&#x2167;" 
d="M167 -26q-37 181 -72.5 360.5t-72.5 360.5h119l85 -554q21 140 41 277t41 277h117l-138 -721h-120zM759 695h106v-721h-106v721zM601 695h106v-721h-106v721zM448 695h106v-721h-106v721z" />
    <glyph glyph-name="uni2168" unicode="&#x2168;" 
d="M662 342l201 -368h-144l-141 289l-126 -289h-140l192 379l-174 342h142l120 -266l121 266h135zM171 695h124v-721h-124v721z" />
    <glyph glyph-name="uni2169" unicode="&#x2169;" 
d="M539 344l224 -370h-148l-165 291l-160 -291h-144l223 377l-205 344h154l144 -266l149 266h143z" />
    <glyph glyph-name="uni2170" unicode="&#x2170;" 
d="M392 525h126v-551h-126v551zM389 742h132v-136h-132v136z" />
    <glyph glyph-name="uni2171" unicode="&#x2171;" 
d="M267 525h126v-551h-126v551zM264 742h132v-136h-132v136zM518 525h126v-551h-126v551zM515 742h132v-136h-132v136z" />
    <glyph glyph-name="uni2172" unicode="&#x2172;" 
d="M393 525h126v-551h-126v551zM390 742h132v-136h-132v136zM164 525h126v-551h-126v551zM161 742h132v-136h-132v136zM621 525h126v-551h-126v551zM618 742h132v-136h-132v136z" />
    <glyph glyph-name="uni2173" unicode="&#x2173;" 
d="M199 525h126v-551h-126v551zM196 742h132v-136h-132v136zM481 -26l-144 551h134l93 -435h4l96 435h130l-143 -551h-170z" />
    <glyph glyph-name="uni2174" unicode="&#x2174;" 
d="M373 -26l-180 551h138l125 -433h4l126 433h131l-180 -551h-164z" />
    <glyph glyph-name="uni2175" unicode="&#x2175;" 
d="M585 525h126v-551h-126v551zM582 742h132v-136h-132v136zM260 -26l-144 551h134l93 -435h4l96 435h130l-143 -551h-170z" />
    <glyph glyph-name="uni2176" unicode="&#x2176;" 
d="M203 -26l-138 551h130l87 -435h4l88 435h126l-135 -551h-162zM514 525h122v-551h-122v551zM511 742h128v-136h-128v136zM696 525h122v-551h-122v551zM693 742h128v-136h-128v136z" />
    <glyph glyph-name="uni2177" unicode="&#x2177;" 
d="M458 525h110v-551h-110v551zM455 742h116v-136h-116v136zM169 -26l-136 551h127l80 -415h4q20 106 40.5 207.5t40.5 207.5h123l-133 -551h-146zM612 525h110v-551h-110v551zM609 742h116v-136h-116v136zM766 525h110v-551h-110v551zM763 742h116v-136h-116v136z" />
    <glyph glyph-name="uni2178" unicode="&#x2178;" 
d="M190 529h126v-555h-126v555zM187 742h132v-136h-132v136zM664 263l160 -289h-138l-108 206l-104 -206h-135l164 289l-157 266h141l102 -188l100 188h130z" />
    <glyph glyph-name="uni2179" unicode="&#x2179;" 
d="M537 263l170 -289h-155l-101 203l-102 -203h-147l174 289l-167 266h158l94 -184l99 184h142z" />
    <glyph glyph-name="arrowleft" unicode="&#x2190;" 
d="M805 314h-553l75 -126l-15 -17l-208 173l208 173l15 -17l-75 -127h553v-59z" />
    <glyph glyph-name="arrowup" unicode="&#x2191;" 
d="M426 0v553l-127 -75l-17 15l173 208l173 -208l-17 -15l-127 75v-553h-58z" />
    <glyph glyph-name="arrowright" unicode="&#x2192;" 
d="M104 373h553l-75 127l15 17l208 -173l-208 -173l-15 17l75 126h-553v59z" />
    <glyph glyph-name="arrowdown" unicode="&#x2193;" 
d="M484 687v-552l127 74l17 -15l-173 -208l-173 208l17 15l127 -74v552h58z" />
    <glyph glyph-name="arrowboth" unicode="&#x2194;" 
d="M282 188l-15 -17l-208 173l208 173l15 -17l-75 -127h496l-75 127l15 17l208 -173l-208 -173l-15 17l75 126h-496z" />
    <glyph glyph-name="arrowupdn" unicode="&#x2195;" 
d="M484 553v-418l127 74l17 -15l-173 -208l-173 208l17 15l127 -74v418l-127 -75l-17 15l173 208l173 -208l-17 -15z" />
    <glyph glyph-name="uni2196" unicode="&#x2196;" 
d="M767 -11l-582 581l-36 -142l-23 -1l-25 269l269 -25l-1 -23l-142 -36l581 -581z" />
    <glyph glyph-name="uni2197" unicode="&#x2197;" 
d="M101 31l581 581l-142 36l-1 23l269 25l-25 -269l-23 1l-36 142l-582 -581z" />
    <glyph glyph-name="uni2198" unicode="&#x2198;" 
d="M142 698l582 -581l37 142l23 2l25 -270l-270 25l2 23l142 37l-582 581z" />
    <glyph glyph-name="uni2199" unicode="&#x2199;" 
d="M809 657l-582 -581l142 -37l2 -23l-270 -25l25 270l23 -2l37 -142l582 581z" />
    <glyph glyph-name="uni21B0" unicode="&#x21b0;" horiz-adv-x="970" 
 />
    <glyph glyph-name="uni21B1" unicode="&#x21b1;" horiz-adv-x="970" 
 />
    <glyph glyph-name="uni21B2" unicode="&#x21b2;" horiz-adv-x="970" 
 />
    <glyph glyph-name="uni21B3" unicode="&#x21b3;" horiz-adv-x="970" 
 />
    <glyph glyph-name="uni21B4" unicode="&#x21b4;" horiz-adv-x="970" 
 />
    <glyph glyph-name="uni21BC" unicode="&#x21bc;" horiz-adv-x="970" 
 />
    <glyph glyph-name="uni21C0" unicode="&#x21c0;" horiz-adv-x="970" 
 />
    <glyph glyph-name="uni21C4" unicode="&#x21c4;" horiz-adv-x="970" 
 />
    <glyph glyph-name="uni21C5" unicode="&#x21c5;" horiz-adv-x="970" 
 />
    <glyph glyph-name="uni21CD" unicode="&#x21cd;" horiz-adv-x="970" 
 />
    <glyph glyph-name="uni21CF" unicode="&#x21cf;" horiz-adv-x="970" 
 />
    <glyph glyph-name="arrowdblleft" unicode="&#x21d0;" horiz-adv-x="970" 
 />
    <glyph glyph-name="arrowdblup" unicode="&#x21d1;" horiz-adv-x="970" 
 />
    <glyph glyph-name="arrowdblup" unicode="&#x2963;" horiz-adv-x="970" 
 />
    <glyph glyph-name="arrowdblright" unicode="&#x21d2;" 
d="M915 298l-272 -274l-43 44l109 108h-714v60h773l63 62l-63 63h-773v60h713l-108 108l43 42z" />
    <glyph glyph-name="arrowdbldown" unicode="&#x21d3;" horiz-adv-x="970" 
 />
    <glyph glyph-name="arrowdbldown" unicode="&#x2965;" horiz-adv-x="970" 
 />
    <glyph glyph-name="arrowdblboth" unicode="&#x21d4;" 
d="M832 298l-63 63h-627l-63 -63l63 -62h627zM916 298l-272 -274l-43 44l109 108h-509l109 -108l-43 -44l-272 274l272 273l43 -42l-108 -108h507l-108 108l43 42z" />
    <glyph glyph-name="uni21E0" unicode="&#x21e0;" horiz-adv-x="970" 
 />
    <glyph glyph-name="uni21E1" unicode="&#x21e1;" horiz-adv-x="970" 
 />
    <glyph glyph-name="uni21E2" unicode="&#x21e2;" horiz-adv-x="970" 
 />
    <glyph glyph-name="uni21E3" unicode="&#x21e3;" horiz-adv-x="970" 
 />
    <glyph glyph-name="uni21E6" unicode="&#x21e6;" horiz-adv-x="970" 
 />
    <glyph glyph-name="uni21E7" unicode="&#x21e7;" horiz-adv-x="970" 
 />
    <glyph glyph-name="uni21E8" unicode="&#x21e8;" horiz-adv-x="970" 
 />
    <glyph glyph-name="uni21E9" unicode="&#x21e9;" horiz-adv-x="970" 
 />
    <glyph glyph-name="universal" unicode="&#x2200;" 
d="M128 695h139l70 -198h243l71 198h131l-268 -721h-115zM543 390h-169l49 -147q13 -36 20.5 -60.5t15.5 -50.5q4 15 7.5 27t7.5 24.5t8.5 26.5t11.5 33z" />
    <glyph glyph-name="partialdiff" unicode="&#x2202;" horiz-adv-x="548" 
d="M243 81q30 0 54.5 16t43.5 42.5t31.5 61t17.5 72.5q-6 16 -17 31.5t-27 28t-36 20t-44 7.5q-27 0 -50 -12t-40 -33t-27 -49.5t-10 -61.5q0 -58 29.5 -90.5t74.5 -32.5zM53 674q13 8 31 17.5t40.5 18t50 14t60.5 5.5q57 0 107.5 -24t88.5 -70t60.5 -112.5t22.5 -151.5
q0 -95 -23 -166.5t-62 -119.5t-90 -72t-107 -24q-53 0 -92.5 19t-65.5 49t-38.5 68.5t-12.5 77.5q0 51 16.5 96t45.5 78.5t70 53t89 19.5q60 0 98 -26t58 -57h1q4 47 -4.5 94.5t-30.5 86t-57 62.5t-84 24q-45 0 -78 -12.5t-59 -26.5z" />
    <glyph glyph-name="existential" unicode="&#x2203;" 
d="M691 695v-721h-471v106h344v211h-316v104h316v194h-337v106h464z" />
    <glyph glyph-name="Delta" unicode="&#x2206;" horiz-adv-x="970" 
 />
    <glyph glyph-name="gradient" unicode="&#x2207;" 
d="M853 602l-398 -630l-398 630h796zM728 535h-548l275 -439z" />
    <glyph glyph-name="element" unicode="&#x2208;" 
d="M795 266h-583q5 -27 17.5 -50.5t35 -40.5t55 -27t77.5 -10h400v-86h-397q-75 0 -129 20.5t-89.5 55.5t-52.5 81.5t-17 99.5q0 50 16.5 94.5t51 78t88.5 53t129 19.5h400v-86h-400q-44 0 -76.5 -9.5t-55 -25.5t-35.5 -37t-17 -44h582v-86z" />
    <glyph glyph-name="notelement" unicode="&#x2209;" horiz-adv-x="970" 
 />
    <glyph glyph-name="suchthat" unicode="&#x220b;" 
d="M114 352h582q-5 23 -17.5 44t-35 37t-55 25.5t-76.5 9.5h-400v86h400q75 0 129 -19.5t88.5 -53t51 -78t16.5 -94.5q0 -53 -17 -99.5t-52.5 -81.5t-89.5 -55.5t-129 -20.5h-397v86h400q45 0 77.5 10t55 27t35 40.5t17.5 50.5h-583v86z" />
    <glyph glyph-name="uni220C" unicode="&#x220c;" horiz-adv-x="970" 
 />
    <glyph glyph-name="product" unicode="&#x220f;" horiz-adv-x="669" 
d="M527 -58h-128v644h-129v-644h-128v644h-124v109h633v-109h-124v-644z" />
    <glyph glyph-name="summation" unicode="&#x2211;" horiz-adv-x="563" 
d="M531 695v-108h-316l195 -255l-197 -250h325v-108h-481v90l209 267l-209 277v87h474z" />
    <glyph glyph-name="uni2213" unicode="&#x2213;" horiz-adv-x="970" 
 />
    <glyph glyph-name="radical" unicode="&#x221a;" horiz-adv-x="574" 
d="M363 -121h-81l-157 421l-75 -31l-23 56l154 64l136 -396h3l191 807h81z" />
    <glyph glyph-name="proportional" unicode="&#x221d;" 
d="M301 192q31 0 55.5 11t43.5 29t33.5 40t25.5 43q-11 21 -26 43t-34.5 40t-43.5 29.5t-54 11.5q-55 0 -87.5 -34.5t-32.5 -88.5q0 -57 31 -90.5t89 -33.5zM761 409q-20 14 -40.5 23t-40.5 9q-54 0 -89.5 -33t-67.5 -93q32 -61 67.5 -93.5t89.5 -32.5q17 0 39 6t40 16
l21 -56q-50 -28 -100 -28q-32 0 -60 10.5t-52 28.5t-43.5 41t-34.5 47q-13 -22 -30 -44.5t-39.5 -40.5t-52 -29.5t-68.5 -11.5q-34 0 -67 12t-59.5 35.5t-43 58.5t-16.5 82q0 45 16 80t42 58.5t59 36t68 12.5q38 0 67.5 -11.5t52.5 -30t40 -41.5t31 -45q15 26 34 49
t42.5 40.5t52 28t61.5 10.5q29 0 58 -11.5t57 -31.5z" />
    <glyph glyph-name="infinity" unicode="&#x221e;" horiz-adv-x="620" 
d="M310 243q-32 -42 -68.5 -65.5t-93.5 -23.5q-65 0 -101 40t-36 106q0 64 36.5 105.5t108.5 41.5q30 0 53 -7.5t41 -20.5t32 -29t28 -33q31 41 68.5 65.5t93.5 24.5q65 0 101 -40t36 -106q0 -64 -36.5 -105.5t-108.5 -41.5q-30 0 -53 7.5t-41 20t-32.5 28.5t-27.5 33z
M466 369q-34 0 -59 -21.5t-46 -47.5q19 -25 44 -47t60 -22q30 0 45.5 19t15.5 51t-13.5 50t-46.5 18zM154 232q34 0 59 20t46 46q-9 12 -20 25t-24 23.5t-28 17t-32 6.5q-30 0 -45.5 -19t-15.5 -51t13.5 -50t46.5 -18z" />
    <glyph glyph-name="orthogonal" unicode="&#x221f;" horiz-adv-x="970" 
 />
    <glyph glyph-name="angle" unicode="&#x2220;" 
d="M760 0h-612v53l470 548l61 -52l-410 -472h491v-77z" />
    <glyph glyph-name="uni2222" unicode="&#x2222;" horiz-adv-x="970" 
 />
    <glyph glyph-name="uni2225" unicode="&#x2225;" horiz-adv-x="970" 
 />
    <glyph glyph-name="uni2226" unicode="&#x2226;" horiz-adv-x="970" 
 />
    <glyph glyph-name="logicaland" unicode="&#x2227;" 
d="M776 24l-60 -30l-261 506l-263 -506l-60 30l294 567h56z" />
    <glyph glyph-name="logicalor" unicode="&#x2228;" 
d="M776 571l-294 -568h-56l-294 568l60 29l263 -507l261 507z" />
    <glyph glyph-name="intersection" unicode="&#x2229;" 
d="M455 637q52 0 97.5 -17t78.5 -52.5t52 -89.5t19 -129v-397h-92v402q0 51 -11.5 88.5t-32 61.5t-49 35.5t-62.5 11.5q-70 0 -113.5 -47t-43.5 -150v-402h-92v397q0 75 19 129t52.5 89.5t79 52.5t98.5 17z" />
    <glyph glyph-name="union" unicode="&#x222a;" 
d="M297 637v-402q0 -52 12.5 -89t33.5 -60t49 -34t59 -11q34 0 63.5 11t51 34.5t33.5 60.5t12 88v402h92v-397q0 -75 -20.5 -129t-55 -89.5t-81 -52.5t-98.5 -17q-50 0 -94 16t-77 50.5t-52.5 88t-19.5 128.5v402h92z" />
    <glyph glyph-name="integral" unicode="&#x222b;" horiz-adv-x="345" 
d="M324 696q-8 2 -16.5 3t-18.5 1q-14 0 -26.5 -7t-19.5 -21q-12 -17 -18 -52t-6 -98q0 -112 7 -228t7 -238q0 -69 -9.5 -114.5t-27.5 -72.5q-20 -35 -51.5 -50.5t-67.5 -15.5q-20 0 -38 3t-26 9l13 80q8 -2 17.5 -4t20.5 -2q26 0 44 21q5 8 10 19t8.5 28t6 40.5t2.5 55.5
q0 124 -7 242.5t-7 236.5q0 79 14 126.5t43 80.5q20 22 47.5 31.5t57.5 9.5q16 0 30.5 -2t22.5 -5z" />
    <glyph glyph-name="uni222C" unicode="&#x222c;" horiz-adv-x="615" 
d="M570 691q-8 2 -16.5 3t-18.5 1q-14 0 -26 -7t-20 -20q-13 -17 -19 -52.5t-6 -97.5q0 -113 7.5 -226.5t7.5 -235.5q0 -69 -9.5 -114.5t-27.5 -72.5q-20 -35 -52 -50.5t-67 -15.5q-20 0 -37.5 3t-26.5 9l14 80q8 -2 17.5 -4t19.5 -2q25 0 43 21q6 8 11.5 19t9 28t6 40.5
t2.5 55.5q0 124 -7.5 240t-7.5 234q0 79 14 127t43 80q20 22 47 31.5t58 9.5q16 0 30.5 -2t22.5 -5zM325 691q-8 2 -16.5 3t-18.5 1q-14 0 -26.5 -7t-19.5 -20q-13 -17 -19 -52.5t-6 -97.5q0 -113 7 -226.5t7 -235.5q0 -69 -9 -114.5t-27 -72.5q-20 -35 -52 -50.5t-67 -15.5
q-20 0 -38.5 3t-26.5 9l13 80q8 -2 17.5 -4t20.5 -2q26 0 44 21q6 8 11 19t8.5 28t6 40.5t2.5 55.5q0 124 -7 240t-7 234q0 79 14 127t43 80q20 22 47 31.5t57 9.5q17 0 31.5 -2t22.5 -5z" />
    <glyph glyph-name="uni222E" unicode="&#x222e;" 
d="M430 410q-32 -12 -53 -40.5t-25 -70.5q-4 -44 14 -73.5t52 -39.5q2 26 3 51t2 56q1 29 3 60t4 57zM566 299q4 42 -16.5 74.5t-59.5 40.5q-5 -53 -6 -114q-1 -31 -2.5 -59.5t-4.5 -55.5q37 9 61 39t28 75zM617 628q-8 19 -20.5 29.5t-29.5 10.5q-22 0 -42 -58.5
t-32 -165.5q27 -3 50 -14t40 -29t26 -43.5t6 -58.5q-3 -32 -15.5 -57t-31.5 -43t-43.5 -29t-50.5 -15q-14 -110 -43 -181q-16 -38 -39.5 -62t-53.5 -24q-61 0 -92 59l44 26q9 -19 21.5 -30t29.5 -11q22 0 42.5 58t31.5 166q-25 4 -46.5 15t-37 29t-23.5 43t-5 56
q3 30 14.5 54t29 42t40 29.5t46.5 16.5q14 112 44 185q16 38 39.5 62t53.5 24q62 0 94 -63z" />
    <glyph glyph-name="therefore" unicode="&#x2234;" horiz-adv-x="620" 
d="M209 145q0 -32 -22.5 -54.5t-54.5 -22.5q-15 0 -29 6t-24.5 16.5t-17 24.5t-6.5 30q0 15 6.5 28.5t17 24t24.5 17t29 6.5q16 0 30 -6.5t24.5 -17t16.5 -24t6 -28.5zM565 145q0 -16 -6.5 -30t-17.5 -24.5t-24.5 -16.5t-28.5 -6q-33 0 -55 22.5t-22 54.5q0 15 6 28.5t16 24
t24 17t31 6.5q15 0 28.5 -6.5t24.5 -17t17.5 -24t6.5 -28.5zM376 494q0 -15 -6.5 -29t-17 -25t-24 -17.5t-28.5 -6.5t-29 6.5t-25 17.5t-17.5 25t-6.5 29q0 16 6.5 29.5t17.5 24t25 16.5t29 6q30 0 53 -22t23 -54z" />
    <glyph glyph-name="uni2235" unicode="&#x2235;" horiz-adv-x="586" 
d="M387 507q0 29 23 51t52 22q34 0 53.5 -22t19.5 -51q0 -30 -19.5 -52t-53.5 -22q-14 0 -27.5 6t-24 16t-17 23.5t-6.5 28.5zM39 507q0 29 22 51t51 22q34 0 54.5 -22t20.5 -51q0 -30 -20.5 -52t-54.5 -22q-14 0 -27.5 6t-23.5 16t-16 23.5t-6 28.5zM215 142q0 34 21.5 54
t51.5 20q32 0 53.5 -20t21.5 -54q0 -14 -5.5 -27t-15.5 -23.5t-24 -17t-30 -6.5q-15 0 -28.5 6.5t-23 17t-15.5 23.5t-6 27z" />
    <glyph glyph-name="uni2237" unicode="&#x2237;" horiz-adv-x="970" 
 />
    <glyph glyph-name="similar" unicode="&#x223c;" 
d="M742 339q-11 -18 -28 -35t-37 -30t-42 -21t-44 -8q-43 0 -73.5 9t-62.5 26q-26 14 -61 27.5t-75 13.5q-37 0 -64 -17.5t-46 -45.5l-41 27q11 18 28 35t37 30t42 21t44 8q43 0 73.5 -9t62.5 -26t64 -29t72 -12q37 0 64 17.5t46 45.5z" />
    <glyph glyph-name="similar" unicode="&#xff5e;" 
d="M742 339q-11 -18 -28 -35t-37 -30t-42 -21t-44 -8q-43 0 -73.5 9t-62.5 26q-26 14 -61 27.5t-75 13.5q-37 0 -64 -17.5t-46 -45.5l-41 27q11 18 28 35t37 30t42 21t44 8q43 0 73.5 -9t62.5 -26t64 -29t72 -12q37 0 64 17.5t46 45.5z" />
    <glyph glyph-name="similar" unicode="&#x301c;" 
d="M742 339q-11 -18 -28 -35t-37 -30t-42 -21t-44 -8q-43 0 -73.5 9t-62.5 26q-26 14 -61 27.5t-75 13.5q-37 0 -64 -17.5t-46 -45.5l-41 27q11 18 28 35t37 30t42 21t44 8q43 0 73.5 -9t62.5 -26t64 -29t72 -12q37 0 64 17.5t46 45.5z" />
    <glyph glyph-name="uni223D" unicode="&#x223d;" 
d="M829 316q0 -38 -13.5 -72.5t-38 -60.5t-58 -41.5t-73.5 -15.5q-32 0 -62.5 11.5t-59.5 33.5l32 52q44 -32 90 -32q25 0 46.5 9.5t37 26.5t24 39.5t8.5 49.5q0 23 -8.5 45t-23.5 39.5t-36 28t-47 10.5q-54 0 -90 -34.5t-70 -98.5q-12 -23 -29.5 -54t-44 -58.5t-63.5 -47
t-88 -19.5q-34 0 -66.5 12t-58 35.5t-41 59t-15.5 82.5q0 45 15 80t40.5 58.5t57.5 36t67 12.5t66 -12t59 -30l-33 -53q-21 13 -42.5 21t-42.5 8q-54 0 -86.5 -33.5t-32.5 -87.5q0 -55 30.5 -88.5t87.5 -33.5q36 0 63.5 16.5t48.5 40t36 50.5t26 48q15 30 34.5 58t44.5 49
t56 34t69 13q40 0 74 -15.5t58.5 -41.5t38 -59.5t13.5 -70.5z" />
    <glyph glyph-name="uni2243" unicode="&#x2243;" horiz-adv-x="970" 
 />
    <glyph glyph-name="congruent" unicode="&#x2245;" horiz-adv-x="970" 
 />
    <glyph glyph-name="approxequal" unicode="&#x2248;" horiz-adv-x="970" 
 />
    <glyph glyph-name="uni2250" unicode="&#x2250;" horiz-adv-x="970" 
 />
    <glyph glyph-name="uni2251" unicode="&#x2251;" horiz-adv-x="970" 
 />
    <glyph glyph-name="uni2252" unicode="&#x2252;" horiz-adv-x="620" 
d="M407 83q0 26 18.5 44t44.5 18t43.5 -18t17.5 -44t-17.5 -44.5t-43.5 -18.5t-44.5 18.5t-18.5 44.5zM77 541q0 26 18.5 44.5t42.5 18.5q26 0 44.5 -18.5t18.5 -44.5t-18.5 -43.5t-44.5 -17.5q-24 0 -42.5 17.5t-18.5 43.5zM37 428h546v-68h-546v68zM37 267h546v-69h-546
v69z" />
    <glyph glyph-name="uni2253" unicode="&#x2253;" horiz-adv-x="970" 
 />
    <glyph glyph-name="uni225A" unicode="&#x225a;" horiz-adv-x="970" 
 />
    <glyph glyph-name="notequal" unicode="&#x2260;" horiz-adv-x="620" 
d="M74 478h283l74 114h100l-74 -114h89v-105h-159l-68 -106h227v-105h-297l-72 -112h-100l72 112h-75v105h145l68 106h-213v105z" />
    <glyph glyph-name="equivalence" unicode="&#x2261;" horiz-adv-x="620" 
d="M37 277v73h545v-73h-545zM37 433v71h545v-71h-545zM37 121v71h545v-71h-545z" />
    <glyph glyph-name="uni2262" unicode="&#x2262;" horiz-adv-x="970" 
 />
    <glyph glyph-name="lessequal" unicode="&#x2264;" horiz-adv-x="620" 
d="M67 354v118l480 207v-124l-349 -139v-1l349 -143v-125zM547 133v-106h-474v106h474z" />
    <glyph glyph-name="greaterequal" unicode="&#x2265;" horiz-adv-x="620" 
d="M67 147v125l349 143v1l-349 139v124l480 -207v-118zM541 133v-106h-474v106h474z" />
    <glyph glyph-name="uni2266" unicode="&#x2266;" horiz-adv-x="970" 
 />
    <glyph glyph-name="uni2267" unicode="&#x2267;" horiz-adv-x="970" 
 />
    <glyph glyph-name="uni226E" unicode="&#x226e;" horiz-adv-x="970" 
 />
    <glyph glyph-name="uni226F" unicode="&#x226f;" horiz-adv-x="970" 
 />
    <glyph glyph-name="uni2270" unicode="&#x2270;" horiz-adv-x="970" 
 />
    <glyph glyph-name="uni2271" unicode="&#x2271;" horiz-adv-x="970" 
 />
    <glyph glyph-name="uni2272" unicode="&#x2272;" horiz-adv-x="970" 
 />
    <glyph glyph-name="uni2273" unicode="&#x2273;" horiz-adv-x="970" 
 />
    <glyph glyph-name="uni2276" unicode="&#x2276;" horiz-adv-x="970" 
 />
    <glyph glyph-name="uni2277" unicode="&#x2277;" horiz-adv-x="970" 
 />
    <glyph glyph-name="uni2279" unicode="&#x2279;" horiz-adv-x="970" 
 />
    <glyph glyph-name="uni227A" unicode="&#x227a;" horiz-adv-x="970" 
 />
    <glyph glyph-name="uni227B" unicode="&#x227b;" horiz-adv-x="970" 
 />
    <glyph glyph-name="uni2280" unicode="&#x2280;" horiz-adv-x="970" 
 />
    <glyph glyph-name="uni2281" unicode="&#x2281;" horiz-adv-x="970" 
 />
    <glyph glyph-name="propersubset" unicode="&#x2282;" 
d="M797 470h-400q-53 0 -89.5 -12.5t-59.5 -33.5t-33 -49t-10 -59q0 -34 10.5 -63.5t33.5 -51t59.5 -33.5t88.5 -12h400v-88h-397q-75 0 -129 19.5t-89.5 53.5t-52.5 80t-17 98q0 49 16.5 93t51 76t88.5 51t129 19h400v-88z" />
    <glyph glyph-name="propersuperset" unicode="&#x2283;" 
d="M112 548h402q75 0 128.5 -19t88 -51t50.5 -76t16 -93q0 -52 -17 -98t-52.5 -80t-89.5 -53.5t-129 -19.5h-397v88h402q51 0 87.5 12t59 33.5t33 51t10.5 63.5q0 31 -10 59t-32.5 49t-58.5 33.5t-89 12.5h-402v88z" />
    <glyph glyph-name="notsubset" unicode="&#x2284;" horiz-adv-x="970" 
 />
    <glyph glyph-name="uni2285" unicode="&#x2285;" horiz-adv-x="970" 
 />
    <glyph glyph-name="reflexsubset" unicode="&#x2286;" 
d="M795 -24h-648v88h648v-88zM797 512h-400q-53 0 -89.5 -11t-59.5 -30t-33 -44.5t-10 -54.5q0 -32 10.5 -59t33.5 -46.5t59.5 -30t88.5 -10.5h400v-88h-397q-75 0 -129 18t-89.5 50t-52.5 75.5t-17 93.5q0 47 16.5 88t51 71.5t88.5 48t129 17.5h400v-88z" />
    <glyph glyph-name="reflexsuperset" unicode="&#x2287;" 
d="M112 600h402q75 0 128.5 -17.5t88 -48t50.5 -71.5t16 -88q0 -50 -17 -93.5t-52.5 -75.5t-89.5 -50t-129 -18h-397v88h402q51 0 87.5 10.5t59 30t33 46.5t10.5 59q0 29 -10 54.5t-32.5 44.5t-58.5 30t-89 11h-402v88zM114 64h648v-88h-648v88z" />
    <glyph glyph-name="uni228A" unicode="&#x228a;" horiz-adv-x="970" 
 />
    <glyph glyph-name="uni228A" unicode="&#x2acb;" horiz-adv-x="970" 
 />
    <glyph glyph-name="uni228B" unicode="&#x228b;" horiz-adv-x="970" 
 />
    <glyph glyph-name="uni228B" unicode="&#x2acc;" horiz-adv-x="970" 
 />
    <glyph glyph-name="circleplus" unicode="&#x2295;" horiz-adv-x="970" 
 />
    <glyph glyph-name="uni2296" unicode="&#x2296;" horiz-adv-x="970" 
 />
    <glyph glyph-name="circlemultiply" unicode="&#x2297;" horiz-adv-x="970" 
 />
    <glyph glyph-name="uni2299" unicode="&#x2299;" 
d="M853 299q0 -83 -31.5 -155.5t-85.5 -126.5t-126.5 -85t-154.5 -31q-81 0 -153.5 31t-127 85t-86 126.5t-31.5 155.5q0 82 31.5 154.5t86 126.5t127 85.5t153.5 31.5q82 0 154.5 -31.5t126.5 -85.5t85.5 -126.5t31.5 -154.5zM780 299q0 67 -26 126t-70 103t-103 70
t-126 26q-68 0 -127 -26t-103.5 -70t-70 -103t-25.5 -126q0 -68 25.5 -127t70 -103.5t103.5 -70t127 -25.5q67 0 126 25.5t103 70t70 103.5t26 127zM610 299q0 -32 -12 -60.5t-33 -49.5t-49.5 -33t-60.5 -12t-60 12t-49 33t-33.5 49.5t-12.5 60.5t12.5 60.5t33.5 49.5t49 33
t60 12t60.5 -12t49.5 -33t33 -49.5t12 -60.5z" />
    <glyph glyph-name="uni2299" unicode="&#x25c9;" 
d="M853 299q0 -83 -31.5 -155.5t-85.5 -126.5t-126.5 -85t-154.5 -31q-81 0 -153.5 31t-127 85t-86 126.5t-31.5 155.5q0 82 31.5 154.5t86 126.5t127 85.5t153.5 31.5q82 0 154.5 -31.5t126.5 -85.5t85.5 -126.5t31.5 -154.5zM780 299q0 67 -26 126t-70 103t-103 70
t-126 26q-68 0 -127 -26t-103.5 -70t-70 -103t-25.5 -126q0 -68 25.5 -127t70 -103.5t103.5 -70t127 -25.5q67 0 126 25.5t103 70t70 103.5t26 127zM610 299q0 -32 -12 -60.5t-33 -49.5t-49.5 -33t-60.5 -12t-60 12t-49 33t-33.5 49.5t-12.5 60.5t12.5 60.5t33.5 49.5t49 33
t60 12t60.5 -12t49.5 -33t33 -49.5t12 -60.5z" />
    <glyph glyph-name="uni22A3" unicode="&#x22a3;" horiz-adv-x="970" 
 />
    <glyph glyph-name="uni22A4" unicode="&#x22a4;" horiz-adv-x="970" 
 />
    <glyph glyph-name="perpendicular" unicode="&#x22a5;" 
d="M774 0h-638v77h278v499h80v-499h280v-77z" />
    <glyph glyph-name="uni22BB" unicode="&#x22bb;" horiz-adv-x="970" 
 />
    <glyph glyph-name="uni22BC" unicode="&#x22bc;" horiz-adv-x="970" 
 />
    <glyph glyph-name="uni22CE" unicode="&#x22ce;" horiz-adv-x="970" 
 />
    <glyph glyph-name="uni22CF" unicode="&#x22cf;" horiz-adv-x="970" 
 />
    <glyph glyph-name="uni22DA" unicode="&#x22da;" horiz-adv-x="970" 
 />
    <glyph glyph-name="uni22DB" unicode="&#x22db;" horiz-adv-x="970" 
 />
    <glyph glyph-name="uni22EE" unicode="&#x22ee;" horiz-adv-x="970" 
 />
    <glyph glyph-name="uni2306" unicode="&#x2306;" horiz-adv-x="970" 
 />
    <glyph glyph-name="uni2312" unicode="&#x2312;" 
d="M643 573q-24 46 -70.5 76.5t-116.5 30.5q-71 0 -118 -30.5t-73 -76.5h-77q37 72 102.5 117.5t163.5 45.5q50 0 90.5 -12t73.5 -33.5t58 -51.5t45 -66h-78z" />
    <glyph glyph-name="uni2314" unicode="&#x2314;" horiz-adv-x="970" 
 />
    <glyph glyph-name="uni2460" unicode="&#x2460;" 
d="M431 41v410l-114 -66l-53 86l179 98h94v-528h-106zM824 306q0 81 -27.5 149.5t-76.5 118t-117 77.5t-148 28t-148 -28t-117 -77.5t-76.5 -118t-27.5 -149.5t27.5 -149.5t76.5 -118t117 -77.5t148 -28t148 28t117 77.5t76.5 118t27.5 149.5zM896 306q0 -96 -33.5 -177
t-92.5 -140t-139.5 -92t-175.5 -33q-96 0 -177 33t-139.5 92t-91.5 140t-33 177q0 95 33 176t91.5 140t139.5 92.5t177 33.5q95 0 175.5 -33.5t139.5 -92.5t92.5 -140t33.5 -176z" />
    <glyph glyph-name="uni2461" unicode="&#x2461;" 
d="M824 306q0 81 -27.5 149.5t-76.5 118t-117 77.5t-148 28t-148 -28t-117 -77.5t-76.5 -118t-27.5 -149.5t27.5 -149.5t76.5 -118t117 -77.5t148 -28t148 28t117 77.5t76.5 118t27.5 149.5zM896 306q0 -96 -33.5 -177t-92.5 -140t-139.5 -92t-175.5 -33q-96 0 -177 33
t-139.5 92t-91.5 140t-33 177q0 95 33 176t91.5 140t139.5 92.5t177 33.5q95 0 175.5 -33.5t139.5 -92.5t92.5 -140t33.5 -176zM467 319q22 21 34.5 37t18.5 29t7.5 24t1.5 22v6q0 23 -21.5 36t-51.5 13q-25 0 -51 -15t-53 -60l-80 54q12 23 29 43.5t39.5 36.5t51 25t63.5 9
q36 0 69 -8t58 -25t39.5 -44t14.5 -65v-7q0 -43 -18 -78.5t-56 -70.5l-162 -148h252v-88h-383v87z" />
    <glyph glyph-name="uni2462" unicode="&#x2462;" 
d="M824 306q0 81 -27.5 149.5t-76.5 118t-117 77.5t-148 28t-148 -28t-117 -77.5t-76.5 -118t-27.5 -149.5t27.5 -149.5t76.5 -118t117 -77.5t148 -28t148 28t117 77.5t76.5 118t27.5 149.5zM896 306q0 -96 -33.5 -177t-92.5 -140t-139.5 -92t-175.5 -33q-96 0 -177 33
t-139.5 92t-91.5 140t-33 177q0 95 33 176t91.5 140t139.5 92.5t177 33.5q95 0 175.5 -33.5t139.5 -92.5t92.5 -140t33.5 -176zM282 504q27 34 68.5 54.5t98.5 20.5q40 0 72 -10.5t53.5 -28.5t33 -42t11.5 -52v-7q0 -38 -16.5 -70t-58.5 -48q50 -7 77 -38.5t27 -79.5v-7
q0 -34 -13 -63t-38.5 -50.5t-63 -33.5t-85.5 -12q-53 0 -100.5 17t-78.5 43l53 79q30 -23 60.5 -35t65.5 -12q92 0 92 68v5q0 40 -22.5 56.5t-76.5 16.5h-67v91h56q51 0 68 17.5t17 52.5v4q0 23 -20 35.5t-46 12.5q-29 0 -51.5 -10t-43.5 -29z" />
    <glyph glyph-name="uni2463" unicode="&#x2463;" 
d="M824 306q0 81 -27.5 149.5t-76.5 118t-117 77.5t-148 28t-148 -28t-117 -77.5t-76.5 -118t-27.5 -149.5t27.5 -149.5t76.5 -118t117 -77.5t148 -28t148 28t117 77.5t76.5 118t27.5 149.5zM896 306q0 -96 -33.5 -177t-92.5 -140t-139.5 -92t-175.5 -33q-96 0 -177 33
t-139.5 92t-91.5 140t-33 177q0 95 33 176t91.5 140t139.5 92.5t177 33.5q95 0 175.5 -33.5t139.5 -92.5t92.5 -140t33.5 -176zM580 393v-155h68v-85h-68v-108h-103v108h-257v66l229 354h115l-218 -335h131v155h103z" />
    <glyph glyph-name="uni2464" unicode="&#x2464;" 
d="M824 306q0 81 -27.5 149.5t-76.5 118t-117 77.5t-148 28t-148 -28t-117 -77.5t-76.5 -118t-27.5 -149.5t27.5 -149.5t76.5 -118t117 -77.5t148 -28t148 28t117 77.5t76.5 118t27.5 149.5zM896 306q0 -96 -33.5 -177t-92.5 -140t-139.5 -92t-175.5 -33q-96 0 -177 33
t-139.5 92t-91.5 140t-33 177q0 95 33 176t91.5 140t139.5 92.5t177 33.5q95 0 175.5 -33.5t139.5 -92.5t92.5 -140t33.5 -176zM549 215q0 38 -21 59.5t-63 21.5q-60 0 -102 -42h-65l19 310h305v-87h-213l-6 -121q19 11 41 17.5t57 6.5q37 0 66 -12.5t49 -34t31 -51.5
t11 -65v-12q0 -31 -10.5 -62.5t-34 -56.5t-61.5 -40.5t-93 -15.5q-54 0 -100.5 14t-84.5 46l50 83q38 -31 70.5 -40t69.5 -9q39 0 62 23.5t23 59.5v8z" />
    <glyph glyph-name="uni2465" unicode="&#x2465;" 
d="M824 306q0 81 -27.5 149.5t-76.5 118t-117 77.5t-148 28t-148 -28t-117 -77.5t-76.5 -118t-27.5 -149.5t27.5 -149.5t76.5 -118t117 -77.5t148 -28t148 28t117 77.5t76.5 118t27.5 149.5zM896 306q0 -96 -33.5 -177t-92.5 -140t-139.5 -92t-175.5 -33q-96 0 -177 33
t-139.5 92t-91.5 140t-33 177q0 95 33 176t91.5 140t139.5 92.5t177 33.5q95 0 175.5 -33.5t139.5 -92.5t92.5 -140t33.5 -176zM581 455q-47 26 -109 26q-56 0 -80.5 -30.5t-27.5 -96.5q13 19 42.5 31.5t66.5 12.5t68.5 -12t54 -34t35 -53t12.5 -70v-16q0 -35 -11 -67
t-33.5 -56.5t-57 -39t-80.5 -14.5q-45 0 -81.5 12.5t-62.5 39.5t-40.5 69t-14.5 101v42q0 148 53 213t163 65q42 0 77 -10t61 -27zM365 211q0 -19 8 -33.5t21 -24t29.5 -14.5t33.5 -5q42 0 61 21.5t19 66.5v6q0 75 -84 75q-48 0 -68 -21t-20 -61v-10z" />
    <glyph glyph-name="uni2466" unicode="&#x2466;" 
d="M824 306q0 81 -27.5 149.5t-76.5 118t-117 77.5t-148 28t-148 -28t-117 -77.5t-76.5 -118t-27.5 -149.5t27.5 -149.5t76.5 -118t117 -77.5t148 -28t148 28t117 77.5t76.5 118t27.5 149.5zM896 306q0 -96 -33.5 -177t-92.5 -140t-139.5 -92t-175.5 -33q-96 0 -177 33
t-139.5 92t-91.5 140t-33 177q0 95 33 176t91.5 140t139.5 92.5t177 33.5q95 0 175.5 -33.5t139.5 -92.5t92.5 -140t33.5 -176zM457 29h-113l200 437h-269v89h380v-82z" />
    <glyph glyph-name="uni2467" unicode="&#x2467;" 
d="M824 306q0 81 -27.5 149.5t-76.5 118t-117 77.5t-148 28t-148 -28t-117 -77.5t-76.5 -118t-27.5 -149.5t27.5 -149.5t76.5 -118t117 -77.5t148 -28t148 28t117 77.5t76.5 118t27.5 149.5zM896 306q0 -96 -33.5 -177t-92.5 -140t-139.5 -92t-175.5 -33q-96 0 -177 33
t-139.5 92t-91.5 140t-33 177q0 95 33 176t91.5 140t139.5 92.5t177 33.5q95 0 175.5 -33.5t139.5 -92.5t92.5 -140t33.5 -176zM392 416q0 -24 15.5 -41t46.5 -17q28 0 45.5 16.5t17.5 41.5v8q0 27 -15.5 43t-47.5 16q-34 0 -48 -17.5t-14 -41.5v-8zM378 189q0 -32 21 -47
t56 -15t54.5 15t19.5 47v6q0 33 -20 49.5t-54 16.5q-36 0 -56.5 -17t-20.5 -49v-6zM268 194q0 22 7 41.5t18.5 35t26 26t29.5 15.5q-35 17 -52.5 48.5t-17.5 57.5v7q0 67 45 108t130 41q83 0 128 -41.5t45 -107.5v-7q0 -27 -17.5 -57t-49.5 -49q16 -5 30.5 -15.5t25 -26
t17 -35t6.5 -41.5v-12q0 -32 -11.5 -59t-34.5 -47.5t-58 -32t-81 -11.5q-47 0 -82 11.5t-58 32t-34.5 47.5t-11.5 59v12z" />
    <glyph glyph-name="uni2468" unicode="&#x2468;" 
d="M824 306q0 81 -27.5 149.5t-76.5 118t-117 77.5t-148 28t-148 -28t-117 -77.5t-76.5 -118t-27.5 -149.5t27.5 -149.5t76.5 -118t117 -77.5t148 -28t148 28t117 77.5t76.5 118t27.5 149.5zM896 306q0 -96 -33.5 -177t-92.5 -140t-139.5 -92t-175.5 -33q-96 0 -177 33
t-139.5 92t-91.5 140t-33 177q0 95 33 176t91.5 140t139.5 92.5t177 33.5q95 0 175.5 -33.5t139.5 -92.5t92.5 -140t33.5 -176zM335 159q47 -26 108 -26q56 0 81 30.5t28 96.5q-13 -19 -41.5 -31t-67.5 -12q-38 0 -69 12t-53.5 33.5t-35 52.5t-12.5 70v16q0 35 11 67
t33.5 56.5t56.5 39t81 14.5q45 0 81.5 -12.5t62.5 -39.5t40.5 -69t14.5 -101v-42q0 -77 -13.5 -130t-40.5 -86t-67.5 -47.5t-94.5 -14.5q-42 0 -77 10t-61 27zM551 403q0 19 -8 33t-21 24t-29.5 15t-33.5 5q-42 0 -61 -21.5t-19 -66.5v-6q0 -75 84 -75q48 0 68 21t20 61v10z
" />
    <glyph glyph-name="uni2469" unicode="&#x2469;" 
d="M824 306q0 81 -27.5 149.5t-76.5 118t-117 77.5t-148 28t-148 -28t-117 -77.5t-76.5 -118t-27.5 -149.5t27.5 -149.5t76.5 -118t117 -77.5t148 -28t148 28t117 77.5t76.5 118t27.5 149.5zM896 306q0 -96 -33.5 -177t-92.5 -140t-139.5 -92t-175.5 -33q-96 0 -177 33
t-139.5 92t-91.5 140t-33 177q0 95 33 176t91.5 140t139.5 92.5t177 33.5q95 0 175.5 -33.5t139.5 -92.5t92.5 -140t33.5 -176zM580 33q-86 0 -123 55.5t-37 174.5v84q0 119 37 174.5t123 55.5t123 -55.5t37 -174.5v-84q0 -119 -37 -174.5t-123 -55.5zM580 479
q-14 0 -25 -5.5t-18.5 -20.5t-11.5 -41t-4 -66v-82q0 -40 4 -66t11.5 -41t18.5 -20.5t25 -5.5t25 5.5t18.5 20.5t11.5 41t4 66v82q0 40 -4 66t-11.5 41t-18.5 20.5t-25 5.5zM272 41v408l-94 -60l-50 87l155 91h94v-526h-105z" />
    <glyph glyph-name="uni246A" unicode="&#x246a;" 
d="M824 306q0 81 -27.5 149.5t-76.5 118t-117 77.5t-148 28t-148 -28t-117 -77.5t-76.5 -118t-27.5 -149.5t27.5 -149.5t76.5 -118t117 -77.5t148 -28t148 28t117 77.5t76.5 118t27.5 149.5zM896 306q0 -96 -33.5 -177t-92.5 -140t-139.5 -92t-175.5 -33q-96 0 -177 33
t-139.5 92t-91.5 140t-33 177q0 95 33 176t91.5 140t139.5 92.5t177 33.5q95 0 175.5 -33.5t139.5 -92.5t92.5 -140t33.5 -176zM303 41v408l-94 -60l-50 87l155 91h94v-526h-105zM567 41v408l-94 -60l-50 87l155 91h94v-526h-105z" />
    <glyph glyph-name="uni246B" unicode="&#x246b;" 
d="M896 306q0 -96 -33.5 -177t-92.5 -140t-139.5 -92t-175.5 -33q-96 0 -177 33t-139.5 92t-91.5 140t-33 177q0 95 33 176t91.5 140t139.5 92.5t177 33.5q95 0 175.5 -33.5t139.5 -92.5t92.5 -140t33.5 -176zM522 307q24 33 39.5 55t24 36.5t11.5 23.5t3 16v5q0 15 -14 25
t-34 10q-22 0 -41 -18t-36 -48l-79 57q6 10 15.5 28t26.5 35.5t43.5 30t66.5 12.5q43 0 73.5 -11.5t50 -29.5t29 -41t9.5 -46v-7q0 -21 -8 -43t-21 -43.5t-28.5 -42.5t-31.5 -42l-103 -136h205v-92q48 50 74.5 117t26.5 148t-27.5 149.5t-76.5 118t-117 77.5t-148 28
t-148 -28t-117 -77.5t-76.5 -118t-27.5 -149.5t27.5 -149.5t76.5 -118t117 -77.5t148 -28q81 0 149.5 28.5t117.5 79.5h-327v91zM272 41v408l-94 -60l-50 87l155 91h94v-526h-105z" />
    <glyph glyph-name="uni246C" unicode="&#x246c;" 
d="M896 306q0 -96 -33.5 -177t-92.5 -140t-139.5 -92t-175.5 -33q-96 0 -177 33t-139.5 92t-91.5 140t-33 177q0 95 33 176t91.5 140t139.5 92.5t177 33.5q95 0 175.5 -33.5t139.5 -92.5t92.5 -140t33.5 -176zM824 306q0 81 -27.5 149.5t-76.5 118t-117 77.5t-148 28
t-148 -28t-117 -77.5t-76.5 -118t-27.5 -149.5t27.5 -149.5t76.5 -118t117 -77.5t148 -28t148 28t117 77.5t76.5 118t27.5 149.5zM272 41v408l-94 -60l-50 87l155 91h94v-474l53 79q34 -23 62 -35t62 -12q41 0 57.5 19t16.5 49v5q0 42 -22 57.5t-73 15.5h-47v91h42
q43 0 59 17t16 52v4q0 20 -13.5 34.5t-40.5 14.5q-30 0 -50 -9.5t-37 -29.5l-72 55q15 18 30.5 31.5t34.5 23.5t42 15t52 5q75 0 116.5 -36.5t41.5 -96.5v-7q0 -36 -19 -69.5t-60 -47.5q49 -8 78.5 -39t29.5 -78v-7q0 -34 -10.5 -63.5t-32.5 -51t-56.5 -34t-82.5 -12.5
q-54 0 -99.5 17t-77.5 43v-52h-105z" />
    <glyph glyph-name="uni246D" unicode="&#x246d;" 
d="M824 306q0 81 -27.5 149.5t-76.5 118t-117 77.5t-148 28t-148 -28t-117 -77.5t-76.5 -118t-27.5 -149.5t27.5 -149.5t76.5 -118t117 -77.5t148 -28t148 28t117 77.5t76.5 118t27.5 149.5zM896 306q0 -96 -33.5 -177t-92.5 -140t-139.5 -92t-175.5 -33q-96 0 -177 33
t-139.5 92t-91.5 140t-33 177q0 95 33 176t91.5 140t139.5 92.5t177 33.5q95 0 175.5 -33.5t139.5 -92.5t92.5 -140t33.5 -176zM691 389v-159h71v-81h-71v-108h-101v108h-205v62l183 358h111l-174 -339h85v159h101zM272 41v408l-94 -60l-50 87l155 91h94v-526h-105z" />
    <glyph glyph-name="uni246E" unicode="&#x246e;" 
d="M824 306q0 81 -27.5 149.5t-76.5 118t-117 77.5t-148 28t-148 -28t-117 -77.5t-76.5 -118t-27.5 -149.5t27.5 -149.5t76.5 -118t117 -77.5t148 -28t148 28t117 77.5t76.5 118t27.5 149.5zM896 306q0 -96 -33.5 -177t-92.5 -140t-139.5 -92t-175.5 -33q-96 0 -177 33
t-139.5 92t-91.5 140t-33 177q0 95 33 176t91.5 140t139.5 92.5t177 33.5q95 0 175.5 -33.5t139.5 -92.5t92.5 -140t33.5 -176zM624 222q0 37 -15.5 56t-54.5 19q-25 0 -43 -11.5t-31 -31.5h-68l17 310h269v-84h-175l-6 -124q16 9 31 16.5t48 7.5t58.5 -12.5t43 -33.5
t27 -49.5t9.5 -60.5v-12q0 -36 -10 -69t-31.5 -58t-56 -40t-82.5 -15q-55 0 -94.5 15.5t-73.5 44.5l50 82q31 -24 58 -36.5t64 -12.5q35 0 50.5 26.5t15.5 64.5v8zM272 41v408l-94 -60l-50 87l155 91h94v-526h-105z" />
    <glyph glyph-name="uni246F" unicode="&#x246f;" horiz-adv-x="970" 
 />
    <glyph glyph-name="uni2470" unicode="&#x2470;" horiz-adv-x="970" 
 />
    <glyph glyph-name="uni2471" unicode="&#x2471;" horiz-adv-x="970" 
 />
    <glyph glyph-name="uni2472" unicode="&#x2472;" horiz-adv-x="970" 
 />
    <glyph glyph-name="uni2473" unicode="&#x2473;" horiz-adv-x="970" 
 />
    <glyph glyph-name="uni2474" unicode="&#x2474;" 
d="M213 684q-32 -47 -52.5 -93.5t-32.5 -91.5t-16.5 -87.5t-4.5 -79.5v-46q0 -36 4 -77.5t15.5 -87.5t32 -94.5t54.5 -98.5h-82q-32 42 -53.5 89t-34.5 94t-18.5 93t-5.5 87v36q0 40 5.5 85t18.5 91.5t34.5 92.5t53.5 88h82zM779 684q32 -42 53.5 -88t34.5 -92.5t18.5 -91.5
t5.5 -85v-36q0 -41 -5.5 -87t-18.5 -93t-34.5 -94t-53.5 -89h-82q34 50 54.5 98.5t32 94.5t15.5 87.5t4 77.5v46q0 37 -5 79.5t-17 87.5t-32.5 91.5t-51.5 93.5h82zM438 25v435l-121 -70l-56 91l190 104h99v-560h-112z" />
    <glyph glyph-name="uni2475" unicode="&#x2475;" 
d="M213 684q-32 -47 -52.5 -93.5t-32.5 -91.5t-16.5 -87.5t-4.5 -79.5v-46q0 -36 4 -77.5t15.5 -87.5t32 -94.5t54.5 -98.5h-82q-32 42 -53.5 89t-34.5 94t-18.5 93t-5.5 87v36q0 40 5.5 85t18.5 91.5t34.5 92.5t53.5 88h82zM779 684q32 -42 53.5 -88t34.5 -92.5t18.5 -91.5
t5.5 -85v-36q0 -41 -5.5 -87t-18.5 -93t-34.5 -94t-53.5 -89h-82q34 50 54.5 98.5t32 94.5t15.5 87.5t4 77.5v46q0 37 -5 79.5t-17 87.5t-32.5 91.5t-51.5 93.5h82zM469 319q24 22 37.5 39.5t19.5 31t7.5 25t1.5 23.5v6q0 24 -22.5 38t-54.5 14q-26 0 -54 -16t-57 -63
l-84 57q13 24 31 46t41.5 38.5t53.5 26.5t68 10t73 -8.5t61.5 -26.5t42 -46.5t15.5 -69.5v-7q0 -45 -19.5 -83t-59.5 -75l-172 -157h267v-93h-405v92z" />
    <glyph glyph-name="uni2476" unicode="&#x2476;" 
d="M213 684q-32 -47 -52.5 -93.5t-32.5 -91.5t-16.5 -87.5t-4.5 -79.5v-46q0 -36 4 -77.5t15.5 -87.5t32 -94.5t54.5 -98.5h-82q-32 42 -53.5 89t-34.5 94t-18.5 93t-5.5 87v36q0 40 5.5 85t18.5 91.5t34.5 92.5t53.5 88h82zM779 684q32 -42 53.5 -88t34.5 -92.5t18.5 -91.5
t5.5 -85v-36q0 -41 -5.5 -87t-18.5 -93t-34.5 -94t-53.5 -89h-82q34 50 54.5 98.5t32 94.5t15.5 87.5t4 77.5v46q0 37 -5 79.5t-17 87.5t-32.5 91.5t-51.5 93.5h82zM274 516q29 35 73 57t104 22q43 0 76.5 -11t57 -30t35.5 -44.5t12 -55.5v-7q0 -40 -18 -74t-62 -51
q53 -8 81.5 -41.5t28.5 -83.5v-8q0 -36 -14 -67t-41 -53.5t-66.5 -35t-90.5 -12.5q-56 0 -106.5 17.5t-82.5 45.5l56 84q32 -24 64.5 -37t68.5 -13q51 0 74.5 18.5t23.5 53.5v6q0 42 -24 59.5t-81 17.5h-71v96h59q54 0 72 19t18 56v4q0 25 -20.5 38t-49.5 13
q-31 0 -54.5 -11t-45.5 -31z" />
    <glyph glyph-name="uni2477" unicode="&#x2477;" 
d="M213 684q-32 -47 -52.5 -93.5t-32.5 -91.5t-16.5 -87.5t-4.5 -79.5v-46q0 -36 4 -77.5t15.5 -87.5t32 -94.5t54.5 -98.5h-82q-32 42 -53.5 89t-34.5 94t-18.5 93t-5.5 87v36q0 40 5.5 85t18.5 91.5t34.5 92.5t53.5 88h82zM779 684q32 -42 53.5 -88t34.5 -92.5t18.5 -91.5
t5.5 -85v-36q0 -41 -5.5 -87t-18.5 -93t-34.5 -94t-53.5 -89h-82q34 50 54.5 98.5t32 94.5t15.5 87.5t4 77.5v46q0 37 -5 79.5t-17 87.5t-32.5 91.5t-51.5 93.5h82zM600 398v-164h72v-90h-72v-115h-109v115h-273v70l243 375h122l-231 -355h139v164h109z" />
    <glyph glyph-name="uni2478" unicode="&#x2478;" 
d="M213 684q-32 -47 -52.5 -93.5t-32.5 -91.5t-16.5 -87.5t-4.5 -79.5v-46q0 -36 4 -77.5t15.5 -87.5t32 -94.5t54.5 -98.5h-82q-32 42 -53.5 89t-34.5 94t-18.5 93t-5.5 87v36q0 40 5.5 85t18.5 91.5t34.5 92.5t53.5 88h82zM779 684q32 -42 53.5 -88t34.5 -92.5t18.5 -91.5
t5.5 -85v-36q0 -41 -5.5 -87t-18.5 -93t-34.5 -94t-53.5 -89h-82q34 50 54.5 98.5t32 94.5t15.5 87.5t4 77.5v46q0 37 -5 79.5t-17 87.5t-32.5 91.5t-51.5 93.5h82zM554 210q0 41 -22 63.5t-67 22.5q-65 0 -108 -45h-69l20 329h323v-92h-225l-7 -128q20 11 43.5 18t60.5 7
q39 0 70 -13t52.5 -36.5t33 -55t11.5 -68.5v-13q0 -33 -11.5 -66t-36.5 -59.5t-65 -43t-98 -16.5t-106.5 15t-90.5 49l53 88q40 -33 75 -42.5t74 -9.5q42 0 66 25t24 63v8z" />
    <glyph glyph-name="uni2479" unicode="&#x2479;" 
d="M213 684q-32 -47 -52.5 -93.5t-32.5 -91.5t-16.5 -87.5t-4.5 -79.5v-46q0 -36 4 -77.5t15.5 -87.5t32 -94.5t54.5 -98.5h-82q-32 42 -53.5 89t-34.5 94t-18.5 93t-5.5 87v36q0 40 5.5 85t18.5 91.5t34.5 92.5t53.5 88h82zM779 684q32 -42 53.5 -88t34.5 -92.5t18.5 -91.5
t5.5 -85v-36q0 -41 -5.5 -87t-18.5 -93t-34.5 -94t-53.5 -89h-82q34 50 54.5 98.5t32 94.5t15.5 87.5t4 77.5v46q0 37 -5 79.5t-17 87.5t-32.5 91.5t-51.5 93.5h82zM590 464q-50 27 -116 27q-59 0 -85 -32.5t-29 -101.5q14 20 45 33t70 13q40 0 73 -12.5t57 -36t37 -56.5
t13 -74v-17q0 -37 -11.5 -71t-35.5 -59.5t-60 -41t-85 -15.5q-48 0 -86.5 13.5t-66.5 42t-43 73t-15 106.5v45q0 78 14 134t42 91.5t71 52t102 16.5q45 0 82 -10.5t64 -28.5zM361 205q0 -20 8.5 -35t22 -25.5t31 -15.5t35.5 -5q45 0 65 22.5t20 70.5v6q0 80 -89 80
q-51 0 -72 -22.5t-21 -64.5v-11z" />
    <glyph glyph-name="uni247A" unicode="&#x247a;" 
d="M213 684q-32 -47 -52.5 -93.5t-32.5 -91.5t-16.5 -87.5t-4.5 -79.5v-46q0 -36 4 -77.5t15.5 -87.5t32 -94.5t54.5 -98.5h-82q-32 42 -53.5 89t-34.5 94t-18.5 93t-5.5 87v36q0 40 5.5 85t18.5 91.5t34.5 92.5t53.5 88h82zM779 684q32 -42 53.5 -88t34.5 -92.5t18.5 -91.5
t5.5 -85v-36q0 -41 -5.5 -87t-18.5 -93t-34.5 -94t-53.5 -89h-82q34 50 54.5 98.5t32 94.5t15.5 87.5t4 77.5v46q0 37 -5 79.5t-17 87.5t-32.5 91.5t-51.5 93.5h82zM455 13h-120l212 463h-285v95h402v-87z" />
    <glyph glyph-name="uni247B" unicode="&#x247b;" 
d="M213 684q-32 -47 -52.5 -93.5t-32.5 -91.5t-16.5 -87.5t-4.5 -79.5v-46q0 -36 4 -77.5t15.5 -87.5t32 -94.5t54.5 -98.5h-82q-32 42 -53.5 89t-34.5 94t-18.5 93t-5.5 87v36q0 40 5.5 85t18.5 91.5t34.5 92.5t53.5 88h82zM779 684q32 -42 53.5 -88t34.5 -92.5t18.5 -91.5
t5.5 -85v-36q0 -41 -5.5 -87t-18.5 -93t-34.5 -94t-53.5 -89h-82q34 50 54.5 98.5t32 94.5t15.5 87.5t4 77.5v46q0 37 -5 79.5t-17 87.5t-32.5 91.5t-51.5 93.5h82zM388 423q0 -26 17 -44t49 -18q29 0 48 18t19 44v8q0 29 -16 46t-51 17q-36 0 -51 -18.5t-15 -44.5v-8z
M373 182q0 -34 22.5 -50t59.5 -16t58 16t21 50v7q0 35 -21.5 52t-57.5 17q-38 0 -60 -18t-22 -51v-7zM257 187q0 23 7.5 44t19.5 37.5t27.5 28t31.5 16.5q-18 9 -32 22.5t-23.5 29t-14 31t-4.5 29.5v7q0 72 47.5 115t137.5 43q88 0 135.5 -44t47.5 -114v-7
q0 -29 -18.5 -60.5t-52.5 -51.5q35 -10 59.5 -44.5t24.5 -81.5v-12q0 -33 -12 -62t-36.5 -50.5t-61.5 -34t-86 -12.5q-50 0 -86.5 12.5t-61.5 34t-37 50.5t-12 62v12z" />
    <glyph glyph-name="uni247C" unicode="&#x247c;" 
d="M213 684q-32 -47 -52.5 -93.5t-32.5 -91.5t-16.5 -87.5t-4.5 -79.5v-46q0 -36 4 -77.5t15.5 -87.5t32 -94.5t54.5 -98.5h-82q-32 42 -53.5 89t-34.5 94t-18.5 93t-5.5 87v36q0 40 5.5 85t18.5 91.5t34.5 92.5t53.5 88h82zM779 684q32 -42 53.5 -88t34.5 -92.5t18.5 -91.5
t5.5 -85v-36q0 -41 -5.5 -87t-18.5 -93t-34.5 -94t-53.5 -89h-82q34 50 54.5 98.5t32 94.5t15.5 87.5t4 77.5v46q0 37 -5 79.5t-17 87.5t-32.5 91.5t-51.5 93.5h82zM326 150q49 -27 115 -27q59 0 85.5 32.5t29.5 101.5q-14 -20 -43.5 -32.5t-71.5 -12.5q-40 0 -73 12.5
t-57 35.5t-37 56t-13 74v17q0 37 11.5 71t35.5 59.5t60 41t85 15.5q48 0 86.5 -13.5t66.5 -42t43 -73t15 -106.5v-45q0 -81 -14.5 -137t-43 -91t-71.5 -50.5t-100 -15.5q-45 0 -82 10.5t-64 28.5zM555 409q0 20 -8.5 35t-22 25.5t-31 15.5t-35.5 5q-45 0 -65 -22.5
t-20 -70.5v-6q0 -80 89 -80q51 0 72 22.5t21 64.5v11z" />
    <glyph glyph-name="uni247D" unicode="&#x247d;" 
d="M213 684q-32 -47 -52.5 -93.5t-32.5 -91.5t-16.5 -87.5t-4.5 -79.5v-46q0 -36 4 -77.5t15.5 -87.5t32 -94.5t54.5 -98.5h-82q-32 42 -53.5 89t-34.5 94t-18.5 93t-5.5 87v36q0 40 5.5 85t18.5 91.5t34.5 92.5t53.5 88h82zM779 684q32 -42 53.5 -88t34.5 -92.5t18.5 -91.5
t5.5 -85v-36q0 -41 -5.5 -87t-18.5 -93t-34.5 -94t-53.5 -89h-82q34 50 54.5 98.5t32 94.5t15.5 87.5t4 77.5v46q0 37 -5 79.5t-17 87.5t-32.5 91.5t-51.5 93.5h82zM580 17q-86 0 -123 58.5t-37 184.5v90q0 126 37 184.5t123 58.5t123 -58.5t37 -184.5v-90
q0 -126 -37 -184.5t-123 -58.5zM580 489q-14 0 -25 -6t-18.5 -22t-11.5 -43t-4 -70v-86q0 -43 4 -70.5t11.5 -43t18.5 -21.5t25 -6t25 6t18.5 21.5t11.5 43t4 70.5v86q0 43 -4 70t-11.5 43t-18.5 22t-25 6zM272 25v433l-94 -64l-50 92l155 97h94v-558h-105z" />
    <glyph glyph-name="uni247E" unicode="&#x247e;" 
d="M213 684q-32 -47 -52.5 -93.5t-32.5 -91.5t-16.5 -87.5t-4.5 -79.5v-46q0 -36 4 -77.5t15.5 -87.5t32 -94.5t54.5 -98.5h-82q-32 42 -53.5 89t-34.5 94t-18.5 93t-5.5 87v36q0 40 5.5 85t18.5 91.5t34.5 92.5t53.5 88h82zM779 684q32 -42 53.5 -88t34.5 -92.5t18.5 -91.5
t5.5 -85v-36q0 -41 -5.5 -87t-18.5 -93t-34.5 -94t-53.5 -89h-82q34 50 54.5 98.5t32 94.5t15.5 87.5t4 77.5v46q0 37 -5 79.5t-17 87.5t-32.5 91.5t-51.5 93.5h82zM303 25v433l-94 -64l-50 92l155 97h94v-558h-105zM567 25v433l-94 -64l-50 92l155 97h94v-558h-105z" />
    <glyph glyph-name="uni247F" unicode="&#x247f;" 
d="M213 684q-32 -47 -52.5 -93.5t-32.5 -91.5t-16.5 -87.5t-4.5 -79.5v-46q0 -36 4 -77.5t15.5 -87.5t32 -94.5t54.5 -98.5h-82q-32 42 -53.5 89t-34.5 94t-18.5 93t-5.5 87v36q0 40 5.5 85t18.5 91.5t34.5 92.5t53.5 88h82zM779 684q32 -42 53.5 -88t34.5 -92.5t18.5 -91.5
t5.5 -85v-36q0 -41 -5.5 -87t-18.5 -93t-34.5 -94t-53.5 -89h-82q34 50 54.5 98.5t32 94.5t15.5 87.5t4 77.5v46q0 37 -5 79.5t-17 87.5t-32.5 91.5t-51.5 93.5h82zM522 307q24 35 39.5 58.5t24 39t11.5 24.5t3 17v5q0 16 -14 26.5t-34 10.5q-22 0 -41 -19t-36 -51l-79 61
q6 11 15.5 30t26.5 37t43.5 31.5t66.5 13.5q43 0 73.5 -12t50 -31.5t29 -44t9.5 -48.5v-7q0 -23 -8 -46t-21 -45.5t-28.5 -45t-31.5 -44.5l-103 -145h205v-97h-328v96zM272 25v432l-94 -63l-50 92l155 97h94v-558h-105z" />
    <glyph glyph-name="uni2480" unicode="&#x2480;" 
d="M272 25v433l-94 -64l-50 92l155 97h94v-503l53 84q34 -24 62 -37t62 -13q41 0 57.5 20t16.5 52v6q0 44 -22 60.5t-73 16.5h-47v96h42q43 0 59 18.5t16 55.5v4q0 21 -13.5 36.5t-40.5 15.5q-30 0 -50 -10t-37 -32l-72 59q15 19 30.5 33.5t34.5 24.5t42 15.5t52 5.5
q75 0 116.5 -39t41.5 -102v-7q0 -38 -18.5 -73.5t-60.5 -50.5q49 -8 78.5 -41t29.5 -83v-8q0 -36 -10.5 -67t-32.5 -54t-56.5 -36t-82.5 -13q-54 0 -99.5 18t-77.5 45v-55h-105zM213 684q-32 -47 -52.5 -93.5t-32.5 -91.5t-16.5 -87.5t-4.5 -79.5v-46q0 -36 4 -77.5
t15.5 -87.5t32 -94.5t54.5 -98.5h-82q-32 42 -53.5 89t-34.5 94t-18.5 93t-5.5 87v36q0 40 5.5 85t18.5 91.5t34.5 92.5t53.5 88h82zM779 684q32 -42 53.5 -88t34.5 -92.5t18.5 -91.5t5.5 -85v-36q0 -41 -5.5 -87t-18.5 -93t-34.5 -94t-53.5 -89h-82q34 50 54.5 98.5
t32 94.5t15.5 87.5t4 77.5v46q0 37 -5 79.5t-17 87.5t-32.5 91.5t-51.5 93.5h82z" />
    <glyph glyph-name="uni2481" unicode="&#x2481;" 
d="M213 684q-32 -47 -52.5 -93.5t-32.5 -91.5t-16.5 -87.5t-4.5 -79.5v-46q0 -36 4 -77.5t15.5 -87.5t32 -94.5t54.5 -98.5h-82q-32 42 -53.5 89t-34.5 94t-18.5 93t-5.5 87v36q0 40 5.5 85t18.5 91.5t34.5 92.5t53.5 88h82zM779 684q32 -42 53.5 -88t34.5 -92.5t18.5 -91.5
t5.5 -85v-36q0 -41 -5.5 -87t-18.5 -93t-34.5 -94t-53.5 -89h-82q34 50 54.5 98.5t32 94.5t15.5 87.5t4 77.5v46q0 37 -5 79.5t-17 87.5t-32.5 91.5t-51.5 93.5h82zM691 394v-169h71v-85h-71v-115h-101v115h-205v65l183 380h111l-174 -360h85v169h101zM272 25v433l-94 -64
l-50 92l155 97h94v-558h-105z" />
    <glyph glyph-name="uni2482" unicode="&#x2482;" 
d="M213 684q-32 -47 -52.5 -93.5t-32.5 -91.5t-16.5 -87.5t-4.5 -79.5v-46q0 -36 4 -77.5t15.5 -87.5t32 -94.5t54.5 -98.5h-82q-32 42 -53.5 89t-34.5 94t-18.5 93t-5.5 87v36q0 40 5.5 85t18.5 91.5t34.5 92.5t53.5 88h82zM779 684q32 -42 53.5 -88t34.5 -92.5t18.5 -91.5
t5.5 -85v-36q0 -41 -5.5 -87t-18.5 -93t-34.5 -94t-53.5 -89h-82q34 50 54.5 98.5t32 94.5t15.5 87.5t4 77.5v46q0 37 -5 79.5t-17 87.5t-32.5 91.5t-51.5 93.5h82zM624 217q0 39 -15.5 59.5t-54.5 20.5q-25 0 -43 -12.5t-31 -33.5h-68l17 329h269v-89h-175l-6 -132
q16 10 31 18t48 8t58.5 -13t43 -35.5t27 -52.5t9.5 -64v-13q0 -38 -10 -73t-31.5 -61.5t-56 -42.5t-82.5 -16q-55 0 -94.5 16.5t-73.5 46.5l50 87q31 -26 58 -39t64 -13q35 0 50.5 28t15.5 69v8zM272 26v432l-94 -64l-50 93l155 96h94v-557h-105z" />
    <glyph glyph-name="uni2483" unicode="&#x2483;" horiz-adv-x="970" 
 />
    <glyph glyph-name="uni2484" unicode="&#x2484;" horiz-adv-x="970" 
 />
    <glyph glyph-name="uni2485" unicode="&#x2485;" horiz-adv-x="970" 
 />
    <glyph glyph-name="uni2486" unicode="&#x2486;" horiz-adv-x="970" 
 />
    <glyph glyph-name="uni2487" unicode="&#x2487;" horiz-adv-x="970" 
 />
    <glyph glyph-name="uni249C" unicode="&#x249c;" 
d="M213 684q-32 -47 -52.5 -93.5t-32.5 -91.5t-16.5 -87.5t-4.5 -79.5v-46q0 -36 4 -77.5t15.5 -87.5t32 -94.5t54.5 -98.5h-82q-32 42 -53.5 89t-34.5 94t-18.5 93t-5.5 87v36q0 40 5.5 85t18.5 91.5t34.5 92.5t53.5 88h82zM779 684q32 -42 53.5 -88t34.5 -92.5t18.5 -91.5
t5.5 -85v-36q0 -41 -5.5 -87t-18.5 -93t-34.5 -94t-53.5 -89h-82q34 50 54.5 98.5t32 94.5t15.5 87.5t4 77.5v46q0 37 -5 79.5t-17 87.5t-32.5 91.5t-51.5 93.5h82zM416 87q-29 0 -56 6.5t-47.5 21.5t-32.5 38.5t-12 56.5v23q0 70 41 102.5t125 32.5h90v4q0 41 -14.5 53.5
t-54.5 12.5q-37 0 -65.5 -12t-51.5 -29l-54 80q32 23 74 41t99 18q38 0 70.5 -9t56 -26.5t37 -44t13.5 -61.5v-301h-102v49q-12 -29 -37.5 -42.5t-78.5 -13.5zM436 273q-33 0 -46 -11t-13 -38v-9q0 -15 14.5 -23t34.5 -8q32 0 51.5 6t30 17t13.5 28t3 38h-88z" />
    <glyph glyph-name="uni249D" unicode="&#x249d;" 
d="M213 684q-32 -47 -52.5 -93.5t-32.5 -91.5t-16.5 -87.5t-4.5 -79.5v-46q0 -36 4 -77.5t15.5 -87.5t32 -94.5t54.5 -98.5h-82q-32 42 -53.5 89t-34.5 94t-18.5 93t-5.5 87v36q0 40 5.5 85t18.5 91.5t34.5 92.5t53.5 88h82zM779 684q32 -42 53.5 -88t34.5 -92.5t18.5 -91.5
t5.5 -85v-36q0 -41 -5.5 -87t-18.5 -93t-34.5 -94t-53.5 -89h-82q34 50 54.5 98.5t32 94.5t15.5 87.5t4 77.5v46q0 37 -5 79.5t-17 87.5t-32.5 91.5t-51.5 93.5h82zM396 68v-51h-107v601h112v-200q34 40 109 40q88 0 129 -47t41 -137v-76q0 -84 -44 -135.5t-128 -51.5
q-43 0 -71.5 16.5t-39.5 40.5h-1zM572 256q0 56 -18 82t-60 26q-39 0 -68 -23t-29 -73v-80q0 -17 8.5 -31.5t22 -25.5t31 -17t35.5 -6q38 0 58 28t20 77v43z" />
    <glyph glyph-name="uni249E" unicode="&#x249e;" 
d="M213 684q-32 -47 -52.5 -93.5t-32.5 -91.5t-16.5 -87.5t-4.5 -79.5v-46q0 -36 4 -77.5t15.5 -87.5t32 -94.5t54.5 -98.5h-82q-32 42 -53.5 89t-34.5 94t-18.5 93t-5.5 87v36q0 40 5.5 85t18.5 91.5t34.5 92.5t53.5 88h82zM779 684q32 -42 53.5 -88t34.5 -92.5t18.5 -91.5
t5.5 -85v-36q0 -41 -5.5 -87t-18.5 -93t-34.5 -94t-53.5 -89h-82q34 50 54.5 98.5t32 94.5t15.5 87.5t4 77.5v46q0 37 -5 79.5t-17 87.5t-32.5 91.5t-51.5 93.5h82zM463 529q55 0 92.5 -14t67.5 -39l-53 -83q-24 19 -48 28.5t-59 9.5q-38 0 -62 -25t-24 -71v-55
q0 -53 26.5 -77.5t60.5 -24.5q42 0 69 10t48 27l52 -85q-32 -23 -73 -37t-98 -14q-99 0 -148 53.5t-49 146.5v56q0 93 52 143.5t146 50.5z" />
    <glyph glyph-name="uni249F" unicode="&#x249f;" 
d="M213 684q-32 -47 -52.5 -93.5t-32.5 -91.5t-16.5 -87.5t-4.5 -79.5v-46q0 -36 4 -77.5t15.5 -87.5t32 -94.5t54.5 -98.5h-82q-32 42 -53.5 89t-34.5 94t-18.5 93t-5.5 87v36q0 40 5.5 85t18.5 91.5t34.5 92.5t53.5 88h82zM779 684q32 -42 53.5 -88t34.5 -92.5t18.5 -91.5
t5.5 -85v-36q0 -41 -5.5 -87t-18.5 -93t-34.5 -94t-53.5 -89h-82q34 50 54.5 98.5t32 94.5t15.5 87.5t4 77.5v46q0 37 -5 79.5t-17 87.5t-32.5 91.5t-51.5 93.5h82zM527 75h-1q-13 -26 -40.5 -41t-82.5 -15q-81 0 -122 46t-41 136v79q0 87 46.5 136.5t125.5 49.5
q40 0 66 -10.5t41 -28.5v199h112v-601h-104v50zM348 221q0 -51 20 -78t58 -27q19 0 37 8.5t31 23t21 33t8 39.5v75q0 30 -25.5 52t-71.5 22q-37 0 -57.5 -28t-20.5 -77v-43z" />
    <glyph glyph-name="uni24A0" unicode="&#x24a0;" 
d="M213 684q-32 -47 -52.5 -93.5t-32.5 -91.5t-16.5 -87.5t-4.5 -79.5v-46q0 -36 4 -77.5t15.5 -87.5t32 -94.5t54.5 -98.5h-82q-32 42 -53.5 89t-34.5 94t-18.5 93t-5.5 87v36q0 40 5.5 85t18.5 91.5t34.5 92.5t53.5 88h82zM779 684q32 -42 53.5 -88t34.5 -92.5t18.5 -91.5
t5.5 -85v-36q0 -41 -5.5 -87t-18.5 -93t-34.5 -94t-53.5 -89h-82q34 50 54.5 98.5t32 94.5t15.5 87.5t4 77.5v46q0 37 -5 79.5t-17 87.5t-32.5 91.5t-51.5 93.5h82zM544 350v16q0 12 -5.5 24t-16 22.5t-27 17t-38.5 6.5q-25 0 -43 -7t-29 -18t-16.5 -25t-5.5 -28v-8h181z
M638 134q-37 -24 -79 -38t-104 -14q-43 0 -79.5 11t-63.5 35.5t-42 63t-15 93.5v40q0 54 17 93t45 64t64.5 37t75.5 12q40 0 75 -12t60.5 -35.5t40 -59t14.5 -82.5v-79h-284q0 -45 25 -65.5t68 -20.5q41 0 74 9.5t62 28.5z" />
    <glyph glyph-name="uni24A1" unicode="&#x24a1;" 
d="M213 684q-32 -47 -52.5 -93.5t-32.5 -91.5t-16.5 -87.5t-4.5 -79.5v-46q0 -36 4 -77.5t15.5 -87.5t32 -94.5t54.5 -98.5h-82q-32 42 -53.5 89t-34.5 94t-18.5 93t-5.5 87v36q0 40 5.5 85t18.5 91.5t34.5 92.5t53.5 88h82zM779 684q32 -42 53.5 -88t34.5 -92.5t18.5 -91.5
t5.5 -85v-36q0 -41 -5.5 -87t-18.5 -93t-34.5 -94t-53.5 -89h-82q34 50 54.5 98.5t32 94.5t15.5 87.5t4 77.5v46q0 37 -5 79.5t-17 87.5t-32.5 91.5t-51.5 93.5h82zM374 340h-68v94h68v41q0 61 39 96.5t109 35.5q30 0 51.5 -3.5t36.5 -8.5l-20 -91q-11 4 -26.5 6t-29.5 2
q-21 0 -34 -12t-13 -35v-31h105v-94h-105v-339h-113v339z" />
    <glyph glyph-name="uni24A2" unicode="&#x24a2;" 
d="M213 684q-32 -47 -52.5 -93.5t-32.5 -91.5t-16.5 -87.5t-4.5 -79.5v-46q0 -36 4 -77.5t15.5 -87.5t32 -94.5t54.5 -98.5h-82q-32 42 -53.5 89t-34.5 94t-18.5 93t-5.5 87v36q0 40 5.5 85t18.5 91.5t34.5 92.5t53.5 88h82zM779 684q32 -42 53.5 -88t34.5 -92.5t18.5 -91.5
t5.5 -85v-36q0 -41 -5.5 -87t-18.5 -93t-34.5 -94t-53.5 -89h-82q34 50 54.5 98.5t32 94.5t15.5 87.5t4 77.5v46q0 37 -5 79.5t-17 87.5t-32.5 91.5t-51.5 93.5h82zM539 207q-14 -21 -40 -33t-76 -12q-38 0 -68 9t-51.5 30.5t-33 56.5t-11.5 86v72q0 88 46.5 137.5
t125.5 49.5q45 0 69.5 -13t37.5 -27v33h112v-426q0 -44 -11 -79t-35 -59t-63 -37t-96 -13q-42 0 -85.5 15t-71.5 33l50 90q9 -7 22 -13.5t27.5 -12t29 -8.5t26.5 -3q51 0 73.5 21t22.5 61v42zM368 365q0 -55 21.5 -81.5t55.5 -26.5q19 0 36.5 8.5t30.5 23t20.5 33t7.5 39.5
v73q0 27 -23.5 48t-71.5 21q-38 0 -57.5 -27.5t-19.5 -75.5v-35z" />
    <glyph glyph-name="uni24A3" unicode="&#x24a3;" 
d="M213 684q-32 -47 -52.5 -93.5t-32.5 -91.5t-16.5 -87.5t-4.5 -79.5v-46q0 -36 4 -77.5t15.5 -87.5t32 -94.5t54.5 -98.5h-82q-32 42 -53.5 89t-34.5 94t-18.5 93t-5.5 87v36q0 40 5.5 85t18.5 91.5t34.5 92.5t53.5 88h82zM779 684q32 -42 53.5 -88t34.5 -92.5t18.5 -91.5
t5.5 -85v-36q0 -41 -5.5 -87t-18.5 -93t-34.5 -94t-53.5 -89h-82q34 50 54.5 98.5t32 94.5t15.5 87.5t4 77.5v46q0 37 -5 79.5t-17 87.5t-32.5 91.5t-51.5 93.5h82zM517 453q28 0 54 -9.5t46 -29t32 -50.5t12 -74v-278h-111v257q0 51 -17 69t-54 18q-17 0 -32.5 -5t-27 -16
t-18 -30t-6.5 -46v-247h-113v601h113v-208q20 25 48 36.5t74 11.5z" />
    <glyph glyph-name="uni24A4" unicode="&#x24a4;" 
d="M213 684q-32 -47 -52.5 -93.5t-32.5 -91.5t-16.5 -87.5t-4.5 -79.5v-46q0 -36 4 -77.5t15.5 -87.5t32 -94.5t54.5 -98.5h-82q-32 42 -53.5 89t-34.5 94t-18.5 93t-5.5 87v36q0 40 5.5 85t18.5 91.5t34.5 92.5t53.5 88h82zM779 684q32 -42 53.5 -88t34.5 -92.5t18.5 -91.5
t5.5 -85v-36q0 -41 -5.5 -87t-18.5 -93t-34.5 -94t-53.5 -89h-82q34 50 54.5 98.5t32 94.5t15.5 87.5t4 77.5v46q0 37 -5 79.5t-17 87.5t-32.5 91.5t-51.5 93.5h82zM397 439h112v-432h-112v432zM396 611h115v-120h-115v120z" />
    <glyph glyph-name="uni24A5" unicode="&#x24a5;" 
d="M213 684q-32 -47 -52.5 -93.5t-32.5 -91.5t-16.5 -87.5t-4.5 -79.5v-46q0 -36 4 -77.5t15.5 -87.5t32 -94.5t54.5 -98.5h-82q-32 42 -53.5 89t-34.5 94t-18.5 93t-5.5 87v36q0 40 5.5 85t18.5 91.5t34.5 92.5t53.5 88h82zM779 684q32 -42 53.5 -88t34.5 -92.5t18.5 -91.5
t5.5 -85v-36q0 -41 -5.5 -87t-18.5 -93t-34.5 -94t-53.5 -89h-82q34 50 54.5 98.5t32 94.5t15.5 87.5t4 77.5v46q0 37 -5 79.5t-17 87.5t-32.5 91.5t-51.5 93.5h82zM425 604h116v-120h-116v120zM538 118q0 -72 -34.5 -106t-112.5 -34q-27 0 -49 4t-35 9l17 89
q12 -2 26.5 -4.5t27.5 -2.5q21 0 34.5 10t13.5 41v308h112v-314z" />
    <glyph glyph-name="uni24A6" unicode="&#x24a6;" 
d="M213 684q-32 -47 -52.5 -93.5t-32.5 -91.5t-16.5 -87.5t-4.5 -79.5v-46q0 -36 4 -77.5t15.5 -87.5t32 -94.5t54.5 -98.5h-82q-32 42 -53.5 89t-34.5 94t-18.5 93t-5.5 87v36q0 40 5.5 85t18.5 91.5t34.5 92.5t53.5 88h82zM779 684q32 -42 53.5 -88t34.5 -92.5t18.5 -91.5
t5.5 -85v-36q0 -41 -5.5 -87t-18.5 -93t-34.5 -94t-53.5 -89h-82q34 50 54.5 98.5t32 94.5t15.5 87.5t4 77.5v46q0 37 -5 79.5t-17 87.5t-32.5 91.5t-51.5 93.5h82zM523 263l168 -249h-141l-104 166l-45 -49v-117h-110v601h110v-346l148 179h141z" />
    <glyph glyph-name="uni24A7" unicode="&#x24a7;" 
d="M213 684q-32 -47 -52.5 -93.5t-32.5 -91.5t-16.5 -87.5t-4.5 -79.5v-46q0 -36 4 -77.5t15.5 -87.5t32 -94.5t54.5 -98.5h-82q-32 42 -53.5 89t-34.5 94t-18.5 93t-5.5 87v36q0 40 5.5 85t18.5 91.5t34.5 92.5t53.5 88h82zM779 684q32 -42 53.5 -88t34.5 -92.5t18.5 -91.5
t5.5 -85v-36q0 -41 -5.5 -87t-18.5 -93t-34.5 -94t-53.5 -89h-82q34 50 54.5 98.5t32 94.5t15.5 87.5t4 77.5v46q0 37 -5 79.5t-17 87.5t-32.5 91.5t-51.5 93.5h82zM397 607h112v-601h-112v601z" />
    <glyph glyph-name="uni24A8" unicode="&#x24a8;" 
d="M213 684q-32 -47 -52.5 -93.5t-32.5 -91.5t-16.5 -87.5t-4.5 -79.5v-46q0 -36 4 -77.5t15.5 -87.5t32 -94.5t54.5 -98.5h-82q-32 42 -53.5 89t-34.5 94t-18.5 93t-5.5 87v36q0 40 5.5 85t18.5 91.5t34.5 92.5t53.5 88h82zM779 684q32 -42 53.5 -88t34.5 -92.5t18.5 -91.5
t5.5 -85v-36q0 -41 -5.5 -87t-18.5 -93t-34.5 -94t-53.5 -89h-82q34 50 54.5 98.5t32 94.5t15.5 87.5t4 77.5v46q0 37 -5 79.5t-17 87.5t-32.5 91.5t-51.5 93.5h82zM617 524q27 0 52 -10.5t44.5 -31.5t31.5 -52.5t12 -74.5v-271h-113v239q0 30 -4.5 49.5t-12.5 31t-20 15.5
t-27 4q-13 0 -24.5 -4t-20.5 -14t-14 -27.5t-5 -45.5v-248h-112v241q0 59 -16.5 78.5t-44.5 19.5q-31 0 -48.5 -16t-17.5 -62v-261h-113v434h106v-58q12 33 40 48.5t67 15.5q38 0 67.5 -18.5t41.5 -42.5q18 27 50.5 44t80.5 17z" />
    <glyph glyph-name="uni24A9" unicode="&#x24a9;" 
d="M213 684q-32 -47 -52.5 -93.5t-32.5 -91.5t-16.5 -87.5t-4.5 -79.5v-46q0 -36 4 -77.5t15.5 -87.5t32 -94.5t54.5 -98.5h-82q-32 42 -53.5 89t-34.5 94t-18.5 93t-5.5 87v36q0 40 5.5 85t18.5 91.5t34.5 92.5t53.5 88h82zM779 684q32 -42 53.5 -88t34.5 -92.5t18.5 -91.5
t5.5 -85v-36q0 -41 -5.5 -87t-18.5 -93t-34.5 -94t-53.5 -89h-82q34 50 54.5 98.5t32 94.5t15.5 87.5t4 77.5v46q0 37 -5 79.5t-17 87.5t-32.5 91.5t-51.5 93.5h82zM503 524q66 0 107.5 -40.5t41.5 -122.5v-277h-111v256q0 52 -17 70t-54 18q-35 0 -59.5 -21.5t-24.5 -76.5
v-246h-113v434h105v-48q9 13 20 23t25.5 17t33.5 10.5t46 3.5z" />
    <glyph glyph-name="uni24AA" unicode="&#x24aa;" 
d="M213 684q-32 -47 -52.5 -93.5t-32.5 -91.5t-16.5 -87.5t-4.5 -79.5v-46q0 -36 4 -77.5t15.5 -87.5t32 -94.5t54.5 -98.5h-82q-32 42 -53.5 89t-34.5 94t-18.5 93t-5.5 87v36q0 40 5.5 85t18.5 91.5t34.5 92.5t53.5 88h82zM779 684q32 -42 53.5 -88t34.5 -92.5t18.5 -91.5
t5.5 -85v-36q0 -41 -5.5 -87t-18.5 -93t-34.5 -94t-53.5 -89h-82q34 50 54.5 98.5t32 94.5t15.5 87.5t4 77.5v46q0 37 -5 79.5t-17 87.5t-32.5 91.5t-51.5 93.5h82zM455 532q46 0 84.5 -13t66.5 -37.5t43 -61.5t15 -85v-52q0 -48 -15 -85.5t-43 -63t-66.5 -38.5t-84.5 -13
t-84 13t-65 38.5t-42 63t-15 85.5v52q0 48 15 84.5t42 61.5t65 38t84 13zM455 181q50 0 73 27t23 83v33q0 56 -23 83.5t-73 27.5q-95 0 -95 -111v-33q0 -110 95 -110z" />
    <glyph glyph-name="uni24AB" unicode="&#x24ab;" 
d="M213 684q-32 -47 -52.5 -93.5t-32.5 -91.5t-16.5 -87.5t-4.5 -79.5v-46q0 -36 4 -77.5t15.5 -87.5t32 -94.5t54.5 -98.5h-82q-32 42 -53.5 89t-34.5 94t-18.5 93t-5.5 87v36q0 40 5.5 85t18.5 91.5t34.5 92.5t53.5 88h82zM779 684q32 -42 53.5 -88t34.5 -92.5t18.5 -91.5
t5.5 -85v-36q0 -41 -5.5 -87t-18.5 -93t-34.5 -94t-53.5 -89h-82q34 50 54.5 98.5t32 94.5t15.5 87.5t4 77.5v46q0 37 -5 79.5t-17 87.5t-32.5 91.5t-51.5 93.5h82zM507 146q-41 0 -66.5 13.5t-37.5 33.5v-210h-112v602h107v-43q12 22 41.5 36.5t78.5 14.5q82 0 123 -48
t41 -136v-75q0 -50 -13 -85.5t-36.5 -58t-55.5 -33.5t-70 -11zM574 391q0 48 -20.5 78t-57.5 30q-51 0 -73.5 -27.5t-22.5 -67.5v-81q0 -14 7 -28t19.5 -25.5t30.5 -19t39 -7.5q38 0 58 28t20 77v43z" />
    <glyph glyph-name="uni24AC" unicode="&#x24ac;" 
d="M213 684q-32 -47 -52.5 -93.5t-32.5 -91.5t-16.5 -87.5t-4.5 -79.5v-46q0 -36 4 -77.5t15.5 -87.5t32 -94.5t54.5 -98.5h-82q-32 42 -53.5 89t-34.5 94t-18.5 93t-5.5 87v36q0 40 5.5 85t18.5 91.5t34.5 92.5t53.5 88h82zM779 684q32 -42 53.5 -88t34.5 -92.5t18.5 -91.5
t5.5 -85v-36q0 -41 -5.5 -87t-18.5 -93t-34.5 -94t-53.5 -89h-82q34 50 54.5 98.5t32 94.5t15.5 87.5t4 77.5v46q0 37 -5 79.5t-17 87.5t-32.5 91.5t-51.5 93.5h82zM521 193q-14 -23 -45 -35t-71 -12q-89 0 -126 48t-37 134v79q0 87 46.5 136.5t125.5 49.5q42 0 67 -11
t40 -28v31h112v-602h-112v210zM350 348q0 -51 20 -78t58 -27q19 0 37 8.5t31 23t21 33t8 39.5v80q0 27 -23 48t-74 21q-38 0 -58 -28.5t-20 -76.5v-43z" />
    <glyph glyph-name="uni24AD" unicode="&#x24ad;" 
d="M213 684q-32 -47 -52.5 -93.5t-32.5 -91.5t-16.5 -87.5t-4.5 -79.5v-46q0 -36 4 -77.5t15.5 -87.5t32 -94.5t54.5 -98.5h-82q-32 42 -53.5 89t-34.5 94t-18.5 93t-5.5 87v36q0 40 5.5 85t18.5 91.5t34.5 92.5t53.5 88h82zM779 684q32 -42 53.5 -88t34.5 -92.5t18.5 -91.5
t5.5 -85v-36q0 -41 -5.5 -87t-18.5 -93t-34.5 -94t-53.5 -89h-82q34 50 54.5 98.5t32 94.5t15.5 87.5t4 77.5v46q0 37 -5 79.5t-17 87.5t-32.5 91.5t-51.5 93.5h82zM601 401q-9 5 -22.5 9.5t-31.5 4.5q-15 0 -31 -6t-28.5 -16.5t-21 -25t-8.5 -32.5v-262h-112v433h107v-57
q23 38 52.5 52.5t75.5 14.5q13 0 27 -3t24 -7z" />
    <glyph glyph-name="uni24AE" unicode="&#x24ae;" 
d="M213 684q-32 -47 -52.5 -93.5t-32.5 -91.5t-16.5 -87.5t-4.5 -79.5v-46q0 -36 4 -77.5t15.5 -87.5t32 -94.5t54.5 -98.5h-82q-32 42 -53.5 89t-34.5 94t-18.5 93t-5.5 87v36q0 40 5.5 85t18.5 91.5t34.5 92.5t53.5 88h82zM779 684q32 -42 53.5 -88t34.5 -92.5t18.5 -91.5
t5.5 -85v-36q0 -41 -5.5 -87t-18.5 -93t-34.5 -94t-53.5 -89h-82q34 50 54.5 98.5t32 94.5t15.5 87.5t4 77.5v46q0 37 -5 79.5t-17 87.5t-32.5 91.5t-51.5 93.5h82zM453 177q30 0 47.5 8.5t17.5 25.5v4q0 14 -17 24.5t-55 18.5q-44 9 -73.5 21t-48.5 28.5t-27 39.5t-8 54v9
q0 53 43.5 87t129.5 34q51 0 89.5 -10t73.5 -31l-52 -81q-24 13 -50.5 20t-54.5 7q-38 0 -53.5 -9t-15.5 -20v-4q0 -8 2.5 -13.5t10 -10.5t22.5 -10t39 -10q41 -9 71 -20t49.5 -27t28.5 -39t9 -56v-7q0 -25 -11 -48t-32.5 -41t-54.5 -28.5t-77 -10.5q-56 0 -103 15t-81 39
l48 85q24 -17 61.5 -30.5t71.5 -13.5z" />
    <glyph glyph-name="uni24AF" unicode="&#x24af;" 
d="M213 684q-32 -47 -52.5 -93.5t-32.5 -91.5t-16.5 -87.5t-4.5 -79.5v-46q0 -36 4 -77.5t15.5 -87.5t32 -94.5t54.5 -98.5h-82q-32 42 -53.5 89t-34.5 94t-18.5 93t-5.5 87v36q0 40 5.5 85t18.5 91.5t34.5 92.5t53.5 88h82zM779 684q32 -42 53.5 -88t34.5 -92.5t18.5 -91.5
t5.5 -85v-36q0 -41 -5.5 -87t-18.5 -93t-34.5 -94t-53.5 -89h-82q34 50 54.5 98.5t32 94.5t15.5 87.5t4 77.5v46q0 37 -5 79.5t-17 87.5t-32.5 91.5t-51.5 93.5h82zM366 380h-65v96h65v106h111v-106h106v-96h-106v-210q0 -23 10 -30.5t33 -7.5q13 0 27.5 3.5t27.5 10.5
l17 -89q-13 -8 -36.5 -14.5t-52.5 -6.5q-137 0 -137 117v227z" />
    <glyph glyph-name="uni24B0" unicode="&#x24b0;" 
d="M213 684q-32 -47 -52.5 -93.5t-32.5 -91.5t-16.5 -87.5t-4.5 -79.5v-46q0 -36 4 -77.5t15.5 -87.5t32 -94.5t54.5 -98.5h-82q-32 42 -53.5 89t-34.5 94t-18.5 93t-5.5 87v36q0 40 5.5 85t18.5 91.5t34.5 92.5t53.5 88h82zM779 684q32 -42 53.5 -88t34.5 -92.5t18.5 -91.5
t5.5 -85v-36q0 -41 -5.5 -87t-18.5 -93t-34.5 -94t-53.5 -89h-82q34 50 54.5 98.5t32 94.5t15.5 87.5t4 77.5v46q0 37 -5 79.5t-17 87.5t-32.5 91.5t-51.5 93.5h82zM416 66q-29 0 -56 9.5t-48 29.5t-33.5 50.5t-12.5 73.5v283h113v-260q0 -50 17.5 -69t57.5 -19q13 0 27 4
t25.5 15t19 29.5t7.5 48.5v251h113v-435h-105v46q-22 -29 -50 -43t-75 -14z" />
    <glyph glyph-name="uni24B1" unicode="&#x24b1;" 
d="M213 684q-32 -47 -52.5 -93.5t-32.5 -91.5t-16.5 -87.5t-4.5 -79.5v-46q0 -36 4 -77.5t15.5 -87.5t32 -94.5t54.5 -98.5h-82q-32 42 -53.5 89t-34.5 94t-18.5 93t-5.5 87v36q0 40 5.5 85t18.5 91.5t34.5 92.5t53.5 88h82zM779 684q32 -42 53.5 -88t34.5 -92.5t18.5 -91.5
t5.5 -85v-36q0 -41 -5.5 -87t-18.5 -93t-34.5 -94t-53.5 -89h-82q34 50 54.5 98.5t32 94.5t15.5 87.5t4 77.5v46q0 37 -5 79.5t-17 87.5t-32.5 91.5t-51.5 93.5h82zM379 70l-134 429h122l88 -333h2l92 333h117l-137 -429h-150z" />
    <glyph glyph-name="uni24B2" unicode="&#x24b2;" 
d="M213 684q-32 -47 -52.5 -93.5t-32.5 -91.5t-16.5 -87.5t-4.5 -79.5v-46q0 -36 4 -77.5t15.5 -87.5t32 -94.5t54.5 -98.5h-82q-32 42 -53.5 89t-34.5 94t-18.5 93t-5.5 87v36q0 40 5.5 85t18.5 91.5t34.5 92.5t53.5 88h82zM779 684q32 -42 53.5 -88t34.5 -92.5t18.5 -91.5
t5.5 -85v-36q0 -41 -5.5 -87t-18.5 -93t-34.5 -94t-53.5 -89h-82q34 50 54.5 98.5t32 94.5t15.5 87.5t4 77.5v46q0 37 -5 79.5t-17 87.5t-32.5 91.5t-51.5 93.5h82zM266 70l-106 429h120l55 -311h1l73 311h102l65 -311h1l62 311h112l-103 -429h-132l-59 278h-1l-63 -278
h-127z" />
    <glyph glyph-name="uni24B3" unicode="&#x24b3;" 
d="M213 684q-32 -47 -52.5 -93.5t-32.5 -91.5t-16.5 -87.5t-4.5 -79.5v-46q0 -36 4 -77.5t15.5 -87.5t32 -94.5t54.5 -98.5h-82q-32 42 -53.5 89t-34.5 94t-18.5 93t-5.5 87v36q0 40 5.5 85t18.5 91.5t34.5 92.5t53.5 88h82zM779 684q32 -42 53.5 -88t34.5 -92.5t18.5 -91.5
t5.5 -85v-36q0 -41 -5.5 -87t-18.5 -93t-34.5 -94t-53.5 -89h-82q34 50 54.5 98.5t32 94.5t15.5 87.5t4 77.5v46q0 37 -5 79.5t-17 87.5t-32.5 91.5t-51.5 93.5h82zM525 303l133 -222h-135l-71 132l-72 -132h-126l129 218l-127 211h136l67 -130l69 130h123z" />
    <glyph glyph-name="uni24B4" unicode="&#x24b4;" 
d="M213 684q-32 -47 -52.5 -93.5t-32.5 -91.5t-16.5 -87.5t-4.5 -79.5v-46q0 -36 4 -77.5t15.5 -87.5t32 -94.5t54.5 -98.5h-82q-32 42 -53.5 89t-34.5 94t-18.5 93t-5.5 87v36q0 40 5.5 85t18.5 91.5t34.5 92.5t53.5 88h82zM779 684q32 -42 53.5 -88t34.5 -92.5t18.5 -91.5
t5.5 -85v-36q0 -41 -5.5 -87t-18.5 -93t-34.5 -94t-53.5 -89h-82q34 50 54.5 98.5t32 94.5t15.5 87.5t4 77.5v46q0 37 -5 79.5t-17 87.5t-32.5 91.5t-51.5 93.5h82zM379 572l86 -298h3l94 298h117l-231 -607l-106 35l60 152l-149 420h126z" />
    <glyph glyph-name="uni24B5" unicode="&#x24b5;" 
d="M213 684q-32 -47 -52.5 -93.5t-32.5 -91.5t-16.5 -87.5t-4.5 -79.5v-46q0 -36 4 -77.5t15.5 -87.5t32 -94.5t54.5 -98.5h-82q-32 42 -53.5 89t-34.5 94t-18.5 93t-5.5 87v36q0 40 5.5 85t18.5 91.5t34.5 92.5t53.5 88h82zM779 684q32 -42 53.5 -88t34.5 -92.5t18.5 -91.5
t5.5 -85v-36q0 -41 -5.5 -87t-18.5 -93t-34.5 -94t-53.5 -89h-82q34 50 54.5 98.5t32 94.5t15.5 87.5t4 77.5v46q0 37 -5 79.5t-17 87.5t-32.5 91.5t-51.5 93.5h82zM624 427l-199 -242h212v-98h-360v75l211 257h-196v101h332v-93z" />
    <glyph glyph-name="uni24B6" unicode="&#x24b6;" horiz-adv-x="970" 
 />
    <glyph glyph-name="uni24B7" unicode="&#x24b7;" horiz-adv-x="970" 
 />
    <glyph glyph-name="uni24B8" unicode="&#x24b8;" horiz-adv-x="970" 
 />
    <glyph glyph-name="uni24B9" unicode="&#x24b9;" horiz-adv-x="970" 
 />
    <glyph glyph-name="uni24BA" unicode="&#x24ba;" horiz-adv-x="970" 
 />
    <glyph glyph-name="uni24BB" unicode="&#x24bb;" horiz-adv-x="970" 
 />
    <glyph glyph-name="uni24BC" unicode="&#x24bc;" horiz-adv-x="970" 
 />
    <glyph glyph-name="uni24BD" unicode="&#x24bd;" horiz-adv-x="970" 
 />
    <glyph glyph-name="uni24BE" unicode="&#x24be;" horiz-adv-x="970" 
 />
    <glyph glyph-name="uni24BF" unicode="&#x24bf;" horiz-adv-x="970" 
 />
    <glyph glyph-name="uni24C0" unicode="&#x24c0;" horiz-adv-x="970" 
 />
    <glyph glyph-name="uni24C1" unicode="&#x24c1;" horiz-adv-x="970" 
 />
    <glyph glyph-name="uni24C2" unicode="&#x24c2;" horiz-adv-x="970" 
 />
    <glyph glyph-name="uni24C3" unicode="&#x24c3;" horiz-adv-x="970" 
 />
    <glyph glyph-name="uni24C4" unicode="&#x24c4;" horiz-adv-x="970" 
 />
    <glyph glyph-name="uni24C5" unicode="&#x24c5;" horiz-adv-x="970" 
 />
    <glyph glyph-name="uni24C6" unicode="&#x24c6;" horiz-adv-x="970" 
 />
    <glyph glyph-name="uni24C7" unicode="&#x24c7;" horiz-adv-x="970" 
 />
    <glyph glyph-name="uni24C8" unicode="&#x24c8;" horiz-adv-x="970" 
 />
    <glyph glyph-name="uni24C9" unicode="&#x24c9;" horiz-adv-x="970" 
 />
    <glyph glyph-name="uni24CA" unicode="&#x24ca;" horiz-adv-x="970" 
 />
    <glyph glyph-name="uni24CB" unicode="&#x24cb;" horiz-adv-x="970" 
 />
    <glyph glyph-name="uni24CC" unicode="&#x24cc;" horiz-adv-x="970" 
 />
    <glyph glyph-name="uni24CD" unicode="&#x24cd;" horiz-adv-x="970" 
 />
    <glyph glyph-name="uni24CE" unicode="&#x24ce;" horiz-adv-x="970" 
 />
    <glyph glyph-name="uni24CF" unicode="&#x24cf;" horiz-adv-x="970" 
 />
    <glyph glyph-name="uni24D0" unicode="&#x24d0;" 
d="M418 100q-28 0 -53 6.5t-44.5 20t-31 35.5t-11.5 54v21q0 66 39 97t118 31h85v4q0 38 -13.5 50t-51.5 12q-35 0 -62 -11.5t-49 -27.5l-51 76q30 22 70 38.5t94 16.5q36 0 66.5 -8.5t53 -25t35 -41.5t12.5 -58v-284h-97v47q-11 -27 -35 -40t-74 -13zM437 275
q-32 0 -44 -10t-12 -36v-9q0 -14 14 -21.5t32 -7.5q31 0 49 5.5t28 16t13 26.5t3 36h-83zM824 306q0 81 -27.5 149.5t-76.5 118t-117 77.5t-148 28t-148 -28t-117 -77.5t-76.5 -118t-27.5 -149.5t27.5 -149.5t76.5 -118t117 -77.5t148 -28t148 28t117 77.5t76.5 118
t27.5 149.5zM896 306q0 -96 -33.5 -177t-92.5 -140t-139.5 -92t-175.5 -33q-96 0 -177 33t-139.5 92t-91.5 140t-33 177q0 95 33 176t91.5 140t139.5 92.5t177 33.5q95 0 175.5 -33.5t139.5 -92.5t92.5 -140t33.5 -176z" />
    <glyph glyph-name="uni24D1" unicode="&#x24d1;" 
d="M397 82v-48h-101v567h106v-189q31 38 103 38q82 0 121 -44.5t39 -129.5v-71q0 -80 -41.5 -128.5t-120.5 -48.5q-41 0 -68 15.5t-37 38.5h-1zM563 259q0 53 -17.5 77.5t-56.5 24.5q-37 0 -64 -21.5t-27 -68.5v-76q0 -16 8 -29.5t20.5 -23.5t29 -16t33.5 -6q37 0 55.5 26
t18.5 73v40zM824 306q0 81 -27.5 149.5t-76.5 118t-117 77.5t-148 28t-148 -28t-117 -77.5t-76.5 -118t-27.5 -149.5t27.5 -149.5t76.5 -118t117 -77.5t148 -28t148 28t117 77.5t76.5 118t27.5 149.5zM896 306q0 -96 -33.5 -177t-92.5 -140t-139.5 -92t-175.5 -33
q-96 0 -177 33t-139.5 92t-91.5 140t-33 177q0 95 33 176t91.5 140t139.5 92.5t177 33.5q95 0 175.5 -33.5t139.5 -92.5t92.5 -140t33.5 -176z" />
    <glyph glyph-name="uni24D2" unicode="&#x24d2;" 
d="M462 516q52 0 87 -13.5t64 -36.5l-50 -78q-23 18 -45.5 27t-55.5 9q-36 0 -58.5 -23.5t-22.5 -67.5v-52q0 -50 25 -73t57 -23q39 0 65 9.5t46 25.5l49 -80q-30 -22 -69 -35t-93 -13q-93 0 -139.5 50t-46.5 138v53q0 88 49.5 135.5t137.5 47.5zM824 306q0 81 -27.5 149.5
t-76.5 118t-117 77.5t-148 28t-148 -28t-117 -77.5t-76.5 -118t-27.5 -149.5t27.5 -149.5t76.5 -118t117 -77.5t148 -28t148 28t117 77.5t76.5 118t27.5 149.5zM896 306q0 -96 -33.5 -177t-92.5 -140t-139.5 -92t-175.5 -33q-96 0 -177 33t-139.5 92t-91.5 140t-33 177
q0 95 33 176t91.5 140t139.5 92.5t177 33.5q95 0 175.5 -33.5t139.5 -92.5t92.5 -140t33.5 -176z" />
    <glyph glyph-name="uni24D3" unicode="&#x24d3;" 
d="M522 89h-1q-12 -24 -38 -38.5t-78 -14.5q-76 0 -115 43.5t-39 128.5v74q0 82 43.5 129t118.5 47q38 0 62.5 -10t38.5 -27v188h106v-567h-98v47zM353 227q0 -48 19 -73.5t55 -25.5q18 0 34.5 8t29 21.5t20 31t7.5 37.5v71q0 28 -24 48.5t-67 20.5q-35 0 -54.5 -26
t-19.5 -73v-40zM824 306q0 81 -27.5 149.5t-76.5 118t-117 77.5t-148 28t-148 -28t-117 -77.5t-76.5 -118t-27.5 -149.5t27.5 -149.5t76.5 -118t117 -77.5t148 -28t148 28t117 77.5t76.5 118t27.5 149.5zM896 306q0 -96 -33.5 -177t-92.5 -140t-139.5 -92t-175.5 -33
q-96 0 -177 33t-139.5 92t-91.5 140t-33 177q0 95 33 176t91.5 140t139.5 92.5t177 33.5q95 0 175.5 -33.5t139.5 -92.5t92.5 -140t33.5 -176z" />
    <glyph glyph-name="uni24D4" unicode="&#x24d4;" 
d="M539 348v15q0 11 -5 22.5t-15.5 21.5t-25.5 16t-36 6q-48 0 -68.5 -23.5t-20.5 -50.5v-7h171zM627 144q-35 -23 -74.5 -36t-97.5 -13q-41 0 -75.5 10.5t-60 33.5t-39.5 59t-14 88v38q0 51 16 88t42.5 60.5t61 34.5t71.5 11q38 0 70.5 -11t56.5 -33.5t38 -56t14 -77.5v-75
h-268q0 -42 23.5 -61.5t64.5 -19.5q38 0 69.5 9.5t58.5 26.5zM824 306q0 81 -27.5 149.5t-76.5 118t-117 77.5t-148 28t-148 -28t-117 -77.5t-76.5 -118t-27.5 -149.5t27.5 -149.5t76.5 -118t117 -77.5t148 -28t148 28t117 77.5t76.5 118t27.5 149.5zM896 306
q0 -96 -33.5 -177t-92.5 -140t-139.5 -92t-175.5 -33q-96 0 -177 33t-139.5 92t-91.5 140t-33 177q0 95 33 176t91.5 140t139.5 92.5t177 33.5q95 0 175.5 -33.5t139.5 -92.5t92.5 -140t33.5 -176z" />
    <glyph glyph-name="uni24D5" unicode="&#x24d5;" 
d="M824 306q0 81 -27.5 149.5t-76.5 118t-117 77.5t-148 28t-148 -28t-117 -77.5t-76.5 -118t-27.5 -149.5t27.5 -149.5t76.5 -118t117 -77.5t148 -28t148 28t117 77.5t76.5 118t27.5 149.5zM896 306q0 -96 -33.5 -177t-92.5 -140t-139.5 -92t-175.5 -33q-96 0 -177 33
t-139.5 92t-91.5 140t-33 177q0 95 33 176t91.5 140t139.5 92.5t177 33.5q95 0 175.5 -33.5t139.5 -92.5t92.5 -140t33.5 -176zM379 338h-64v89h64v38q0 58 36.5 91.5t102.5 33.5q29 0 49 -3t34 -8l-18 -86q-11 3 -25 5t-28 2q-20 0 -32.5 -11t-12.5 -33v-29h99v-89h-99
v-320h-106v320z" />
    <glyph glyph-name="uni24D6" unicode="&#x24d6;" 
d="M529 212q-14 -20 -37.5 -31.5t-71.5 -11.5q-36 0 -64.5 8.5t-48.5 29t-31 53.5t-11 81v68q0 82 43.5 129t118.5 47q42 0 65.5 -11.5t35.5 -25.5v31h106v-402q0 -42 -10 -74.5t-33 -55.5t-60 -35t-90 -12q-20 0 -40.5 4t-40.5 10t-37.5 14t-30.5 17l48 85q17 -13 46.5 -24
t52.5 -11q48 0 69 19.5t21 57.5v40zM368 361q0 -52 20.5 -77t52.5 -25q18 0 34.5 8t28.5 21.5t19 31t7 37.5v69q0 26 -22 45.5t-67 19.5q-36 0 -54.5 -26t-18.5 -71v-33zM824 306q0 81 -27.5 149.5t-76.5 118t-117 77.5t-148 28t-148 -28t-117 -77.5t-76.5 -118
t-27.5 -149.5t27.5 -149.5t76.5 -118t117 -77.5t148 -28t148 28t117 77.5t76.5 118t27.5 149.5zM896 306q0 -96 -33.5 -177t-92.5 -140t-139.5 -92t-175.5 -33q-96 0 -177 33t-139.5 92t-91.5 140t-33 177q0 95 33 176t91.5 140t139.5 92.5t177 33.5q95 0 175.5 -33.5
t139.5 -92.5t92.5 -140t33.5 -176z" />
    <glyph glyph-name="uni24D7" unicode="&#x24d7;" 
d="M514 445q27 0 51.5 -8.5t43 -27.5t30 -48t11.5 -70v-262h-104v242q0 49 -16 66t-51 17q-33 0 -56.5 -20t-23.5 -72v-233h-106v567h106v-196q20 23 46 34t69 11zM824 306q0 81 -27.5 149.5t-76.5 118t-117 77.5t-148 28t-148 -28t-117 -77.5t-76.5 -118t-27.5 -149.5
t27.5 -149.5t76.5 -118t117 -77.5t148 -28t148 28t117 77.5t76.5 118t27.5 149.5zM896 306q0 -96 -33.5 -177t-92.5 -140t-139.5 -92t-175.5 -33q-96 0 -177 33t-139.5 92t-91.5 140t-33 177q0 95 33 176t91.5 140t139.5 92.5t177 33.5q95 0 175.5 -33.5t139.5 -92.5
t92.5 -140t33.5 -176z" />
    <glyph glyph-name="uni24D8" unicode="&#x24d8;" 
d="M400 432h106v-408h-106v408zM399 594h109v-113h-109v113zM824 306q0 81 -27.5 149.5t-76.5 118t-117 77.5t-148 28t-148 -28t-117 -77.5t-76.5 -118t-27.5 -149.5t27.5 -149.5t76.5 -118t117 -77.5t148 -28t148 28t117 77.5t76.5 118t27.5 149.5zM896 306
q0 -96 -33.5 -177t-92.5 -140t-139.5 -92t-175.5 -33q-96 0 -177 33t-139.5 92t-91.5 140t-33 177q0 95 33 176t91.5 140t139.5 92.5t177 33.5q95 0 175.5 -33.5t139.5 -92.5t92.5 -140t33.5 -176z" />
    <glyph glyph-name="uni24D9" unicode="&#x24d9;" 
d="M425 586h109v-113h-109v113zM532 128q0 -68 -32.5 -100t-106.5 -32q-26 0 -46.5 3.5t-32.5 8.5l16 84q11 -2 25 -4.5t26 -2.5q20 0 32.5 9.5t12.5 38.5v291h106v-296zM824 306q0 81 -27.5 149.5t-76.5 118t-117 77.5t-148 28t-148 -28t-117 -77.5t-76.5 -118
t-27.5 -149.5t27.5 -149.5t76.5 -118t117 -77.5t148 -28t148 28t117 77.5t76.5 118t27.5 149.5zM896 306q0 -96 -33.5 -177t-92.5 -140t-139.5 -92t-175.5 -33q-96 0 -177 33t-139.5 92t-91.5 140t-33 177q0 95 33 176t91.5 140t139.5 92.5t177 33.5q95 0 175.5 -33.5
t139.5 -92.5t92.5 -140t33.5 -176z" />
    <glyph glyph-name="uni24DA" unicode="&#x24da;" 
d="M521 266l159 -235h-133l-98 157l-43 -47v-110h-104v567h104v-326l140 168h133zM824 306q0 81 -27.5 149.5t-76.5 118t-117 77.5t-148 28t-148 -28t-117 -77.5t-76.5 -118t-27.5 -149.5t27.5 -149.5t76.5 -118t117 -77.5t148 -28t148 28t117 77.5t76.5 118t27.5 149.5z
M896 306q0 -96 -33.5 -177t-92.5 -140t-139.5 -92t-175.5 -33q-96 0 -177 33t-139.5 92t-91.5 140t-33 177q0 95 33 176t91.5 140t139.5 92.5t177 33.5q95 0 175.5 -33.5t139.5 -92.5t92.5 -140t33.5 -176z" />
    <glyph glyph-name="uni24DB" unicode="&#x24db;" 
d="M400 590h106v-567h-106v567zM824 306q0 81 -27.5 149.5t-76.5 118t-117 77.5t-148 28t-148 -28t-117 -77.5t-76.5 -118t-27.5 -149.5t27.5 -149.5t76.5 -118t117 -77.5t148 -28t148 28t117 77.5t76.5 118t27.5 149.5zM896 306q0 -96 -33.5 -177t-92.5 -140t-139.5 -92
t-175.5 -33q-96 0 -177 33t-139.5 92t-91.5 140t-33 177q0 95 33 176t91.5 140t139.5 92.5t177 33.5q95 0 175.5 -33.5t139.5 -92.5t92.5 -140t33.5 -176z" />
    <glyph glyph-name="uni24DC" unicode="&#x24dc;" 
d="M614 512q25 0 49 -10t42.5 -29.5t29.5 -50t11 -70.5v-256h-106v226q0 57 -16 75.5t-45 18.5q-12 0 -23 -3.5t-19 -13t-13 -26.5t-5 -43v-234h-106v228q0 55 -15.5 73.5t-41.5 18.5q-29 0 -46 -15t-17 -58v-247h-106v410h100v-55q11 32 37.5 46.5t63.5 14.5
q36 0 63.5 -17.5t39.5 -40.5q17 26 47.5 42t75.5 16zM824 306q0 81 -27.5 149.5t-76.5 118t-117 77.5t-148 28t-148 -28t-117 -77.5t-76.5 -118t-27.5 -149.5t27.5 -149.5t76.5 -118t117 -77.5t148 -28t148 28t117 77.5t76.5 118t27.5 149.5zM896 306q0 -96 -33.5 -177
t-92.5 -140t-139.5 -92t-175.5 -33q-96 0 -177 33t-139.5 92t-91.5 140t-33 177q0 95 33 176t91.5 140t139.5 92.5t177 33.5q95 0 175.5 -33.5t139.5 -92.5t92.5 -140t33.5 -176z" />
    <glyph glyph-name="uni24DD" unicode="&#x24dd;" 
d="M824 306q0 81 -27.5 149.5t-76.5 118t-117 77.5t-148 28t-148 -28t-117 -77.5t-76.5 -118t-27.5 -149.5t27.5 -149.5t76.5 -118t117 -77.5t148 -28t148 28t117 77.5t76.5 118t27.5 149.5zM896 306q0 -96 -33.5 -177t-92.5 -140t-139.5 -92t-175.5 -33q-96 0 -177 33
t-139.5 92t-91.5 140t-33 177q0 95 33 176t91.5 140t139.5 92.5t177 33.5q95 0 175.5 -33.5t139.5 -92.5t92.5 -140t33.5 -176zM504 512q62 0 101 -38t39 -116v-262h-104v242q0 49 -16 66t-51 17q-33 0 -56.5 -20t-23.5 -72v-233h-106v410h99v-45q17 24 42.5 37.5t75.5 13.5
z" />
    <glyph glyph-name="uni24DE" unicode="&#x24de;" 
d="M455 519q88 0 142.5 -47.5t54.5 -138.5v-49q0 -45 -14.5 -80t-40.5 -59t-62 -36.5t-80 -12.5q-43 0 -79 12.5t-61.5 36.5t-39.5 59t-14 80v49q0 45 14 79.5t39.5 58.5t61.5 36t79 12zM455 188q91 0 91 104v31q0 105 -91 105q-90 0 -90 -105v-31q0 -104 90 -104zM824 306
q0 81 -27.5 149.5t-76.5 118t-117 77.5t-148 28t-148 -28t-117 -77.5t-76.5 -118t-27.5 -149.5t27.5 -149.5t76.5 -118t117 -77.5t148 -28t148 28t117 77.5t76.5 118t27.5 149.5zM896 306q0 -96 -33.5 -177t-92.5 -140t-139.5 -92t-175.5 -33q-96 0 -177 33t-139.5 92
t-91.5 140t-33 177q0 95 33 176t91.5 140t139.5 92.5t177 33.5q95 0 175.5 -33.5t139.5 -92.5t92.5 -140t33.5 -176z" />
    <glyph glyph-name="uni24DF" unicode="&#x24df;" 
d="M506 154q-38 0 -62.5 13t-35.5 31v-198h-106v568h101v-40q11 20 39 34t74 14q78 0 116.5 -45t38.5 -129v-71q0 -47 -12.5 -80t-34 -55t-52 -32t-66.5 -10zM569 385q0 46 -19.5 74t-54.5 28q-48 0 -69 -26t-21 -64v-76q0 -13 6.5 -26t18.5 -24t28.5 -18t36.5 -7
q37 0 55.5 26t18.5 73v40zM824 306q0 81 -27.5 149.5t-76.5 118t-117 77.5t-148 28t-148 -28t-117 -77.5t-76.5 -118t-27.5 -149.5t27.5 -149.5t76.5 -118t117 -77.5t148 -28t148 28t117 77.5t76.5 118t27.5 149.5zM896 306q0 -96 -33.5 -177t-92.5 -140t-139.5 -92
t-175.5 -33q-96 0 -177 33t-139.5 92t-91.5 140t-33 177q0 95 33 176t91.5 140t139.5 92.5t177 33.5q95 0 175.5 -33.5t139.5 -92.5t92.5 -140t33.5 -176z" />
    <glyph glyph-name="uni24E0" unicode="&#x24e0;" 
d="M824 306q0 81 -27.5 149.5t-76.5 118t-117 77.5t-148 28t-148 -28t-117 -77.5t-76.5 -118t-27.5 -149.5t27.5 -149.5t76.5 -118t117 -77.5t148 -28t148 28t117 77.5t76.5 118t27.5 149.5zM896 306q0 -96 -33.5 -177t-92.5 -140t-139.5 -92t-175.5 -33q-96 0 -177 33
t-139.5 92t-91.5 140t-33 177q0 95 33 176t91.5 140t139.5 92.5t177 33.5q95 0 175.5 -33.5t139.5 -92.5t92.5 -140t33.5 -176zM506 198q-14 -22 -42.5 -33t-66.5 -11q-84 0 -119 45t-35 127v74q0 82 43.5 129t118.5 47q40 0 63.5 -10.5t37.5 -26.5v29h106v-568h-106v198z
M345 345q0 -48 19 -73.5t55 -25.5q18 0 34.5 8t29 21.5t20 31t7.5 37.5v75q0 26 -21.5 45.5t-69.5 19.5q-37 0 -55.5 -27t-18.5 -72v-40z" />
    <glyph glyph-name="uni24E1" unicode="&#x24e1;" 
d="M600 395q-9 5 -21.5 9t-29.5 4q-14 0 -29 -5.5t-27 -15t-20 -23.5t-8 -31v-247h-106v408h101v-54q21 35 49 49t72 14q12 0 25.5 -2.5t22.5 -6.5zM824 306q0 81 -27.5 149.5t-76.5 118t-117 77.5t-148 28t-148 -28t-117 -77.5t-76.5 -118t-27.5 -149.5t27.5 -149.5
t76.5 -118t117 -77.5t148 -28t148 28t117 77.5t76.5 118t27.5 149.5zM896 306q0 -96 -33.5 -177t-92.5 -140t-139.5 -92t-175.5 -33q-96 0 -177 33t-139.5 92t-91.5 140t-33 177q0 95 33 176t91.5 140t139.5 92.5t177 33.5q95 0 175.5 -33.5t139.5 -92.5t92.5 -140
t33.5 -176z" />
    <glyph glyph-name="uni24E2" unicode="&#x24e2;" 
d="M824 306q0 81 -27.5 149.5t-76.5 118t-117 77.5t-148 28t-148 -28t-117 -77.5t-76.5 -118t-27.5 -149.5t27.5 -149.5t76.5 -118t117 -77.5t148 -28t148 28t117 77.5t76.5 118t27.5 149.5zM896 306q0 -96 -33.5 -177t-92.5 -140t-139.5 -92t-175.5 -33q-96 0 -177 33
t-139.5 92t-91.5 140t-33 177q0 95 33 176t91.5 140t139.5 92.5t177 33.5q95 0 175.5 -33.5t139.5 -92.5t92.5 -140t33.5 -176zM453 184q29 0 45 8.5t16 23.5v4q0 14 -16 23.5t-52 17.5q-41 9 -69 20t-45.5 26.5t-25.5 37t-8 51.5v8q0 50 41 82t122 32q48 0 85 -9t69 -29
l-49 -77q-23 12 -48 19t-51 7q-36 0 -50.5 -8.5t-14.5 -19.5v-3q0 -7 2 -12.5t9.5 -10.5t21.5 -9.5t37 -9.5q39 -8 67 -18.5t46.5 -26t27 -37t8.5 -52.5v-7q0 -24 -10.5 -45.5t-31 -38t-51.5 -26.5t-72 -10q-53 0 -97.5 14t-76.5 37l45 80q23 -16 58.5 -29t67.5 -13z" />
    <glyph glyph-name="uni24E3" unicode="&#x24e3;" 
d="M824 306q0 81 -27.5 149.5t-76.5 118t-117 77.5t-148 28t-148 -28t-117 -77.5t-76.5 -118t-27.5 -149.5t27.5 -149.5t76.5 -118t117 -77.5t148 -28t148 28t117 77.5t76.5 118t27.5 149.5zM896 306q0 -96 -33.5 -177t-92.5 -140t-139.5 -92t-175.5 -33q-96 0 -177 33
t-139.5 92t-91.5 140t-33 177q0 95 33 176t91.5 140t139.5 92.5t177 33.5q95 0 175.5 -33.5t139.5 -92.5t92.5 -140t33.5 -176zM369 376h-62v91h62v100h104v-100h100v-91h-100v-198q0 -21 10 -28.5t31 -7.5q26 0 52 13l16 -84q-12 -7 -34 -13.5t-50 -6.5q-66 0 -97.5 27.5
t-31.5 83.5v214z" />
    <glyph glyph-name="uni24E4" unicode="&#x24e4;" 
d="M824 306q0 81 -27.5 149.5t-76.5 118t-117 77.5t-148 28t-148 -28t-117 -77.5t-76.5 -118t-27.5 -149.5t27.5 -149.5t76.5 -118t117 -77.5t148 -28t148 28t117 77.5t76.5 118t27.5 149.5zM896 306q0 -96 -33.5 -177t-92.5 -140t-139.5 -92t-175.5 -33q-96 0 -177 33
t-139.5 92t-91.5 140t-33 177q0 95 33 176t91.5 140t139.5 92.5t177 33.5q95 0 175.5 -33.5t139.5 -92.5t92.5 -140t33.5 -176zM416 79q-27 0 -52.5 9t-45 27.5t-31.5 47.5t-12 69v267h106v-245q0 -47 16.5 -65t54.5 -18q12 0 25.5 4t24.5 14t18 28t7 46v236h106v-410h-99
v43q-20 -27 -46.5 -40t-71.5 -13z" />
    <glyph glyph-name="uni24E5" unicode="&#x24e5;" 
d="M824 306q0 81 -27.5 149.5t-76.5 118t-117 77.5t-148 28t-148 -28t-117 -77.5t-76.5 -118t-27.5 -149.5t27.5 -149.5t76.5 -118t117 -77.5t148 -28t148 28t117 77.5t76.5 118t27.5 149.5zM896 306q0 -96 -33.5 -177t-92.5 -140t-139.5 -92t-175.5 -33q-96 0 -177 33
t-139.5 92t-91.5 140t-33 177q0 95 33 176t91.5 140t139.5 92.5t177 33.5q95 0 175.5 -33.5t139.5 -92.5t92.5 -140t33.5 -176zM383 82l-126 405h115l83 -314h2l87 314h110l-129 -405h-142z" />
    <glyph glyph-name="uni24E6" unicode="&#x24e6;" 
d="M824 306q0 81 -27.5 149.5t-76.5 118t-117 77.5t-148 28t-148 -28t-117 -77.5t-76.5 -118t-27.5 -149.5t27.5 -149.5t76.5 -118t117 -77.5t148 -28t148 28t117 77.5t76.5 118t27.5 149.5zM896 306q0 -96 -33.5 -177t-92.5 -140t-139.5 -92t-175.5 -33q-96 0 -177 33
t-139.5 92t-91.5 140t-33 177q0 95 33 176t91.5 140t139.5 92.5t177 33.5q95 0 175.5 -33.5t139.5 -92.5t92.5 -140t33.5 -176zM277 82l-100 405h113l52 -294h1l69 294h96l61 -294h1l59 294h105l-97 -405h-124l-56 262h-1l-59 -262h-120z" />
    <glyph glyph-name="uni24E7" unicode="&#x24e7;" 
d="M824 306q0 81 -27.5 149.5t-76.5 118t-117 77.5t-148 28t-148 -28t-117 -77.5t-76.5 -118t-27.5 -149.5t27.5 -149.5t76.5 -118t117 -77.5t148 -28t148 28t117 77.5t76.5 118t27.5 149.5zM896 306q0 -96 -33.5 -177t-92.5 -140t-139.5 -92t-175.5 -33q-96 0 -177 33
t-139.5 92t-91.5 140t-33 177q0 95 33 176t91.5 140t139.5 92.5t177 33.5q95 0 175.5 -33.5t139.5 -92.5t92.5 -140t33.5 -176zM521 303l126 -210h-128l-67 125l-68 -125h-119l122 206l-120 199h129l63 -123l65 123h116z" />
    <glyph glyph-name="uni24E8" unicode="&#x24e8;" 
d="M824 306q0 81 -27.5 149.5t-76.5 118t-117 77.5t-148 28t-148 -28t-117 -77.5t-76.5 -118t-27.5 -149.5t27.5 -149.5t76.5 -118t117 -77.5t148 -28t148 28t117 77.5t76.5 118t27.5 149.5zM896 306q0 -96 -33.5 -177t-92.5 -140t-139.5 -92t-175.5 -33q-96 0 -177 33
t-139.5 92t-91.5 140t-33 177q0 95 33 176t91.5 140t139.5 92.5t177 33.5q95 0 175.5 -33.5t139.5 -92.5t92.5 -140t33.5 -176zM384 555l81 -281h3l89 281h110l-218 -573l-100 33l57 144l-141 396h119z" />
    <glyph glyph-name="uni24E9" unicode="&#x24e9;" 
d="M824 306q0 81 -27.5 149.5t-76.5 118t-117 77.5t-148 28t-148 -28t-117 -77.5t-76.5 -118t-27.5 -149.5t27.5 -149.5t76.5 -118t117 -77.5t148 -28t148 28t117 77.5t76.5 118t27.5 149.5zM896 306q0 -96 -33.5 -177t-92.5 -140t-139.5 -92t-175.5 -33q-96 0 -177 33
t-139.5 92t-91.5 140t-33 177q0 95 33 176t91.5 140t139.5 92.5t177 33.5q95 0 175.5 -33.5t139.5 -92.5t92.5 -140t33.5 -176zM615 420l-188 -228h200v-93h-340v71l199 242h-185v96h314v-88z" />
    <glyph glyph-name="uni24EB" unicode="&#x24eb;" horiz-adv-x="970" 
 />
    <glyph glyph-name="uni24EC" unicode="&#x24ec;" horiz-adv-x="970" 
 />
    <glyph glyph-name="uni24ED" unicode="&#x24ed;" horiz-adv-x="970" 
 />
    <glyph glyph-name="uni24EE" unicode="&#x24ee;" horiz-adv-x="970" 
 />
    <glyph glyph-name="uni24EF" unicode="&#x24ef;" horiz-adv-x="970" 
 />
    <glyph glyph-name="uni24F0" unicode="&#x24f0;" horiz-adv-x="970" 
 />
    <glyph glyph-name="uni24F1" unicode="&#x24f1;" horiz-adv-x="970" 
 />
    <glyph glyph-name="uni24F2" unicode="&#x24f2;" horiz-adv-x="970" 
 />
    <glyph glyph-name="uni24F3" unicode="&#x24f3;" horiz-adv-x="970" 
 />
    <glyph glyph-name="uni24F4" unicode="&#x24f4;" horiz-adv-x="970" 
 />
    <glyph glyph-name="SF100000" unicode="&#x2500;" horiz-adv-x="920" 
d="M920 286h-920v29h920v-29z" />
    <glyph glyph-name="uni2501" unicode="&#x2501;" horiz-adv-x="920" 
d="M920 271h-920v54h920v-54z" />
    <glyph glyph-name="SF110000" unicode="&#x2502;" horiz-adv-x="920" 
d="M475 -200h-29v1000h29v-1000z" />
    <glyph glyph-name="uni2503" unicode="&#x2503;" horiz-adv-x="920" 
d="M487 -200h-54v1000h54v-1000z" />
    <glyph glyph-name="SF010000" unicode="&#x250c;" horiz-adv-x="920" 
d="M920 286h-445v-486h-29v515h474v-29z" />
    <glyph glyph-name="uni250D" unicode="&#x250d;" horiz-adv-x="920" 
d="M920 264h-441v-464h-38v536h479v-72z" />
    <glyph glyph-name="uni250E" unicode="&#x250e;" horiz-adv-x="920" 
d="M920 282h-422v-482h-76v518h498v-36z" />
    <glyph glyph-name="uni250F" unicode="&#x250f;" horiz-adv-x="920" 
d="M920 271h-433v-471h-54v525h487v-54z" />
    <glyph glyph-name="SF030000" unicode="&#x2510;" horiz-adv-x="920" 
d="M475 -200h-29v486h-446v29h475v-515z" />
    <glyph glyph-name="uni2511" unicode="&#x2511;" horiz-adv-x="920" 
d="M479 -200h-38v464h-441v72h479v-536z" />
    <glyph glyph-name="uni2512" unicode="&#x2512;" horiz-adv-x="920" 
d="M498 -200h-76v482h-422v36h498v-518z" />
    <glyph glyph-name="uni2513" unicode="&#x2513;" horiz-adv-x="920" 
d="M487 -200h-54v471h-433v54h487v-525z" />
    <glyph glyph-name="SF020000" unicode="&#x2514;" horiz-adv-x="920" 
d="M920 286h-474v514h29v-485h445v-29z" />
    <glyph glyph-name="uni2515" unicode="&#x2515;" horiz-adv-x="920" 
d="M920 264h-479v536h38v-464h441v-72z" />
    <glyph glyph-name="uni2516" unicode="&#x2516;" horiz-adv-x="920" 
d="M920 282h-498v518h76v-482h422v-36z" />
    <glyph glyph-name="uni2517" unicode="&#x2517;" horiz-adv-x="920" 
d="M920 271h-487v529h54v-475h433v-54z" />
    <glyph glyph-name="SF040000" unicode="&#x2518;" horiz-adv-x="920" 
d="M475 286h-475v29h446v485h29v-514z" />
    <glyph glyph-name="uni2519" unicode="&#x2519;" horiz-adv-x="920" 
d="M479 264h-479v72h441v464h38v-536z" />
    <glyph glyph-name="uni251A" unicode="&#x251a;" horiz-adv-x="920" 
d="M498 282h-498v36h422v482h76v-518z" />
    <glyph glyph-name="uni251B" unicode="&#x251b;" horiz-adv-x="920" 
d="M487 271h-487v54h433v475h54v-529z" />
    <glyph glyph-name="SF080000" unicode="&#x251c;" horiz-adv-x="920" 
d="M920 286h-445v-486h-29v1000h29v-485h445v-29z" />
    <glyph glyph-name="uni251D" unicode="&#x251d;" horiz-adv-x="920" 
d="M920 264h-441v-464h-38v1000h38v-464h441v-72z" />
    <glyph glyph-name="uni251E" unicode="&#x251e;" horiz-adv-x="920" 
d="M920 282h-442l1 -482h-38v500h-19v500h76v-482h422v-36z" />
    <glyph glyph-name="uni251F" unicode="&#x251f;" horiz-adv-x="920" 
d="M920 282h-422v-482h-76v500h19v500h38v-482h441v-36z" />
    <glyph glyph-name="uni2520" unicode="&#x2520;" horiz-adv-x="920" 
d="M920 282h-423v-482h-76v1000h76v-482h423v-36z" />
    <glyph glyph-name="uni2521" unicode="&#x2521;" horiz-adv-x="920" 
d="M920 264h-441v-464h-38v500h-19v500h76v-464h422v-72z" />
    <glyph glyph-name="uni2522" unicode="&#x2522;" horiz-adv-x="920" 
d="M920 264h-422v-464h-76v500h19v500h38v-464h441v-72z" />
    <glyph glyph-name="uni2523" unicode="&#x2523;" horiz-adv-x="920" 
d="M920 271h-433v-471h-54v1000h54v-475h433v-54z" />
    <glyph glyph-name="SF090000" unicode="&#x2524;" horiz-adv-x="920" 
d="M475 -200h-29v486h-446v29h446v485h29v-1000z" />
    <glyph glyph-name="uni2525" unicode="&#x2525;" horiz-adv-x="920" 
d="M479 -200h-38v464h-441v72h441v464h38v-1000z" />
    <glyph glyph-name="uni2526" unicode="&#x2526;" horiz-adv-x="920" 
d="M498 300h-19v-500h-38v482h-441v36h422v482h76v-500z" />
    <glyph glyph-name="uni2527" unicode="&#x2527;" horiz-adv-x="920" 
d="M498 -200h-76v482h-422v36h441v482h38v-500h19v-500z" />
    <glyph glyph-name="uni2528" unicode="&#x2528;" horiz-adv-x="920" 
d="M498 -200h-76v482h-422v36h422v482h76v-1000z" />
    <glyph glyph-name="uni2529" unicode="&#x2529;" horiz-adv-x="920" 
d="M498 300h-19v-500h-38v464h-441v72h422v464h76v-500z" />
    <glyph glyph-name="uni252A" unicode="&#x252a;" horiz-adv-x="920" 
d="M498 -200h-76v464h-422v72h441v464h38v-500h19v-500z" />
    <glyph glyph-name="uni252B" unicode="&#x252b;" horiz-adv-x="920" 
d="M487 -200h-54v471h-433v54h433v475h54v-1000z" />
    <glyph glyph-name="SF060000" unicode="&#x252c;" horiz-adv-x="920" 
d="M920 286h-445v-486h-29v486h-446v29h920v-29z" />
    <glyph glyph-name="uni252D" unicode="&#x252d;" horiz-adv-x="920" 
d="M920 282h-441v-482h-38v464h-441v72h460v-18h460v-36z" />
    <glyph glyph-name="uni252E" unicode="&#x252e;" horiz-adv-x="920" 
d="M920 264h-441v-464h-38v482h-441v36h460v18h460v-72z" />
    <glyph glyph-name="uni252F" unicode="&#x252f;" horiz-adv-x="920" 
d="M920 264h-441v-464h-38v464h-441v72h920v-72z" />
    <glyph glyph-name="uni2530" unicode="&#x2530;" horiz-adv-x="920" 
d="M920 282h-422v-482h-76v482h-422v36h920v-36z" />
    <glyph glyph-name="uni2531" unicode="&#x2531;" horiz-adv-x="920" 
d="M920 282h-422v-482h-76v464h-422v72h460v-18h460v-36z" />
    <glyph glyph-name="uni2532" unicode="&#x2532;" horiz-adv-x="920" 
d="M920 264h-422v-464h-76v482h-422v36h460v18h460v-72z" />
    <glyph glyph-name="uni2533" unicode="&#x2533;" horiz-adv-x="920" 
d="M920 271h-433v-471h-54v471h-433v54h920v-54z" />
    <glyph glyph-name="SF070000" unicode="&#x2534;" horiz-adv-x="920" 
d="M920 286h-920v29h446v485h29v-485h445v-29z" />
    <glyph glyph-name="uni2535" unicode="&#x2535;" horiz-adv-x="920" 
d="M920 282h-460v-18h-460v72h441v464h38v-482h441v-36z" />
    <glyph glyph-name="uni2536" unicode="&#x2536;" horiz-adv-x="920" 
d="M920 264h-460v18h-460v36h441v482h38v-464h441v-72z" />
    <glyph glyph-name="uni2537" unicode="&#x2537;" horiz-adv-x="920" 
d="M920 264h-920v72h441v464h38v-464h441v-72z" />
    <glyph glyph-name="uni2538" unicode="&#x2538;" horiz-adv-x="920" 
d="M920 282h-920v36h422v482h76v-482h422v-36z" />
    <glyph glyph-name="uni2539" unicode="&#x2539;" horiz-adv-x="920" 
d="M920 282h-460v-18h-460v72h422v464h76v-482h422v-36z" />
    <glyph glyph-name="uni253A" unicode="&#x253a;" horiz-adv-x="920" 
d="M920 264h-460v18h-460v36h422v482h76v-464h422v-72z" />
    <glyph glyph-name="uni253B" unicode="&#x253b;" horiz-adv-x="920" 
d="M920 271h-920v54h433v475h54v-475h433v-54z" />
    <glyph glyph-name="SF050000" unicode="&#x253c;" horiz-adv-x="920" 
d="M920 285h-445v-485h-29v485h-446v29h446v486h29v-486h445v-29z" />
    <glyph glyph-name="uni253D" unicode="&#x253d;" horiz-adv-x="920" 
d="M920 282h-441v-482h-38v464h-441v76h441v460h38v-482h441v-36z" />
    <glyph glyph-name="uni253E" unicode="&#x253e;" horiz-adv-x="920" 
d="M920 264h-441v-464h-38v482h-441v36h441v482h38v-464h441v-72z" />
    <glyph glyph-name="uni253F" unicode="&#x253f;" horiz-adv-x="920" 
d="M920 264h-441v-464h-38v464h-441v72h441v464h38v-464h441v-72z" />
    <glyph glyph-name="uni2540" unicode="&#x2540;" horiz-adv-x="920" 
d="M920 282h-441v-482h-38v482h-441v36h422v482h76v-482h422v-36z" />
    <glyph glyph-name="uni2541" unicode="&#x2541;" horiz-adv-x="920" 
d="M920 282h-422v-482h-76v482h-422v36h441v482h38v-482h441v-36z" />
    <glyph glyph-name="uni2542" unicode="&#x2542;" horiz-adv-x="920" 
d="M920 282h-422v-482h-76v482h-422v36h422v482h76v-482h422v-36z" />
    <glyph glyph-name="uni2543" unicode="&#x2543;" horiz-adv-x="920" 
d="M920 282h-441v-482h-38v464h-441v72h422v464h76v-482h422v-36z" />
    <glyph glyph-name="uni2544" unicode="&#x2544;" horiz-adv-x="920" 
d="M920 264h-441v-464h-38v482h-441v36h422v482h76v-464h422v-72z" />
    <glyph glyph-name="uni2545" unicode="&#x2545;" horiz-adv-x="920" 
d="M920 282h-422v-482h-76v464h-422v72h441v464h38v-482h441v-36z" />
    <glyph glyph-name="uni2546" unicode="&#x2546;" horiz-adv-x="920" 
d="M920 264h-422v-464h-76v482h-422v36h441v482h38v-464h441v-72z" />
    <glyph glyph-name="uni2547" unicode="&#x2547;" horiz-adv-x="920" 
d="M920 264h-441v-464h-38v464h-441v72h422v464h76v-464h422v-72z" />
    <glyph glyph-name="uni2548" unicode="&#x2548;" horiz-adv-x="920" 
d="M920 264h-422v-464h-76v464h-422v72h441v464h38v-464h441v-72z" />
    <glyph glyph-name="uni2549" unicode="&#x2549;" horiz-adv-x="920" 
d="M920 282h-422v-482h-76v464h-422v72h422v464h76v-482h422v-36z" />
    <glyph glyph-name="uni254A" unicode="&#x254a;" horiz-adv-x="920" 
d="M920 264h-422v-464h-76v482h-422v36h422v482h76v-464h422v-72z" />
    <glyph glyph-name="uni254B" unicode="&#x254b;" horiz-adv-x="920" 
d="M920 271h-433v-471h-54v471h-433v54h433v475h54v-475h433v-54z" />
    <glyph glyph-name="shade" unicode="&#x2592;" 
d="M827 -74h-744v743h744v-743zM794 -41v677h-678v-677h678zM762 581q0 -11 -7.5 -18t-18.5 -7q-25 0 -25 25q0 11 7 18.5t18 7.5t18.5 -7.5t7.5 -18.5zM668 581q0 -25 -25 -25t-25 25q0 11 7 18.5t18 7.5t18 -7.5t7 -18.5zM762 487q0 -10 -7.5 -17t-18.5 -7t-18 7t-7 17
q0 11 7 18.5t18 7.5t18.5 -7.5t7.5 -18.5zM668 487q0 -10 -7 -17t-18 -7t-18 7t-7 17q0 11 7 18.5t18 7.5t18 -7.5t7 -18.5zM575 581q0 -11 -7.5 -18t-18.5 -7t-18.5 7t-7.5 18t7.5 18.5t18.5 7.5t18.5 -7.5t7.5 -18.5zM762 394q0 -11 -7.5 -18.5t-18.5 -7.5t-18 7.5
t-7 18.5t7 18.5t18 7.5t18.5 -7.5t7.5 -18.5zM575 487q0 -10 -7.5 -17t-18.5 -7t-18.5 7t-7.5 17q0 11 7.5 18.5t18.5 7.5t18.5 -7.5t7.5 -18.5zM668 394q0 -11 -7 -18.5t-18 -7.5t-18 7.5t-7 18.5t7 18.5t18 7.5t18 -7.5t7 -18.5zM480 581q0 -25 -25 -25q-10 0 -17.5 7
t-7.5 18t7.5 18.5t17.5 7.5q11 0 18 -7.5t7 -18.5zM762 300q0 -10 -7.5 -17.5t-18.5 -7.5t-18 7.5t-7 17.5q0 25 25 25q11 0 18.5 -7t7.5 -18zM480 487q0 -10 -7 -17t-18 -7q-10 0 -17.5 7t-7.5 17q0 11 7.5 18.5t17.5 7.5q11 0 18 -7.5t7 -18.5zM575 394q0 -11 -7.5 -18.5
t-18.5 -7.5t-18.5 7.5t-7.5 18.5t7.5 18.5t18.5 7.5t18.5 -7.5t7.5 -18.5zM668 300q0 -10 -7 -17.5t-18 -7.5t-18 7.5t-7 17.5q0 25 25 25t25 -25zM387 581q0 -11 -7.5 -18t-18.5 -7q-25 0 -25 25q0 11 7 18.5t18 7.5t18.5 -7.5t7.5 -18.5zM762 206q0 -11 -7.5 -18.5
t-18.5 -7.5t-18 7.5t-7 18.5t7 18.5t18 7.5t18.5 -7.5t7.5 -18.5zM387 487q0 -10 -7.5 -17t-18.5 -7t-18 7t-7 17q0 11 7 18.5t18 7.5t18.5 -7.5t7.5 -18.5zM480 394q0 -11 -7 -18.5t-18 -7.5q-10 0 -17.5 7.5t-7.5 18.5t7.5 18.5t17.5 7.5q11 0 18 -7.5t7 -18.5zM575 300
q0 -10 -7.5 -17.5t-18.5 -7.5t-18.5 7.5t-7.5 17.5q0 11 7.5 18t18.5 7t18.5 -7t7.5 -18zM668 206q0 -11 -7 -18.5t-18 -7.5t-18 7.5t-7 18.5t7 18.5t18 7.5t18 -7.5t7 -18.5zM293 581q0 -11 -7.5 -18t-17.5 -7q-11 0 -18.5 7t-7.5 18t7.5 18.5t18.5 7.5q10 0 17.5 -7.5
t7.5 -18.5zM762 113q0 -11 -7.5 -18.5t-18.5 -7.5t-18 7.5t-7 18.5q0 10 7 17t18 7t18.5 -7t7.5 -17zM199 581q0 -25 -24 -25q-11 0 -18.5 7t-7.5 18t7.5 18.5t18.5 7.5t17.5 -7.5t6.5 -18.5zM293 487q0 -10 -7.5 -17t-17.5 -7q-11 0 -18.5 7t-7.5 17q0 11 7.5 18.5
t18.5 7.5q10 0 17.5 -7.5t7.5 -18.5zM387 394q0 -11 -7.5 -18.5t-18.5 -7.5t-18 7.5t-7 18.5t7 18.5t18 7.5t18.5 -7.5t7.5 -18.5zM480 300q0 -10 -7 -17.5t-18 -7.5q-10 0 -17.5 7.5t-7.5 17.5q0 11 7.5 18t17.5 7q25 0 25 -25zM575 206q0 -11 -7.5 -18.5t-18.5 -7.5
t-18.5 7.5t-7.5 18.5t7.5 18.5t18.5 7.5t18.5 -7.5t7.5 -18.5zM668 113q0 -11 -7 -18.5t-18 -7.5t-18 7.5t-7 18.5q0 10 7 17t18 7t18 -7t7 -17zM762 19q0 -11 -7.5 -18.5t-18.5 -7.5t-18 7.5t-7 18.5q0 25 25 25q11 0 18.5 -7t7.5 -18zM199 487q0 -10 -6.5 -17t-17.5 -7
t-18.5 7t-7.5 17q0 11 7.5 18.5t18.5 7.5t17.5 -7.5t6.5 -18.5zM668 19q0 -11 -7 -18.5t-18 -7.5t-18 7.5t-7 18.5q0 25 25 25t25 -25zM293 394q0 -11 -7.5 -18.5t-17.5 -7.5q-11 0 -18.5 7.5t-7.5 18.5t7.5 18.5t18.5 7.5q10 0 17.5 -7.5t7.5 -18.5zM387 300
q0 -10 -7.5 -17.5t-18.5 -7.5t-18 7.5t-7 17.5q0 25 25 25q11 0 18.5 -7t7.5 -18zM480 206q0 -11 -7 -18.5t-18 -7.5q-10 0 -17.5 7.5t-7.5 18.5t7.5 18.5t17.5 7.5q11 0 18 -7.5t7 -18.5zM575 113q0 -11 -7.5 -18.5t-18.5 -7.5t-18.5 7.5t-7.5 18.5q0 10 7.5 17t18.5 7
t18.5 -7t7.5 -17zM199 394q0 -11 -6.5 -18.5t-17.5 -7.5t-18.5 7.5t-7.5 18.5t7.5 18.5t18.5 7.5t17.5 -7.5t6.5 -18.5zM575 19q0 -11 -7.5 -18.5t-18.5 -7.5t-18.5 7.5t-7.5 18.5t7.5 18t18.5 7t18.5 -7t7.5 -18zM293 300q0 -10 -7.5 -17.5t-17.5 -7.5q-11 0 -18.5 7.5
t-7.5 17.5q0 11 7.5 18t18.5 7q10 0 17.5 -7t7.5 -18zM387 206q0 -11 -7.5 -18.5t-18.5 -7.5t-18 7.5t-7 18.5t7 18.5t18 7.5t18.5 -7.5t7.5 -18.5zM480 113q0 -11 -7 -18.5t-18 -7.5q-10 0 -17.5 7.5t-7.5 18.5q0 10 7.5 17t17.5 7q11 0 18 -7t7 -17zM199 300
q0 -10 -6.5 -17.5t-17.5 -7.5t-18.5 7.5t-7.5 17.5q0 11 7.5 18t18.5 7q24 0 24 -25zM480 19q0 -11 -7 -18.5t-18 -7.5q-10 0 -17.5 7.5t-7.5 18.5t7.5 18t17.5 7q25 0 25 -25zM293 206q0 -11 -7.5 -18.5t-17.5 -7.5q-11 0 -18.5 7.5t-7.5 18.5t7.5 18.5t18.5 7.5
q10 0 17.5 -7.5t7.5 -18.5zM387 113q0 -11 -7.5 -18.5t-18.5 -7.5t-18 7.5t-7 18.5q0 10 7 17t18 7t18.5 -7t7.5 -17zM199 206q0 -11 -6.5 -18.5t-17.5 -7.5t-18.5 7.5t-7.5 18.5t7.5 18.5t18.5 7.5t17.5 -7.5t6.5 -18.5zM387 19q0 -11 -7.5 -18.5t-18.5 -7.5t-18 7.5
t-7 18.5q0 25 25 25q11 0 18.5 -7t7.5 -18zM293 113q0 -11 -7.5 -18.5t-17.5 -7.5q-11 0 -18.5 7.5t-7.5 18.5q0 10 7.5 17t18.5 7q10 0 17.5 -7t7.5 -17zM199 113q0 -11 -6.5 -18.5t-17.5 -7.5t-18.5 7.5t-7.5 18.5q0 10 7.5 17t18.5 7t17.5 -7t6.5 -17zM293 19
q0 -11 -7.5 -18.5t-17.5 -7.5q-11 0 -18.5 7.5t-7.5 18.5t7.5 18t18.5 7q10 0 17.5 -7t7.5 -18zM199 19q0 -11 -6.5 -18.5t-17.5 -7.5t-18.5 7.5t-7.5 18.5t7.5 18t18.5 7q24 0 24 -25z" />
    <glyph glyph-name="filledbox" unicode="&#x25a0;" 
d="M103 -28v701h702v-701h-702z" />
    <glyph glyph-name="H22073" unicode="&#x25a1;" 
d="M182 598v-548h549v548h-549zM105 673h701v-701h-701v701z" />
    <glyph glyph-name="uni25A3" unicode="&#x25a3;" 
d="M833 -82h-758v757h758v-757zM781 -30v653h-654v-653h654zM679 71h-450v450h450v-450z" />
    <glyph glyph-name="uni25A4" unicode="&#x25a4;" 
d="M827 -74h-744v743h744v-743zM794 568v68h-678v-68h678zM794 463v73h-678v-73h678zM794 365v66h-678v-66h678zM794 262v71h-678v-71h678zM794 158v72h-678v-72h678zM794 58v68h-678v-68h678zM794 -41v67h-678v-67h678z" />
    <glyph glyph-name="uni25A5" unicode="&#x25a5;" 
d="M827 -74h-744v743h744v-743zM794 -41v677h-68v-677h68zM694 -41v677h-68v-677h68zM594 -41v677h-72v-677h72zM490 -41v677h-71v-677h71zM387 -41v677h-66v-677h66zM289 -41v677h-73v-677h73zM184 -41v677h-68v-677h68z" />
    <glyph glyph-name="uni25A6" unicode="&#x25a6;" 
d="M827 -74h-744v743h744v-743zM794 565v71h-71v-71h71zM794 464v71h-71v-71h71zM692 565v71h-71v-71h71zM794 363v71h-71v-71h71zM591 565v71h-71v-71h71zM692 464v71h-71v-71h71zM794 262v71h-71v-71h71zM490 565v71h-71v-71h71zM591 464v71h-71v-71h71zM692 363v71h-71
v-71h71zM794 161v71h-71v-71h71zM389 565v71h-71v-71h71zM490 464v71h-71v-71h71zM591 363v71h-71v-71h71zM692 262v71h-71v-71h71zM794 60v71h-71v-71h71zM288 565v71h-71v-71h71zM389 464v71h-71v-71h71zM490 363v71h-71v-71h71zM591 262v71h-71v-71h71zM692 161v71h-71
v-71h71zM794 -41v71h-71v-71h71zM187 565v71h-71v-71h71zM288 464v71h-71v-71h71zM389 363v71h-71v-71h71zM490 262v71h-71v-71h71zM591 161v71h-71v-71h71zM692 60v71h-71v-71h71zM692 -41v71h-71v-71h71zM187 464v71h-71v-71h71zM288 363v71h-71v-71h71zM389 262v71h-71
v-71h71zM490 161v71h-71v-71h71zM591 60v71h-71v-71h71zM591 -41v71h-71v-71h71zM187 363v71h-71v-71h71zM288 262v71h-71v-71h71zM389 161v71h-71v-71h71zM490 60v71h-71v-71h71zM490 -41v71h-71v-71h71zM187 262v71h-71v-71h71zM288 161v71h-71v-71h71zM389 60v71h-71v-71
h71zM389 -41v71h-71v-71h71zM187 161v71h-71v-71h71zM288 60v71h-71v-71h71zM288 -41v71h-71v-71h71zM187 60v71h-71v-71h71zM187 -41v71h-71v-71h71z" />
    <glyph glyph-name="uni25A7" unicode="&#x25a7;" 
d="M827 -74h-744v743h744v-743zM794 482v154h-155zM794 315v119l-203 202h-119zM794 149v118l-370 369h-118zM794 -17v118l-536 535h-117zM770 -41l-654 654v-118l536 -536h118zM604 -41l-488 488v-118l370 -370h118zM438 -41l-322 322v-118l204 -204h118zM272 -41l-156 156
v-156h156z" />
    <glyph glyph-name="uni25A8" unicode="&#x25a8;" 
d="M827 -74h-744v743h744v-743zM794 495v118l-654 -654h118zM794 329v118l-488 -488h118zM794 163v118l-322 -322h118zM794 -41v156l-156 -156h156zM271 636h-155v-154zM438 636h-119l-203 -202v-119zM604 636h-118l-370 -369v-118zM769 636h-117l-536 -535v-118z" />
    <glyph glyph-name="uni25A9" unicode="&#x25a9;" 
d="M827 -74h-744v743h744v-743zM794 482v133l-67 -67zM768 636h-129l64 -64zM770 458l-66 67l-61 -60l67 -67zM679 548l-64 64l-60 -59l65 -65zM592 636h-120l60 -60zM794 314v120l-60 -60zM508 553l-60 59l-59 -59l59 -59zM596 465l-65 63l-59 -58l65 -64zM686 375l-66 66
l-59 -59l66 -67zM770 291l-60 59l-59 -59l60 -59zM424 636h-118l59 -59zM794 149v118l-59 -59zM604 291l-68 67l-58 -59l66 -66zM341 553l-60 60l-58 -59l59 -59zM512 382l-64 64l-58 -59l64 -64zM687 208l-60 59l-58 -58l59 -60zM770 125l-59 59l-59 -59l59 -59zM424 470
l-60 59l-58 -58l60 -60zM258 636h-117l58 -58zM794 -17v118l-59 -59zM770 -41l-59 59l-59 -59h118zM175 554l-59 59v-118zM521 208l-67 68l-59 -60l66 -66zM258 471l-59 59l-59 -59l59 -59zM341 388l-59 59l-59 -59l59 -59zM429 299l-64 65l-59 -59l65 -64zM604 125l-59 59
l-59 -59l59 -59zM687 42l-59 59l-59 -59l59 -59zM604 -41l-59 59l-59 -59h118zM175 388l-59 59v-118zM258 305l-59 59l-59 -59l59 -59zM346 217l-64 64l-59 -59l64 -64zM438 125l-67 68l-60 -59l67 -68zM521 42l-59 59l-59 -59l59 -59zM175 222l-59 59v-117zM438 -41l-59 59
l-60 -59h119zM263 134l-64 64l-59 -59l64 -64zM354 43l-67 67l-59 -59l68 -68zM180 51l-64 64v-128zM272 -41l-68 68l-67 -68h135z" />
    <glyph glyph-name="uni25B1" unicode="&#x25b1;" horiz-adv-x="970" 
 />
    <glyph glyph-name="triagup" unicode="&#x25b2;" 
d="M80 -37l375 745l373 -745h-748z" />
    <glyph glyph-name="uni25B3" unicode="&#x25b3;" 
d="M718 37l-265 531l-267 -531h532zM79 -27l376 745l374 -745h-750z" />
    <glyph glyph-name="uni25B5" unicode="&#x25b5;" horiz-adv-x="970" 
 />
    <glyph glyph-name="uni25B6" unicode="&#x25b6;" 
d="M770 300l-630 -396v794z" />
    <glyph glyph-name="uni25B7" unicode="&#x25b7;" 
d="M770 300l-630 -396v794zM651 300l-447 281v-560z" />
    <glyph glyph-name="uni25B9" unicode="&#x25b9;" horiz-adv-x="970" 
 />
    <glyph glyph-name="triagdn" unicode="&#x25bc;" 
d="M828 674l-373 -745l-375 745h748z" />
    <glyph glyph-name="uni25BD" unicode="&#x25bd;" 
d="M188 609l267 -531l265 531h-532zM829 674l-374 -745l-376 745h750z" />
    <glyph glyph-name="uni25BF" unicode="&#x25bf;" horiz-adv-x="970" 
 />
    <glyph glyph-name="uni25C0" unicode="&#x25c0;" 
d="M770 -96l-630 396l630 398v-794z" />
    <glyph glyph-name="uni25C1" unicode="&#x25c1;" 
d="M770 -96l-630 396l630 398v-794zM704 21v560l-447 -281z" />
    <glyph glyph-name="uni25C3" unicode="&#x25c3;" horiz-adv-x="970" 
 />
    <glyph glyph-name="uni25C6" unicode="&#x25c6;" 
d="M58 324l397 396l397 -397l-396 -397z" />
    <glyph glyph-name="uni25C7" unicode="&#x25c7;" 
d="M455 615l-294 -291l294 -295l291 294zM455 720l396 -397l-396 -397l-397 397z" />
    <glyph glyph-name="uni25C8" unicode="&#x25c8;" 
d="M897 298l-443 -444l-443 443l444 443zM831 298l-376 375l-377 -376l376 -376zM717 297l-262 -264l-265 264l265 262z" />
    <glyph glyph-name="lozenge" unicode="&#x25ca;" horiz-adv-x="970" 
 />
    <glyph glyph-name="circle" unicode="&#x25cb;" 
d="M166 324q0 -60 23 -113t62 -92t92 -62t113 -23q61 0 113.5 23t91.5 62t61.5 92t22.5 113t-22.5 112.5t-61.5 92t-91.5 62t-113.5 22.5q-60 0 -113 -22.5t-92 -62t-62 -92t-23 -112.5zM90 324q0 75 29 141.5t78.5 116t116 78.5t142.5 29t142.5 -29t116 -78.5t78 -116
t28.5 -141.5q0 -76 -28.5 -143t-78 -116.5t-116 -78.5t-142.5 -29t-142.5 29t-116 78.5t-78.5 116.5t-29 143z" />
    <glyph glyph-name="uni25CC" unicode="&#x25cc;" horiz-adv-x="970" 
 />
    <glyph glyph-name="uni25CE" unicode="&#x25ce;" 
d="M306 324q0 -31 12 -58.5t32 -47.5t47.5 -32t58.5 -12t58 12t47 32t32 47.5t12 58.5q0 30 -12 57t-32 47.5t-47 32.5t-58 12t-58.5 -12t-47.5 -32.5t-32 -47.5t-12 -57zM241 324q0 44 17 83t46 68.5t68 46.5t84 17t84 -17t68 -46.5t46 -68.5t17 -83q0 -45 -17 -84t-46 -68
t-68 -46t-84 -17t-84 17t-68 46t-46 68t-17 84zM168 324q0 -60 22.5 -112.5t61.5 -91.5t91.5 -61.5t112.5 -22.5t113 22.5t92 61.5t61.5 91.5t22.5 112.5q0 59 -22.5 111.5t-61.5 92t-92 62.5t-113 23t-112.5 -23t-91.5 -62.5t-61.5 -92t-22.5 -111.5zM90 324q0 75 29 141.5
t78.5 116t116 78.5t142.5 29t142.5 -29t116 -78.5t78 -116t28.5 -141.5q0 -76 -28.5 -143t-78 -116.5t-116 -78.5t-142.5 -29t-142.5 29t-116 78.5t-78.5 116.5t-29 143z" />
    <glyph glyph-name="H18533" unicode="&#x25cf;" 
d="M90 324q0 75 29 141.5t78.5 116t116 78.5t142.5 29t142.5 -29t116 -78.5t78 -116t28.5 -141.5q0 -76 -28.5 -143t-78 -116.5t-116 -78.5t-142.5 -29t-142.5 29t-116 78.5t-78.5 116.5t-29 143z" />
    <glyph glyph-name="uni25D0" unicode="&#x25d0;" 
d="M845 299q0 -81 -30.5 -152t-83.5 -124t-124 -83.5t-152 -30.5q-80 0 -151 30.5t-124 83.5t-84 124t-31 152t31 152t84 124t124 83.5t151 30.5q81 0 152 -30.5t124 -83.5t83.5 -124t30.5 -152zM806 299q0 72 -28 136t-75.5 111.5t-111.5 75.5t-136 28v-701q72 0 136 27.5
t111.5 75.5t75.5 111.5t28 135.5z" />
    <glyph glyph-name="uni25D1" unicode="&#x25d1;" 
d="M845 299q0 -81 -31 -152t-84 -124t-124 -83.5t-151 -30.5q-81 0 -152 30.5t-124 83.5t-83.5 124t-30.5 152t30.5 152t83.5 124t124 83.5t152 30.5q80 0 151 -30.5t124 -83.5t84 -124t31 -152zM455 650q-72 0 -136 -28t-111.5 -75.5t-75.5 -111.5t-28 -136t28 -135.5
t75.5 -111.5t111.5 -75.5t136 -27.5v701z" />
    <glyph glyph-name="openbullet" unicode="&#x25e6;" horiz-adv-x="970" 
 />
    <glyph glyph-name="uni25EF" unicode="&#x25ef;" horiz-adv-x="970" 
 />
    <glyph glyph-name="uni2605" unicode="&#x2605;" 
d="M567 427h343l-279 -207l106 -328l-280 197l-285 -197l107 328l-281 207h350l109 325z" />
    <glyph glyph-name="uni2606" unicode="&#x2606;" 
d="M456 559l-64 -193h-208l167 -124l-65 -193l170 118l165 -118l-60 193l164 124h-205zM567 427h343l-279 -207l106 -328l-280 197l-285 -197l107 328l-281 207h350l109 325z" />
    <glyph glyph-name="uni260E" unicode="&#x260e;" 
d="M878 328q-6 -10 -20 -12.5t-32.5 -1t-39 6.5t-39.5 10q-31 9 -56 22.5t-29 31.5q-2 7 0.5 18t6.5 22t7 21.5t2 17.5q-4 20 -20 27t-35 10q-3 -23 -3 -51.5t14 -75.5q7 -26 16.5 -44.5t21 -33.5t25 -27t29.5 -25q25 -21 39 -44.5t21 -46.5t8.5 -43t1.5 -35q8 -3 12.5 -12
t7 -21t2.5 -24.5t-1 -22.5q-1 -9 -10 -12.5t-24 -3.5h-656q-15 0 -24 3.5t-10 12.5q-1 10 -1 22.5t2.5 24.5t7 21t12.5 12q0 15 1.5 35t8.5 43t21 46.5t39 44.5q16 13 29.5 25t25 27t21 33.5t16.5 44.5q13 47 13.5 75.5t-2.5 51.5q-19 -3 -35 -10t-20 -27q-2 -7 1 -17.5
t7 -21.5t7 -22t1 -18q-4 -18 -29 -31.5t-56 -22.5q-19 -5 -39.5 -10t-39 -6.5t-32.5 1t-20 12.5t-7.5 29t1.5 41.5t11.5 45t22.5 40.5q24 31 66.5 54t95.5 38t113 22t120 7t120 -7t113 -22t95.5 -38t66.5 -54q14 -18 22.5 -40.5t11.5 -45t1.5 -41.5t-7.5 -29zM533 439v65
q-14 -4 -35 -7t-43 -3t-43 3t-35 7v-65h156zM602 208q0 30 -11.5 57t-31.5 47t-47 31.5t-57 11.5t-57 -11.5t-47 -31.5t-31.5 -47t-11.5 -57t11.5 -57t31.5 -46.5t47 -31t57 -11.5t57 11.5t47 31t31.5 46.5t11.5 57z" />
    <glyph glyph-name="uni260F" unicode="&#x260f;" 
d="M517 433v53q-11 -4 -28 -7t-34 -3t-34 3t-28 7v-53h124zM838 354q6 0 8.5 14.5t-2.5 36t-19.5 46.5t-41.5 47q-21 16 -60.5 30t-86 23.5t-94.5 15t-87 5.5q-51 0 -101 -5.5t-93.5 -15t-79 -23.5t-56.5 -30q-28 -21 -42.5 -46t-19 -47t-2 -36.5t8.5 -14.5q19 -2 39 0.5
t38 7.5t33 12.5t24 16.5q6 5 4 15t-5 23.5t-4.5 28t5.5 28.5q8 18 43 29.5t101 11.5q11 0 22 -2.5t24 -4.5q16 -4 30 -6t31 -2q16 0 30 2t31 6q13 2 23 4.5t21 2.5q66 0 100.5 -10.5t45.5 -30.5q7 -14 5.5 -28.5t-5 -28t-5.5 -23.5t3 -15q9 -8 24 -15.5t33 -13t38 -8
t39 -0.5zM609 204q0 -32 -12.5 -60t-33.5 -49t-49 -33t-59 -12q-32 0 -60 12t-49 33t-33 49t-12 60q0 31 12 59t33 49t49 33.5t60 12.5q31 0 59 -12.5t49 -33.5t33.5 -49t12.5 -59zM568 204q0 24 -9 44.5t-24 35.5t-35.5 24t-44.5 9t-44.5 -9t-35.5 -24t-24 -35.5t-9 -44.5
t9 -44.5t24 -35.5t35.5 -23.5t44.5 -8.5t44.5 8.5t35.5 23.5t24 35.5t9 44.5zM878 328q-6 -10 -20 -12.5t-32.5 -1t-39 6.5t-39.5 10q-31 9 -56 22.5t-29 31.5q-2 7 0 18t5 22t5.5 21.5t1.5 17.5q-2 10 -6.5 15.5t-11.5 7.5t-15.5 2.5t-17.5 1.5q-2 -12 -3 -22.5t0 -24
t4 -30t10 -40.5q7 -26 16.5 -44.5t21 -33.5t25 -27t29.5 -25q25 -21 39 -44.5t21 -46.5t8.5 -43t1.5 -35q8 -3 12.5 -12t7 -21t2.5 -24.5t-1 -22.5q-1 -9 -10 -12.5t-24 -3.5h-656q-15 0 -24 3.5t-10 12.5q-1 10 -1 22.5t2.5 24.5t7 21t12.5 12q0 15 1.5 35t8.5 43t21 46.5
t39 44.5q16 13 29.5 25t25 27t21 33.5t16.5 44.5q6 24 9.5 40.5t4 30t-0.5 24t-2 22.5q-9 -1 -17.5 -1.5t-15.5 -2.5t-11.5 -7.5t-6.5 -15.5q-2 -7 0.5 -17.5t6 -21.5t5.5 -22t0 -18q-4 -18 -29 -31.5t-56 -22.5q-19 -5 -39.5 -10t-39 -6.5t-32.5 1t-20 12.5t-7.5 29
t1.5 40.5t11.5 44t22.5 40.5q24 31 66.5 54.5t95.5 38.5t113 22.5t120 7.5t120 -7.5t113 -22.5t95.5 -38.5t66.5 -54.5q14 -18 22.5 -40.5t11.5 -44t1.5 -40.5t-7.5 -29zM764 18q2 0 3.5 8t1 18.5t-4 20.5t-11.5 15q0 11 -2.5 28t-7.5 35t-13.5 35.5t-21.5 29.5
q-21 20 -36 34.5t-26.5 27.5t-19.5 26t-14 29q-17 48 -22 90t-2 73h-35v-88h-196v88h-37q3 -31 -1 -73t-21 -90q-6 -16 -14.5 -29t-20 -26t-27 -27.5t-36.5 -34.5q-13 -12 -21.5 -29.5t-14 -35.5t-7.5 -35t-2 -28q-8 -5 -11.5 -15t-4 -20.5t1.5 -18.5t5 -8h618z" />
    </font>
</defs>
</svg>
