<?xml version="1.0" standalone="no"?>
<!DOCTYPE svg PUBLIC "-//W3C//DTD SVG 1.1//EN" "http://www.w3.org/Graphics/SVG/1.1/DTD/svg11.dtd" >
<svg xmlns="http://www.w3.org/2000/svg" xmlns:xlink="http://www.w3.org/1999/xlink" version="1.1">
<metadata>
Created by FontForge 20170731 at Thu Jun 23 05:29:29 2016
 By Aleksey,,,
Copyright c 2016 NAVER Corporation. All rights reserved. Font designed by Sandoll Communications Inc.
</metadata>
<defs>
<font id="NanumSquareB" horiz-adv-x="910" >
  <font-face 
    font-family="NanumSquare Bold"
    font-weight="700"
    font-stretch="normal"
    units-per-em="1000"
    panose-1="2 11 6 0 0 1 1 1 1 1"
    ascent="800"
    descent="-200"
    x-height="521"
    cap-height="695"
    bbox="-62 -252 1203 847"
    underline-thickness="50"
    underline-position="-150"
    unicode-range="U+0001-FFE6"
  />
<missing-glyph 
d="M855 -143h-800v900h800v-900zM455 278l-335 -385h670zM95 -76l334 384l-334 384v-768zM454 337l334 384h-667zM815 693l-334 -386l334 -384v770z" />
    <glyph glyph-name=".notdef" 
d="M855 -143h-800v900h800v-900zM455 278l-335 -385h670zM95 -76l334 384l-334 384v-768zM454 337l334 384h-667zM815 693l-334 -386l334 -384v770z" />
    <glyph glyph-name=".null" horiz-adv-x="0" 
 />
    <glyph glyph-name="nonmarkingreturn" horiz-adv-x="333" 
 />
    <glyph glyph-name="uni0001" horiz-adv-x="250" 
 />
    <glyph glyph-name="uni0001" unicode="&#xa0;" horiz-adv-x="250" 
 />
    <glyph glyph-name="uni0001" unicode=" " horiz-adv-x="250" 
 />
    <glyph glyph-name="uni0001" horiz-adv-x="250" 
 />
    <glyph glyph-name="uni0001" horiz-adv-x="250" 
 />
    <glyph glyph-name="uni0001" horiz-adv-x="250" 
 />
    <glyph glyph-name="uni0001" horiz-adv-x="250" 
 />
    <glyph glyph-name="uni0001" horiz-adv-x="250" 
 />
    <glyph glyph-name="uni0001" horiz-adv-x="250" 
 />
    <glyph glyph-name="uni0001" horiz-adv-x="250" 
 />
    <glyph glyph-name="uni0001" horiz-adv-x="250" 
 />
    <glyph glyph-name="uni0001" horiz-adv-x="250" 
 />
    <glyph glyph-name="uni0001" horiz-adv-x="250" 
 />
    <glyph glyph-name="uni0001" horiz-adv-x="250" 
 />
    <glyph glyph-name="uni0001" horiz-adv-x="250" 
 />
    <glyph glyph-name="uni0001" horiz-adv-x="250" 
 />
    <glyph glyph-name="uni0001" horiz-adv-x="250" 
 />
    <glyph glyph-name="uni0001" horiz-adv-x="250" 
 />
    <glyph glyph-name="uni0001" horiz-adv-x="250" 
 />
    <glyph glyph-name="uni0001" horiz-adv-x="250" 
 />
    <glyph glyph-name="uni0001" horiz-adv-x="250" 
 />
    <glyph glyph-name="uni0001" unicode="&#xd;" horiz-adv-x="250" 
 />
    <glyph glyph-name="uni0001" horiz-adv-x="250" 
 />
    <glyph glyph-name="uni0001" horiz-adv-x="250" 
 />
    <glyph glyph-name="uni0001" unicode="&#xa;" horiz-adv-x="250" 
 />
    <glyph glyph-name="uni0001" unicode="&#x9;" horiz-adv-x="250" 
 />
    <glyph glyph-name="uni0001" horiz-adv-x="250" 
 />
    <glyph glyph-name="uni0001" horiz-adv-x="250" 
 />
    <glyph glyph-name="uni0001" horiz-adv-x="250" 
 />
    <glyph glyph-name="uni0001" horiz-adv-x="250" 
 />
    <glyph glyph-name="uni0001" horiz-adv-x="250" 
 />
    <glyph glyph-name="uni0001" horiz-adv-x="250" 
 />
    <glyph glyph-name="uni0001" horiz-adv-x="250" 
 />
    <glyph glyph-name="uni0001" horiz-adv-x="250" 
 />
    <glyph glyph-name="exclam" unicode="!" horiz-adv-x="300" 
d="M93 48h114v-115h-114v115zM108 151l-14 583h112l-14 -583h-84z" />
    <glyph glyph-name="quotedbl" unicode="&#x22;" horiz-adv-x="387" 
d="M70 488l-10 246h104l-10 -246h-84zM233 488l-10 246h104l-10 -246h-84z" />
    <glyph glyph-name="numbersign" unicode="#" horiz-adv-x="614" 
d="M543 262v-87h-113l-28 -201h-80l28 201h-131l-27 -201h-81l28 201h-99v87h111l21 150h-101v87h114l27 196h80l-27 -196h130l27 196h81l-28 -196h99v-87h-111l-21 -150h101zM383 412h-131l-21 -150h131z" />
    <glyph glyph-name="dollar" unicode="$" horiz-adv-x="628" 
d="M286 -21q-64 4 -124.5 25.5t-101.5 54.5l50 75q35 -27 81.5 -46.5t94.5 -24.5v240q-47 11 -86 25.5t-67 36.5t-43.5 53.5t-15.5 76.5v18q0 34 13 64t39.5 54t66 39.5t93.5 19.5v61h61v-60q59 -3 108.5 -20t84.5 -44l-48 -70q-68 45 -145 51v-231q63 -17 105.5 -35.5
t68 -42t36.5 -52t11 -64.5v-15q0 -45 -16.5 -79t-45.5 -57t-70 -36t-89 -16v-73h-61v72zM471 176q0 19 -5 35t-19 29.5t-38 25.5t-62 22v-225q62 7 93 34t31 64v15zM170 497q0 -43 30 -65t86 -39v214q-61 -6 -88.5 -33.5t-27.5 -59.5v-17z" />
    <glyph glyph-name="percent" unicode="%" horiz-adv-x="893" 
d="M186 -25l431 720h89l-430 -720h-90zM227 706q76 0 119.5 -45t43.5 -124v-42q0 -79 -43.5 -124t-119.5 -45t-119.5 45t-43.5 124v42q0 79 43.5 124t119.5 45zM227 394q85 0 85 103v38q0 103 -85 103t-85 -103v-38q0 -103 85 -103zM666 346q76 0 119.5 -45t43.5 -124v-42
q0 -79 -43.5 -124t-119.5 -45t-119.5 45t-43.5 124v42q0 79 43.5 124t119.5 45zM666 34q85 0 85 103v38q0 103 -85 103t-85 -103v-38q0 -103 85 -103z" />
    <glyph glyph-name="ampersand" unicode="&#x26;" horiz-adv-x="677" 
d="M281 49q48 0 88 16.5t70 45.5l-169 202q-35 -19 -61 -35.5t-42.5 -33.5t-24.5 -35.5t-8 -40.5v-16q0 -21 11 -39.5t31 -33t46.5 -22.5t58.5 -8zM217 544q0 -14 7 -29t17.5 -31t24 -32.5t26.5 -31.5q33 19 53 35.5t31 32t15 29.5t4 27v11q0 28 -26 47.5t-63 19.5
q-42 0 -65.5 -20.5t-23.5 -46.5v-11zM616 361q0 -152 -63 -249l116 -137h-114l-59 70q-45 -42 -101 -62t-112 -20h-6q-45 0 -87.5 11t-75.5 34t-53 58t-20 83v23q0 34 10.5 63t32 54t53.5 47t76 44q-15 18 -30.5 36.5t-27.5 38t-20 41t-8 45.5v18q0 29 11.5 55.5t34 47
t56 32.5t77.5 12q42 0 75 -13t56.5 -34t36 -47t12.5 -53v-19q0 -24 -6.5 -47t-22.5 -45.5t-43 -45.5t-68 -47l146 -171q17 32 25 73t8 104h91z" />
    <glyph glyph-name="quotesingle" unicode="'" horiz-adv-x="228" 
d="M70 488l-10 246h108l-10 -246h-88z" />
    <glyph glyph-name="parenleft" unicode="(" horiz-adv-x="337" 
d="M177 274q0 -114 30 -226t107 -218h-92q-75 89 -111 202t-36 247v40q0 134 36 246t111 201h92q-74 -100 -105.5 -210.5t-31.5 -231.5v-50z" />
    <glyph glyph-name="parenright" unicode=")" horiz-adv-x="337" 
d="M160 324q0 121 -31.5 231.5t-105.5 210.5h92q75 -89 111 -201t36 -246v-40q0 -134 -36 -247t-111 -202h-92q77 106 107 218t30 226v50z" />
    <glyph glyph-name="asterisk" unicode="*" horiz-adv-x="469" 
d="M84 400l-41 77l139 59l-139 58l41 77l119 -83l-11 143h86l-12 -143l120 83l40 -77l-139 -58l139 -59l-40 -77l-120 83l12 -142h-86l12 142z" />
    <glyph glyph-name="plus" unicode="+" horiz-adv-x="600" 
d="M345 571v-211h207v-84h-207v-225h-90v225h-207v84h207v211h90z" />
    <glyph glyph-name="comma" unicode="," horiz-adv-x="294" 
d="M100 53h115l-77 -228h-80z" />
    <glyph glyph-name="hyphen" unicode="-" horiz-adv-x="420" 
d="M46 376h326v-84h-326v84z" />
    <glyph glyph-name="period" unicode="." horiz-adv-x="294" 
d="M90 48h114v-115h-114v115z" />
    <glyph glyph-name="slash" unicode="/" horiz-adv-x="437" 
d="M419 768l-306 -896h-95l305 896h96z" />
    <glyph glyph-name="zero" unicode="0" horiz-adv-x="610" 
d="M560 279q0 -153 -62.5 -234.5t-192.5 -81.5q-129 0 -192 82t-63 234v112q0 152 64 233.5t191 81.5q128 0 191.5 -81.5t63.5 -233.5v-112zM459 392q0 66 -11.5 109t-32.5 68t-49 35t-61 10q-32 0 -60 -10t-49 -35.5t-33 -68t-12 -108.5v-114q0 -66 12 -109.5t33 -68.5
t49 -35t60 -10q33 0 61 10t49 35t32.5 68t11.5 110v114z" />
    <glyph glyph-name="one" unicode="1" horiz-adv-x="610" 
d="M326 -26v605l-169 -100l-47 80l232 136h83v-721h-99z" />
    <glyph glyph-name="two" unicode="2" horiz-adv-x="610" 
d="M333 349q31 34 49 59t27 44.5t11.5 35t2.5 29.5v8q0 43 -33.5 67.5t-90.5 24.5q-20 0 -40.5 -4.5t-40.5 -16.5t-39 -32.5t-37 -51.5l-76 49q13 23 32 48.5t46.5 47t65 35.5t87.5 14q55 0 97 -13.5t70.5 -37.5t43 -57.5t14.5 -72.5v-10q0 -59 -31 -111t-80 -104l-225 -240
h362v-86h-484v83z" />
    <glyph glyph-name="three" unicode="3" horiz-adv-x="610" 
d="M75 598q16 22 35.5 42t45 34.5t57 23t72.5 8.5q50 0 90 -13t68.5 -36.5t44 -57t15.5 -73.5v-10q0 -21 -5 -45t-18 -46t-35 -41t-55 -31q73 -13 109.5 -58t36.5 -108v-15q0 -40 -14.5 -77.5t-45 -67t-78.5 -47t-114 -17.5q-63 0 -121.5 19.5t-109.5 60.5l49 79
q53 -38 94 -53.5t88 -15.5q39 0 68 9.5t48 25.5t28 37.5t9 45.5v13q0 36 -11.5 59.5t-31.5 37.5t-47.5 20t-58.5 6h-89v86h85q34 0 57 10.5t37 27.5t20.5 39t6.5 45v8q0 24 -9.5 41.5t-25.5 29.5t-38 18t-46 6q-45 0 -78 -17t-62 -55z" />
    <glyph glyph-name="four" unicode="4" horiz-adv-x="610" 
d="M485 434v-221h102v-84h-102v-155h-98v155h-360v74l339 492h109l-332 -482h244v221h98z" />
    <glyph glyph-name="five" unicode="5" horiz-adv-x="610" 
d="M559 191q0 -40 -14 -80.5t-44 -73.5t-78 -53.5t-115 -20.5q-74 0 -134 19.5t-111 60.5l49 79q52 -41 99.5 -55t98.5 -14q39 0 67.5 12t47 31.5t27 44.5t8.5 50v12q0 72 -38 107.5t-107 35.5q-46 0 -81.5 -17t-59.5 -40h-76l23 406h391v-85h-301l-11 -225q24 18 61.5 31
t82.5 13q51 0 91 -17.5t67.5 -48t42 -71t14.5 -86.5v-15z" />
    <glyph glyph-name="six" unicode="6" horiz-adv-x="610" 
d="M488 573q-34 20 -73 31t-82 11q-37 0 -67.5 -12.5t-53 -41.5t-36 -77t-16.5 -119q9 16 25.5 30.5t39 26t50 18.5t57.5 7q48 0 89.5 -16t72 -46t48 -72.5t17.5 -95.5v-22q0 -52 -18 -94.5t-50 -73t-77.5 -47.5t-100.5 -17q-122 0 -186.5 75.5t-64.5 221.5v37
q0 118 20.5 197t57 126t87.5 66.5t112 19.5q49 0 97.5 -12t89.5 -37zM163 205q0 -70 39 -111t107 -41q70 0 110.5 38t40.5 109v13q0 72 -41 109t-107 37q-33 0 -60.5 -11t-47 -29.5t-30.5 -44t-11 -55.5v-14z" />
    <glyph glyph-name="seven" unicode="7" horiz-adv-x="610" 
d="M271 -26h-108l286 635h-392v86h499v-76z" />
    <glyph glyph-name="eight" unicode="8" horiz-adv-x="610" 
d="M185 499q0 -54 34.5 -84t85.5 -30t85.5 30t34.5 84v11q0 51 -33 80t-87 29t-87 -29t-33 -80v-11zM166 166q0 -51 37.5 -82.5t102.5 -31.5t101.5 31.5t36.5 82.5v11q0 59 -39 90t-99 31q-29 0 -54.5 -7.5t-44.5 -23t-30 -38t-11 -52.5v-11zM64 178q0 30 9.5 56.5t26.5 48
t39.5 37.5t48.5 24q-52 25 -77.5 69t-25.5 90v14q0 39 14.5 73t42.5 60t69 41t94 15q52 0 93 -15t69 -41t43 -60t15 -73v-14q0 -46 -25 -89t-78 -70q53 -16 88.5 -61t35.5 -105v-17q0 -43 -16.5 -79.5t-47.5 -62.5t-75.5 -41t-101.5 -15t-101.5 15t-75.5 41t-47.5 62.5
t-16.5 79.5v17z" />
    <glyph glyph-name="nine" unicode="9" horiz-adv-x="610" 
d="M122 98q34 -20 73 -32t82 -12q37 0 68.5 12t54 40.5t35.5 75.5t15 118q-9 -16 -26 -30.5t-39.5 -26t-49.5 -18.5t-57 -7q-48 0 -89.5 16t-72 46t-48 72.5t-17.5 95.5v22q0 52 18 95t50 74.5t77.5 49t100.5 17.5q121 0 186 -73.5t65 -219.5v-37q0 -119 -18 -198
t-53.5 -127t-87 -68t-118.5 -20q-49 0 -97.5 13t-89.5 38zM447 462q0 70 -39 112t-107 42q-70 0 -110.5 -39t-40.5 -110v-13q0 -72 42 -110t106 -38q33 0 60.5 11t47 30.5t30.5 45t11 55.5v14z" />
    <glyph glyph-name="colon" unicode=":" horiz-adv-x="354" 
d="M120 128h114v-115h-114v115zM120 574h114v-115h-114v115z" />
    <glyph glyph-name="semicolon" unicode=";" horiz-adv-x="354" 
d="M120 574h114v-115h-114v115zM130 133h115l-77 -228h-80z" />
    <glyph glyph-name="less" unicode="&#x3c;" horiz-adv-x="610" 
d="M179 318l362 -187v-100l-472 250v79l472 250v-99l-362 -187v-6z" />
    <glyph glyph-name="equal" unicode="=" horiz-adv-x="610" 
d="M74 468h462v-85h-462v85zM74 257h462v-85h-462v85z" />
    <glyph glyph-name="greater" unicode="&#x3e;" horiz-adv-x="610" 
d="M431 324l-362 187v99l472 -250v-79l-472 -250v100l362 187v6z" />
    <glyph glyph-name="question" unicode="?" horiz-adv-x="542" 
d="M198 141v46q0 25 4 44.5t14.5 38.5t28.5 40t45 48l45.5 45.5t30 34t16.5 32t5 40.5v13q0 38 -28.5 66.5t-90.5 28.5q-49 0 -89.5 -19.5t-72.5 -52.5l-60 69q39 42 92.5 66.5t127.5 24.5q105 0 163 -50t58 -132v-14q0 -37 -10.5 -65t-28 -52t-40 -45t-45.5 -43
q-17 -16 -28.5 -29.5t-19.5 -27.5t-11.5 -29.5t-3.5 -34.5v-43h-102zM193 48h114v-115h-114v115z" />
    <glyph glyph-name="at" unicode="@" horiz-adv-x="993" 
d="M758 40q-40 0 -77 20.5t-52 65.5h-1q-9 -24 -27 -40t-39.5 -26t-43.5 -14t-40 -4q-96 0 -146 54t-50 145v78q0 92 48.5 145.5t132.5 53.5q56 0 89 -17t47 -41v52h94v-315q0 -42 17 -61.5t49 -19.5q25 0 44 9.5t32 31t20 56t7 84.5v11q0 84 -24.5 150t-72.5 112.5t-118 71
t-161 24.5q-78 0 -143 -25t-111.5 -72.5t-72.5 -116.5t-26 -156v-17q0 -93 25.5 -164.5t73.5 -120t117.5 -74t156.5 -25.5q75 0 149 16.5t136 48.5l28 -70q-63 -34 -141.5 -52.5t-168.5 -18.5q-108 0 -193 32t-144 92t-90.5 145t-31.5 190v19q0 96 30.5 177.5t87 140.5
t137 92.5t181.5 33.5q111 0 196 -31.5t143 -88.5t88 -136t30 -174v-13q0 -44 -8.5 -89.5t-29.5 -83t-56.5 -61.5t-90.5 -24zM381 257q0 -57 25 -90.5t79 -33.5q21 0 40.5 5t35 17t24.5 32t9 50v88q0 20 -5.5 38.5t-18.5 33t-34 23t-51 8.5q-49 0 -76.5 -27t-27.5 -98v-46z
" />
    <glyph glyph-name="A" unicode="A" horiz-adv-x="673" 
d="M653 -26h-104l-76 212h-276l-76 -212h-101l268 721h96zM227 271h216l-60 169l-14 38.5t-11 32t-10.5 32.5t-12.5 42q-8 -25 -13 -42.5t-10 -32.5l-10.5 -31.5t-13.5 -38.5z" />
    <glyph glyph-name="B" unicode="B" horiz-adv-x="635" 
d="M82 695h256q229 0 229 -176v-21q0 -24 -6 -46.5t-19.5 -41.5t-36 -33.5t-54.5 -22.5q66 -10 107.5 -50t41.5 -115v-25q0 -89 -56.5 -139.5t-174.5 -50.5h-287v721zM181 60h151q42 0 73.5 4.5t52 16.5t30.5 32.5t10 52.5v22q0 33 -9 56t-31 38t-58 21.5t-90 6.5h-129v-250
zM181 610v-219h128q37 0 66.5 4t49.5 16t30.5 33t10.5 55v18q0 32 -9.5 50.5t-30 28t-51.5 12t-73 2.5h-121z" />
    <glyph glyph-name="C" unicode="C" horiz-adv-x="644" 
d="M604 55q-54 -52 -118 -72t-137 -20q-65 0 -118 19.5t-91 59.5t-59 99t-21 139v109q0 79 21 138t59.5 99t91.5 60t117 20q75 0 131 -18.5t107 -58.5l-51 -81q-49 40 -93.5 53t-93.5 13q-41 0 -75.5 -14t-60 -43t-39.5 -74t-14 -107v-83q0 -62 14 -107t39.5 -74t60 -43
t75.5 -14q52 0 104 16t97 60z" />
    <glyph glyph-name="D" unicode="D" horiz-adv-x="688" 
d="M321 695q149 0 226 -79.5t77 -229.5v-103q0 -150 -75 -229.5t-228 -79.5h-239v721h239zM181 62h131q48 0 87 12.5t66.5 39.5t42.5 70t15 104v93q0 61 -15 104t-42.5 70.5t-66.5 40t-87 12.5h-131v-546z" />
    <glyph glyph-name="E" unicode="E" horiz-adv-x="598" 
d="M531 695v-85h-350v-224h329v-85h-329v-242h357v-85h-456v721h449z" />
    <glyph glyph-name="F" unicode="F" horiz-adv-x="568" 
d="M528 695v-85h-347v-241h326v-85h-326v-310h-99v721h446z" />
    <glyph glyph-name="G" unicode="G" horiz-adv-x="671" 
d="M613 28q-48 -33 -112.5 -49t-132.5 -16q-72 0 -129 19.5t-96.5 59.5t-61 99t-21.5 139v109q0 79 21 138t60 99t94.5 60t124.5 20q70 0 129 -18t110 -58l-51 -80q-47 37 -92 51.5t-96 14.5q-94 0 -147.5 -57.5t-53.5 -182.5v-83q0 -125 57.5 -182.5t154.5 -57.5
q41 0 77.5 7.5t65.5 21.5v203h-160v85h259v-342z" />
    <glyph glyph-name="H" unicode="H" horiz-adv-x="697" 
d="M615 695v-721h-99v332h-335v-332h-99v721h99v-301h335v301h99z" />
    <glyph glyph-name="I" unicode="I" horiz-adv-x="263" 
d="M181 695v-721h-99v721h99z" />
    <glyph glyph-name="J" unicode="J" horiz-adv-x="472" 
d="M392 172q0 -60 -16 -100t-44 -64.5t-66 -34.5t-83 -10q-39 0 -85.5 14t-81.5 45l47 78q32 -25 60 -35t63 -10q56 0 81.5 31.5t25.5 106.5v502h99v-523z" />
    <glyph glyph-name="K" unicode="K" horiz-adv-x="655" 
d="M328 383l307 -409h-126l-249 337l-79 -85v-252h-99v721h99v-345l316 345h121z" />
    <glyph glyph-name="L" unicode="L" horiz-adv-x="546" 
d="M181 695v-636h345v-85h-444v721h99z" />
    <glyph glyph-name="M" unicode="M" horiz-adv-x="850" 
d="M213 494q-5 11 -9 21.5t-8 21.5t-9 25t-11 32v-620h-94v721h146l200 -472l195 472h145v-721h-95v620q-5 -20 -9.5 -33.5t-8 -24.5t-7.5 -21t-9 -21l-172 -400h-84z" />
    <glyph glyph-name="N" unicode="N" horiz-adv-x="701" 
d="M196 695l280 -486q11 -18 24.5 -45.5t26.5 -59.5v591h92v-721h-114l-280 484q-11 20 -24.5 47t-26.5 59v-590h-92v721h114z" />
    <glyph glyph-name="O" unicode="O" horiz-adv-x="706" 
d="M353 -37q-65 0 -118.5 19.5t-92.5 59.5t-60.5 99t-21.5 139v109q0 79 21.5 138t60.5 99t93 60t118 20t118 -20t93 -60t60.5 -99t21.5 -138v-109q0 -80 -21.5 -139t-60.5 -99t-93 -59.5t-118 -19.5zM353 616q-42 0 -77.5 -13.5t-61 -42t-40 -74t-14.5 -108.5v-87
q0 -63 14.5 -108.5t40 -74t61 -42t77.5 -13.5t77.5 13.5t61 42t40 74t14.5 108.5v87q0 63 -14.5 108.5t-40 74t-61 42t-77.5 13.5z" />
    <glyph glyph-name="P" unicode="P" horiz-adv-x="617" 
d="M82 695h258q61 0 106 -15.5t74.5 -43t44 -65.5t14.5 -82v-21q0 -44 -15.5 -82.5t-45.5 -67.5t-74.5 -46t-103.5 -17h-159v-281h-99v721zM181 609v-268h142q156 0 156 129v18q0 62 -37.5 91.5t-107.5 29.5h-153z" />
    <glyph glyph-name="Q" unicode="Q" horiz-adv-x="698" 
d="M349 -37q-65 0 -118 19.5t-91 59.5t-59 99t-21 139v109q0 79 21 138t59.5 99t91.5 60t117 20t117 -20t91.5 -60t59.5 -99t21 -138v-109q0 -72 -17 -127t-48 -94l85 -84l-59 -61l-90 89q-68 -40 -160 -40zM349 616q-41 0 -76 -13.5t-60 -42t-39 -74t-14 -108.5v-87
q0 -63 14 -108.5t39 -74t60 -42t76 -13.5q25 0 47.5 4.5t42.5 15.5l-90 90l59 61l93 -93q18 29 27.5 68t9.5 92v87q0 63 -14 108.5t-39 74t-59.5 42t-76.5 13.5z" />
    <glyph glyph-name="R" unicode="R" horiz-adv-x="645" 
d="M181 -26h-99v721h261q55 0 98 -15t72 -41t44.5 -62t15.5 -79v-26q0 -61 -31.5 -108t-89.5 -70l143 -320h-107l-130 301h-177v-301zM181 359h138q84 0 119.5 31.5t35.5 84.5v20q0 53 -35 84t-110 31h-148v-251z" />
    <glyph glyph-name="S" unicode="S" horiz-adv-x="616" 
d="M312 53q77 0 115.5 31t38.5 74v16q0 24 -8 42t-27 32t-49 25.5t-74 20.5q-51 11 -95 25.5t-76 37t-50.5 56t-18.5 82.5v18q0 37 15 71.5t46 61.5t77.5 43.5t108.5 16.5q66 0 120 -16t100 -47l-47 -77q-40 27 -81 39t-91 12q-68 0 -108.5 -30t-40.5 -73v-16
q0 -25 11 -42.5t32 -30.5t52 -22.5t71 -18.5q67 -15 111.5 -34.5t71.5 -44.5t38.5 -56t11.5 -68v-18q0 -50 -19.5 -87t-53.5 -62.5t-81.5 -38t-102.5 -12.5q-77 0 -141.5 24.5t-109.5 60.5l50 81q20 -15 46 -29t53 -24.5t54.5 -16.5t50.5 -6z" />
    <glyph glyph-name="T" unicode="T" horiz-adv-x="571" 
d="M236 -26v636h-220v85h539v-85h-220v-636h-99z" />
    <glyph glyph-name="U" unicode="U" horiz-adv-x="684" 
d="M610 695v-432q0 -82 -18 -139t-52 -93t-84 -52t-114 -16t-114 16t-84 52t-52 93t-18 139v432h99v-420q0 -61 10 -103.5t31 -69t53 -38.5t75 -12t75 12t53 38.5t31 69t10 103.5v420h99z" />
    <glyph glyph-name="V" unicode="V" horiz-adv-x="673" 
d="M128 695l209 -596l214 596h102l-272 -721h-93l-268 721h108z" />
    <glyph glyph-name="W" unicode="W" horiz-adv-x="975" 
d="M947 695l-199 -721h-99l-160 589l-163 -589h-101l-197 721h104l148 -589l161 589h96l161 -589l150 589h99z" />
    <glyph glyph-name="X" unicode="X" horiz-adv-x="655" 
d="M392 346l233 -372h-117l-183 309l-183 -309h-112l233 376l-218 345h118l170 -284l169 284h111z" />
    <glyph glyph-name="Y" unicode="Y" horiz-adv-x="625" 
d="M363 264v-290h-99v290l-248 431h110l189 -337l184 337h110z" />
    <glyph glyph-name="Z" unicode="Z" horiz-adv-x="613" 
d="M560 622l-414 -562h433v-86h-553v81l409 554h-385v86h510v-73z" />
    <glyph glyph-name="bracketleft" unicode="[" horiz-adv-x="389" 
d="M349 -170h-264v936h264v-86h-166v-764h166v-86z" />
    <glyph glyph-name="backslash" unicode="\" horiz-adv-x="959" 
d="M36 401h102l-72 294h99l64 -294h137l74 294h89l70 -294h133l63 294h95l-72 -294h105v-61h-120l-88 -366h-90l-86 366h-112l-90 -366h-94l-90 366h-117v61zM293 106l58 234h-109zM669 106l50 234h-106zM442 401h83l-40 174z" />
    <glyph glyph-name="bracketright" unicode="]" horiz-adv-x="389" 
d="M40 -84h166v764h-166v86h264v-936h-264v86z" />
    <glyph glyph-name="asciicircum" unicode="^" horiz-adv-x="524" 
d="M384 401l-122 243l-122 -243h-94l171 323h91l170 -323h-94z" />
    <glyph glyph-name="underscore" unicode="_" horiz-adv-x="500" 
d="M500 -140h-500v65h500v-65z" />
    <glyph glyph-name="grave" unicode="`" horiz-adv-x="610" 
d="M328 565l-136 148h116l109 -148h-89z" />
    <glyph glyph-name="a" unicode="a" horiz-adv-x="552" 
d="M230 -34q-83 0 -131.5 41t-48.5 113v27q0 70 47 114t152 44h139v32q0 55 -26.5 81.5t-86.5 26.5q-48 0 -83.5 -15t-73.5 -40l-48 72q40 28 90 48.5t116 20.5q46 0 84 -11.5t65.5 -34t43 -55t15.5 -73.5v-383h-93v66h-1q-8 -15 -21.5 -27.5t-29.5 -21.5
q-22 -12 -47.5 -18.5t-61.5 -6.5zM388 223h-137q-57 0 -81.5 -22t-24.5 -61v-14q0 -40 28 -58t67 -18q36 0 62.5 8.5t48.5 25.5q20 15 28.5 34.5t8.5 50.5v54z" />
    <glyph glyph-name="b" unicode="b" horiz-adv-x="596" 
d="M175 458q26 41 68.5 57t87.5 16q104 0 159 -60.5t55 -172.5v-97q0 -56 -16 -99.5t-44.5 -73.5t-68.5 -46t-88 -16q-62 0 -99 21.5t-55 50.5h-2v-64h-94v756h97v-272zM174 169q0 -21 10.5 -42.5t30 -38t45.5 -27t58 -10.5q62 0 96.5 43t34.5 121v67q0 78 -35 121t-96 43
q-30 0 -56 -10t-45.5 -28t-31 -43.5t-11.5 -57.5v-138z" />
    <glyph glyph-name="c" unicode="c" horiz-adv-x="509" 
d="M286 531q68 0 111.5 -17t77.5 -43l-46 -73q-38 28 -70.5 37.5t-72.5 9.5q-27 0 -52 -9t-44 -28.5t-30.5 -49.5t-11.5 -72v-69q0 -44 11.5 -75.5t31 -51t45 -28.5t52.5 -9q54 0 89.5 14t64.5 36l47 -74q-29 -24 -78 -43.5t-124 -19.5q-114 0 -175.5 66t-61.5 184v69
q0 59 17 104.5t47.5 77t74 48t97.5 16.5z" />
    <glyph glyph-name="d" unicode="d" horiz-adv-x="596" 
d="M423 42q-23 -42 -65.5 -59t-93.5 -17q-104 0 -158.5 60.5t-54.5 172.5v97q0 55 16 99t44.5 74t68.5 46t88 16q63 0 99.5 -21.5t53.5 -45.5v266h97v-756h-93v68h-2zM422 330q0 21 -10.5 42t-30 37.5t-46 26.5t-57.5 10q-62 0 -96.5 -43t-34.5 -121v-67q0 -78 35 -121
t96 -43q30 0 56 9.5t45.5 27.5t31 43.5t11.5 57.5v141z" />
    <glyph glyph-name="e" unicode="e" horiz-adv-x="562" 
d="M285 448q-30 0 -55.5 -10.5t-44 -29t-29 -45t-10.5 -57.5v-14h274v18q0 63 -36 100.5t-99 37.5zM501 26q-36 -25 -86 -42.5t-125 -17.5q-51 0 -94.5 14.5t-76 45t-51 78.5t-18.5 114v62q0 62 17.5 109t49 78.5t74.5 47.5t94 16q105 0 167 -64t62 -181v-73h-368v-4
q0 -78 41 -118.5t107 -40.5q54 0 92.5 13t73.5 36z" />
    <glyph glyph-name="f" unicode="f" horiz-adv-x="386" 
d="M116 438h-90v83h90v54q0 83 40.5 122t118.5 39q26 0 53.5 -4t44.5 -10l-15 -79q-36 10 -74 10q-14 0 -27 -3t-22.5 -11.5t-15.5 -24.5t-6 -43v-50h144v-83h-144v-464h-97v464z" />
    <glyph glyph-name="g" unicode="g" horiz-adv-x="596" 
d="M518 -19q0 -230 -244 -230q-56 0 -102 16t-80 42l44 76q27 -20 63.5 -33t77.5 -13q71 0 107.5 34.5t36.5 107.5v67q-23 -39 -65 -55.5t-92 -16.5q-104 0 -158.5 60.5t-54.5 172.5v87q0 55 16 99t44.5 74t68.5 46t88 16q63 0 99.5 -21.5t53.5 -45.5v57h97v-540zM422 330
q0 21 -10.5 42t-30 37.5t-46 26.5t-57.5 10q-62 0 -96.5 -43t-34.5 -121v-57q0 -78 35 -121t96 -43q30 0 56 9.5t45.5 27.5t31 43.5t11.5 57.5v131z" />
    <glyph glyph-name="h" unicode="h" horiz-adv-x="599" 
d="M529 -26h-97v340q0 69 -29 100t-90 31q-25 0 -49.5 -8.5t-44 -25t-32 -41.5t-12.5 -57v-339h-97v756h97v-275q25 37 65.5 56.5t96.5 19.5q40 0 75 -12t61 -36t41 -61t15 -86v-362z" />
    <glyph glyph-name="i" unicode="i" horiz-adv-x="259" 
d="M178 521v-547h-97v547h97zM181 717v-106h-103v106h103z" />
    <glyph glyph-name="j" unicode="j" horiz-adv-x="276" 
d="M198 717v-106h-103v106h103zM195 -88q0 -83 -40.5 -122t-118.5 -39q-26 0 -53.5 4t-44.5 10l15 79q36 -10 74 -10q14 0 27 3t22.5 11.5t15.5 24.5t6 43v605h97v-609z" />
    <glyph glyph-name="k" unicode="k" horiz-adv-x="561" 
d="M318 302l229 -328h-122l-174 260l-76 -77v-183h-97v756h97v-455l234 246h125z" />
    <glyph glyph-name="l" unicode="l" horiz-adv-x="253" 
d="M175 730v-756h-97v756h97z" />
    <glyph glyph-name="m" unicode="m" horiz-adv-x="899" 
d="M829 -26h-97v328q0 141 -103 141q-23 0 -45.5 -7.5t-40.5 -23t-29.5 -40t-11.5 -57.5v-341h-97v328q0 141 -103 141q-23 0 -45.5 -7t-40.5 -22t-29.5 -38.5t-11.5 -55.5v-346h-97v547h96v-74h1q16 36 52.5 60t93.5 24q55 0 95.5 -23.5t61.5 -67.5q26 40 65.5 65.5
t104.5 25.5q85 0 133 -51.5t48 -146.5v-359z" />
    <glyph glyph-name="n" unicode="n" horiz-adv-x="599" 
d="M529 -26h-97v340q0 69 -29 100t-90 31q-25 0 -49.5 -8.5t-44 -25t-32 -41.5t-12.5 -57v-339h-97v547h94v-69h1q25 38 66 58.5t98 20.5q40 0 75 -12t61 -36t41 -61t15 -86v-362z" />
    <glyph glyph-name="o" unicode="o" horiz-adv-x="588" 
d="M294 531q113 0 178.5 -65t65.5 -184v-67q0 -119 -65.5 -184t-178.5 -65t-178.5 65t-65.5 184v67q0 120 65.5 184.5t178.5 64.5zM294 51q65 0 105.5 42.5t40.5 129.5v51q0 87 -40.5 129.5t-105.5 42.5t-105.5 -42.5t-40.5 -129.5v-51q0 -87 40.5 -129.5t105.5 -42.5z" />
    <glyph glyph-name="p" unicode="p" horiz-adv-x="596" 
d="M172 453q24 42 67.5 60t92.5 18q104 0 158.5 -62t54.5 -171v-97q0 -57 -16 -100.5t-44.5 -73.5t-69 -45.5t-89.5 -15.5q-61 0 -97.5 22t-53.5 46v-274h-97v761h94v-68zM174 169q0 -21 10.5 -42.5t30 -38t45.5 -27t58 -10.5q62 0 96.5 43t34.5 121v67q0 78 -35 121t-96 43
q-30 0 -56 -10t-45.5 -28t-31 -43.5t-11.5 -57.5v-138z" />
    <glyph glyph-name="q" unicode="q" horiz-adv-x="596" 
d="M421 -240v278q-23 -39 -65 -55.5t-92 -16.5q-104 0 -158.5 60.5t-54.5 172.5v97q0 55 16 99t44.5 74t68.5 46t88 16q63 0 99.5 -21.5t53.5 -45.5v57h97v-761h-97zM422 330q0 21 -10.5 42t-30 37.5t-46 26.5t-57.5 10q-62 0 -96.5 -43t-34.5 -121v-67q0 -78 35 -121
t96 -43q30 0 56 9.5t45.5 27.5t31 43.5t11.5 57.5v141z" />
    <glyph glyph-name="r" unicode="r" horiz-adv-x="417" 
d="M376 426q-14 6 -30.5 9.5t-36.5 3.5q-27 0 -51.5 -10.5t-42.5 -30t-29 -46.5t-11 -59v-319h-97v547h94v-87h1q24 46 62.5 71.5t98.5 25.5q36 0 71 -11z" />
    <glyph glyph-name="s" unicode="s" horiz-adv-x="498" 
d="M248 50q54 0 84 19t30 52v8q0 17 -5 29t-19 21t-38 16.5t-63 15.5q-45 9 -80 22t-59 31.5t-36.5 44.5t-12.5 62v12q0 28 12 55t37 47.5t63.5 33t91.5 12.5q56 0 104.5 -12.5t89.5 -41.5l-43 -73q-27 20 -64.5 32t-79.5 12q-61 0 -87.5 -18.5t-26.5 -47.5v-9
q0 -32 27 -47.5t91 -27.5q50 -9 87 -22t61 -32.5t36 -46.5t12 -65v-13q0 -32 -14.5 -60t-41.5 -48.5t-65.5 -32.5t-86.5 -12q-69 0 -125 18t-95 48l45 76q37 -25 79 -41.5t92 -16.5z" />
    <glyph glyph-name="t" unicode="t" horiz-adv-x="389" 
d="M112 438h-90v83h90v138h97v-138h144v-83h-144v-311q0 -25 5 -40.5t14.5 -23.5t22.5 -11t28 -3q36 0 72 13l15 -78q-17 -7 -45 -12.5t-57 -5.5q-78 0 -115 39t-37 122v311z" />
    <glyph glyph-name="u" unicode="u" horiz-adv-x="595" 
d="M70 521h97v-340q0 -69 28 -100t89 -31q25 0 49 8.5t43.5 25t31.5 41.5t12 57v339h97v-547h-94v69h-1q-25 -38 -65 -58.5t-97 -20.5q-40 0 -74.5 12t-60 36t-40.5 60.5t-15 86.5v362z" />
    <glyph glyph-name="v" unicode="v" horiz-adv-x="522" 
d="M264 65l143 456h102l-185 -547h-124l-187 547h105l144 -456h2z" />
    <glyph glyph-name="w" unicode="w" horiz-adv-x="765" 
d="M382 400l-110 -426h-114l-142 547h102l100 -446h2l116 446h98l115 -446h2l102 446h96l-140 -547h-114l-111 426h-2z" />
    <glyph glyph-name="x" unicode="x" horiz-adv-x="525" 
d="M325 258l180 -284h-117l-127 220l-130 -220h-111l183 284l-174 263h117l121 -202l123 202h108z" />
    <glyph glyph-name="y" unicode="y" horiz-adv-x="526" 
d="M267 84l144 437h102l-284 -773l-88 31l71 187l-199 555h105l145 -437h4z" />
    <glyph glyph-name="z" unicode="z" horiz-adv-x="493" 
d="M448 446l-300 -388h315v-84h-438v70l304 392h-284v85h403v-75z" />
    <glyph glyph-name="braceleft" unicode="{" horiz-adv-x="449" 
d="M40 353q55 1 80.5 19t25.5 61v188q0 74 39.5 109.5t116.5 35.5h107v-86h-91q-43 0 -58.5 -17.5t-15.5 -68.5v-161q0 -18 -3 -37t-12 -36t-25.5 -30.5t-42.5 -19.5q25 -6 41.5 -18.5t25.5 -29.5t12.5 -36.5t3.5 -38.5v-192q0 -26 4 -41.5t12.5 -23.5t22.5 -11t35 -3h91
v-86h-107q-77 0 -116.5 32.5t-39.5 105.5v218q0 44 -25.5 62.5t-80.5 19.5v85z" />
    <glyph glyph-name="bar" unicode="|" horiz-adv-x="294" 
d="M194 -170h-94v935h94v-935z" />
    <glyph glyph-name="braceright" unicode="}" horiz-adv-x="449" 
d="M409 268q-55 -1 -80.5 -19.5t-25.5 -62.5v-218q0 -73 -39.5 -105.5t-116.5 -32.5h-107v86h91q21 0 35 3t22.5 11t12.5 23.5t4 41.5v192q0 19 3.5 38.5t12.5 36.5t25 29.5t42 18.5q-26 6 -42.5 19.5t-25.5 30.5t-12 36t-3 37v161q0 51 -15.5 68.5t-58.5 17.5h-91v86h107
q77 0 116.5 -35.5t39.5 -109.5v-188q0 -43 25.5 -61t80.5 -19v-85z" />
    <glyph glyph-name="asciitilde" unicode="~" horiz-adv-x="600" 
d="M394 232q-37 0 -62 14.5t-45.5 32.5t-38.5 32.5t-40 14.5q-15 0 -26.5 -10t-19 -24.5t-11.5 -31.5t-6 -31h-87q3 37 14.5 70t30.5 58t45 39t59 14q36 0 61.5 -14.5t45.5 -32.5t39 -32.5t42 -14.5q30 0 44.5 25.5t19.5 71.5h85q-6 -83 -44 -132t-106 -49z" />
    <glyph glyph-name="exclamdown" unicode="&#xa1;" horiz-adv-x="300" 
d="M207 619h-114v115h114v-115zM192 516l14 -583h-112l14 583h84z" />
    <glyph glyph-name="cent" unicode="&#xa2;" horiz-adv-x="509" 
d="M263 695h55v-94q51 -5 86.5 -20.5t64.5 -37.5l-46 -70q-29 20 -54 30t-51 14v-364q38 5 66 17.5t52 30.5l47 -71q-25 -21 -65 -39t-100 -23v-94h-55v93q-104 5 -161.5 66.5t-57.5 173.5v60q0 111 60 170.5t159 64.5v93zM140 308q0 -41 10 -69.5t27 -47t39.5 -28
t46.5 -11.5v366q-25 -2 -47 -11.5t-39 -27.5t-27 -45t-10 -66v-60z" />
    <glyph glyph-name="cent" unicode="&#xffe0;" horiz-adv-x="509" 
d="M263 695h55v-94q51 -5 86.5 -20.5t64.5 -37.5l-46 -70q-29 20 -54 30t-51 14v-364q38 5 66 17.5t52 30.5l47 -71q-25 -21 -65 -39t-100 -23v-94h-55v93q-104 5 -161.5 66.5t-57.5 173.5v60q0 111 60 170.5t159 64.5v93zM140 308q0 -41 10 -69.5t27 -47t39.5 -28
t46.5 -11.5v366q-25 -2 -47 -11.5t-39 -27.5t-27 -45t-10 -66v-60z" />
    <glyph glyph-name="sterling" unicode="&#xa3;" horiz-adv-x="531" 
d="M53 372h70v92q0 62 18.5 108t50 76t74 44.5t91.5 14.5q48 0 86.5 -10.5t60.5 -24.5l-33 -81q-28 14 -53 19.5t-54 5.5q-28 0 -54 -7t-45.5 -25t-31 -48t-11.5 -76v-88h205v-70h-205v-68q0 -35 -2.5 -60.5t-8.5 -45.5t-16.5 -36t-27.5 -31v-2h344v-85h-473v70q23 13 39 30
t26.5 39t15 50.5t4.5 65.5v73h-70v70z" />
    <glyph glyph-name="sterling" unicode="&#xffe1;" horiz-adv-x="531" 
d="M53 372h70v92q0 62 18.5 108t50 76t74 44.5t91.5 14.5q48 0 86.5 -10.5t60.5 -24.5l-33 -81q-28 14 -53 19.5t-54 5.5q-28 0 -54 -7t-45.5 -25t-31 -48t-11.5 -76v-88h205v-70h-205v-68q0 -35 -2.5 -60.5t-8.5 -45.5t-16.5 -36t-27.5 -31v-2h344v-85h-473v70q23 13 39 30
t26.5 39t15 50.5t4.5 65.5v73h-70v70z" />
    <glyph glyph-name="currency" unicode="&#xa4;" 
d="M755 628l55 -57l-118 -100q23 -32 36 -72.5t13 -89.5q0 -53 -15 -95.5t-41 -74.5l120 -107l-53 -55l-115 111q-36 -32 -86 -50.5t-102 -18.5q-51 0 -99 16.5t-83 47.5l-111 -106l-53 55l115 100q-26 34 -43.5 78t-17.5 97q0 51 15.5 92.5t39.5 74.5l-112 97l56 57
l105 -100q36 32 85 50t104 18t106 -19.5t88 -52.5zM656 308q0 43 -15.5 81.5t-43 67.5t-65 45.5t-82.5 16.5h-1q-44 0 -81.5 -16.5t-65.5 -45t-43.5 -67t-15.5 -83.5q0 -48 17 -87t45.5 -66.5t66 -43t77.5 -15.5q41 0 78.5 15t66 43t45.5 67.5t17 87.5z" />
    <glyph glyph-name="yen" unicode="&#xa5;" horiz-adv-x="580" 
d="M244 117h-167v75h167v53h-167v75h149l-206 368h103l169 -319h5l169 319h94l-206 -368h151v-75h-168v-53h168v-75h-168v-143h-93v143z" />
    <glyph glyph-name="yen" unicode="&#xffe5;" horiz-adv-x="580" 
d="M244 117h-167v75h167v53h-167v75h149l-206 368h103l169 -319h5l169 319h94l-206 -368h151v-75h-168v-53h168v-75h-168v-143h-93v143z" />
    <glyph glyph-name="section" unicode="&#xa7;" horiz-adv-x="518" 
d="M202 379q-42 -8 -63 -30t-21 -57q0 -38 19 -58.5t66 -34.5l110 -34q42 9 63 32t21 56q0 19 -4.5 33t-15.5 25t-29 20t-45 17zM239 -161q-55 0 -96 10t-75 30v74q18 -7 34.5 -13.5t35.5 -11.5t40.5 -8t50.5 -3q64 0 94.5 22t30.5 63q0 19 -4 32t-14 23t-27 18t-44 16
l-90 28q-31 10 -57.5 23.5t-46 33t-30.5 46t-11 62.5q0 52 25.5 83t72.5 48q-23 20 -36.5 49t-13.5 72q0 73 51 119t151 46q56 0 88.5 -11t57.5 -24v-74q-23 11 -59.5 21t-84.5 10q-54 0 -85 -19.5t-31 -57.5q0 -19 3 -32.5t11 -23.5t21.5 -17.5t35.5 -14.5l99 -31
q37 -12 65.5 -25t48 -32t29 -45.5t9.5 -64.5q0 -54 -26 -85t-71 -48q28 -20 41.5 -48t13.5 -69q0 -83 -54.5 -127t-152.5 -44z" />
    <glyph glyph-name="dieresis" unicode="&#xa8;" horiz-adv-x="509" 
d="M123 680h88v-92h-88v92zM298 680h88v-92h-88v92z" />
    <glyph glyph-name="copyright" unicode="&#xa9;" horiz-adv-x="824" 
d="M419 19q68 0 124.5 23.5t97.5 65.5t64 100t23 127t-23 127t-64.5 100t-98 65t-123.5 23t-123 -23t-97 -65t-64 -100t-23 -127t23 -127t64 -100t97 -65.5t123 -23.5zM419 -33q-81 0 -148 29t-115 79t-75 117t-27 143t27 143t75 116.5t115 78.5t148 29q82 0 149.5 -29
t116 -78.5t75 -116.5t26.5 -143t-27 -143t-75.5 -117t-116 -79t-148.5 -29zM428 545q55 0 87.5 -14t57.5 -33l-41 -64q-29 21 -51.5 28t-52.5 7q-16 0 -33 -5t-30.5 -17.5t-22 -33t-8.5 -51.5v-52q0 -33 9 -54.5t23 -34t31 -18t32 -5.5q39 0 65 9.5t48 26.5l41 -65
q-20 -18 -59 -32.5t-96 -14.5q-88 0 -134.5 49.5t-46.5 137.5v52q0 88 48.5 136t132.5 48z" />
    <glyph glyph-name="ordfeminine" unicode="&#xaa;" horiz-adv-x="458" 
d="M196 278q-69 0 -107.5 32t-38.5 90v23q0 57 38 93t124 36h105v21q0 42 -18 61t-65 19q-38 0 -68.5 -12.5t-56.5 -31.5l-44 66q32 22 73.5 39t95.5 17q37 0 68 -9.5t54 -27.5t36 -43.5t13 -58.5v-308h-85l-1 52q-14 -29 -46 -43.5t-77 -14.5zM317 478h-104q-42 0 -59 -16
t-17 -46v-11q0 -26 18 -38.5t49 -12.5q51 0 82 22t31 73v29z" />
    <glyph glyph-name="guillemotleft" unicode="&#xab;" 
d="M816 17l-31 -51l-482 314v45l474 324l37 -49l-436 -297zM608 14l-34 -52l-480 318v45l473 328l36 -51l-434 -300z" />
    <glyph glyph-name="guillemotleft" unicode="&#x226a;" 
d="M816 17l-31 -51l-482 314v45l474 324l37 -49l-436 -297zM608 14l-34 -52l-480 318v45l473 328l36 -51l-434 -300z" />
    <glyph glyph-name="logicalnot" unicode="&#xac;" 
d="M882 -154h-62v254h-793v61h855v-315z" />
    <glyph glyph-name="logicalnot" unicode="&#xffe2;" 
d="M882 -154h-62v254h-793v61h855v-315z" />
    <glyph glyph-name="uni00AD" unicode="&#xad;" horiz-adv-x="425" 
d="M425 279h-425v70h425v-70z" />
    <glyph glyph-name="uni00AD" unicode="&#x2013;" horiz-adv-x="425" 
d="M425 279h-425v70h425v-70z" />
    <glyph glyph-name="degree" unicode="&#xb0;" horiz-adv-x="312" 
d="M280 609q0 -26 -9 -48.5t-25 -39t-39 -26.5t-51 -10t-51 10t-39 26.5t-25 39t-9 48.5q0 25 9 48t25 39.5t39 26.5t51 10t51 -10t39 -26.5t25 -39.5t9 -48zM219 609q0 27 -17 46.5t-46 19.5t-46 -19.5t-17 -46.5t17 -46.5t46 -19.5t46 19.5t17 46.5z" />
    <glyph glyph-name="plusminus" unicode="&#xb1;" horiz-adv-x="610" 
d="M561 112v-84h-513v84h513zM345 650v-201h207v-84h-207v-215h-90v215h-207v84h207v201h90z" />
    <glyph glyph-name="uni00B2" unicode="&#xb2;" horiz-adv-x="400" 
d="M199 517q20 22 32 37t18 26.5t7.5 20.5t1.5 18v5q0 19 -14.5 34t-50.5 15q-25 0 -47.5 -12t-42.5 -47l-66 44q9 15 22 31.5t32 30t44.5 22.5t58.5 9q38 0 66.5 -10t47.5 -27t28.5 -39.5t9.5 -47.5v-6q0 -38 -24.5 -75t-56.5 -71l-111 -117h209v-74h-324v61z" />
    <glyph glyph-name="uni00B3" unicode="&#xb3;" horiz-adv-x="400" 
d="M47 680q22 34 60 52.5t83 18.5q37 0 64.5 -9t46.5 -24.5t28.5 -35.5t9.5 -42v-8q0 -33 -14.5 -62.5t-49.5 -44.5q45 -9 66 -36.5t21 -61.5v-12q0 -62 -43.5 -100.5t-126.5 -38.5q-88 0 -157 54l41 66q36 -27 61.5 -35.5t52.5 -8.5q45 0 64 19t19 44v10q0 12 -4 23
t-13.5 19.5t-26.5 14t-44 5.5h-56v75h55q38 0 53 13.5t15 43.5v6q0 53 -65 53q-20 0 -41 -9.5t-40 -33.5z" />
    <glyph glyph-name="acute" unicode="&#xb4;" horiz-adv-x="610" 
d="M192 565l109 148h116l-136 -148h-89z" />
    <glyph glyph-name="paragraph" unicode="&#xb6;" horiz-adv-x="584" 
d="M284 349h-50q-40 0 -76.5 11.5t-64.5 34.5t-44.5 57t-16.5 79q0 37 12.5 70.5t40 59t72.5 40.5t111 15h236v-838h-67v779h-86v-779h-67v471z" />
    <glyph glyph-name="periodcentered" unicode="&#xb7;" horiz-adv-x="421" 
d="M153 360h114v-115h-114v115z" />
    <glyph glyph-name="periodcentered" unicode="&#x30fb;" horiz-adv-x="421" 
d="M153 360h114v-115h-114v115z" />
    <glyph glyph-name="cedilla" unicode="&#xb8;" horiz-adv-x="610" 
d="M215 -146q57 5 81 15t24 27q0 19 -20.5 25.5t-62.5 6.5v96h58v-49q47 -3 73 -20.5t26 -52.5q0 -23 -9 -40t-30 -29.5t-55.5 -20.5t-84.5 -12v54z" />
    <glyph glyph-name="uni00B9" unicode="&#xb9;" horiz-adv-x="400" 
d="M193 284v359l-104 -61l-42 71l159 89h75v-458h-88z" />
    <glyph glyph-name="ordmasculine" unicode="&#xba;" horiz-adv-x="483" 
d="M242 730q92 0 145.5 -52t53.5 -147v-55q0 -96 -53.5 -147.5t-145.5 -51.5t-146 51.5t-54 147.5v55q0 96 54 147.5t146 51.5zM242 356q54 0 82 30.5t28 96.5v41q0 66 -28 96.5t-82 30.5t-82.5 -30.5t-28.5 -96.5v-41q0 -66 28.5 -96.5t82.5 -30.5z" />
    <glyph glyph-name="guillemotright" unicode="&#xbb;" 
d="M816 280l-480 -318l-33 52l438 288l-434 300l37 51l472 -328v-45zM608 280l-482 -314l-32 51l438 285l-435 298l37 49l474 -324v-45z" />
    <glyph glyph-name="guillemotright" unicode="&#x226b;" 
d="M816 280l-480 -318l-33 52l438 288l-434 300l37 51l472 -328v-45zM608 280l-482 -314l-32 51l438 285l-435 298l37 49l474 -324v-45z" />
    <glyph glyph-name="onequarter" unicode="&#xbc;" horiz-adv-x="884" 
d="M691 709h85l-523 -775h-85zM193 237v359l-104 -61l-42 71l159 89h75v-458h-88zM811 234v-154h60v-72h-60v-91h-84v91h-225v60l198 307h92l-191 -295h126v154h84z" />
    <glyph glyph-name="onehalf" unicode="&#xbd;" horiz-adv-x="935" 
d="M691 709h85l-523 -775h-85zM193 237v359l-104 -61l-42 71l159 89h75v-458h-88zM734 150q20 22 32 37t18 26.5t7.5 20.5t1.5 18v5q0 19 -14.5 34t-50.5 15q-25 0 -47.5 -12t-42.5 -47l-66 44q9 15 22 31.5t32 30t44.5 22.5t58.5 9q38 0 66.5 -10t47.5 -27t28.5 -39.5
t9.5 -47.5v-6q0 -38 -24.5 -75t-56.5 -71l-111 -117h209v-74h-324v61z" />
    <glyph glyph-name="threequarters" unicode="&#xbe;" horiz-adv-x="899" 
d="M706 709h85l-523 -775h-85zM826 234v-154h60v-72h-60v-91h-84v91h-225v60l198 307h92l-191 -295h126v154h84zM47 633q22 34 60 52.5t83 18.5q37 0 64.5 -9t46.5 -24.5t28.5 -35.5t9.5 -42v-8q0 -33 -14.5 -62.5t-49.5 -44.5q45 -9 66 -36.5t21 -61.5v-12
q0 -62 -43.5 -100.5t-126.5 -38.5q-88 0 -157 54l41 66q36 -27 61.5 -35.5t52.5 -8.5q45 0 64 19t19 44v10q0 12 -4 23t-13.5 19.5t-26.5 14t-44 5.5h-56v75h55q38 0 53 13.5t15 43.5v6q0 53 -65 53q-20 0 -41 -9.5t-40 -33.5z" />
    <glyph glyph-name="questiondown" unicode="&#xbf;" horiz-adv-x="542" 
d="M335 498v-46q0 -25 -4 -44.5t-14.5 -38.5t-28.5 -40t-45 -48l-45.5 -45.5t-30 -34t-16.5 -32t-5 -40.5v-13q0 -38 28.5 -66.5t90.5 -28.5q49 0 89.5 19.5t72.5 52.5l60 -69q-39 -42 -92.5 -66.5t-127.5 -24.5q-105 0 -163 50t-58 132v14q0 37 10.5 65t28 52t40 45
t45.5 43q33 31 48 56.5t15 64.5v43h102zM340 591h-114v115h114v-115z" />
    <glyph glyph-name="AE" unicode="&#xc6;" horiz-adv-x="971" 
d="M916 695v-85h-330v-224h309v-85h-309v-242h337v-85h-436v212h-238l-130 -212h-112l448 721h461zM487 594q-6 -17 -12 -31.5t-13.5 -28t-16 -27.5t-18.5 -31l-126 -205h186v323z" />
    <glyph glyph-name="Eth" unicode="&#xd0;" horiz-adv-x="700" 
d="M11 382h375v-70h-375v70zM335 695q149 0 226 -79.5t77 -229.5v-103q0 -150 -75 -229.5t-228 -79.5h-239v721h239zM195 62h131q48 0 87 12.5t66.5 39.5t42.5 70t15 104v93q0 61 -15 104t-42.5 70.5t-66.5 40t-87 12.5h-131v-546z" />
    <glyph glyph-name="multiply" unicode="&#xd7;" horiz-adv-x="610" 
d="M248 318l-184 195l54 53l184 -195l184 195l54 -53l-184 -195l184 -195l-54 -53l-184 195l-184 -195l-54 53z" />
    <glyph glyph-name="Oslash" unicode="&#xd8;" horiz-adv-x="756" 
d="M60 7l583 699l53 -44l-583 -699zM372 -37q-65 0 -118.5 19.5t-92.5 59.5t-60.5 99t-21.5 139v109q0 79 21.5 138t60.5 99t93 60t118 20t118 -20t93 -60t60.5 -99t21.5 -138v-109q0 -80 -21.5 -139t-60.5 -99t-93 -59.5t-118 -19.5zM372 616q-42 0 -77.5 -13.5t-61 -42
t-40 -74t-14.5 -108.5v-87q0 -63 14.5 -108.5t40 -74t61 -42t77.5 -13.5t77.5 13.5t61 42t40 74t14.5 108.5v87q0 63 -14.5 108.5t-40 74t-61 42t-77.5 13.5z" />
    <glyph glyph-name="Thorn" unicode="&#xde;" horiz-adv-x="617" 
d="M82 695h99v-132h159q61 0 106 -16t74.5 -43.5t44 -65.5t14.5 -82v-21q0 -44 -15.5 -83.5t-45.5 -69t-74.5 -47t-103.5 -17.5h-159v-144h-99v721zM181 477v-273h142q156 0 156 133v18q0 62 -37.5 92t-107.5 30h-153z" />
    <glyph glyph-name="germandbls" unicode="&#xdf;" horiz-adv-x="565" 
d="M343 364q0 -29 20.5 -45.5t55.5 -34.5q39 -20 63.5 -38t38.5 -36.5t19 -38.5t5 -43v-10q0 -31 -10.5 -58.5t-32.5 -48.5t-54.5 -33t-76.5 -12q-54 0 -95 17t-73 43l47 74q32 -28 63.5 -39.5t58.5 -11.5q37 0 57 18t20 53v6q0 26 -14 44t-57 38q-62 29 -96 64t-34 90v9
q0 27 10.5 47.5t27 37.5t35 32t35 30.5t27 32.5t10.5 39v7q0 24 -20.5 40t-78.5 16q-60 0 -91 -31t-31 -108v-540h-97v559q0 54 17 92.5t46 63t69 36t86 11.5q54 0 91.5 -11.5t60.5 -30.5t33.5 -43.5t10.5 -49.5v-11q0 -30 -11 -53.5t-27 -42t-35 -34t-35 -30t-27 -29
t-11 -31.5v-6z" />
    <glyph glyph-name="ae" unicode="&#xe6;" horiz-adv-x="881" 
d="M826 26q-36 -25 -85.5 -42.5t-123.5 -17.5q-64 0 -114 23t-80 71q-13 -19 -31 -34.5t-46 -32.5q-22 -13 -52 -20t-71 -7q-83 0 -130.5 41t-47.5 113v27q0 70 46.5 109t151.5 39h136v42q0 55 -25.5 81.5t-85.5 26.5q-45 0 -82 -15t-73 -40l-48 72q40 28 89 48.5t115 20.5
q57 0 101 -18.5t70 -53.5q30 36 74 54t98 18q106 0 166.5 -63.5t60.5 -181.5v-70h-364v-7q0 -78 40 -118.5t106 -40.5q53 0 91 13t73 36zM612 448q-30 0 -55.5 -10.5t-43.5 -29t-28 -45t-10 -57.5v-11h270v15q0 63 -35 100.5t-98 37.5zM379 213h-134q-57 0 -81 -17t-24 -56
v-14q0 -40 27 -58t66 -18q36 0 61.5 8.5t47.5 25.5q20 15 28.5 34.5t8.5 50.5v44z" />
    <glyph glyph-name="eth" unicode="&#xf0;" horiz-adv-x="588" 
d="M191 748q28 -14 58.5 -31.5t60.5 -38.5l116 49l23 -58l-81 -34q35 -30 66 -66.5t54 -81t36.5 -98t13.5 -117.5v-57q0 -119 -65.5 -184t-178.5 -65t-178.5 65t-65.5 184v57q0 120 62.5 184.5t171.5 64.5q24 0 51.5 -6t47.5 -18q-21 34 -43.5 59.5t-47.5 46.5l-139 -58
l-23 58l102 42q-17 11 -36 22t-39 22zM294 51q65 0 105.5 42.5t40.5 129.5v46q0 87 -40.5 127t-105.5 40t-105.5 -42.5t-40.5 -129.5v-41q0 -87 40.5 -129.5t105.5 -42.5z" />
    <glyph glyph-name="divide" unicode="&#xf7;" horiz-adv-x="610" 
d="M48 360h504v-84h-504v84zM250 565h99v-97h-99v97zM250 168h99v-97h-99v97z" />
    <glyph glyph-name="oslash" unicode="&#xf8;" horiz-adv-x="602" 
d="M50 -1l460 528l42 -37l-460 -528zM299 531q113 0 178.5 -65t65.5 -184v-67q0 -119 -65.5 -184t-178.5 -65t-178.5 65t-65.5 184v67q0 120 65.5 184.5t178.5 64.5zM299 51q65 0 105.5 42.5t40.5 129.5v51q0 87 -40.5 129.5t-105.5 42.5t-105.5 -42.5t-40.5 -129.5v-51
q0 -87 40.5 -129.5t105.5 -42.5z" />
    <glyph glyph-name="thorn" unicode="&#xfe;" horiz-adv-x="596" 
d="M175 458q26 41 68.5 57t87.5 16q104 0 159 -60.5t55 -172.5v-97q0 -56 -16 -99.5t-44.5 -73.5t-68.5 -46t-88 -16q-60 0 -96.5 20.5t-56.5 47.5v-274h-97v970h97v-272zM174 169q0 -21 10.5 -42.5t30 -38t45.5 -27t58 -10.5q62 0 96.5 43t34.5 121v67q0 78 -35 121t-96 43
q-30 0 -56 -10t-45.5 -28t-31 -43.5t-11.5 -57.5v-138z" />
    <glyph glyph-name="dcroat" unicode="&#x111;" horiz-adv-x="598" 
d="M272 650h314v-63h-314v63zM423 42q-23 -42 -65.5 -59t-93.5 -17q-104 0 -158.5 60.5t-54.5 172.5v97q0 55 16 99t44.5 74t68.5 46t88 16q63 0 99.5 -21.5t53.5 -45.5v266h97v-756h-93v68h-2zM422 330q0 21 -10.5 42t-30 37.5t-46 26.5t-57.5 10q-62 0 -96.5 -43
t-34.5 -121v-67q0 -78 35 -121t96 -43q30 0 56 9.5t45.5 27.5t31 43.5t11.5 57.5v141z" />
    <glyph glyph-name="Hbar" unicode="&#x126;" horiz-adv-x="697" 
d="M615 695v-139h70v-70h-70v-512h-99v311h-335v-311h-99v512h-70v70h70v139h99v-139h335v139h99zM181 372h335v114h-335v-114z" />
    <glyph glyph-name="hbar" unicode="&#x127;" horiz-adv-x="601" 
d="M12 650h314v-63h-314v63zM531 -26h-97v340q0 69 -29 100t-90 31q-25 0 -49.5 -8.5t-44 -25t-32 -41.5t-12.5 -57v-339h-97v756h97v-275q25 37 65.5 56.5t96.5 19.5q40 0 75 -12t61 -36t41 -61t15 -86v-362z" />
    <glyph glyph-name="dotlessi" unicode="&#x131;" horiz-adv-x="263" 
d="M180 521v-547h-97v547h97z" />
    <glyph glyph-name="IJ" unicode="&#x132;" horiz-adv-x="735" 
d="M181 695v-721h-99v721h99zM655 172q0 -60 -16 -100t-44 -64.5t-66 -34.5t-83 -10q-39 0 -85.5 14t-81.5 45l47 78q32 -25 60 -35t63 -10q56 0 81.5 31.5t25.5 106.5v502h99v-523z" />
    <glyph glyph-name="ij" unicode="&#x133;" horiz-adv-x="474" 
d="M180 521v-547h-97v547h97zM183 717v-106h-103v106h103zM431 717v-106h-103v106h103zM428 -88q0 -83 -40.5 -122t-118.5 -39q-26 0 -53.5 4t-44.5 10l15 79q36 -10 74 -10q14 0 27 3t22.5 11.5t15.5 24.5t6 43v605h97v-609z" />
    <glyph glyph-name="kgreenlandic" unicode="&#x138;" horiz-adv-x="561" 
d="M320 299l227 -325h-122l-172 256l-78 -79v-177h-97v547h97v-252l237 252h125z" />
    <glyph glyph-name="Ldot" unicode="&#x13f;" horiz-adv-x="546" 
d="M181 695v-636h345v-85h-444v721h99zM363 426h114v-115h-114v115z" />
    <glyph glyph-name="ldot" unicode="&#x140;" horiz-adv-x="408" 
d="M177 730v-756h-97v756h97zM278 434h114v-115h-114v115z" />
    <glyph glyph-name="Lslash" unicode="&#x141;" horiz-adv-x="587" 
d="M10 248l388 221l29 -55l-388 -221zM222 695v-636h345v-85h-444v721h99z" />
    <glyph glyph-name="lslash" unicode="&#x142;" horiz-adv-x="329" 
d="M8 315l108 60v355h97v-300l82 46l26 -49l-108 -61v-392h-97v337l-81 -45z" />
    <glyph glyph-name="napostrophe" unicode="&#x149;" horiz-adv-x="582" 
d="M-39 520l20 178h90l-40 -178h-70zM529 -26h-97v340q0 69 -29 100t-90 31q-25 0 -49.5 -8.5t-44 -25t-32 -41.5t-12.5 -57v-339h-97v547h94v-69h1q25 38 66 58.5t98 20.5q40 0 75 -12t61 -36t41 -61t15 -86v-362z" />
    <glyph glyph-name="Eng" unicode="&#x14a;" horiz-adv-x="701" 
d="M619 -88q0 -83 -40.5 -122t-118.5 -39q-26 0 -53.5 4t-44.5 10l15 79q36 -10 74 -10q14 0 27.5 3t24.5 11.5t17.5 24.5t6.5 43v58l-300 491q-11 20 -25.5 47t-27.5 59v-597h-92v721h114l280 -465q11 -18 24.5 -45.5t26.5 -59.5v570h92v-783z" />
    <glyph glyph-name="eng" unicode="&#x14b;" horiz-adv-x="582" 
d="M529 -88q0 -83 -40.5 -122t-118.5 -39q-26 0 -53.5 4t-44.5 10l15 79q36 -10 74 -10q14 0 27 3t22.5 11.5t15.5 24.5t6 43v398q0 69 -29 100t-90 31q-25 0 -49.5 -8.5t-44 -25t-32 -41.5t-12.5 -57v-339h-97v547h94v-69h1q25 38 66 58.5t98 20.5q40 0 75 -12t61 -36
t41 -61t15 -86v-424z" />
    <glyph glyph-name="OE" unicode="&#x152;" horiz-adv-x="978" 
d="M911 695v-85h-330v-224h309v-85h-309v-242h337v-85h-552q-153 0 -229.5 79.5t-76.5 229.5v103q0 150 78.5 229.5t227.5 79.5h545zM482 608h-107q-48 0 -87.5 -12.5t-67.5 -40t-43.5 -70.5t-15.5 -104v-93q0 -61 15.5 -104t43.5 -70t67.5 -39.5t87.5 -12.5h107v546z" />
    <glyph glyph-name="oe" unicode="&#x153;" horiz-adv-x="924" 
d="M285 531q65 0 113 -24t77 -69q30 46 77 69.5t105 23.5q106 0 165.5 -63.5t59.5 -181.5v-70h-361v-7q0 -78 39.5 -118.5t105.5 -40.5q53 0 90 13t72 36l41 -73q-36 -25 -84.5 -42.5t-122.5 -17.5q-60 0 -108.5 22t-79.5 69q-29 -45 -76 -68t-113 -23q-113 0 -173.5 65
t-60.5 184v67q0 120 63 184.5t171 64.5zM285 51q66 0 101 42t35 130v51q0 88 -35 130t-101 42t-101 -42t-35 -130v-51q0 -88 35 -130t101 -42zM657 448q-61 0 -98.5 -39.5t-37.5 -102.5v-11h267v15q0 63 -34 100.5t-97 37.5z" />
    <glyph glyph-name="Tbar" unicode="&#x166;" horiz-adv-x="571" 
d="M89 374h384v-70h-384v70zM236 -26v636h-220v85h539v-85h-220v-636h-99z" />
    <glyph glyph-name="tbar" unicode="&#x167;" horiz-adv-x="388" 
d="M38 341h309v-62h-309v62zM120 438h-90v83h90v138h97v-138h144v-83h-144v-311q0 -25 5 -40.5t14.5 -23.5t22.5 -11t28 -3q36 0 72 13l15 -78q-17 -7 -45 -12.5t-57 -5.5q-78 0 -115 39t-37 122v311z" />
    <glyph glyph-name="uni02BC" unicode="&#x2bc;" horiz-adv-x="470" 
 />
    <glyph glyph-name="caron" unicode="&#x2c7;" horiz-adv-x="610" 
d="M160 708h72l73 -80l72 80h72l-105 -148h-79z" />
    <glyph glyph-name="uni02D0" unicode="&#x2d0;" 
d="M545 549l-91 -95l-90 95h181zM545 73h-181l90 94z" />
    <glyph glyph-name="uni02D0" unicode="&#x2236;" 
d="M545 549l-91 -95l-90 95h181zM545 73h-181l90 94z" />
    <glyph glyph-name="breve" unicode="&#x2d8;" horiz-adv-x="610" 
d="M305 571q-59 0 -95.5 33.5t-40.5 91.5h69q5 -29 20 -46.5t47 -17.5q33 0 47.5 17.5t19.5 46.5h69q-2 -58 -39 -91.5t-97 -33.5z" />
    <glyph glyph-name="dotaccent" unicode="&#x2d9;" horiz-adv-x="610" 
d="M258 682h93v-94h-93v94z" />
    <glyph glyph-name="ring" unicode="&#x2da;" horiz-adv-x="610" 
d="M304 593q23 0 36.5 13.5t13.5 36.5t-13.5 37t-36.5 14q-22 0 -35.5 -14t-13.5 -37t13.5 -36.5t35.5 -13.5zM304 548q-21 0 -39 7.5t-31 20.5t-20.5 30.5t-7.5 36.5q0 39 28 67t70 28q43 0 71 -28t28 -67q0 -19 -7.5 -36.5t-20.5 -30.5t-31.5 -20.5t-39.5 -7.5z" />
    <glyph glyph-name="ogonek" unicode="&#x2db;" horiz-adv-x="610" 
d="M332 -200q-53 0 -82 23.5t-29 64.5q0 21 8.5 39.5t22 33.5t29 26t29.5 19h70q-32 -26 -55 -53t-23 -54q0 -23 15 -30t38 -7q11 0 20 1t14 3v-56q-11 -4 -24.5 -7t-32.5 -3z" />
    <glyph glyph-name="tilde" unicode="&#x2dc;" horiz-adv-x="610" 
d="M151 577q6 58 35.5 84.5t63.5 26.5q16 0 31.5 -5.5t29 -12.5t25.5 -12.5t23 -5.5q29 0 37 38h62q-3 -29 -12.5 -50t-23.5 -34.5t-30.5 -20t-32.5 -6.5q-17 0 -32 5.5t-28.5 12.5t-25.5 12.5t-23 5.5q-30 0 -37 -38h-62z" />
    <glyph glyph-name="hungarumlaut" unicode="&#x2dd;" horiz-adv-x="610" 
d="M362 709h97l-71 -149h-75zM200 709h98l-71 -149h-77z" />
    <glyph glyph-name="Alpha" unicode="&#x391;" horiz-adv-x="673" 
d="M653 -26h-104l-76 212h-276l-76 -212h-101l268 721h96zM227 271h216l-60 169l-14 38.5t-11 32t-10.5 32.5t-12.5 42q-8 -25 -13 -42.5t-10 -32.5l-10.5 -31.5t-13.5 -38.5z" />
    <glyph glyph-name="Beta" unicode="&#x392;" horiz-adv-x="635" 
d="M82 695h256q229 0 229 -176v-21q0 -24 -6 -46.5t-19.5 -41.5t-36 -33.5t-54.5 -22.5q66 -10 107.5 -50t41.5 -115v-25q0 -89 -56.5 -139.5t-174.5 -50.5h-287v721zM181 60h151q42 0 73.5 4.5t52 16.5t30.5 32.5t10 52.5v22q0 33 -9 56t-31 38t-58 21.5t-90 6.5h-129v-250
zM181 610v-219h128q37 0 66.5 4t49.5 16t30.5 33t10.5 55v18q0 32 -9.5 50.5t-30 28t-51.5 12t-73 2.5h-121z" />
    <glyph glyph-name="Gamma" unicode="&#x393;" horiz-adv-x="536" 
d="M82 -26v721h444v-83h-345v-638h-99z" />
    <glyph glyph-name="uni0394" unicode="&#x394;" horiz-adv-x="671" 
d="M285 695h103l263 -721h-631zM520 57l-183 531l-187 -531h370z" />
    <glyph glyph-name="Epsilon" unicode="&#x395;" horiz-adv-x="598" 
d="M531 695v-85h-350v-224h329v-85h-329v-242h357v-85h-456v721h449z" />
    <glyph glyph-name="Zeta" unicode="&#x396;" horiz-adv-x="613" 
d="M560 622l-414 -562h433v-86h-553v81l409 554h-385v86h510v-73z" />
    <glyph glyph-name="Eta" unicode="&#x397;" horiz-adv-x="697" 
d="M615 695v-721h-99v332h-335v-332h-99v721h99v-301h335v301h99z" />
    <glyph glyph-name="Theta" unicode="&#x398;" horiz-adv-x="706" 
d="M510 296h-315v80h315v-80zM353 -37q-65 0 -118.5 19.5t-92.5 59.5t-60.5 99t-21.5 139v109q0 79 21.5 138t60.5 99t93 60t118 20t118 -20t93 -60t60.5 -99t21.5 -138v-109q0 -80 -21.5 -139t-60.5 -99t-93 -59.5t-118 -19.5zM353 616q-42 0 -77.5 -13.5t-61 -42t-40 -74
t-14.5 -108.5v-87q0 -63 14.5 -108.5t40 -74t61 -42t77.5 -13.5t77.5 13.5t61 42t40 74t14.5 108.5v87q0 63 -14.5 108.5t-40 74t-61 42t-77.5 13.5z" />
    <glyph glyph-name="Iota" unicode="&#x399;" horiz-adv-x="263" 
d="M181 695v-721h-99v721h99z" />
    <glyph glyph-name="Kappa" unicode="&#x39a;" horiz-adv-x="655" 
d="M328 383l307 -409h-126l-249 337l-79 -85v-252h-99v721h99v-345l316 345h121z" />
    <glyph glyph-name="Lambda" unicode="&#x39b;" horiz-adv-x="673" 
d="M545 -26l-209 596l-214 -596h-102l272 721h93l268 -721h-108z" />
    <glyph glyph-name="Mu" unicode="&#x39c;" horiz-adv-x="850" 
d="M213 494q-5 11 -9 21.5t-8 21.5t-9 25t-11 32v-620h-94v721h146l200 -472l195 472h145v-721h-95v620q-5 -20 -9.5 -33.5t-8 -24.5t-7.5 -21t-9 -21l-172 -400h-84z" />
    <glyph glyph-name="Nu" unicode="&#x39d;" horiz-adv-x="701" 
d="M196 695l280 -486q11 -18 24.5 -45.5t26.5 -59.5v591h92v-721h-114l-280 484q-11 20 -24.5 47t-26.5 59v-590h-92v721h114z" />
    <glyph glyph-name="Xi" unicode="&#x39e;" horiz-adv-x="593" 
d="M533 59v-85h-473v85h473zM92 386h403v-85h-403v85zM60 610v85h466v-85h-466z" />
    <glyph glyph-name="Omicron" unicode="&#x39f;" horiz-adv-x="706" 
d="M353 -37q-65 0 -118.5 19.5t-92.5 59.5t-60.5 99t-21.5 139v109q0 79 21.5 138t60.5 99t93 60t118 20t118 -20t93 -60t60.5 -99t21.5 -138v-109q0 -80 -21.5 -139t-60.5 -99t-93 -59.5t-118 -19.5zM353 616q-42 0 -77.5 -13.5t-61 -42t-40 -74t-14.5 -108.5v-87
q0 -63 14.5 -108.5t40 -74t61 -42t77.5 -13.5t77.5 13.5t61 42t40 74t14.5 108.5v87q0 63 -14.5 108.5t-40 74t-61 42t-77.5 13.5z" />
    <glyph glyph-name="Pi" unicode="&#x3a0;" horiz-adv-x="677" 
d="M595 -26h-99v638h-315v-638h-99v721h513v-721z" />
    <glyph glyph-name="Rho" unicode="&#x3a1;" horiz-adv-x="617" 
d="M82 695h258q61 0 106 -15.5t74.5 -43t44 -65.5t14.5 -82v-21q0 -44 -15.5 -82.5t-45.5 -67.5t-74.5 -46t-103.5 -17h-159v-281h-99v721zM181 609v-268h142q156 0 156 129v18q0 62 -37.5 91.5t-107.5 29.5h-153z" />
    <glyph glyph-name="Sigma" unicode="&#x3a3;" horiz-adv-x="561" 
d="M514 695v-85h-330l201 -278l-204 -273h340v-85h-461v70l213 287l-213 297v67h454z" />
    <glyph glyph-name="Tau" unicode="&#x3a4;" horiz-adv-x="571" 
d="M236 -26v636h-220v85h539v-85h-220v-636h-99z" />
    <glyph glyph-name="Upsilon" unicode="&#x3a5;" horiz-adv-x="625" 
d="M363 264v-290h-99v290l-248 431h110l189 -337l184 337h110z" />
    <glyph glyph-name="Phi" unicode="&#x3a6;" horiz-adv-x="752" 
d="M55 376q0 109 72.5 174.5t201.5 76.5v91h93v-91q129 -11 202 -76.5t73 -174.5v-53q0 -54 -19 -98t-54.5 -76.5t-86.5 -52t-115 -24.5v-98h-93v98q-129 11 -201.5 76.5t-72.5 174.5v53zM601 370q0 72 -44 115.5t-135 52.5v-378q91 9 135 52.5t44 116.5v41zM151 329
q0 -73 43.5 -116.5t134.5 -52.5v378q-91 -9 -134.5 -52.5t-43.5 -115.5v-41z" />
    <glyph glyph-name="Chi" unicode="&#x3a7;" horiz-adv-x="655" 
d="M392 346l233 -372h-117l-183 309l-183 -309h-112l233 376l-218 345h118l170 -284l169 284h111z" />
    <glyph glyph-name="Psi" unicode="&#x3a8;" horiz-adv-x="718" 
d="M310 159q-114 13 -182 86t-68 209v221h98v-197q0 -59 11 -100t31.5 -68t48.5 -41t61 -19v425h98v-425q33 5 61 19t48.5 41t31.5 68t11 100v197h98v-221q0 -68 -18 -120t-50.5 -89t-78.5 -58.5t-103 -27.5v-185h-98v185z" />
    <glyph glyph-name="uni03A9" unicode="&#x3a9;" horiz-adv-x="746" 
d="M373 617q-42 0 -76.5 -13t-59 -41t-38 -73t-13.5 -108v-88q0 -100 33 -157t89 -75v-88h-288v86h152q-36 31 -60 88t-24 135v109q0 79 20.5 138t58 98t90 58.5t116.5 19.5t116.5 -19.5t90 -58.5t58 -98t20.5 -138v-109q0 -78 -24 -135t-60 -88h152v-86h-288v88
q56 18 89 75t33 157v88q0 63 -13.5 108t-38 73t-59 41t-76.5 13z" />
    <glyph glyph-name="alpha" unicode="&#x3b1;" horiz-adv-x="591" 
d="M417 45h-1q-19 -39 -60.5 -59t-88.5 -20q-107 0 -162 61t-55 170v103q0 55 15.5 98t43.5 72.5t67 45t87 15.5q60 0 96.5 -22t56.5 -54v66h97v-547h-96v71zM147 207q0 -43 10 -73t27.5 -48.5t41.5 -26.5t52 -8q23 0 47.5 7t44.5 22t33 39.5t13 60.5v137q0 24 -8.5 47
t-26 41t-43.5 29.5t-60 11.5q-62 0 -96.5 -37t-34.5 -123v-79z" />
    <glyph glyph-name="beta" unicode="&#x3b2;" horiz-adv-x="581" 
d="M489 543q0 -74 -30 -114.5t-80 -57.5q31 -4 60.5 -15.5t52 -32.5t36 -52.5t13.5 -74.5v-27q0 -47 -15.5 -84.5t-43 -63.5t-64.5 -40.5t-80 -14.5q-61 0 -102 21t-61 52v-279h-97v768q0 53 16.5 92t45 65t66.5 38.5t82 12.5q51 0 89 -14.5t62.5 -39.5t37 -57t12.5 -66v-16
zM175 178q0 -22 7.5 -44.5t25 -41t46.5 -30t71 -11.5q57 0 87.5 34t30.5 86v22q0 79 -45.5 108t-139.5 26v78q39 0 64.5 9t40.5 25.5t21.5 40.5t6.5 54v16q0 19 -5 37.5t-16.5 33t-31.5 23.5t-50 9q-52 0 -82.5 -33t-30.5 -105v-337z" />
    <glyph glyph-name="gamma" unicode="&#x3b3;" horiz-adv-x="519" 
d="M111 521l150 -455l150 455h98l-201 -554v-207h-97v205l-201 556h101z" />
    <glyph glyph-name="delta" unicode="&#x3b4;" horiz-adv-x="572" 
d="M232 610q0 -15 10.5 -28t32 -28.5t54.5 -36.5t77 -51q64 -45 90 -101t26 -123v-27q0 -119 -61.5 -184t-174.5 -65t-174.5 65t-61.5 184v27q0 52 15 94.5t41.5 73t63 48t79.5 20.5q-114 59 -114 141v5q0 20 8.5 40t28 36t51 26t76.5 10q51 0 91.5 -9.5t70.5 -25.5l-31 -79
q-36 19 -67.5 25t-61.5 6q-21 0 -34.5 -4t-21 -10t-10.5 -13t-3 -13v-3zM286 51q66 0 102 42t36 130v11q0 88 -36 130t-102 42t-102 -42t-36 -130v-11q0 -88 36 -130t102 -42z" />
    <glyph glyph-name="epsilon" unicode="&#x3b5;" horiz-adv-x="488" 
d="M408 423q-35 17 -73.5 23.5t-67.5 6.5q-56 0 -81.5 -18t-25.5 -46v-9q0 -38 28 -61t85 -23h67v-77h-67q-27 0 -50 -3.5t-39.5 -13.5t-26 -26.5t-9.5 -41.5v-9q0 -43 34 -60.5t87 -17.5q38 0 78 10.5t81 37.5l40 -72q-20 -15 -45.5 -26t-54 -18t-56.5 -10t-52 -3
q-105 0 -159.5 39.5t-54.5 114.5v14q0 56 36 89t93 38q-57 9 -86 43.5t-29 77.5v14q0 65 53.5 100t151.5 35q50 0 91 -8t79 -27z" />
    <glyph glyph-name="zeta" unicode="&#x3b6;" horiz-adv-x="450" 
d="M292 -113q26 17 41 31t15 31q0 9 -8 15.5t-22 11t-33 9.5t-40 11q-47 14 -85 32.5t-64.5 45.5t-41 64.5t-14.5 90.5v23q0 55 16.5 110t45.5 106t69.5 96t88.5 82h-170v84h330l9 -60q-60 -38 -113.5 -85t-93 -99.5t-62.5 -109.5t-23 -115v-19q0 -40 11.5 -67t33 -45.5
t51 -31t65.5 -23.5q44 -14 72.5 -25.5t45 -24.5t23 -29.5t6.5 -39.5t-8 -41t-21 -33.5t-30.5 -29.5t-36.5 -27z" />
    <glyph glyph-name="eta" unicode="&#x3b7;" horiz-adv-x="599" 
d="M529 -240h-97v554q0 69 -29 100t-90 31q-25 0 -49.5 -8.5t-44 -25t-32 -41.5t-12.5 -57v-339h-97v547h94v-69h1q25 38 66 58.5t98 20.5q40 0 75 -12t61 -36t41 -61t15 -86v-576z" />
    <glyph glyph-name="theta" unicode="&#x3b8;" horiz-adv-x="574" 
d="M287 736q66 0 111 -27t72.5 -73t39 -108t11.5 -131v-94q0 -69 -11.5 -131t-39 -108t-72.5 -73t-111 -27t-111 27t-72.5 73t-39 108t-11.5 131v94q0 70 11.5 131.5t39 107.5t72.5 73t111 27zM287 49q43 0 69.5 21t41.5 56.5t20 83t5 101.5v3h-272v-3q0 -54 5 -101.5
t20 -83t41.5 -56.5t69.5 -21zM287 651q-42 0 -68.5 -20t-41.5 -54.5t-20.5 -81t-5.5 -98.5h272q0 52 -5.5 98.5t-20.5 81t-41.5 54.5t-68.5 20z" />
    <glyph glyph-name="iota" unicode="&#x3b9;" horiz-adv-x="277" 
d="M267 -22q-14 -5 -35.5 -8.5t-39.5 -3.5q-63 0 -89 31.5t-26 86.5v429h97v-406q0 -29 8 -42.5t36 -13.5q11 0 21 2.5t17 4.5z" />
    <glyph glyph-name="kappa" unicode="&#x3ba;" horiz-adv-x="557" 
d="M320 299l227 -325h-122l-172 256l-78 -79v-177h-97v547h97v-252l237 252h125z" />
    <glyph glyph-name="lambda" unicode="&#x3bb;" horiz-adv-x="520" 
d="M258 411l-143 -437h-105l197 555l-35 100q-5 13 -10.5 19.5t-19.5 6.5q-9 0 -18.5 -3.5t-20.5 -8.5l-27 71q16 10 36.5 16t38.5 6q42 0 65 -16t37 -55l257 -691h-102l-146 437h-4z" />
    <glyph glyph-name="uni03BC" unicode="&#x3bc;" horiz-adv-x="603" 
d="M78 521h97v-340q0 -30 10.5 -54t29 -41t42.5 -26t51 -9q25 0 46.5 9.5t38 26.5t26 41t9.5 54v339h97v-547h-94v69h-1q-7 -20 -21 -34.5t-31.5 -24t-36.5 -14t-35 -4.5q-50 0 -80.5 18t-50.5 50v-274h-97v761z" />
    <glyph glyph-name="nu" unicode="&#x3bd;" horiz-adv-x="516" 
d="M264 65l143 456h102l-185 -547h-124l-187 547h105l144 -456h2z" />
    <glyph glyph-name="xi" unicode="&#x3be;" horiz-adv-x="461" 
d="M46 226q0 42 14 73t37 52t52 32.5t59 13.5q-26 4 -50.5 16t-43.5 31.5t-30.5 46t-11.5 60.5v19q0 34 12.5 64t38.5 52.5t65 36t92 13.5q45 0 91.5 -9.5t84.5 -37.5l-43 -72q-32 21 -64.5 28.5t-67.5 7.5q-32 0 -53.5 -8.5t-34.5 -21.5t-18.5 -29t-5.5 -32v-10
q0 -58 42.5 -86.5t116.5 -28.5h46v-84h-49q-41 0 -74.5 -6.5t-57 -21.5t-36.5 -39.5t-13 -60.5v-11q0 -32 12 -53.5t33.5 -37t51.5 -26.5t66 -22q44 -14 72.5 -25t45 -23.5t23 -29t6.5 -41.5q0 -23 -7.5 -41t-20.5 -33.5t-30 -29.5t-36 -27l-57 62q26 17 40 30.5t14 30.5
q0 9 -8 15.5t-22 12t-33 10t-40 10.5q-46 13 -84.5 30t-66 42t-42.5 60t-15 84v14z" />
    <glyph glyph-name="omicron" unicode="&#x3bf;" horiz-adv-x="588" 
d="M294 531q113 0 178.5 -65t65.5 -184v-67q0 -119 -65.5 -184t-178.5 -65t-178.5 65t-65.5 184v67q0 120 65.5 184.5t178.5 64.5zM294 51q65 0 105.5 42.5t40.5 129.5v51q0 87 -40.5 129.5t-105.5 42.5t-105.5 -42.5t-40.5 -129.5v-51q0 -87 40.5 -129.5t105.5 -42.5z" />
    <glyph glyph-name="pi" unicode="&#x3c0;" horiz-adv-x="576" 
d="M540 -22q-14 -5 -35.5 -8.5t-39.5 -3.5q-63 0 -88.5 31.5t-25.5 86.5v352h-126v-462h-96v462h-113v85h544v-85h-113v-329q0 -29 8 -42.5t36 -13.5q11 0 21 2.5t17 4.5z" />
    <glyph glyph-name="rho" unicode="&#x3c1;" horiz-adv-x="588" 
d="M304 531q113 0 173.5 -65t60.5 -184v-67q0 -119 -54.5 -184t-166.5 -65q-51 0 -90.5 19t-59.5 49v-274h-97v522q0 120 60.5 184.5t173.5 64.5zM304 51q66 0 101 42t35 130v51q0 88 -35 130t-101 42t-101 -42t-35 -130v-51q0 -88 35 -130t101 -42z" />
    <glyph glyph-name="sigma" unicode="&#x3c3;" horiz-adv-x="588" 
d="M568 521v-83h-101q41 -32 56 -71.5t15 -94.5v-57q0 -119 -65.5 -184t-178.5 -65t-178.5 65t-65.5 184v57q0 120 65 184.5t186 64.5h267zM294 51q65 0 105.5 42.5t40.5 129.5v41q0 87 -40.5 129.5t-105.5 42.5t-105.5 -42.5t-40.5 -129.5v-41q0 -87 40.5 -129.5
t105.5 -42.5z" />
    <glyph glyph-name="tau" unicode="&#x3c4;" horiz-adv-x="552" 
d="M433 -16q-39 -18 -103 -18q-60 0 -87.5 32.5t-27.5 87.5v350h-199v85h520v-85h-224v-329q0 -29 8 -42.5t36 -13.5q17 0 31.5 3.5t26.5 8.5z" />
    <glyph glyph-name="upsilon" unicode="&#x3c5;" horiz-adv-x="582" 
d="M291 -34q-119 0 -170 61t-51 174v320h97v-303q0 -51 9 -83t25.5 -50t39.5 -25t50 -7t50 7t39.5 25t25.5 50t9 83v303h97v-320q0 -113 -51 -174t-170 -61z" />
    <glyph glyph-name="phi" unicode="&#x3c6;" horiz-adv-x="680" 
d="M291 -240v209q-56 6 -100.5 26.5t-76.5 53t-49 76.5t-17 98v51q0 60 21 107.5t59 81t92 51t120 17.5t120 -18t92 -51t59 -80.5t21 -107.5v-51q0 -54 -17.5 -98.5t-49.5 -77t-77 -52.5t-101 -26v-209h-96zM536 270q0 40 -11.5 70t-31.5 51t-47 33t-59 17v-387
q33 4 60 16.5t47 33.5t31 51.5t11 71.5v43zM144 227q0 -80 41.5 -120.5t105.5 -50.5v385q-32 -5 -59 -17.5t-46.5 -33t-30.5 -50.5t-11 -70v-43z" />
    <glyph glyph-name="chi" unicode="&#x3c7;" horiz-adv-x="558" 
d="M102 411q-7 16 -13.5 26t-20.5 10q-9 0 -17 -3t-15 -6l-26 70q16 11 38 17t44 6q36 0 58.5 -16.5t33.5 -47.5l96 -249l123 295h104l-168 -357l117 -285q7 -16 13.5 -24.5t20.5 -8.5q9 0 17 2.5t15 5.5l26 -72q-16 -11 -38 -17t-44 -6q-36 0 -58 16t-34 47l-106 276
l-147 -330h-105l192 394z" />
    <glyph glyph-name="psi" unicode="&#x3c8;" horiz-adv-x="726" 
d="M315 -240v209q-53 5 -98 22.5t-77.5 48.5t-51 76t-18.5 105v300h96v-290q0 -43 11 -74t31 -52t47 -32.5t60 -15.5v464h96v-464q32 4 59.5 15.5t47.5 32.5t31 52t11 74v290h96v-300q0 -60 -18.5 -105t-51.5 -76t-78 -48.5t-97 -22.5v-209h-96z" />
    <glyph glyph-name="omega" unicode="&#x3c9;" horiz-adv-x="752" 
d="M376 53q-15 -42 -52 -64.5t-82 -22.5q-38 0 -72 14t-59.5 44.5t-40.5 79.5t-15 120v22q0 36 7 75.5t19.5 78t29 74t35.5 63.5l84 -44q-32 -58 -54 -118.5t-22 -132.5v-18q0 -76 25.5 -123.5t72.5 -47.5q37 0 56.5 31.5t19.5 81.5v218h96v-218q0 -50 19.5 -81.5
t56.5 -31.5q47 0 73 47.5t26 123.5v18q0 72 -22 132.5t-54 118.5l83 44q19 -28 35.5 -63.5t29 -74t19.5 -78t7 -75.5v-22q0 -71 -15 -120t-40.5 -79.5t-59.5 -44.5t-72 -14q-45 0 -81 22.5t-51 64.5h-2z" />
    <glyph glyph-name="uni0401" unicode="&#x401;" horiz-adv-x="598" 
d="M531 695v-85h-350v-224h329v-85h-329v-242h357v-85h-456v721h449zM185 843h88v-92h-88v92zM360 843h88v-92h-88v92z" />
    <glyph glyph-name="uni0410" unicode="&#x410;" horiz-adv-x="673" 
d="M653 -26h-104l-76 212h-276l-76 -212h-101l268 721h96zM227 271h216l-60 169l-14 38.5t-11 32t-10.5 32.5t-12.5 42q-8 -25 -13 -42.5t-10 -32.5l-10.5 -31.5t-13.5 -38.5z" />
    <glyph glyph-name="uni0411" unicode="&#x411;" horiz-adv-x="625" 
d="M181 57h165q70 0 108 23.5t38 87.5v32q0 35 -9.5 58.5t-27.5 37.5t-44 19.5t-59 5.5h-171v-264zM531 612h-350v-209h170q118 0 180 -49t62 -152v-35q0 -89 -56.5 -141t-183.5 -52h-271v721h449v-83z" />
    <glyph glyph-name="uni0412" unicode="&#x412;" horiz-adv-x="635" 
d="M82 695h256q229 0 229 -176v-21q0 -24 -6 -46.5t-19.5 -41.5t-36 -33.5t-54.5 -22.5q66 -10 107.5 -50t41.5 -115v-25q0 -89 -56.5 -139.5t-174.5 -50.5h-287v721zM181 60h151q42 0 73.5 4.5t52 16.5t30.5 32.5t10 52.5v22q0 33 -9 56t-31 38t-58 21.5t-90 6.5h-129v-250
zM181 610v-219h128q37 0 66.5 4t49.5 16t30.5 33t10.5 55v18q0 32 -9.5 50.5t-30 28t-51.5 12t-73 2.5h-121z" />
    <glyph glyph-name="uni0413" unicode="&#x413;" horiz-adv-x="542" 
d="M82 -26v721h444v-83h-345v-638h-99z" />
    <glyph glyph-name="uni0414" unicode="&#x414;" horiz-adv-x="658" 
d="M576 695v-639h60v-252h-90v170h-441v-170h-89v252h53q40 67 62 132.5t31.5 129.5t11 125.5t1.5 121.5v130h401zM274 565q0 -68 -2.5 -133t-12 -128t-28.5 -125t-52 -123h307v557h-212v-48z" />
    <glyph glyph-name="uni0415" unicode="&#x415;" horiz-adv-x="598" 
d="M531 695v-85h-350v-224h329v-85h-329v-242h357v-85h-456v721h449z" />
    <glyph glyph-name="uni0416" unicode="&#x416;" horiz-adv-x="916" 
d="M409 310h-17q-15 0 -26 -3.5t-21.5 -13.5t-22.5 -26.5t-29 -42.5l-163 -250h-110l194 292q25 38 45.5 57.5t44.5 28.5q-14 7 -27.5 20t-26 29.5t-23 36t-18.5 38.5l-35 80q-16 36 -34.5 48.5t-42.5 12.5q-18 0 -39 -7l-21 80q11 5 28 8t37 3q27 0 49 -5t40 -17
t33.5 -32.5t29.5 -51.5l39 -84q16 -34 28.5 -57t23.5 -36.5t22 -19t23 -5.5h19v302h98v-302h19q12 0 23 5.5t22 19t23.5 36.5t28.5 57l39 84q14 31 29.5 51.5t33.5 32.5t40 17t49 5q20 0 37 -3t28 -8l-21 -80q-21 7 -39 7q-24 0 -42.5 -12.5t-34.5 -48.5l-35 -80
q-8 -19 -18.5 -38.5t-23 -36t-26 -29.5t-27.5 -20q24 -9 44.5 -28.5t45.5 -57.5l194 -292h-110l-163 250q-17 26 -29 42.5t-22.5 26.5t-21.5 13.5t-26 3.5h-17v-336h-98v336z" />
    <glyph glyph-name="uni0417" unicode="&#x417;" horiz-adv-x="558" 
d="M42 590q31 48 88 82t144 34q117 0 175.5 -49.5t58.5 -129.5v-11q0 -61 -37 -102t-107 -60q37 -3 69 -16t54.5 -34.5t35.5 -51t13 -66.5v-15q0 -41 -16 -78.5t-48 -66t-82 -46t-117 -17.5q-70 0 -136 20t-117 61l47 74q53 -38 106 -55t100 -17q40 0 70 10t50 27t30.5 39.5
t10.5 47.5v13q0 43 -17.5 68t-44 38t-57 17t-56.5 4h-81v80h84q34 0 61 11t46 29t29 41t10 46v9q0 17 -7.5 34.5t-23.5 31.5t-41 22.5t-61 8.5q-43 0 -83 -17.5t-75 -66.5z" />
    <glyph glyph-name="uni0418" unicode="&#x418;" horiz-adv-x="701" 
d="M619 695v-721h-92v590q-13 -32 -26.5 -59t-24.5 -47l-280 -484h-114v721h92v-591q13 32 26.5 59.5t24.5 45.5l280 486h114z" />
    <glyph glyph-name="uni0419" unicode="&#x419;" horiz-adv-x="701" 
d="M619 695v-721h-92v590q-13 -32 -26.5 -59t-24.5 -47l-280 -484h-114v721h92v-591q13 32 26.5 59.5t24.5 45.5l280 486h114zM364 722q-59 0 -95.5 33.5t-40.5 91.5h69q5 -29 20 -46.5t47 -17.5q33 0 47.5 17.5t19.5 46.5h69q-2 -58 -39 -91.5t-97 -33.5z" />
    <glyph glyph-name="uni041A" unicode="&#x41a;" horiz-adv-x="613" 
d="M82 695h98v-302h43q12 0 23 5.5t22 19t23.5 36.5t28.5 57l39 84q14 31 29.5 51.5t33.5 32.5t40 17t49 5q20 0 37 -3t28 -8l-21 -80q-21 7 -39 7q-24 0 -42.5 -12.5t-34.5 -48.5l-35 -80q-8 -19 -18.5 -38.5t-23 -36t-26 -29.5t-27.5 -20q24 -9 44.5 -28.5t45.5 -57.5
l194 -292h-110l-163 250q-17 26 -29 42.5t-22.5 26.5t-21.5 13.5t-26 3.5h-41v-336h-98v721z" />
    <glyph glyph-name="uni041B" unicode="&#x41b;" horiz-adv-x="697" 
d="M615 695v-721h-99v638h-223v-213q0 -73 -7 -141.5t-32.5 -126t-76 -100t-138.5 -63.5l-29 91q61 21 97 47t55.5 65.5t25.5 97.5t6 142v284h421z" />
    <glyph glyph-name="uni041C" unicode="&#x41c;" horiz-adv-x="850" 
d="M213 494q-5 11 -9 21.5t-8 21.5t-9 25t-11 32v-620h-94v721h146l200 -472l195 472h145v-721h-95v620q-5 -20 -9.5 -33.5t-8 -24.5t-7.5 -21t-9 -21l-172 -400h-84z" />
    <glyph glyph-name="uni041D" unicode="&#x41d;" horiz-adv-x="697" 
d="M615 695v-721h-99v332h-335v-332h-99v721h99v-301h335v301h99z" />
    <glyph glyph-name="uni041E" unicode="&#x41e;" horiz-adv-x="706" 
d="M353 -37q-65 0 -118.5 19.5t-92.5 59.5t-60.5 99t-21.5 139v109q0 79 21.5 138t60.5 99t93 60t118 20t118 -20t93 -60t60.5 -99t21.5 -138v-109q0 -80 -21.5 -139t-60.5 -99t-93 -59.5t-118 -19.5zM353 616q-42 0 -77.5 -13.5t-61 -42t-40 -74t-14.5 -108.5v-87
q0 -63 14.5 -108.5t40 -74t61 -42t77.5 -13.5t77.5 13.5t61 42t40 74t14.5 108.5v87q0 63 -14.5 108.5t-40 74t-61 42t-77.5 13.5z" />
    <glyph glyph-name="uni041F" unicode="&#x41f;" horiz-adv-x="677" 
d="M595 -26h-99v638h-315v-638h-99v721h513v-721z" />
    <glyph glyph-name="uni0420" unicode="&#x420;" horiz-adv-x="617" 
d="M82 695h258q61 0 106 -15.5t74.5 -43t44 -65.5t14.5 -82v-21q0 -44 -15.5 -82.5t-45.5 -67.5t-74.5 -46t-103.5 -17h-159v-281h-99v721zM181 609v-268h142q156 0 156 129v18q0 62 -37.5 91.5t-107.5 29.5h-153z" />
    <glyph glyph-name="uni0421" unicode="&#x421;" horiz-adv-x="644" 
d="M604 55q-54 -52 -118 -72t-137 -20q-65 0 -118 19.5t-91 59.5t-59 99t-21 139v109q0 79 21 138t59.5 99t91.5 60t117 20q75 0 131 -18.5t107 -58.5l-51 -81q-49 40 -93.5 53t-93.5 13q-41 0 -75.5 -14t-60 -43t-39.5 -74t-14 -107v-83q0 -62 14 -107t39.5 -74t60 -43
t75.5 -14q52 0 104 16t97 60z" />
    <glyph glyph-name="uni0422" unicode="&#x422;" horiz-adv-x="571" 
d="M236 -26v636h-220v85h539v-85h-220v-636h-99z" />
    <glyph glyph-name="uni0423" unicode="&#x423;" horiz-adv-x="562" 
d="M119 695l174 -411l154 411h105l-291 -732l-94 32l71 178l-228 522h109z" />
    <glyph glyph-name="uni0424" unicode="&#x424;" horiz-adv-x="752" 
d="M55 376q0 109 72.5 174.5t201.5 76.5v91h93v-91q129 -11 202 -76.5t73 -174.5v-53q0 -54 -19 -98t-54.5 -76.5t-86.5 -52t-115 -24.5v-98h-93v98q-129 11 -201.5 76.5t-72.5 174.5v53zM601 370q0 72 -44 115.5t-135 52.5v-378q91 9 135 52.5t44 116.5v41zM151 329
q0 -73 43.5 -116.5t134.5 -52.5v378q-91 -9 -134.5 -52.5t-43.5 -115.5v-41z" />
    <glyph glyph-name="uni0425" unicode="&#x425;" horiz-adv-x="655" 
d="M392 346l233 -372h-117l-183 309l-183 -309h-112l233 376l-218 345h118l170 -284l169 284h111z" />
    <glyph glyph-name="uni0426" unicode="&#x426;" horiz-adv-x="667" 
d="M181 695v-638h305v638h99v-638h60v-253h-99v170h-464v721h99z" />
    <glyph glyph-name="uni0427" unicode="&#x427;" horiz-adv-x="628" 
d="M169 695v-232q0 -45 7 -75t23.5 -47t43.5 -24t68 -7q39 0 73 10.5t63 28.5v346h99v-721h-99v288q-27 -16 -66.5 -26t-81.5 -10q-36 0 -76 7.5t-74 30t-56.5 62.5t-22.5 106v263h99z" />
    <glyph glyph-name="uni0428" unicode="&#x428;" horiz-adv-x="955" 
d="M180 695v-638h248v638h98v-638h248v638h99v-721h-791v721h98z" />
    <glyph glyph-name="uni0429" unicode="&#x429;" horiz-adv-x="955" 
d="M873 695v-638h60v-253h-99v170h-752v721h98v-638h248v638h98v-638h248v638h99z" />
    <glyph glyph-name="uni042A" unicode="&#x42a;" horiz-adv-x="688" 
d="M246 57h165q70 0 108 25t38 89v34q0 70 -37 97t-103 27h-171v-272zM10 695h236v-284h170q118 0 180 -50.5t62 -153.5v-37q0 -44 -13.5 -80.5t-42.5 -62t-74.5 -39.5t-109.5 -14h-271v638h-137v83z" />
    <glyph glyph-name="uni042B" unicode="&#x42b;" horiz-adv-x="843" 
d="M181 57h165q70 0 108 25t38 89v34q0 70 -37 97t-103 27h-171v-272zM181 695v-284h170q118 0 180 -50.5t62 -153.5v-37q0 -44 -13.5 -80.5t-42.5 -62t-74.5 -39.5t-109.5 -14h-271v721h99zM662 -26v721h99v-721h-99z" />
    <glyph glyph-name="uni042C" unicode="&#x42c;" horiz-adv-x="623" 
d="M181 57h165q70 0 108 25t38 89v34q0 70 -37 97t-103 27h-171v-272zM181 695v-284h170q118 0 180 -50.5t62 -153.5v-37q0 -44 -13.5 -80.5t-42.5 -62t-74.5 -39.5t-109.5 -14h-271v721h99z" />
    <glyph glyph-name="uni042D" unicode="&#x42d;" horiz-adv-x="644" 
d="M156 380h330q-1 61 -15.5 105.5t-40 73.5t-60.5 43t-75 14q-49 0 -93.5 -13t-93.5 -53l-51 79q51 40 107 58.5t131 18.5q64 0 117 -20t91.5 -60t59.5 -99t21 -138v-109q0 -80 -21 -139t-59 -99t-91.5 -59.5t-117.5 -19.5q-73 0 -137 20t-118 72l54 74q45 -44 97 -60
t104 -16q41 0 76 14t60.5 43.5t40 75t14.5 107.5v5h-330v82z" />
    <glyph glyph-name="uni042E" unicode="&#x42e;" horiz-adv-x="919" 
d="M576 -37q-65 0 -117 19.5t-89 59.5t-57 99t-20 139v11h-112v-317h-99v721h99v-321h112v15q0 79 20 138t57 99t89.5 60t116.5 20t116.5 -20t89.5 -60t57 -99t20 -138v-109q0 -80 -20 -139t-57 -99t-89.5 -59.5t-116.5 -19.5zM576 616q-42 0 -76 -13.5t-57.5 -42t-36.5 -74
t-13 -108.5v-87q0 -63 13 -108.5t36.5 -74t57.5 -42t76 -13.5t76 13.5t58 42t36.5 74t12.5 108.5v87q0 63 -12.5 108.5t-36.5 74t-58 42t-76 13.5z" />
    <glyph glyph-name="uni042F" unicode="&#x42f;" horiz-adv-x="659" 
d="M478 275h-132q-23 0 -38.5 -12.5t-29.5 -39.5l-121 -249h-107l130 260q13 25 24.5 41t31.5 27q-39 8 -67 25.5t-46.5 40.5t-27.5 50.5t-9 55.5v26q0 43 15.5 78.5t44.5 61.5t72 40.5t98 14.5h261v-721h-99v301zM478 610h-148q-75 0 -110 -30t-35 -83v-20
q0 -53 35.5 -85.5t119.5 -32.5h138v251z" />
    <glyph glyph-name="uni0430" unicode="&#x430;" horiz-adv-x="561" 
d="M233 -34q-83 0 -131.5 41t-48.5 113v27q0 70 47 114t152 44h139v32q0 55 -26.5 81.5t-86.5 26.5q-48 0 -83.5 -15t-73.5 -40l-48 72q40 28 90 48.5t116 20.5q46 0 84 -11.5t65.5 -34t43 -55t15.5 -73.5v-383h-93v66h-1q-8 -15 -21.5 -27.5t-29.5 -21.5
q-22 -12 -47.5 -18.5t-61.5 -6.5zM391 223h-137q-57 0 -81.5 -22t-24.5 -61v-14q0 -40 28 -58t67 -18q36 0 62.5 8.5t48.5 25.5q20 15 28.5 34.5t8.5 50.5v54z" />
    <glyph glyph-name="uni0431" unicode="&#x431;" horiz-adv-x="587" 
d="M300 494q55 0 98 -16.5t73 -48t45.5 -76t15.5 -99.5v-48q0 -56 -17 -100t-48.5 -75.5t-76 -48t-99.5 -16.5t-99.5 16.5t-76 48t-48.5 75.5t-17 100v55q0 123 23.5 209t74 142t131 86t194.5 41l12 -87q-63 -7 -116 -19t-94.5 -35.5t-70 -60.5t-42.5 -94q24 23 62 37t76 14
zM291 51q66 0 104.5 41.5t38.5 121.5v32q0 80 -38.5 121.5t-104.5 41.5t-104.5 -41.5t-38.5 -121.5v-32q0 -80 38.5 -121.5t104.5 -41.5z" />
    <glyph glyph-name="uni0432" unicode="&#x432;" horiz-adv-x="541" 
d="M78 513h215q193 0 193 -135v-11q0 -36 -20.5 -66.5t-69.5 -42.5q51 -8 83 -37t32 -80v-15q0 -68 -47.5 -110t-147.5 -42h-238v539zM175 55h116q27 0 49.5 3.5t38 12t24.5 22.5t9 36v14q0 20 -6 34t-22 22.5t-42.5 12.5t-67.5 4h-99v-161zM175 432v-137h102q28 0 49 2.5
t35 10t20.5 21t6.5 35.5v9q0 14 -4.5 25t-17 18.5t-34.5 11.5t-56 4h-101z" />
    <glyph glyph-name="uni0433" unicode="&#x433;" horiz-adv-x="414" 
d="M409 513v-83h-234v-456h-97v539h331z" />
    <glyph glyph-name="uni0434" unicode="&#x434;" horiz-adv-x="583" 
d="M505 513v-457h48v-219h-97v137h-339v-137h-97v219h43q33 54 50 95.5t25 79t9 75.5t1 86v121h357zM245 392q0 -54 -1.5 -95t-9 -78t-22.5 -75.5t-42 -87.5h238v375h-163v-39z" />
    <glyph glyph-name="uni0435" unicode="&#x435;" horiz-adv-x="561" 
d="M290 448q-30 0 -55.5 -10.5t-44 -29t-29 -45t-10.5 -57.5v-14h274v18q0 63 -36 100.5t-99 37.5zM506 26q-36 -25 -86 -42.5t-125 -17.5q-51 0 -94.5 14.5t-76 45t-51 78.5t-18.5 114v62q0 62 17.5 109t49 78.5t74.5 47.5t94 16q105 0 167 -64t62 -181v-73h-368v-4
q0 -78 41 -118.5t107 -40.5q54 0 92.5 13t73.5 36z" />
    <glyph glyph-name="uni0436" unicode="&#x436;" horiz-adv-x="735" 
d="M319 214h-11q-11 0 -19 -2.5t-15.5 -9.5t-16.5 -19.5t-21 -31.5l-114 -177h-112l145 218q19 28 34.5 42.5t40.5 21.5q-25 7 -38.5 26t-26.5 48l-26 58q-11 23 -22.5 33.5t-31.5 10.5q-21 0 -40 -7l-20 80q11 5 28 9t39 4q45 0 73 -17t50 -64l25 -53q20 -43 34.5 -65.5
t34.5 -22.5h10v217h97v-217h10q20 0 34.5 22.5t34.5 65.5l25 53q22 47 49.5 64t72.5 17q22 0 39.5 -4t28.5 -9l-20 -80q-19 7 -40 7q-20 0 -31.5 -10.5t-22.5 -33.5l-26 -58q-13 -29 -27 -48t-38 -26q25 -7 40.5 -21.5t34.5 -42.5l145 -218h-112l-114 177q-12 19 -21 31.5
t-16.5 19.5t-15.5 9.5t-19 2.5h-11v-240h-97v240z" />
    <glyph glyph-name="uni0437" unicode="&#x437;" horiz-adv-x="453" 
d="M25 437q29 36 76 61t110 25q93 0 141.5 -38.5t48.5 -98.5v-8q0 -46 -24 -75.5t-78 -43.5q57 -3 90.5 -37t33.5 -88v-11q0 -33 -13.5 -62t-40 -50t-65.5 -33t-90 -12q-26 0 -54 3.5t-55 11t-51.5 19t-43.5 26.5l42 73q41 -29 81.5 -39.5t80.5 -10.5q22 0 42.5 4.5t36 13.5
t24.5 24t9 36v10q0 26 -10 41.5t-26.5 23.5t-38 10.5t-44.5 2.5h-67v82h69q51 0 72.5 21t21.5 55v6q0 23 -19 42.5t-71 19.5q-30 0 -65 -15t-64 -52z" />
    <glyph glyph-name="uni0438" unicode="&#x438;" horiz-adv-x="603" 
d="M525 -26h-94v396q-6 -17 -15 -33.5t-20 -32.5l-227 -330h-91v539h94v-396q10 23 18 36.5t19 28.5l226 331h90v-539z" />
    <glyph glyph-name="uni0439" unicode="&#x439;" horiz-adv-x="603" 
d="M525 -26h-94v396q-6 -17 -15 -33.5t-20 -32.5l-227 -330h-91v539h94v-396q10 23 18 36.5t19 28.5l226 331h90v-539zM305 571q-59 0 -95.5 33.5t-40.5 91.5h69q5 -29 20 -46.5t47 -17.5q33 0 47.5 17.5t19.5 46.5h69q-2 -58 -39 -91.5t-97 -33.5z" />
    <glyph glyph-name="uni043A" unicode="&#x43a;" horiz-adv-x="514" 
d="M78 512h97v-216h29q20 0 34 22.5t34 65.5l25 53q22 47 50 64t73 17q22 0 39.5 -4t28.5 -9l-19 -80q-19 7 -40 7q-20 0 -31.5 -10.5t-22.5 -33.5l-26 -58q-13 -29 -27 -48t-38 -26q25 -7 40.5 -21.5t34.5 -42.5l145 -218h-114l-114 177q-12 19 -20.5 31.5t-16 19.5
t-15.5 9.5t-19 2.5h-30v-240h-97v538z" />
    <glyph glyph-name="uni043B" unicode="&#x43b;" horiz-adv-x="588" 
d="M510 513v-539h-97v456h-190v-150q0 -50 -5.5 -101t-25 -94.5t-58 -75t-104.5 -41.5l-20 85q36 10 58.5 26t35 42t17.5 65.5t5 98.5v228h384z" />
    <glyph glyph-name="uni043C" unicode="&#x43c;" horiz-adv-x="699" 
d="M197 321q-8 20 -13.5 36t-12.5 40v-423h-93v539h129l144 -351l143 351h127v-539h-98v423q-5 -22 -11 -38t-14 -36l-114 -270h-73z" />
    <glyph glyph-name="uni043D" unicode="&#x43d;" horiz-adv-x="608" 
d="M175 513v-219h258v219h97v-539h-97v236h-258v-236h-97v539h97z" />
    <glyph glyph-name="uni043E" unicode="&#x43e;" horiz-adv-x="598" 
d="M299 531q113 0 178.5 -65t65.5 -184v-67q0 -119 -65.5 -184t-178.5 -65t-178.5 65t-65.5 184v67q0 120 65.5 184.5t178.5 64.5zM299 51q65 0 105.5 42.5t40.5 129.5v51q0 87 -40.5 129.5t-105.5 42.5t-105.5 -42.5t-40.5 -129.5v-51q0 -87 40.5 -129.5t105.5 -42.5z" />
    <glyph glyph-name="uni043F" unicode="&#x43f;" horiz-adv-x="585" 
d="M507 513v-539h-97v455h-235v-455h-97v539h429z" />
    <glyph glyph-name="uni0440" unicode="&#x440;" horiz-adv-x="600" 
d="M172 453q24 42 67.5 60t92.5 18q104 0 158.5 -62t54.5 -171v-97q0 -57 -16 -100.5t-44.5 -73.5t-69 -45.5t-89.5 -15.5q-61 0 -97.5 22t-53.5 46v-274h-97v761h94v-68zM174 169q0 -21 10.5 -42.5t30 -38t45.5 -27t58 -10.5q62 0 96.5 43t34.5 121v67q0 78 -35 121t-96 43
q-30 0 -56 -10t-45.5 -28t-31 -43.5t-11.5 -57.5v-138z" />
    <glyph glyph-name="uni0441" unicode="&#x441;" horiz-adv-x="514" 
d="M291 531q68 0 111.5 -17t77.5 -43l-46 -73q-38 28 -70.5 37.5t-72.5 9.5q-27 0 -52 -9t-44 -28.5t-30.5 -49.5t-11.5 -72v-69q0 -44 11.5 -75.5t31 -51t45 -28.5t52.5 -9q54 0 89.5 14t64.5 36l47 -74q-29 -24 -78 -43.5t-124 -19.5q-114 0 -175.5 66t-61.5 184v69
q0 59 17 104.5t47.5 77t74 48t97.5 16.5z" />
    <glyph glyph-name="uni0442" unicode="&#x442;" horiz-adv-x="449" 
d="M434 513v-84h-163v-455h-97v455h-159v84h419z" />
    <glyph glyph-name="uni0443" unicode="&#x443;" horiz-adv-x="520" 
d="M267 84l144 437h102l-284 -773l-88 31l71 187l-199 555h105l145 -437h4z" />
    <glyph glyph-name="uni0444" unicode="&#x444;" horiz-adv-x="678" 
d="M386 695v-175q116 -11 179 -76t63 -171v-57q0 -106 -63 -171t-179 -76v-196h-94v196q-116 11 -179 76t-63 171v57q0 107 63 171.5t179 75.5v175h94zM531 269q0 40 -11 69.5t-30.5 49.5t-46 31.5t-57.5 16.5v-386q31 5 57.5 17t46 32.5t30.5 50t11 70.5v49zM147 220
q0 -40 11.5 -70t31 -50.5t46 -32.5t56.5 -17v386q-31 -5 -57.5 -16.5t-46 -31.5t-30.5 -49.5t-11 -69.5v-49z" />
    <glyph glyph-name="uni0445" unicode="&#x445;" horiz-adv-x="525" 
d="M325 258l180 -284h-117l-127 220l-130 -220h-111l183 284l-174 263h117l121 -202l123 202h108z" />
    <glyph glyph-name="uni0446" unicode="&#x446;" horiz-adv-x="572" 
d="M494 513v-456h48v-220h-97v137h-367v539h97v-456h222v456h97z" />
    <glyph glyph-name="uni0447" unicode="&#x447;" horiz-adv-x="537" 
d="M137 513v-163q0 -25 4 -45t15.5 -34.5t32 -22t54.5 -7.5q38 0 66.5 8.5t52.5 25.5v238h97v-547h-97v224q-20 -14 -53.5 -23.5t-76.5 -9.5q-36 0 -70.5 9t-61.5 28t-43.5 49.5t-16.5 73.5v196h97z" />
    <glyph glyph-name="uni0448" unicode="&#x448;" horiz-adv-x="807" 
d="M78 -26v539h97v-457h180v457h97v-457h180v457h97v-539h-651z" />
    <glyph glyph-name="uni0449" unicode="&#x449;" horiz-adv-x="807" 
d="M729 513v-457h48v-219h-97v137h-602v539h97v-457h180v457h97v-457h180v457h97z" />
    <glyph glyph-name="uni044A" unicode="&#x44a;" horiz-adv-x="556" 
d="M209 56h104q63 0 91 17.5t28 65.5v18q0 26 -6.5 42.5t-20.5 26t-36 13t-52 3.5h-108v-186zM10 513h199v-189h131q88 0 139 -40t51 -125v-21q0 -74 -46 -119t-143 -45h-229v456h-102v83z" />
    <glyph glyph-name="uni044B" unicode="&#x44b;" horiz-adv-x="731" 
d="M175 56h104q59 0 89 18t30 66v16q0 52 -29.5 69t-85.5 17h-108v-186zM175 513v-189h131q93 0 141.5 -40.5t48.5 -125.5v-19q0 -74 -44 -119.5t-145 -45.5h-229v539h97zM653 513v-539h-97v539h97z" />
    <glyph glyph-name="uni044C" unicode="&#x44c;" horiz-adv-x="522" 
d="M175 56h104q59 0 89 18t30 66v16q0 52 -29.5 69t-85.5 17h-108v-186zM175 513v-189h131q93 0 141.5 -40.5t48.5 -125.5v-19q0 -74 -44 -119.5t-145 -45.5h-229v539h97z" />
    <glyph glyph-name="uni044D" unicode="&#x44d;" horiz-adv-x="509" 
d="M135 289h226q-1 41 -12.5 71t-30.5 49t-43.5 28t-51.5 9q-40 0 -72.5 -9.5t-70.5 -37.5l-46 72q34 26 77.5 43t111.5 17q54 0 97.5 -16.5t74 -48t47.5 -77t17 -104.5v-69q0 -118 -61.5 -184t-175.5 -66q-75 0 -124 19.5t-78 43.5l47 73q29 -22 64.5 -36t89.5 -14
q26 0 50.5 8.5t44 27t31.5 48t14 71.5h-226v82z" />
    <glyph glyph-name="uni044E" unicode="&#x44e;" horiz-adv-x="763" 
d="M481 531q111 0 169 -65t58 -184v-67q0 -119 -58 -184t-169 -65q-108 0 -166 61.5t-61 175.5h-77v-229h-97v539h97v-225h77q2 117 60 180t167 63zM481 51q129 0 129 172v51q0 172 -129 172t-129 -172v-51q0 -172 129 -172z" />
    <glyph glyph-name="uni044F" unicode="&#x44f;" horiz-adv-x="541" 
d="M463 -26h-97v213h-81q-35 0 -51 -12t-29 -40l-77 -161h-112l87 175q14 29 29.5 44.5t35.5 23.5q-52 8 -87 43t-35 93v11q0 69 46.5 109t140.5 40h230v-539zM239 431q-50 0 -72.5 -20.5t-22.5 -53.5v-7q0 -45 35 -62t86 -17h101v160h-127z" />
    <glyph glyph-name="uni0451" unicode="&#x451;" horiz-adv-x="561" 
d="M290 448q-30 0 -55.5 -10.5t-44 -29t-29 -45t-10.5 -57.5v-14h274v18q0 63 -36 100.5t-99 37.5zM506 26q-36 -25 -86 -42.5t-125 -17.5q-51 0 -94.5 14.5t-76 45t-51 78.5t-18.5 114v62q0 62 17.5 109t49 78.5t74.5 47.5t94 16q105 0 167 -64t62 -181v-73h-368v-4
q0 -78 41 -118.5t107 -40.5q54 0 92.5 13t73.5 36zM155 680h88v-92h-88v92zM330 680h88v-92h-88v92z" />
    <glyph glyph-name="uni2010" unicode="&#x2010;" horiz-adv-x="419" 
d="M30 337h359v-93h-359v93z" />
    <glyph glyph-name="emdash" unicode="&#x2014;" horiz-adv-x="850" 
d="M850 279h-850v70h850v-70z" />
    <glyph glyph-name="emdash" unicode="&#x2015;" horiz-adv-x="850" 
d="M850 279h-850v70h850v-70z" />
    <glyph glyph-name="uni2016" unicode="&#x2016;" 
d="M571 -180h-57v960h57v-960zM395 -180h-56v960h56v-960z" />
    <glyph glyph-name="quoteleft" unicode="&#x2018;" horiz-adv-x="200" 
d="M138 545h-110l75 228h77z" />
    <glyph glyph-name="quoteright" unicode="&#x2019;" horiz-adv-x="200" 
d="M62 758h110l-75 -228h-77z" />
    <glyph glyph-name="quotereversed" unicode="&#x201b;" horiz-adv-x="470" 
 />
    <glyph glyph-name="quotedblleft" unicode="&#x201c;" horiz-adv-x="350" 
d="M286 545h-107l75 228h74zM142 545h-107l75 228h74z" />
    <glyph glyph-name="quotedblright" unicode="&#x201d;" horiz-adv-x="350" 
d="M64 758h107l-75 -228h-74zM208 758h107l-75 -228h-74z" />
    <glyph glyph-name="uni201F" unicode="&#x201f;" horiz-adv-x="470" 
 />
    <glyph glyph-name="dagger" unicode="&#x2020;" horiz-adv-x="493" 
d="M205 413h-165v79h165v202h83v-202h165v-79h-165v-504h-83v504z" />
    <glyph glyph-name="daggerdbl" unicode="&#x2021;" horiz-adv-x="493" 
d="M40 190h165v223h-165v79h165v202h83v-202h165v-79h-165v-223h165v-79h-165v-202h-83v202h-165v79z" />
    <glyph glyph-name="bullet" unicode="&#x2022;" horiz-adv-x="940" 
 />
    <glyph glyph-name="twodotenleader" unicode="&#x2025;" 
d="M255 360h114v-115h-114v115zM540 360h114v-115h-114v115z" />
    <glyph glyph-name="ellipsis" unicode="&#x2026;" 
d="M130 360h114v-115h-114v115zM398 360h114v-115h-114v115zM666 360h114v-115h-114v115z" />
    <glyph glyph-name="ellipsis" unicode="&#x22ef;" 
d="M130 360h114v-115h-114v115zM398 360h114v-115h-114v115zM666 360h114v-115h-114v115z" />
    <glyph glyph-name="perthousand" unicode="&#x2030;" horiz-adv-x="1267" 
d="M186 -25l431 720h89l-430 -720h-90zM227 706q76 0 119.5 -45t43.5 -124v-42q0 -79 -43.5 -124t-119.5 -45t-119.5 45t-43.5 124v42q0 79 43.5 124t119.5 45zM227 394q85 0 85 103v38q0 103 -85 103t-85 -103v-38q0 -103 85 -103zM666 346q76 0 119.5 -45t43.5 -124v-42
q0 -79 -43.5 -124t-119.5 -45t-119.5 45t-43.5 124v42q0 79 43.5 124t119.5 45zM666 34q85 0 85 103v38q0 103 -85 103t-85 -103v-38q0 -103 85 -103zM1040 346q76 0 119.5 -45t43.5 -124v-42q0 -79 -43.5 -124t-119.5 -45t-119.5 45t-43.5 124v42q0 79 43.5 124t119.5 45z
M1040 34q85 0 85 103v38q0 103 -85 103t-85 -103v-38q0 -103 85 -103z" />
    <glyph glyph-name="minute" unicode="&#x2032;" horiz-adv-x="428" 
d="M200 735h108l-135 -255h-53z" />
    <glyph glyph-name="second" unicode="&#x2033;" horiz-adv-x="595" 
d="M368 735h107l-135 -255h-52zM200 735h107l-135 -255h-52z" />
    <glyph glyph-name="uni2034" unicode="&#x2034;" horiz-adv-x="589" 
 />
    <glyph glyph-name="uni2035" unicode="&#x2035;" horiz-adv-x="940" 
 />
    <glyph glyph-name="uni2036" unicode="&#x2036;" horiz-adv-x="940" 
 />
    <glyph glyph-name="guilsinglleft" unicode="&#x2039;" horiz-adv-x="940" 
 />
    <glyph glyph-name="guilsinglright" unicode="&#x203a;" horiz-adv-x="940" 
 />
    <glyph glyph-name="uni203B" unicode="&#x203b;" 
d="M499 306l328 -317l-56 -54l-323 321q-81 -81 -161 -160.5t-161 -160.5l-54 53q81 80 163 158.5t163 158.5l-324 319l51 55l323 -323l325 323l51 -54zM224 304q0 -15 -6 -28.5t-17 -24t-25.5 -17t-30.5 -6.5q-15 0 -29 6t-25.5 16.5t-18 24.5t-6.5 29q0 16 6.5 30.5
t17.5 25t25 16.5t29 6q16 0 30.5 -6t25.5 -16.5t17.5 -25t6.5 -30.5zM523 606q0 -15 -6.5 -29t-17 -24.5t-24.5 -17t-30 -6.5t-30 6.5t-25 17t-17.5 24.5t-6.5 29q0 32 23 54.5t55 22.5q16 0 30.5 -6t25 -16.5t17 -24.5t6.5 -30zM843 304q0 -15 -6.5 -28.5t-17 -24
t-25 -16.5t-30.5 -6q-15 0 -29.5 6t-25 16.5t-17 24t-6.5 28.5q0 33 23 55.5t54 22.5q32 0 56 -22.5t24 -55.5zM523 -6q0 -30 -22.5 -52.5t-55.5 -22.5q-16 0 -30 6t-24.5 16.5t-17 24t-6.5 28.5q0 32 22.5 54.5t54.5 22.5t55.5 -22.5t23.5 -54.5z" />
    <glyph glyph-name="exclamdbl" unicode="&#x203c;" horiz-adv-x="940" 
 />
    <glyph glyph-name="uni203E" unicode="&#x203e;" 
d="M905 723h-900v39h900v-39z" />
    <glyph glyph-name="uni203E" unicode="&#xffe3;" 
d="M905 723h-900v39h900v-39z" />
    <glyph glyph-name="uni2042" unicode="&#x2042;" horiz-adv-x="940" 
 />
    <glyph glyph-name="uni2074" unicode="&#x2074;" horiz-adv-x="400" 
d="M327 601v-154h60v-72h-60v-91h-84v91h-225v60l198 307h92l-191 -295h126v154h84z" />
    <glyph glyph-name="uni207A" unicode="&#x207a;" horiz-adv-x="470" 
 />
    <glyph glyph-name="uni207B" unicode="&#x207b;" horiz-adv-x="470" 
 />
    <glyph glyph-name="uni207C" unicode="&#x207c;" horiz-adv-x="470" 
 />
    <glyph glyph-name="uni207D" unicode="&#x207d;" horiz-adv-x="470" 
 />
    <glyph glyph-name="uni207E" unicode="&#x207e;" horiz-adv-x="470" 
 />
    <glyph glyph-name="uni207F" unicode="&#x207f;" horiz-adv-x="474" 
d="M270 729q30 0 57.5 -9t48.5 -28t33.5 -49t12.5 -72v-287h-88v267q0 29 -6 48.5t-17.5 31t-28 16t-36.5 4.5q-16 0 -34 -5t-33.5 -17t-25.5 -32t-10 -49v-264h-88v438h83v-53q23 33 56.5 46.5t75.5 13.5z" />
    <glyph glyph-name="uni2081" unicode="&#x2081;" horiz-adv-x="400" 
d="M193 -112v359l-104 -61l-42 71l159 89h75v-458h-88z" />
    <glyph glyph-name="uni2082" unicode="&#x2082;" horiz-adv-x="400" 
d="M199 121q20 22 32 37t18 26.5t7.5 20.5t1.5 18v5q0 19 -14.5 34t-50.5 15q-25 0 -47.5 -12t-42.5 -47l-66 44q9 15 22 31.5t32 30t44.5 22.5t58.5 9q38 0 66.5 -10t47.5 -27t28.5 -39.5t9.5 -47.5v-6q0 -38 -24.5 -75t-56.5 -71l-111 -117h209v-74h-324v61z" />
    <glyph glyph-name="uni2083" unicode="&#x2083;" horiz-adv-x="400" 
d="M47 284q22 34 60 52.5t83 18.5q37 0 64.5 -9t46.5 -24.5t28.5 -35.5t9.5 -42v-8q0 -33 -14.5 -62.5t-49.5 -44.5q45 -9 66 -36.5t21 -61.5v-12q0 -62 -43.5 -100.5t-126.5 -38.5q-88 0 -157 54l41 66q36 -27 61.5 -35.5t52.5 -8.5q45 0 64 19t19 44v10q0 12 -4 23
t-13.5 19.5t-26.5 14t-44 5.5h-56v75h55q38 0 53 13.5t15 43.5v6q0 53 -65 53q-20 0 -41 -9.5t-40 -33.5z" />
    <glyph glyph-name="uni2084" unicode="&#x2084;" horiz-adv-x="400" 
d="M327 206v-154h60v-72h-60v-91h-84v91h-225v60l198 307h92l-191 -295h126v154h84z" />
    <glyph glyph-name="uni20A9" unicode="&#x20a9;" horiz-adv-x="959" 
d="M36 401h102l-72 294h99l64 -294h137l74 294h89l70 -294h133l63 294h95l-72 -294h105v-61h-120l-88 -366h-90l-86 366h-112l-90 -366h-94l-90 366h-117v61zM293 106l58 234h-109zM669 106l50 234h-106zM442 401h83l-40 174z" />
    <glyph glyph-name="uni2103" unicode="&#x2103;" horiz-adv-x="833" 
d="M793 55q-54 -52 -118 -72t-137 -20q-65 0 -118 19.5t-91 59.5t-59 99t-21 139v109q0 79 21 138t59.5 99t91.5 60t117 20q75 0 131 -18.5t107 -58.5l-51 -81q-49 40 -93.5 53t-93.5 13q-41 0 -75.5 -14t-60 -43t-39.5 -74t-14 -107v-83q0 -62 14 -107t39.5 -74t60 -43
t75.5 -14q52 0 104 16t97 60zM249 625q0 -19 -7 -36t-20 -29.5t-31 -20t-40 -7.5t-40 7.5t-31 20t-20 29.5t-7 36t7 36t20 29.5t31 20t40 7.5t40 -7.5t31 -20t20 -29.5t7 -36zM107 624q0 -20 12 -33t32 -13t31.5 13t11.5 33t-11.5 33.5t-31.5 13.5t-32 -13.5t-12 -33.5z" />
    <glyph glyph-name="uni2109" unicode="&#x2109;" horiz-adv-x="785" 
d="M249 625q0 -19 -7 -36t-20 -29.5t-31 -20t-40 -7.5t-40 7.5t-31 20t-20 29.5t-7 36t7 36t20 29.5t31 20t40 7.5t40 -7.5t31 -20t20 -29.5t7 -36zM107 624q0 -20 12 -33t32 -13t31.5 13t11.5 33t-11.5 33.5t-31.5 13.5t-32 -13.5t-12 -33.5zM745 695v-85h-347v-241h326
v-85h-326v-310h-99v721h446z" />
    <glyph glyph-name="uni2113" unicode="&#x2113;" 
d="M607 14q-19 -21 -49.5 -34.5t-70.5 -13.5q-74 0 -106.5 34t-32.5 99v417q0 39 6.5 73.5t22 60.5t41 41t63.5 15q40 0 66 -15.5t40.5 -41.5t20 -60.5t5.5 -72.5v-95q0 -119 -45 -193t-121 -112v-14q0 -55 46 -55q26 0 41 9.5t27 20.5zM447 211q28 23 48 76.5t20 132.5v75
q0 24 -1 46.5t-4.5 39.5t-10 27t-18.5 10t-18.5 -10t-10 -27t-4.5 -39.5t-1 -46.5v-284z" />
    <glyph glyph-name="uni2116" unicode="&#x2116;" horiz-adv-x="900" 
d="M180 695l170 -463q7 -20 16.5 -48.5t17.5 -79.5v591h88v-721h-114l-172 463q-8 22 -17.5 54t-14.5 74v-591h-88v721h114zM682 512q79 0 125 -47.5t46 -137.5v-44q0 -90 -46 -138t-125 -48q-78 0 -124 48t-46 138v44q0 90 46 137.5t124 47.5zM682 172q42 0 64.5 28.5
t22.5 89.5v29q0 61 -22.5 89.5t-64.5 28.5t-64 -28.5t-22 -89.5v-29q0 -61 22 -89.5t64 -28.5zM540 51h285v-77h-285v77z" />
    <glyph glyph-name="uni2121" unicode="&#x2121;" horiz-adv-x="1060" 
d="M702 513v-83h-206v-134h185v-83h-185v-156h213v-83h-310v539h303zM192 -26v638h-184v83h465v-83h-184v-638h-97zM858 513v-456h194v-83h-291v539h97z" />
    <glyph glyph-name="trademark" unicode="&#x2122;" horiz-adv-x="725" 
d="M116 636h-96v59h268v-59h-96v-267h-76v267zM322 695h92l84 -188h3l87 188h90v-326h-71v230h-1l-78 -166h-59l-80 172h-2v-236h-65v326z" />
    <glyph glyph-name="Omega" unicode="&#x2126;" 
d="M455 617q-42 0 -79.5 -13t-66 -41t-45 -73t-16.5 -108v-88q0 -50 10 -89t28 -68t42 -47.5t52 -27.5v-88h-298v86h162q-18 15 -35 36t-30 48.5t-21 62t-8 76.5v109q0 79 23.5 138t65 98t97 58.5t119.5 19.5t119.5 -19.5t97 -58.5t65 -98t23.5 -138v-109q0 -42 -8 -76.5
t-21 -62t-30 -48.5t-35 -36h162v-86h-298v88q28 9 52 27.5t42 47.5t28 68t10 89v88q0 63 -16.5 108t-45 73t-66 41t-79.5 13z" />
    <glyph glyph-name="uni212B" unicode="&#x212b;" horiz-adv-x="673" 
d="M434 713q0 -20 -8.5 -38t-22.5 -31l250 -670h-104l-76 212h-276l-76 -212h-101l248 669q-14 13 -22.5 31.5t-8.5 38.5q0 39 28 67t70 28q43 0 71 -28t28 -67zM227 271h216l-60 169l-14 38.5t-11 32t-10.5 32.5t-12.5 42q-8 -25 -13 -42.5t-10 -32.5l-10.5 -31.5
t-13.5 -38.5zM335 663q23 0 36.5 13.5t13.5 36.5t-13.5 37t-36.5 14q-22 0 -35.5 -14t-13.5 -37t13.5 -36.5t35.5 -13.5z" />
    <glyph glyph-name="onethird" unicode="&#x2153;" horiz-adv-x="920" 
d="M691 709h85l-523 -775h-85zM193 237v359l-104 -61l-42 71l159 89h75v-458h-88zM567 313q22 34 60 52.5t83 18.5q37 0 64.5 -9t46.5 -24.5t28.5 -35.5t9.5 -42v-8q0 -33 -14.5 -62.5t-49.5 -44.5q45 -9 66 -36.5t21 -61.5v-12q0 -62 -43.5 -100.5t-126.5 -38.5
q-88 0 -157 54l41 66q36 -27 61.5 -35.5t52.5 -8.5q45 0 64 19t19 44v10q0 12 -4 23t-13.5 19.5t-26.5 14t-44 5.5h-56v75h55q38 0 53 13.5t15 43.5v6q0 53 -65 53q-20 0 -41 -9.5t-40 -33.5z" />
    <glyph glyph-name="twothirds" unicode="&#x2154;" horiz-adv-x="964" 
d="M735 709h85l-523 -775h-85zM611 313q22 34 60 52.5t83 18.5q37 0 64.5 -9t46.5 -24.5t28.5 -35.5t9.5 -42v-8q0 -33 -14.5 -62.5t-49.5 -44.5q45 -9 66 -36.5t21 -61.5v-12q0 -62 -43.5 -100.5t-126.5 -38.5q-88 0 -157 54l41 66q36 -27 61.5 -35.5t52.5 -8.5q45 0 64 19
t19 44v10q0 12 -4 23t-13.5 19.5t-26.5 14t-44 5.5h-56v75h55q38 0 53 13.5t15 43.5v6q0 53 -65 53q-20 0 -41 -9.5t-40 -33.5zM199 470q20 22 32 37t18 26.5t7.5 20.5t1.5 18v5q0 19 -14.5 34t-50.5 15q-25 0 -47.5 -12t-42.5 -47l-66 44q9 15 22 31.5t32 30t44.5 22.5
t58.5 9q38 0 66.5 -10t47.5 -27t28.5 -39.5t9.5 -47.5v-6q0 -38 -24.5 -75t-56.5 -71l-111 -117h209v-74h-324v61z" />
    <glyph glyph-name="oneeighth" unicode="&#x215b;" horiz-adv-x="920" 
d="M691 709h85l-523 -775h-85zM656 249q0 -30 20 -45t45 -15q26 0 45 15t19 45v6q0 29 -17.5 45t-46.5 16q-27 0 -46 -16t-19 -45v-6zM647 41q0 -28 20 -44t56 -16q33 0 52.5 16t19.5 44v8q0 32 -21 48t-51 16q-32 0 -54 -16t-22 -48v-8zM561 49q0 38 22.5 66.5t54.5 37.5
q-33 17 -48.5 45.5t-15.5 54.5v8q0 25 9.5 47.5t28 39.5t46 27t63.5 10q35 0 62.5 -10t46.5 -27t29 -39.5t10 -47.5v-8q0 -26 -15 -54t-49 -46q32 -9 54.5 -37.5t22.5 -66.5v-12q0 -55 -42.5 -91.5t-118.5 -36.5t-118 36.5t-42 91.5v12zM193 237v359l-104 -61l-42 71l159 89
h75v-458h-88z" />
    <glyph glyph-name="threeeighths" unicode="&#x215c;" horiz-adv-x="936" 
d="M706 709h85l-523 -775h-85zM672 249q0 -30 20 -45t45 -15q26 0 45 15t19 45v6q0 29 -17.5 45t-46.5 16q-27 0 -46 -16t-19 -45v-6zM663 41q0 -28 20 -44t56 -16q33 0 52.5 16t19.5 44v8q0 32 -21 48t-51 16q-32 0 -54 -16t-22 -48v-8zM577 49q0 38 22.5 66.5t54.5 37.5
q-33 17 -48.5 45.5t-15.5 54.5v8q0 25 9.5 47.5t28 39.5t46 27t63.5 10q35 0 62.5 -10t46.5 -27t29 -39.5t10 -47.5v-8q0 -26 -15 -54t-49 -46q32 -9 54.5 -37.5t22.5 -66.5v-12q0 -55 -42.5 -91.5t-118.5 -36.5t-118 36.5t-42 91.5v12zM47 633q22 34 60 52.5t83 18.5
q37 0 64.5 -9t46.5 -24.5t28.5 -35.5t9.5 -42v-8q0 -33 -14.5 -62.5t-49.5 -44.5q45 -9 66 -36.5t21 -61.5v-12q0 -62 -43.5 -100.5t-126.5 -38.5q-88 0 -157 54l41 66q36 -27 61.5 -35.5t52.5 -8.5q45 0 64 19t19 44v10q0 12 -4 23t-13.5 19.5t-26.5 14t-44 5.5h-56v75h55
q38 0 53 13.5t15 43.5v6q0 53 -65 53q-20 0 -41 -9.5t-40 -33.5z" />
    <glyph glyph-name="fiveeighths" unicode="&#x215d;" horiz-adv-x="926" 
d="M697 709h85l-523 -775h-85zM275 385q0 30 -14.5 51.5t-55.5 21.5q-26 0 -46.5 -10.5t-32.5 -24.5h-59l15 272h251v-71h-177l-5 -116q16 11 34.5 16.5t44.5 5.5q32 0 56.5 -11t41.5 -30.5t26 -45t9 -54.5v-10q0 -27 -9.5 -53.5t-30 -48t-51.5 -35t-74 -13.5
q-47 0 -85.5 12.5t-72.5 39.5l41 66q33 -26 58.5 -34.5t57.5 -8.5q38 0 58 21.5t20 53.5v6zM662 249q0 -30 20 -45t45 -15q26 0 45 15t19 45v6q0 29 -17.5 45t-46.5 16q-27 0 -46 -16t-19 -45v-6zM653 41q0 -28 20 -44t56 -16q33 0 52.5 16t19.5 44v8q0 32 -21 48t-51 16
q-32 0 -54 -16t-22 -48v-8zM567 49q0 38 22.5 66.5t54.5 37.5q-33 17 -48.5 45.5t-15.5 54.5v8q0 25 9.5 47.5t28 39.5t46 27t63.5 10q35 0 62.5 -10t46.5 -27t29 -39.5t10 -47.5v-8q0 -26 -15 -54t-49 -46q32 -9 54.5 -37.5t22.5 -66.5v-12q0 -55 -42.5 -91.5t-118.5 -36.5
t-118 36.5t-42 91.5v12z" />
    <glyph glyph-name="seveneighths" unicode="&#x215e;" horiz-adv-x="841" 
d="M611 709h85l-523 -775h-85zM174 237h-91l181 384h-234v74h324v-68zM577 249q0 -30 20 -45t45 -15q26 0 45 15t19 45v6q0 29 -17.5 45t-46.5 16q-27 0 -46 -16t-19 -45v-6zM568 41q0 -28 20 -44t56 -16q33 0 52.5 16t19.5 44v8q0 32 -21 48t-51 16q-32 0 -54 -16t-22 -48
v-8zM482 49q0 38 22.5 66.5t54.5 37.5q-33 17 -48.5 45.5t-15.5 54.5v8q0 25 9.5 47.5t28 39.5t46 27t63.5 10q35 0 62.5 -10t46.5 -27t29 -39.5t10 -47.5v-8q0 -26 -15 -54t-49 -46q32 -9 54.5 -37.5t22.5 -66.5v-12q0 -55 -42.5 -91.5t-118.5 -36.5t-118 36.5t-42 91.5v12
z" />
    <glyph glyph-name="uni2160" unicode="&#x2160;" 
d="M504 695v-721h-99v721h99z" />
    <glyph glyph-name="uni2161" unicode="&#x2161;" 
d="M383 695v-721h-99v721h99zM626 695v-721h-99v721h99z" />
    <glyph glyph-name="uni2162" unicode="&#x2162;" 
d="M268 695v-721h-99v721h99zM505 695v-721h-99v721h99zM740 695v-721h-99v721h99z" />
    <glyph glyph-name="uni2163" unicode="&#x2163;" 
d="M423 695l158 -596l158 596h101l-213 -721h-99l-210 721h105zM271 695v-721h-99v721h99z" />
    <glyph glyph-name="uni2164" unicode="&#x2164;" 
d="M246 695l209 -596l214 596h102l-272 -721h-93l-268 721h108z" />
    <glyph glyph-name="uni2165" unicode="&#x2165;" 
d="M175 695l158 -596l158 596h101l-213 -721h-99l-210 721h105zM738 695v-721h-99v721h99z" />
    <glyph glyph-name="uni2166" unicode="&#x2166;" 
d="M127 695l144 -596l140 596h98l-187 -721h-104l-192 721h101zM640 695v-721h-92v721h92zM814 695v-721h-92v721h92z" />
    <glyph glyph-name="uni2167" unicode="&#x2167;" 
d="M130 695l96 -596l92 596h94l-135 -721h-104l-140 721h97zM536 695v-721h-87v721h87zM693 695v-721h-87v721h87zM850 695v-721h-87v721h87z" />
    <glyph glyph-name="uni2168" unicode="&#x2168;" 
d="M647 345l200 -371h-114l-152 308l-147 -308h-109l196 377l-181 344h111l139 -284l136 284h106zM283 695v-721h-97v721h97z" />
    <glyph glyph-name="uni2169" unicode="&#x2169;" 
d="M519 346l233 -372h-117l-183 309l-183 -309h-112l233 376l-218 345h118l170 -284l169 284h111z" />
    <glyph glyph-name="uni2170" unicode="&#x2170;" 
d="M503 521v-547h-97v547h97zM506 717v-106h-103v106h103z" />
    <glyph glyph-name="uni2171" unicode="&#x2171;" 
d="M377 521v-547h-97v547h97zM380 717v-106h-103v106h103zM630 521v-547h-97v547h97zM633 717v-106h-103v106h103z" />
    <glyph glyph-name="uni2172" unicode="&#x2172;" 
d="M275 521v-547h-97v547h97zM278 717v-106h-103v106h103zM504 521v-547h-97v547h97zM507 717v-106h-103v106h103zM732 521v-547h-97v547h97zM735 717v-106h-103v106h103z" />
    <glyph glyph-name="uni2173" unicode="&#x2173;" 
d="M563 68l108 453h100l-148 -547h-124l-150 547h103l109 -453h2zM309 521v-547h-97v547h97zM312 717v-106h-103v106h103z" />
    <glyph glyph-name="uni2174" unicode="&#x2174;" 
d="M461 65l143 456h102l-185 -547h-124l-187 547h105l144 -456h2z" />
    <glyph glyph-name="uni2175" unicode="&#x2175;" 
d="M353 68l108 453h100l-148 -547h-124l-150 547h103l109 -453h2zM698 521v-547h-97v547h97zM701 717v-106h-103v106h103z" />
    <glyph glyph-name="uni2176" unicode="&#x2176;" 
d="M285 68l102 453h98l-142 -547h-120l-145 547h101l104 -453h2zM623 521v-547h-95v547h95zM626 717v-106h-101v106h101zM805 521v-547h-95v547h95zM808 717v-106h-101v106h101z" />
    <glyph glyph-name="uni2177" unicode="&#x2177;" 
d="M243 78l94 443h96l-136 -547h-112l-139 547h99l96 -443h2zM553 521v-547h-89v547h89zM556 717v-106h-95v106h95zM705 521v-547h-89v547h89zM708 717v-106h-95v106h95zM857 521v-547h-89v547h89zM860 717v-106h-95v106h95z" />
    <glyph glyph-name="uni2178" unicode="&#x2178;" 
d="M638 258l160 -284h-108l-117 220l-115 -220h-105l163 284l-154 263h108l111 -202l108 202h102zM309 521v-547h-97v547h97zM312 717v-106h-103v106h103z" />
    <glyph glyph-name="uni2179" unicode="&#x2179;" 
d="M517 258l180 -284h-117l-127 220l-130 -220h-111l183 284l-174 263h117l121 -202l123 202h108z" />
    <glyph glyph-name="arrowleft" unicode="&#x2190;" 
d="M805 314h-553l75 -126l-15 -17l-208 173l208 173l15 -17l-75 -127h553v-59z" />
    <glyph glyph-name="arrowup" unicode="&#x2191;" 
d="M426 0v553l-127 -75l-17 15l173 208l173 -208l-17 -15l-127 75v-553h-58z" />
    <glyph glyph-name="arrowright" unicode="&#x2192;" 
d="M104 373h553l-75 127l15 17l208 -173l-208 -173l-15 17l75 126h-553v59z" />
    <glyph glyph-name="arrowdown" unicode="&#x2193;" 
d="M484 687v-552l127 74l17 -15l-173 -208l-173 208l17 15l127 -74v552h58z" />
    <glyph glyph-name="arrowboth" unicode="&#x2194;" 
d="M282 188l-15 -17l-208 173l208 173l15 -17l-75 -127h496l-75 127l15 17l208 -173l-208 -173l-15 17l75 126h-496z" />
    <glyph glyph-name="arrowupdn" unicode="&#x2195;" 
d="M484 553v-418l127 74l17 -15l-173 -208l-173 208l17 15l127 -74v418l-127 -75l-17 15l173 208l173 -208l-17 -15z" />
    <glyph glyph-name="uni2196" unicode="&#x2196;" 
d="M767 -11l-582 581l-36 -142l-23 -1l-25 269l269 -25l-1 -23l-142 -36l581 -581z" />
    <glyph glyph-name="uni2197" unicode="&#x2197;" 
d="M101 31l581 581l-142 36l-1 23l269 25l-25 -269l-23 1l-36 142l-582 -581z" />
    <glyph glyph-name="uni2198" unicode="&#x2198;" 
d="M142 698l582 -581l37 142l23 2l25 -270l-270 25l2 23l142 37l-582 581z" />
    <glyph glyph-name="uni2199" unicode="&#x2199;" 
d="M809 657l-582 -581l142 -37l2 -23l-270 -25l25 270l23 -2l37 -142l582 581z" />
    <glyph glyph-name="uni21B0" unicode="&#x21b0;" horiz-adv-x="940" 
 />
    <glyph glyph-name="uni21B1" unicode="&#x21b1;" horiz-adv-x="940" 
 />
    <glyph glyph-name="uni21B2" unicode="&#x21b2;" horiz-adv-x="940" 
 />
    <glyph glyph-name="uni21B3" unicode="&#x21b3;" horiz-adv-x="940" 
 />
    <glyph glyph-name="uni21B4" unicode="&#x21b4;" horiz-adv-x="940" 
 />
    <glyph glyph-name="uni21BC" unicode="&#x21bc;" horiz-adv-x="940" 
 />
    <glyph glyph-name="uni21C0" unicode="&#x21c0;" horiz-adv-x="940" 
 />
    <glyph glyph-name="uni21C4" unicode="&#x21c4;" horiz-adv-x="940" 
 />
    <glyph glyph-name="uni21C5" unicode="&#x21c5;" horiz-adv-x="940" 
 />
    <glyph glyph-name="uni21CD" unicode="&#x21cd;" horiz-adv-x="940" 
 />
    <glyph glyph-name="uni21CF" unicode="&#x21cf;" horiz-adv-x="940" 
 />
    <glyph glyph-name="arrowdblleft" unicode="&#x21d0;" horiz-adv-x="940" 
 />
    <glyph glyph-name="arrowdblup" unicode="&#x21d1;" horiz-adv-x="940" 
 />
    <glyph glyph-name="arrowdblup" unicode="&#x2963;" horiz-adv-x="940" 
 />
    <glyph glyph-name="arrowdblright" unicode="&#x21d2;" 
d="M910 299l-264 -266l-38 38l112 111h-720v52h771l66 65l-66 66h-771v52h719l-111 110l38 37z" />
    <glyph glyph-name="arrowdbldown" unicode="&#x21d3;" horiz-adv-x="940" 
 />
    <glyph glyph-name="arrowdbldown" unicode="&#x2965;" horiz-adv-x="940" 
 />
    <glyph glyph-name="arrowdblboth" unicode="&#x21d4;" 
d="M838 299l-66 66h-634l-66 -66l66 -65h634zM911 299l-264 -266l-38 38l112 111h-532l112 -111l-38 -38l-264 266l264 265l38 -37l-111 -110h530l-111 110l38 37z" />
    <glyph glyph-name="uni21E0" unicode="&#x21e0;" horiz-adv-x="940" 
 />
    <glyph glyph-name="uni21E1" unicode="&#x21e1;" horiz-adv-x="940" 
 />
    <glyph glyph-name="uni21E2" unicode="&#x21e2;" horiz-adv-x="940" 
 />
    <glyph glyph-name="uni21E3" unicode="&#x21e3;" horiz-adv-x="940" 
 />
    <glyph glyph-name="uni21E6" unicode="&#x21e6;" horiz-adv-x="940" 
 />
    <glyph glyph-name="uni21E7" unicode="&#x21e7;" horiz-adv-x="940" 
 />
    <glyph glyph-name="uni21E8" unicode="&#x21e8;" horiz-adv-x="940" 
 />
    <glyph glyph-name="uni21E9" unicode="&#x21e9;" horiz-adv-x="940" 
 />
    <glyph glyph-name="universal" unicode="&#x2200;" 
d="M138 695h104l76 -212h276l76 212h101l-268 -721h-96zM564 398h-216l60 -169q8 -23 14 -39t11 -31.5t10 -32.5t13 -42q7 25 12.5 42.5t10.5 32.5t10.5 31t13.5 39z" />
    <glyph glyph-name="partialdiff" unicode="&#x2202;" horiz-adv-x="532" 
d="M234 63q33 0 61 17.5t49 47t35 68t19 80.5q-7 18 -19.5 35.5t-30.5 30.5t-40.5 21t-48.5 8q-29 0 -55 -13t-45.5 -35.5t-30.5 -54t-11 -67.5q0 -65 33 -101.5t84 -36.5zM57 673q26 17 68.5 35.5t105.5 18.5q52 0 100.5 -23.5t85 -68.5t58.5 -111t22 -152
q0 -95 -22.5 -167t-60 -120t-86.5 -72t-103 -24q-51 0 -88.5 18t-62.5 47.5t-37 67t-12 77.5q0 51 17 95.5t46 78t69 52.5t87 19q31 0 57.5 -8t47 -21t35.5 -28t23 -30h1q1 8 1 16v16q0 65 -15.5 114t-41.5 82t-59.5 49.5t-68.5 16.5q-48 0 -81.5 -13t-56.5 -27z" />
    <glyph glyph-name="existential" unicode="&#x2203;" 
d="M683 695v-721h-456v85h357v242h-329v85h329v224h-350v85h449z" />
    <glyph glyph-name="Delta" unicode="&#x2206;" horiz-adv-x="940" 
 />
    <glyph glyph-name="gradient" unicode="&#x2207;" 
d="M849 599l-394 -624l-394 624h788zM737 540h-565l283 -453z" />
    <glyph glyph-name="element" unicode="&#x2208;" 
d="M795 282h-602q5 -31 19 -57t38.5 -45t60 -29.5t84.5 -10.5h402v-73h-398q-74 0 -128.5 20t-89.5 54t-52 80t-17 98q0 49 16 92.5t50.5 76t88 51.5t128.5 19h402v-73h-402q-48 0 -83.5 -10t-60 -28t-38.5 -41.5t-19 -50.5h601v-73z" />
    <glyph glyph-name="notelement" unicode="&#x2209;" horiz-adv-x="940" 
 />
    <glyph glyph-name="suchthat" unicode="&#x220b;" 
d="M114 355h600q-6 27 -20 50.5t-38 41t-58.5 27.5t-82.5 10h-403v74h403q75 0 128 -19t87.5 -51.5t50.5 -76t16 -92.5q0 -52 -17 -97.5t-52.5 -80t-89.5 -54.5t-128 -20h-398v74h403q96 0 143.5 39.5t56.5 101.5h-601v73z" />
    <glyph glyph-name="uni220C" unicode="&#x220c;" horiz-adv-x="940" 
 />
    <glyph glyph-name="product" unicode="&#x220f;" horiz-adv-x="653" 
d="M509 610v-652h-99v652h-167v-652h-99v652h-120v85h605v-85h-120z" />
    <glyph glyph-name="summation" unicode="&#x2211;" horiz-adv-x="571" 
d="M524 695v-85h-330l201 -278l-204 -273h340v-85h-461v70l213 287l-213 297v67h454z" />
    <glyph glyph-name="uni2213" unicode="&#x2213;" horiz-adv-x="940" 
 />
    <glyph glyph-name="radical" unicode="&#x221a;" horiz-adv-x="562" 
d="M350 -122h-66l-159 427l-75 -31l-19 48l140 58l141 -407h2l198 827h68z" />
    <glyph glyph-name="proportional" unicode="&#x221d;" 
d="M301 194q30 0 54 11t43 28.5t33.5 39t25.5 42.5q-11 20 -26 41.5t-34 39.5t-42.5 29.5t-53.5 11.5q-54 0 -86 -34t-32 -87q0 -56 30.5 -89t87.5 -33zM761 407q-20 14 -41 23t-41 9q-52 0 -87 -33t-67 -91q31 -59 66.5 -91.5t87.5 -32.5q17 0 37 6t39 16l27 -56
q-53 -31 -103 -31q-32 0 -60 10.5t-51.5 27.5t-43 40t-34.5 47q-14 -22 -31 -44t-40 -40t-53 -29t-68 -11q-34 0 -67 12t-59 35.5t-42 59t-16 82.5q0 45 15.5 80t41.5 58.5t58.5 36t67.5 12.5q38 0 68 -11t53 -29t40.5 -40.5t31.5 -44.5q15 25 34 47.5t42.5 39.5t51.5 27.5
t61 10.5q29 0 58.5 -11.5t57.5 -31.5z" />
    <glyph glyph-name="infinity" unicode="&#x221e;" horiz-adv-x="610" 
d="M154 222q19 0 34 7t28 18.5t25 25.5t27 29q-11 12 -22 26t-24.5 26.5t-29.5 20.5t-36 8q-38 0 -58.5 -22t-20.5 -59q0 -36 20.5 -58t56.5 -22zM458 222q35 0 55.5 22t20.5 58q0 39 -19.5 60t-57.5 21q-15 0 -28.5 -6.5t-26 -17.5t-24.5 -25.5t-25 -30.5q12 -14 24.5 -28
t25.5 -26t26.5 -19.5t28.5 -7.5zM454 158q-25 0 -45 9t-37.5 23t-32.5 32t-29 36q-17 -21 -33.5 -39.5t-35 -32t-41.5 -21t-51 -7.5q-65 0 -102.5 38t-37.5 106q0 31 10.5 57.5t29.5 45.5t46.5 30t61.5 11q29 0 50.5 -7.5t39 -21t33 -31.5t32.5 -38q16 17 30.5 34.5t31 31.5
t37.5 23t51 9q64 0 101.5 -38t37.5 -106q0 -31 -10 -57t-29 -45.5t-46.5 -30.5t-61.5 -11z" />
    <glyph glyph-name="orthogonal" unicode="&#x221f;" horiz-adv-x="940" 
 />
    <glyph glyph-name="angle" unicode="&#x2220;" 
d="M760 0h-611v49l471 549l56 -47l-417 -481h501v-70z" />
    <glyph glyph-name="uni2222" unicode="&#x2222;" horiz-adv-x="940" 
 />
    <glyph glyph-name="uni2225" unicode="&#x2225;" horiz-adv-x="940" 
 />
    <glyph glyph-name="uni2226" unicode="&#x2226;" horiz-adv-x="940" 
 />
    <glyph glyph-name="logicaland" unicode="&#x2227;" 
d="M776 23l-57 -28l-264 510l-265 -510l-57 28l294 568h55z" />
    <glyph glyph-name="logicalor" unicode="&#x2228;" 
d="M776 571l-294 -568h-55l-294 568l57 28l265 -511l264 511z" />
    <glyph glyph-name="intersection" unicode="&#x2229;" 
d="M455 636q52 0 97 -17t78 -52.5t51.5 -89.5t18.5 -128v-398h-78v403q0 55 -12.5 94.5t-34.5 65t-52.5 38t-67.5 12.5t-68 -12.5t-53 -38t-34.5 -65t-12.5 -94.5v-403h-78v398q0 74 18.5 128t51.5 89.5t78 52.5t98 17z" />
    <glyph glyph-name="union" unicode="&#x222a;" 
d="M286 636v-403q0 -56 13.5 -95.5t36 -64t52.5 -36t63 -11.5q37 0 68.5 12t54.5 37t36 64t13 94v403h78v-398q0 -74 -20 -128.5t-54.5 -89.5t-80.5 -52t-98 -17q-49 0 -92.5 16t-76.5 50.5t-52 87.5t-19 128v403h78z" />
    <glyph glyph-name="integral" unicode="&#x222b;" horiz-adv-x="318" 
d="M297 715q-7 2 -15 3t-16 1q-13 0 -25.5 -5.5t-20.5 -16.5q-14 -19 -20.5 -54.5t-6.5 -101.5q0 -55 2 -113.5t4 -118.5l4 -120t2 -117q0 -73 -12.5 -118.5t-30.5 -69.5q-17 -25 -42.5 -37.5t-54.5 -12.5q-17 0 -32.5 3t-22.5 8l11 59q8 -2 16.5 -3.5t19.5 -1.5q26 0 45 20
q12 16 20.5 49t8.5 104q0 57 -2 118l-4 122t-4 120.5t-2 114.5q0 76 13 122t41 75q17 20 40.5 28.5t49.5 8.5q29 0 45 -7z" />
    <glyph glyph-name="uni222C" unicode="&#x222c;" horiz-adv-x="555" 
d="M525 715q-7 2 -14.5 3t-15.5 1q-14 0 -26 -5.5t-20 -16.5q-15 -19 -21.5 -54.5t-6.5 -101.5q0 -55 2 -113.5t4 -118.5l4 -120t2 -117q0 -73 -12 -118.5t-31 -69.5q-17 -25 -42.5 -37.5t-54.5 -12.5q-17 0 -32 3t-23 8l12 59q7 -2 16 -3.5t20 -1.5q12 0 23.5 4.5
t20.5 15.5q13 16 21.5 49t8.5 104q0 57 -2 118t-4.5 122t-4.5 120.5t-2 114.5q0 76 13.5 122t40.5 75q18 20 41 28.5t49 8.5q14 0 26 -2t20 -5zM297 715q-7 2 -15 3t-16 1q-13 0 -25.5 -5.5t-20.5 -16.5q-14 -19 -20.5 -54.5t-6.5 -101.5q0 -55 2 -113.5t4 -118.5l4 -120
t2 -117q0 -73 -12.5 -118.5t-30.5 -69.5q-17 -25 -42.5 -37.5t-54.5 -12.5q-17 0 -32.5 3t-22.5 8l11 59q8 -2 16.5 -3.5t19.5 -1.5q26 0 45 20q12 16 20.5 49t8.5 104q0 57 -2 118l-4 122t-4 120.5t-2 114.5q0 76 13 122t41 75q17 20 40.5 28.5t49.5 8.5q29 0 45 -7z" />
    <glyph glyph-name="uni222E" unicode="&#x222e;" 
d="M430 410q-32 -12 -53 -40.5t-25 -70.5q-4 -44 14 -73.5t52 -39.5q4 52 6 114q1 57 6 110zM566 299q4 42 -16.5 74.5t-59.5 40.5q-5 -53 -6 -114q-1 -31 -2.5 -59.5t-4.5 -55.5q37 9 61 39t28 75zM617 628q-8 19 -20.5 29.5t-29.5 10.5q-22 0 -42 -58.5t-32 -165.5
q27 -3 50 -14t40 -29t26 -43.5t6 -58.5q-3 -32 -15.5 -57t-31.5 -43t-43.5 -29t-50.5 -15q-14 -110 -43 -181q-16 -38 -39.5 -62t-53.5 -24q-61 0 -92 59l44 26q9 -19 21.5 -30t29.5 -11q22 0 42.5 58t31.5 166q-25 4 -46.5 15t-37 29t-23.5 43t-5 56q3 30 14.5 54t29 42
t40 29.5t46.5 16.5q14 112 44 185q16 38 39.5 62t53.5 24q62 0 94 -63z" />
    <glyph glyph-name="therefore" unicode="&#x2234;" horiz-adv-x="610" 
d="M188 133q0 -28 -19.5 -47.5t-47.5 -19.5q-27 0 -47 19.5t-20 47.5q0 26 20 46t47 20q28 0 47.5 -20t19.5 -46zM556 133q0 -28 -20.5 -47.5t-46.5 -19.5q-29 0 -48 19.5t-19 47.5q0 26 19 46t48 20q26 0 46.5 -20t20.5 -46zM366 505q0 -27 -19.5 -47.5t-46.5 -20.5
t-47.5 20.5t-20.5 47.5t20.5 46.5t47.5 19.5t46.5 -19.5t19.5 -46.5z" />
    <glyph glyph-name="uni2235" unicode="&#x2235;" horiz-adv-x="586" 
d="M408 506q0 26 20 45.5t46 19.5q29 0 47 -19.5t18 -45.5q0 -27 -18 -46t-47 -19q-26 0 -46 19t-20 46zM44 506q0 26 19.5 45.5t45.5 19.5q29 0 47.5 -19.5t18.5 -45.5q0 -27 -18.5 -46t-47.5 -19q-26 0 -45.5 19t-19.5 46zM227 126q0 29 19 47.5t46 18.5q28 0 47 -18.5
t19 -47.5q0 -26 -19 -45.5t-47 -19.5q-27 0 -46 19.5t-19 45.5z" />
    <glyph glyph-name="uni2237" unicode="&#x2237;" horiz-adv-x="940" 
 />
    <glyph glyph-name="similar" unicode="&#x223c;" 
d="M742 339q-11 -18 -28 -35t-37 -30t-42 -21t-44 -8q-43 0 -73.5 9t-62.5 26q-26 14 -61 27.5t-75 13.5q-37 0 -64 -17.5t-46 -45.5l-41 27q11 18 28 35t37 30t42 21t44 8q43 0 73.5 -9t62.5 -26t64 -29t72 -12q37 0 64 17.5t46 45.5z" />
    <glyph glyph-name="similar" unicode="&#xff5e;" 
d="M742 339q-11 -18 -28 -35t-37 -30t-42 -21t-44 -8q-43 0 -73.5 9t-62.5 26q-26 14 -61 27.5t-75 13.5q-37 0 -64 -17.5t-46 -45.5l-41 27q11 18 28 35t37 30t42 21t44 8q43 0 73.5 -9t62.5 -26t64 -29t72 -12q37 0 64 17.5t46 45.5z" />
    <glyph glyph-name="similar" unicode="&#x301c;" 
d="M742 339q-11 -18 -28 -35t-37 -30t-42 -21t-44 -8q-43 0 -73.5 9t-62.5 26q-26 14 -61 27.5t-75 13.5q-37 0 -64 -17.5t-46 -45.5l-41 27q11 18 28 35t37 30t42 21t44 8q43 0 73.5 -9t62.5 -26t64 -29t72 -12q37 0 64 17.5t46 45.5z" />
    <glyph glyph-name="uni223D" unicode="&#x223d;" 
d="M829 316q0 -38 -13.5 -72.5t-38 -60.5t-58 -41.5t-73.5 -15.5q-32 0 -62.5 11.5t-59.5 33.5l32 52q44 -32 90 -32q25 0 46.5 9.5t37 26.5t24 39.5t8.5 49.5q0 23 -8.5 45t-23.5 39.5t-36 28t-47 10.5q-54 0 -90 -34.5t-70 -98.5q-12 -23 -29.5 -54t-44 -58.5t-63.5 -47
t-88 -19.5q-34 0 -66.5 12t-58 35.5t-41 59t-15.5 82.5q0 45 15 80t40.5 58.5t57.5 36t67 12.5t66 -12t59 -30l-33 -53q-21 13 -42.5 21t-42.5 8q-54 0 -86.5 -33.5t-32.5 -87.5q0 -55 30.5 -88.5t87.5 -33.5q36 0 63.5 16.5t48.5 40t36 50.5t26 48q15 30 34.5 58t44.5 49
t56 34t69 13q40 0 74 -15.5t58.5 -41.5t38 -59.5t13.5 -70.5z" />
    <glyph glyph-name="uni2243" unicode="&#x2243;" horiz-adv-x="940" 
 />
    <glyph glyph-name="congruent" unicode="&#x2245;" horiz-adv-x="940" 
 />
    <glyph glyph-name="approxequal" unicode="&#x2248;" horiz-adv-x="940" 
 />
    <glyph glyph-name="uni2250" unicode="&#x2250;" horiz-adv-x="940" 
 />
    <glyph glyph-name="uni2251" unicode="&#x2251;" horiz-adv-x="940" 
 />
    <glyph glyph-name="uni2252" unicode="&#x2252;" horiz-adv-x="610" 
d="M372 86q0 26 18.5 44.5t44.5 18.5t44 -18.5t18 -44.5t-18 -44.5t-44 -18.5t-44.5 18.5t-18.5 44.5zM110 538q0 26 18.5 44.5t43.5 18.5q26 0 44.5 -18.5t18.5 -44.5t-18.5 -44t-44.5 -18q-25 0 -43.5 18t-18.5 44zM45 425h519v-62h-519v62zM45 264h519v-63h-519v63z" />
    <glyph glyph-name="uni2253" unicode="&#x2253;" horiz-adv-x="940" 
 />
    <glyph glyph-name="uni225A" unicode="&#x225a;" horiz-adv-x="940" 
 />
    <glyph glyph-name="notequal" unicode="&#x2260;" horiz-adv-x="610" 
d="M74 468h281l81 124h80l-81 -124h101v-85h-157l-82 -126h239v-85h-295l-79 -122h-80l79 122h-87v85h143l82 126h-225v85z" />
    <glyph glyph-name="equivalence" unicode="&#x2261;" horiz-adv-x="610" 
d="M45 284v62h519v-62h-519zM45 435v61h519v-61h-519zM45 133v61h519v-61h-519z" />
    <glyph glyph-name="uni2262" unicode="&#x2262;" horiz-adv-x="940" 
 />
    <glyph glyph-name="lessequal" unicode="&#x2264;" horiz-adv-x="610" 
d="M541 151l-475 209v85l475 208v-91l-371 -158v-1l371 -159v-93zM69 38v81h472v-81h-472z" />
    <glyph glyph-name="greaterequal" unicode="&#x2265;" horiz-adv-x="610" 
d="M66 244l371 159v1l-371 158v91l475 -208v-85l-475 -209v93zM66 38v81h472v-81h-472z" />
    <glyph glyph-name="uni2266" unicode="&#x2266;" horiz-adv-x="940" 
 />
    <glyph glyph-name="uni2267" unicode="&#x2267;" horiz-adv-x="940" 
 />
    <glyph glyph-name="uni226E" unicode="&#x226e;" horiz-adv-x="940" 
 />
    <glyph glyph-name="uni226F" unicode="&#x226f;" horiz-adv-x="940" 
 />
    <glyph glyph-name="uni2270" unicode="&#x2270;" horiz-adv-x="940" 
 />
    <glyph glyph-name="uni2271" unicode="&#x2271;" horiz-adv-x="940" 
 />
    <glyph glyph-name="uni2272" unicode="&#x2272;" horiz-adv-x="940" 
 />
    <glyph glyph-name="uni2273" unicode="&#x2273;" horiz-adv-x="940" 
 />
    <glyph glyph-name="uni2276" unicode="&#x2276;" horiz-adv-x="940" 
 />
    <glyph glyph-name="uni2277" unicode="&#x2277;" horiz-adv-x="940" 
 />
    <glyph glyph-name="uni2279" unicode="&#x2279;" horiz-adv-x="940" 
 />
    <glyph glyph-name="uni227A" unicode="&#x227a;" horiz-adv-x="940" 
 />
    <glyph glyph-name="uni227B" unicode="&#x227b;" horiz-adv-x="940" 
 />
    <glyph glyph-name="uni2280" unicode="&#x2280;" horiz-adv-x="940" 
 />
    <glyph glyph-name="uni2281" unicode="&#x2281;" horiz-adv-x="940" 
 />
    <glyph glyph-name="propersubset" unicode="&#x2282;" 
d="M797 481h-402q-56 0 -95 -13.5t-63 -36t-35 -52.5t-11 -63q0 -37 11 -68.5t35.5 -54.5t63.5 -36t94 -13h402v-74h-398q-74 0 -128.5 19.5t-89.5 53t-52 79t-17 97.5q0 49 16 92t50.5 75t88 50.5t128.5 18.5h402v-74z" />
    <glyph glyph-name="propersuperset" unicode="&#x2283;" 
d="M112 555h403q75 0 128 -18.5t87.5 -50.5t50.5 -75t16 -92q0 -52 -17 -97.5t-52.5 -79t-89.5 -53t-128 -19.5h-398v74h403q55 0 93.5 13t63 36t35.5 54.5t11 68.5q0 33 -10.5 63t-34.5 52.5t-63 36t-95 13.5h-403v74z" />
    <glyph glyph-name="notsubset" unicode="&#x2284;" horiz-adv-x="940" 
 />
    <glyph glyph-name="uni2285" unicode="&#x2285;" horiz-adv-x="940" 
 />
    <glyph glyph-name="reflexsubset" unicode="&#x2286;" 
d="M795 -11h-647v74h647v-74zM797 537h-402q-56 0 -95 -12t-63 -32.5t-35 -48.5t-11 -60q0 -35 11 -64.5t35.5 -50.5t63.5 -33t94 -12h402v-74h-398q-74 0 -128.5 18t-89.5 50t-52 75.5t-17 93.5q0 47 16 88t50.5 71t88 47.5t128.5 17.5h402v-74z" />
    <glyph glyph-name="reflexsuperset" unicode="&#x2287;" 
d="M112 611h403q75 0 128 -17.5t87.5 -47.5t50.5 -71t16 -88q0 -50 -17 -93.5t-52.5 -75.5t-89.5 -50t-128 -18h-398v74h403q55 0 93.5 12t63 33t35.5 50.5t11 64.5q0 32 -10.5 60t-34.5 48.5t-63 32.5t-95 12h-403v74zM114 63h647v-74h-647v74z" />
    <glyph glyph-name="uni228A" unicode="&#x228a;" horiz-adv-x="940" 
 />
    <glyph glyph-name="uni228A" unicode="&#x2acb;" horiz-adv-x="940" 
 />
    <glyph glyph-name="uni228B" unicode="&#x228b;" horiz-adv-x="940" 
 />
    <glyph glyph-name="uni228B" unicode="&#x2acc;" horiz-adv-x="940" 
 />
    <glyph glyph-name="circleplus" unicode="&#x2295;" horiz-adv-x="940" 
 />
    <glyph glyph-name="uni2296" unicode="&#x2296;" horiz-adv-x="940" 
 />
    <glyph glyph-name="circlemultiply" unicode="&#x2297;" horiz-adv-x="940" 
 />
    <glyph glyph-name="uni2299" unicode="&#x2299;" 
d="M849 299q0 -82 -31 -153.5t-84.5 -125t-125 -84.5t-153.5 -31q-81 0 -152.5 31t-125 84.5t-85 125t-31.5 153.5t31.5 153.5t85 125t125 84.5t152.5 31q82 0 153.5 -31t125 -84.5t84.5 -125t31 -153.5zM793 299q0 69 -27 130.5t-73 107.5t-107.5 73t-130.5 27
q-70 0 -131.5 -27t-107.5 -73t-72.5 -107.5t-26.5 -130.5q0 -70 26.5 -131.5t72.5 -107.5t107.5 -72.5t131.5 -26.5q69 0 130.5 26.5t107.5 72.5t73 107.5t27 131.5zM610 299q0 -32 -12 -60.5t-33 -49.5t-49.5 -33t-60.5 -12t-60 12t-49 33t-33.5 49.5t-12.5 60.5t12.5 60.5
t33.5 49.5t49 33t60 12t60.5 -12t49.5 -33t33 -49.5t12 -60.5z" />
    <glyph glyph-name="uni2299" unicode="&#x25c9;" 
d="M849 299q0 -82 -31 -153.5t-84.5 -125t-125 -84.5t-153.5 -31q-81 0 -152.5 31t-125 84.5t-85 125t-31.5 153.5t31.5 153.5t85 125t125 84.5t152.5 31q82 0 153.5 -31t125 -84.5t84.5 -125t31 -153.5zM793 299q0 69 -27 130.5t-73 107.5t-107.5 73t-130.5 27
q-70 0 -131.5 -27t-107.5 -73t-72.5 -107.5t-26.5 -130.5q0 -70 26.5 -131.5t72.5 -107.5t107.5 -72.5t131.5 -26.5q69 0 130.5 26.5t107.5 72.5t73 107.5t27 131.5zM610 299q0 -32 -12 -60.5t-33 -49.5t-49.5 -33t-60.5 -12t-60 12t-49 33t-33.5 49.5t-12.5 60.5t12.5 60.5
t33.5 49.5t49 33t60 12t60.5 -12t49.5 -33t33 -49.5t12 -60.5z" />
    <glyph glyph-name="uni22A3" unicode="&#x22a3;" horiz-adv-x="940" 
 />
    <glyph glyph-name="uni22A4" unicode="&#x22a4;" horiz-adv-x="940" 
 />
    <glyph glyph-name="perpendicular" unicode="&#x22a5;" 
d="M774 0h-638v71h282v504h73v-504h283v-71z" />
    <glyph glyph-name="uni22BB" unicode="&#x22bb;" horiz-adv-x="940" 
 />
    <glyph glyph-name="uni22BC" unicode="&#x22bc;" horiz-adv-x="940" 
 />
    <glyph glyph-name="uni22CE" unicode="&#x22ce;" horiz-adv-x="940" 
 />
    <glyph glyph-name="uni22CF" unicode="&#x22cf;" horiz-adv-x="940" 
 />
    <glyph glyph-name="uni22DA" unicode="&#x22da;" horiz-adv-x="940" 
 />
    <glyph glyph-name="uni22DB" unicode="&#x22db;" horiz-adv-x="940" 
 />
    <glyph glyph-name="uni22EE" unicode="&#x22ee;" horiz-adv-x="940" 
 />
    <glyph glyph-name="uni2306" unicode="&#x2306;" horiz-adv-x="940" 
 />
    <glyph glyph-name="uni2312" unicode="&#x2312;" 
d="M646 574q-25 46 -72 78t-118 32q-72 0 -119.5 -32t-73.5 -78h-72q38 72 102 117t161 45q98 0 161.5 -45t102.5 -117h-72z" />
    <glyph glyph-name="uni2314" unicode="&#x2314;" horiz-adv-x="940" 
 />
    <glyph glyph-name="uni2460" unicode="&#x2460;" 
d="M432 41v429l-120 -70l-42 69l174 99h74v-527h-86zM828 306q0 82 -28 151t-77.5 119t-118 78.5t-149.5 28.5t-149.5 -28.5t-118 -78.5t-77.5 -119t-28 -151t28 -151t77.5 -119.5t118 -78.5t149.5 -28t149.5 28t118 78.5t77.5 119.5t28 151zM892 306q0 -95 -33 -175
t-91.5 -138.5t-138.5 -91.5t-174 -33q-95 0 -175 33t-138.5 91.5t-91 138.5t-32.5 175q0 94 32.5 174.5t91 139t138.5 91.5t175 33q94 0 174 -33t138.5 -91.5t91.5 -139t33 -174.5z" />
    <glyph glyph-name="uni2461" unicode="&#x2461;" 
d="M828 306q0 82 -28 151t-77.5 119t-118 78.5t-149.5 28.5t-149.5 -28.5t-118 -78.5t-77.5 -119t-28 -151t28 -151t77.5 -119.5t118 -78.5t149.5 -28t149.5 28t118 78.5t77.5 119.5t28 151zM892 306q0 -95 -33 -175t-91.5 -138.5t-138.5 -91.5t-174 -33q-95 0 -175 33
t-138.5 91.5t-91 138.5t-32.5 175q0 94 32.5 174.5t91 139t138.5 91.5t175 33q94 0 174 -33t138.5 -91.5t91.5 -139t33 -174.5zM476 319q23 24 36 41.5t19 31t7.5 24.5t1.5 22v6q0 26 -21 42.5t-62 16.5q-26 0 -56 -15t-55 -61l-65 43q9 17 23.5 36t35.5 35.5t49.5 27
t66.5 10.5q45 0 77.5 -11t53 -29.5t30 -43.5t9.5 -52v-7q0 -43 -20.5 -80t-57.5 -74l-163 -164h259v-73h-365v71z" />
    <glyph glyph-name="uni2462" unicode="&#x2462;" 
d="M828 306q0 82 -28 151t-77.5 119t-118 78.5t-149.5 28.5t-149.5 -28.5t-118 -78.5t-77.5 -119t-28 -151t28 -151t77.5 -119.5t118 -78.5t149.5 -28t149.5 28t118 78.5t77.5 119.5t28 151zM892 306q0 -95 -33 -175t-91.5 -138.5t-138.5 -91.5t-174 -33q-95 0 -175 33
t-138.5 91.5t-91 138.5t-32.5 175q0 94 32.5 174.5t91 139t138.5 91.5t175 33q94 0 174 -33t138.5 -91.5t91.5 -139t33 -174.5zM291 502q26 34 64 55.5t96 21.5q74 0 119 -36t45 -96v-7q0 -16 -4 -33t-13 -33t-24.5 -30t-38.5 -23q53 -9 79.5 -41t26.5 -77v-9
q0 -32 -11.5 -60t-35.5 -50t-60 -34.5t-84 -12.5q-46 0 -91 14.5t-83 44.5l43 66q38 -28 68.5 -38.5t62.5 -10.5q51 0 77.5 21t26.5 59v7q0 48 -28.5 65.5t-77.5 17.5h-65v74h59q50 0 69 22.5t19 57.5v5q0 32 -23 47t-56 15t-56.5 -12t-43.5 -35z" />
    <glyph glyph-name="uni2463" unicode="&#x2463;" 
d="M828 306q0 82 -28 151t-77.5 119t-118 78.5t-149.5 28.5t-149.5 -28.5t-118 -78.5t-77.5 -119t-28 -151t28 -151t77.5 -119.5t118 -78.5t149.5 -28t149.5 28t118 78.5t77.5 119.5t28 151zM892 306q0 -95 -33 -175t-91.5 -138.5t-138.5 -91.5t-174 -33q-95 0 -175 33
t-138.5 91.5t-91 138.5t-32.5 175q0 94 32.5 174.5t91 139t138.5 91.5t175 33q94 0 174 -33t138.5 -91.5t91.5 -139t33 -174.5zM571 387v-159h72v-71h-72v-111h-84v111h-259v59l239 357h93l-232 -345h159v159h84z" />
    <glyph glyph-name="uni2464" unicode="&#x2464;" 
d="M828 306q0 82 -28 151t-77.5 119t-118 78.5t-149.5 28.5t-149.5 -28.5t-118 -78.5t-77.5 -119t-28 -151t28 -151t77.5 -119.5t118 -78.5t149.5 -28t149.5 28t118 78.5t77.5 119.5t28 151zM892 306q0 -95 -33 -175t-91.5 -138.5t-138.5 -91.5t-174 -33q-95 0 -175 33
t-138.5 91.5t-91 138.5t-32.5 175q0 94 32.5 174.5t91 139t138.5 91.5t175 33q94 0 174 -33t138.5 -91.5t91.5 -139t33 -174.5zM563 213q0 46 -25 68.5t-72 22.5q-34 0 -59.5 -12.5t-43.5 -29.5h-59l18 302h293v-72h-217l-7 -147q17 11 41 20t61 9t66.5 -12.5t49.5 -34.5
t30.5 -50.5t10.5 -61.5v-11q0 -29 -10 -60t-32.5 -56.5t-59 -41.5t-88.5 -16q-54 0 -98 14t-83 45l42 68q38 -30 71.5 -40t70.5 -10q24 0 43 8.5t31.5 22t19 31t6.5 36.5v8z" />
    <glyph glyph-name="uni2465" unicode="&#x2465;" 
d="M828 306q0 82 -28 151t-77.5 119t-118 78.5t-149.5 28.5t-149.5 -28.5t-118 -78.5t-77.5 -119t-28 -151t28 -151t77.5 -119.5t118 -78.5t149.5 -28t149.5 28t118 78.5t77.5 119.5t28 151zM892 306q0 -95 -33 -175t-91.5 -138.5t-138.5 -91.5t-174 -33q-95 0 -175 33
t-138.5 91.5t-91 138.5t-32.5 175q0 94 32.5 174.5t91 139t138.5 91.5t175 33q94 0 174 -33t138.5 -91.5t91.5 -139t33 -174.5zM583 467q-25 14 -52.5 22.5t-59.5 8.5q-20 0 -40.5 -5t-37 -21.5t-27.5 -47t-13 -82.5q17 20 47.5 35.5t69.5 15.5q36 0 66.5 -12t53 -33.5
t35.5 -52.5t13 -70v-16q0 -37 -12.5 -68.5t-36.5 -55t-58 -36.5t-77 -13q-96 0 -141 58t-45 161v33q0 88 16 144t44.5 88.5t66 45t81.5 12.5q35 0 71 -8.5t66 -27.5zM354 212q0 -46 25 -71.5t72 -25.5q49 0 75 26t26 74v8q0 48 -25 70.5t-73 22.5q-51 0 -75.5 -27.5
t-24.5 -66.5v-10z" />
    <glyph glyph-name="uni2466" unicode="&#x2466;" 
d="M828 306q0 82 -28 151t-77.5 119t-118 78.5t-149.5 28.5t-149.5 -28.5t-118 -78.5t-77.5 -119t-28 -151t28 -151t77.5 -119.5t118 -78.5t149.5 -28t149.5 28t118 78.5t77.5 119.5t28 151zM892 306q0 -95 -33 -175t-91.5 -138.5t-138.5 -91.5t-174 -33q-95 0 -175 33
t-138.5 91.5t-91 138.5t-32.5 175q0 94 32.5 174.5t91 139t138.5 91.5t175 33q94 0 174 -33t138.5 -91.5t91.5 -139t33 -174.5zM446 29h-93l205 453h-279v73h371v-66z" />
    <glyph glyph-name="uni2467" unicode="&#x2467;" 
d="M828 306q0 82 -28 151t-77.5 119t-118 78.5t-149.5 28.5t-149.5 -28.5t-118 -78.5t-77.5 -119t-28 -151t28 -151t77.5 -119.5t118 -78.5t149.5 -28t149.5 28t118 78.5t77.5 119.5t28 151zM892 306q0 -95 -33 -175t-91.5 -138.5t-138.5 -91.5t-174 -33q-95 0 -175 33
t-138.5 91.5t-91 138.5t-32.5 175q0 94 32.5 174.5t91 139t138.5 91.5t175 33q94 0 174 -33t138.5 -91.5t91.5 -139t33 -174.5zM377 418q0 -36 24 -53t53 -17q32 0 55 17t23 53v8q0 35 -21.5 54t-56.5 19q-34 0 -55.5 -19t-21.5 -54v-8zM363 184q0 -35 25 -54.5t67 -19.5
t66 19.5t24 54.5v7q0 41 -26 60t-64 19q-37 0 -64.5 -19t-27.5 -60v-7zM274 191q0 44 26 76.5t61 43.5q-38 18 -55.5 51t-17.5 61v9q0 28 10 54t31 45.5t52 31t73 11.5q41 0 72 -11.5t52 -31t31.5 -45.5t10.5 -54v-9q0 -28 -17 -59.5t-55 -52.5q36 -11 61 -43.5t25 -76.5
v-12q0 -63 -46.5 -105t-133.5 -42t-133.5 42t-46.5 105v12z" />
    <glyph glyph-name="uni2468" unicode="&#x2468;" 
d="M828 306q0 82 -28 151t-77.5 119t-118 78.5t-149.5 28.5t-149.5 -28.5t-118 -78.5t-77.5 -119t-28 -151t28 -151t77.5 -119.5t118 -78.5t149.5 -28t149.5 28t118 78.5t77.5 119.5t28 151zM892 306q0 -95 -33 -175t-91.5 -138.5t-138.5 -91.5t-174 -33q-95 0 -175 33
t-138.5 91.5t-91 138.5t-32.5 175q0 94 32.5 174.5t91 139t138.5 91.5t175 33q94 0 174 -33t138.5 -91.5t91.5 -139t33 -174.5zM334 147q24 -14 52.5 -23t60.5 -9q18 0 38.5 4.5t37 20t28 45.5t11.5 82q-14 -23 -49 -36t-71 -13t-66.5 12t-52.5 34.5t-34 53.5t-12 70v15
q0 37 12.5 69t36.5 55t58 36.5t77 13.5q97 0 141.5 -56t44.5 -159v-31q0 -86 -14 -143t-40.5 -91t-65 -48t-87.5 -14q-35 0 -72 9.5t-67 28.5zM562 400q0 46 -25 72t-72 26q-50 0 -76 -26t-26 -71v-9q0 -48 26.5 -72.5t72.5 -24.5q50 0 75 28t25 66v11z" />
    <glyph glyph-name="uni2469" unicode="&#x2469;" 
d="M828 306q0 82 -28 151t-77.5 119t-118 78.5t-149.5 28.5t-149.5 -28.5t-118 -78.5t-77.5 -119t-28 -151t28 -151t77.5 -119.5t118 -78.5t149.5 -28t149.5 28t118 78.5t77.5 119.5t28 151zM892 306q0 -95 -33 -175t-91.5 -138.5t-138.5 -91.5t-174 -33q-95 0 -175 33
t-138.5 91.5t-91 138.5t-32.5 175q0 94 32.5 174.5t91 139t138.5 91.5t175 33q94 0 174 -33t138.5 -91.5t91.5 -139t33 -174.5zM285 41v428l-103 -66l-42 69l157 95h72v-526h-84zM726 264q0 -112 -34.5 -171.5t-115.5 -59.5q-80 0 -115.5 60.5t-35.5 170.5v82
q0 111 36 170.5t115 59.5q80 0 115 -59.5t35 -170.5v-82zM642 346q0 48 -5 77.5t-13.5 46t-20.5 22t-27 5.5q-14 0 -26 -5.5t-21 -22t-14.5 -46t-5.5 -77.5v-83q0 -48 5.5 -77.5t14.5 -46t21 -22t26 -5.5q15 0 27 5.5t20.5 21.5t13.5 46t5 78v83z" />
    <glyph glyph-name="uni246A" unicode="&#x246a;" 
d="M828 306q0 82 -28 151t-77.5 119t-118 78.5t-149.5 28.5t-149.5 -28.5t-118 -78.5t-77.5 -119t-28 -151t28 -151t77.5 -119.5t118 -78.5t149.5 -28t149.5 28t118 78.5t77.5 119.5t28 151zM892 306q0 -95 -33 -175t-91.5 -138.5t-138.5 -91.5t-174 -33q-95 0 -175 33
t-138.5 91.5t-91 138.5t-32.5 175q0 94 32.5 174.5t91 139t138.5 91.5t175 33q94 0 174 -33t138.5 -91.5t91.5 -139t33 -174.5zM316 41v428l-103 -66l-42 69l157 95h72v-526h-84zM577 41v428l-103 -66l-42 69l157 95h72v-526h-84z" />
    <glyph glyph-name="uni246B" unicode="&#x246b;" 
d="M828 306q0 82 -28 151t-77.5 119t-118 78.5t-149.5 28.5t-149.5 -28.5t-118 -78.5t-77.5 -119t-28 -151t28 -151t77.5 -119.5t118 -78.5t149.5 -28t149.5 28t118 78.5t77.5 119.5t28 151zM892 306q0 -95 -33 -175t-91.5 -138.5t-138.5 -91.5t-174 -33q-95 0 -175 33
t-138.5 91.5t-91 138.5t-32.5 175q0 94 32.5 174.5t91 139t138.5 91.5t175 33q94 0 174 -33t138.5 -91.5t91.5 -139t33 -174.5zM285 41v428l-103 -66l-42 69l157 95h72v-526h-84zM549 311q19 26 31.5 44.5t19 32.5t9 24.5t2.5 21.5v6q0 25 -15 41t-47 16q-26 0 -46 -14
t-39 -54l-65 45q7 14 18 31.5t28 33t42 26t61 10.5q38 0 66.5 -11t47 -29t28 -41.5t9.5 -48.5v-7q0 -43 -22.5 -82.5t-54.5 -81.5l-120 -158h213v-75h-313v73z" />
    <glyph glyph-name="uni246C" unicode="&#x246c;" 
d="M828 306q0 82 -28 151t-77.5 119t-118 78.5t-149.5 28.5t-149.5 -28.5t-118 -78.5t-77.5 -119t-28 -151t28 -151t77.5 -119.5t118 -78.5t149.5 -28t149.5 28t118 78.5t77.5 119.5t28 151zM892 306q0 -95 -33 -175t-91.5 -138.5t-138.5 -91.5t-174 -33q-95 0 -175 33
t-138.5 91.5t-91 138.5t-32.5 175q0 94 32.5 174.5t91 139t138.5 91.5t175 33q94 0 174 -33t138.5 -91.5t91.5 -139t33 -174.5zM285 41v428l-103 -66l-42 69l157 95h72v-526h-84zM400 498q26 34 60 55.5t89 21.5q74 0 113 -37t39 -95v-7q0 -16 -4 -33t-13.5 -33.5t-25.5 -30
t-39 -21.5q53 -9 80.5 -41.5t27.5 -77.5v-9q0 -32 -10 -60t-31.5 -50t-55 -34.5t-80.5 -12.5q-91 0 -165 59l43 66q19 -14 34.5 -23.5t30 -15t28 -8t29.5 -2.5q43 0 66.5 21t23.5 59v7q0 48 -26 65.5t-75 17.5h-48v74h45q49 0 64.5 21t15.5 56v5q0 31 -17 48t-50 17
q-31 0 -51.5 -12t-37.5 -35z" />
    <glyph glyph-name="uni246D" unicode="&#x246d;" 
d="M828 306q0 82 -28 151t-77.5 119t-118 78.5t-149.5 28.5t-149.5 -28.5t-118 -78.5t-77.5 -119t-28 -151t28 -151t77.5 -119.5t118 -78.5t149.5 -28t149.5 28t118 78.5t77.5 119.5t28 151zM892 306q0 -95 -33 -175t-91.5 -138.5t-138.5 -91.5t-174 -33q-95 0 -175 33
t-138.5 91.5t-91 138.5t-32.5 175q0 94 32.5 174.5t91 139t138.5 91.5t175 33q94 0 174 -33t138.5 -91.5t91.5 -139t33 -174.5zM285 41v428l-103 -66l-42 69l157 95h72v-526h-84zM681 382v-161h72v-69h-72v-111h-82v111h-207v57l181 359h91l-174 -347h109v161h82z" />
    <glyph glyph-name="uni246E" unicode="&#x246e;" 
d="M828 306q0 82 -28 151t-77.5 119t-118 78.5t-149.5 28.5t-149.5 -28.5t-118 -78.5t-77.5 -119t-28 -151t28 -151t77.5 -119.5t118 -78.5t149.5 -28t149.5 28t118 78.5t77.5 119.5t28 151zM892 306q0 -95 -33 -175t-91.5 -138.5t-138.5 -91.5t-174 -33q-95 0 -175 33
t-138.5 91.5t-91 138.5t-32.5 175q0 94 32.5 174.5t91 139t138.5 91.5t175 33q94 0 174 -33t138.5 -91.5t91.5 -139t33 -174.5zM285 41v428l-103 -66l-42 69l157 95h72v-526h-84zM639 213q0 46 -18 69t-61 23q-27 0 -47 -12.5t-34 -30.5h-60l17 302h255v-70h-179l-7 -149
q14 11 32 20t50 9q35 0 61 -13t43.5 -34.5t26 -50.5t8.5 -61v-11q0 -29 -8 -60t-27.5 -56.5t-52.5 -41.5t-84 -16t-87.5 14.5t-73.5 44.5l42 67q19 -15 33.5 -24.5t28.5 -15.5t28 -8t32 -2q22 0 38 8.5t25.5 22.5t14 31.5t4.5 36.5v8z" />
    <glyph glyph-name="uni246F" unicode="&#x246f;" horiz-adv-x="940" 
 />
    <glyph glyph-name="uni2470" unicode="&#x2470;" horiz-adv-x="940" 
 />
    <glyph glyph-name="uni2471" unicode="&#x2471;" horiz-adv-x="940" 
 />
    <glyph glyph-name="uni2472" unicode="&#x2472;" horiz-adv-x="940" 
 />
    <glyph glyph-name="uni2473" unicode="&#x2473;" horiz-adv-x="940" 
 />
    <glyph glyph-name="uni2474" unicode="&#x2474;" 
d="M457 15v473l-133 -78l-44 74l190 108h78v-577h-91zM208 684q-32 -47 -52.5 -93.5t-32.5 -91.5t-16.5 -87.5t-4.5 -79.5v-46q0 -36 4 -77.5t15.5 -87.5t32 -94.5t54.5 -98.5h-74q-32 42 -53.5 89t-34.5 94t-18.5 93t-5.5 87v36q0 40 5.5 85t18.5 91.5t34.5 92.5t53.5 88
h74zM776 684q32 -42 53.5 -88t34.5 -92.5t18.5 -91.5t5.5 -85v-36q0 -41 -5.5 -87t-18.5 -93t-34.5 -94t-53.5 -89h-74q34 50 54.5 98.5t32 94.5t15.5 87.5t4 77.5v46q0 37 -5 79.5t-17 87.5t-32.5 91.5t-51.5 93.5h74z" />
    <glyph glyph-name="uni2475" unicode="&#x2475;" 
d="M484 315q25 26 39.5 45.5t21.5 34.5t8.5 27t1.5 24v6q0 29 -23 48t-71 19q-14 0 -30 -3.5t-31.5 -12.5t-31 -25t-28.5 -41l-69 45q10 18 25.5 39t38 39t53.5 29.5t72 11.5q47 0 82 -12t58 -32.5t34 -48t11 -58.5v-8q0 -47 -23.5 -86.5t-63.5 -80.5l-177 -182h285v-78
h-397v75zM208 684q-32 -47 -52.5 -93.5t-32.5 -91.5t-16.5 -87.5t-4.5 -79.5v-46q0 -36 4 -77.5t15.5 -87.5t32 -94.5t54.5 -98.5h-74q-32 42 -53.5 89t-34.5 94t-18.5 93t-5.5 87v36q0 40 5.5 85t18.5 91.5t34.5 92.5t53.5 88h74zM776 684q32 -42 53.5 -88t34.5 -92.5
t18.5 -91.5t5.5 -85v-36q0 -41 -5.5 -87t-18.5 -93t-34.5 -94t-53.5 -89h-74q34 50 54.5 98.5t32 94.5t15.5 87.5t4 77.5v46q0 37 -5 79.5t-17 87.5t-32.5 91.5t-51.5 93.5h74z" />
    <glyph glyph-name="uni2476" unicode="&#x2476;" 
d="M286 515q27 37 67.5 61t104.5 24q40 0 73.5 -10.5t57.5 -29.5t37 -46t13 -59v-8q0 -17 -3.5 -36t-13.5 -37t-26.5 -33t-42.5 -25q58 -10 86 -44t28 -85v-12q0 -32 -13 -62.5t-39 -54.5t-65 -38.5t-92 -14.5q-51 0 -99.5 16t-89.5 48l45 72q42 -31 75 -42t69 -11
q57 0 87.5 24t30.5 63v10q0 53 -30 72t-86 19h-68v78h62q54 0 75 26.5t21 64.5v6q0 35 -26.5 52t-64.5 17t-63 -13.5t-47 -39.5zM208 684q-32 -47 -52.5 -93.5t-32.5 -91.5t-16.5 -87.5t-4.5 -79.5v-46q0 -36 4 -77.5t15.5 -87.5t32 -94.5t54.5 -98.5h-74q-32 42 -53.5 89
t-34.5 94t-18.5 93t-5.5 87v36q0 40 5.5 85t18.5 91.5t34.5 92.5t53.5 88h74zM776 684q32 -42 53.5 -88t34.5 -92.5t18.5 -91.5t5.5 -85v-36q0 -41 -5.5 -87t-18.5 -93t-34.5 -94t-53.5 -89h-74q34 50 54.5 98.5t32 94.5t15.5 87.5t4 77.5v46q0 37 -5 79.5t-17 87.5
t-32.5 91.5t-51.5 93.5h74z" />
    <glyph glyph-name="uni2477" unicode="&#x2477;" 
d="M208 684q-32 -47 -52.5 -93.5t-32.5 -91.5t-16.5 -87.5t-4.5 -79.5v-46q0 -36 4 -77.5t15.5 -87.5t32 -94.5t54.5 -98.5h-74q-32 42 -53.5 89t-34.5 94t-18.5 93t-5.5 87v36q0 40 5.5 85t18.5 91.5t34.5 92.5t53.5 88h74zM776 684q32 -42 53.5 -88t34.5 -92.5t18.5 -91.5
t5.5 -85v-36q0 -41 -5.5 -87t-18.5 -93t-34.5 -94t-53.5 -89h-74q34 50 54.5 98.5t32 94.5t15.5 87.5t4 77.5v46q0 37 -5 79.5t-17 87.5t-32.5 91.5t-51.5 93.5h74zM607 386v-174h80v-75h-80v-122h-90v122h-287v63l266 392h100l-260 -380h181v174h90z" />
    <glyph glyph-name="uni2478" unicode="&#x2478;" 
d="M208 684q-32 -47 -52.5 -93.5t-32.5 -91.5t-16.5 -87.5t-4.5 -79.5v-46q0 -36 4 -77.5t15.5 -87.5t32 -94.5t54.5 -98.5h-74q-32 42 -53.5 89t-34.5 94t-18.5 93t-5.5 87v36q0 40 5.5 85t18.5 91.5t34.5 92.5t53.5 88h74zM776 684q32 -42 53.5 -88t34.5 -92.5t18.5 -91.5
t5.5 -85v-36q0 -41 -5.5 -87t-18.5 -93t-34.5 -94t-53.5 -89h-74q34 50 54.5 98.5t32 94.5t15.5 87.5t4 77.5v46q0 37 -5 79.5t-17 87.5t-32.5 91.5t-51.5 93.5h74zM581 200q0 52 -28 78.5t-81 26.5q-38 0 -65.5 -13.5t-46.5 -32.5h-64l18 331h321v-77h-238l-9 -166
q20 13 45.5 22.5t63.5 9.5q40 0 72.5 -14t55.5 -38.5t35 -56.5t12 -68v-10q0 -33 -11.5 -66.5t-36 -60.5t-63 -44t-92.5 -17q-59 0 -108.5 15.5t-91.5 49.5l44 71q42 -32 79 -42.5t78 -10.5q28 0 48.5 9t34.5 23.5t21 33.5t7 39v8z" />
    <glyph glyph-name="uni2479" unicode="&#x2479;" 
d="M208 684q-32 -47 -52.5 -93.5t-32.5 -91.5t-16.5 -87.5t-4.5 -79.5v-46q0 -36 4 -77.5t15.5 -87.5t32 -94.5t54.5 -98.5h-74q-32 42 -53.5 89t-34.5 94t-18.5 93t-5.5 87v36q0 40 5.5 85t18.5 91.5t34.5 92.5t53.5 88h74zM776 684q32 -42 53.5 -88t34.5 -92.5t18.5 -91.5
t5.5 -85v-36q0 -41 -5.5 -87t-18.5 -93t-34.5 -94t-53.5 -89h-74q34 50 54.5 98.5t32 94.5t15.5 87.5t4 77.5v46q0 37 -5 79.5t-17 87.5t-32.5 91.5t-51.5 93.5h74zM608 481q-27 16 -58 25t-66 9q-24 0 -47 -6.5t-41 -26t-29.5 -54.5t-12.5 -92q15 25 53.5 41.5t80.5 16.5
q39 0 72 -13.5t57 -38t37.5 -59t13.5 -76.5v-16q0 -41 -14 -75.5t-40 -59t-63 -38.5t-83 -14q-105 0 -154.5 63t-49.5 176v35q0 96 17.5 158t48 98t72 50.5t89.5 14.5q39 0 78.5 -9.5t71.5 -30.5zM355 197q0 -52 28.5 -81t80.5 -29q54 0 83.5 28t29.5 80v10q0 54 -28.5 81
t-81.5 27q-54 0 -83 -30t-29 -75v-11z" />
    <glyph glyph-name="uni247A" unicode="&#x247a;" 
d="M208 684q-32 -47 -52.5 -93.5t-32.5 -91.5t-16.5 -87.5t-4.5 -79.5v-46q0 -36 4 -77.5t15.5 -87.5t32 -94.5t54.5 -98.5h-74q-32 42 -53.5 89t-34.5 94t-18.5 93t-5.5 87v36q0 40 5.5 85t18.5 91.5t34.5 92.5t53.5 88h74zM776 684q32 -42 53.5 -88t34.5 -92.5t18.5 -91.5
t5.5 -85v-36q0 -41 -5.5 -87t-18.5 -93t-34.5 -94t-53.5 -89h-74q34 50 54.5 98.5t32 94.5t15.5 87.5t4 77.5v46q0 37 -5 79.5t-17 87.5t-32.5 91.5t-51.5 93.5h74zM448 5h-98l226 499h-308v78h405v-70z" />
    <glyph glyph-name="uni247B" unicode="&#x247b;" 
d="M208 684q-32 -47 -52.5 -93.5t-32.5 -91.5t-16.5 -87.5t-4.5 -79.5v-46q0 -36 4 -77.5t15.5 -87.5t32 -94.5t54.5 -98.5h-74q-32 42 -53.5 89t-34.5 94t-18.5 93t-5.5 87v36q0 40 5.5 85t18.5 91.5t34.5 92.5t53.5 88h74zM776 684q32 -42 53.5 -88t34.5 -92.5t18.5 -91.5
t5.5 -85v-36q0 -41 -5.5 -87t-18.5 -93t-34.5 -94t-53.5 -89h-74q34 50 54.5 98.5t32 94.5t15.5 87.5t4 77.5v46q0 37 -5 79.5t-17 87.5t-32.5 91.5t-51.5 93.5h74zM370 428q0 -41 26 -61t61 -20t61.5 20t26.5 61v8q0 39 -24 61t-64 22q-38 0 -62.5 -22t-24.5 -61v-8z
M355 169q0 -39 28 -61t76 -22q47 0 73.5 22t26.5 61v9q0 45 -29 66.5t-71 21.5q-43 0 -73.5 -21t-30.5 -67v-9zM261 178q0 24 7.5 45t21 38.5t30.5 29.5t37 18q-41 20 -60.5 56t-19.5 68v10q0 31 11 59.5t33.5 50t56.5 34t79 12.5q44 0 78 -12.5t57 -34t34.5 -50t11.5 -59.5
v-10q0 -32 -19 -66.5t-61 -57.5q40 -12 68 -47.5t28 -83.5v-14q0 -35 -13 -64t-38 -50.5t-62 -33.5t-84 -12t-83.5 12t-61.5 33.5t-38 50.5t-13 64v14z" />
    <glyph glyph-name="uni247C" unicode="&#x247c;" 
d="M208 684q-32 -47 -52.5 -93.5t-32.5 -91.5t-16.5 -87.5t-4.5 -79.5v-46q0 -36 4 -77.5t15.5 -87.5t32 -94.5t54.5 -98.5h-74q-32 42 -53.5 89t-34.5 94t-18.5 93t-5.5 87v36q0 40 5.5 85t18.5 91.5t34.5 92.5t53.5 88h74zM776 684q32 -42 53.5 -88t34.5 -92.5t18.5 -91.5
t5.5 -85v-36q0 -41 -5.5 -87t-18.5 -93t-34.5 -94t-53.5 -89h-74q34 50 54.5 98.5t32 94.5t15.5 87.5t4 77.5v46q0 37 -5 79.5t-17 87.5t-32.5 91.5t-51.5 93.5h74zM322 123q27 -16 58.5 -26t65.5 -10q23 0 44.5 6t39 24.5t29.5 53t16 92.5q-16 -26 -53.5 -41.5t-79.5 -15.5
q-39 0 -72 13t-57 37.5t-37.5 58.5t-13.5 76v17q0 41 14 76t40 60.5t63 40t83 14.5q105 0 154.5 -60.5t49.5 -174.5v-32q0 -95 -15 -158t-44 -100.5t-71 -53.5t-96 -16q-39 0 -79 11t-72 31zM575 404q0 52 -28.5 81.5t-80.5 29.5q-54 0 -83.5 -28.5t-29.5 -80.5v-10
q0 -54 30 -81.5t80 -27.5q54 0 83 31t29 75v11z" />
    <glyph glyph-name="uni247D" unicode="&#x247d;" 
d="M283 15v471l-94 -70l-43 65l150 111h75v-577h-88zM208 684q-32 -47 -52.5 -93.5t-32.5 -91.5t-16.5 -87.5t-4.5 -79.5v-46q0 -36 4 -77.5t15.5 -87.5t32 -94.5t54.5 -98.5h-74q-32 42 -53.5 89t-34.5 94t-18.5 93t-5.5 87v36q0 40 5.5 85t18.5 91.5t34.5 92.5t53.5 88h74
zM776 684q32 -42 53.5 -88t34.5 -92.5t18.5 -91.5t5.5 -85v-36q0 -41 -5.5 -87t-18.5 -93t-34.5 -94t-53.5 -89h-74q34 50 54.5 98.5t32 94.5t15.5 87.5t4 77.5v46q0 37 -5 79.5t-17 87.5t-32.5 91.5t-51.5 93.5h74zM734 258q0 -61 -8 -108t-26 -79.5t-48 -49t-75 -16.5
q-44 0 -74.5 16.5t-49.5 49t-27 79.5t-8 108v90q0 121 36 186.5t123 65.5q44 0 74 -16.5t48.5 -49t26.5 -79.5t8 -107v-90zM645 348q0 52 -4.5 85.5t-13 52t-21.5 25.5t-29 7t-28.5 -7t-21.5 -25.5t-14 -52t-5 -85.5v-91q0 -53 5 -86t14 -52t21.5 -25.5t28.5 -6.5t29 6.5
t21.5 25.5t13 52t4.5 86v91z" />
    <glyph glyph-name="uni247E" unicode="&#x247e;" 
d="M306 15v471l-98 -70l-43 65l154 111h75v-577h-88zM208 684q-32 -47 -52.5 -93.5t-32.5 -91.5t-16.5 -87.5t-4.5 -79.5v-46q0 -36 4 -77.5t15.5 -87.5t32 -94.5t54.5 -98.5h-74q-32 42 -53.5 89t-34.5 94t-18.5 93t-5.5 87v36q0 40 5.5 85t18.5 91.5t34.5 92.5t53.5 88h74
zM776 684q32 -42 53.5 -88t34.5 -92.5t18.5 -91.5t5.5 -85v-36q0 -41 -5.5 -87t-18.5 -93t-34.5 -94t-53.5 -89h-74q34 50 54.5 98.5t32 94.5t15.5 87.5t4 77.5v46q0 37 -5 79.5t-17 87.5t-32.5 91.5t-51.5 93.5h74zM587 15v471l-98 -70l-43 65l154 111h75v-577h-88z" />
    <glyph glyph-name="uni247F" unicode="&#x247f;" 
d="M283 15v471l-94 -70l-43 65l150 111h75v-577h-88zM208 684q-32 -47 -52.5 -93.5t-32.5 -91.5t-16.5 -87.5t-4.5 -79.5v-46q0 -36 4 -77.5t15.5 -87.5t32 -94.5t54.5 -98.5h-74q-32 42 -53.5 89t-34.5 94t-18.5 93t-5.5 87v36q0 40 5.5 85t18.5 91.5t34.5 92.5t53.5 88h74
zM776 684q32 -42 53.5 -88t34.5 -92.5t18.5 -91.5t5.5 -85v-36q0 -41 -5.5 -87t-18.5 -93t-34.5 -94t-53.5 -89h-74q34 50 54.5 98.5t32 94.5t15.5 87.5t4 77.5v46q0 37 -5 79.5t-17 87.5t-32.5 91.5t-51.5 93.5h74zM594 315q33 41 41.5 70t8.5 58v6q0 30 -18 50t-55 20
q-29 0 -52.5 -15t-45.5 -58l-69 43q10 19 24.5 39t34.5 36t46.5 26.5t61.5 10.5q48 0 79.5 -15t50.5 -38t26.5 -50t7.5 -51v-8q0 -47 -17 -84t-53 -82l-146 -180h222v-78h-329v75z" />
    <glyph glyph-name="uni2480" unicode="&#x2480;" 
d="M283 15v471l-94 -70l-43 65l150 111h75v-577h-88zM208 684q-32 -47 -52.5 -93.5t-32.5 -91.5t-16.5 -87.5t-4.5 -79.5v-46q0 -36 4 -77.5t15.5 -87.5t32 -94.5t54.5 -98.5h-74q-32 42 -53.5 89t-34.5 94t-18.5 93t-5.5 87v36q0 40 5.5 85t18.5 91.5t34.5 92.5t53.5 88h74
zM776 684q32 -42 53.5 -88t34.5 -92.5t18.5 -91.5t5.5 -85v-36q0 -41 -5.5 -87t-18.5 -93t-34.5 -94t-53.5 -89h-74q34 50 54.5 98.5t32 94.5t15.5 87.5t4 77.5v46q0 37 -5 79.5t-17 87.5t-32.5 91.5t-51.5 93.5h74zM410 515q22 36 57 60.5t89 24.5q77 0 118 -40t41 -105v-8
q0 -17 -4 -36t-14 -37t-27 -33t-43 -25q58 -10 86 -44t28 -85v-12q0 -32 -9 -62.5t-31 -54.5t-57.5 -38.5t-87.5 -14.5q-51 0 -90 17.5t-73 46.5l45 72q34 -30 60 -41.5t58 -11.5q52 0 73 24t21 63v10q0 48 -24.5 69.5t-67.5 21.5h-68v78h62q40 0 57 26.5t17 64.5v6
q0 35 -18 53t-51 18q-31 0 -50 -14.5t-34 -39.5z" />
    <glyph glyph-name="uni2481" unicode="&#x2481;" 
d="M283 15v471l-94 -70l-43 65l150 111h75v-577h-88zM208 684q-32 -47 -52.5 -93.5t-32.5 -91.5t-16.5 -87.5t-4.5 -79.5v-46q0 -36 4 -77.5t15.5 -87.5t32 -94.5t54.5 -98.5h-74q-32 42 -53.5 89t-34.5 94t-18.5 93t-5.5 87v36q0 40 5.5 85t18.5 91.5t34.5 92.5t53.5 88h74
zM776 684q32 -42 53.5 -88t34.5 -92.5t18.5 -91.5t5.5 -85v-36q0 -41 -5.5 -87t-18.5 -93t-34.5 -94t-53.5 -89h-74q34 50 54.5 98.5t32 94.5t15.5 87.5t4 77.5v46q0 37 -5 79.5t-17 87.5t-32.5 91.5t-51.5 93.5h74zM696 386v-176h68v-73h-68v-122h-87v122h-213v61l177 394
h97l-171 -382h110v176h87z" />
    <glyph glyph-name="uni2482" unicode="&#x2482;" 
d="M283 15v471l-94 -70l-43 65l150 111h75v-577h-88zM208 684q-32 -47 -52.5 -93.5t-32.5 -91.5t-16.5 -87.5t-4.5 -79.5v-46q0 -36 4 -77.5t15.5 -87.5t32 -94.5t54.5 -98.5h-74q-32 42 -53.5 89t-34.5 94t-18.5 93t-5.5 87v36q0 40 5.5 85t18.5 91.5t34.5 92.5t53.5 88h74
zM776 684q32 -42 53.5 -88t34.5 -92.5t18.5 -91.5t5.5 -85v-36q0 -41 -5.5 -87t-18.5 -93t-34.5 -94t-53.5 -89h-74q34 50 54.5 98.5t32 94.5t15.5 87.5t4 77.5v46q0 37 -5 79.5t-17 87.5t-32.5 91.5t-51.5 93.5h74zM649 200q0 51 -18.5 79t-62.5 28q-30 0 -48.5 -14.5
t-32.5 -33.5h-64l18 331h260v-75h-179l-9 -168q13 12 32 22t48 10q39 0 66.5 -14t45 -38.5t25.5 -56.5t8 -68v-10q0 -33 -8.5 -66.5t-29.5 -60.5t-55 -44t-85 -17q-54 0 -89.5 16.5t-74.5 48.5l44 69q18 -15 32.5 -25t28 -16.5t28 -9t32.5 -2.5q47 0 67.5 31t20.5 76v8z" />
    <glyph glyph-name="uni2483" unicode="&#x2483;" horiz-adv-x="940" 
 />
    <glyph glyph-name="uni2484" unicode="&#x2484;" horiz-adv-x="940" 
 />
    <glyph glyph-name="uni2485" unicode="&#x2485;" horiz-adv-x="940" 
 />
    <glyph glyph-name="uni2486" unicode="&#x2486;" horiz-adv-x="940" 
 />
    <glyph glyph-name="uni2487" unicode="&#x2487;" horiz-adv-x="940" 
 />
    <glyph glyph-name="uni249C" unicode="&#x249c;" 
d="M208 684q-32 -47 -52.5 -93.5t-32.5 -91.5t-16.5 -87.5t-4.5 -79.5v-46q0 -36 4 -77.5t15.5 -87.5t32 -94.5t54.5 -98.5h-74q-32 42 -53.5 89t-34.5 94t-18.5 93t-5.5 87v36q0 40 5.5 85t18.5 91.5t34.5 92.5t53.5 88h74zM776 684q32 -42 53.5 -88t34.5 -92.5t18.5 -91.5
t5.5 -85v-36q0 -41 -5.5 -87t-18.5 -93t-34.5 -94t-53.5 -89h-74q34 50 54.5 98.5t32 94.5t15.5 87.5t4 77.5v46q0 37 -5 79.5t-17 87.5t-32.5 91.5t-51.5 93.5h74zM420 78q-70 0 -109.5 32.5t-39.5 92.5v23q0 59 39 95.5t127 36.5h107v21q0 43 -18.5 62.5t-66.5 19.5
q-38 0 -69.5 -12.5t-57.5 -32.5l-45 67q33 23 75 40.5t97 17.5q37 0 69.5 -9.5t55.5 -28t36.5 -45t13.5 -59.5v-314h-87l-1 53q-14 -30 -46.5 -45t-79.5 -15zM544 282h-106q-43 0 -60.5 -16t-17.5 -47v-11q0 -26 18.5 -39t50.5 -13q52 0 83.5 23t31.5 74v29z" />
    <glyph glyph-name="uni249D" unicode="&#x249d;" 
d="M208 684q-32 -47 -52.5 -93.5t-32.5 -91.5t-16.5 -87.5t-4.5 -79.5v-46q0 -36 4 -77.5t15.5 -87.5t32 -94.5t54.5 -98.5h-74q-32 42 -53.5 89t-34.5 94t-18.5 93t-5.5 87v36q0 40 5.5 85t18.5 91.5t34.5 92.5t53.5 88h74zM776 684q32 -42 53.5 -88t34.5 -92.5t18.5 -91.5
t5.5 -85v-36q0 -41 -5.5 -87t-18.5 -93t-34.5 -94t-53.5 -89h-74q34 50 54.5 98.5t32 94.5t15.5 87.5t4 77.5v46q0 37 -5 79.5t-17 87.5t-32.5 91.5t-51.5 93.5h74zM377 66v-52h-86v620h89v-218q23 31 57 42.5t69 11.5q85 0 128.5 -49t43.5 -140v-81q0 -91 -48.5 -141.5
t-128.5 -50.5q-52 0 -80 17t-41 41h-3zM589 266q0 60 -26 93t-72 33q-50 0 -80.5 -29.5t-30.5 -78.5v-106q0 -16 8 -32.5t23 -29.5t35.5 -21.5t44.5 -8.5q48 0 73 33.5t25 93.5v53z" />
    <glyph glyph-name="uni249E" unicode="&#x249e;" 
d="M208 684q-32 -47 -52.5 -93.5t-32.5 -91.5t-16.5 -87.5t-4.5 -79.5v-46q0 -36 4 -77.5t15.5 -87.5t32 -94.5t54.5 -98.5h-74q-32 42 -53.5 89t-34.5 94t-18.5 93t-5.5 87v36q0 40 5.5 85t18.5 91.5t34.5 92.5t53.5 88h74zM776 684q32 -42 53.5 -88t34.5 -92.5t18.5 -91.5
t5.5 -85v-36q0 -41 -5.5 -87t-18.5 -93t-34.5 -94t-53.5 -89h-74q34 50 54.5 98.5t32 94.5t15.5 87.5t4 77.5v46q0 37 -5 79.5t-17 87.5t-32.5 91.5t-51.5 93.5h74zM468 540q56 0 90.5 -13.5t62.5 -34.5l-41 -68q-26 21 -53 28.5t-59 7.5q-21 0 -40 -6t-34 -20t-23.5 -37
t-8.5 -57v-58q0 -36 9 -60t24 -38.5t34.5 -20.5t39.5 -6q43 0 71 11.5t51 29.5l42 -69q-22 -19 -63 -35.5t-102 -16.5q-96 0 -146.5 53.5t-50.5 149.5v59q0 96 53 148.5t144 52.5z" />
    <glyph glyph-name="uni249F" unicode="&#x249f;" 
d="M208 684q-32 -47 -52.5 -93.5t-32.5 -91.5t-16.5 -87.5t-4.5 -79.5v-46q0 -36 4 -77.5t15.5 -87.5t32 -94.5t54.5 -98.5h-74q-32 42 -53.5 89t-34.5 94t-18.5 93t-5.5 87v36q0 40 5.5 85t18.5 91.5t34.5 92.5t53.5 88h74zM776 684q32 -42 53.5 -88t34.5 -92.5t18.5 -91.5
t5.5 -85v-36q0 -41 -5.5 -87t-18.5 -93t-34.5 -94t-53.5 -89h-74q34 50 54.5 98.5t32 94.5t15.5 87.5t4 77.5v46q0 37 -5 79.5t-17 87.5t-32.5 91.5t-51.5 93.5h74zM551 69h-2q-18 -34 -52 -47t-78 -13q-84 0 -127 49t-43 140v81q0 91 48.5 141.5t128.5 50.5q52 0 80.5 -17
t40.5 -34v215h89v-620h-85v54zM338 214q0 -61 25.5 -94t72.5 -33q23 0 43 8t35 23t24 35.5t9 44.5v105q0 16 -8 32t-22.5 29t-35 20.5t-45.5 7.5q-48 0 -73 -33t-25 -92v-53z" />
    <glyph glyph-name="uni24A0" unicode="&#x24a0;" 
d="M208 684q-32 -47 -52.5 -93.5t-32.5 -91.5t-16.5 -87.5t-4.5 -79.5v-46q0 -36 4 -77.5t15.5 -87.5t32 -94.5t54.5 -98.5h-74q-32 42 -53.5 89t-34.5 94t-18.5 93t-5.5 87v36q0 40 5.5 85t18.5 91.5t34.5 92.5t53.5 88h74zM776 684q32 -42 53.5 -88t34.5 -92.5t18.5 -91.5
t5.5 -85v-36q0 -41 -5.5 -87t-18.5 -93t-34.5 -94t-53.5 -89h-74q34 50 54.5 98.5t32 94.5t15.5 87.5t4 77.5v46q0 37 -5 79.5t-17 87.5t-32.5 91.5t-51.5 93.5h74zM564 346v21q0 42 -28 69t-76 27q-23 0 -42.5 -7.5t-33.5 -21t-22.5 -32t-8.5 -40.5v-16h211zM640 125
q-31 -21 -72.5 -34.5t-104.5 -13.5q-40 0 -76 11t-63.5 35t-44 63.5t-16.5 96.5v50q0 52 15.5 91t42 65t62.5 38.5t77 12.5q86 0 138.5 -51t52.5 -148v-68h-298q0 -59 32 -88.5t83 -29.5q42 0 74 10t60 28z" />
    <glyph glyph-name="uni24A1" unicode="&#x24a1;" 
d="M208 684q-32 -47 -52.5 -93.5t-32.5 -91.5t-16.5 -87.5t-4.5 -79.5v-46q0 -36 4 -77.5t15.5 -87.5t32 -94.5t54.5 -98.5h-74q-32 42 -53.5 89t-34.5 94t-18.5 93t-5.5 87v36q0 40 5.5 85t18.5 91.5t34.5 92.5t53.5 88h74zM776 684q32 -42 53.5 -88t34.5 -92.5t18.5 -91.5
t5.5 -85v-36q0 -41 -5.5 -87t-18.5 -93t-34.5 -94t-53.5 -89h-74q34 50 54.5 98.5t32 94.5t15.5 87.5t4 77.5v46q0 37 -5 79.5t-17 87.5t-32.5 91.5t-51.5 93.5h74zM394 370h-72v78h72v47q0 65 33.5 99t103.5 34q23 0 45.5 -4t36.5 -9l-13 -72q-15 4 -28.5 6t-31.5 2
q-26 0 -41 -13.5t-15 -46.5v-43h115v-78h-115v-366h-90v366z" />
    <glyph glyph-name="uni24A2" unicode="&#x24a2;" 
d="M208 684q-32 -47 -52.5 -93.5t-32.5 -91.5t-16.5 -87.5t-4.5 -79.5v-46q0 -36 4 -77.5t15.5 -87.5t32 -94.5t54.5 -98.5h-74q-32 42 -53.5 89t-34.5 94t-18.5 93t-5.5 87v36q0 40 5.5 85t18.5 91.5t34.5 92.5t53.5 88h74zM776 684q32 -42 53.5 -88t34.5 -92.5t18.5 -91.5
t5.5 -85v-36q0 -41 -5.5 -87t-18.5 -93t-34.5 -94t-53.5 -89h-74q34 50 54.5 98.5t32 94.5t15.5 87.5t4 77.5v46q0 37 -5 79.5t-17 87.5t-32.5 91.5t-51.5 93.5h74zM555 215q-17 -30 -50.5 -42.5t-75.5 -12.5q-86 0 -128.5 49t-42.5 140v74q0 45 13 80.5t36.5 60t55.5 38
t71 13.5q53 0 81 -17.5t40 -34.5v43h90v-443q0 -94 -50.5 -140t-156.5 -46q-45 0 -83 13.5t-65 34.5l40 72q18 -14 49.5 -26.5t61.5 -12.5q114 0 114 106v51zM347 365q0 -61 25.5 -94t72.5 -33q22 0 42.5 8t35.5 23t24 35.5t9 44.5v97q0 35 -29 62t-82 27q-48 0 -73 -33
t-25 -92v-45z" />
    <glyph glyph-name="uni24A3" unicode="&#x24a3;" 
d="M208 684q-32 -47 -52.5 -93.5t-32.5 -91.5t-16.5 -87.5t-4.5 -79.5v-46q0 -36 4 -77.5t15.5 -87.5t32 -94.5t54.5 -98.5h-74q-32 42 -53.5 89t-34.5 94t-18.5 93t-5.5 87v36q0 40 5.5 85t18.5 91.5t34.5 92.5t53.5 88h74zM776 684q32 -42 53.5 -88t34.5 -92.5t18.5 -91.5
t5.5 -85v-36q0 -41 -5.5 -87t-18.5 -93t-34.5 -94t-53.5 -89h-74q34 50 54.5 98.5t32 94.5t15.5 87.5t4 77.5v46q0 37 -5 79.5t-17 87.5t-32.5 91.5t-51.5 93.5h74zM508 459q30 0 58 -9t49.5 -28.5t34.5 -50.5t13 -74v-293h-90v274q0 60 -24 81t-66 21q-16 0 -34.5 -5.5
t-34 -17.5t-26 -32t-10.5 -50v-271h-90v620h90v-223q22 31 55 44.5t75 13.5z" />
    <glyph glyph-name="uni24A4" unicode="&#x24a4;" 
d="M410 449h89v-446h-89v446zM407 614h95v-98h-95v98zM208 684q-32 -47 -52.5 -93.5t-32.5 -91.5t-16.5 -87.5t-4.5 -79.5v-46q0 -36 4 -77.5t15.5 -87.5t32 -94.5t54.5 -98.5h-74q-32 42 -53.5 89t-34.5 94t-18.5 93t-5.5 87v36q0 40 5.5 85t18.5 91.5t34.5 92.5t53.5 88
h74zM776 684q32 -42 53.5 -88t34.5 -92.5t18.5 -91.5t5.5 -85v-36q0 -41 -5.5 -87t-18.5 -93t-34.5 -94t-53.5 -89h-74q34 50 54.5 98.5t32 94.5t15.5 87.5t4 77.5v46q0 37 -5 79.5t-17 87.5t-32.5 91.5t-51.5 93.5h74z" />
    <glyph glyph-name="uni24A5" unicode="&#x24a5;" 
d="M208 684q-32 -47 -52.5 -93.5t-32.5 -91.5t-16.5 -87.5t-4.5 -79.5v-46q0 -36 4 -77.5t15.5 -87.5t32 -94.5t54.5 -98.5h-74q-32 42 -53.5 89t-34.5 94t-18.5 93t-5.5 87v36q0 40 5.5 85t18.5 91.5t34.5 92.5t53.5 88h74zM776 684q32 -42 53.5 -88t34.5 -92.5t18.5 -91.5
t5.5 -85v-36q0 -41 -5.5 -87t-18.5 -93t-34.5 -94t-53.5 -89h-74q34 50 54.5 98.5t32 94.5t15.5 87.5t4 77.5v46q0 37 -5 79.5t-17 87.5t-32.5 91.5t-51.5 93.5h74zM441 614h95v-98h-95v98zM534 115q0 -65 -36 -98.5t-104 -33.5q-23 0 -45.5 3.5t-36.5 8.5l15 73
q15 -5 29.5 -6.5t28.5 -1.5q9 0 18.5 1t18 7t14 18t5.5 33v330h93v-334z" />
    <glyph glyph-name="uni24A6" unicode="&#x24a6;" 
d="M505 269l183 -265h-114l-131 200l-57 -59v-141h-90v620h90v-369l179 196h115zM208 684q-32 -47 -52.5 -93.5t-32.5 -91.5t-16.5 -87.5t-4.5 -79.5v-46q0 -36 4 -77.5t15.5 -87.5t32 -94.5t54.5 -98.5h-74q-32 42 -53.5 89t-34.5 94t-18.5 93t-5.5 87v36q0 40 5.5 85
t18.5 91.5t34.5 92.5t53.5 88h74zM776 684q32 -42 53.5 -88t34.5 -92.5t18.5 -91.5t5.5 -85v-36q0 -41 -5.5 -87t-18.5 -93t-34.5 -94t-53.5 -89h-74q34 50 54.5 98.5t32 94.5t15.5 87.5t4 77.5v46q0 37 -5 79.5t-17 87.5t-32.5 91.5t-51.5 93.5h74z" />
    <glyph glyph-name="uni24A7" unicode="&#x24a7;" 
d="M208 684q-32 -47 -52.5 -93.5t-32.5 -91.5t-16.5 -87.5t-4.5 -79.5v-46q0 -36 4 -77.5t15.5 -87.5t32 -94.5t54.5 -98.5h-74q-32 42 -53.5 89t-34.5 94t-18.5 93t-5.5 87v36q0 40 5.5 85t18.5 91.5t34.5 92.5t53.5 88h74zM776 684q32 -42 53.5 -88t34.5 -92.5t18.5 -91.5
t5.5 -85v-36q0 -41 -5.5 -87t-18.5 -93t-34.5 -94t-53.5 -89h-74q34 50 54.5 98.5t32 94.5t15.5 87.5t4 77.5v46q0 37 -5 79.5t-17 87.5t-32.5 91.5t-51.5 93.5h74zM410 624h89v-620h-89v620z" />
    <glyph glyph-name="uni24A8" unicode="&#x24a8;" 
d="M208 684q-32 -47 -52.5 -93.5t-32.5 -91.5t-16.5 -87.5t-4.5 -79.5v-46q0 -36 4 -77.5t15.5 -87.5t32 -94.5t54.5 -98.5h-74q-32 42 -53.5 89t-34.5 94t-18.5 93t-5.5 87v36q0 40 5.5 85t18.5 91.5t34.5 92.5t53.5 88h74zM776 684q32 -42 53.5 -88t34.5 -92.5t18.5 -91.5
t5.5 -85v-36q0 -41 -5.5 -87t-18.5 -93t-34.5 -94t-53.5 -89h-74q34 50 54.5 98.5t32 94.5t15.5 87.5t4 77.5v46q0 37 -5 79.5t-17 87.5t-32.5 91.5t-51.5 93.5h74zM617 540q62 0 98.5 -42.5t36.5 -123.5v-289h-90v259q0 60 -15.5 87t-54.5 27q-15 0 -29 -4.5t-25.5 -16
t-18.5 -31t-7 -50.5v-271h-89v259q0 60 -16.5 87t-55.5 27q-14 0 -28 -4t-25 -14.5t-18 -29t-7 -46.5v-279h-90v447h87v-60q13 29 40 48.5t68 19.5t69 -20t42 -52q18 32 47.5 52t80.5 20z" />
    <glyph glyph-name="uni24A9" unicode="&#x24a9;" 
d="M208 684q-32 -47 -52.5 -93.5t-32.5 -91.5t-16.5 -87.5t-4.5 -79.5v-46q0 -36 4 -77.5t15.5 -87.5t32 -94.5t54.5 -98.5h-74q-32 42 -53.5 89t-34.5 94t-18.5 93t-5.5 87v36q0 40 5.5 85t18.5 91.5t34.5 92.5t53.5 88h74zM776 684q32 -42 53.5 -88t34.5 -92.5t18.5 -91.5
t5.5 -85v-36q0 -41 -5.5 -87t-18.5 -93t-34.5 -94t-53.5 -89h-74q34 50 54.5 98.5t32 94.5t15.5 87.5t4 77.5v46q0 37 -5 79.5t-17 87.5t-32.5 91.5t-51.5 93.5h74zM496 540q30 0 58 -9t49.5 -28.5t34.5 -50.5t13 -74v-293h-90v273q0 60 -24 81t-66 21q-16 0 -34.5 -5.5
t-34 -17.5t-26 -32t-10.5 -50v-270h-90v447h85v-54q24 34 58 48t77 14z" />
    <glyph glyph-name="uni24AA" unicode="&#x24aa;" 
d="M208 684q-32 -47 -52.5 -93.5t-32.5 -91.5t-16.5 -87.5t-4.5 -79.5v-46q0 -36 4 -77.5t15.5 -87.5t32 -94.5t54.5 -98.5h-74q-32 42 -53.5 89t-34.5 94t-18.5 93t-5.5 87v36q0 40 5.5 85t18.5 91.5t34.5 92.5t53.5 88h74zM776 684q32 -42 53.5 -88t34.5 -92.5t18.5 -91.5
t5.5 -85v-36q0 -41 -5.5 -87t-18.5 -93t-34.5 -94t-53.5 -89h-74q34 50 54.5 98.5t32 94.5t15.5 87.5t4 77.5v46q0 37 -5 79.5t-17 87.5t-32.5 91.5t-51.5 93.5h74zM456 540q94 0 148.5 -53t54.5 -150v-57q0 -97 -54.5 -150t-148.5 -53q-93 0 -148.5 53t-55.5 150v57
q0 97 55.5 150t148.5 53zM456 156q54 0 83 32.5t29 99.5v41q0 67 -29 99.5t-83 32.5t-83.5 -32.5t-29.5 -99.5v-41q0 -67 29.5 -99.5t83.5 -32.5z" />
    <glyph glyph-name="uni24AB" unicode="&#x24ab;" 
d="M208 684q-32 -47 -52.5 -93.5t-32.5 -91.5t-16.5 -87.5t-4.5 -79.5v-46q0 -36 4 -77.5t15.5 -87.5t32 -94.5t54.5 -98.5h-74q-32 42 -53.5 89t-34.5 94t-18.5 93t-5.5 87v36q0 40 5.5 85t18.5 91.5t34.5 92.5t53.5 88h74zM776 684q32 -42 53.5 -88t34.5 -92.5t18.5 -91.5
t5.5 -85v-36q0 -41 -5.5 -87t-18.5 -93t-34.5 -94t-53.5 -89h-74q34 50 54.5 98.5t32 94.5t15.5 87.5t4 77.5v46q0 37 -5 79.5t-17 87.5t-32.5 91.5t-51.5 93.5h74zM505 140q-23 0 -43 5.5t-35.5 14t-26 17.5t-14.5 17v-223h-89v623h86v-52q20 31 56 45.5t73 14.5
q85 0 128.5 -51t43.5 -138v-81q0 -93 -48.5 -142.5t-130.5 -49.5zM595 397q0 60 -26 93.5t-72 33.5q-50 0 -80.5 -29.5t-30.5 -78.5v-105q0 -16 8 -32.5t23 -29.5t35.5 -21.5t44.5 -8.5q48 0 73 33t25 93v52z" />
    <glyph glyph-name="uni24AC" unicode="&#x24ac;" 
d="M208 684q-32 -47 -52.5 -93.5t-32.5 -91.5t-16.5 -87.5t-4.5 -79.5v-46q0 -36 4 -77.5t15.5 -87.5t32 -94.5t54.5 -98.5h-74q-32 42 -53.5 89t-34.5 94t-18.5 93t-5.5 87v36q0 40 5.5 85t18.5 91.5t34.5 92.5t53.5 88h74zM776 684q32 -42 53.5 -88t34.5 -92.5t18.5 -91.5
t5.5 -85v-36q0 -41 -5.5 -87t-18.5 -93t-34.5 -94t-53.5 -89h-74q34 50 54.5 98.5t32 94.5t15.5 87.5t4 77.5v46q0 37 -5 79.5t-17 87.5t-32.5 91.5t-51.5 93.5h74zM548 196q-20 -31 -52.5 -43.5t-74.5 -12.5q-88 0 -129.5 49.5t-41.5 140.5v80q0 91 48.5 141.5t128.5 50.5
q52 0 80 -17t40 -34v43h90v-623h-89v225zM339 345q0 -60 25.5 -93t72.5 -33q23 0 43 8t35 23t24 35.5t9 44.5v106q0 16 -8 32t-23 28t-35.5 19.5t-44.5 7.5q-48 0 -73 -33t-25 -93v-52z" />
    <glyph glyph-name="uni24AD" unicode="&#x24ad;" 
d="M208 684q-32 -47 -52.5 -93.5t-32.5 -91.5t-16.5 -87.5t-4.5 -79.5v-46q0 -36 4 -77.5t15.5 -87.5t32 -94.5t54.5 -98.5h-74q-32 42 -53.5 89t-34.5 94t-18.5 93t-5.5 87v36q0 40 5.5 85t18.5 91.5t34.5 92.5t53.5 88h74zM776 684q32 -42 53.5 -88t34.5 -92.5t18.5 -91.5
t5.5 -85v-36q0 -41 -5.5 -87t-18.5 -93t-34.5 -94t-53.5 -89h-74q34 50 54.5 98.5t32 94.5t15.5 87.5t4 77.5v46q0 37 -5 79.5t-17 87.5t-32.5 91.5t-51.5 93.5h74zM614 444q-12 5 -24 8t-31 3q-20 0 -38.5 -7.5t-33.5 -21.5t-24 -33.5t-9 -43.5v-264h-90v447h87v-68
q24 39 55 57.5t80 18.5q28 0 55 -9z" />
    <glyph glyph-name="uni24AE" unicode="&#x24ae;" 
d="M208 684q-32 -47 -52.5 -93.5t-32.5 -91.5t-16.5 -87.5t-4.5 -79.5v-46q0 -36 4 -77.5t15.5 -87.5t32 -94.5t54.5 -98.5h-74q-32 42 -53.5 89t-34.5 94t-18.5 93t-5.5 87v36q0 40 5.5 85t18.5 91.5t34.5 92.5t53.5 88h74zM776 684q32 -42 53.5 -88t34.5 -92.5t18.5 -91.5
t5.5 -85v-36q0 -41 -5.5 -87t-18.5 -93t-34.5 -94t-53.5 -89h-74q34 50 54.5 98.5t32 94.5t15.5 87.5t4 77.5v46q0 37 -5 79.5t-17 87.5t-32.5 91.5t-51.5 93.5h74zM464 154q39 0 61.5 13t22.5 39v6q0 13 -3 21.5t-12.5 14.5t-28 11.5t-49.5 12.5q-78 16 -117 46t-39 91v9
q0 23 9.5 45t30 39t52.5 27.5t77 10.5q42 0 83.5 -9.5t77.5 -33.5l-40 -68q-20 15 -51.5 24.5t-60.5 9.5q-49 0 -68.5 -13t-19.5 -33v-7q0 -25 18.5 -36t70.5 -21q40 -8 70.5 -18t50.5 -26t30 -39t10 -56v-10q0 -26 -11.5 -49t-34 -40.5t-54.5 -27.5t-72 -10
q-57 0 -104 14.5t-79 39.5l41 71q30 -20 63.5 -34t75.5 -14z" />
    <glyph glyph-name="uni24AF" unicode="&#x24af;" 
d="M208 684q-32 -47 -52.5 -93.5t-32.5 -91.5t-16.5 -87.5t-4.5 -79.5v-46q0 -36 4 -77.5t15.5 -87.5t32 -94.5t54.5 -98.5h-74q-32 42 -53.5 89t-34.5 94t-18.5 93t-5.5 87v36q0 40 5.5 85t18.5 91.5t34.5 92.5t53.5 88h74zM776 684q32 -42 53.5 -88t34.5 -92.5t18.5 -91.5
t5.5 -85v-36q0 -41 -5.5 -87t-18.5 -93t-34.5 -94t-53.5 -89h-74q34 50 54.5 98.5t32 94.5t15.5 87.5t4 77.5v46q0 37 -5 79.5t-17 87.5t-32.5 91.5t-51.5 93.5h74zM377 396h-72v78h72v111h90v-111h115v-78h-115v-242q0 -20 4.5 -30.5t12 -16t17 -6.5t20.5 -1q28 0 57 11
l14 -72q-14 -5 -37.5 -10.5t-49.5 -5.5q-66 0 -97 32.5t-31 98.5v242z" />
    <glyph glyph-name="uni24B0" unicode="&#x24b0;" 
d="M208 684q-32 -47 -52.5 -93.5t-32.5 -91.5t-16.5 -87.5t-4.5 -79.5v-46q0 -36 4 -77.5t15.5 -87.5t32 -94.5t54.5 -98.5h-74q-32 42 -53.5 89t-34.5 94t-18.5 93t-5.5 87v36q0 40 5.5 85t18.5 91.5t34.5 92.5t53.5 88h74zM776 684q32 -42 53.5 -88t34.5 -92.5t18.5 -91.5
t5.5 -85v-36q0 -41 -5.5 -87t-18.5 -93t-34.5 -94t-53.5 -89h-74q34 50 54.5 98.5t32 94.5t15.5 87.5t4 77.5v46q0 37 -5 79.5t-17 87.5t-32.5 91.5t-51.5 93.5h74zM429 75q-30 0 -57.5 9t-49 28.5t-34.5 50.5t-13 74v294h90v-274q0 -30 6 -50t18 -31.5t28.5 -16t37.5 -4.5
q16 0 34 5.5t33 17.5t25 32t10 50v271h90v-447h-87v54q-24 -35 -56 -49t-75 -14z" />
    <glyph glyph-name="uni24B1" unicode="&#x24b1;" 
d="M208 684q-32 -47 -52.5 -93.5t-32.5 -91.5t-16.5 -87.5t-4.5 -79.5v-46q0 -36 4 -77.5t15.5 -87.5t32 -94.5t54.5 -98.5h-74q-32 42 -53.5 89t-34.5 94t-18.5 93t-5.5 87v36q0 40 5.5 85t18.5 91.5t34.5 92.5t53.5 88h74zM776 684q32 -42 53.5 -88t34.5 -92.5t18.5 -91.5
t5.5 -85v-36q0 -41 -5.5 -87t-18.5 -93t-34.5 -94t-53.5 -89h-74q34 50 54.5 98.5t32 94.5t15.5 87.5t4 77.5v46q0 37 -5 79.5t-17 87.5t-32.5 91.5t-51.5 93.5h74zM400 85l-149 446h98l109 -364h2l109 364h95l-148 -446h-116z" />
    <glyph glyph-name="uni24B2" unicode="&#x24b2;" 
d="M208 684q-32 -47 -52.5 -93.5t-32.5 -91.5t-16.5 -87.5t-4.5 -79.5v-46q0 -36 4 -77.5t15.5 -87.5t32 -94.5t54.5 -98.5h-74q-32 42 -53.5 89t-34.5 94t-18.5 93t-5.5 87v36q0 40 5.5 85t18.5 91.5t34.5 92.5t53.5 88h74zM776 684q32 -42 53.5 -88t34.5 -92.5t18.5 -91.5
t5.5 -85v-36q0 -41 -5.5 -87t-18.5 -93t-34.5 -94t-53.5 -89h-74q34 50 54.5 98.5t32 94.5t15.5 87.5t4 77.5v46q0 37 -5 79.5t-17 87.5t-32.5 91.5t-51.5 93.5h74zM270 85l-111 446h96l72 -351h2l88 351h87l85 -351h3l74 351h90l-109 -446h-106l-81 329h-3l-80 -329h-107z
" />
    <glyph glyph-name="uni24B3" unicode="&#x24b3;" 
d="M208 684q-32 -47 -52.5 -93.5t-32.5 -91.5t-16.5 -87.5t-4.5 -79.5v-46q0 -36 4 -77.5t15.5 -87.5t32 -94.5t54.5 -98.5h-74q-32 42 -53.5 89t-34.5 94t-18.5 93t-5.5 87v36q0 40 5.5 85t18.5 91.5t34.5 92.5t53.5 88h74zM776 684q32 -42 53.5 -88t34.5 -92.5t18.5 -91.5
t5.5 -85v-36q0 -41 -5.5 -87t-18.5 -93t-34.5 -94t-53.5 -89h-74q34 50 54.5 98.5t32 94.5t15.5 87.5t4 77.5v46q0 37 -5 79.5t-17 87.5t-32.5 91.5t-51.5 93.5h74zM520 315l142 -230h-111l-92 169l-94 -169h-104l144 230l-137 214h110l89 -156l90 156h100z" />
    <glyph glyph-name="uni24B4" unicode="&#x24b4;" 
d="M208 684q-32 -47 -52.5 -93.5t-32.5 -91.5t-16.5 -87.5t-4.5 -79.5v-46q0 -36 4 -77.5t15.5 -87.5t32 -94.5t54.5 -98.5h-74q-32 42 -53.5 89t-34.5 94t-18.5 93t-5.5 87v36q0 40 5.5 85t18.5 91.5t34.5 92.5t53.5 88h74zM776 684q32 -42 53.5 -88t34.5 -92.5t18.5 -91.5
t5.5 -85v-36q0 -41 -5.5 -87t-18.5 -93t-34.5 -94t-53.5 -89h-74q34 50 54.5 98.5t32 94.5t15.5 87.5t4 77.5v46q0 37 -5 79.5t-17 87.5t-32.5 91.5t-51.5 93.5h74zM356 595l105 -340h5l114 340h93l-235 -627l-81 29l56 149l-157 449h100z" />
    <glyph glyph-name="uni24B5" unicode="&#x24b5;" 
d="M208 684q-32 -47 -52.5 -93.5t-32.5 -91.5t-16.5 -87.5t-4.5 -79.5v-46q0 -36 4 -77.5t15.5 -87.5t32 -94.5t54.5 -98.5h-74q-32 42 -53.5 89t-34.5 94t-18.5 93t-5.5 87v36q0 40 5.5 85t18.5 91.5t34.5 92.5t53.5 88h74zM776 684q32 -42 53.5 -88t34.5 -92.5t18.5 -91.5
t5.5 -85v-36q0 -41 -5.5 -87t-18.5 -93t-34.5 -94t-53.5 -89h-74q34 50 54.5 98.5t32 94.5t15.5 87.5t4 77.5v46q0 37 -5 79.5t-17 87.5t-32.5 91.5t-51.5 93.5h74zM634 458l-231 -293h244v-80h-362v64l239 301h-222v81h332v-73z" />
    <glyph glyph-name="uni24B6" unicode="&#x24b6;" horiz-adv-x="940" 
 />
    <glyph glyph-name="uni24B7" unicode="&#x24b7;" horiz-adv-x="940" 
 />
    <glyph glyph-name="uni24B8" unicode="&#x24b8;" horiz-adv-x="940" 
 />
    <glyph glyph-name="uni24B9" unicode="&#x24b9;" horiz-adv-x="940" 
 />
    <glyph glyph-name="uni24BA" unicode="&#x24ba;" horiz-adv-x="940" 
 />
    <glyph glyph-name="uni24BB" unicode="&#x24bb;" horiz-adv-x="940" 
 />
    <glyph glyph-name="uni24BC" unicode="&#x24bc;" horiz-adv-x="940" 
 />
    <glyph glyph-name="uni24BD" unicode="&#x24bd;" horiz-adv-x="940" 
 />
    <glyph glyph-name="uni24BE" unicode="&#x24be;" horiz-adv-x="940" 
 />
    <glyph glyph-name="uni24BF" unicode="&#x24bf;" horiz-adv-x="940" 
 />
    <glyph glyph-name="uni24C0" unicode="&#x24c0;" horiz-adv-x="940" 
 />
    <glyph glyph-name="uni24C1" unicode="&#x24c1;" horiz-adv-x="940" 
 />
    <glyph glyph-name="uni24C2" unicode="&#x24c2;" horiz-adv-x="940" 
 />
    <glyph glyph-name="uni24C3" unicode="&#x24c3;" horiz-adv-x="940" 
 />
    <glyph glyph-name="uni24C4" unicode="&#x24c4;" horiz-adv-x="940" 
 />
    <glyph glyph-name="uni24C5" unicode="&#x24c5;" horiz-adv-x="940" 
 />
    <glyph glyph-name="uni24C6" unicode="&#x24c6;" horiz-adv-x="940" 
 />
    <glyph glyph-name="uni24C7" unicode="&#x24c7;" horiz-adv-x="940" 
 />
    <glyph glyph-name="uni24C8" unicode="&#x24c8;" horiz-adv-x="940" 
 />
    <glyph glyph-name="uni24C9" unicode="&#x24c9;" horiz-adv-x="940" 
 />
    <glyph glyph-name="uni24CA" unicode="&#x24ca;" horiz-adv-x="940" 
 />
    <glyph glyph-name="uni24CB" unicode="&#x24cb;" horiz-adv-x="940" 
 />
    <glyph glyph-name="uni24CC" unicode="&#x24cc;" horiz-adv-x="940" 
 />
    <glyph glyph-name="uni24CD" unicode="&#x24cd;" horiz-adv-x="940" 
 />
    <glyph glyph-name="uni24CE" unicode="&#x24ce;" horiz-adv-x="940" 
 />
    <glyph glyph-name="uni24CF" unicode="&#x24cf;" horiz-adv-x="940" 
 />
    <glyph glyph-name="uni24D0" unicode="&#x24d0;" 
d="M828 306q0 82 -28 151t-77.5 119t-118 78.5t-149.5 28.5t-149.5 -28.5t-118 -78.5t-77.5 -119t-28 -151t28 -151t77.5 -119.5t118 -78.5t149.5 -28t149.5 28t118 78.5t77.5 119.5t28 151zM892 306q0 -95 -33 -175t-91.5 -138.5t-138.5 -91.5t-174 -33q-95 0 -175 33
t-138.5 91.5t-91 138.5t-32.5 175q0 94 32.5 174.5t91 139t138.5 91.5t175 33q94 0 174 -33t138.5 -91.5t91.5 -139t33 -174.5zM421 100q-64 0 -100.5 31t-36.5 85v20q0 54 34.5 88t117.5 34h96v16q0 39 -16 56t-60 17q-35 0 -62.5 -11.5t-52.5 -28.5l-42 63q30 21 68.5 37
t89.5 16q70 0 115 -33.5t45 -96.5v-287h-81v49h-1q-5 -12 -14.5 -21t-18.5 -15q-16 -10 -34 -14.5t-47 -4.5zM532 285h-94q-38 0 -54 -13.5t-16 -41.5v-10q0 -23 16.5 -34.5t44.5 -11.5q29 0 48 6.5t35 20.5q14 12 17 26t3 37v21z" />
    <glyph glyph-name="uni24D1" unicode="&#x24d1;" 
d="M828 306q0 82 -28 151t-77.5 119t-118 78.5t-149.5 28.5t-149.5 -28.5t-118 -78.5t-77.5 -119t-28 -151t28 -151t77.5 -119.5t118 -78.5t149.5 -28t149.5 28t118 78.5t77.5 119.5t28 151zM892 306q0 -95 -33 -175t-91.5 -138.5t-138.5 -91.5t-174 -33q-95 0 -175 33
t-138.5 91.5t-91 138.5t-32.5 175q0 94 32.5 174.5t91 139t138.5 91.5t175 33q94 0 174 -33t138.5 -91.5t91.5 -139t33 -174.5zM385 82v-48h-83v567h86v-199q10 15 24 24.5t29 14.5t30.5 7t29.5 2q79 0 118.5 -45.5t39.5 -128.5v-72q0 -84 -44.5 -130t-117.5 -46
q-43 0 -71 16t-40 38h-1zM575 262q0 54 -21 84t-67 30t-73.5 -27t-27.5 -71v-92q0 -15 7.5 -29.5t21 -26.5t32 -19.5t40.5 -7.5q42 0 65 29.5t23 83.5v46z" />
    <glyph glyph-name="uni24D2" unicode="&#x24d2;" 
d="M828 306q0 82 -28 151t-77.5 119t-118 78.5t-149.5 28.5t-149.5 -28.5t-118 -78.5t-77.5 -119t-28 -151t28 -151t77.5 -119.5t118 -78.5t149.5 -28t149.5 28t118 78.5t77.5 119.5t28 151zM892 306q0 -95 -33 -175t-91.5 -138.5t-138.5 -91.5t-174 -33q-95 0 -175 33
t-138.5 91.5t-91 138.5t-32.5 175q0 94 32.5 174.5t91 139t138.5 91.5t175 33q94 0 174 -33t138.5 -91.5t91.5 -139t33 -174.5zM462 516q55 0 87.5 -14t57.5 -33l-41 -64q-29 21 -51.5 28t-52.5 7q-16 0 -33 -5t-30.5 -17.5t-22 -33t-8.5 -51.5v-52q0 -33 9 -54.5t23 -34
t31 -18t32 -5.5q39 0 65 9.5t48 26.5l41 -65q-20 -18 -59 -32.5t-96 -14.5q-88 0 -134.5 49.5t-46.5 137.5v52q0 88 48.5 136t132.5 48z" />
    <glyph glyph-name="uni24D3" unicode="&#x24d3;" 
d="M828 306q0 82 -28 151t-77.5 119t-118 78.5t-149.5 28.5t-149.5 -28.5t-118 -78.5t-77.5 -119t-28 -151t28 -151t77.5 -119.5t118 -78.5t149.5 -28t149.5 28t118 78.5t77.5 119.5t28 151zM892 306q0 -95 -33 -175t-91.5 -138.5t-138.5 -91.5t-174 -33q-95 0 -175 33
t-138.5 91.5t-91 138.5t-32.5 175q0 94 32.5 174.5t91 139t138.5 91.5t175 33q94 0 174 -33t138.5 -91.5t91.5 -139t33 -174.5zM533 91h-2q-17 -31 -47 -43t-70 -12q-78 0 -117.5 45t-39.5 128v73q0 83 44.5 129.5t117.5 46.5q48 0 73.5 -15.5t35.5 -29.5v196h86v-567h-81
v49zM341 224q0 -54 23 -83.5t65 -29.5t71.5 28t29.5 73v91q0 15 -7 29t-19.5 25.5t-31.5 18.5t-43 7q-42 0 -65 -30t-23 -83v-46z" />
    <glyph glyph-name="uni24D4" unicode="&#x24d4;" 
d="M828 306q0 82 -28 151t-77.5 119t-118 78.5t-149.5 28.5t-149.5 -28.5t-118 -78.5t-77.5 -119t-28 -151t28 -151t77.5 -119.5t118 -78.5t149.5 -28t149.5 28t118 78.5t77.5 119.5t28 151zM892 306q0 -95 -33 -175t-91.5 -138.5t-138.5 -91.5t-174 -33q-95 0 -175 33
t-138.5 91.5t-91 138.5t-32.5 175q0 94 32.5 174.5t91 139t138.5 91.5t175 33q94 0 174 -33t138.5 -91.5t91.5 -139t33 -174.5zM551 343v13q0 37 -24 63t-69 26q-48 0 -73 -27.5t-25 -66.5v-8h191zM623 142q-29 -19 -67.5 -32.5t-96.5 -13.5q-36 0 -69 9.5t-58.5 32
t-40.5 58.5t-15 89v43q0 48 14.5 84t39 59.5t57.5 35t71 11.5q39 0 71 -12t55 -35t35.5 -56.5t12.5 -77.5v-63h-272q-1 -52 29.5 -78.5t74.5 -26.5q38 0 66 9t57 28z" />
    <glyph glyph-name="uni24D5" unicode="&#x24d5;" 
d="M828 306q0 82 -28 151t-77.5 119t-118 78.5t-149.5 28.5t-149.5 -28.5t-118 -78.5t-77.5 -119t-28 -151t28 -151t77.5 -119.5t118 -78.5t149.5 -28t149.5 28t118 78.5t77.5 119.5t28 151zM892 306q0 -95 -33 -175t-91.5 -138.5t-138.5 -91.5t-174 -33q-95 0 -175 33
t-138.5 91.5t-91 138.5t-32.5 175q0 94 32.5 174.5t91 139t138.5 91.5t175 33q94 0 174 -33t138.5 -91.5t91.5 -139t33 -174.5zM389 352h-66v73h66v43q0 59 33 90.5t94 31.5q23 0 43.5 -3t33.5 -8l-14 -70q-30 8 -54 8q-20 0 -35 -10.5t-15 -42.5v-39h104v-73h-104v-334h-86
v334z" />
    <glyph glyph-name="uni24D6" unicode="&#x24d6;" 
d="M828 306q0 82 -28 151t-77.5 119t-118 78.5t-149.5 28.5t-149.5 -28.5t-118 -78.5t-77.5 -119t-28 -151t28 -151t77.5 -119.5t118 -78.5t149.5 -28t149.5 28t118 78.5t77.5 119.5t28 151zM892 306q0 -95 -33 -175t-91.5 -138.5t-138.5 -91.5t-174 -33q-95 0 -175 33
t-138.5 91.5t-91 138.5t-32.5 175q0 94 32.5 174.5t91 139t138.5 91.5t175 33q94 0 174 -33t138.5 -91.5t91.5 -139t33 -174.5zM542 218q-17 -28 -46.5 -38.5t-67.5 -10.5q-82 0 -119.5 44.5t-37.5 128.5v66q0 83 44.5 129.5t117.5 46.5q48 0 73 -15.5t36 -29.5v38h86v-404
q0 -88 -45.5 -130.5t-142.5 -42.5q-41 0 -77.5 12.5t-62.5 31.5l39 68q20 -14 47 -24.5t54 -10.5q102 0 102 93v48zM355 357q0 -54 23 -84t65 -30t71 28t29 73v86q0 15 -7 29t-20 25t-31.5 17.5t-41.5 6.5q-42 0 -65 -29.5t-23 -82.5v-39z" />
    <glyph glyph-name="uni24D7" unicode="&#x24d7;" 
d="M828 306q0 82 -28 151t-77.5 119t-118 78.5t-149.5 28.5t-149.5 -28.5t-118 -78.5t-77.5 -119t-28 -151t28 -151t77.5 -119.5t118 -78.5t149.5 -28t149.5 28t118 78.5t77.5 119.5t28 151zM892 306q0 -95 -33 -175t-91.5 -138.5t-138.5 -91.5t-174 -33q-95 0 -175 33
t-138.5 91.5t-91 138.5t-32.5 175q0 94 32.5 174.5t91 139t138.5 91.5t175 33q94 0 174 -33t138.5 -91.5t91.5 -139t33 -174.5zM505 445q26 0 51.5 -8t45 -26t31.5 -46.5t12 -68.5v-267h-85v249q0 28 -6 46t-16.5 28t-25 14t-32.5 4q-14 0 -30.5 -4.5t-30.5 -15.5
t-23.5 -29.5t-9.5 -46.5v-245h-86v567h86v-203q21 28 51 40t68 12z" />
    <glyph glyph-name="uni24D8" unicode="&#x24d8;" 
d="M828 306q0 82 -28 151t-77.5 119t-118 78.5t-149.5 28.5t-149.5 -28.5t-118 -78.5t-77.5 -119t-28 -151t28 -151t77.5 -119.5t118 -78.5t149.5 -28t149.5 28t118 78.5t77.5 119.5t28 151zM892 306q0 -95 -33 -175t-91.5 -138.5t-138.5 -91.5t-174 -33q-95 0 -175 33
t-138.5 91.5t-91 138.5t-32.5 175q0 94 32.5 174.5t91 139t138.5 91.5t175 33q94 0 174 -33t138.5 -91.5t91.5 -139t33 -174.5zM410 434h86v-408h-86v408zM408 587h90v-93h-90v93z" />
    <glyph glyph-name="uni24D9" unicode="&#x24d9;" 
d="M828 306q0 82 -28 151t-77.5 119t-118 78.5t-149.5 28.5t-149.5 -28.5t-118 -78.5t-77.5 -119t-28 -151t28 -151t77.5 -119.5t118 -78.5t149.5 -28t149.5 28t118 78.5t77.5 119.5t28 151zM892 306q0 -95 -33 -175t-91.5 -138.5t-138.5 -91.5t-174 -33q-95 0 -175 33
t-138.5 91.5t-91 138.5t-32.5 175q0 94 32.5 174.5t91 139t138.5 91.5t175 33q94 0 174 -33t138.5 -91.5t91.5 -139t33 -174.5zM435 588h90v-93h-90v93zM523 115q0 -59 -30.5 -90t-96.5 -31q-22 0 -42.5 3t-32.5 8l13 69q27 -7 53 -7q22 0 36 10.5t14 41.5v316h86v-320z" />
    <glyph glyph-name="uni24DA" unicode="&#x24da;" 
d="M828 306q0 82 -28 151t-77.5 119t-118 78.5t-149.5 28.5t-149.5 -28.5t-118 -78.5t-77.5 -119t-28 -151t28 -151t77.5 -119.5t118 -78.5t149.5 -28t149.5 28t118 78.5t77.5 119.5t28 151zM892 306q0 -95 -33 -175t-91.5 -138.5t-138.5 -91.5t-174 -33q-95 0 -175 33
t-138.5 91.5t-91 138.5t-32.5 175q0 94 32.5 174.5t91 139t138.5 91.5t175 33q94 0 174 -33t138.5 -91.5t91.5 -139t33 -174.5zM506 272l166 -241h-109l-116 179l-51 -53v-126h-85v567h85v-336l161 178h109z" />
    <glyph glyph-name="uni24DB" unicode="&#x24db;" 
d="M828 306q0 82 -28 151t-77.5 119t-118 78.5t-149.5 28.5t-149.5 -28.5t-118 -78.5t-77.5 -119t-28 -151t28 -151t77.5 -119.5t118 -78.5t149.5 -28t149.5 28t118 78.5t77.5 119.5t28 151zM892 306q0 -95 -33 -175t-91.5 -138.5t-138.5 -91.5t-174 -33q-95 0 -175 33
t-138.5 91.5t-91 138.5t-32.5 175q0 94 32.5 174.5t91 139t138.5 91.5t175 33q94 0 174 -33t138.5 -91.5t91.5 -139t33 -174.5zM411 590h86v-567h-86v567z" />
    <glyph glyph-name="uni24DC" unicode="&#x24dc;" 
d="M828 306q0 82 -28 151t-77.5 119t-118 78.5t-149.5 28.5t-149.5 -28.5t-118 -78.5t-77.5 -119t-28 -151t28 -151t77.5 -119.5t118 -78.5t149.5 -28t149.5 28t118 78.5t77.5 119.5t28 151zM892 306q0 -95 -33 -175t-91.5 -138.5t-138.5 -91.5t-174 -33q-95 0 -175 33
t-138.5 91.5t-91 138.5t-32.5 175q0 94 32.5 174.5t91 139t138.5 91.5t175 33q94 0 174 -33t138.5 -91.5t91.5 -139t33 -174.5zM611 512q58 0 94.5 -39t36.5 -114v-263h-86v238q0 57 -17 78.5t-52 21.5q-30 0 -53.5 -20t-23.5 -72v-246h-86v239q0 56 -18 77.5t-49 21.5
q-14 0 -28.5 -4t-25.5 -13.5t-18 -26t-7 -40.5v-254h-86v409h83v-55q12 29 38.5 45.5t65.5 16.5q40 0 67.5 -18t41.5 -46q17 27 47 45.5t76 18.5z" />
    <glyph glyph-name="uni24DD" unicode="&#x24dd;" 
d="M828 306q0 82 -28 151t-77.5 119t-118 78.5t-149.5 28.5t-149.5 -28.5t-118 -78.5t-77.5 -119t-28 -151t28 -151t77.5 -119.5t118 -78.5t149.5 -28t149.5 28t118 78.5t77.5 119.5t28 151zM892 306q0 -95 -33 -175t-91.5 -138.5t-138.5 -91.5t-174 -33q-95 0 -175 33
t-138.5 91.5t-91 138.5t-32.5 175q0 94 32.5 174.5t91 139t138.5 91.5t175 33q94 0 174 -33t138.5 -91.5t91.5 -139t33 -174.5zM498 512q26 0 51.5 -8t45 -26t31.5 -46.5t12 -68.5v-267h-85v249q0 28 -6 45.5t-16.5 27.5t-25 14t-32.5 4q-14 0 -30.5 -4.5t-30.5 -15
t-23.5 -29t-9.5 -46.5v-245h-86v409h82v-49q22 32 53 44t70 12z" />
    <glyph glyph-name="uni24DE" unicode="&#x24de;" 
d="M828 306q0 82 -28 151t-77.5 119t-118 78.5t-149.5 28.5t-149.5 -28.5t-118 -78.5t-77.5 -119t-28 -151t28 -151t77.5 -119.5t118 -78.5t149.5 -28t149.5 28t118 78.5t77.5 119.5t28 151zM892 306q0 -95 -33 -175t-91.5 -138.5t-138.5 -91.5t-174 -33q-95 0 -175 33
t-138.5 91.5t-91 138.5t-32.5 175q0 94 32.5 174.5t91 139t138.5 91.5t175 33q94 0 174 -33t138.5 -91.5t91.5 -139t33 -174.5zM456 519q86 0 137 -48t51 -138v-50q0 -90 -51 -138.5t-137 -48.5q-85 0 -136 48.5t-51 138.5v50q0 90 51 138t136 48zM456 171q49 0 75.5 29
t26.5 90v35q0 61 -26.5 90t-75.5 29q-48 0 -74.5 -29t-26.5 -90v-35q0 -61 26.5 -90t74.5 -29z" />
    <glyph glyph-name="uni24DF" unicode="&#x24df;" 
d="M828 306q0 82 -28 151t-77.5 119t-118 78.5t-149.5 28.5t-149.5 -28.5t-118 -78.5t-77.5 -119t-28 -151t28 -151t77.5 -119.5t118 -78.5t149.5 -28t149.5 28t118 78.5t77.5 119.5t28 151zM892 306q0 -95 -33 -175t-91.5 -138.5t-138.5 -91.5t-174 -33q-95 0 -175 33
t-138.5 91.5t-91 138.5t-32.5 175q0 94 32.5 174.5t91 139t138.5 91.5t175 33q94 0 174 -33t138.5 -91.5t91.5 -139t33 -174.5zM501 154q-39 0 -66 14.5t-41 33.5v-202h-86v568h83v-46q17 29 49.5 41.5t67.5 12.5q81 0 119 -47.5t38 -126.5v-72q0 -86 -44 -131t-120 -45z
M581 388q0 54 -23 84t-65 30q-46 0 -73.5 -27t-27.5 -71v-92q0 -15 7.5 -29.5t21 -26.5t32 -19.5t40.5 -7.5q42 0 65 29.5t23 83.5v46z" />
    <glyph glyph-name="uni24E0" unicode="&#x24e0;" 
d="M828 306q0 82 -28 151t-77.5 119t-118 78.5t-149.5 28.5t-149.5 -28.5t-118 -78.5t-77.5 -119t-28 -151t28 -151t77.5 -119.5t118 -78.5t149.5 -28t149.5 28t118 78.5t77.5 119.5t28 151zM892 306q0 -95 -33 -175t-91.5 -138.5t-138.5 -91.5t-174 -33q-95 0 -175 33
t-138.5 91.5t-91 138.5t-32.5 175q0 94 32.5 174.5t91 139t138.5 91.5t175 33q94 0 174 -33t138.5 -91.5t91.5 -139t33 -174.5zM520 204q-16 -26 -46.5 -38t-67.5 -12q-80 0 -118.5 45t-38.5 128v73q0 83 44.5 129.5t117.5 46.5q48 0 73 -15.5t36 -29.5v37h86v-568h-86v204z
M333 342q0 -54 23 -83.5t65 -29.5t71.5 28t29.5 73v93q0 15 -7 29t-19.5 25t-31.5 17.5t-43 6.5q-42 0 -65 -30t-23 -83v-46z" />
    <glyph glyph-name="uni24E1" unicode="&#x24e1;" 
d="M828 306q0 82 -28 151t-77.5 119t-118 78.5t-149.5 28.5t-149.5 -28.5t-118 -78.5t-77.5 -119t-28 -151t28 -151t77.5 -119.5t118 -78.5t149.5 -28t149.5 28t118 78.5t77.5 119.5t28 151zM892 306q0 -95 -33 -175t-91.5 -138.5t-138.5 -91.5t-174 -33q-95 0 -175 33
t-138.5 91.5t-91 138.5t-32.5 175q0 94 32.5 174.5t91 139t138.5 91.5t175 33q94 0 174 -33t138.5 -91.5t91.5 -139t33 -174.5zM597 412q-10 5 -21.5 8t-28.5 3q-18 0 -35 -7t-30 -19.5t-21 -30t-8 -38.5v-242h-86v408h83v-60q22 37 50 52.5t72 15.5q12 0 25.5 -2t24.5 -6z
" />
    <glyph glyph-name="uni24E2" unicode="&#x24e2;" 
d="M828 306q0 82 -28 151t-77.5 119t-118 78.5t-149.5 28.5t-149.5 -28.5t-118 -78.5t-77.5 -119t-28 -151t28 -151t77.5 -119.5t118 -78.5t149.5 -28t149.5 28t118 78.5t77.5 119.5t28 151zM892 306q0 -95 -33 -175t-91.5 -138.5t-138.5 -91.5t-174 -33q-95 0 -175 33
t-138.5 91.5t-91 138.5t-32.5 175q0 94 32.5 174.5t91 139t138.5 91.5t175 33q94 0 174 -33t138.5 -91.5t91.5 -139t33 -174.5zM455 168q35 0 55 11t20 34v5q0 11 -2.5 18.5t-10.5 13t-25 10.5t-45 11q-36 7 -62.5 17t-44.5 24.5t-27 35.5t-9 50v8q0 21 9 41t27.5 36
t48 25.5t70.5 9.5q38 0 77.5 -8t73.5 -31l-40 -64q-18 14 -46.5 22t-54.5 8q-45 0 -62.5 -11t-17.5 -29v-6q0 -22 16.5 -31.5t63.5 -18.5q73 -14 110.5 -41t37.5 -88v-8q0 -24 -11 -45.5t-31 -37t-50 -25t-67 -9.5q-52 0 -94 13t-74 37l38 67q27 -18 58 -31t69 -13z" />
    <glyph glyph-name="uni24E3" unicode="&#x24e3;" 
d="M828 306q0 82 -28 151t-77.5 119t-118 78.5t-149.5 28.5t-149.5 -28.5t-118 -78.5t-77.5 -119t-28 -151t28 -151t77.5 -119.5t118 -78.5t149.5 -28t149.5 28t118 78.5t77.5 119.5t28 151zM892 306q0 -95 -33 -175t-91.5 -138.5t-138.5 -91.5t-174 -33q-95 0 -175 33
t-138.5 91.5t-91 138.5t-32.5 175q0 94 32.5 174.5t91 139t138.5 91.5t175 33q94 0 174 -33t138.5 -91.5t91.5 -139t33 -174.5zM380 391h-65v74h65v102h85v-102h105v-74h-105v-219q0 -18 4.5 -27.5t11.5 -14t15.5 -5t17.5 -0.5q27 0 52 11l13 -69q-13 -5 -34 -10.5t-46 -5.5
q-62 0 -90.5 28t-28.5 87v225z" />
    <glyph glyph-name="uni24E4" unicode="&#x24e4;" 
d="M828 306q0 82 -28 151t-77.5 119t-118 78.5t-149.5 28.5t-149.5 -28.5t-118 -78.5t-77.5 -119t-28 -151t28 -151t77.5 -119.5t118 -78.5t149.5 -28t149.5 28t118 78.5t77.5 119.5t28 151zM892 306q0 -95 -33 -175t-91.5 -138.5t-138.5 -91.5t-174 -33q-95 0 -175 33
t-138.5 91.5t-91 138.5t-32.5 175q0 94 32.5 174.5t91 139t138.5 91.5t175 33q94 0 174 -33t138.5 -91.5t91.5 -139t33 -174.5zM424 81q-26 0 -51.5 8t-45.5 26t-32.5 46t-12.5 68v269h86v-250q0 -28 6 -46t16.5 -28t25.5 -14t33 -4q13 0 29 4.5t30 15.5t23 29.5t9 46.5v246
h86v-409h-82v48q-23 -31 -52.5 -43.5t-67.5 -12.5z" />
    <glyph glyph-name="uni24E5" unicode="&#x24e5;" 
d="M828 306q0 82 -28 151t-77.5 119t-118 78.5t-149.5 28.5t-149.5 -28.5t-118 -78.5t-77.5 -119t-28 -151t28 -151t77.5 -119.5t118 -78.5t149.5 -28t149.5 28t118 78.5t77.5 119.5t28 151zM892 306q0 -95 -33 -175t-91.5 -138.5t-138.5 -91.5t-174 -33q-95 0 -175 33
t-138.5 91.5t-91 138.5t-32.5 175q0 94 32.5 174.5t91 139t138.5 91.5t175 33q94 0 174 -33t138.5 -91.5t91.5 -139t33 -174.5zM404 82l-133 405h93l97 -328h3l98 328h90l-134 -405h-114z" />
    <glyph glyph-name="uni24E6" unicode="&#x24e6;" 
d="M828 306q0 82 -28 151t-77.5 119t-118 78.5t-149.5 28.5t-149.5 -28.5t-118 -78.5t-77.5 -119t-28 -151t28 -151t77.5 -119.5t118 -78.5t149.5 -28t149.5 28t118 78.5t77.5 119.5t28 151zM892 306q0 -95 -33 -175t-91.5 -138.5t-138.5 -91.5t-174 -33q-95 0 -175 33
t-138.5 91.5t-91 138.5t-32.5 175q0 94 32.5 174.5t91 139t138.5 91.5t175 33q94 0 174 -33t138.5 -91.5t91.5 -139t33 -174.5zM287 82l-103 405h91l65 -315h2l79 315h83l75 -315h2l69 315h85l-101 -405h-102l-71 293h-2l-72 -293h-100z" />
    <glyph glyph-name="uni24E7" unicode="&#x24e7;" 
d="M828 306q0 82 -28 151t-77.5 119t-118 78.5t-149.5 28.5t-149.5 -28.5t-118 -78.5t-77.5 -119t-28 -151t28 -151t77.5 -119.5t118 -78.5t149.5 -28t149.5 28t118 78.5t77.5 119.5t28 151zM892 306q0 -95 -33 -175t-91.5 -138.5t-138.5 -91.5t-174 -33q-95 0 -175 33
t-138.5 91.5t-91 138.5t-32.5 175q0 94 32.5 174.5t91 139t138.5 91.5t175 33q94 0 174 -33t138.5 -91.5t91.5 -139t33 -174.5zM512 303l129 -210h-105l-81 152l-83 -152h-99l131 210l-126 195h106l77 -140l80 140h96z" />
    <glyph glyph-name="uni24E8" unicode="&#x24e8;" 
d="M828 306q0 82 -28 151t-77.5 119t-118 78.5t-149.5 28.5t-149.5 -28.5t-118 -78.5t-77.5 -119t-28 -151t28 -151t77.5 -119.5t118 -78.5t149.5 -28t149.5 28t118 78.5t77.5 119.5t28 151zM892 306q0 -95 -33 -175t-91.5 -138.5t-138.5 -91.5t-174 -33q-95 0 -175 33
t-138.5 91.5t-91 138.5t-32.5 175q0 94 32.5 174.5t91 139t138.5 91.5t175 33q94 0 174 -33t138.5 -91.5t91.5 -139t33 -174.5zM368 555l96 -301h6l99 301h89l-215 -573l-79 27l55 142l-146 404h95z" />
    <glyph glyph-name="uni24E9" unicode="&#x24e9;" 
d="M828 306q0 82 -28 151t-77.5 119t-118 78.5t-149.5 28.5t-149.5 -28.5t-118 -78.5t-77.5 -119t-28 -151t28 -151t77.5 -119.5t118 -78.5t149.5 -28t149.5 28t118 78.5t77.5 119.5t28 151zM892 306q0 -95 -33 -175t-91.5 -138.5t-138.5 -91.5t-174 -33q-95 0 -175 33
t-138.5 91.5t-91 138.5t-32.5 175q0 94 32.5 174.5t91 139t138.5 91.5t175 33q94 0 174 -33t138.5 -91.5t91.5 -139t33 -174.5zM614 438l-210 -265h221v-75h-333v60l217 272h-202v77h307v-69z" />
    <glyph glyph-name="uni24EB" unicode="&#x24eb;" horiz-adv-x="940" 
 />
    <glyph glyph-name="uni24EC" unicode="&#x24ec;" horiz-adv-x="940" 
 />
    <glyph glyph-name="uni24ED" unicode="&#x24ed;" horiz-adv-x="940" 
 />
    <glyph glyph-name="uni24EE" unicode="&#x24ee;" horiz-adv-x="940" 
 />
    <glyph glyph-name="uni24EF" unicode="&#x24ef;" horiz-adv-x="940" 
 />
    <glyph glyph-name="uni24F0" unicode="&#x24f0;" horiz-adv-x="940" 
 />
    <glyph glyph-name="uni24F1" unicode="&#x24f1;" horiz-adv-x="940" 
 />
    <glyph glyph-name="uni24F2" unicode="&#x24f2;" horiz-adv-x="940" 
 />
    <glyph glyph-name="uni24F3" unicode="&#x24f3;" horiz-adv-x="940" 
 />
    <glyph glyph-name="uni24F4" unicode="&#x24f4;" horiz-adv-x="940" 
 />
    <glyph glyph-name="SF100000" unicode="&#x2500;" horiz-adv-x="920" 
d="M920 286h-920v29h920v-29z" />
    <glyph glyph-name="uni2501" unicode="&#x2501;" horiz-adv-x="920" 
d="M920 271h-920v54h920v-54z" />
    <glyph glyph-name="SF110000" unicode="&#x2502;" horiz-adv-x="920" 
d="M475 -200h-29v1000h29v-1000z" />
    <glyph glyph-name="uni2503" unicode="&#x2503;" horiz-adv-x="920" 
d="M487 -200h-54v1000h54v-1000z" />
    <glyph glyph-name="SF010000" unicode="&#x250c;" horiz-adv-x="920" 
d="M920 286h-445v-486h-29v515h474v-29z" />
    <glyph glyph-name="uni250D" unicode="&#x250d;" horiz-adv-x="920" 
d="M920 264h-441v-464h-38v536h479v-72z" />
    <glyph glyph-name="uni250E" unicode="&#x250e;" horiz-adv-x="920" 
d="M920 282h-422v-482h-76v518h498v-36z" />
    <glyph glyph-name="uni250F" unicode="&#x250f;" horiz-adv-x="920" 
d="M920 271h-433v-471h-54v525h487v-54z" />
    <glyph glyph-name="SF030000" unicode="&#x2510;" horiz-adv-x="920" 
d="M475 -200h-29v486h-446v29h475v-515z" />
    <glyph glyph-name="uni2511" unicode="&#x2511;" horiz-adv-x="920" 
d="M479 -200h-38v464h-441v72h479v-536z" />
    <glyph glyph-name="uni2512" unicode="&#x2512;" horiz-adv-x="920" 
d="M498 -200h-76v482h-422v36h498v-518z" />
    <glyph glyph-name="uni2513" unicode="&#x2513;" horiz-adv-x="920" 
d="M487 -200h-54v471h-433v54h487v-525z" />
    <glyph glyph-name="SF020000" unicode="&#x2514;" horiz-adv-x="920" 
d="M920 286h-474v514h29v-485h445v-29z" />
    <glyph glyph-name="uni2515" unicode="&#x2515;" horiz-adv-x="920" 
d="M920 264h-479v536h38v-464h441v-72z" />
    <glyph glyph-name="uni2516" unicode="&#x2516;" horiz-adv-x="920" 
d="M920 282h-498v518h76v-482h422v-36z" />
    <glyph glyph-name="uni2517" unicode="&#x2517;" horiz-adv-x="920" 
d="M920 271h-487v529h54v-475h433v-54z" />
    <glyph glyph-name="SF040000" unicode="&#x2518;" horiz-adv-x="920" 
d="M475 286h-475v29h446v485h29v-514z" />
    <glyph glyph-name="uni2519" unicode="&#x2519;" horiz-adv-x="920" 
d="M479 264h-479v72h441v464h38v-536z" />
    <glyph glyph-name="uni251A" unicode="&#x251a;" horiz-adv-x="920" 
d="M498 282h-498v36h422v482h76v-518z" />
    <glyph glyph-name="uni251B" unicode="&#x251b;" horiz-adv-x="920" 
d="M487 271h-487v54h433v475h54v-529z" />
    <glyph glyph-name="SF080000" unicode="&#x251c;" horiz-adv-x="920" 
d="M920 286h-445v-486h-29v1000h29v-485h445v-29z" />
    <glyph glyph-name="uni251D" unicode="&#x251d;" horiz-adv-x="920" 
d="M920 264h-441v-464h-38v1000h38v-464h441v-72z" />
    <glyph glyph-name="uni251E" unicode="&#x251e;" horiz-adv-x="920" 
d="M920 282h-442l1 -482h-38v500h-19v500h76v-482h422v-36z" />
    <glyph glyph-name="uni251F" unicode="&#x251f;" horiz-adv-x="920" 
d="M920 282h-422v-482h-76v500h19v500h38v-482h441v-36z" />
    <glyph glyph-name="uni2520" unicode="&#x2520;" horiz-adv-x="920" 
d="M920 282h-423v-482h-76v1000h76v-482h423v-36z" />
    <glyph glyph-name="uni2521" unicode="&#x2521;" horiz-adv-x="920" 
d="M920 264h-441v-464h-38v500h-19v500h76v-464h422v-72z" />
    <glyph glyph-name="uni2522" unicode="&#x2522;" horiz-adv-x="920" 
d="M920 264h-422v-464h-76v500h19v500h38v-464h441v-72z" />
    <glyph glyph-name="uni2523" unicode="&#x2523;" horiz-adv-x="920" 
d="M920 271h-433v-471h-54v1000h54v-475h433v-54z" />
    <glyph glyph-name="SF090000" unicode="&#x2524;" horiz-adv-x="920" 
d="M475 -200h-29v486h-446v29h446v485h29v-1000z" />
    <glyph glyph-name="uni2525" unicode="&#x2525;" horiz-adv-x="920" 
d="M479 -200h-38v464h-441v72h441v464h38v-1000z" />
    <glyph glyph-name="uni2526" unicode="&#x2526;" horiz-adv-x="920" 
d="M498 300h-19v-500h-38v482h-441v36h422v482h76v-500z" />
    <glyph glyph-name="uni2527" unicode="&#x2527;" horiz-adv-x="920" 
d="M498 -200h-76v482h-422v36h441v482h38v-500h19v-500z" />
    <glyph glyph-name="uni2528" unicode="&#x2528;" horiz-adv-x="920" 
d="M498 -200h-76v482h-422v36h422v482h76v-1000z" />
    <glyph glyph-name="uni2529" unicode="&#x2529;" horiz-adv-x="920" 
d="M498 300h-19v-500h-38v464h-441v72h422v464h76v-500z" />
    <glyph glyph-name="uni252A" unicode="&#x252a;" horiz-adv-x="920" 
d="M498 -200h-76v464h-422v72h441v464h38v-500h19v-500z" />
    <glyph glyph-name="uni252B" unicode="&#x252b;" horiz-adv-x="920" 
d="M487 -200h-54v471h-433v54h433v475h54v-1000z" />
    <glyph glyph-name="SF060000" unicode="&#x252c;" horiz-adv-x="920" 
d="M920 286h-445v-486h-29v486h-446v29h920v-29z" />
    <glyph glyph-name="uni252D" unicode="&#x252d;" horiz-adv-x="920" 
d="M920 282h-441v-482h-38v464h-441v72h460v-18h460v-36z" />
    <glyph glyph-name="uni252E" unicode="&#x252e;" horiz-adv-x="920" 
d="M920 264h-441v-464h-38v482h-441v36h460v18h460v-72z" />
    <glyph glyph-name="uni252F" unicode="&#x252f;" horiz-adv-x="920" 
d="M920 264h-441v-464h-38v464h-441v72h920v-72z" />
    <glyph glyph-name="uni2530" unicode="&#x2530;" horiz-adv-x="920" 
d="M920 282h-422v-482h-76v482h-422v36h920v-36z" />
    <glyph glyph-name="uni2531" unicode="&#x2531;" horiz-adv-x="920" 
d="M920 282h-422v-482h-76v464h-422v72h460v-18h460v-36z" />
    <glyph glyph-name="uni2532" unicode="&#x2532;" horiz-adv-x="920" 
d="M920 264h-422v-464h-76v482h-422v36h460v18h460v-72z" />
    <glyph glyph-name="uni2533" unicode="&#x2533;" horiz-adv-x="920" 
d="M920 271h-433v-471h-54v471h-433v54h920v-54z" />
    <glyph glyph-name="SF070000" unicode="&#x2534;" horiz-adv-x="920" 
d="M920 286h-920v29h446v485h29v-485h445v-29z" />
    <glyph glyph-name="uni2535" unicode="&#x2535;" horiz-adv-x="920" 
d="M920 282h-460v-18h-460v72h441v464h38v-482h441v-36z" />
    <glyph glyph-name="uni2536" unicode="&#x2536;" horiz-adv-x="920" 
d="M920 264h-460v18h-460v36h441v482h38v-464h441v-72z" />
    <glyph glyph-name="uni2537" unicode="&#x2537;" horiz-adv-x="920" 
d="M920 264h-920v72h441v464h38v-464h441v-72z" />
    <glyph glyph-name="uni2538" unicode="&#x2538;" horiz-adv-x="920" 
d="M920 282h-920v36h422v482h76v-482h422v-36z" />
    <glyph glyph-name="uni2539" unicode="&#x2539;" horiz-adv-x="920" 
d="M920 282h-460v-18h-460v72h422v464h76v-482h422v-36z" />
    <glyph glyph-name="uni253A" unicode="&#x253a;" horiz-adv-x="920" 
d="M920 264h-460v18h-460v36h422v482h76v-464h422v-72z" />
    <glyph glyph-name="uni253B" unicode="&#x253b;" horiz-adv-x="920" 
d="M920 271h-920v54h433v475h54v-475h433v-54z" />
    <glyph glyph-name="SF050000" unicode="&#x253c;" horiz-adv-x="920" 
d="M920 285h-445v-485h-29v485h-446v29h446v486h29v-486h445v-29z" />
    <glyph glyph-name="uni253D" unicode="&#x253d;" horiz-adv-x="920" 
d="M920 282h-441v-482h-38v464h-441v76h441v460h38v-482h441v-36z" />
    <glyph glyph-name="uni253E" unicode="&#x253e;" horiz-adv-x="920" 
d="M920 264h-441v-464h-38v482h-441v36h441v482h38v-464h441v-72z" />
    <glyph glyph-name="uni253F" unicode="&#x253f;" horiz-adv-x="920" 
d="M920 264h-441v-464h-38v464h-441v72h441v464h38v-464h441v-72z" />
    <glyph glyph-name="uni2540" unicode="&#x2540;" horiz-adv-x="920" 
d="M920 282h-441v-482h-38v482h-441v36h422v482h76v-482h422v-36z" />
    <glyph glyph-name="uni2541" unicode="&#x2541;" horiz-adv-x="920" 
d="M920 282h-422v-482h-76v482h-422v36h441v482h38v-482h441v-36z" />
    <glyph glyph-name="uni2542" unicode="&#x2542;" horiz-adv-x="920" 
d="M920 282h-422v-482h-76v482h-422v36h422v482h76v-482h422v-36z" />
    <glyph glyph-name="uni2543" unicode="&#x2543;" horiz-adv-x="920" 
d="M920 282h-441v-482h-38v464h-441v72h422v464h76v-482h422v-36z" />
    <glyph glyph-name="uni2544" unicode="&#x2544;" horiz-adv-x="920" 
d="M920 264h-441v-464h-38v482h-441v36h422v482h76v-464h422v-72z" />
    <glyph glyph-name="uni2545" unicode="&#x2545;" horiz-adv-x="920" 
d="M920 282h-422v-482h-76v464h-422v72h441v464h38v-482h441v-36z" />
    <glyph glyph-name="uni2546" unicode="&#x2546;" horiz-adv-x="920" 
d="M920 264h-422v-464h-76v482h-422v36h441v482h38v-464h441v-72z" />
    <glyph glyph-name="uni2547" unicode="&#x2547;" horiz-adv-x="920" 
d="M920 264h-441v-464h-38v464h-441v72h422v464h76v-464h422v-72z" />
    <glyph glyph-name="uni2548" unicode="&#x2548;" horiz-adv-x="920" 
d="M920 264h-422v-464h-76v464h-422v72h441v464h38v-464h441v-72z" />
    <glyph glyph-name="uni2549" unicode="&#x2549;" horiz-adv-x="920" 
d="M920 282h-422v-482h-76v464h-422v72h422v464h76v-482h422v-36z" />
    <glyph glyph-name="uni254A" unicode="&#x254a;" horiz-adv-x="920" 
d="M920 264h-422v-464h-76v482h-422v36h422v482h76v-464h422v-72z" />
    <glyph glyph-name="uni254B" unicode="&#x254b;" horiz-adv-x="920" 
d="M920 271h-433v-471h-54v471h-433v54h433v475h54v-475h433v-54z" />
    <glyph glyph-name="shade" unicode="&#x2592;" 
d="M827 -74h-744v743h744v-743zM794 -41v677h-678v-677h678zM762 581q0 -11 -7.5 -18t-18.5 -7q-25 0 -25 25q0 11 7 18.5t18 7.5t18.5 -7.5t7.5 -18.5zM668 581q0 -25 -25 -25t-25 25q0 11 7 18.5t18 7.5t18 -7.5t7 -18.5zM762 487q0 -10 -7.5 -17t-18.5 -7t-18 7t-7 17
q0 11 7 18.5t18 7.5t18.5 -7.5t7.5 -18.5zM668 487q0 -10 -7 -17t-18 -7t-18 7t-7 17q0 11 7 18.5t18 7.5t18 -7.5t7 -18.5zM575 581q0 -11 -7.5 -18t-18.5 -7t-18.5 7t-7.5 18t7.5 18.5t18.5 7.5t18.5 -7.5t7.5 -18.5zM762 394q0 -11 -7.5 -18.5t-18.5 -7.5t-18 7.5
t-7 18.5t7 18.5t18 7.5t18.5 -7.5t7.5 -18.5zM575 487q0 -10 -7.5 -17t-18.5 -7t-18.5 7t-7.5 17q0 11 7.5 18.5t18.5 7.5t18.5 -7.5t7.5 -18.5zM668 394q0 -11 -7 -18.5t-18 -7.5t-18 7.5t-7 18.5t7 18.5t18 7.5t18 -7.5t7 -18.5zM480 581q0 -25 -25 -25q-10 0 -17.5 7
t-7.5 18t7.5 18.5t17.5 7.5q11 0 18 -7.5t7 -18.5zM762 300q0 -10 -7.5 -17.5t-18.5 -7.5t-18 7.5t-7 17.5q0 25 25 25q11 0 18.5 -7t7.5 -18zM480 487q0 -10 -7 -17t-18 -7q-10 0 -17.5 7t-7.5 17q0 11 7.5 18.5t17.5 7.5q11 0 18 -7.5t7 -18.5zM575 394q0 -11 -7.5 -18.5
t-18.5 -7.5t-18.5 7.5t-7.5 18.5t7.5 18.5t18.5 7.5t18.5 -7.5t7.5 -18.5zM668 300q0 -10 -7 -17.5t-18 -7.5t-18 7.5t-7 17.5q0 25 25 25t25 -25zM387 581q0 -11 -7.5 -18t-18.5 -7q-25 0 -25 25q0 11 7 18.5t18 7.5t18.5 -7.5t7.5 -18.5zM762 206q0 -11 -7.5 -18.5
t-18.5 -7.5t-18 7.5t-7 18.5t7 18.5t18 7.5t18.5 -7.5t7.5 -18.5zM387 487q0 -10 -7.5 -17t-18.5 -7t-18 7t-7 17q0 11 7 18.5t18 7.5t18.5 -7.5t7.5 -18.5zM480 394q0 -11 -7 -18.5t-18 -7.5q-10 0 -17.5 7.5t-7.5 18.5t7.5 18.5t17.5 7.5q11 0 18 -7.5t7 -18.5zM575 300
q0 -10 -7.5 -17.5t-18.5 -7.5t-18.5 7.5t-7.5 17.5q0 11 7.5 18t18.5 7t18.5 -7t7.5 -18zM668 206q0 -11 -7 -18.5t-18 -7.5t-18 7.5t-7 18.5t7 18.5t18 7.5t18 -7.5t7 -18.5zM293 581q0 -11 -7.5 -18t-17.5 -7q-11 0 -18.5 7t-7.5 18t7.5 18.5t18.5 7.5q10 0 17.5 -7.5
t7.5 -18.5zM762 113q0 -11 -7.5 -18.5t-18.5 -7.5t-18 7.5t-7 18.5q0 10 7 17t18 7t18.5 -7t7.5 -17zM199 581q0 -25 -24 -25q-11 0 -18.5 7t-7.5 18t7.5 18.5t18.5 7.5t17.5 -7.5t6.5 -18.5zM293 487q0 -10 -7.5 -17t-17.5 -7q-11 0 -18.5 7t-7.5 17q0 11 7.5 18.5
t18.5 7.5q10 0 17.5 -7.5t7.5 -18.5zM387 394q0 -11 -7.5 -18.5t-18.5 -7.5t-18 7.5t-7 18.5t7 18.5t18 7.5t18.5 -7.5t7.5 -18.5zM480 300q0 -10 -7 -17.5t-18 -7.5q-10 0 -17.5 7.5t-7.5 17.5q0 11 7.5 18t17.5 7q25 0 25 -25zM575 206q0 -11 -7.5 -18.5t-18.5 -7.5
t-18.5 7.5t-7.5 18.5t7.5 18.5t18.5 7.5t18.5 -7.5t7.5 -18.5zM668 113q0 -11 -7 -18.5t-18 -7.5t-18 7.5t-7 18.5q0 10 7 17t18 7t18 -7t7 -17zM762 19q0 -11 -7.5 -18.5t-18.5 -7.5t-18 7.5t-7 18.5q0 25 25 25q11 0 18.5 -7t7.5 -18zM199 487q0 -10 -6.5 -17t-17.5 -7
t-18.5 7t-7.5 17q0 11 7.5 18.5t18.5 7.5t17.5 -7.5t6.5 -18.5zM668 19q0 -11 -7 -18.5t-18 -7.5t-18 7.5t-7 18.5q0 25 25 25t25 -25zM293 394q0 -11 -7.5 -18.5t-17.5 -7.5q-11 0 -18.5 7.5t-7.5 18.5t7.5 18.5t18.5 7.5q10 0 17.5 -7.5t7.5 -18.5zM387 300
q0 -10 -7.5 -17.5t-18.5 -7.5t-18 7.5t-7 17.5q0 25 25 25q11 0 18.5 -7t7.5 -18zM480 206q0 -11 -7 -18.5t-18 -7.5q-10 0 -17.5 7.5t-7.5 18.5t7.5 18.5t17.5 7.5q11 0 18 -7.5t7 -18.5zM575 113q0 -11 -7.5 -18.5t-18.5 -7.5t-18.5 7.5t-7.5 18.5q0 10 7.5 17t18.5 7
t18.5 -7t7.5 -17zM199 394q0 -11 -6.5 -18.5t-17.5 -7.5t-18.5 7.5t-7.5 18.5t7.5 18.5t18.5 7.5t17.5 -7.5t6.5 -18.5zM575 19q0 -11 -7.5 -18.5t-18.5 -7.5t-18.5 7.5t-7.5 18.5t7.5 18t18.5 7t18.5 -7t7.5 -18zM293 300q0 -10 -7.5 -17.5t-17.5 -7.5q-11 0 -18.5 7.5
t-7.5 17.5q0 11 7.5 18t18.5 7q10 0 17.5 -7t7.5 -18zM387 206q0 -11 -7.5 -18.5t-18.5 -7.5t-18 7.5t-7 18.5t7 18.5t18 7.5t18.5 -7.5t7.5 -18.5zM480 113q0 -11 -7 -18.5t-18 -7.5q-10 0 -17.5 7.5t-7.5 18.5q0 10 7.5 17t17.5 7q11 0 18 -7t7 -17zM199 300
q0 -10 -6.5 -17.5t-17.5 -7.5t-18.5 7.5t-7.5 17.5q0 11 7.5 18t18.5 7q24 0 24 -25zM480 19q0 -11 -7 -18.5t-18 -7.5q-10 0 -17.5 7.5t-7.5 18.5t7.5 18t17.5 7q25 0 25 -25zM293 206q0 -11 -7.5 -18.5t-17.5 -7.5q-11 0 -18.5 7.5t-7.5 18.5t7.5 18.5t18.5 7.5
q10 0 17.5 -7.5t7.5 -18.5zM387 113q0 -11 -7.5 -18.5t-18.5 -7.5t-18 7.5t-7 18.5q0 10 7 17t18 7t18.5 -7t7.5 -17zM199 206q0 -11 -6.5 -18.5t-17.5 -7.5t-18.5 7.5t-7.5 18.5t7.5 18.5t18.5 7.5t17.5 -7.5t6.5 -18.5zM387 19q0 -11 -7.5 -18.5t-18.5 -7.5t-18 7.5
t-7 18.5q0 25 25 25q11 0 18.5 -7t7.5 -18zM293 113q0 -11 -7.5 -18.5t-17.5 -7.5q-11 0 -18.5 7.5t-7.5 18.5q0 10 7.5 17t18.5 7q10 0 17.5 -7t7.5 -17zM199 113q0 -11 -6.5 -18.5t-17.5 -7.5t-18.5 7.5t-7.5 18.5q0 10 7.5 17t18.5 7t17.5 -7t6.5 -17zM293 19
q0 -11 -7.5 -18.5t-17.5 -7.5q-11 0 -18.5 7.5t-7.5 18.5t7.5 18t18.5 7q10 0 17.5 -7t7.5 -18zM199 19q0 -11 -6.5 -18.5t-17.5 -7.5t-18.5 7.5t-7.5 18.5t7.5 18t18.5 7q24 0 24 -25z" />
    <glyph glyph-name="filledbox" unicode="&#x25a0;" 
d="M107 -14v694h695v-694h-695z" />
    <glyph glyph-name="H22073" unicode="&#x25a1;" 
d="M172 617v-566h567v566h-567zM108 680h694v-694h-694v694z" />
    <glyph glyph-name="uni25A3" unicode="&#x25a3;" 
d="M830 -78h-751v750h751v-750zM785 -33v660h-661v-660h661zM682 69h-455v455h455v-455z" />
    <glyph glyph-name="uni25A4" unicode="&#x25a4;" 
d="M827 -74h-744v743h744v-743zM794 568v68h-678v-68h678zM794 463v73h-678v-73h678zM794 365v66h-678v-66h678zM794 262v71h-678v-71h678zM794 158v72h-678v-72h678zM794 58v68h-678v-68h678zM794 -41v67h-678v-67h678z" />
    <glyph glyph-name="uni25A5" unicode="&#x25a5;" 
d="M827 -74h-744v743h744v-743zM794 -41v677h-68v-677h68zM694 -41v677h-68v-677h68zM594 -41v677h-72v-677h72zM490 -41v677h-71v-677h71zM387 -41v677h-66v-677h66zM289 -41v677h-73v-677h73zM184 -41v677h-68v-677h68z" />
    <glyph glyph-name="uni25A6" unicode="&#x25a6;" 
d="M827 -74h-744v743h744v-743zM794 565v71h-71v-71h71zM794 464v71h-71v-71h71zM692 565v71h-71v-71h71zM794 363v71h-71v-71h71zM591 565v71h-71v-71h71zM692 464v71h-71v-71h71zM794 262v71h-71v-71h71zM490 565v71h-71v-71h71zM591 464v71h-71v-71h71zM692 363v71h-71
v-71h71zM794 161v71h-71v-71h71zM389 565v71h-71v-71h71zM490 464v71h-71v-71h71zM591 363v71h-71v-71h71zM692 262v71h-71v-71h71zM794 60v71h-71v-71h71zM288 565v71h-71v-71h71zM389 464v71h-71v-71h71zM490 363v71h-71v-71h71zM591 262v71h-71v-71h71zM692 161v71h-71
v-71h71zM794 -41v71h-71v-71h71zM187 565v71h-71v-71h71zM288 464v71h-71v-71h71zM389 363v71h-71v-71h71zM490 262v71h-71v-71h71zM591 161v71h-71v-71h71zM692 60v71h-71v-71h71zM692 -41v71h-71v-71h71zM187 464v71h-71v-71h71zM288 363v71h-71v-71h71zM389 262v71h-71
v-71h71zM490 161v71h-71v-71h71zM591 60v71h-71v-71h71zM591 -41v71h-71v-71h71zM187 363v71h-71v-71h71zM288 262v71h-71v-71h71zM389 161v71h-71v-71h71zM490 60v71h-71v-71h71zM490 -41v71h-71v-71h71zM187 262v71h-71v-71h71zM288 161v71h-71v-71h71zM389 60v71h-71v-71
h71zM389 -41v71h-71v-71h71zM187 161v71h-71v-71h71zM288 60v71h-71v-71h71zM288 -41v71h-71v-71h71zM187 60v71h-71v-71h71zM187 -41v71h-71v-71h71z" />
    <glyph glyph-name="uni25A7" unicode="&#x25a7;" 
d="M827 -74h-744v743h744v-743zM794 482v154h-155zM794 315v119l-203 202h-119zM794 149v118l-370 369h-118zM794 -17v118l-536 535h-117zM770 -41l-654 654v-118l536 -536h118zM604 -41l-488 488v-118l370 -370h118zM438 -41l-322 322v-118l204 -204h118zM272 -41l-156 156
v-156h156z" />
    <glyph glyph-name="uni25A8" unicode="&#x25a8;" 
d="M827 -74h-744v743h744v-743zM794 495v118l-654 -654h118zM794 329v118l-488 -488h118zM794 163v118l-322 -322h118zM794 -41v156l-156 -156h156zM271 636h-155v-154zM438 636h-119l-203 -202v-119zM604 636h-118l-370 -369v-118zM769 636h-117l-536 -535v-118z" />
    <glyph glyph-name="uni25A9" unicode="&#x25a9;" 
d="M827 -74h-744v743h744v-743zM794 482v133l-67 -67zM768 636h-129l64 -64zM770 458l-66 67l-61 -60l67 -67zM679 548l-64 64l-60 -59l65 -65zM592 636h-120l60 -60zM794 314v120l-60 -60zM508 553l-60 59l-59 -59l59 -59zM596 465l-65 63l-59 -58l65 -64zM686 375l-66 66
l-59 -59l66 -67zM770 291l-60 59l-59 -59l60 -59zM424 636h-118l59 -59zM794 149v118l-59 -59zM604 291l-68 67l-58 -59l66 -66zM341 553l-60 60l-58 -59l59 -59zM512 382l-64 64l-58 -59l64 -64zM687 208l-60 59l-58 -58l59 -60zM770 125l-59 59l-59 -59l59 -59zM424 470
l-60 59l-58 -58l60 -60zM258 636h-117l58 -58zM794 -17v118l-59 -59zM770 -41l-59 59l-59 -59h118zM175 554l-59 59v-118zM521 208l-67 68l-59 -60l66 -66zM258 471l-59 59l-59 -59l59 -59zM341 388l-59 59l-59 -59l59 -59zM429 299l-64 65l-59 -59l65 -64zM604 125l-59 59
l-59 -59l59 -59zM687 42l-59 59l-59 -59l59 -59zM604 -41l-59 59l-59 -59h118zM175 388l-59 59v-118zM258 305l-59 59l-59 -59l59 -59zM346 217l-64 64l-59 -59l64 -64zM438 125l-67 68l-60 -59l67 -68zM521 42l-59 59l-59 -59l59 -59zM175 222l-59 59v-117zM438 -41l-59 59
l-60 -59h119zM263 134l-64 64l-59 -59l64 -64zM354 43l-67 67l-59 -59l68 -68zM180 51l-64 64v-128zM272 -41l-68 68l-67 -68h135z" />
    <glyph glyph-name="uni25B1" unicode="&#x25b1;" horiz-adv-x="940" 
 />
    <glyph glyph-name="triagup" unicode="&#x25b2;" 
d="M84 -53l371 738l370 -738h-741z" />
    <glyph glyph-name="uni25B3" unicode="&#x25b3;" 
d="M727 9l-274 548l-275 -548h549zM83 -48l372 738l371 -738h-743z" />
    <glyph glyph-name="uni25B5" unicode="&#x25b5;" horiz-adv-x="940" 
 />
    <glyph glyph-name="uni25B6" unicode="&#x25b6;" 
d="M767 300l-624 -392v786z" />
    <glyph glyph-name="uni25B7" unicode="&#x25b7;" 
d="M767 300l-624 -392v786zM676 300l-485 305v-608z" />
    <glyph glyph-name="uni25B9" unicode="&#x25b9;" horiz-adv-x="940" 
 />
    <glyph glyph-name="triagdn" unicode="&#x25bc;" 
d="M825 663l-370 -738l-371 738h741z" />
    <glyph glyph-name="uni25BD" unicode="&#x25bd;" 
d="M180 605l275 -548l274 548h-549zM826 663l-371 -738l-372 738h743z" />
    <glyph glyph-name="uni25BF" unicode="&#x25bf;" horiz-adv-x="940" 
 />
    <glyph glyph-name="uni25C0" unicode="&#x25c0;" 
d="M767 -92l-624 392l624 394v-786z" />
    <glyph glyph-name="uni25C1" unicode="&#x25c1;" 
d="M767 -92l-624 392l624 394v-786zM718 -3v608l-485 -305z" />
    <glyph glyph-name="uni25C3" unicode="&#x25c3;" horiz-adv-x="940" 
 />
    <glyph glyph-name="uni25C6" unicode="&#x25c6;" 
d="M62 334l393 392l393 -393l-392 -393z" />
    <glyph glyph-name="uni25C7" unicode="&#x25c7;" 
d="M455 635l-303 -301l303 -304l301 303zM455 726l392 -393l-392 -393l-393 393z" />
    <glyph glyph-name="uni25C8" unicode="&#x25c8;" 
d="M893 298l-439 -439l-438 438l439 439zM835 298l-380 379l-381 -380l380 -380zM720 297l-265 -266l-267 266l267 265z" />
    <glyph glyph-name="lozenge" unicode="&#x25ca;" horiz-adv-x="940" 
 />
    <glyph glyph-name="circle" unicode="&#x25cb;" 
d="M156 334q0 -62 23.5 -116.5t64 -95t95 -64t116.5 -23.5q63 0 117.5 23.5t95 64t63.5 95t23 116.5t-23 116.5t-63.5 95t-95 64t-117.5 23.5q-62 0 -116.5 -23.5t-95 -64t-64 -95t-23.5 -116.5zM93 334q0 75 28.5 140.5t77.5 115t115 78t141 28.5t141 -28.5t115 -78
t77.5 -115t28.5 -140.5t-28.5 -141.5t-77.5 -115.5t-115 -77.5t-141 -28.5t-141 28.5t-115 77.5t-77.5 115.5t-28.5 141.5z" />
    <glyph glyph-name="uni25CC" unicode="&#x25cc;" horiz-adv-x="940" 
 />
    <glyph glyph-name="uni25CE" unicode="&#x25ce;" 
d="M299 334q0 -32 12.5 -60.5t33.5 -49.5t49.5 -33.5t60.5 -12.5t60.5 12.5t49.5 33.5t33.5 49.5t12.5 60.5q0 31 -12.5 59.5t-33.5 50t-49.5 34t-60.5 12.5t-60.5 -12.5t-49.5 -34t-33.5 -50t-12.5 -59.5zM240 334q0 44 17 83t46 68.5t68 46.5t84 17t84 -17t68 -46.5
t46 -68.5t17 -83q0 -45 -17 -84t-46 -68t-68 -46t-84 -17t-84 17t-68 46t-46 68t-17 84zM158 334q0 -62 23.5 -116t63.5 -94t94 -63.5t116 -23.5t116.5 23.5t95 63.5t63.5 94t23 116q0 61 -23 115.5t-63.5 95t-95 64t-116.5 23.5t-116 -23.5t-94 -64t-63.5 -95t-23.5 -115.5
zM93 334q0 75 28.5 140.5t77.5 115t115 78t141 28.5t141 -28.5t115 -78t77.5 -115t28.5 -140.5t-28.5 -141.5t-77.5 -115.5t-115 -77.5t-141 -28.5t-141 28.5t-115 77.5t-77.5 115.5t-28.5 141.5z" />
    <glyph glyph-name="H18533" unicode="&#x25cf;" 
d="M93 334q0 75 28.5 140.5t77.5 115t115 78t141 28.5t141 -28.5t115 -78t77.5 -115t28.5 -140.5t-28.5 -141.5t-77.5 -115.5t-115 -77.5t-141 -28.5t-141 28.5t-115 77.5t-77.5 115.5t-28.5 141.5z" />
    <glyph glyph-name="uni25D0" unicode="&#x25d0;" 
d="M845 299q0 -81 -30.5 -152t-83.5 -124t-124 -83.5t-152 -30.5q-80 0 -151 30.5t-124 83.5t-84 124t-31 152t31 152t84 124t124 83.5t151 30.5q81 0 152 -30.5t124 -83.5t83.5 -124t30.5 -152zM806 299q0 72 -28 136t-75.5 111.5t-111.5 75.5t-136 28v-701q72 0 136 27.5
t111.5 75.5t75.5 111.5t28 135.5z" />
    <glyph glyph-name="uni25D1" unicode="&#x25d1;" 
d="M845 299q0 -81 -31 -152t-84 -124t-124 -83.5t-151 -30.5q-81 0 -152 30.5t-124 83.5t-83.5 124t-30.5 152t30.5 152t83.5 124t124 83.5t152 30.5q80 0 151 -30.5t124 -83.5t84 -124t31 -152zM455 650q-72 0 -136 -28t-111.5 -75.5t-75.5 -111.5t-28 -136t28 -135.5
t75.5 -111.5t111.5 -75.5t136 -27.5v701z" />
    <glyph glyph-name="openbullet" unicode="&#x25e6;" horiz-adv-x="940" 
 />
    <glyph glyph-name="uni25EF" unicode="&#x25ef;" horiz-adv-x="940" 
 />
    <glyph glyph-name="uni2605" unicode="&#x2605;" 
d="M566 436h340l-276 -205l104 -325l-277 196l-282 -196l106 325l-278 205h346l108 322z" />
    <glyph glyph-name="uni2606" unicode="&#x2606;" 
d="M456 604l-72 -217h-233l187 -139l-73 -218l191 133l186 -133l-68 218l185 139h-230zM566 436h340l-276 -205l104 -325l-277 196l-282 -196l106 325l-278 205h346l108 322z" />
    <glyph glyph-name="uni260E" unicode="&#x260e;" 
d="M878 328q-6 -10 -20 -12.5t-32.5 -1t-39 6.5t-39.5 10q-31 9 -56 22.5t-29 31.5q-2 7 0.5 18t6.5 22t7 21.5t2 17.5q-4 20 -20 27t-35 10q-3 -23 -3 -51.5t14 -75.5q7 -26 16.5 -44.5t21 -33.5t25 -27t29.5 -25q25 -21 39 -44.5t21 -46.5t8.5 -43t1.5 -35q8 -3 12.5 -12
t7 -21t2.5 -24.5t-1 -22.5q-1 -9 -10 -12.5t-24 -3.5h-656q-15 0 -24 3.5t-10 12.5q-1 10 -1 22.5t2.5 24.5t7 21t12.5 12q0 15 1.5 35t8.5 43t21 46.5t39 44.5q16 13 29.5 25t25 27t21 33.5t16.5 44.5q13 47 13.5 75.5t-2.5 51.5q-19 -3 -35 -10t-20 -27q-2 -7 1 -17.5
t7 -21.5t7 -22t1 -18q-4 -18 -29 -31.5t-56 -22.5q-19 -5 -39.5 -10t-39 -6.5t-32.5 1t-20 12.5t-7.5 29t1.5 41.5t11.5 45t22.5 40.5q24 31 66.5 54t95.5 38t113 22t120 7t120 -7t113 -22t95.5 -38t66.5 -54q14 -18 22.5 -40.5t11.5 -45t1.5 -41.5t-7.5 -29zM533 439v65
q-14 -4 -35 -7t-43 -3t-43 3t-35 7v-65h156zM602 208q0 30 -11.5 57t-31.5 47t-47 31.5t-57 11.5t-57 -11.5t-47 -31.5t-31.5 -47t-11.5 -57t11.5 -57t31.5 -46.5t47 -31t57 -11.5t57 11.5t47 31t31.5 46.5t11.5 57z" />
    <glyph glyph-name="uni260F" unicode="&#x260f;" 
d="M878 328q-6 -10 -20 -12.5t-32.5 -1t-39 6.5t-39.5 10q-31 9 -56 22.5t-29 31.5q-2 7 0 18t5.5 22t6.5 21.5t2 17.5q-4 20 -19 25t-34 7q-3 -23 -3 -49t14 -73q7 -26 16.5 -44.5t21 -33.5t25 -27t29.5 -25q25 -21 39 -44.5t21 -46.5t8.5 -43t1.5 -35q8 -3 12.5 -12t7 -21
t2.5 -24.5t-1 -22.5q-1 -9 -10 -12.5t-24 -3.5h-656q-15 0 -24 3.5t-10 12.5q-1 10 -1 22.5t2.5 24.5t7 21t12.5 12q0 15 1.5 35t8.5 43t21 46.5t39 44.5q16 13 29.5 25t25 27t21 33.5t16.5 44.5q13 47 13.5 73t-2.5 49q-19 -2 -34 -7t-19 -25q-2 -7 1 -17.5t6.5 -21.5
t6 -22t0.5 -18q-4 -18 -29 -31.5t-56 -22.5q-19 -5 -39.5 -10t-39 -6.5t-32.5 1t-20 12.5t-7.5 29t1.5 41t11.5 44.5t22.5 40.5q24 31 66.5 54t95.5 38t113 22.5t120 7.5t120 -7.5t113 -22.5t95.5 -38t66.5 -54q14 -18 22.5 -40.5t11.5 -44.5t1.5 -41t-7.5 -29zM525 436v59
q-13 -4 -31.5 -7t-38.5 -3t-38.5 3t-31.5 7v-59h140zM845 346q6 1 9 16.5t-1.5 39t-18.5 50t-42 49.5q-22 17 -62.5 31.5t-88.5 25t-97.5 16t-88.5 5.5q-51 0 -102.5 -5.5t-96.5 -16t-81 -25t-58 -31.5q-29 -22 -42.5 -49t-18 -50t-1.5 -39t9 -17q19 -2 40.5 1t41.5 8.5
t37 13.5t29 16q6 4 4 15t-6 24.5t-5.5 29t4.5 29.5q8 20 40 31.5t98 11.5q11 0 22 -2t24 -4q17 -4 31 -6t31 -2t31 2t31 6q13 2 23.5 4t21.5 2q66 0 97 -11.5t42 -31.5q6 -14 4 -29.5t-5.5 -29t-6 -24.5t3.5 -15q11 -8 28.5 -16t38 -13.5t41.5 -8.5t40 -1zM776 9q3 0 4.5 8
t1 18.5t-4.5 21t-12 15.5q0 12 -2 29.5t-7.5 36.5t-14 37.5t-21.5 30.5q-22 21 -38 36.5t-28 29t-20 27t-15 30.5q-18 50 -23 92.5t-2 74.5h-41v-86h-196v86h-42q3 -32 -1.5 -74.5t-22.5 -92.5q-7 -17 -15.5 -30.5t-20.5 -27t-28 -29t-38 -36.5q-13 -12 -21.5 -30.5
t-14 -37.5t-7.5 -36.5t-2 -29.5q-8 -5 -12 -15.5t-4.5 -21t1.5 -18.5t5 -8h642zM617 206q0 -33 -13 -62.5t-35 -51.5t-51.5 -35t-62.5 -13t-62.5 13t-51.5 35t-35 51.5t-13 62.5t13 62.5t35 51.5t51.5 35t62.5 13t62.5 -13t51.5 -35t35 -51.5t13 -62.5zM585 206
q0 27 -10 50.5t-28 41.5t-41.5 28t-50.5 10t-50.5 -10t-41.5 -28t-28 -41.5t-10 -50.5t10 -50.5t28 -41t41.5 -27.5t50.5 -10t50.5 10t41.5 27.5t28 41t10 50.5z" />
    <glyph glyph-name="uni261C" unicode="&#x261c;" 
d="M847 184h-76v21h-29q-26 -16 -64.5 -30t-103.5 -25q-18 -3 -44.5 -4t-54 -1t-53 1.5t-41.5 3.5q-18 3 -34.5 9.5t-20.5 23.5q-2 12 2.5 19.5t12.5 12.5q-14 0 -25.5 9t-12.5 24q-1 11 2.5 18t8.5 12q-14 2 -25 9t-11 24q0 22 19 31t63 9l-3 8q-24 1 -43 1.5t-38.5 1
t-40.5 1.5t-49 3q-21 1 -43 2t-40 5t-29.5 12.5t-11.5 23.5q0 13 9 20t25 10.5t37.5 5t46.5 3.5q14 1 45 2t71 1.5t84.5 1t86.5 0.5q32 0 64.5 -0.5t64 -5.5t61 -17t55.5 -36q16 -4 32 -5.5t28 -0.5v32h75v-236zM772 217v154q-8 -1 -21.5 0t-22.5 3l2 -8q2 -10 0 -10.5
t-7 5.5q-8 10 -22.5 22.5t-35.5 26.5q-15 10 -41 16t-53.5 9t-52.5 3.5t-38 -1.5q-14 -2 -33 -8.5t-33 -15.5q-8 -5 -12.5 -12t-9.5 -15q-8 -17 -19 -24q-4 -5 3 -9t28 4q10 4 18 10.5t14 12t10 9t6 0.5q5 -6 -4 -15q8 -3 20.5 -4.5t20.5 0.5q20 5 30 12.5t12 3.5
q2 -5 -2 -11.5t-12 -11.5q6 -9 26.5 -25t52.5 -27q20 -7 37 -9.5t29 -4t19 -3t7 -5.5q0 -3 -9 -4t-22.5 0t-28.5 3.5t-27 5.5q-21 7 -37.5 16t-29 18.5t-21 18t-12.5 14.5q-5 -3 -11.5 -3.5t-11.5 -0.5q-14 1 -25.5 3t-16.5 4l-15 -13q26 0 44 -6.5t21 -18.5
q4 -14 0.5 -24.5t-11.5 -16.5q28 -7 31 -28q2 -14 -2.5 -20.5t-12.5 -11.5q29 -6 32 -28q3 -15 -4 -23.5t-9 -9.5q14 -3 35 0q39 3 69.5 9.5t54.5 14.5t43 18t35 20q3 3 5.5 3t1.5 -4l-2 -8h20zM429 437q-49 0 -114.5 -1t-133.5 -3q-48 -2 -75 -5.5t-27 -18.5
q0 -16 23 -19.5t79 -7.5q62 -3 104 -5t83 -3l21 32q8 11 17 18.5t23 12.5zM831 200v203h-44v-203h44zM490 247q1 15 -6 20.5t-22 7.5q-7 1 -23 1h-34.5t-35.5 -0.5t-26 -0.5q-10 -1 -16.5 -8t-6.5 -17q0 -16 25 -20q5 -1 23.5 -2t38 -1h35.5h17q10 0 20 4.5t11 15.5z
M507 194q-1 11 -11.5 14.5t-19.5 3.5q-27 1 -59 1t-54 -2q-11 -1 -15.5 -8.5t-2.5 -15.5q1 -6 5.5 -11t12.5 -7q26 -5 57.5 -5.5t56.5 1.5q33 2 30 29zM467 316q0 6 -4.5 11t-15.5 6q-37 2 -69.5 3t-64.5 -3q-10 -2 -15 -8t-4 -14q0 -7 5 -13t15 -6q15 -1 34 -1h37.5t35 1
t27.5 2q8 2 13.5 6.5t5.5 15.5z" />
    <glyph glyph-name="uni261D" unicode="&#x261d;" horiz-adv-x="940" 
 />
    <glyph glyph-name="uni261E" unicode="&#x261e;" 
d="M847 409q0 -15 -11.5 -23.5t-29.5 -12.5t-40 -5t-43 -2q-28 -2 -49 -3t-40.5 -1.5t-38.5 -1t-43 -1.5l-3 -8q44 0 63 -9t19 -31q0 -17 -11 -24t-25 -9q5 -5 8.5 -12t2.5 -18q-1 -15 -12.5 -24t-25.5 -9q8 -5 12.5 -12.5t2.5 -19.5q-4 -17 -20.5 -23.5t-34.5 -9.5
q-16 -2 -41.5 -3.5t-53 -1.5t-54 1t-44.5 4q-65 11 -103.5 25t-64.5 30h-29v-21h-76v236h75v-32q12 -1 28 0.5t32 5.5q26 24 55.5 36t61 17t64 5.5t64.5 0.5q42 0 86.5 -0.5t84.5 -1t71 -1.5t45 -2q25 -2 46.5 -3.5t37.5 -5t25 -10.5t9 -20zM536 362q-11 7 -19 24
q-5 8 -9.5 15t-12.5 12q-14 9 -33 15.5t-33 8.5t-38.5 1.5t-52 -3.5t-53.5 -9t-41 -16q-21 -14 -35.5 -26.5t-22.5 -22.5q-5 -6 -7 -5.5t0 10.5l2 8q-9 -2 -22.5 -3t-21.5 0v-154h20l-2 8q-2 4 1 3.5t6 -2.5q31 -20 77.5 -37.5t124.5 -24.5q19 -3 33 0q-2 2 -8 10.5t-3 22.5
q3 22 32 28q-8 5 -12.5 11.5t-2.5 20.5q5 21 31 28q-8 6 -11.5 16.5t0.5 24.5q4 12 21.5 18.5t43.5 6.5l-15 13q-5 -2 -16.5 -4t-25.5 -3q-5 0 -11.5 0.5t-11.5 3.5q-4 -6 -12.5 -14.5t-21 -18t-29 -18.5t-37.5 -16q-12 -3 -27 -5.5t-28.5 -3.5t-22.5 0t-9 4q0 4 7 5.5t19 3
t29 4t37 9.5q32 11 52.5 27t26.5 25q-8 5 -12 11.5t-2 11.5q2 4 12 -3.5t30 -12.5q8 -2 20.5 -0.5t20.5 4.5q-4 4 -5.5 8t1.5 7q2 3 6 -0.5t10 -9t14 -12t18 -10.5q21 -8 28 -4t3 9zM830 409q0 15 -27 18.5t-75 5.5q-68 2 -133.5 3t-114.5 1q14 -5 23 -12.5t17 -18.5l21 -32
q41 1 83 3t104 5q56 4 79 7.5t23 19.5zM122 200v203h-44v-203h44zM589 250q0 10 -6.5 17t-16.5 8q-9 0 -26 0.5t-35.5 0.5h-34.5t-23 -1q-14 -2 -21.5 -7.5t-6.5 -20.5q1 -11 11 -15.5t20 -4.5h17h35.5t38 1t23.5 2q25 4 25 20zM564 187q2 8 -2.5 15.5t-15.5 8.5
q-22 2 -54 2t-59 -1q-9 0 -19.5 -3.5t-11.5 -14.5q-3 -27 30 -29q25 -2 56.5 -1.5t57.5 5.5q8 2 12.5 7t5.5 11zM615 311q1 8 -4 14t-15 8q-32 4 -64.5 3t-69.5 -3q-11 -1 -15.5 -6t-4.5 -11q0 -11 5.5 -15.5t13.5 -6.5q11 -1 27.5 -2t35 -1h37.5t34 1q10 0 15 6t5 13z" />
    <glyph glyph-name="uni261F" unicode="&#x261f;" horiz-adv-x="940" 
 />
    <glyph glyph-name="uni262F" unicode="&#x262f;" horiz-adv-x="940" 
 />
    <glyph glyph-name="female" unicode="&#x2640;" horiz-adv-x="652" 
d="M123 462q0 -42 15.5 -80t42.5 -66.5t64 -45t81 -16.5q42 0 79 16.5t64.5 45t43.5 66.5t16 80t-16 80t-43.5 66.5t-64.5 45t-79 16.5q-44 0 -81 -16.5t-64 -45t-42.5 -66.5t-15.5 -80zM290 187q-51 7 -95 30.5t-76.5 60t-51 83.5t-18.5 101q0 57 21.5 107.5t59 88t88 59.5
t108.5 22q57 0 107.5 -22t88 -59.5t59.5 -88t22 -107.5q0 -54 -18.5 -101.5t-51.5 -84t-77 -60t-95 -29.5v-128h141v-69h-141v-139h-71v139h-141v69h141v128z" />
    <glyph glyph-name="male" unicode="&#x2642;" horiz-adv-x="776" 
d="M123 262q0 -42 15.5 -80t42.5 -66.5t64 -45t81 -16.5q42 0 79 16.5t64.5 45t43.5 66.5t16 80t-16 80t-43.5 66.5t-64.5 45t-79 16.5q-44 0 -81 -16.5t-64 -45t-42.5 -66.5t-15.5 -80zM49 262q0 57 21.5 107.5t59 88t88 59.5t108.5 22q49 0 91.5 -15t78.5 -43l115 114
h-105v68h222v-221h-69v106l-115 -116q28 -35 43.5 -78t15.5 -92q0 -57 -22 -107.5t-59.5 -88t-88 -59.5t-107.5 -22q-58 0 -108.5 22t-88 59.5t-59 88t-21.5 107.5z" />
    </font>
</defs>
</svg>
