<?xml version="1.0" standalone="no"?>
<!DOCTYPE svg PUBLIC "-//W3C//DTD SVG 1.1//EN" "http://www.w3.org/Graphics/SVG/1.1/DTD/svg11.dtd" >
<svg xmlns="http://www.w3.org/2000/svg" xmlns:xlink="http://www.w3.org/1999/xlink" version="1.1">
<metadata>
Created by FontForge 20170731 at Fri Sep 27 03:54:04 2013
 By Aleksey,,,
Copyright \24d2 2013 YoonDesign Inc. All rights reserved.
This Font Software is protected by copyright laws of Korea, international copyright treaties. It may not be reproduced, copied, distributed, resold, rented, transferred without the written expression of YoonDesign Inc.
</metadata>
<defs>
<font id="NEXONFootballGothicB" horiz-adv-x="830" >
  <font-face 
    font-family="NEXON Football Gothic B"
    font-weight="700"
    font-stretch="normal"
    units-per-em="1000"
    panose-1="2 11 8 3 0 0 0 0 0 0"
    ascent="800"
    descent="-200"
    x-height="515"
    cap-height="726"
    bbox="-1 -291 1000 1030"
    underline-thickness="50"
    underline-position="-150"
    unicode-range="U+0020-FFE6"
  />
<missing-glyph horiz-adv-x="260" 
 />
    <glyph glyph-name=".notdef" horiz-adv-x="260" 
 />
    <glyph glyph-name=".null" horiz-adv-x="0" 
 />
    <glyph glyph-name="nonmarkingreturn" horiz-adv-x="260" 
 />
    <glyph glyph-name="space" unicode=" " horiz-adv-x="260" 
 />
    <glyph glyph-name="exclam" unicode="!" horiz-adv-x="310" 
d="M80 176v574h174l-33 -574h-141zM70 -47v142h166l-13 -142h-153z" />
    <glyph glyph-name="quotedbl" unicode="&#x22;" horiz-adv-x="416" 
d="M157 484h-107l1 266h131zM352 484h-106v266h132z" />
    <glyph glyph-name="numbersign" unicode="#" horiz-adv-x="794" 
d="M369 574h134l36 169h148l-35 -169h102v-105h-126l-44 -208h117v-105h-140l-37 -173h-149l37 173h-135l-37 -173h-149l37 173h-88v105h112l44 208h-103v105h127l36 169h149zM301 261h134l44 208h-134z" />
    <glyph glyph-name="dollar" unicode="$" horiz-adv-x="550" 
d="M510 190q0 -16 -16.5 -40.5t-40 -48t-48.5 -40.5t-43 -17h-49v-107h-133v107h-140v106h270q9 0 19 5.5t18.5 14t14.5 19t6 20.5v47q0 32 -31 42l-203 72q-40 14 -66.5 38.5t-26.5 67.5v62q0 29 11 55t32 45.5t51.5 31t68.5 12.5v107h133v-107h142v-106h-243
q-23 0 -38 -10t-15 -42v-26q0 -30 28 -37l222 -81q35 -14 56 -40.5t21 -55.5v-94z" />
    <glyph glyph-name="percent" unicode="%" horiz-adv-x="928" 
d="M260 -26l-107 64l494 718l117 -62zM50 592q0 22 10.5 51t30 55t46.5 44t60 18h71q32 0 56.5 -15t41 -36.5t24.5 -46.5t8 -45v-109q0 -20 -11.5 -47.5t-31.5 -52t-47.5 -42t-59.5 -17.5h-61q-33 0 -58.5 14.5t-43 36.5t-26.5 47t-9 45v100zM170 503q0 -22 7 -35t26 -13h23
q11 0 20 6t15.5 16t10 21.5t3.5 23.5v83q0 19 -7.5 34t-29.5 15h-15q-13 0 -23 -7.5t-16.5 -19t-10 -24.5t-3.5 -25v-75zM530 233q0 22 10.5 51t30 55t46.5 44t60 18h71q32 0 56.5 -15t41 -36.5t24.5 -46.5t8 -45v-109q0 -20 -11.5 -47.5t-31.5 -52t-47.5 -42t-59.5 -17.5
h-61q-33 0 -58.5 14.5t-43 36.5t-26.5 47t-9 45v100zM650 144q0 -22 7 -35t26 -13h23q11 0 20 6t15.5 16t10 21.5t3.5 23.5v83q0 19 -7.5 34t-29.5 15h-15q-13 0 -23 -7.5t-16.5 -19t-10 -24.5t-3.5 -25v-75z" />
    <glyph glyph-name="ampersand" unicode="&#x26;" horiz-adv-x="693" 
d="M255 331q-70 -21 -70 -76v-117q0 -19 4 -29.5t23 -10.5h72q11 0 25.5 6t31.5 20l53 48zM583 -27l-102 114l-82 -70q-20 -17 -46 -22t-51 -5h-110q-36 0 -62.5 11t-44.5 29.5t-26.5 43.5t-8.5 54v148q0 47 34.5 85.5t88.5 58.5l-49 53q-11 12 -15.5 28t-4.5 33v77
q0 24 12.5 47t34 40.5t50 27.5t60.5 10h77q24 0 45 -9t42 -23q11 -7 26.5 -24.5t32 -37.5t31 -40t23.5 -32l-85 -65q-8 12 -19.5 28t-23.5 31.5t-22.5 28.5t-16.5 18q-12 11 -20 13.5t-21 2.5h-49q-13 0 -22.5 -6.5t-9.5 -29.5v-25q0 -20 3 -30t11 -19l222 -261l80 86
l80 -85l-86 -87l109 -117z" />
    <glyph glyph-name="quotesingle" unicode="'" horiz-adv-x="254" 
d="M177 484h-107l1 266h131z" />
    <glyph glyph-name="parenleft" unicode="(" horiz-adv-x="322" 
d="M50 560q0 111 53.5 160.5t168.5 52.5v-102q-45 -3 -62.5 -27.5t-17.5 -58.5v-509q0 -34 17.5 -58.5t62.5 -27.5v-102q-115 3 -168.5 52.5t-53.5 160.5v459z" />
    <glyph glyph-name="parenright" unicode=")" horiz-adv-x="322" 
d="M272 560v-459q0 -111 -53.5 -160.5t-168.5 -52.5v102q45 3 62.5 27.5t17.5 58.5v509q0 34 -17.5 58.5t-62.5 27.5v102q115 -3 168.5 -52.5t53.5 -160.5z" />
    <glyph glyph-name="asterisk" unicode="*" horiz-adv-x="516" 
d="M310 471l6 -123h-123l8 123l-99 -68l-52 101l104 50l-104 55l56 98l97 -65l-10 115h124l-7 -117l99 66l57 -95l-113 -56l111 -55l-52 -100z" />
    <glyph glyph-name="plus" unicode="+" horiz-adv-x="616" 
d="M241 116v209h-201v106h201v199h137v-199h198v-106h-198v-209h-137z" />
    <glyph glyph-name="comma" unicode="," horiz-adv-x="242" 
d="M69 -195l43 148h-62v130h142v-131l-69 -147h-54z" />
    <glyph glyph-name="hyphen" unicode="-" horiz-adv-x="616" 
d="M85 431h446v-106h-446v106z" />
    <glyph glyph-name="period" unicode="." horiz-adv-x="242" 
d="M50 -47v130h142v-130h-142z" />
    <glyph glyph-name="slash" unicode="/" horiz-adv-x="467" 
d="M18 0l283 726h148l-283 -726h-148z" />
    <glyph glyph-name="zero" unicode="0" horiz-adv-x="550" 
d="M523 168q0 -20 -20.5 -50.5t-50.5 -59t-62.5 -48.5t-56.5 -20h-127q-24 0 -55 15.5t-59 38t-47 48.5t-19 46v420q0 20 20.5 50.5t50.5 59t62.5 48.5t56.5 20h127q24 0 55 -15.5t59 -38t47 -48.5t19 -46v-420zM381 189v378q0 29 -16.5 46t-44.5 17h-71q-10 0 -24 -10.5
t-26.5 -25t-21.5 -30.5t-9 -27v-378q0 -29 21.5 -46t49.5 -17h61q10 0 24 10.5t26.5 25t21.5 30.5t9 27z" />
    <glyph glyph-name="one" unicode="1" horiz-adv-x="550" 
d="M240 0v540h-122v106q19 0 41 5.5t41 15.5t32 25t13 34h137v-726h-142z" />
    <glyph glyph-name="two" unicode="2" horiz-adv-x="550" 
d="M324 434q18 12 18 41v85q0 24 -12.5 42t-40.5 18h-229v106h262q25 0 53.5 -15.5t52.5 -39.5t40 -51.5t16 -51.5v-100q0 -35 -16.5 -59t-40.5 -42l-232 -178v-83h302v-106h-444v195q0 23 7 36t22 24z" />
    <glyph glyph-name="three" unicode="3" horiz-adv-x="550" 
d="M55 726h274q25 0 53.5 -16t52.5 -39.5t40 -51.5t16 -52v-52q0 -34 -21.5 -68t-56.5 -49q17 -6 33 -15t28 -23.5t19.5 -35.5t7.5 -51v-85q0 -14 -9.5 -33t-24.5 -40t-34.5 -41.5t-40 -37t-40.5 -26.5t-36 -10h-268v106h227q10 0 24.5 9.5t27.5 23.5t22.5 29t9.5 26v97v11
t-3 13.5t-9.5 11t-19.5 4.5h-239v106h177q17 0 32.5 3.5t27 13.5t18 26t6.5 42v37q0 24 -12.5 42.5t-40.5 18.5h-241v106z" />
    <glyph glyph-name="four" unicode="4" horiz-adv-x="550" 
d="M318 0v127h-304v107l304 492h138v-493h80v-106h-80v-127h-138zM318 233v277l-171 -277h171z" />
    <glyph glyph-name="five" unicode="5" horiz-adv-x="550" 
d="M205 431h173q22 0 43.5 -8t38.5 -23.5t28 -39.5t11 -55v-132q0 -23 -16.5 -53t-42 -56.5t-56.5 -45t-59 -18.5h-275v106h237q13 0 25.5 6t22.5 16.5t16 24t6 28.5v116q0 12 -4 20t-21 8h-269v401h405v-105h-263v-190z" />
    <glyph glyph-name="six" unicode="6" horiz-adv-x="550" 
d="M33 548q0 20 17 50.5t43 59t57 48.5t60 20h218v-106h-173q-13 0 -27 -10.5t-26 -25t-19.5 -30.5t-7.5 -27v-97q21 15 41 27t37 12h88q25 0 56 -15.5t57 -38t44 -48.5t18 -46v-169q0 -20 -18.5 -48t-45 -53.5t-57 -43t-54.5 -17.5h-128q-24 0 -55 15.5t-59 38t-47 48.5
t-19 46v410zM374 295q0 68 -56 68h-62q-10 0 -24 -7.5t-26.5 -18.5t-21.5 -23.5t-9 -23.5v-131q0 -29 21.5 -46t49.5 -17h60q11 0 23 8t22 19.5t16.5 25t6.5 25.5v121z" />
    <glyph glyph-name="seven" unicode="7" horiz-adv-x="550" 
d="M49 726h452v-106l-240 -620h-139l237 620h-310v106z" />
    <glyph glyph-name="eight" unicode="8" horiz-adv-x="550" 
d="M27 258q0 23 20.5 54t52.5 57q-24 21 -40 46t-16 45v122q0 23 13.5 50t35.5 50t50 38.5t57 15.5h140q32 0 63.5 -15t56.5 -38.5t40.5 -52t15.5 -55.5v-90q0 -26 -14.5 -56t-37.5 -55q26 -22 42 -49t16 -50v-129q0 -24 -15.5 -51.5t-40.5 -51t-56.5 -38.5t-63.5 -15h-158
q-30 0 -59 14t-51.5 34.5t-36.5 44.5t-14 45v130zM164 141q0 -23 13 -36.5t38 -13.5h99q29 0 50 17t21 47v106q0 23 -14 40.5t-44 17.5h-91q-15 -1 -28 -9t-22.5 -19t-15.5 -24t-6 -23v-103zM380 583q0 20 -11 35t-39 15h-82q-20 0 -33 -8.5t-20.5 -20.5t-11 -25t-3.5 -23
v-75q0 -28 7 -44.5t33 -18.5h87q17 1 30.5 9.5t23 21.5t14.5 28t5 29v77z" />
    <glyph glyph-name="nine" unicode="9" horiz-adv-x="550" 
d="M516 178q0 -20 -17 -50.5t-43 -59t-57.5 -48.5t-59.5 -20h-214v106h169q13 0 27 10.5t26 25t19.5 30.5t7.5 27v97q-21 -15 -41 -27t-37 -12h-88q-26 0 -56.5 15.5t-56.5 38t-44 48.5t-18 46v169q0 20 18.5 48t45 53.5t57 43t54.5 17.5h128q24 0 55 -15.5t59 -38t47 -48.5
t19 -46v-410zM175 431q0 -68 56 -68h62q10 0 24 7.5t26.5 18.5t21.5 23.5t9 23.5v131q0 29 -21.5 46t-49.5 17h-60q-11 0 -23 -8t-22 -19.5t-16.5 -25t-6.5 -25.5v-121z" />
    <glyph glyph-name="colon" unicode=":" horiz-adv-x="242" 
d="M50 505v130h142v-130h-142zM50 77v130h142v-130h-142z" />
    <glyph glyph-name="semicolon" unicode=";" horiz-adv-x="242" 
d="M50 505v130h142v-130h-142zM69 -71l43 148h-62v130h142v-131l-69 -147h-54z" />
    <glyph glyph-name="less" unicode="&#x3c;" horiz-adv-x="526" 
d="M50 418l436 245v-134l-273 -158l273 -161v-133l-436 244v97z" />
    <glyph glyph-name="equal" unicode="=" horiz-adv-x="616" 
d="M85 320h446v-103h-446v103zM85 539h446v-103h-446v103z" />
    <glyph glyph-name="greater" unicode="&#x3e;" horiz-adv-x="526" 
d="M486 321l-436 -244v133l273 161l-273 158v134l436 -245v-97z" />
    <glyph glyph-name="question" unicode="?" horiz-adv-x="589" 
d="M237 176v142l141 150q19 22 19 53v75q0 26 -16 42t-40 16h-70q-13 0 -28.5 -10.5t-29 -25t-22.5 -30.5t-9 -27v-61h-142v82q0 20 20.5 50.5t50.5 59t62.5 48.5t56.5 20h135q24 0 54 -14.5t57 -36t45 -47t18 -46.5v-89q0 -35 -9 -64t-27 -47l-114 -109l-11 -131h-141z
M221 -47v142h166l-13 -142h-153z" />
    <glyph glyph-name="at" unicode="@" horiz-adv-x="838" 
d="M788 286q0 -32 -9 -56t-23.5 -41t-33.5 -26.5t-39 -12.5q-34 -5 -73.5 3t-67.5 26q-28 -17 -70 -17h-139q-23 0 -40 3.5t-28.5 13t-17.5 27t-6 44.5v80q0 37 21.5 64t60.5 27h144v15q0 13 -8.5 26t-31.5 13h-147v93h136q52 0 85.5 -9.5t53 -28t27.5 -47t8 -67.5v-137
q7 -8 18 -14.5t21 -9.5q12 -4 22.5 1t10.5 19v254q0 45 -30 73t-99 28h-233q-68 0 -96.5 -28t-28.5 -73v-332q0 -45 28.5 -73t96.5 -28h251v-106h-288q-38 0 -76 15t-68.5 42t-49.5 65t-19 85v332q0 50 22 88.5t56 65t75.5 40t80.5 13.5h270q39 0 80.5 -13.5t75.5 -40
t56 -65t22 -88.5v-243zM467 329h-87q-9 0 -13.5 -6.5t-4.5 -13.5v-42q0 -5 1.5 -9t12.5 -4h58q12 0 22.5 3.5t10.5 26.5v45z" />
    <glyph glyph-name="A" unicode="A" horiz-adv-x="640" 
d="M434 212h-228l-48 -212h-138l163 670q5 23 17.5 39.5t40.5 16.5h158q28 0 40.5 -18t17.5 -38l163 -670h-138zM334 620h-9q-13 0 -17 -4.5t-7 -17.5l-68 -280h173z" />
    <glyph glyph-name="B" unicode="B" horiz-adv-x="601" 
d="M401 726q42 0 68 -9t41 -26t20 -42t5 -56v-101q0 -46 -17.5 -71t-40.5 -36q28 -9 51 -34.5t23 -70.5v-109q0 -25 -18 -54.5t-43.5 -55.5t-54.5 -43.5t-51 -17.5h-334v635q0 15 3 22t8 11l59 49q7 6 15 7.5t16 1.5h250zM411 285q0 26 -11.5 33t-26.5 7h-183v-219h158
q8 0 19 7t20.5 17t16.5 21t7 20v114zM190 621v-190h156q32 0 40.5 12t8.5 35v116q0 13 -6 20t-25 7h-174z" />
    <glyph glyph-name="C" unicode="C" horiz-adv-x="517" 
d="M248 106h229v-106h-247q-24 0 -55 15.5t-59 38t-47 48.5t-19 46v427q0 30 13 57t36 48t53 33.5t65 12.5h256v-106h-220q-23 0 -42 -12t-19 -43v-396q0 -28 15 -44.5t41 -18.5z" />
    <glyph glyph-name="D" unicode="D" horiz-adv-x="615" 
d="M50 635q0 15 3 22t8 11l59 49q7 6 15 7.5t16 1.5h247q34 0 64.5 -12.5t53.5 -33.5t36 -48t13 -57v-398q0 -26 -17.5 -57t-43.5 -57.5t-56.5 -44.5t-56.5 -18h-341v635zM356 106q12 0 24 6.5t21.5 17t15.5 22.5t6 23v390q0 31 -19 43t-42 12h-170v-514h164z" />
    <glyph glyph-name="E" unicode="E" horiz-adv-x="519" 
d="M440 325h-248v-219h287v-106h-429v635q0 15 3 22t8 11l59 49q7 6 15 7.5t16 1.5h328v-106h-287v-189h271z" />
    <glyph glyph-name="F" unicode="F" horiz-adv-x="488" 
d="M192 620v-189h270l-23 -106h-247v-325h-142v635q0 15 3 22t8 11l59 49q7 6 15 7.5t16 1.5h327v-106h-286z" />
    <glyph glyph-name="G" unicode="G" horiz-adv-x="617" 
d="M248 620q-26 0 -41 -17.5t-15 -45.5v-398q0 -28 15 -45.5t41 -17.5h115q12 0 23.5 6.5t21 17t15 22.5t5.5 23v151h-131v106h270v-255q0 -26 -17.5 -57t-43.5 -57.5t-56.5 -44.5t-56.5 -18h-163q-24 0 -55 15.5t-59 38t-47 48.5t-19 46v440q0 20 19 46t47 48.5t59 38
t55 15.5h287v-106h-269z" />
    <glyph glyph-name="H" unicode="H" horiz-adv-x="614" 
d="M50 0v726h142v-295h230v295h142v-726h-142v325h-230v-325h-142z" />
    <glyph glyph-name="I" unicode="I" horiz-adv-x="281" 
d="M70 0v726h142v-726h-142z" />
    <glyph glyph-name="J" unicode="J" horiz-adv-x="343" 
d="M10 40h83q26 0 42 17.5t16 41.5v627h142v-628q0 -27 -15 -56t-38 -53t-50.5 -39.5t-52.5 -15.5h-127v106z" />
    <glyph glyph-name="K" unicode="K" horiz-adv-x="614" 
d="M50 0v726h142v-311l195 311h170l-243 -371l274 -355h-174l-222 303v-303h-142z" />
    <glyph glyph-name="L" unicode="L" horiz-adv-x="518" 
d="M50 0v726h142v-620h286v-106h-428z" />
    <glyph glyph-name="M" unicode="M" horiz-adv-x="875" 
d="M151 726h497q24 0 54.5 -15.5t58 -38t46 -48t18.5 -45.5v-579h-142v557q0 28 -15 45.5t-41 17.5h-117v-620h-142v620h-176v-620h-142v635q0 15 3 22t8 11l59 49q7 6 15 7.5t16 1.5z" />
    <glyph glyph-name="N" unicode="N" horiz-adv-x="606" 
d="M192 620v-620h-142v635q0 15 3 22t8 11l59 49q7 6 15 7.5t16 1.5h228q24 0 54.5 -15.5t58 -38t46 -48t18.5 -45.5v-579h-142v557q0 29 -16.5 46t-44.5 17h-161z" />
    <glyph glyph-name="O" unicode="O" horiz-adv-x="667" 
d="M617 168q0 -20 -20.5 -50.5t-50.5 -59t-62.5 -48.5t-56.5 -20h-197q-24 0 -55 15.5t-59 38t-47 48.5t-19 46v420q0 20 20.5 50.5t50.5 59t62.5 48.5t56.5 20h197q24 0 55 -15.5t59 -38t47 -48.5t19 -46v-420zM475 567q0 29 -16.5 46t-44.5 17h-141q-10 0 -24 -10.5
t-26.5 -25t-21.5 -30.5t-9 -27v-378q0 -29 21.5 -46t49.5 -17h131q10 0 24 10.5t26.5 25t21.5 30.5t9 27v378z" />
    <glyph glyph-name="P" unicode="P" horiz-adv-x="601" 
d="M192 0h-142v635q0 15 3 22t8 11l59 49q7 6 15 7.5t16 1.5h279q67 0 94 -28t27 -95v-152q0 -26 -17.5 -57t-43.5 -57.5t-56.5 -44.5t-56.5 -18h-185v-274zM192 380h150q12 0 24 6.5t21.5 17t15.5 22.5t6 23v153q0 18 -20 18h-197v-240z" />
    <glyph glyph-name="Q" unicode="Q" horiz-adv-x="669" 
d="M50 558q0 20 20.5 50.5t50.5 59t62.5 48.5t56.5 20h189q24 0 55 -15.5t59 -38t47 -48.5t19 -46v-420q0 -12 -7.5 -28.5t-20 -33.5t-29 -34.5t-34.5 -32.5l74 -151h-143l-53 102h-166q-26 0 -57 15.5t-58.5 38t-46 48.5t-18.5 46v420zM396 96q11 0 24 9.5t24 23t18.5 28.5
t7.5 27v383q0 29 -16.5 46t-44.5 17h-138q-11 0 -25 -10.5t-26.5 -25t-21 -30.5t-8.5 -27v-378q0 -29 21.5 -46t49.5 -17h135z" />
    <glyph glyph-name="R" unicode="R" horiz-adv-x="588" 
d="M414 726q67 0 95.5 -28t28.5 -95v-121q0 -54 -22 -96t-62 -68l116 -318h-143l-102 281h-4h-130v-281h-142v635q0 15 3 22t8 11l59 49q7 6 15 7.5t16 1.5h264zM191 620v-233h131q40 0 57 27.5t17 66.5v121q0 18 -20 18h-185z" />
    <glyph glyph-name="S" unicode="S" horiz-adv-x="552" 
d="M502 167q0 -25 -17.5 -54t-43 -54t-54.5 -42t-51 -17h-287v106h250q8 0 18.5 6.5t20 16t16 20t6.5 19.5v79q0 18 -7.5 26.5t-15.5 10.5l-194 60q-42 10 -67.5 37.5t-25.5 87.5v106q0 30 13 57t36 48t53 33.5t65 12.5h264v-106h-228q-23 0 -42 -12t-19 -43v-87
q0 -16 7 -23t21 -11l219 -70q22 -7 35 -18.5t19 -24.5t7.5 -26.5t1.5 -24.5v-113z" />
    <glyph glyph-name="T" unicode="T" horiz-adv-x="550" 
d="M10 726h530v-106h-194v-620h-142v620h-194v106z" />
    <glyph glyph-name="U" unicode="U" horiz-adv-x="614" 
d="M357 96q29 0 47 17t18 46v567h142v-589q0 -21 -16 -47t-41.5 -48t-58.5 -37t-66 -15h-150q-33 0 -66 15t-58.5 37t-41.5 48t-16 47v589h142v-567q0 -29 18.5 -46t48.5 -17h98z" />
    <glyph glyph-name="V" unicode="V" horiz-adv-x="640" 
d="M482 726h138l-163 -670q-5 -20 -17.5 -38t-40.5 -18h-158q-28 0 -40.5 16.5t-17.5 39.5l-163 670h138l143 -598q3 -13 7 -17.5t17 -4.5h9z" />
    <glyph glyph-name="W" unicode="W" horiz-adv-x="875" 
d="M357 564h162l97 -453l102 615h138l-129 -675q-5 -23 -16 -37t-38 -14h-110q-28 0 -37 15t-14 35l-74 340l-74 -340q-5 -20 -14 -35t-37 -15h-110q-27 0 -38 14t-16 37l-129 675h138l102 -615z" />
    <glyph glyph-name="X" unicode="X" horiz-adv-x="627" 
d="M20 0l219 367l-214 359h148l140 -235l140 235h148l-214 -359l220 -367h-148l-146 243l-145 -243h-148z" />
    <glyph glyph-name="Y" unicode="Y" horiz-adv-x="574" 
d="M286 367q8 0 11.5 5.5t7.5 16.5l117 337h152l-163 -433q-8 -20 -24 -28t-29 -8v-257h-142v257q-13 0 -29 8t-24 28l-163 433h152l117 -337q8 -22 17 -22z" />
    <glyph glyph-name="Z" unicode="Z" horiz-adv-x="582" 
d="M72 726h446v-106l-327 -514h351v-106h-493v106l316 514h-293v106z" />
    <glyph glyph-name="bracketleft" unicode="[" horiz-adv-x="312" 
d="M272 803v-102h-80v-741h80v-102h-222v945h222z" />
    <glyph glyph-name="backslash" unicode="\" horiz-adv-x="467" 
d="M301 0l-283 726h148l283 -726h-148z" />
    <glyph glyph-name="bracketright" unicode="]" horiz-adv-x="312" 
d="M262 803v-945h-222v102h80v741h-80v102h222z" />
    <glyph glyph-name="asciicircum" unicode="^" horiz-adv-x="557" 
d="M172 765q11 24 20 34.5t26 10.5h111q22 0 34 -9.5t23 -35.5l151 -348h-148l-111 273l-111 -273h-147z" />
    <glyph glyph-name="underscore" unicode="_" horiz-adv-x="526" 
d="M40 106h446v-106h-446v106z" />
    <glyph glyph-name="grave" unicode="`" horiz-adv-x="338" 
d="M181 807l128 -310h-142l-156 310h170z" />
    <glyph glyph-name="a" unicode="a" horiz-adv-x="533" 
d="M142 0q-46 0 -69 22t-23 77v136q0 32 20 57t53 25h223v42q0 9 -1 18.5t-6 17t-16 12.5t-31 5h-203v103h220q65 0 100.5 -15.5t52 -44t19 -68.5t2.5 -88v-174q0 -69 -32 -97t-96 -28h-213zM346 214h-141q-9 0 -13.5 -6.5t-4.5 -13.5v-78q0 -5 1.5 -9t12.5 -4h112
q12 0 22.5 3.5t10.5 26.5v81z" />
    <glyph glyph-name="b" unicode="b" horiz-adv-x="538" 
d="M50 0v736h137v-221h200q101 0 101 -107v-233q0 -29 -6 -60t-27 -56.5t-61.5 -42t-109.5 -16.5h-234zM271 104q13 0 27.5 1.5t26 9t19 22.5t7.5 41v211q0 17 -10 19.5t-13 2.5h-141v-307h84z" />
    <glyph glyph-name="c" unicode="c" horiz-adv-x="478" 
d="M50 330q0 41 16 75t41.5 58.5t57.5 38t64 13.5h205v-104h-181q-14 0 -25.5 -7.5t-20 -19t-13 -26t-4.5 -28.5v-181q0 -32 12.5 -38.5t28.5 -6.5h207v-104h-240q-32 0 -59 8t-47 25.5t-31 46t-11 69.5v181z" />
    <glyph glyph-name="d" unicode="d" horiz-adv-x="545" 
d="M238 0q-63 0 -100 16.5t-56.5 42t-25.5 56.5t-6 60v216q0 68 32 96t95 28h181v221h137v-736h-257zM212 411q-11 0 -18 -6t-7 -23v-217q0 -38 18.5 -49.5t46.5 -11.5h106v307h-146z" />
    <glyph glyph-name="e" unicode="e" horiz-adv-x="532" 
d="M391 515q45 0 68 -22t23 -76v-133q0 -15 -5 -30t-14.5 -26t-23 -18t-29.5 -7h-224v-47q0 -9 1 -18.5t6 -18t16 -13.5t32 -5h213v-101h-231q-65 0 -100 15.5t-51.5 44t-19 68.5t-2.5 88v175q0 68 32 96t95 28h214zM186 295h140q10 0 14.5 6.5t4.5 14.5v84q0 6 -2 10t-13 4
h-110q-13 0 -23.5 -4t-10.5 -28v-87z" />
    <glyph glyph-name="f" unicode="f" horiz-adv-x="432" 
d="M113 440v181q0 58 26.5 86.5t71.5 28.5h201v-105h-134q-8 0 -16 -5t-8 -25v-161h150l-20 -105h-130v-335h-141v335h-93v105h93z" />
    <glyph glyph-name="g" unicode="g" horiz-adv-x="527" 
d="M254 0q-69 0 -109.5 16.5t-61.5 42.5t-27 56.5t-6 59.5v216q0 68 32 96t95 28h300v-562q0 -29 -12.5 -56t-36.5 -49t-58.5 -35t-77.5 -13h-192v105h172q30 0 47 9.5t17 40.5v45h-82zM190 178q0 -26 6 -40.5t16.5 -22t23.5 -9t28 -1.5h72v306h-116q-12 0 -21 -4.5
t-9 -24.5v-204z" />
    <glyph glyph-name="h" unicode="h" horiz-adv-x="545" 
d="M357 0v383q0 12 -4 20t-21 8h-144v-411h-138v736h138v-221h193q21 0 41.5 -5.5t36.5 -19.5t26 -37.5t10 -59.5v-393h-138z" />
    <glyph glyph-name="i" unicode="i" horiz-adv-x="281" 
d="M70 0v515h141v-515h-141zM70 602v97q0 23 9 30t19 7h127q-5 -33 -11 -67t-11 -67h-133z" />
    <glyph glyph-name="j" unicode="j" horiz-adv-x="331" 
d="M140 602v97q0 23 9 30t19 7h127q-5 -33 -11 -67t-11 -67h-133zM140 515h141v-554q0 -35 -13.5 -64.5t-38 -51t-59 -33.5t-75.5 -12h-95v105h75q32 0 48.5 11.5t16.5 52.5v546z" />
    <glyph glyph-name="k" unicode="k" horiz-adv-x="544" 
d="M50 0v736h137v-404l145 183h161l-202 -247l245 -268h-164l-185 210v-210h-137z" />
    <glyph glyph-name="l" unicode="l" horiz-adv-x="275" 
d="M244 0q-45 0 -81 6.5t-61 24t-38.5 48t-13.5 77.5v580h140v-579q0 -16 6.5 -26t17 -16t24 -8.5t27.5 -2.5v-104h-21z" />
    <glyph glyph-name="m" unicode="m" horiz-adv-x="746" 
d="M696 0h-138v360q0 20 -14.5 35.5t-40.5 15.5h-64v-411h-137v411h-110v-411h-142v424q0 15 3 22t8 11l59 49q7 6 15 7.5t16 1.5h377q32 0 62.5 -14.5t54 -36.5t37.5 -46.5t14 -45.5v-372z" />
    <glyph glyph-name="n" unicode="n" horiz-adv-x="546" 
d="M151 515h177q32 0 62.5 -14.5t54 -36.5t37.5 -46.5t14 -45.5v-372h-140v356q0 21 -14 37t-41 18h-111v-411h-140v424q0 15 3 22t8 11l59 49q7 6 15 7.5t16 1.5z" />
    <glyph glyph-name="o" unicode="o" horiz-adv-x="569" 
d="M50 357q0 21 17 49.5t44 55t60.5 45t66.5 18.5h113q32 0 62.5 -13t54 -33.5t37.5 -45t14 -46.5v-229q0 -21 -17 -49.5t-44 -55t-60.5 -45t-66.5 -18.5h-113q-32 0 -62.5 14.5t-54 36.5t-37.5 46.5t-14 45.5v224zM187 149q0 -23 14 -39t44 -16h54q15 0 29.5 8.5t26.5 20.5
t19.5 26t7.5 25v192q0 23 -12.5 39t-40.5 16h-58q-15 0 -30 -8.5t-27 -20.5t-19.5 -26t-7.5 -25v-192z" />
    <glyph glyph-name="p" unicode="p" horiz-adv-x="538" 
d="M50 -200v715h324q21 0 41.5 -5.5t36.5 -19.5t26 -37.5t10 -59.5v-218q0 -29 -6 -60t-27 -56.5t-61.5 -42t-109.5 -16.5h-97v-200h-137zM187 104h83q13 0 27.5 1.5t26 9t19 22.5t7.5 41v205q0 12 -4 20t-21 8h-138v-307z" />
    <glyph glyph-name="q" unicode="q" horiz-adv-x="538" 
d="M348 -200v200h-94q-69 0 -109.5 16.5t-61.5 42t-27 56.5t-6 60v216q0 68 32 96t95 28h311v-715h-140zM220 411q-12 0 -21 -4.5t-9 -24.5v-204q0 -26 7.5 -41t19 -22.5t26 -9t28.5 -1.5h77v307h-128z" />
    <glyph glyph-name="r" unicode="r" horiz-adv-x="398" 
d="M50 0v376q0 41 9.5 68t27.5 42.5t43.5 22t57.5 6.5h200v-104h-173q-8 0 -16.5 -4.5t-8.5 -24.5v-382h-140z" />
    <glyph glyph-name="s" unicode="s" horiz-adv-x="485" 
d="M108 241q-27 8 -42.5 29t-15.5 63v66q0 31 10 53t26.5 36t37.5 20.5t44 6.5h246v-104h-205q-5 0 -12 -1.5t-7 -14.5v-52q0 -13 6 -17.5t17 -8.5l162 -45q19 -6 31 -15t18.5 -20t8.5 -22t2 -21v-67q0 -21 -6 -43.5t-23.5 -41t-50 -30.5t-85.5 -12h-211v104h202q18 0 26 8
t8 22v43q0 8 -4.5 10.5t-8.5 4.5z" />
    <glyph glyph-name="t" unicode="t" horiz-adv-x="403" 
d="M10 411v104h83v138q0 14 5.5 24t20.5 15q28 8 57 16l58 16v-209h159l-20 -104h-139v-271q0 -25 11 -30.5t23 -5.5h114v-104h-165q-69 0 -96.5 30t-27.5 98v283h-83z" />
    <glyph glyph-name="u" unicode="u" horiz-adv-x="546" 
d="M395 0h-177q-32 0 -62.5 14.5t-54 36.5t-37.5 46.5t-14 45.5v372h140v-356q0 -21 14 -37t41 -18h111v411h140v-424q0 -15 -3 -22t-8 -11l-59 -49q-7 -6 -15 -7.5t-16 -1.5z" />
    <glyph glyph-name="v" unicode="v" horiz-adv-x="507" 
d="M156 515l97 -414h2q24 103 48.5 207t47.5 207h136q-32 -119 -63.5 -236t-63.5 -236q-5 -17 -15.5 -30t-30.5 -13h-122q-20 0 -29.5 9t-15.5 31q-30 115 -63.5 237.5t-63.5 237.5h136z" />
    <glyph glyph-name="w" unicode="w" horiz-adv-x="781" 
d="M466 431q21 -92 40.5 -178t34.5 -151h2q11 48 23.5 101.5t24 108t22.5 106.5t19 97h129q-10 -48 -23 -109t-27 -124.5t-29 -125.5t-28 -113q-5 -17 -15.5 -30t-30.5 -13h-126q-20 0 -30 9t-15 31q-11 46 -22 100.5t-23 114.5h-2q-5 -25 -10.5 -54t-12 -57.5t-12.5 -55
t-12 -45.5q-5 -17 -17 -30t-32 -13h-118q-20 0 -30 9t-15 31q-10 39 -24.5 99.5t-30 127t-30.5 132t-26 116.5h136l86 -413h2q7 29 16 71t19 87.5t19 90t16 80.5h152z" />
    <glyph glyph-name="x" unicode="x" horiz-adv-x="538" 
d="M15 0q44 63 89 128.5t92 131.5q-45 64 -88 127.5t-88 127.5h145q26 -38 52 -74.5t52 -74.5q26 38 51.5 75t51.5 74h146q-43 -62 -87.5 -125.5t-89.5 -128.5q46 -66 91 -130.5t91 -130.5h-146q-27 39 -54.5 78t-54.5 78q-56 -80 -108 -156h-145z" />
    <glyph glyph-name="y" unicode="y" horiz-adv-x="547" 
d="M86 -200v105h154q31 0 45.5 9.5t19.5 40.5l9 63h-121q-36 0 -62.5 8t-44.5 26.5t-27 49t-9 74.5v339h140v-350q0 -23 10.5 -33t41.5 -10h86q14 97 29.5 197t30.5 196h139q-21 -137 -42.5 -279.5t-44.5 -282.5q-5 -29 -19 -56.5t-37 -49t-56 -34.5t-76 -13h-166z" />
    <glyph glyph-name="z" unicode="z" horiz-adv-x="488" 
d="M58 515h379v-101l-246 -310h257v-104h-398v104q54 75 111.5 152t114.5 155h-218v104z" />
    <glyph glyph-name="braceleft" unicode="{" horiz-adv-x="422" 
d="M382 -146q-110 0 -174.5 44.5t-64.5 142.5v139q0 44 -29 69.5t-74 40.5v78q44 14 73.5 39.5t29.5 69.5v139q0 49 19 84.5t51 58.5t75.5 34t93.5 11v-91q-56 -5 -77.5 -25t-21.5 -59v-152q0 -26 -3.5 -45.5t-13 -35.5t-26.5 -30t-43 -28q42 -23 64 -54.5t22 -85.5v-169
q0 -39 22 -59.5t77 -25.5v-90z" />
    <glyph glyph-name="bar" unicode="|" horiz-adv-x="278" 
d="M70 -141v939h138v-939h-138z" />
    <glyph glyph-name="braceright" unicode="}" horiz-adv-x="422" 
d="M40 -146v90q55 5 77 25.5t22 59.5v169q0 54 22 85.5t64 54.5q-26 14 -43 28t-26.5 30t-13 35.5t-3.5 45.5v152q0 39 -21.5 59t-77.5 25v91q49 0 93 -11t76 -34t51 -58.5t19 -84.5v-139q0 -44 29.5 -69.5t73.5 -39.5v-78q-45 -15 -74 -40.5t-29 -69.5v-139
q0 -98 -64.5 -142.5t-174.5 -44.5z" />
    <glyph glyph-name="asciitilde" unicode="~" horiz-adv-x="659" 
d="M228 485q37 -5 72.5 -27t68.5 -51q17 -14 31.5 -22t35.5 -10q13 -1 26 7.5t24.5 23t20 33t13.5 37.5l111 -37q-9 -39 -28.5 -72t-46.5 -56t-60.5 -34t-71.5 -7q-23 2 -53 10.5t-56 30.5q-28 23 -50 43.5t-48 23.5q-13 1 -25.5 -7t-23.5 -21.5t-20 -30.5t-15 -33l-105 45
q10 29 28 58.5t43.5 52.5t57.5 35.5t71 7.5z" />
    <glyph glyph-name="cid208" unicode="&#xa1;" horiz-adv-x="900" 
d="M532 327v-574h-174l33 574h141zM542 550v-142h-166l13 142h153z" />
    <glyph glyph-name="cid214" unicode="&#xa4;" horiz-adv-x="900" 
d="M177 454q0 31 33 73l-89 89l83 83l95 -96q35 19 66 19h193q26 0 52 -9l86 86l83 -83l-74 -74q10 -14 15.5 -29t5.5 -29v-203q0 -14 -9 -32.5t-23 -38.5l85 -85l-83 -84l-91 91q-35 -19 -67 -19h-193q-30 0 -57 12l-84 -84l-82 84l75 75q-20 31 -20 56v198zM314 272
q0 -23 14 -39t44 -16h134q15 0 29.5 8.5t26.5 20.5t19.5 26t7.5 25v166q0 23 -12.5 39t-40.5 16h-138q-15 0 -30 -8.5t-27 -20.5t-19.5 -26t-7.5 -25v-166z" />
    <glyph glyph-name="cid155" unicode="&#xa7;" horiz-adv-x="484" 
d="M426 174v-47q0 -21 -6 -43.5t-23.5 -41t-50 -30.5t-85.5 -12h-211v104h202q18 0 26 8t8 22v43q0 8 -4.5 10.5t-8.5 4.5l-174 49q-27 8 -42.5 29t-15.5 63v36q0 26 11 49.5t28 42.5q-19 14 -29 41.5t-10 61.5v46q0 31 10 53t26.5 36t37.5 20.5t44 6.5h246v-104h-205
q-5 0 -12 -1.5t-7 -14.5v-52q0 -13 6 -17.5t17 -8.5l47 -13h1l114 -32q19 -6 31 -15t18.5 -20t8.5 -22t2 -21v-47q0 -20 -10.5 -45.5t-33.5 -47.5q14 -8 22.5 -20t13.5 -25t6.5 -25t1.5 -21zM181 405v-62q0 -13 6 -17.5t17 -8.5l48 -12q17 -5 25.5 5.5t8.5 24.5v53
q0 8 -4.5 10.5t-8.5 4.5l-73 18q-5 1 -12 -1t-7 -15z" />
    <glyph glyph-name="cid107" unicode="&#xa8;" horiz-adv-x="644" 
d="M96 670v130h142v-130h-142zM406 670v130h142v-130h-142z" />
    <glyph glyph-name="cid668" unicode="&#xaa;" horiz-adv-x="550" 
d="M173 365q-42 0 -62.5 19.5t-20.5 69.5v95q0 29 18 51.5t48 22.5h164v20q0 8 -1 16.5t-5.5 15.5t-14 11.5t-27.5 4.5h-147v92h162q59 0 91 -11t46.5 -33.5t17 -55.5t2.5 -76v-130q0 -61 -29 -86.5t-87 -25.5h-155zM320 531h-91q-8 0 -12 -6t-4 -12v-44q0 -5 1.5 -8
t11.5 -3h65q11 0 20 3t9 24v46zM71 216v96h395v-96h-395z" />
    <glyph glyph-name="cid109" unicode="&#xad;" horiz-adv-x="680" 
d="M46 431h586v-106h-586v106z" />
    <glyph glyph-name="cid18352" unicode="&#xae;" horiz-adv-x="1000" 
d="M19 351q0 100 38 187.5t103 153t153 103.5t187 38q100 0 187.5 -38t153 -103.5t103.5 -153t38 -187.5q0 -99 -38 -187t-103.5 -153t-153 -103t-187.5 -38q-99 0 -187 38t-153 103t-103 153t-38 187zM104 351q0 -81 31.5 -153.5t85.5 -127t126 -86t153 -31.5
q82 0 154 31.5t126 86t85.5 127t31.5 153.5q0 82 -31.5 154.5t-85.5 127t-126 86t-154 31.5q-81 0 -153 -31.5t-126 -86t-85.5 -127t-31.5 -154.5zM582 607q47 0 66.5 -19.5t19.5 -66.5v-85q0 -37 -15 -66.5t-43 -48.5l81 -222h-100l-72 197h-93v-197h-100v444q0 11 2 16
t6 7l41 35q5 4 11 5t11 1h185zM426 533v-163h91q28 0 40 19t12 47v84q0 13 -14 13h-129z" />
    <glyph glyph-name="cid138" unicode="&#xb0;" horiz-adv-x="427" 
d="M59 622q0 27 11.5 51.5t31.5 43t46.5 29t56.5 10.5t56.5 -10.5t46.5 -29t31.5 -43t11.5 -51.5t-11.5 -51.5t-31.5 -43t-46.5 -29t-56.5 -10.5t-56.5 10.5t-46.5 29t-31.5 43t-11.5 51.5zM152 622q0 -21 15 -35.5t38 -14.5t38 14.5t15 35.5t-15 35t-38 14t-38 -14t-15 -35
z" />
    <glyph glyph-name="cid130" unicode="&#xb1;" horiz-adv-x="630" 
d="M52 128h526v-103h-526v103zM248 200v199h-201v106h201v189h137v-189h198v-106h-198v-199h-137z" />
    <glyph glyph-name="cid843" unicode="&#xb2;" horiz-adv-x="500" 
d="M265 555q1 2 2 5t1 7v51q0 8 -3.5 13.5t-11.5 5.5h-144v89h162q17 0 36 -10.5t34.5 -26t26 -33.5t10.5 -34v-56q0 -25 -11 -40.5t-28 -28.5q-32 -25 -62.5 -49t-62.5 -48v-25h171v-89h-280v125q0 17 5 27t17 18z" />
    <glyph glyph-name="cid844" unicode="&#xb3;" horiz-adv-x="500" 
d="M110 726h169q16 0 35 -10.5t34.5 -26t26 -34t10.5 -34.5v-29q0 -16 -8 -33.5t-22 -30.5q15 -10 25 -26.5t10 -46.5v-48q0 -13 -12.5 -33.5t-31 -40t-39 -33.5t-36.5 -14h-166v89h144q4 0 9.5 4t10.5 9.5t9 11.5t4 11v54q0 2 -0.5 5.5t-3.5 3.5h-150v88h115q14 0 23.5 7
t9.5 27v22q0 8 -4 13.5t-12 5.5h-150v89z" />
    <glyph glyph-name="cid199" unicode="&#xb4;" horiz-adv-x="318" 
d="M124 750h170l-139 -266h-117z" />
    <glyph glyph-name="cid244" unicode="&#xb6;" horiz-adv-x="900" 
d="M647 726v-924h-69v848h-56v-848h-67v450q-44 4 -81.5 25.5t-64.5 54.5t-42 74t-15 85t15.5 86.5t45 75.5t70.5 53t92 20h172z" />
    <glyph glyph-name="cid104" unicode="&#xb7;" horiz-adv-x="500" 
d="M176 310v130h142v-130h-142z" />
    <glyph glyph-name="cid206" unicode="&#xb8;" horiz-adv-x="400" 
d="M251 20l-11 -55q45 -8 73.5 -42t28.5 -78q0 -37 -17 -62.5t-43 -42t-56.5 -24t-57.5 -7.5q-5 0 -17 0.5t-26 1t-28.5 1t-24.5 1.5v92q6 -1 15 -1.5t18.5 -1t18 -0.5h12.5q31 0 52 9.5t21 33.5q0 7 -4 16t-14 16.5t-27.5 12.5t-44.5 5q-8 0 -15.5 -0.5t-16.5 -1.5l30 142z
" />
    <glyph glyph-name="cid842" unicode="&#xb9;" horiz-adv-x="500" 
d="M200 286v306h-70v89q11 0 23.5 3t23.5 8.5t18.5 14t7.5 19.5h106v-440h-109z" />
    <glyph glyph-name="cid675" unicode="&#xba;" horiz-adv-x="550" 
d="M71 216v96h395v-96h-395zM74 632q0 19 15.5 45t40 49.5t54.5 40t59 16.5h66q29 0 56 -12t48 -30t34 -40t13 -42v-143q0 -18 -15.5 -44t-40 -50t-54.5 -40.5t-59 -16.5h-66q-29 0 -56.5 13t-48.5 32.5t-33.5 42t-12.5 41.5v138zM197 508q0 -21 12.5 -35t39.5 -14h13
q13 0 26.5 7.5t24 18.5t17 23.5t6.5 22.5v109q0 21 -11 35.5t-36 14.5h-16q-14 0 -27.5 -7.5t-24 -18.5t-17.5 -23.5t-7 -22.5v-110z" />
    <glyph glyph-name="cid751" unicode="&#xbc;" horiz-adv-x="900" 
d="M679 796l-372 -841h-127l371 841h128zM162 337v306h-70v89q11 0 23.5 3t23.5 8.5t18.5 14t7.5 19.5h106v-440h-109zM655 -50v72h-172v80l178 288h101v-279h45v-89h-45v-72h-107zM655 111v102l-67 -102h67z" />
    <glyph glyph-name="cid748" unicode="&#xbd;" horiz-adv-x="900" 
d="M673 796l-372 -841h-127l371 841h128zM156 337v306h-70v89q11 0 23.5 3t23.5 8.5t18.5 14t7.5 19.5h106v-440h-109zM693 219q3 3 3 12v51q0 8 -3.5 13.5t-11.5 5.5h-144v89h162q17 0 36 -10.5t34.5 -26t26 -33.5t10.5 -34v-56q0 -25 -11 -41t-28 -28l-125 -87v-35h171
v-89h-280v125q0 17 5 27t17 18z" />
    <glyph glyph-name="cid752" unicode="&#xbe;" horiz-adv-x="900" 
d="M702 796l-372 -841h-127l371 841h128zM678 -50v72h-172v80l178 288h101v-279h45v-89h-45v-72h-107zM678 111v102l-67 -102h67zM75 777h169q16 0 35 -10.5t34.5 -26t26 -34t10.5 -34.5v-29q0 -16 -8 -33.5t-22 -30.5q15 -10 25 -26.5t10 -46.5v-48q0 -13 -12.5 -33.5
t-31 -40t-39 -33.5t-36.5 -14h-166v89h144q4 0 9.5 4t10.5 9.5t9 11.5t4 11v54q0 2 -0.5 5.5t-3.5 3.5h-150v88h115q14 0 23.5 7t9.5 27v22q0 8 -4 13.5t-12 5.5h-150v89z" />
    <glyph glyph-name="cid209" unicode="&#xbf;" horiz-adv-x="900" 
d="M502 334v-142l-141 -150q-19 -22 -19 -53v-75q0 -26 16 -42t40 -16h70q13 0 28.5 10.5t29 25t22.5 30.5t9 27v61h142v-82q0 -20 -20.5 -50.5t-50.5 -59t-62.5 -48.5t-56.5 -20h-135q-24 0 -54 14.5t-57 36t-45 47t-18 46.5v89q0 35 9 64t27 47l114 109l11 131h141z
M518 557v-142h-166l13 142h153z" />
    <glyph glyph-name="cid666" unicode="&#xc6;" horiz-adv-x="900" 
d="M815 325h-248v-219h287v-106h-429v212h-165l-97 -212h-138l303 670q5 10 9.5 20.5t10.5 18t15 12.5t23 5h468v-106h-287v-189h271zM425 318v256l-117 -256h117z" />
    <glyph glyph-name="cid667" unicode="&#xd0;" horiz-adv-x="750" 
d="M178 325h-121v106h121v204q0 15 3 22t8 11l59 49q7 6 15 7.5t16 1.5h247q34 0 64.5 -12.5t53.5 -33.5t36 -48t13 -57v-398q0 -26 -17.5 -57t-43.5 -57.5t-56.5 -44.5t-56.5 -18h-341v325zM484 106q12 0 24 6.5t21.5 17t15.5 22.5t6 23v390q0 31 -19 43t-42 12h-170v-189
h156v-106h-156v-219h164z" />
    <glyph glyph-name="cid131" unicode="&#xd7;" horiz-adv-x="630" 
d="M71 217l161 161l-161 161l82 83l161 -162l162 162l83 -83l-162 -161l162 -161l-83 -83l-162 161l-161 -161z" />
    <glyph glyph-name="cid673" unicode="&#xd8;" horiz-adv-x="700" 
d="M633 168q0 -20 -20.5 -50.5t-50.5 -59t-62.5 -48.5t-56.5 -20h-178l-28 -73h-128l43 111q-17 12 -32.5 26t-27.5 29t-19 29t-7 26v420q0 20 20.5 50.5t50.5 59t62.5 48.5t56.5 20h173l26 65h128l-40 -101q18 -12 34.5 -26.5t28.5 -29.5t19.5 -29.5t7.5 -26.5v-420z
M491 189v377l-184 -470h103q10 0 24 10.5t26.5 25t21.5 30.5t9 27zM208 537v-367l180 460h-99q-10 0 -24 -10.5t-26.5 -25t-21.5 -30.5t-9 -27z" />
    <glyph glyph-name="cid676" unicode="&#xde;" horiz-adv-x="550" 
d="M61 0v726h137v-131h200q101 0 101 -107v-163q0 -29 -6 -60t-27 -56.5t-61.5 -42t-109.5 -16.5h-97v-150h-137zM198 491v-237h84q13 0 27.5 1.5t26 9t19 22.5t7.5 41v141q0 17 -10 19.5t-13 2.5h-141z" />
    <glyph glyph-name="cid768" unicode="&#xdf;" horiz-adv-x="600" 
d="M189 0h-140v635q0 15 3 22t8 11l59 49q7 6 15 7.5t16 1.5h250q42 0 68 -9t41 -26t20 -42t5 -56v-101q0 -46 -17.5 -71t-40.5 -36q28 -9 51 -34.5t23 -70.5v-109q0 -25 -18 -54.5t-43.5 -55.5t-54.5 -43.5t-51 -17.5h-140v106h104q8 0 19 7t20.5 17t16.5 21t7 20v114
q0 26 -11.5 33t-26.5 7h-183v-325zM189 621v-190h156q32 0 40.5 12t8.5 35v116q0 13 -6 20t-25 7h-174z" />
    <glyph glyph-name="cid757" unicode="&#xe6;" horiz-adv-x="820" 
d="M688 515q45 0 68 -22t23 -76v-133q0 -15 -5 -30t-14.5 -26t-23 -18t-29.5 -7h-224v-47q0 -9 1 -18.5t6 -18t16 -13.5t32 -5h213v-101h-211q-42 0 -77.5 11.5t-47.5 28.5q-15 -18 -40 -29t-50 -11h-183q-46 0 -69 22t-23 77v136q0 32 20 57t53 25h223v32q0 9 -2.5 20
t-9.5 20.5t-19.5 16t-32.5 6.5h-193v103h200q39 0 71.5 -11t47.5 -31q17 16 39 29t47 13h194zM483 295h140q10 0 14.5 6.5t4.5 14.5v84q0 6 -2 10t-13 4h-100q-13 0 -28.5 -9t-15.5 -33v-77zM346 214h-141q-9 0 -13.5 -6.5t-4.5 -13.5v-78q0 -5 1.5 -9t12.5 -4h112
q12 0 22.5 3.5t10.5 26.5v81z" />
    <glyph glyph-name="cid759" unicode="&#xf0;" horiz-adv-x="590" 
d="M160 535l67 85h-93v106h178l51 64h148l-79 -99q19 -15 37 -34.5t31 -39t21 -38t8 -31.5v-410q0 -20 -19 -46t-47 -48.5t-59 -38t-55 -15.5h-128q-24 0 -54.5 17.5t-57 43t-45 53.5t-18.5 48v169q0 20 18 46t44 48.5t56.5 38t56.5 15.5h88q17 0 37 -12t41 -27v97
q0 12 -10 30.5t-24 34.5l-45 -57h-148zM188 174q0 -12 6.5 -25.5t16.5 -25t22 -19.5t23 -8h60q28 0 49.5 17t21.5 46v131q0 11 -9 23.5t-21.5 23.5t-26.5 18.5t-24 7.5h-62q-56 0 -56 -68v-121z" />
    <glyph glyph-name="cid132" unicode="&#xf7;" horiz-adv-x="630" 
d="M47 431h536v-106h-536v106zM245 528v130h142v-130h-142zM245 98v130h142v-130h-142z" />
    <glyph glyph-name="cid766" unicode="&#xf8;" horiz-adv-x="723" 
d="M147 -100l44 113q-19 11 -35 26t-27.5 31.5t-18 32.5t-6.5 30v224q0 21 17 49.5t44 55t60.5 45t66.5 18.5h100l40 101h118l-51 -131q32 -21 53 -51t21 -57v-229q0 -21 -17 -49.5t-44 -55t-60.5 -45t-66.5 -18.5h-85l-35 -90h-118zM231 149q0 -15 4 -24l116 296h-36
q-15 0 -30 -8.5t-27 -20.5t-19.5 -26t-7.5 -25v-192zM363 94q15 0 29.5 8.5t26.5 20.5t19.5 26t7.5 25v186l-105 -266h22z" />
    <glyph glyph-name="cid769" unicode="&#xfe;" horiz-adv-x="550" 
d="M61 -200v936h137v-221h200q101 0 101 -107v-233q0 -29 -6 -60t-27 -56.5t-61.5 -42t-109.5 -16.5h-97v-200h-137zM198 411v-307h84q13 0 27.5 1.5t26 9t19 22.5t7.5 41v211q0 17 -10 19.5t-13 2.5h-141z" />
    <glyph glyph-name="cid758" unicode="&#x111;" horiz-adv-x="610" 
d="M246 575v106h103v55h137v-55h96v-106h-96v-575h-257q-63 0 -100 16.5t-56.5 42t-25.5 56.5t-6 60v216q0 68 32 96t95 28h181v60h-103zM203 411q-11 0 -18 -6t-7 -23v-217q0 -38 18.5 -49.5t46.5 -11.5h106v307h-146z" />
    <glyph glyph-name="cid669" unicode="&#x126;" horiz-adv-x="820" 
d="M153 0v541h-100v106h100v79h142v-79h230v79h142v-79h100v-106h-100v-541h-142v325h-230v-325h-142zM525 431v110h-230v-110h230z" />
    <glyph glyph-name="cid760" unicode="&#x127;" horiz-adv-x="630" 
d="M41 575v106h90v55h138v-55h108v-106h-108v-60h193q21 0 41.5 -5.5t36.5 -19.5t26 -37.5t10 -59.5v-393h-138v383q0 12 -4 20t-21 8h-144v-411h-138v575h-90z" />
    <glyph glyph-name="cid761" unicode="&#x131;" horiz-adv-x="282" 
d="M71 0v515h141v-515h-141z" />
    <glyph glyph-name="cid670" unicode="&#x132;" horiz-adv-x="700" 
d="M82 0v726h142v-726h-142zM284 40h133q26 0 42 17.5t16 41.5v627h142v-628q0 -27 -15 -56t-38 -53t-50.5 -39.5t-52.5 -15.5h-177v106z" />
    <glyph glyph-name="cid762" unicode="&#x133;" horiz-adv-x="550" 
d="M71 0v515h141v-515h-141zM71 602v97q0 23 9 30t19 7h127q-5 -33 -11 -67t-11 -67h-133zM333 602v97q0 23 9 30t19 7h127q-5 -33 -11 -67t-11 -67h-133zM333 515h141v-554q0 -35 -13.5 -64.5t-38 -51t-59 -33.5t-75.5 -12h-95v105h75q32 0 48.5 11.5t16.5 52.5v546z" />
    <glyph glyph-name="cid763" unicode="&#x138;" horiz-adv-x="550" 
d="M45 0v515h137v-183l99 124q17 21 44.5 40t69.5 19h102v-104h-60q-15 0 -29.5 -7.5t-24.5 -18.5l-97 -117l245 -268h-164l-185 210v-210h-137z" />
    <glyph glyph-name="cid671" unicode="&#x13f;" horiz-adv-x="540" 
d="M56 0v726h142v-620h286v-106h-428zM331 410v130h142v-130h-142z" />
    <glyph glyph-name="cid764" unicode="&#x140;" horiz-adv-x="520" 
d="M66 0v726h142v-726h-142zM308 300v130h142v-130h-142z" />
    <glyph glyph-name="cid672" unicode="&#x141;" horiz-adv-x="670" 
d="M216 0v167l-53 -60h-148l201 229v390h142v-228l100 114h148l-248 -283v-223h286v-106h-428z" />
    <glyph glyph-name="cid765" unicode="&#x142;" horiz-adv-x="615" 
d="M226 0v179l-63 -72h-148l211 240v379h142v-217l90 103h148l-238 -271v-341h-142z" />
    <glyph glyph-name="cid772" unicode="&#x149;" horiz-adv-x="710" 
d="M302 515h177q32 0 62.5 -14.5t54 -36.5t37.5 -46.5t14 -45.5v-372h-140v356q0 21 -14 37t-41 18h-111v-411h-140v424q0 15 3 22t8 11l59 49q7 6 15 7.5t16 1.5zM70 468l38 128h-52v130h142v-131l-64 -127h-64z" />
    <glyph glyph-name="cid678" unicode="&#x14a;" horiz-adv-x="630" 
d="M577 726v-725q0 -38 -15 -74t-46 -64t-79 -45.5t-114 -17.5h-70v126h70q50 0 76 19t37 63l-248 530v-538h-135v726h182q33 0 40 -25l166 -414v439h136z" />
    <glyph glyph-name="cid771" unicode="&#x14b;" horiz-adv-x="580" 
d="M168 515h177q32 0 62.5 -14.5t54 -36.5t37.5 -46.5t14 -45.5v-324q0 -49 -14.5 -94t-45.5 -79t-78.5 -54.5t-113.5 -20.5h-30v126h30q50 0 81 28t31 94v308q0 21 -14 37t-41 18h-111v-411h-140v424q0 15 3 22t8 11l59 49q7 6 15 7.5t16 1.5z" />
    <glyph glyph-name="cid674" unicode="&#x152;" horiz-adv-x="840" 
d="M759 325h-238v-219h277v-106h-587q-28 0 -56.5 11t-51.5 29t-37.5 41t-14.5 47v447q0 30 13 57t36 48t53 33.5t65 12.5h580v-106h-277v-189h261zM249 106h140v514h-135q-23 0 -42 -12t-19 -43v-396q0 -28 15 -44.5t41 -18.5z" />
    <glyph glyph-name="cid767" unicode="&#x153;" horiz-adv-x="820" 
d="M44 357q0 21 17 49.5t44 55t60.5 45t66.5 18.5h83q25 0 50.5 -13t43.5 -30q17 13 39 23t46 10h194q45 0 68 -22t23 -76v-133q0 -15 -5 -30t-14.5 -26t-23 -18t-29.5 -7h-224v-47q0 -9 1 -18.5t6 -18t16 -13.5t32 -5h213v-101h-211q-49 0 -82 10t-55 30q-25 -20 -53 -35
t-55 -15h-83q-32 0 -62.5 14.5t-54 36.5t-37.5 46.5t-14 45.5v224zM181 149q0 -23 14 -39t44 -16h24q15 0 29.5 8.5t26.5 20.5t19.5 26t7.5 25v192q0 23 -12.5 39t-40.5 16h-28q-15 0 -30 -8.5t-27 -20.5t-19.5 -26t-7.5 -25v-192zM483 295h140q10 0 14.5 6.5t4.5 14.5v84
q0 6 -2 10t-13 4h-110q-12 0 -22.5 -3.5t-11.5 -24.5v-91z" />
    <glyph glyph-name="cid677" unicode="&#x166;" horiz-adv-x="563" 
d="M77 465h134v155h-194v106h530v-106h-194v-155h134v-106h-134v-359h-142v359h-134v106z" />
    <glyph glyph-name="cid770" unicode="&#x167;" horiz-adv-x="474" 
d="M62 282v104h83v85h-83v104h83v78q0 14 5.5 24t20.5 15q28 8 57 16l58 16v-149h159l-20 -104h-139v-85h159l-20 -104h-139v-142q0 -25 11 -30.5t23 -5.5h114v-104h-165q-69 0 -96.5 30t-27.5 98v154h-83z" />
    <glyph glyph-name="cid201" unicode="&#x2c7;" horiz-adv-x="550" 
d="M41 997h152l83 -121l82 121h154l-163 -215h-145z" />
    <glyph glyph-name="cid210" unicode="&#x2d0;" horiz-adv-x="330" 
d="M312 746l-146 -299l-145 299h291zM21 -20l145 299l146 -299h-291z" />
    <glyph glyph-name="cid202" unicode="&#x2d8;" horiz-adv-x="479" 
d="M447 991q0 -45 -17 -81.5t-45.5 -62.5t-66 -40.5t-79.5 -14.5q-44 0 -82 15t-66.5 41.5t-45 63t-16.5 79.5h138q0 -44 18.5 -68.5t53.5 -24.5q36 0 53 24.5t19 68.5h136z" />
    <glyph glyph-name="cid205" unicode="&#x2d9;" horiz-adv-x="250" 
d="M205 813h-156v148h156v-148z" />
    <glyph glyph-name="cid204" unicode="&#x2da;" horiz-adv-x="350" 
d="M29 896q0 27 11.5 51.5t31.5 43t46.5 29t56.5 10.5t56.5 -10.5t46.5 -29t31.5 -43t11.5 -51.5t-11.5 -51.5t-31.5 -43t-46.5 -29t-56.5 -10.5t-56.5 10.5t-46.5 29t-31.5 43t-11.5 51.5zM122 896q0 -21 15 -35.5t38 -14.5t38 14.5t15 35.5t-15 35t-38 14t-38 -14t-15 -35
z" />
    <glyph glyph-name="cid207" unicode="&#x2db;" horiz-adv-x="315" 
d="M224 0q-32 -2 -50 -16t-18 -34q0 -26 17 -35t42 -9h73v-106h-82q-33 0 -66.5 7.5t-60 23.5t-43.5 42t-17 64q0 58 37 95.5t94 57.5z" />
    <glyph glyph-name="cid203" unicode="&#x2dd;" horiz-adv-x="513" 
d="M107 1012h159l-118 -234h-113zM321 1012h159l-118 -234h-113z" />
    <glyph glyph-name="cid471" unicode="&#x391;" horiz-adv-x="616" 
d="M423 212h-228l-48 -212h-138l163 670q5 23 17.5 39.5t40.5 16.5h158q28 0 40.5 -18t17.5 -38l163 -670h-138zM323 620h-9q-13 0 -17 -4.5t-7 -17.5l-68 -280h173z" />
    <glyph glyph-name="cid472" unicode="&#x392;" horiz-adv-x="580" 
d="M401 726q42 0 68 -9t41 -26t20 -42t5 -56v-101q0 -46 -17.5 -71t-40.5 -36q28 -9 51 -34.5t23 -70.5v-109q0 -25 -18 -54.5t-43.5 -55.5t-54.5 -43.5t-51 -17.5h-334v635q0 15 3 22t8 11l59 49q7 6 15 7.5t16 1.5h250zM411 285q0 26 -11.5 33t-26.5 7h-183v-219h158
q8 0 19 7t20.5 17t16.5 21t7 20v114zM190 621v-190h156q32 0 40.5 12t8.5 35v116q0 13 -6 20t-25 7h-174z" />
    <glyph glyph-name="cid473" unicode="&#x393;" horiz-adv-x="519" 
d="M478 726v-106h-286v-620h-142v726h428z" />
    <glyph glyph-name="cid474" unicode="&#x394;" horiz-adv-x="730" 
d="M698 0h-667l200 670q7 23 18.5 39.5t39.5 16.5h151q14 0 23.5 -5t16.5 -13t11 -18t7 -20zM213 106h303l-141 514h-2q-13 0 -16.5 -4.5t-7.5 -17.5z" />
    <glyph glyph-name="cid475" unicode="&#x395;" horiz-adv-x="521" 
d="M439 325h-248v-219h287v-106h-429v635q0 15 3 22t8 11l59 49q7 6 15 7.5t16 1.5h328v-106h-287v-189h271z" />
    <glyph glyph-name="cid476" unicode="&#x396;" horiz-adv-x="567" 
d="M62 726h446v-106l-327 -514h351v-106h-493v106l316 514h-293v106z" />
    <glyph glyph-name="cid477" unicode="&#x397;" horiz-adv-x="622" 
d="M46 0v726h142v-295h230v295h142v-726h-142v325h-230v-325h-142z" />
    <glyph glyph-name="cid478" unicode="&#x398;" horiz-adv-x="676" 
d="M626 168q0 -20 -20.5 -50.5t-50.5 -59t-62.5 -48.5t-56.5 -20h-207q-24 0 -55 15.5t-59 38t-47 48.5t-19 46v420q0 20 20.5 50.5t50.5 59t62.5 48.5t56.5 20h207q24 0 55 -15.5t59 -38t47 -48.5t19 -46v-420zM484 567q0 29 -16.5 46t-44.5 17h-151q-10 0 -24 -10.5
t-26.5 -25t-21.5 -30.5t-9 -27v-378q0 -29 21.5 -46t49.5 -17h141q10 0 24 10.5t26.5 25t21.5 30.5t9 27v378zM236 418h206v-103h-206v103z" />
    <glyph glyph-name="cid479" unicode="&#x399;" horiz-adv-x="275" 
d="M66 0v726h142v-726h-142z" />
    <glyph glyph-name="cid480" unicode="&#x39a;" horiz-adv-x="614" 
d="M50 0v726h142v-311l195 311h170l-243 -371l274 -355h-174l-222 303v-303h-142z" />
    <glyph glyph-name="cid481" unicode="&#x39b;" horiz-adv-x="630" 
d="M323 620h-9q-13 0 -17 -4.5t-7 -17.5l-143 -598h-138l163 670q5 23 17.5 39.5t40.5 16.5h158q28 0 40.5 -18t17.5 -38l163 -670h-138z" />
    <glyph glyph-name="cid482" unicode="&#x39c;" horiz-adv-x="888" 
d="M187 583v-583h-137v667q0 24 9 41.5t35 17.5h147q11 0 24 -7t22 -28l150 -360l150 360q9 21 22 28t24 7h147q26 0 35 -17.5t9 -41.5v-667h-137v583l-178 -392h-144z" />
    <glyph glyph-name="cid483" unicode="&#x39d;" horiz-adv-x="630" 
d="M577 0h-154q-16 0 -29.5 6t-21.5 26l-184 506v-538h-135v726h202q33 0 40 -25l146 -474v499h136v-726z" />
    <glyph glyph-name="cid484" unicode="&#x39e;" horiz-adv-x="650" 
d="M67 620v106h514v-106h-514zM67 106h516v-106h-516v106zM124 431h407v-106h-407v106z" />
    <glyph glyph-name="cid485" unicode="&#x39f;" horiz-adv-x="676" 
d="M626 168q0 -20 -20.5 -50.5t-50.5 -59t-62.5 -48.5t-56.5 -20h-207q-24 0 -55 15.5t-59 38t-47 48.5t-19 46v420q0 20 20.5 50.5t50.5 59t62.5 48.5t56.5 20h207q24 0 55 -15.5t59 -38t47 -48.5t19 -46v-420zM484 567q0 29 -16.5 46t-44.5 17h-151q-10 0 -24 -10.5
t-26.5 -25t-21.5 -30.5t-9 -27v-378q0 -29 21.5 -46t49.5 -17h141q10 0 24 10.5t26.5 25t21.5 30.5t9 27v378z" />
    <glyph glyph-name="cid486" unicode="&#x3a0;" horiz-adv-x="598" 
d="M552 726v-726h-142v620h-218v-620h-142v726h502z" />
    <glyph glyph-name="cid487" unicode="&#x3a1;" horiz-adv-x="578" 
d="M192 0h-142v635q0 15 3 22t8 11l59 49q7 6 15 7.5t16 1.5h279q67 0 94 -28t27 -95v-152q0 -26 -17.5 -57t-43.5 -57.5t-56.5 -44.5t-56.5 -18h-185v-274zM192 380h150q12 0 24 6.5t21.5 17t15.5 22.5t6 23v153q0 18 -20 18h-197v-240z" />
    <glyph glyph-name="cid488" unicode="&#x3a3;" horiz-adv-x="700" 
d="M33 0v47l316 323l-314 281v75h631v-85h-439l272 -248l-274 -274h441v-119h-633z" />
    <glyph glyph-name="cid489" unicode="&#x3a4;" horiz-adv-x="563" 
d="M12 726h530v-106h-194v-620h-142v620h-194v106z" />
    <glyph glyph-name="cid490" unicode="&#x3a5;" horiz-adv-x="594" 
d="M296 367q8 0 11.5 5.5t7.5 16.5l117 337h152l-163 -433q-8 -20 -24 -28t-29 -8v-257h-142v257q-13 0 -29 8t-24 28l-163 433h152l117 -337q8 -22 17 -22z" />
    <glyph glyph-name="cid491" unicode="&#x3a6;" horiz-adv-x="720" 
d="M287 0v113h-59q-32 0 -62.5 14.5t-54 36.5t-37.5 46.5t-14 45.5v198q0 21 17 49.5t44 55t60.5 45t66.5 18.5h39v104h142v-104h62q32 0 62.5 -13t54 -33.5t37.5 -45t14 -46.5v-203q0 -21 -17 -49.5t-44 -55t-60.5 -45t-66.5 -18.5h-42v-113h-142zM439 217q15 0 29.5 8.5
t26.5 20.5t19.5 26t7.5 25v166q0 23 -12.5 39t-40.5 16h-40v-301h10zM197 272q0 -23 14 -39t44 -16h32v301h-6q-15 0 -30 -8.5t-27 -20.5t-19.5 -26t-7.5 -25v-166z" />
    <glyph glyph-name="cid492" unicode="&#x3a7;" horiz-adv-x="652" 
d="M26 0l219 367l-214 359h148l140 -235l140 235h148l-214 -359l220 -367h-148l-146 243l-145 -243h-148z" />
    <glyph glyph-name="cid493" unicode="&#x3a8;" horiz-adv-x="750" 
d="M310 0v211h-88q-32 0 -62.5 14.5t-54 36.5t-37.5 46.5t-14 45.5v372h140v-356q0 -21 14 -37t41 -18h61v411h142v-411h103v411h140v-426q0 -15 -3 -22t-8 -11l-55 -47q-7 -6 -15 -7.5t-16 -1.5h-146v-211h-142z" />
    <glyph glyph-name="cid494" unicode="&#x3a9;" horiz-adv-x="700" 
d="M409 252q9 5 23 16t26.5 24.5t22 27.5t9.5 25v222q0 29 -16.5 46t-44.5 17h-141q-10 0 -24 -10.5t-26.5 -25t-21.5 -30.5t-9 -27v-222q0 -15 6.5 -25t16.5 -17.5t22.5 -13t25.5 -11.5q14 -6 26.5 -21.5t12.5 -33.5v-193h-257v106h115v63q-21 12 -40.5 28t-35 33t-25 33.5
t-9.5 30.5v264q0 20 20.5 50.5t50.5 59t62.5 48.5t56.5 20h197q24 0 55 -15.5t59 -38t47 -48.5t19 -46v-264q0 -14 -9.5 -32t-25 -37.5t-35.5 -39t-41 -34.5v-75h118v-106h-260v209q0 13 9.5 25t20.5 18z" />
    <glyph glyph-name="cid495" unicode="&#x3b1;" horiz-adv-x="650" 
d="M45 357q0 21 17 49.5t44 55t60.5 45t66.5 18.5h103q26 0 51.5 -16t48.5 -39q5 10 12.5 23t12.5 22h121q-13 -25 -25 -46.5t-21 -47t-15 -59t-7 -82.5v-21q1 -47 9 -80t20.5 -55.5t28.5 -37.5t32 -27l-91 -79q-20 13 -38.5 28t-35.5 33q-26 -22 -55 -36.5t-58 -14.5h-113
q-32 0 -62.5 14.5t-54 36.5t-37.5 46.5t-14 45.5v224zM182 149q0 -23 14 -39t44 -16h54q15 0 29.5 8.5t26.5 20.5t19.5 26t7.5 25v192q0 23 -12.5 39t-40.5 16h-58q-15 0 -30 -8.5t-27 -20.5t-19.5 -26t-7.5 -25v-192z" />
    <glyph glyph-name="cid496" unicode="&#x3b2;" horiz-adv-x="600" 
d="M192 -200h-140v926h315q25 0 48.5 -9.5t42 -26.5t29.5 -40.5t11 -50.5v-73q0 -13 -2.5 -27.5t-8 -28.5t-13.5 -26.5t-20 -21.5q19 -5 36.5 -18.5t30 -30.5t20 -37t7.5 -38v-123q0 -29 -6 -60t-27 -56.5t-61.5 -42t-109.5 -16.5h-152v-200zM252 455h29q13 0 27.5 1.5t26 9
t19 22.5t7.5 41v49q0 23 -14.5 32.5t-38.5 9.5h-116v-514h139q13 0 27.5 1.5t26 9t19 22.5t7.5 41v99q0 34 -19.5 53t-53.5 19h-86v104z" />
    <glyph glyph-name="cid497" unicode="&#x3b3;" horiz-adv-x="600" 
d="M342 166q24 -89 34 -140.5t10 -72.5q0 -34 -14 -62t-35.5 -48.5t-47.5 -31.5t-50 -11q-42 0 -73 10.5t-50.5 28.5t-29 43t-9.5 53q0 24 8 48.5t23 53t36.5 62t48.5 74.5l-37 199q-5 23 -27 31t-48 8h-53v104h51q43 0 75 -6.5t54.5 -20.5t36 -37t20.5 -56l22 -93l132 213
h152zM231 -93q20 0 29 13t9 33q0 3 -1 7.5t-3.5 15.5t-7.5 30t-14 51l-43 -70q-11 -19 -11 -37q2 -25 13.5 -34t28.5 -9z" />
    <glyph glyph-name="cid498" unicode="&#x3b4;" horiz-adv-x="549" 
d="M34 357q0 19 15 45.5t39 51.5q-50 55 -50 111q0 32 13.5 61.5t42.5 51.5t74 35t108 13h140v-106h-173q-42 0 -57 -17.5t-15 -35.5q0 -27 24 -45q13 3 27 3h113q32 0 62.5 -13t54 -33.5t37.5 -45t14 -46.5v-229q0 -21 -17 -49.5t-44 -55t-60.5 -45t-66.5 -18.5h-113
q-32 0 -62.5 14.5t-54 36.5t-37.5 46.5t-14 45.5v224zM171 149q0 -23 14 -39t44 -16h54q15 0 29.5 8.5t26.5 20.5t19.5 26t7.5 25v192q0 23 -12.5 39t-40.5 16h-58q-15 0 -30 -8.5t-27 -20.5t-19.5 -26t-7.5 -25v-192z" />
    <glyph glyph-name="cid499" unicode="&#x3b5;" horiz-adv-x="500" 
d="M453 0h-262q-30 0 -56.5 10t-46 25.5t-30.5 35.5t-11 41v50q0 11 1.5 21.5t6 21.5t13.5 22.5t25 24.5q-23 18 -34.5 39.5t-11.5 41.5v48q0 23 13.5 46.5t35.5 43t50 32t57 12.5h250v-103h-202q-39 0 -53.5 -13.5t-14.5 -33.5v-11q0 -28 7 -40.5t33 -12.5h168v-98h-136
q-29 0 -50.5 -12t-21.5 -33v-13q0 -44 51 -44h219v-101z" />
    <glyph glyph-name="cid500" unicode="&#x3b6;" horiz-adv-x="735" 
d="M482 106q38 0 75.5 -5.5t67 -21t48 -44t18.5 -73.5q0 -26 -15 -54t-54.5 -51.5t-108.5 -38.5t-177 -16v106q31 0 69 2t71 7.5t55.5 16t22.5 27.5q0 16 -8 24t-20 11.5t-26.5 3.5h-27.5h-67q-75 0 -135.5 24t-103.5 69.5t-66 110t-23 145.5q0 43 10 79.5t25.5 68t36 59
t41.5 52.5q-29 4 -59 8t-55 10v120q65 -15 127.5 -23t120.5 -8q52 0 111 7t125 21v-119q-38 -11 -80 -14t-80 -9t-71.5 -27.5t-59 -54t-40.5 -75t-15 -90.5q0 -46 12 -90.5t36 -79.5t60 -56.5t83 -21.5h77z" />
    <glyph glyph-name="cid501" unicode="&#x3b7;" horiz-adv-x="540" 
d="M142 515h177q32 0 62.5 -14.5t54 -36.5t37.5 -46.5t14 -45.5v-572h-140v556q0 21 -14 37t-41 18h-111v-411h-140v424q0 15 3 22t8 11l59 49q7 6 15 7.5t16 1.5z" />
    <glyph glyph-name="cid502" unicode="&#x3b8;" horiz-adv-x="676" 
d="M626 168q0 -20 -20.5 -50.5t-50.5 -59t-62.5 -48.5t-56.5 -20h-207q-24 0 -55 15.5t-59 38t-47 48.5t-19 46v420q0 20 20.5 50.5t50.5 59t62.5 48.5t56.5 20h207q24 0 55 -15.5t59 -38t47 -48.5t19 -46v-420zM262 96h141q10 0 24 10.5t26.5 25t21.5 30.5t9 27v126h-293
v-156q0 -29 21.5 -46t49.5 -17zM484 567q0 29 -16.5 46t-44.5 17h-151q-10 0 -24 -10.5t-26.5 -25t-21.5 -30.5t-9 -27v-119h293v149z" />
    <glyph glyph-name="cid503" unicode="&#x3b9;" horiz-adv-x="282" 
d="M71 0v515h141v-515h-141z" />
    <glyph glyph-name="cid504" unicode="&#x3ba;" horiz-adv-x="544" 
d="M41 0v536h137v-204l83 105q35 44 69.5 64.5t71.5 20.5q29 0 67.5 -14t68.5 -46l-59 -81q-17 17 -35 21.5t-29 4.5q-19 0 -34 -18t-31 -37l-68 -84l245 -268h-164l-185 210v-210h-137z" />
    <glyph glyph-name="cid505" unicode="&#x3bb;" horiz-adv-x="680" 
d="M190 566q-8 25 -18.5 38t-27.5 13h-80v109h79q26 0 51.5 -5.5t48 -18.5t40.5 -33.5t29 -50.5l173 -461q11 -29 28.5 -40.5t46.5 -12.5h80v-104h-101q-45 0 -75 8t-51 26t-36.5 48t-31.5 74l-58 152l-107 -308h-140l176 498z" />
    <glyph glyph-name="cid506" unicode="&#x3bc;" horiz-adv-x="530" 
d="M41 -200v715h140v-360q2 -20 15.5 -34.5t39.5 -16.5h106v411h140v-426q0 -15 -3 -22t-8 -11l-55 -47q-7 -6 -15 -7.5t-16 -1.5h-166q-8 0 -20 5t-18 8v-213h-140z" />
    <glyph glyph-name="cid507" unicode="&#x3bd;" horiz-adv-x="511" 
d="M157 515l97 -414h2q30 48 49.5 96t30.5 98.5t14.5 105t1.5 114.5h136q1 -69 -8 -138t-27 -132.5t-44 -118.5t-59 -96q-11 -14 -28 -22t-37 -8h-92q-20 0 -29.5 9t-15.5 31q-30 115 -63.5 237.5t-63.5 237.5h136z" />
    <glyph glyph-name="cid508" unicode="&#x3be;" horiz-adv-x="735" 
d="M60 626v120q65 -15 127.5 -23t120.5 -8q52 0 111 7t125 21v-119q-15 -4 -42 -8.5t-61 -8t-72.5 -6t-77.5 -2.5q-10 -8 -16 -22t-6 -28q0 -9 2 -20t7 -20.5t13 -16t21 -6.5h233v-106h-145q-32 0 -65 -9t-61 -26.5t-45.5 -44t-17.5 -62.5q0 -72 52.5 -102t145.5 -30h57
q38 0 75.5 -5.5t67 -21t48 -44t18.5 -73.5q0 -26 -15 -54t-54.5 -51.5t-108.5 -38.5t-177 -16v106q31 0 69 2t71 7.5t55.5 16t22.5 27.5q0 16 -8 24t-20 11.5t-26.5 3.5h-27.5h-47q-93 0 -157 13t-103.5 41.5t-57 73.5t-17.5 108q0 61 28 109.5t80 87.5q-14 16 -22.5 28
t-13.5 24.5t-7 27t-2 34.5q0 12 5.5 29.5t15.5 31.5q-55 8 -98 18z" />
    <glyph glyph-name="cid509" unicode="&#x3bf;" horiz-adv-x="549" 
d="M34 357q0 21 17 49.5t44 55t60.5 45t66.5 18.5h113q32 0 62.5 -13t54 -33.5t37.5 -45t14 -46.5v-229q0 -21 -17 -49.5t-44 -55t-60.5 -45t-66.5 -18.5h-113q-32 0 -62.5 14.5t-54 36.5t-37.5 46.5t-14 45.5v224zM171 149q0 -23 14 -39t44 -16h54q15 0 29.5 8.5t26.5 20.5
t19.5 26t7.5 25v192q0 23 -12.5 39t-40.5 16h-58q-15 0 -30 -8.5t-27 -20.5t-19.5 -26t-7.5 -25v-192z" />
    <glyph glyph-name="cid510" unicode="&#x3c0;" horiz-adv-x="720" 
d="M309 409v-162q0 -49 -12 -94t-39 -79t-72 -54.5t-111 -20.5h-6v126h6q50 0 71 28t21 94v162h-112v106h599v-106h-112v-269q0 -25 11 -30.5t23 -5.5h89v-104h-140q-69 0 -97 30t-28 98v281h-91z" />
    <glyph glyph-name="cid511" unicode="&#x3c1;" horiz-adv-x="531" 
d="M41 357q0 21 17 49.5t44 55t60.5 45t66.5 18.5h93q32 0 62.5 -13t54 -33.5t37.5 -45t14 -46.5v-229q0 -21 -17 -49.5t-44 -55t-60.5 -45t-66.5 -18.5h-93q-8 0 -15.5 1t-15.5 3v-194h-137v557zM178 149q0 -23 14 -39t44 -16h34q15 0 29.5 8.5t26.5 20.5t19.5 26t7.5 25
v192q0 23 -12.5 39t-40.5 16h-38q-15 0 -30 -8.5t-27 -20.5t-19.5 -26t-7.5 -25v-192z" />
    <glyph glyph-name="cid512" unicode="&#x3c3;" horiz-adv-x="710" 
d="M34 357q0 21 17 49.5t44 55t60.5 45t66.5 18.5h469v-104h-166q8 -19 8 -34v-229q0 -21 -17 -49.5t-44 -55t-60.5 -45t-66.5 -18.5h-143q-32 0 -62.5 14.5t-54 36.5t-37.5 46.5t-14 45.5v224zM171 149q0 -23 14 -39t44 -16h84q15 0 29.5 8.5t26.5 20.5t19.5 26t7.5 25v192
q0 22 -11.5 37.5t-36.5 17.5h-93q-15 0 -30 -8.5t-27 -20.5t-19.5 -26t-7.5 -25v-192z" />
    <glyph glyph-name="cid513" unicode="&#x3c4;" horiz-adv-x="560" 
d="M346 406v-266q0 -25 11 -30.5t23 -5.5h114v-104h-165q-69 0 -96.5 30t-27.5 98v278h-171v109h491v-109h-179z" />
    <glyph glyph-name="cid514" unicode="&#x3c5;" horiz-adv-x="530" 
d="M219 0q-45 0 -78 14.5t-55.5 36.5t-33.5 46.5t-11 45.5v372h140v-356q0 -21 14 -38t41 -17q24 0 43.5 16.5t33.5 43.5t21.5 61.5t7.5 71.5q0 51 -14.5 99.5t-51.5 91.5l110 62q30 -30 48.5 -60t29 -61.5t14.5 -64t4 -67.5q0 -60 -15 -114t-46.5 -94.5t-81.5 -64.5
t-120 -24z" />
    <glyph glyph-name="cid515" unicode="&#x3c6;" horiz-adv-x="720" 
d="M283 -200v190h-60q-32 0 -62.5 14.5t-54 36.5t-37.5 46.5t-14 45.5v224q0 21 17 49.5t44 55t60.5 45t66.5 18.5v-109q-26 -9 -38.5 -31t-12.5 -44v-192q0 -23 14 -39t44 -16h33v327q0 27 15 46.5t37.5 32t49.5 19t51 6.5h61q32 0 62.5 -13t54 -33.5t37.5 -45t14 -46.5
v-229q0 -21 -17 -49.5t-44 -55t-60.5 -45t-66.5 -18.5h-52v-190h-142zM425 408v-314h20q15 0 29.5 8.5t26.5 20.5t19.5 26t7.5 25v192q0 22 -11.5 37.5t-36.5 17.5h-47q-3 0 -5.5 -1.5t-2.5 -11.5z" />
    <glyph glyph-name="cid516" unicode="&#x3c7;" horiz-adv-x="652" 
d="M26 -200l219 362l-214 353h148l140 -231l140 231h148l-214 -353l220 -362h-148l-146 240l-145 -240h-148z" />
    <glyph glyph-name="cid517" unicode="&#x3c8;" horiz-adv-x="730" 
d="M300 -200v200h-78q-32 0 -62.5 14.5t-54 36.5t-37.5 46.5t-14 45.5v372h140v-356q0 -21 14 -37t41 -18h51v411h142v-411h93v411h140v-426q0 -15 -3 -22t-8 -11l-55 -47q-7 -6 -15 -7.5t-16 -1.5h-136v-200h-142z" />
    <glyph glyph-name="cid518" unicode="&#x3c9;" horiz-adv-x="760" 
d="M312 378h141v-209q0 -19 7 -31.5t18 -20.5t24 -11.5t26 -3.5t23 6.5t17.5 23.5t11.5 45t4 72q0 21 -0.5 44.5t-6.5 43.5t-21 34t-45 17v127q74 -8 114.5 -37t59.5 -68t22.5 -82.5t3.5 -78.5q0 -125 -43.5 -186t-118.5 -63q-115 0 -167 46q-26 -23 -68 -34.5t-98 -11.5
q-75 2 -118.5 63t-43.5 186q0 35 3.5 78.5t22.5 82.5t59.5 68t114.5 37v-127q-30 -3 -45 -17t-21 -34t-6.5 -43.5t-0.5 -44.5q0 -44 4 -72t11.5 -45t17.5 -23.5t23 -6.5t26 3.5t24 11.5t18 20.5t7 31.5v209z" />
    <glyph glyph-name="cid1026" unicode="&#x401;" horiz-adv-x="521" 
d="M439 325h-248v-219h287v-106h-429v635q0 15 3 22t8 11l59 49q7 6 15 7.5t16 1.5h328v-106h-287v-189h271zM227 813h-156v148h156v-148zM467 813h-156v148h156v-148z" />
    <glyph glyph-name="cid1020" unicode="&#x410;" horiz-adv-x="616" 
d="M423 212h-228l-48 -212h-138l163 670q5 23 17.5 39.5t40.5 16.5h158q28 0 40.5 -18t17.5 -38l163 -670h-138zM323 620h-9q-13 0 -17 -4.5t-7 -17.5l-68 -280h173z" />
    <glyph glyph-name="cid1021" unicode="&#x411;" horiz-adv-x="640" 
d="M81 0v726h421v-104h-284v-107h250q101 0 101 -107v-233q0 -29 -6 -60t-27 -56.5t-61.5 -42t-109.5 -16.5h-284zM352 104q13 0 27.5 1.5t26 9t19 22.5t7.5 41v211q0 17 -10 19.5t-13 2.5h-191v-307h134z" />
    <glyph glyph-name="cid1022" unicode="&#x412;" horiz-adv-x="580" 
d="M401 726q42 0 68 -9t41 -26t20 -42t5 -56v-101q0 -46 -17.5 -71t-40.5 -36q28 -9 51 -34.5t23 -70.5v-109q0 -25 -18 -54.5t-43.5 -55.5t-54.5 -43.5t-51 -17.5h-334v635q0 15 3 22t8 11l59 49q7 6 15 7.5t16 1.5h250zM411 285q0 26 -11.5 33t-26.5 7h-183v-219h158
q8 0 19 7t20.5 17t16.5 21t7 20v114zM190 621v-190h156q32 0 40.5 12t8.5 35v116q0 13 -6 20t-25 7h-174z" />
    <glyph glyph-name="cid1023" unicode="&#x413;" horiz-adv-x="500" 
d="M478 726v-106h-286v-620h-142v726h428z" />
    <glyph glyph-name="cid1024" unicode="&#x414;" horiz-adv-x="800" 
d="M201 726h476v-608h59v-318h-142v200h-389v-200h-142v318h48q25 0 42.5 15t28 37.5t15 49.5t4.5 50v456zM309 118h226v502h-192v-340q0 -17 -2 -39.5t-6.5 -45t-10.5 -43.5t-15 -34z" />
    <glyph glyph-name="cid1025" unicode="&#x415;" horiz-adv-x="521" 
d="M439 325h-248v-219h287v-106h-429v635q0 15 3 22t8 11l59 49q7 6 15 7.5t16 1.5h328v-106h-287v-189h271z" />
    <glyph glyph-name="cid1027" unicode="&#x416;" horiz-adv-x="1000" 
d="M308 355l-223 371h170l175 -311v311h142v-311l175 311h170l-223 -371l254 -355h-174l-202 303v-303h-142v303l-202 -303h-174z" />
    <glyph glyph-name="cid1028" unicode="&#x417;" horiz-adv-x="550" 
d="M55 726h274q25 0 53.5 -16t52.5 -39.5t40 -51.5t16 -52v-52q0 -34 -21.5 -68t-56.5 -49q17 -6 33 -15t28 -23.5t19.5 -35.5t7.5 -51v-85q0 -14 -9.5 -33t-24.5 -40t-34.5 -41.5t-40 -37t-40.5 -26.5t-36 -10h-268v106h227q10 0 24.5 9.5t27.5 23.5t22.5 29t9.5 26v97v11
t-3 13.5t-9.5 11t-19.5 4.5h-239v106h177q17 0 32.5 3.5t27 13.5t18 26t6.5 42v37q0 24 -12.5 42.5t-40.5 18.5h-241v106z" />
    <glyph glyph-name="cid1029" unicode="&#x418;" horiz-adv-x="630" 
d="M53 726h136v-499l146 474q7 25 40 25h202v-726h-135v538l-184 -506q-8 -20 -21.5 -26t-29.5 -6h-154v726z" />
    <glyph glyph-name="cid1030" unicode="&#x419;" horiz-adv-x="630" 
d="M527 991q0 -45 -17 -81.5t-45.5 -62.5t-66 -40.5t-79.5 -14.5q-44 0 -82 15t-66.5 41.5t-45 63t-16.5 79.5h138q0 -44 18.5 -68.5t53.5 -24.5q36 0 53 24.5t19 68.5h136zM53 726h136v-499l146 474q7 25 40 25h202v-726h-135v538l-184 -506q-8 -20 -21.5 -26t-29.5 -6
h-154v726z" />
    <glyph glyph-name="cid1031" unicode="&#x41a;" horiz-adv-x="614" 
d="M50 0v726h142v-311l195 311h170l-243 -371l274 -355h-174l-222 303v-303h-142z" />
    <glyph glyph-name="cid1032" unicode="&#x41b;" horiz-adv-x="750" 
d="M672 726v-726h-142v620h-222v-372q0 -49 -15 -94t-46 -79t-79 -54.5t-114 -20.5h-30v126h30q50 0 81 28t31 94v478h506z" />
    <glyph glyph-name="cid1033" unicode="&#x41c;" horiz-adv-x="888" 
d="M187 583v-583h-137v667q0 24 9 41.5t35 17.5h147q11 0 24 -7t22 -28l150 -360l150 360q9 21 22 28t24 7h147q26 0 35 -17.5t9 -41.5v-667h-137v583l-178 -392h-144z" />
    <glyph glyph-name="cid1034" unicode="&#x41d;" horiz-adv-x="622" 
d="M46 0v726h142v-295h230v295h142v-726h-142v325h-230v-325h-142z" />
    <glyph glyph-name="cid1035" unicode="&#x41e;" horiz-adv-x="676" 
d="M618 168q0 -20 -20.5 -50.5t-50.5 -59t-62.5 -48.5t-56.5 -20h-197q-24 0 -55 15.5t-59 38t-47 48.5t-19 46v420q0 20 20.5 50.5t50.5 59t62.5 48.5t56.5 20h197q24 0 55 -15.5t59 -38t47 -48.5t19 -46v-420zM476 567q0 29 -16.5 46t-44.5 17h-141q-10 0 -24 -10.5
t-26.5 -25t-21.5 -30.5t-9 -27v-378q0 -29 21.5 -46t49.5 -17h131q10 0 24 10.5t26.5 25t21.5 30.5t9 27v378z" />
    <glyph glyph-name="cid1036" unicode="&#x41f;" horiz-adv-x="598" 
d="M552 726v-726h-142v620h-222v-620h-142v726h506z" />
    <glyph glyph-name="cid1037" unicode="&#x420;" horiz-adv-x="578" 
d="M192 0h-142v635q0 15 3 22t8 11l59 49q7 6 15 7.5t16 1.5h279q67 0 94 -28t27 -95v-152q0 -26 -17.5 -57t-43.5 -57.5t-56.5 -44.5t-56.5 -18h-185v-274zM192 380h150q12 0 24 6.5t21.5 17t15.5 22.5t6 23v153q0 18 -20 18h-197v-240z" />
    <glyph glyph-name="cid1038" unicode="&#x421;" horiz-adv-x="539" 
d="M249 106h229v-106h-247q-35 0 -67.5 12.5t-57.5 33.5t-40 47.5t-15 54.5v427q0 30 13 57t36 48t53 33.5t65 12.5h256v-106h-220q-23 0 -42 -12t-19 -43v-396q0 -28 15 -44.5t41 -18.5z" />
    <glyph glyph-name="cid1039" unicode="&#x422;" horiz-adv-x="563" 
d="M17 726h530v-106h-194v-620h-142v620h-194v106z" />
    <glyph glyph-name="cid1040" unicode="&#x423;" horiz-adv-x="518" 
d="M77 0v105h154q31 0 45.5 9.5t19.5 40.5l9 74h-121q-36 0 -62.5 8t-44.5 26.5t-27 49t-9 74.5v339h140v-350q0 -23 10.5 -33t41.5 -10h86q14 97 29.5 197t30.5 196h139q-11 -68 -21.5 -140.5t-22 -146t-22.5 -146t-21 -140.5q-6 -29 -20 -56.5t-37 -49t-55.5 -34.5
t-75.5 -13h-166z" />
    <glyph glyph-name="cid1041" unicode="&#x424;" horiz-adv-x="700" 
d="M277 0v103h-44q-32 0 -62.5 14.5t-54 36.5t-37.5 46.5t-14 45.5v218q0 21 17 49.5t44 55t60.5 45t66.5 18.5h24v94h142v-94h47q32 0 62.5 -13t54 -33.5t37.5 -45t14 -46.5v-223q0 -21 -17 -49.5t-44 -55t-60.5 -45t-66.5 -18.5h-27v-103h-142zM497 287v186q0 23 -12.5 39
t-40.5 16h-25v-321q14 1 28 10t25 21t18 25t7 24zM202 262q0 -23 14 -39t44 -16h17v320q-14 -3 -27.5 -11.5t-24 -20.5t-17 -24.5t-6.5 -22.5v-186z" />
    <glyph glyph-name="cid1042" unicode="&#x425;" horiz-adv-x="652" 
d="M26 0l219 367l-214 359h148l140 -235l140 235h148l-214 -359l220 -367h-148l-146 243l-145 -243h-148z" />
    <glyph glyph-name="cid1043" unicode="&#x426;" horiz-adv-x="700" 
d="M479 -200v200h-432v726h138v-622h225v622h142v-619h69v-307h-142z" />
    <glyph glyph-name="cid1044" unicode="&#x427;" horiz-adv-x="570" 
d="M374 0v229h-190q-36 0 -62.5 8t-44.5 26.5t-27 49t-9 74.5v339h140v-350q0 -23 10.5 -33t41.5 -10h141v393h140v-726h-140z" />
    <glyph glyph-name="cid1045" unicode="&#x428;" horiz-adv-x="810" 
d="M62 0v726h138v-622h139v622h137v-622h130v622h142v-726h-686z" />
    <glyph glyph-name="cid1046" unicode="&#x429;" horiz-adv-x="913" 
d="M679 -200v200h-597v726h138v-622h139v622h137v-622h130v622h142v-619h53v-307h-142z" />
    <glyph glyph-name="cid1047" unicode="&#x42a;" horiz-adv-x="730" 
d="M196 0v605h-149v121h286v-211h230q101 0 101 -107v-233q0 -29 -6 -60t-27 -56.5t-61.5 -42t-109.5 -16.5h-264zM447 104q13 0 27.5 1.5t26 9t19 22.5t7.5 41v211q0 17 -10 19.5t-13 2.5h-171v-307h114z" />
    <glyph glyph-name="cid1048" unicode="&#x42b;" horiz-adv-x="800" 
d="M41 0v736h137v-221h230q101 0 101 -107v-233q0 -29 -6 -60t-27 -56.5t-61.5 -42t-109.5 -16.5h-264zM292 104q13 0 27.5 1.5t26 9t19 22.5t7.5 41v211q0 17 -10 19.5t-13 2.5h-171v-307h114zM596 0v726h142v-726h-142z" />
    <glyph glyph-name="cid1049" unicode="&#x42c;" horiz-adv-x="570" 
d="M41 0v736h137v-221h230q101 0 101 -107v-233q0 -29 -6 -60t-27 -56.5t-61.5 -42t-109.5 -16.5h-264zM292 104q13 0 27.5 1.5t26 9t19 22.5t7.5 41v211q0 17 -10 19.5t-13 2.5h-171v-307h114z" />
    <glyph glyph-name="cid1050" unicode="&#x42d;" horiz-adv-x="700" 
d="M430 106q26 2 41 18.5t15 44.5v156h-300v106h300v134q0 31 -19 43t-42 12h-173q-12 0 -23.5 -6.5t-21 -17t-15 -22.5t-5.5 -23h-139q0 26 17.5 56.5t43.5 57t56.5 44t56.5 17.5h239q34 0 64.5 -12.5t53.5 -33.5t36 -48t13 -57v-427q0 -20 -19 -46t-47 -48.5t-59 -38
t-55 -15.5h-226q-26 0 -56.5 17.5t-56.5 43.5t-43.5 57t-17.5 57h139q0 -11 5.5 -23t15 -22.5t21 -17t23.5 -6.5h178z" />
    <glyph glyph-name="cid1051" unicode="&#x42e;" horiz-adv-x="890" 
d="M46 0v726h142v-295h123v127q0 20 20.5 50.5t50.5 59t62.5 48.5t56.5 20h157q24 0 55 -15.5t59 -38t47 -48.5t19 -46v-420q0 -20 -20.5 -50.5t-50.5 -59t-62.5 -48.5t-56.5 -20h-157q-24 0 -55 15.5t-59 38t-47 48.5t-19 46v187h-123v-325h-142zM696 567q0 29 -16.5 46
t-44.5 17h-101q-10 0 -24 -10.5t-26.5 -25t-21.5 -30.5t-9 -27v-378q0 -29 21.5 -46t49.5 -17h91q10 0 24 10.5t26.5 25t21.5 30.5t9 27v378z" />
    <glyph glyph-name="cid1052" unicode="&#x42f;" horiz-adv-x="587" 
d="M434 726q8 0 16 -1.5t15 -7.5l59 -49q5 -4 8 -11t3 -22v-635h-142v281h-130h-5l-101 -281h-143l115 318q-40 26 -61.5 68t-21.5 96v121q0 67 28.5 95t95.5 28h264zM208 620q-20 0 -20 -18v-121q0 -39 17 -66.5t57 -27.5h131v233h-185z" />
    <glyph glyph-name="cid1053" unicode="&#x430;" horiz-adv-x="513" 
d="M132 0q-46 0 -69 22t-23 77v136q0 32 20 57t53 25h223v42q0 9 -1 18.5t-6 17t-16 12.5t-31 5h-203v103h220q65 0 100.5 -15.5t52 -44t19 -68.5t2.5 -88v-174q0 -69 -32 -97t-96 -28h-213zM336 214h-141q-9 0 -13.5 -6.5t-4.5 -13.5v-78q0 -5 1.5 -9t12.5 -4h112
q12 0 22.5 3.5t10.5 26.5v81z" />
    <glyph glyph-name="cid1054" unicode="&#x431;" horiz-adv-x="570" 
d="M46 548q0 20 17 50.5t43 59t57 48.5t60 20h218v-106h-173q-13 0 -27 -10.5t-26 -25t-19.5 -30.5t-7.5 -27v-97q21 15 41 27t37 12h88q25 0 56 -15.5t57 -38t44 -48.5t18 -46v-169q0 -20 -18.5 -48t-45 -53.5t-57 -43t-54.5 -17.5h-128q-24 0 -55 15.5t-59 38t-47 48.5
t-19 46v410zM387 295q0 68 -56 68h-62q-10 0 -24 -7.5t-26.5 -18.5t-21.5 -23.5t-9 -23.5v-131q0 -29 21.5 -46t49.5 -17h60q11 0 23 8t22 19.5t16.5 25t6.5 25.5v121z" />
    <glyph glyph-name="cid1055" unicode="&#x432;" horiz-adv-x="560" 
d="M361 515q42 0 68 -7.5t41 -21.5t20 -35t5 -49v-30q0 -38 -17.5 -62t-40.5 -35q28 -9 51 -34.5t23 -70.5v-19q0 -25 -18 -51.5t-43.5 -48.5t-54.5 -36.5t-51 -14.5h-294v424q0 15 3 22t8 11l59 49q7 6 15 7.5t16 1.5h210zM371 175q0 26 -11.5 33t-26.5 7h-143v-109h118
q8 0 19 4t20.5 10t16.5 14t7 17v24zM190 410v-89h116q32 0 40.5 10.5t8.5 26.5v25q0 13 -6 20t-25 7h-134z" />
    <glyph glyph-name="cid1056" unicode="&#x433;" horiz-adv-x="500" 
d="M478 515v-106h-286v-409h-142v515h428z" />
    <glyph glyph-name="cid1057" unicode="&#x434;" horiz-adv-x="740" 
d="M610 612v-494h59v-290h-142v172h-306v-172h-142v290h48q24 0 39.5 10.5t24.5 28t12 39t3 44.5v372h404zM317 118h151v388h-120v-266q0 -33 -7.5 -64t-23.5 -58z" />
    <glyph glyph-name="cid1058" unicode="&#x435;" horiz-adv-x="515" 
d="M382 515q45 0 68 -22t23 -76v-133q0 -15 -5 -30t-14.5 -26t-23 -18t-29.5 -7h-224v-47q0 -9 1 -18.5t6 -18t16 -13.5t32 -5h213v-101h-231q-65 0 -100 15.5t-51.5 44t-19 68.5t-2.5 88v175q0 68 32 96t95 28h214zM177 295h140q10 0 14.5 6.5t4.5 14.5v84q0 6 -2 10t-13 4
h-110q-13 0 -23.5 -4t-10.5 -28v-87z" />
    <glyph glyph-name="cid1060" unicode="&#x436;" horiz-adv-x="800" 
d="M767 0h-144l-155 201v-201h-137v201l-155 -201h-144l215 268l-172 247h141l115 -171v171h137v-171l115 171h141l-172 -247z" />
    <glyph glyph-name="cid1061" unicode="&#x437;" horiz-adv-x="490" 
d="M55 515h214q29 0 58 -8t52 -22.5t37.5 -34.5t14.5 -44v-52q0 -26 -21.5 -48.5t-56.5 -37.5q17 -6 33 -15t28 -21t19.5 -29t7.5 -40v-35q0 -24 -18.5 -47t-46.5 -41t-60 -29t-60 -11h-208v106h167q10 0 24.5 3.5t27.5 9.5t22.5 15t9.5 20v17v9.5t-3 10t-9.5 7.5t-19.5 3
h-179v106h117q17 0 32.5 0.5t27 5t18 15.5t6.5 33v7q0 24 -12.5 32.5t-40.5 8.5h-181v106z" />
    <glyph glyph-name="cid1062" unicode="&#x438;" horiz-adv-x="550" 
d="M38 515h136v-344l126 326q7 18 40 18h172v-515h-135v392l-154 -369q-8 -14 -21.5 -18.5t-29.5 -4.5h-134v515z" />
    <glyph glyph-name="cid1063" unicode="&#x439;" horiz-adv-x="550" 
d="M477 796q0 -45 -17 -81.5t-45.5 -62.5t-66 -40.5t-79.5 -14.5q-44 0 -82 15t-66.5 41.5t-45 63t-16.5 79.5h138q0 -44 18.5 -68.5t53.5 -24.5q36 0 53 24.5t19 68.5h136zM38 515h136v-344l126 326q7 18 40 18h172v-515h-135v392l-154 -369q-8 -14 -21.5 -18.5t-29.5 -4.5
h-134v515z" />
    <glyph glyph-name="cid1064" unicode="&#x43a;" horiz-adv-x="544" 
d="M51 0v515h137v-167l105 167h161l-162 -247l205 -268h-164l-145 198v-198h-137z" />
    <glyph glyph-name="cid1065" unicode="&#x43b;" horiz-adv-x="610" 
d="M572 515v-515h-142v409h-152v-161q0 -49 -8.5 -94t-32.5 -79t-65.5 -54.5t-107.5 -20.5h-30v126h30q42 0 57 28t15 94v267h436z" />
    <glyph glyph-name="cid1066" unicode="&#x43c;" horiz-adv-x="700" 
d="M178 353v-353h-128v473q0 17 7 29.5t28 12.5h126q9 0 19 -5t17 -20l109 -235l109 235q7 15 17 20t19 5h126q21 0 28 -12.5t7 -29.5v-473h-128v353l-111 -218h-134z" />
    <glyph glyph-name="cid1067" unicode="&#x43d;" horiz-adv-x="600" 
d="M63 0v515h142v-184h190v184h142v-515h-142v225h-190v-225h-142z" />
    <glyph glyph-name="cid1068" unicode="&#x43e;" horiz-adv-x="600" 
d="M65 357q0 21 17 49.5t44 55t60.5 45t66.5 18.5h113q32 0 62.5 -13t54 -33.5t37.5 -45t14 -46.5v-229q0 -21 -17 -49.5t-44 -55t-60.5 -45t-66.5 -18.5h-113q-32 0 -62.5 14.5t-54 36.5t-37.5 46.5t-14 45.5v224zM202 149q0 -23 14 -39t44 -16h54q15 0 29.5 8.5t26.5 20.5
t19.5 26t7.5 25v192q0 23 -12.5 39t-40.5 16h-58q-15 0 -30 -8.5t-27 -20.5t-19.5 -26t-7.5 -25v-192z" />
    <glyph glyph-name="cid1069" unicode="&#x43f;" horiz-adv-x="590" 
d="M518 0h-140v411h-166v-411h-140v515h446v-515z" />
    <glyph glyph-name="cid1070" unicode="&#x440;" horiz-adv-x="580" 
d="M71 -200v715h324q21 0 41.5 -5.5t36.5 -19.5t26 -37.5t10 -59.5v-218q0 -29 -6 -60t-27 -56.5t-61.5 -42t-109.5 -16.5h-97v-200h-137zM208 104h83q13 0 27.5 1.5t26 9t19 22.5t7.5 41v205q0 12 -4 20t-21 8h-138v-307z" />
    <glyph glyph-name="cid1071" unicode="&#x441;" horiz-adv-x="520" 
d="M66 330q0 41 16 75t41.5 58.5t57.5 38t64 13.5h205v-104h-181q-14 0 -25.5 -7.5t-20 -19t-13 -26t-4.5 -28.5v-181q0 -32 12.5 -38.5t28.5 -6.5h207v-104h-240q-32 0 -59 8t-47 25.5t-31 46t-11 69.5v181z" />
    <glyph glyph-name="cid1072" unicode="&#x442;" horiz-adv-x="470" 
d="M20 515h430v-106h-144v-409h-142v409h-144v106z" />
    <glyph glyph-name="cid1073" unicode="&#x443;" horiz-adv-x="518" 
d="M77 -200v105h154q31 0 45.5 9.5t19.5 40.5l9 63h-121q-36 0 -62.5 8t-44.5 26.5t-27 49t-9 74.5v339h140v-350q0 -23 10.5 -33t41.5 -10h86q14 97 29.5 197t30.5 196h139q-21 -137 -42.5 -279.5t-44.5 -282.5q-5 -29 -19 -56.5t-37 -49t-56 -34.5t-76 -13h-166z" />
    <glyph glyph-name="cid1074" unicode="&#x444;" horiz-adv-x="900" 
d="M379 -200v219q-21 -14 -41.5 -21.5t-39.5 -7.5h-83q-32 0 -62.5 14.5t-54 36.5t-37.5 46.5t-14 45.5v224q0 21 17 49.5t44 55t60.5 45t66.5 18.5h83q14 0 29.5 -4t31.5 -11v216h142v-227q21 12 41.5 19t39.5 7h83q32 0 62.5 -13t54 -33.5t37.5 -45t14 -46.5v-229
q0 -21 -17 -49.5t-44 -55t-60.5 -45t-66.5 -18.5h-83q-15 0 -30.5 4.5t-30.5 11.5v-206h-142zM184 149q0 -23 14 -39t44 -16h54q14 0 28.5 8t26.5 20t19.5 25.5t8.5 24.5v194q0 23 -12.5 39t-40.5 16h-58q-15 0 -30 -8.5t-27 -20.5t-19.5 -26t-7.5 -25v-192zM521 144
q1 -21 15 -35.5t43 -14.5h54q15 0 29.5 8.5t26.5 20.5t19.5 26t7.5 25v192q0 23 -12.5 39t-40.5 16h-58q-15 0 -29.5 -8t-26.5 -20t-19.5 -25.5t-8.5 -24.5v-199z" />
    <glyph glyph-name="cid1075" unicode="&#x445;" horiz-adv-x="559" 
d="M26 0q44 63 89 128.5t92 131.5q-45 64 -88 127.5t-88 127.5h145q26 -38 52 -74.5t52 -74.5q26 38 51.5 75t51.5 74h146q-43 -62 -87.5 -125.5t-89.5 -128.5q46 -66 91 -130.5t91 -130.5h-146q-27 39 -54.5 78t-54.5 78q-56 -80 -108 -156h-145z" />
    <glyph glyph-name="cid1076" unicode="&#x446;" horiz-adv-x="630" 
d="M439 -200v200h-392v515h138v-411h185v411h142v-408h69v-307h-142z" />
    <glyph glyph-name="cid1077" unicode="&#x447;" horiz-adv-x="510" 
d="M324 0v129h-140q-36 0 -62.5 8t-44.5 26.5t-27 49t-9 74.5v228h140v-239q0 -23 10.5 -33t41.5 -10h91v282h140v-515h-140z" />
    <glyph glyph-name="cid1078" unicode="&#x448;" horiz-adv-x="710" 
d="M62 0v516h138v-412h89v412h137v-412h80v412h142v-516h-586z" />
    <glyph glyph-name="cid1079" unicode="&#x449;" horiz-adv-x="770" 
d="M569 -200v200h-507v516h138v-412h89v412h137v-412h80v412h142v-409h63v-307h-142z" />
    <glyph glyph-name="cid1080" unicode="&#x44a;" horiz-adv-x="600" 
d="M146 0v394h-99v121h236v-190h160q51 0 81 -36t30 -91v-43q0 -29 -6 -57t-27 -49.5t-61.5 -35t-109.5 -13.5h-204zM337 104q13 0 27.5 1t26 5.5t19 13.5t7.5 24v41q0 32 -23 32h-111v-117h54z" />
    <glyph glyph-name="cid1081" unicode="&#x44b;" horiz-adv-x="760" 
d="M69 515h137v-190h160q51 0 81 -36t30 -91v-43q0 -29 -6 -57t-27 -49.5t-61.5 -35t-109.5 -13.5h-204v515zM260 104q13 0 27.5 1t26 5.5t19 13.5t7.5 24v41q0 32 -23 32h-111v-117h54zM549 0v515h142v-515h-142z" />
    <glyph glyph-name="cid1082" unicode="&#x44c;" horiz-adv-x="540" 
d="M69 515h137v-190h160q51 0 81 -36t30 -91v-43q0 -29 -6 -57t-27 -49.5t-61.5 -35t-109.5 -13.5h-204v515zM260 104q13 0 27.5 1t26 5.5t19 13.5t7.5 24v41q0 32 -23 32h-111v-117h54z" />
    <glyph glyph-name="cid1083" unicode="&#x44d;" horiz-adv-x="540" 
d="M302 106q26 2 41 18.5t15 44.5v46h-180v106h180v33q0 31 -19 43t-42 12h-53q-24 0 -44.5 -13.5t-20.5 -35.5h-139q0 26 17.5 53.5t43.5 50t56.5 37t56.5 14.5h119q34 0 64.5 -12.5t53.5 -33.5t36 -48t13 -57v-216q0 -24 -16 -50t-41 -48t-55 -36t-58 -14h-116
q-26 0 -56.5 14.5t-56.5 37t-43.5 50t-17.5 53.5h139q0 -22 20.5 -35.5t44.5 -13.5h58z" />
    <glyph glyph-name="cid1084" unicode="&#x44e;" horiz-adv-x="790" 
d="M290 357q0 21 17 49.5t44 55t60.5 45t66.5 18.5h93q32 0 62.5 -13t54 -33.5t37.5 -45t14 -46.5v-229q0 -21 -17 -49.5t-44 -55t-60.5 -45t-66.5 -18.5h-93q-32 0 -62.5 14.5t-54 36.5t-37.5 46.5t-14 45.5v82h-102v-215h-142v515h142v-194h102v36zM427 149q0 -23 14 -39
t44 -16h34q15 0 29.5 8.5t26.5 20.5t19.5 26t7.5 25v192q0 23 -12.5 39t-40.5 16h-38q-15 0 -30 -8.5t-27 -20.5t-19.5 -26t-7.5 -25v-192z" />
    <glyph glyph-name="cid1085" unicode="&#x44f;" horiz-adv-x="530" 
d="M384 515q8 0 16 -1.5t15 -7.5l59 -49q5 -4 8 -11t3 -22v-424h-142v181h-70h-16l-90 -181h-143l98 212q-32 19 -49 50t-17 79v51q0 67 28.5 95t95.5 28h204zM218 409q-20 0 -20 -18v-51q0 -32 12 -42.5t52 -10.5h81v122h-125z" />
    <glyph glyph-name="cid1059" unicode="&#x451;" horiz-adv-x="515" 
d="M382 515q45 0 68 -22t23 -76v-133q0 -15 -5 -30t-14.5 -26t-23 -18t-29.5 -7h-224v-47q0 -9 1 -18.5t6 -18t16 -13.5t32 -5h213v-101h-231q-65 0 -100 15.5t-51.5 44t-19 68.5t-2.5 88v175q0 68 32 96t95 28h214zM177 295h140q10 0 14.5 6.5t4.5 14.5v84q0 6 -2 10t-13 4
h-110q-13 0 -23.5 -4t-10.5 -28v-87zM227 603h-156v148h156v-148zM467 603h-156v148h156v-148z" />
    <glyph glyph-name="cid110" unicode="&#x2015;" horiz-adv-x="900" 
d="M47 431h806v-106h-806v106z" />
    <glyph glyph-name="cid114" unicode="&#x2018;" horiz-adv-x="250" 
d="M182 797l-38 -128h52v-130h-142v131l64 127h64z" />
    <glyph glyph-name="cid115" unicode="&#x2019;" horiz-adv-x="250" 
d="M68 518l38 128h-52v130h142v-131l-64 -127h-64z" />
    <glyph glyph-name="cid116" unicode="&#x201c;" horiz-adv-x="450" 
d="M182 797l-38 -128h52v-130h-142v131l64 127h64zM382 797l-38 -128h52v-130h-142v131l64 127h64z" />
    <glyph glyph-name="cid117" unicode="&#x201d;" horiz-adv-x="450" 
d="M68 518l38 128h-52v130h142v-131l-64 -127h-64zM268 518l38 128h-52v130h142v-131l-64 -127h-64z" />
    <glyph glyph-name="cid245" unicode="&#x2020;" horiz-adv-x="900" 
d="M376 0v469h-142v106h142v151h142v-151h148v-106h-148v-469h-142z" />
    <glyph glyph-name="cid246" unicode="&#x2021;" horiz-adv-x="900" 
d="M376 595v131h142v-131h148v-106h-148v-94h148v-106h-148v-289h-142v289h-142v106h142v94h-142v106h142z" />
    <glyph glyph-name="cid105" unicode="&#x2025;" horiz-adv-x="644" 
d="M96 0v130h142v-130h-142zM406 0v130h142v-130h-142z" />
    <glyph glyph-name="cid106" unicode="&#x2026;" horiz-adv-x="900" 
d="M96 0v130h142v-130h-142zM379 0v130h142v-130h-142zM662 0v130h142v-130h-142z" />
    <glyph glyph-name="cid216" unicode="&#x2030;" horiz-adv-x="900" 
d="M166 -6l-89 38l344 722l94 -31zM289 165q0 22 9 51t26.5 55t43 44t58.5 18h27q32 0 55 -15t37.5 -36.5t21 -46.5t6.5 -45v-41q0 -20 -10 -47.5t-28 -52t-44 -42t-58 -17.5h-27q-33 0 -55 14.5t-36 36.5t-20 47t-6 45v32zM389 144q0 -22 6 -35t17 -13h9q11 0 20 6t15.5 16
t10 21.5t3.5 23.5v15q0 19 -7 34t-29 15h-3q-9 0 -16.5 -7.5t-13.5 -19t-9 -24.5t-3 -25v-7zM591 165q0 22 9 51t26.5 55t43 44t58.5 18h27q32 0 55 -15t37.5 -36.5t21 -46.5t6.5 -45v-41q0 -20 -10 -47.5t-28 -52t-44 -42t-58 -17.5h-27q-33 0 -55 14.5t-36 36.5t-20 47
t-6 45v32zM691 144q0 -22 6 -35t17 -13h9q22 0 35.5 18t13.5 41v23q0 19 -7 34t-29 15h-3q-9 0 -16.5 -7.5t-13.5 -19t-9 -24.5t-3 -25v-7zM13 592q0 22 9 51t26.5 55t43 44t58.5 18h27q32 0 55 -15t37.5 -36.5t21 -46.5t6.5 -45v-41q0 -20 -10 -47.5t-28 -52t-44 -42
t-58 -17.5h-27q-33 0 -55 14.5t-36 36.5t-20 47t-6 45v32zM113 571q0 -22 6 -35t17 -13h9q11 0 20 6t15.5 16t10 21.5t3.5 23.5v15q0 19 -7 34t-29 15h-3q-9 0 -16.5 -7.5t-13.5 -19t-9 -24.5t-3 -25v-7z" />
    <glyph glyph-name="cid139" unicode="&#x2032;" horiz-adv-x="330" 
d="M124 750h170l-139 -266h-117z" />
    <glyph glyph-name="cid140" unicode="&#x2033;" horiz-adv-x="600" 
d="M331 750h170l-139 -266h-117zM114 750h170l-139 -266h-117z" />
    <glyph glyph-name="cid156" unicode="&#x203b;" horiz-adv-x="900" 
d="M165 181l197 197l-196 196l82 83l196 -197l197 197l83 -83l-197 -197l197 -196l-83 -82l-196 196l-197 -197zM104 313v130h142v-130h-142zM381 26v130h142v-130h-142zM381 595v130h142v-130h-142zM654 313v130h142v-130h-142z" />
    <glyph glyph-name="cid845" unicode="&#x2074;" horiz-adv-x="500" 
d="M254 286v72h-182v80l188 288h101v-279h55v-89h-55v-72h-107zM254 447v102l-67 -102h67z" />
    <glyph glyph-name="cid846" unicode="&#x207f;" horiz-adv-x="500" 
d="M158 726h132q26 0 50 -11.5t43 -29t30 -37.5t11 -36v-298h-109v285q0 17 -11 29.5t-33 14.5h-84v-329h-109v339q0 12 2 18t6 9l48 39q5 5 11.5 6t12.5 1z" />
    <glyph glyph-name="cid847" unicode="&#x2081;" horiz-adv-x="500" 
d="M200 0v306h-70v89q11 0 23.5 3t23.5 8.5t18.5 14t7.5 19.5h106v-440h-109z" />
    <glyph glyph-name="cid848" unicode="&#x2082;" horiz-adv-x="500" 
d="M265 269q1 2 2 5t1 7v51q0 8 -3.5 13.5t-11.5 5.5h-144v89h162q17 0 36 -10.5t34.5 -26t26 -33.5t10.5 -34v-56q0 -25 -11 -40.5t-28 -28.5q-32 -25 -62.5 -49t-62.5 -48v-25h171v-89h-280v125q0 17 5 27t17 18z" />
    <glyph glyph-name="cid849" unicode="&#x2083;" horiz-adv-x="500" 
d="M110 440h169q16 0 35 -10.5t34.5 -26t26 -34t10.5 -34.5v-29q0 -16 -8 -33.5t-22 -30.5q15 -10 25 -26.5t10 -46.5v-48q0 -13 -12.5 -33.5t-31 -40t-39 -33.5t-36.5 -14h-166v89h144q4 0 9.5 4t10.5 9.5t9 11.5t4 11v54q0 2 -0.5 5.5t-3.5 3.5h-150v88h115q14 0 23.5 7
t9.5 27v22q0 8 -4 13.5t-12 5.5h-150v89z" />
    <glyph glyph-name="cid850" unicode="&#x2084;" horiz-adv-x="500" 
d="M254 0v72h-182v80l188 288h101v-279h55v-89h-55v-72h-107zM254 161v102l-67 -102h67z" />
    <glyph glyph-name="cid18871" unicode="&#x20ac;" horiz-adv-x="900" 
d="M149 320h175v116h-175v103h175v36q0 30 13 57t36 48t53 33.5t65 12.5h256v-106h-220q-23 0 -42 -12t-19 -43v-26h209v-103h-209v-116h209v-103h-209v-48q0 -28 15 -44.5t41 -18.5h229v-106h-247q-24 0 -55 15.5t-59 38t-47 48.5t-19 46v69h-175v103z" />
    <glyph glyph-name="cid141" unicode="&#x2103;" horiz-adv-x="900" 
d="M615 106h229v-106h-247q-24 0 -55 15.5t-59 38t-47 48.5t-19 46v427q0 30 13 57t36 48t53 33.5t65 12.5h256v-106h-220q-23 0 -42 -12t-19 -43v-396q0 -28 15 -44.5t41 -18.5zM55 622q0 27 11.5 51.5t31.5 43t46.5 29t56.5 10.5t56.5 -10.5t46.5 -29t31.5 -43t11.5 -51.5
t-11.5 -51.5t-31.5 -43t-46.5 -29t-56.5 -10.5t-56.5 10.5t-46.5 29t-31.5 43t-11.5 51.5zM148 622q0 -21 15 -35.5t38 -14.5t38 14.5t15 35.5t-15 35t-38 14t-38 -14t-15 -35z" />
    <glyph glyph-name="cid215" unicode="&#x2109;" horiz-adv-x="900" 
d="M550 620v-189h270l-23 -106h-247v-325h-142v635q0 15 3 22t8 11l59 49q7 6 15 7.5t16 1.5h327v-106h-286zM63 622q0 27 11.5 51.5t31.5 43t46.5 29t56.5 10.5t56.5 -10.5t46.5 -29t31.5 -43t11.5 -51.5t-11.5 -51.5t-31.5 -43t-46.5 -29t-56.5 -10.5t-56.5 10.5t-46.5 29
t-31.5 43t-11.5 51.5zM156 622q0 -21 15 -35.5t38 -14.5t38 14.5t15 35.5t-15 35t-38 14t-38 -14t-15 -35z" />
    <glyph glyph-name="cid590" unicode="&#x2113;" horiz-adv-x="500" 
d="M301 686q-15 0 -27.5 -14.5t-22.5 -37.5t-18 -51t-12 -55q-4 -25 -4 -57t2.5 -65.5t6.5 -65.5l7 -56q18 36 36 75t33 78.5t24 78t9 74.5q0 11 0.5 27.5t-2.5 31.5t-10 26t-22 11zM110 13l-64 88q9 6 21 16.5t25 22t25 23t20 20.5q-28 97 -34.5 188t5.5 188q6 43 21.5 84
t40 73.5t57.5 52t74 19.5t70 -15.5t47.5 -41t27 -59t8.5 -70.5q0 -57 -16.5 -117t-43 -118t-59 -111.5t-64.5 -95.5q12 -26 31.5 -40t43.5 -14h41v-106h-41q-60 0 -103.5 17.5t-66.5 55.5q-6 -6 -15.5 -15t-19 -17.5t-18.5 -16t-13 -11.5z" />
    <glyph glyph-name="cid258" unicode="&#x2116;" horiz-adv-x="900" 
d="M463 510q0 21 15.5 49.5t41 55t57 45t64.5 18.5h63q32 0 61 -13t50.5 -33.5t34 -45t12.5 -46.5v-193q0 -21 -15.5 -49.5t-41 -55t-57 -45t-64.5 -18.5h-63q-32 0 -61 14.5t-50.5 36.5t-34 46.5t-12.5 45.5v188zM580 338q0 -23 14 -39t44 -16h24q15 0 29.5 8.5t26.5 20.5
t19.5 26t7.5 25v156q0 23 -12.5 39t-40.5 16h-28q-15 0 -30 -8.5t-27 -20.5t-19.5 -26t-7.5 -25v-156zM462 106h406v-106h-406v106zM410 0h-144q-5 0 -11 1.5t-12 4.5t-11 8.5t-6 13.5l-89 587v-615h-106v726h163q8 0 17.5 -6.5t11.5 -15.5l81 -552v574h106v-726z" />
    <glyph glyph-name="cid263" unicode="&#x2121;" horiz-adv-x="900" 
d="M27 726h390v-106h-134v-620h-122v620h-134v106zM597 515q45 0 68 -22t23 -76v-133q0 -15 -5 -30t-14.5 -26t-23 -18t-29.5 -7h-148v-47q0 -9 1 -18.5t6 -18t16 -13.5t32 -5h137v-101h-141q-65 0 -100 15.5t-51.5 44t-19 68.5t-2.5 88v175q0 68 32 96t95 28h124zM468 295
h79q10 0 14.5 6.5t4.5 14.5v84q0 6 -2 10t-13 4h-49q-13 0 -23.5 -4t-10.5 -28v-87zM741 0v726h122v-726h-122z" />
    <glyph glyph-name="trademark" unicode="&#x2122;" horiz-adv-x="900" 
d="M482 726h234q26 0 49 -12t40 -29.5t27 -37.5t10 -36v-227h-114v210q0 16 -6 29t-23 13h-31v-252h-99v252h-64v-252h-114v261q0 15 3 22t8 11l49 39q7 6 15 7.5t16 1.5zM48 726h300v-90h-95v-252h-110v252h-95v90z" />
    <glyph glyph-name="cid643" unicode="&#x2126;" horiz-adv-x="700" 
d="M409 252q9 5 23 16t26.5 24.5t22 27.5t9.5 25v222q0 29 -16.5 46t-44.5 17h-141q-10 0 -24 -10.5t-26.5 -25t-21.5 -30.5t-9 -27v-222q0 -15 6.5 -25t16.5 -17.5t22.5 -13t25.5 -11.5q14 -6 26.5 -21.5t12.5 -33.5v-193h-257v106h115v63q-21 12 -40.5 28t-35 33t-25 33.5
t-9.5 30.5v264q0 20 20.5 50.5t50.5 59t62.5 48.5t56.5 20h197q24 0 55 -15.5t59 -38t47 -48.5t19 -46v-264q0 -14 -9.5 -32t-25 -37.5t-35.5 -39t-41 -34.5v-75h118v-106h-260v209q0 13 9.5 25t20.5 18z" />
    <glyph glyph-name="cid142" unicode="&#x212b;" horiz-adv-x="900" 
d="M564 212h-228l-48 -212h-138l163 670q5 23 17.5 39.5t40.5 16.5h158q28 0 40.5 -18t17.5 -38l163 -670h-138zM464 620h-9q-13 0 -17 -4.5t-7 -17.5l-68 -280h173zM310 896q0 27 11.5 51.5t31.5 43t46.5 29t56.5 10.5t56.5 -10.5t46.5 -29t31.5 -43t11.5 -51.5
t-11.5 -51.5t-31.5 -43t-46.5 -29t-56.5 -10.5t-56.5 10.5t-46.5 29t-31.5 43t-11.5 51.5zM403 896q0 -21 15 -35.5t38 -14.5t38 14.5t15 35.5t-15 35t-38 14t-38 -14t-15 -35z" />
    <glyph glyph-name="cid749" unicode="&#x2153;" horiz-adv-x="900" 
d="M665 796l-372 -841h-127l371 841h128zM542 390h169q16 0 35 -10.5t34.5 -26t26 -34t10.5 -34.5v-29q0 -16 -8 -33.5t-22 -30.5q15 -10 25 -26.5t10 -46.5v-48q0 -13 -12.5 -33.5t-31 -40t-39 -33.5t-36.5 -14h-166v89h144q4 0 9.5 4t10.5 9.5t9 11.5t4 11v54
q0 2 -0.5 5.5t-3.5 3.5h-150v88h115q14 0 23.5 7t9.5 27v22q0 8 -4 13.5t-12 5.5h-150v89zM148 337v306h-70v89q11 0 23.5 3t23.5 8.5t18.5 14t7.5 19.5h106v-440h-109z" />
    <glyph glyph-name="cid750" unicode="&#x2154;" horiz-adv-x="900" 
d="M569 390h169q16 0 35 -10.5t34.5 -26t26 -34t10.5 -34.5v-29q0 -16 -8 -33.5t-22 -30.5q15 -10 25 -26.5t10 -46.5v-48q0 -13 -12.5 -33.5t-31 -40t-39 -33.5t-36.5 -14h-166v89h144q4 0 9.5 4t10.5 9.5t9 11.5t4 11v54q0 2 -0.5 5.5t-3.5 3.5h-150v88h115q14 0 23.5 7
t9.5 27v22q0 8 -4 13.5t-12 5.5h-150v89zM210 606q3 3 3 12v51q0 8 -3.5 13.5t-11.5 5.5h-144v89h162q17 0 36 -10.5t34.5 -26t26 -33.5t10.5 -34v-56q0 -25 -11 -41t-28 -28l-125 -87v-35h171v-89h-280v125q0 17 5 27t17 18zM707 796l-372 -841h-127l371 841h128z" />
    <glyph glyph-name="cid753" unicode="&#x215b;" horiz-adv-x="900" 
d="M670 796l-372 -841h-127l371 841h128zM505 111q0 13 10.5 30.5t24.5 32.5q-24 26 -24 51v66q0 15 8.5 32.5t23 33t32.5 25.5t38 10h79q21 0 41.5 -10t37 -25t26.5 -33.5t10 -36.5v-48q0 -15 -6.5 -31t-17.5 -30q26 -28 26 -58v-70q0 -16 -10 -34t-26 -33.5t-36 -25.5
t-41 -10h-90q-20 0 -39 9.5t-34 23.5t-24 30t-9 30v71zM612 47q0 -14 14 -14h57q11 0 18.5 5.5t7.5 16.5v57q0 8 -4.5 13.5t-14.5 5.5h-51q-12 -2 -19.5 -11.5t-7.5 -16.5v-56zM706 291q0 14 -14 14h-47q-14 0 -19 -10.5t-5 -18.5v-39q0 -22 9 -22h48q12 1 20 13t8 23v40z
M155 337v306h-70v89q11 0 23.5 3t23.5 8.5t18.5 14t7.5 19.5h106v-440h-109z" />
    <glyph glyph-name="cid754" unicode="&#x215c;" horiz-adv-x="900" 
d="M691 796l-372 -841h-127l371 841h128zM528 111q0 13 10.5 30.5t24.5 32.5q-24 26 -24 51v66q0 15 8.5 32.5t23 33t32.5 25.5t38 10h79q21 0 41.5 -10t37 -25t26.5 -33.5t10 -36.5v-48q0 -15 -6.5 -31t-17.5 -30q26 -28 26 -58v-70q0 -16 -10 -34t-26 -33.5t-36 -25.5
t-41 -10h-90q-20 0 -39 9.5t-34 23.5t-24 30t-9 30v71zM635 47q0 -14 14 -14h57q11 0 18.5 5.5t7.5 16.5v57q0 8 -4.5 13.5t-14.5 5.5h-51q-12 -2 -19.5 -11.5t-7.5 -16.5v-56zM729 291q0 14 -14 14h-47q-14 0 -19 -10.5t-5 -18.5v-39q0 -22 9 -22h48q12 1 20 13t8 23v40z
M68 777h169q16 0 35 -10.5t34.5 -26t26 -34t10.5 -34.5v-29q0 -16 -8 -33.5t-22 -30.5q15 -10 25 -26.5t10 -46.5v-48q0 -13 -12.5 -33.5t-31 -40t-39 -33.5t-36.5 -14h-166v89h144q4 0 9.5 4t10.5 9.5t9 11.5t4 11v54q0 2 -0.5 5.5t-3.5 3.5h-150v88h115q14 0 23.5 7
t9.5 27v22q0 8 -4 13.5t-12 5.5h-150v89z" />
    <glyph glyph-name="cid755" unicode="&#x215d;" horiz-adv-x="900" 
d="M691 796l-372 -841h-127l371 841h128zM178 610h83q15 0 29.5 -5.5t26.5 -16t19.5 -26.5t7.5 -38v-75q0 -15 -11 -34t-27.5 -36.5t-36.5 -29.5t-38 -12h-170v89h149q9 0 17 8.5t8 19.5v67h-167v256h258v-88h-148v-79zM528 111q0 13 10.5 30.5t24.5 32.5q-24 26 -24 51v66
q0 15 8.5 32.5t23 33t32.5 25.5t38 10h79q21 0 41.5 -10t37 -25t26.5 -33.5t10 -36.5v-48q0 -15 -6.5 -31t-17.5 -30q26 -28 26 -58v-70q0 -16 -10 -34t-26 -33.5t-36 -25.5t-41 -10h-90q-20 0 -39 9.5t-34 23.5t-24 30t-9 30v71zM635 47q0 -14 14 -14h57q11 0 18.5 5.5
t7.5 16.5v57q0 8 -4.5 13.5t-14.5 5.5h-51q-12 -2 -19.5 -11.5t-7.5 -16.5v-56zM729 291q0 14 -14 14h-47q-14 0 -19 -10.5t-5 -18.5v-39q0 -22 9 -22h48q12 1 20 13t8 23v40z" />
    <glyph glyph-name="cid756" unicode="&#x215e;" horiz-adv-x="900" 
d="M674 796l-372 -841h-127l371 841h128zM518 111q0 13 10.5 30.5t24.5 32.5q-24 26 -24 51v66q0 15 8.5 32.5t23 33t32.5 25.5t38 10h79q21 0 41.5 -10t37 -25t26.5 -33.5t10 -36.5v-48q0 -15 -6.5 -31t-17.5 -30q26 -28 26 -58v-70q0 -16 -10 -34t-26 -33.5t-36 -25.5
t-41 -10h-90q-20 0 -39 9.5t-34 23.5t-24 30t-9 30v71zM625 47q0 -14 14 -14h57q11 0 18.5 5.5t7.5 16.5v57q0 8 -4.5 13.5t-14.5 5.5h-51q-12 -2 -19.5 -11.5t-7.5 -16.5v-56zM719 291q0 14 -14 14h-47q-14 0 -19 -10.5t-5 -18.5v-39q0 -22 9 -22h48q12 1 20 13t8 23v40z
M72 777h285v-76l-141 -364h-108l135 351h-171v89z" />
    <glyph glyph-name="cid461" unicode="&#x2160;" horiz-adv-x="900" 
d="M379 0v726h142v-726h-142z" />
    <glyph glyph-name="cid462" unicode="&#x2161;" horiz-adv-x="900" 
d="M244 0v726h142v-726h-142zM514 0v726h142v-726h-142z" />
    <glyph glyph-name="cid463" unicode="&#x2162;" horiz-adv-x="900" 
d="M129 0v726h142v-726h-142zM379 0v726h142v-726h-142zM629 0v726h142v-726h-142z" />
    <glyph glyph-name="cid464" unicode="&#x2163;" horiz-adv-x="900" 
d="M105 0v726h142v-726h-142zM728 726h138l-163 -670q-5 -20 -17.5 -38t-40.5 -18h-158q-28 0 -40.5 16.5t-17.5 39.5l-163 670h138l143 -598q3 -13 7 -17.5t17 -4.5h9z" />
    <glyph glyph-name="cid465" unicode="&#x2164;" horiz-adv-x="900" 
d="M612 726h138l-163 -670q-5 -20 -17.5 -38t-40.5 -18h-158q-28 0 -40.5 16.5t-17.5 39.5l-163 670h138l143 -598q3 -13 7 -17.5t17 -4.5h9z" />
    <glyph glyph-name="cid466" unicode="&#x2165;" horiz-adv-x="900" 
d="M508 726h138l-163 -670q-5 -20 -17.5 -38t-40.5 -18h-158q-28 0 -40.5 16.5t-17.5 39.5l-163 670h138l143 -598q3 -13 7 -17.5t17 -4.5h9zM711 0v726h142v-726h-142z" />
    <glyph glyph-name="cid467" unicode="&#x2166;" horiz-adv-x="900" 
d="M369 726h138l-113 -670q-3 -20 -16.5 -38t-41.5 -18h-148q-28 0 -41 16.5t-17 39.5l-113 670h138l93 -598q3 -13 6 -17.5t8 -4.5h9zM521 0v726h141v-726h-141zM721 0v726h141v-726h-141z" />
    <glyph glyph-name="cid468" unicode="&#x2167;" horiz-adv-x="900" 
d="M266 726h108l-83 -670q-2 -20 -16 -38t-42 -18h-80q-28 0 -41.5 16.5t-16.5 39.5l-83 670h108l63 -598q2 -13 4 -17.5t7 -4.5h4zM401 0v726h121v-726h-121zM571 0v726h121v-726h-121zM741 0v726h121v-726h-121z" />
    <glyph glyph-name="cid469" unicode="&#x2168;" horiz-adv-x="900" 
d="M267 0l219 367l-214 359h148l140 -235l140 235h148l-214 -359l220 -367h-148l-146 243l-145 -243h-148zM45 0v726h142v-726h-142z" />
    <glyph glyph-name="cid470" unicode="&#x2169;" horiz-adv-x="900" 
d="M156 0l219 367l-214 359h148l140 -235l140 235h148l-214 -359l220 -367h-148l-146 243l-145 -243h-148z" />
    <glyph glyph-name="cid451" unicode="&#x2170;" horiz-adv-x="900" 
d="M372 0v515h141v-515h-141zM372 602v97q0 23 9 30t19 7h127q-5 -33 -11 -67t-11 -67h-133z" />
    <glyph glyph-name="cid452" unicode="&#x2171;" horiz-adv-x="900" 
d="M237 0v515h141v-515h-141zM237 602v97q0 23 9 30t19 7h127q-5 -33 -11 -67t-11 -67h-133zM507 0v515h141v-515h-141zM507 602v97q0 23 9 30t19 7h127q-5 -33 -11 -67t-11 -67h-133z" />
    <glyph glyph-name="cid453" unicode="&#x2172;" horiz-adv-x="900" 
d="M122 0v515h141v-515h-141zM122 602v97q0 23 9 30t19 7h127q-5 -33 -11 -67t-11 -67h-133zM372 0v515h141v-515h-141zM372 602v97q0 23 9 30t19 7h127q-5 -33 -11 -67t-11 -67h-133zM622 0v515h141v-515h-141zM622 602v97q0 23 9 30t19 7h127q-5 -33 -11 -67t-11 -67h-133
z" />
    <glyph glyph-name="cid454" unicode="&#x2173;" horiz-adv-x="900" 
d="M105 0v515h141v-515h-141zM105 602v97q0 23 9 30t19 7h127q-5 -33 -11 -67t-11 -67h-133zM463 515l97 -414h2q24 103 48.5 207t47.5 207h136q-32 -119 -63.5 -236t-63.5 -236q-5 -17 -15.5 -30t-30.5 -13h-122q-20 0 -29.5 9t-15.5 31q-30 115 -63.5 237.5t-63.5 237.5
h136z" />
    <glyph glyph-name="cid455" unicode="&#x2174;" horiz-adv-x="900" 
d="M352 515l97 -414h2q24 103 48.5 207t47.5 207h136q-32 -119 -63.5 -236t-63.5 -236q-5 -17 -15.5 -30t-30.5 -13h-122q-20 0 -29.5 9t-15.5 31q-30 115 -63.5 237.5t-63.5 237.5h136z" />
    <glyph glyph-name="cid456" unicode="&#x2175;" horiz-adv-x="900" 
d="M244 515l97 -414h2q24 103 48.5 207t47.5 207h136q-32 -119 -63.5 -236t-63.5 -236q-5 -17 -15.5 -30t-30.5 -13h-122q-20 0 -29.5 9t-15.5 31q-30 115 -63.5 237.5t-63.5 237.5h136zM636 0v515h141v-515h-141zM636 602v97q0 23 9 30t19 7h127q-5 -33 -11 -67t-11 -67
h-133z" />
    <glyph glyph-name="cid457" unicode="&#x2176;" horiz-adv-x="900" 
d="M159 515l97 -414h2q24 103 48.5 207t47.5 207h136q-32 -119 -63.5 -236t-63.5 -236q-5 -17 -15.5 -30t-30.5 -13h-122q-20 0 -29.5 9t-15.5 31q-30 115 -63.5 237.5t-63.5 237.5h136zM521 0v515h141v-515h-141zM521 602v97q0 23 9 30t19 7h127q-5 -33 -11 -67t-11 -67
h-133zM721 0v515h141v-515h-141zM721 602v97q0 23 9 30t19 7h127q-5 -33 -11 -67t-11 -67h-133z" />
    <glyph glyph-name="cid458" unicode="&#x2177;" horiz-adv-x="900" 
d="M139 515l67 -414h2q10 57 18.5 109t16 102t15.5 100t16 103h116q-13 -63 -24.5 -121t-23 -115t-24 -115t-25.5 -121q-4 -17 -15 -30t-31 -13h-82q-20 0 -30 9t-15 31q-26 118 -49.5 235.5t-47.5 239.5h116zM401 0v515h121v-515h-121zM401 602v97q0 23 9 30t19 7h107
q-5 -33 -11 -67t-11 -67h-113zM571 0v515h121v-515h-121zM571 602v97q0 23 9 30t19 7h107q-5 -33 -11 -67t-11 -67h-113zM741 0v515h121v-515h-121zM741 602v97q0 23 9 30t19 7h107q-5 -33 -11 -67t-11 -67h-113z" />
    <glyph glyph-name="cid459" unicode="&#x2178;" horiz-adv-x="900" 
d="M296 0q44 63 89 128.5t92 131.5q-45 64 -88 127.5t-88 127.5h145q26 -38 52 -74.5t52 -74.5q26 38 51.5 75t51.5 74h146q-43 -62 -87.5 -125.5t-89.5 -128.5q46 -66 91 -130.5t91 -130.5h-146q-27 39 -54.5 78t-54.5 78q-56 -80 -108 -156h-145zM95 0v515h141v-515h-141z
M95 602v97q0 23 9 30t19 7h127q-5 -33 -11 -67t-11 -67h-133z" />
    <glyph glyph-name="cid460" unicode="&#x2179;" horiz-adv-x="900" 
d="M196 0q44 63 89 128.5t92 131.5q-45 64 -88 127.5t-88 127.5h145q26 -38 52 -74.5t52 -74.5q26 38 51.5 75t51.5 74h146q-43 -62 -87.5 -125.5t-89.5 -128.5q46 -66 91 -130.5t91 -130.5h-146q-27 39 -54.5 78t-54.5 78q-56 -80 -108 -156h-145z" />
    <glyph glyph-name="cid171" unicode="&#x2190;" horiz-adv-x="900" 
d="M17 376l322 208l16 -22l-137 -156h666v-55h-664l128 -161l-18 -18z" />
    <glyph glyph-name="cid172" unicode="&#x2191;" horiz-adv-x="900" 
d="M448 814l208 -322l-22 -16l-156 137v-746h-55v744l-161 -128l-18 18z" />
    <glyph glyph-name="cid170" unicode="&#x2192;" horiz-adv-x="900" 
d="M571 172l-18 18l128 161h-664v55h666l-137 156l16 22l322 -208z" />
    <glyph glyph-name="cid173" unicode="&#x2193;" horiz-adv-x="900" 
d="M244 166l18 18l161 -128v744h55v-746l156 137l22 -16l-208 -322z" />
    <glyph glyph-name="cid174" unicode="&#x2194;" horiz-adv-x="900" 
d="M576 172l-18 18l128 161h-472l128 -161l-18 -18l-313 204l322 208l16 -22l-137 -156h476l-137 156l16 22l322 -208z" />
    <glyph glyph-name="cid247" unicode="&#x2195;" horiz-adv-x="900" 
d="M449 -81l-202 266l18 18l160 -111v578l-160 -110l-15 24l199 258l202 -260l-22 -17l-149 107v-581l155 114l17 -19z" />
    <glyph glyph-name="cid250" unicode="&#x2196;" horiz-adv-x="900" 
d="M802 -18l-611 611l-8 -207l-35 -2l-90 383l391 -90l-10 -38l-211 -7l613 -613z" />
    <glyph glyph-name="cid248" unicode="&#x2197;" horiz-adv-x="900" 
d="M753 382l-37 7l-7 209l-614 -614l-38 40l611 611l-206 8l-2 35l383 90z" />
    <glyph glyph-name="cid251" unicode="&#x2198;" horiz-adv-x="900" 
d="M460 84l2 36l206 8l-611 612l38 38l614 -613l7 210l36 10l91 -391z" />
    <glyph glyph-name="cid249" unicode="&#x2199;" horiz-adv-x="900" 
d="M227 130l211 -7l11 -35l-391 -90l91 385l34 -7l8 -204l611 610l39 -36z" />
    <glyph glyph-name="cid195" unicode="&#x21d2;" horiz-adv-x="900" 
d="M571 67l-40 40l149 144h-660v55h711l74 73l-75 75h-710v54h657l-147 149l42 30l309 -310z" />
    <glyph glyph-name="cid196" unicode="&#x21d4;" horiz-adv-x="900" 
d="M700 499l-123 122l41 38l281 -285l-278 -276l-45 35l125 118h-503l126 -118l-44 -35l-279 276l282 286l40 -38l-122 -123h499zM751 306l72 70l-72 72h-601l-72 -72l72 -70h601z" />
    <glyph glyph-name="cid197" unicode="&#x2200;" horiz-adv-x="900" 
d="M612 726h138l-163 -670q-5 -20 -17.5 -38t-40.5 -18h-158q-28 0 -40.5 16.5t-17.5 39.5l-163 670h138l48 -212h228zM536 408h-173l68 -280q3 -13 7 -17.5t17 -4.5h9z" />
    <glyph glyph-name="cid151" unicode="&#x2202;" horiz-adv-x="900" 
d="M289 661q30 30 77 46.5t98 16.5q67 0 115 -22.5t79 -60.5t45.5 -88t14.5 -105q0 -73 -17.5 -152t-54 -145t-91.5 -108.5t-130 -42.5q-49 0 -93 16.5t-77.5 46t-53.5 70t-20 88.5q0 58 24.5 98.5t62.5 65.5t84 36t90 11q35 0 72 -2.5t70 -7.5q0 7 0.5 13t0.5 12
q0 76 -27 119.5t-84 43.5q-26 0 -55 -11.5t-43 -28.5zM418 111q35 0 60.5 19t43 48t28 65t15.5 69q-29 6 -62.5 10t-59.5 4q-60 0 -93 -29t-33 -87q0 -43 29.5 -71t71.5 -28z" />
    <glyph glyph-name="cid198" unicode="&#x2203;" horiz-adv-x="900" 
d="M274 431h248v189h-287v106h429v-635q0 -15 -3 -22t-8 -11l-59 -49q-7 -6 -15 -7.5t-16 -1.5h-328v106h287v219h-271z" />
    <glyph glyph-name="cid152" unicode="&#x2207;" horiz-adv-x="900" 
d="M455 54l-400 608h789zM224 601l253 -397l245 397h-498z" />
    <glyph glyph-name="cid184" unicode="&#x2208;" horiz-adv-x="900" 
d="M229 288q0 -29 17 -47t46 -18h520v-107h-578q-21 0 -47 16t-48 41.5t-37 58.5t-15 66v150q0 33 15 66t37 58.5t48 41.5t47 16h578v-106h-520q-29 0 -46 -18.5t-17 -48.5v-26h583v-106h-583v-37z" />
    <glyph glyph-name="cid185" unicode="&#x220b;" horiz-adv-x="900" 
d="M670 457q0 30 -17 48.5t-46 18.5h-520v106h578q21 0 47 -13t48 -35t37 -51.5t15 -62.5v-190q0 -33 -15 -62.5t-37 -51.5t-48 -35t-47 -13h-578v107h520q29 0 46 18t17 47v37h-583v106h583v26z" />
    <glyph glyph-name="cid213" unicode="&#x220f;" horiz-adv-x="900" 
d="M668 620v-620h-142v620h-154v-620h-142v620h-125v106h690v-106h-127z" />
    <glyph glyph-name="cid212" unicode="&#x2211;" horiz-adv-x="900" 
d="M103 -50v47l326 373l-324 331v75h691v-85h-499l282 -298l-284 -324h501v-119h-693z" />
    <glyph glyph-name="cid178" unicode="&#x221a;" horiz-adv-x="900" 
d="M395 0h-84l-156 349h-133v80h241l116 -270l386 719h102z" />
    <glyph glyph-name="cid180" unicode="&#x221d;" horiz-adv-x="900" 
d="M813 212q-37 -27 -81 -37.5t-77 -10.5q-56 0 -108 29t-87 75q-37 -48 -86 -76t-118 -28q-47 0 -86.5 15.5t-68 43t-45 66t-16.5 84.5q0 48 16.5 88t46.5 69t71 45t89 16q65 0 112.5 -29.5t83.5 -74.5q17 20 39.5 38.5t48.5 33t54 23t56 8.5q31 0 71.5 -8t84.5 -33v-100
q-21 12 -44 20.5t-44 13t-39.5 6.5t-30.5 2q-18 0 -36.5 -9.5t-35 -25.5t-30.5 -35.5t-24 -40.5q9 -18 22.5 -38.5t30 -38t36.5 -29t42 -11.5q23 0 65.5 11.5t87.5 40.5v-103zM252 263q49 0 79 30.5t56 83.5q-11 21 -23.5 41.5t-28 37t-34.5 27t-43 10.5q-23 0 -40.5 -10.5
t-29.5 -27.5t-18.5 -39t-6.5 -44q0 -20 6 -39.5t17.5 -35t28 -25t37.5 -9.5z" />
    <glyph glyph-name="cid136" unicode="&#x221e;" horiz-adv-x="900" 
d="M865 377q0 -42 -18 -80.5t-49 -68t-72.5 -46.5t-89.5 -17q-56 0 -102.5 23t-82.5 61q-35 -35 -83 -59.5t-105 -24.5q-46 0 -87.5 16t-73 44.5t-50 67.5t-18.5 84q0 42 17.5 81t48 68t72.5 46.5t91 17.5q59 0 103.5 -22t82.5 -65q37 40 82.5 63.5t104.5 23.5
q46 0 87.5 -16.5t73 -45.5t50 -68t18.5 -83zM740 377q0 21 -9 41t-23.5 35t-33 24t-38.5 9q-18 0 -37.5 -9.5t-37.5 -25.5t-33.5 -35.5t-25.5 -40.5q8 -19 23.5 -38t34.5 -34t39 -24.5t37 -9.5q19 0 37.5 8.5t33.5 23.5t24 34.5t9 41.5zM263 269q19 0 38.5 8.5t37.5 22.5
t33 33.5t25 40.5q-8 22 -23 42t-33 35.5t-38.5 25t-39.5 9.5t-37 -8.5t-32.5 -23.5t-23.5 -35t-9 -42q0 -21 9 -40.5t23 -34.5t32.5 -24t37.5 -9z" />
    <glyph glyph-name="cid148" unicode="&#x2220;" horiz-adv-x="900" 
d="M311 106h536v-106h-795l656 729l94 -83z" />
    <glyph glyph-name="cid8719" unicode="&#x2225;" horiz-adv-x="900" 
d="M49 0l383 726h148l-383 -726h-148zM319 0l383 726h148l-383 -726h-148z" />
    <glyph glyph-name="cid192" unicode="&#x2227;" horiz-adv-x="900" 
d="M464 620h-9q-13 0 -17 -4.5t-7 -17.5l-143 -598h-138l163 670q5 23 17.5 39.5t40.5 16.5h158q28 0 40.5 -18t17.5 -38l163 -670h-138z" />
    <glyph glyph-name="cid193" unicode="&#x2228;" horiz-adv-x="900" 
d="M612 726h138l-163 -670q-5 -20 -17.5 -38t-40.5 -18h-158q-28 0 -40.5 16.5t-17.5 39.5l-163 670h138l143 -598q3 -13 7 -17.5t17 -4.5h9z" />
    <glyph glyph-name="cid191" unicode="&#x2229;" horiz-adv-x="900" 
d="M402 630q-30 0 -48.5 -17t-18.5 -46v-567h-142v589q0 21 16 47t41.5 48t58.5 37t66 15h150q33 0 66 -15t58.5 -37t41.5 -48t16 -47v-589h-142v567q0 29 -18 46t-47 17h-98z" />
    <glyph glyph-name="cid190" unicode="&#x222a;" horiz-adv-x="900" 
d="M500 96q29 0 47 17t18 46v567h142v-589q0 -21 -16 -47t-41.5 -48t-58.5 -37t-66 -15h-150q-33 0 -66 15t-58.5 37t-41.5 48t-16 47v589h142v-567q0 -29 18.5 -46t48.5 -17h98z" />
    <glyph glyph-name="cid182" unicode="&#x222b;" horiz-adv-x="900" 
d="M476 128q-4 -26 -12.5 -53.5t-31.5 -50t-64 -37t-110 -14.5v106q40 0 58 9t20 26l66 493q6 46 26 77.5t51.5 50.5t72.5 26t89 3l-1 -106q-39 5 -66 -7t-32 -40z" />
    <glyph glyph-name="cid183" unicode="&#x222c;" horiz-adv-x="900" 
d="M346 128q-4 -26 -12.5 -53.5t-31.5 -50t-64 -37t-110 -14.5v106q40 0 58 9t20 26l66 493q6 46 26 77.5t51.5 50.5t72.5 26t89 3l-1 -106q-39 5 -66 -7t-32 -40zM606 128q-4 -26 -12.5 -53.5t-31.5 -50t-64 -37t-110 -14.5v106q40 0 58 9t20 26l66 493q6 46 26 77.5
t51.5 50.5t72.5 26t89 3l-1 -106q-39 5 -66 -7t-32 -40z" />
    <glyph glyph-name="cid211" unicode="&#x222e;" horiz-adv-x="900" 
d="M180 414q0 21 17 49.5t44 55t60.5 45t66.5 18.5h44l3 22q6 46 26 77.5t51.5 50.5t72.5 26t89 3l-1 -106q-39 5 -66 -7t-32 -40l-4 -26q32 0 62.5 -13.5t54 -33.5t37.5 -44.5t14 -46.5v-153q0 -21 -17 -49.5t-44 -55t-60.5 -45t-66.5 -18.5h-46l-5 -39q-4 -26 -12.5 -53.5
t-31.5 -50t-64 -37t-110 -14.5v106q40 0 58 9t20 26l7 53q-32 0 -62.5 14.5t-53.5 36.5t-37 46.5t-14 45.5v148zM582 307v116q0 22 -11 37.5t-35 17.5l-36 -251q15 0 29.5 8.5t26 21t19 26t7.5 24.5zM317 282q0 -21 11 -36t34 -18l35 250q-15 -1 -29 -10t-25.5 -21
t-18.5 -25.5t-7 -23.5v-116z" />
    <glyph glyph-name="cid137" unicode="&#x2234;" horiz-adv-x="900" 
d="M140 103v130h142v-130h-142zM618 103v130h142v-130h-142zM379 518v130h142v-130h-142z" />
    <glyph glyph-name="cid181" unicode="&#x2235;" horiz-adv-x="900" 
d="M282 648v-130h-142v130h142zM760 648v-130h-142v130h142zM521 233v-130h-142v130h142z" />
    <glyph glyph-name="cid113" unicode="&#x223c;" horiz-adv-x="900" 
d="M328 485q37 -5 72.5 -27t68.5 -51q17 -14 31.5 -22t35.5 -10q13 -1 26 7.5t24.5 23t20 33t13.5 37.5l111 -37q-9 -39 -28.5 -72t-46.5 -56t-60.5 -34t-71.5 -7q-23 2 -53 10.5t-56 30.5q-28 23 -50 43.5t-48 23.5q-13 1 -25.5 -7t-23.5 -21.5t-20 -30.5t-15 -33l-105 45
q10 29 28 58.5t43.5 52.5t57.5 35.5t71 7.5z" />
    <glyph glyph-name="cid179" unicode="&#x223d;" horiz-adv-x="900" 
d="M328 272q-39 -5 -71 7.5t-57.5 35.5t-43.5 52.5t-28 58.5l105 45q6 -16 15 -33t20 -30.5t23.5 -22t25.5 -6.5q26 3 48 23.5t50 43.5q26 22 56 30.5t53 10.5q38 4 71.5 -7t60.5 -34t46.5 -56t28.5 -72l-111 -37q-5 19 -13.5 37.5t-20 33t-24.5 23t-26 7.5
q-21 -2 -35.5 -10t-31.5 -22q-33 -29 -68.5 -51t-72.5 -27z" />
    <glyph glyph-name="cid154" unicode="&#x2252;" horiz-adv-x="900" 
d="M87 336h726v-106h-726v106zM87 525h726v-106h-726v106zM137 592v130h142v-130h-142zM621 30v130h142v-130h-142z" />
    <glyph glyph-name="cid133" unicode="&#x2260;" horiz-adv-x="900" 
d="M227 0l84 217h-204v103h244l46 116h-290v103h330l73 187h148l-73 -187h208v-103h-248l-46 -116h294v-103h-334l-84 -217h-148z" />
    <glyph glyph-name="cid153" unicode="&#x2261;" horiz-adv-x="900" 
d="M87 251h726v-103h-726v103zM87 430h726v-103h-726v103zM87 609h726v-103h-726v103z" />
    <glyph glyph-name="cid134" unicode="&#x2264;" horiz-adv-x="900" 
d="M182 468l536 225v-134l-373 -138l373 -141v-133l-536 224v97zM142 86h616v-106h-616v106z" />
    <glyph glyph-name="cid135" unicode="&#x2265;" horiz-adv-x="900" 
d="M718 371l-536 -224v133l373 141l-373 138v134l536 -225v-97zM142 86h616v-106h-616v106z" />
    <glyph glyph-name="cid176" unicode="&#x226a;" horiz-adv-x="900" 
d="M201 379l348 -270l-73 -89l-451 353l451 352l70 -86zM518 379l348 -270l-73 -89l-451 353l450 352l71 -86z" />
    <glyph glyph-name="cid177" unicode="&#x226b;" horiz-adv-x="900" 
d="M345 639l70 86l451 -352l-451 -353l-73 89l348 270zM28 639l71 86l450 -352l-451 -353l-73 89l348 270z" />
    <glyph glyph-name="cid188" unicode="&#x2282;" horiz-adv-x="900" 
d="M229 288q0 -29 17 -47t46 -18h520v-107h-578q-21 0 -47 16t-48 41.5t-37 58.5t-15 66v150q0 33 15 66t37 58.5t48 41.5t47 16h578v-106h-520q-29 0 -46 -18.5t-17 -48.5v-169z" />
    <glyph glyph-name="cid189" unicode="&#x2283;" horiz-adv-x="900" 
d="M670 457q0 30 -17 48.5t-46 18.5h-520v106h578q21 0 47 -13t48 -35t37 -51.5t15 -62.5v-190q0 -33 -15 -62.5t-37 -51.5t-48 -35t-47 -13h-578v107h520q29 0 46 18t17 47v169z" />
    <glyph glyph-name="cid186" unicode="&#x2286;" horiz-adv-x="900" 
d="M229 409q0 -29 17 -47t46 -18h520v-107h-578q-21 0 -47 13t-48 35t-37 51.5t-15 62.5v140q0 33 15 62.5t37 51.5t48 35t47 13h578v-106h-520q-29 0 -46 -18.5t-17 -48.5v-119zM87 152h725v-106h-725v106z" />
    <glyph glyph-name="cid187" unicode="&#x2287;" horiz-adv-x="900" 
d="M670 528q0 30 -17 48.5t-46 18.5h-520v106h578q21 0 47 -13t48 -35t37 -51.5t15 -62.5v-140q0 -33 -15 -62.5t-37 -51.5t-48 -35t-47 -13h-578v107h520q29 0 46 18t17 47v119zM812 46h-725v106h725v-106z" />
    <glyph glyph-name="cid227" unicode="&#x2299;" horiz-adv-x="900" 
d="M175 368q0 -57 22 -107.5t59.5 -88.5t87.5 -60.5t106 -22.5q57 0 107 22.5t87.5 60.5t59.5 88.5t22 107.5q0 56 -22 106.5t-59.5 88.5t-87.5 60.5t-107 22.5q-56 0 -106 -22.5t-87.5 -60.5t-59.5 -88.5t-22 -106.5zM367 368q0 35 24 59.5t59 24.5t60 -24.5t25 -59.5
q0 -34 -25 -58.5t-60 -24.5t-59 24.5t-24 58.5zM826 368q0 -77 -30 -146t-81 -120.5t-119.5 -81.5t-145.5 -30t-145.5 30t-120 81.5t-81.5 120.5t-30 146t30 145.5t81.5 119.5t120 81t145.5 30t145.5 -30t119.5 -81t81 -119.5t30 -145.5z" />
    <glyph glyph-name="cid149" unicode="&#x22a5;" horiz-adv-x="900" 
d="M67 106h313v630h142v-630h311v-106h-766v106z" />
    <glyph glyph-name="cid150" unicode="&#x2312;" horiz-adv-x="900" 
d="M77 0q15 78 46 143t78.5 112t109.5 73t138 26q81 0 145 -29t110.5 -77.5t76 -113t42.5 -134.5h-142q-12 51 -32 96t-49.5 79t-67 53.5t-83.5 19.5q-45 0 -83.5 -20t-68.5 -54t-50 -79t-28 -95h-142z" />
    <glyph glyph-name="cid733" unicode="&#x2460;" horiz-adv-x="1000" 
d="M458 52v432h-98v85q15 0 33 4t33 12.5t25.5 20.5t10.5 27h110v-581h-114zM19 351q0 100 38 187.5t103 153t153 103.5t187 38q100 0 187.5 -38t153 -103.5t103.5 -153t38 -187.5q0 -99 -38 -187t-103.5 -153t-153 -103t-187.5 -38q-99 0 -187 38t-153 103t-103 153
t-38 187zM104 351q0 -81 31.5 -153.5t85.5 -127t126 -86t153 -31.5q82 0 154 31.5t126 86t85.5 127t31.5 153.5q0 82 -31.5 154.5t-85.5 127t-126 86t-154 31.5q-81 0 -153 -31.5t-126 -86t-85.5 -127t-31.5 -154.5z" />
    <glyph glyph-name="cid734" unicode="&#x2461;" horiz-adv-x="1000" 
d="M552 396q14 10 14 33v71q0 20 -9.5 34t-32.5 14h-183v85h209q21 0 43.5 -12.5t42 -31.5t32 -41.5t12.5 -41.5v-80q0 -27 -13 -46.5t-33 -33.5l-185 -143v-66h241v-85h-355v156q0 18 5.5 28.5t17.5 19.5zM19 351q0 100 38 187.5t103 153t153 103.5t187 38q100 0 187.5 -38
t153 -103.5t103.5 -153t38 -187.5q0 -99 -38 -187t-103.5 -153t-153 -103t-187.5 -38q-99 0 -187 38t-153 103t-103 153t-38 187zM104 351q0 -81 31.5 -153.5t85.5 -127t126 -86t153 -31.5q82 0 154 31.5t126 86t85.5 127t31.5 153.5q0 82 -31.5 154.5t-85.5 127t-126 86
t-154 31.5q-81 0 -153 -31.5t-126 -86t-85.5 -127t-31.5 -154.5z" />
    <glyph glyph-name="cid735" unicode="&#x2462;" horiz-adv-x="1000" 
d="M350 633h220q20 0 43 -12.5t42 -31.5t31.5 -41.5t12.5 -41.5v-42q0 -27 -17 -54.5t-45 -39.5q14 -5 26.5 -12t22.5 -18.5t15.5 -28.5t5.5 -41v-68q0 -16 -16 -41.5t-39 -49.5t-48.5 -41.5t-44.5 -17.5h-214v85h181q8 0 20 7.5t22.5 18.5t18 23t7.5 21v78q0 3 -0.5 8.5
t-2.5 11t-7.5 9t-15.5 3.5h-191v85h141q28 0 48 13.5t20 54.5v29q0 20 -10 34.5t-33 14.5h-193v85zM19 351q0 100 38 187.5t103 153t153 103.5t187 38q100 0 187.5 -38t153 -103.5t103.5 -153t38 -187.5q0 -99 -38 -187t-103.5 -153t-153 -103t-187.5 -38q-99 0 -187 38
t-153 103t-103 153t-38 187zM104 351q0 -81 31.5 -153.5t85.5 -127t126 -86t153 -31.5q82 0 154 31.5t126 86t85.5 127t31.5 153.5q0 82 -31.5 154.5t-85.5 127t-126 86t-154 31.5q-81 0 -153 -31.5t-126 -86t-85.5 -127t-31.5 -154.5z" />
    <glyph glyph-name="cid736" unicode="&#x2463;" horiz-adv-x="1000" 
d="M512 52v102h-243v85l243 394h111v-395h64v-84h-64v-102h-111zM512 238v222l-136 -222h136zM19 351q0 100 38 187.5t103 153t153 103.5t187 38q100 0 187.5 -38t153 -103.5t103.5 -153t38 -187.5q0 -99 -38 -187t-103.5 -153t-153 -103t-187.5 -38q-99 0 -187 38t-153 103
t-103 153t-38 187zM104 351q0 -81 31.5 -153.5t85.5 -127t126 -86t153 -31.5q82 0 154 31.5t126 86t85.5 127t31.5 153.5q0 82 -31.5 154.5t-85.5 127t-126 86t-154 31.5q-81 0 -153 -31.5t-126 -86t-85.5 -127t-31.5 -154.5z" />
    <glyph glyph-name="cid737" unicode="&#x2464;" horiz-adv-x="1000" 
d="M464 397h138q18 0 35 -6.5t31 -19t22.5 -31.5t8.5 -44v-106q0 -18 -13.5 -42t-33.5 -45t-45 -36t-47 -15h-220v85h190q20 0 38 18.5t18 41.5v93q0 9 -3.5 15.5t-16.5 6.5h-216v321h324v-84h-210v-152zM19 351q0 100 38 187.5t103 153t153 103.5t187 38q100 0 187.5 -38
t153 -103.5t103.5 -153t38 -187.5q0 -99 -38 -187t-103.5 -153t-153 -103t-187.5 -38q-99 0 -187 38t-153 103t-103 153t-38 187zM104 351q0 -81 31.5 -153.5t85.5 -127t126 -86t153 -31.5q82 0 154 31.5t126 86t85.5 127t31.5 153.5q0 82 -31.5 154.5t-85.5 127t-126 86
t-154 31.5q-81 0 -153 -31.5t-126 -86t-85.5 -127t-31.5 -154.5z" />
    <glyph glyph-name="cid738" unicode="&#x2465;" horiz-adv-x="1000" 
d="M306 490q0 16 13.5 40.5t34.5 47.5t46 39t48 16h174v-85h-138q-10 0 -21.5 -8.5t-21 -20t-15.5 -24t-6 -21.5v-78q17 12 33 21.5t29 9.5h71q20 0 44.5 -12.5t45.5 -30.5t35.5 -38.5t14.5 -36.5v-137q0 -17 -14.5 -39t-36 -42.5t-46 -34.5t-43.5 -14h-103q-19 0 -44 12.5
t-47 30.5t-37.5 38.5t-15.5 36.5v330zM579 288q0 54 -45 54h-49q-8 0 -19.5 -6t-21.5 -14.5t-17 -18.5t-7 -19v-107q0 -23 17 -36.5t40 -13.5h48q9 0 18.5 6t17.5 15.5t13 20.5t5 20v99zM19 351q0 100 38 187.5t103 153t153 103.5t187 38q100 0 187.5 -38t153 -103.5
t103.5 -153t38 -187.5q0 -99 -38 -187t-103.5 -153t-153 -103t-187.5 -38q-99 0 -187 38t-153 103t-103 153t-38 187zM104 351q0 -81 31.5 -153.5t85.5 -127t126 -86t153 -31.5q82 0 154 31.5t126 86t85.5 127t31.5 153.5q0 82 -31.5 154.5t-85.5 127t-126 86t-154 31.5
q-81 0 -153 -31.5t-126 -86t-85.5 -127t-31.5 -154.5z" />
    <glyph glyph-name="cid739" unicode="&#x2466;" horiz-adv-x="1000" 
d="M329 633h362v-85l-192 -496h-111l189 496h-248v85zM19 351q0 100 38 187.5t103 153t153 103.5t187 38q100 0 187.5 -38t153 -103.5t103.5 -153t38 -187.5q0 -99 -38 -187t-103.5 -153t-153 -103t-187.5 -38q-99 0 -187 38t-153 103t-103 153t-38 187zM104 351
q0 -81 31.5 -153.5t85.5 -127t126 -86t153 -31.5q82 0 154 31.5t126 86t85.5 127t31.5 153.5q0 82 -31.5 154.5t-85.5 127t-126 86t-154 31.5q-81 0 -153 -31.5t-126 -86t-85.5 -127t-31.5 -154.5z" />
    <glyph glyph-name="cid740" unicode="&#x2467;" horiz-adv-x="1000" 
d="M304 258q0 18 16 43t42 46q-20 17 -32.5 36.5t-12.5 36.5v100q0 18 11 39.5t28.5 40t40 31t45.5 12.5h112q26 0 51 -12t45 -31t32.5 -41.5t12.5 -44.5v-74q0 -21 -12 -45t-30 -44q21 -17 34 -38.5t13 -40.5v-105q0 -20 -12.5 -41.5t-32.5 -40.5t-45.5 -31t-50.5 -12h-127
q-24 0 -47 11t-41 27.5t-29 35.5t-11 36v106zM413 163q0 -40 41 -40h79q23 0 40 13.5t17 37.5v87q0 19 -11 32.5t-35 13.5h-73q-12 0 -22.5 -6.5t-18.5 -15.5t-12.5 -19t-4.5 -19v-84zM586 521q0 16 -8.5 28t-31.5 12h-66q-15 0 -25.5 -6.5t-17 -16.5t-9 -20.5t-2.5 -18.5
v-62q0 -23 6 -36t26 -15h70q13 1 24 8t18.5 17.5t11.5 22.5t4 23v64zM19 351q0 100 38 187.5t103 153t153 103.5t187 38q100 0 187.5 -38t153 -103.5t103.5 -153t38 -187.5q0 -99 -38 -187t-103.5 -153t-153 -103t-187.5 -38q-99 0 -187 38t-153 103t-103 153t-38 187z
M104 351q0 -81 31.5 -153.5t85.5 -127t126 -86t153 -31.5q82 0 154 31.5t126 86t85.5 127t31.5 153.5q0 82 -31.5 154.5t-85.5 127t-126 86t-154 31.5q-81 0 -153 -31.5t-126 -86t-85.5 -127t-31.5 -154.5z" />
    <glyph glyph-name="cid741" unicode="&#x2468;" horiz-adv-x="1000" 
d="M695 194q0 -16 -13.5 -40.5t-34.5 -47t-46 -38.5t-48 -16h-171v85h135q10 0 21.5 8.5t21 20t15.5 24t6 21.5v78q-17 -12 -33 -21.5t-29 -9.5h-71q-20 0 -44.5 12.5t-45.5 30.5t-35.5 38.5t-14.5 36.5v137q0 16 14.5 38.5t36 42.5t46 34.5t43.5 14.5h103q19 0 44 -12.5
t47 -30.5t37.5 -39t15.5 -37v-330zM422 397q0 -55 45 -55h49q8 0 19.5 6t21.5 15t17 19t7 19v107q0 23 -17 36.5t-40 13.5h-48q-9 0 -18.5 -6.5t-17.5 -15.5t-13 -20t-5 -20v-99zM19 351q0 100 38 187.5t103 153t153 103.5t187 38q100 0 187.5 -38t153 -103.5t103.5 -153
t38 -187.5q0 -99 -38 -187t-103.5 -153t-153 -103t-187.5 -38q-99 0 -187 38t-153 103t-103 153t-38 187zM104 351q0 -81 31.5 -153.5t85.5 -127t126 -86t153 -31.5q82 0 154 31.5t126 86t85.5 127t31.5 153.5q0 82 -31.5 154.5t-85.5 127t-126 86t-154 31.5
q-81 0 -153 -31.5t-126 -86t-85.5 -127t-31.5 -154.5z" />
    <glyph glyph-name="cid742" unicode="&#x2469;" horiz-adv-x="1000" 
d="M268 62v412h-88v85q15 0 31 4t29.5 12.5t22.5 20.5t9 27h110v-561h-114zM814 194q0 -16 -15 -40.5t-36.5 -47t-46.5 -38.5t-44 -16h-81q-19 0 -42.5 11t-43.5 27t-34 35t-14 35v340q0 20 15 43.5t37 43.5t46.5 33t43.5 13h81q19 0 42.5 -12.5t44 -30.5t34 -39t13.5 -37
v-320zM701 211v287q0 23 -8 36.5t-31 13.5h-37q-8 0 -17.5 -5.5t-18 -14.5t-14 -20.5t-5.5 -23.5v-307q0 -23 12.5 -31.5t34.5 -8.5h29q12 0 22 8.5t17.5 20t11.5 24t4 21.5zM19 351q0 100 38 187.5t103 153t153 103.5t187 38q100 0 187.5 -38t153 -103.5t103.5 -153
t38 -187.5q0 -99 -38 -187t-103.5 -153t-153 -103t-187.5 -38q-99 0 -187 38t-153 103t-103 153t-38 187zM104 351q0 -81 31.5 -153.5t85.5 -127t126 -86t153 -31.5q82 0 154 31.5t126 86t85.5 127t31.5 153.5q0 82 -31.5 154.5t-85.5 127t-126 86t-154 31.5
q-81 0 -153 -31.5t-126 -86t-85.5 -127t-31.5 -154.5z" />
    <glyph glyph-name="cid743" unicode="&#x246a;" horiz-adv-x="1000" 
d="M308 62v412h-98v85q15 0 33 4t33 12.5t25.5 20.5t10.5 27h110v-561h-114zM608 62v412h-98v85q15 0 33 4t33 12.5t25.5 20.5t10.5 27h110v-561h-114zM19 351q0 100 38 187.5t103 153t153 103.5t187 38q100 0 187.5 -38t153 -103.5t103.5 -153t38 -187.5q0 -99 -38 -187
t-103.5 -153t-153 -103t-187.5 -38q-99 0 -187 38t-153 103t-103 153t-38 187zM104 351q0 -81 31.5 -153.5t85.5 -127t126 -86t153 -31.5q82 0 154 31.5t126 86t85.5 127t31.5 153.5q0 82 -31.5 154.5t-85.5 127t-126 86t-154 31.5q-81 0 -153 -31.5t-126 -86t-85.5 -127
t-31.5 -154.5z" />
    <glyph glyph-name="cid744" unicode="&#x246b;" horiz-adv-x="1000" 
d="M268 62v412h-88v85q15 0 31 4t29.5 12.5t22.5 20.5t9 27h110v-561h-114zM19 351q0 100 38 187.5t103 153t153 103.5t187 38q100 0 187.5 -38t153 -103.5t103.5 -153t38 -187.5q0 -99 -38 -187t-103.5 -153t-153 -103t-187.5 -38q-99 0 -187 38t-153 103t-103 153t-38 187
zM642 396q14 12 14 33v61q0 20 -9.5 34t-32.5 14h-143v85h169q21 0 43.5 -12.5t42 -31.5t32 -41.5t12.5 -41.5v-80q0 -27 -14.5 -45t-31.5 -35l-145 -133v-56h191v-85h-305v146q0 18 6 28t17 20zM104 351q0 -81 31.5 -153.5t85.5 -127t126 -86t153 -31.5q82 0 154 31.5
t126 86t85.5 127t31.5 153.5q0 82 -31.5 154.5t-85.5 127t-126 86t-154 31.5q-81 0 -153 -31.5t-126 -86t-85.5 -127t-31.5 -154.5z" />
    <glyph glyph-name="cid745" unicode="&#x246c;" horiz-adv-x="1000" 
d="M268 62v412h-88v85q15 0 31 4t29.5 12.5t22.5 20.5t9 27h110v-561h-114zM19 351q0 100 38 187.5t103 153t153 103.5t187 38q100 0 187.5 -38t153 -103.5t103.5 -153t38 -187.5q0 -99 -38 -187t-103.5 -153t-153 -103t-187.5 -38q-99 0 -187 38t-153 103t-103 153t-38 187
zM480 623h180q20 0 43 -12.5t42 -31.5t31.5 -41.5t12.5 -41.5v-32q0 -27 -17 -54.5t-45 -39.5q14 -5 26.5 -12t22.5 -18.5t15.5 -28.5t5.5 -41v-68q0 -16 -14.5 -40t-35.5 -46t-45 -38t-43 -16h-184v85h151q8 0 18 6t19 15t15 19.5t6 19.5v78q0 3 -0.5 8.5t-2.5 11t-7.5 9
t-15.5 3.5h-151v85h101q28 0 48 13.5t20 54.5v19q0 20 -10 34.5t-33 14.5h-153v85zM104 351q0 -81 31.5 -153.5t85.5 -127t126 -86t153 -31.5q82 0 154 31.5t126 86t85.5 127t31.5 153.5q0 82 -31.5 154.5t-85.5 127t-126 86t-154 31.5q-81 0 -153 -31.5t-126 -86
t-85.5 -127t-31.5 -154.5z" />
    <glyph glyph-name="cid746" unicode="&#x246d;" horiz-adv-x="1000" 
d="M268 62v412h-88v85q15 0 31 4t29.5 12.5t22.5 20.5t9 27h110v-561h-114zM632 52v112h-203v85l203 374h111v-375h64v-84h-64v-112h-111zM632 248v182l-96 -182h96zM19 351q0 100 38 187.5t103 153t153 103.5t187 38q100 0 187.5 -38t153 -103.5t103.5 -153t38 -187.5
q0 -99 -38 -187t-103.5 -153t-153 -103t-187.5 -38q-99 0 -187 38t-153 103t-103 153t-38 187zM104 351q0 -81 31.5 -153.5t85.5 -127t126 -86t153 -31.5q82 0 154 31.5t126 86t85.5 127t31.5 153.5q0 82 -31.5 154.5t-85.5 127t-126 86t-154 31.5q-81 0 -153 -31.5
t-126 -86t-85.5 -127t-31.5 -154.5z" />
    <glyph glyph-name="cid747" unicode="&#x246e;" horiz-adv-x="1000" 
d="M268 62v412h-88v85q15 0 31 4t29.5 12.5t22.5 20.5t9 27h110v-561h-114zM594 397h98q18 0 35 -6.5t31 -19t22.5 -31.5t8.5 -44v-96q0 -18 -13.5 -42t-33.5 -45t-45 -36t-47 -15h-180v85h150q20 0 38 18.5t18 41.5v83q0 9 -3.5 15.5t-16.5 6.5h-176v311h284v-84h-170v-142
zM19 351q0 100 38 187.5t103 153t153 103.5t187 38q100 0 187.5 -38t153 -103.5t103.5 -153t38 -187.5q0 -99 -38 -187t-103.5 -153t-153 -103t-187.5 -38q-99 0 -187 38t-153 103t-103 153t-38 187zM104 351q0 -81 31.5 -153.5t85.5 -127t126 -86t153 -31.5q82 0 154 31.5
t126 86t85.5 127t31.5 153.5q0 82 -31.5 154.5t-85.5 127t-126 86t-154 31.5q-81 0 -153 -31.5t-126 -86t-85.5 -127t-31.5 -154.5z" />
    <glyph glyph-name="cid827" unicode="&#x2474;" horiz-adv-x="1000" 
d="M458 52v432h-98v85q15 0 33 4t33 12.5t25.5 20.5t10.5 27h110v-581h-114zM306 781q-101 -102 -151.5 -208t-50.5 -222q0 -115 50.5 -221.5t151.5 -209.5h-95q-92 84 -142 194.5t-50 236.5t50 236.5t142 193.5h95zM790 781q92 -83 142 -193.5t50 -236.5t-50 -236.5
t-142 -194.5h-95q101 103 151.5 209.5t50.5 221.5q0 116 -50.5 222t-151.5 208h95z" />
    <glyph glyph-name="cid828" unicode="&#x2475;" horiz-adv-x="1000" 
d="M552 396q14 10 14 33v71q0 20 -9.5 34t-32.5 14h-183v85h209q21 0 43.5 -12.5t42 -31.5t32 -41.5t12.5 -41.5v-80q0 -27 -13 -46.5t-33 -33.5l-185 -143v-66h241v-85h-355v156q0 18 5.5 28.5t17.5 19.5zM306 781q-101 -102 -151.5 -208t-50.5 -222q0 -115 50.5 -221.5
t151.5 -209.5h-95q-92 84 -142 194.5t-50 236.5t50 236.5t142 193.5h95zM790 781q92 -83 142 -193.5t50 -236.5t-50 -236.5t-142 -194.5h-95q101 103 151.5 209.5t50.5 221.5q0 116 -50.5 222t-151.5 208h95z" />
    <glyph glyph-name="cid829" unicode="&#x2476;" horiz-adv-x="1000" 
d="M350 633h220q20 0 43 -12.5t42 -31.5t31.5 -41.5t12.5 -41.5v-42q0 -27 -17 -54.5t-45 -39.5q14 -5 26.5 -12t22.5 -18.5t15.5 -28.5t5.5 -41v-68q0 -16 -16 -41.5t-39 -49.5t-48.5 -41.5t-44.5 -17.5h-214v85h181q8 0 20 7.5t22.5 18.5t18 23t7.5 21v78q0 3 -0.5 8.5
t-2.5 11t-7.5 9t-15.5 3.5h-191v85h141q28 0 48 13.5t20 54.5v29q0 20 -10 34.5t-33 14.5h-193v85zM306 781q-101 -102 -151.5 -208t-50.5 -222q0 -115 50.5 -221.5t151.5 -209.5h-95q-92 84 -142 194.5t-50 236.5t50 236.5t142 193.5h95zM790 781q92 -83 142 -193.5
t50 -236.5t-50 -236.5t-142 -194.5h-95q101 103 151.5 209.5t50.5 221.5q0 116 -50.5 222t-151.5 208h95z" />
    <glyph glyph-name="cid830" unicode="&#x2477;" horiz-adv-x="1000" 
d="M512 52v102h-243v85l243 394h111v-395h64v-84h-64v-102h-111zM512 238v222l-136 -222h136zM306 781q-101 -102 -151.5 -208t-50.5 -222q0 -115 50.5 -221.5t151.5 -209.5h-95q-92 84 -142 194.5t-50 236.5t50 236.5t142 193.5h95zM790 781q92 -83 142 -193.5t50 -236.5
t-50 -236.5t-142 -194.5h-95q101 103 151.5 209.5t50.5 221.5q0 116 -50.5 222t-151.5 208h95z" />
    <glyph glyph-name="cid831" unicode="&#x2478;" horiz-adv-x="1000" 
d="M464 397h138q18 0 35 -6.5t31 -19t22.5 -31.5t8.5 -44v-106q0 -18 -13.5 -42t-33.5 -45t-45 -36t-47 -15h-220v85h190q20 0 38 18.5t18 41.5v93q0 9 -3.5 15.5t-16.5 6.5h-216v321h324v-84h-210v-152zM306 781q-101 -102 -151.5 -208t-50.5 -222q0 -115 50.5 -221.5
t151.5 -209.5h-95q-92 84 -142 194.5t-50 236.5t50 236.5t142 193.5h95zM790 781q92 -83 142 -193.5t50 -236.5t-50 -236.5t-142 -194.5h-95q101 103 151.5 209.5t50.5 221.5q0 116 -50.5 222t-151.5 208h95z" />
    <glyph glyph-name="cid832" unicode="&#x2479;" horiz-adv-x="1000" 
d="M306 490q0 16 13.5 40.5t34.5 47.5t46 39t48 16h174v-85h-138q-10 0 -21.5 -8.5t-21 -20t-15.5 -24t-6 -21.5v-78q17 12 33 21.5t29 9.5h71q20 0 44.5 -12.5t45.5 -30.5t35.5 -38.5t14.5 -36.5v-137q0 -17 -14.5 -39t-36 -42.5t-46 -34.5t-43.5 -14h-103q-19 0 -44 12.5
t-47 30.5t-37.5 38.5t-15.5 36.5v330zM579 288q0 54 -45 54h-49q-8 0 -19.5 -6t-21.5 -14.5t-17 -18.5t-7 -19v-107q0 -23 17 -36.5t40 -13.5h48q9 0 18.5 6t17.5 15.5t13 20.5t5 20v99zM306 781q-101 -102 -151.5 -208t-50.5 -222q0 -115 50.5 -221.5t151.5 -209.5h-95
q-92 84 -142 194.5t-50 236.5t50 236.5t142 193.5h95zM790 781q92 -83 142 -193.5t50 -236.5t-50 -236.5t-142 -194.5h-95q101 103 151.5 209.5t50.5 221.5q0 116 -50.5 222t-151.5 208h95z" />
    <glyph glyph-name="cid833" unicode="&#x247a;" horiz-adv-x="1000" 
d="M329 633h362v-85l-192 -496h-111l189 496h-248v85zM306 781q-101 -102 -151.5 -208t-50.5 -222q0 -115 50.5 -221.5t151.5 -209.5h-95q-92 84 -142 194.5t-50 236.5t50 236.5t142 193.5h95zM790 781q92 -83 142 -193.5t50 -236.5t-50 -236.5t-142 -194.5h-95
q101 103 151.5 209.5t50.5 221.5q0 116 -50.5 222t-151.5 208h95z" />
    <glyph glyph-name="cid834" unicode="&#x247b;" horiz-adv-x="1000" 
d="M304 258q0 18 16 43t42 46q-20 17 -32.5 36.5t-12.5 36.5v100q0 18 11 39.5t28.5 40t40 31t45.5 12.5h112q26 0 51 -12t45 -31t32.5 -41.5t12.5 -44.5v-74q0 -21 -12 -45t-30 -44q21 -17 34 -38.5t13 -40.5v-105q0 -20 -12.5 -41.5t-32.5 -40.5t-45.5 -31t-50.5 -12h-127
q-24 0 -47 11t-41 27.5t-29 35.5t-11 36v106zM413 163q0 -40 41 -40h79q23 0 40 13.5t17 37.5v87q0 19 -11 32.5t-35 13.5h-73q-12 0 -22.5 -6.5t-18.5 -15.5t-12.5 -19t-4.5 -19v-84zM586 521q0 16 -8.5 28t-31.5 12h-66q-15 0 -25.5 -6.5t-17 -16.5t-9 -20.5t-2.5 -18.5
v-62q0 -23 6 -36t26 -15h70q13 1 24 8t18.5 17.5t11.5 22.5t4 23v64zM306 781q-101 -102 -151.5 -208t-50.5 -222q0 -115 50.5 -221.5t151.5 -209.5h-95q-92 84 -142 194.5t-50 236.5t50 236.5t142 193.5h95zM790 781q92 -83 142 -193.5t50 -236.5t-50 -236.5t-142 -194.5
h-95q101 103 151.5 209.5t50.5 221.5q0 116 -50.5 222t-151.5 208h95z" />
    <glyph glyph-name="cid835" unicode="&#x247c;" horiz-adv-x="1000" 
d="M695 194q0 -16 -13.5 -40.5t-34.5 -47t-46 -38.5t-48 -16h-171v85h135q10 0 21.5 8.5t21 20t15.5 24t6 21.5v78q-17 -12 -33 -21.5t-29 -9.5h-71q-20 0 -44.5 12.5t-45.5 30.5t-35.5 38.5t-14.5 36.5v137q0 16 14.5 38.5t36 42.5t46 34.5t43.5 14.5h103q19 0 44 -12.5
t47 -30.5t37.5 -39t15.5 -37v-330zM422 397q0 -55 45 -55h49q8 0 19.5 6t21.5 15t17 19t7 19v107q0 23 -17 36.5t-40 13.5h-48q-9 0 -18.5 -6.5t-17.5 -15.5t-13 -20t-5 -20v-99zM306 781q-101 -102 -151.5 -208t-50.5 -222q0 -115 50.5 -221.5t151.5 -209.5h-95
q-92 84 -142 194.5t-50 236.5t50 236.5t142 193.5h95zM790 781q92 -83 142 -193.5t50 -236.5t-50 -236.5t-142 -194.5h-95q101 103 151.5 209.5t50.5 221.5q0 116 -50.5 222t-151.5 208h95z" />
    <glyph glyph-name="cid836" unicode="&#x247d;" horiz-adv-x="1000" 
d="M268 62v412h-88v85q15 0 31 4t29.5 12.5t22.5 20.5t9 27h110v-561h-114zM814 194q0 -16 -15 -40.5t-36.5 -47t-46.5 -38.5t-44 -16h-81q-19 0 -42.5 11t-43.5 27t-34 35t-14 35v340q0 20 15 43.5t37 43.5t46.5 33t43.5 13h81q19 0 42.5 -12.5t44 -30.5t34 -39t13.5 -37
v-320zM701 211v287q0 23 -8 36.5t-31 13.5h-37q-8 0 -17.5 -5.5t-18 -14.5t-14 -20.5t-5.5 -23.5v-307q0 -23 12.5 -31.5t34.5 -8.5h29q12 0 22 8.5t17.5 20t11.5 24t4 21.5zM306 781q-101 -102 -151.5 -208t-50.5 -222q0 -115 50.5 -221.5t151.5 -209.5h-95
q-92 84 -142 194.5t-50 236.5t50 236.5t142 193.5h95zM790 781q92 -83 142 -193.5t50 -236.5t-50 -236.5t-142 -194.5h-95q101 103 151.5 209.5t50.5 221.5q0 116 -50.5 222t-151.5 208h95z" />
    <glyph glyph-name="cid837" unicode="&#x247e;" horiz-adv-x="1000" 
d="M308 62v412h-98v85q15 0 33 4t33 12.5t25.5 20.5t10.5 27h110v-561h-114zM608 62v412h-98v85q15 0 33 4t33 12.5t25.5 20.5t10.5 27h110v-561h-114zM306 781q-101 -102 -151.5 -208t-50.5 -222q0 -115 50.5 -221.5t151.5 -209.5h-95q-92 84 -142 194.5t-50 236.5
t50 236.5t142 193.5h95zM790 781q92 -83 142 -193.5t50 -236.5t-50 -236.5t-142 -194.5h-95q101 103 151.5 209.5t50.5 221.5q0 116 -50.5 222t-151.5 208h95z" />
    <glyph glyph-name="cid838" unicode="&#x247f;" horiz-adv-x="1000" 
d="M268 62v412h-88v85q15 0 31 4t29.5 12.5t22.5 20.5t9 27h110v-561h-114zM642 396q14 12 14 33v61q0 20 -9.5 34t-32.5 14h-143v85h169q21 0 43.5 -12.5t42 -31.5t32 -41.5t12.5 -41.5v-80q0 -27 -14.5 -45t-31.5 -35l-145 -133v-56h191v-85h-305v146q0 18 6 28t17 20z
M306 781q-101 -102 -151.5 -208t-50.5 -222q0 -115 50.5 -221.5t151.5 -209.5h-95q-92 84 -142 194.5t-50 236.5t50 236.5t142 193.5h95zM790 781q92 -83 142 -193.5t50 -236.5t-50 -236.5t-142 -194.5h-95q101 103 151.5 209.5t50.5 221.5q0 116 -50.5 222t-151.5 208h95z
" />
    <glyph glyph-name="cid839" unicode="&#x2480;" horiz-adv-x="1000" 
d="M268 62v412h-88v85q15 0 31 4t29.5 12.5t22.5 20.5t9 27h110v-561h-114zM480 623h180q20 0 43 -12.5t42 -31.5t31.5 -41.5t12.5 -41.5v-32q0 -27 -17 -54.5t-45 -39.5q14 -5 26.5 -12t22.5 -18.5t15.5 -28.5t5.5 -41v-68q0 -16 -14.5 -40t-35.5 -46t-45 -38t-43 -16h-184
v85h151q8 0 18 6t19 15t15 19.5t6 19.5v78q0 3 -0.5 8.5t-2.5 11t-7.5 9t-15.5 3.5h-151v85h101q28 0 48 13.5t20 54.5v19q0 20 -10 34.5t-33 14.5h-153v85zM306 781q-101 -102 -151.5 -208t-50.5 -222q0 -115 50.5 -221.5t151.5 -209.5h-95q-92 84 -142 194.5t-50 236.5
t50 236.5t142 193.5h95zM790 781q92 -83 142 -193.5t50 -236.5t-50 -236.5t-142 -194.5h-95q101 103 151.5 209.5t50.5 221.5q0 116 -50.5 222t-151.5 208h95z" />
    <glyph glyph-name="cid840" unicode="&#x2481;" horiz-adv-x="1000" 
d="M268 62v412h-88v85q15 0 31 4t29.5 12.5t22.5 20.5t9 27h110v-561h-114zM632 52v112h-203v85l203 374h111v-375h64v-84h-64v-112h-111zM632 248v182l-96 -182h96zM306 781q-101 -102 -151.5 -208t-50.5 -222q0 -115 50.5 -221.5t151.5 -209.5h-95q-92 84 -142 194.5
t-50 236.5t50 236.5t142 193.5h95zM790 781q92 -83 142 -193.5t50 -236.5t-50 -236.5t-142 -194.5h-95q101 103 151.5 209.5t50.5 221.5q0 116 -50.5 222t-151.5 208h95z" />
    <glyph glyph-name="cid841" unicode="&#x2482;" horiz-adv-x="1000" 
d="M268 62v412h-88v85q15 0 31 4t29.5 12.5t22.5 20.5t9 27h110v-561h-114zM594 397h98q18 0 35 -6.5t31 -19t22.5 -31.5t8.5 -44v-96q0 -18 -13.5 -42t-33.5 -45t-45 -36t-47 -15h-180v85h150q20 0 38 18.5t18 41.5v83q0 9 -3.5 15.5t-16.5 6.5h-176v311h284v-84h-170v-142
zM306 781q-101 -102 -151.5 -208t-50.5 -222q0 -115 50.5 -221.5t151.5 -209.5h-95q-92 84 -142 194.5t-50 236.5t50 236.5t142 193.5h95zM790 781q92 -83 142 -193.5t50 -236.5t-50 -236.5t-142 -194.5h-95q101 103 151.5 209.5t50.5 221.5q0 116 -50.5 222t-151.5 208h95z
" />
    <glyph glyph-name="cid801" unicode="&#x249c;" horiz-adv-x="1000" 
d="M401 139q-36 0 -54.5 17.5t-18.5 61.5v109q0 26 16 46t42 20h179v33q0 7 -0.5 14.5t-5 14t-13.5 10.5t-25 4h-162v82h176q52 0 80.5 -12.5t41.5 -35.5t15 -54.5t2 -70.5v-139q0 -55 -25.5 -77.5t-76.5 -22.5h-171zM565 310h-113q-8 0 -11.5 -5.5t-3.5 -10.5v-62
q0 -5 1.5 -8t10.5 -3h89q10 0 18.5 3t8.5 21v65zM306 781q-101 -102 -151.5 -208t-50.5 -222q0 -115 50.5 -221.5t151.5 -209.5h-95q-92 84 -142 194.5t-50 236.5t50 236.5t142 193.5h95zM790 781q92 -83 142 -193.5t50 -236.5t-50 -236.5t-142 -194.5h-95
q101 103 151.5 209.5t50.5 221.5q0 116 -50.5 222t-151.5 208h95z" />
    <glyph glyph-name="cid802" unicode="&#x249d;" horiz-adv-x="1000" 
d="M337 59v589h109v-177h160q81 0 81 -86v-186q0 -23 -5 -48t-22 -45.5t-49 -33.5t-87 -13h-187zM513 142q11 0 22.5 1.5t20.5 7t15 17.5t6 33v169q0 14 -8 16t-10 2h-113v-246h67zM306 781q-101 -102 -151.5 -208t-50.5 -222q0 -115 50.5 -221.5t151.5 -209.5h-95
q-92 84 -142 194.5t-50 236.5t50 236.5t142 193.5h95zM790 781q92 -83 142 -193.5t50 -236.5t-50 -236.5t-142 -194.5h-95q101 103 151.5 209.5t50.5 221.5q0 116 -50.5 222t-151.5 208h95z" />
    <glyph glyph-name="cid803" unicode="&#x249e;" horiz-adv-x="1000" 
d="M314 403q0 33 12.5 60t33 46.5t46 30.5t51.5 11h184v-83h-165q-22 0 -36 -21t-14 -44v-145q0 -13 3 -20t7.5 -10.5t10.5 -4.5t12 -1h185v-83h-212q-51 0 -84.5 26.5t-33.5 92.5v145zM306 781q-101 -102 -151.5 -208t-50.5 -222q0 -115 50.5 -221.5t151.5 -209.5h-95
q-92 84 -142 194.5t-50 236.5t50 236.5t142 193.5h95zM790 781q92 -83 142 -193.5t50 -236.5t-50 -236.5t-142 -194.5h-95q101 103 151.5 209.5t50.5 221.5q0 116 -50.5 222t-151.5 208h95z" />
    <glyph glyph-name="cid804" unicode="&#x249f;" horiz-adv-x="1000" 
d="M460 59q-50 0 -79.5 13t-45.5 33.5t-20.5 45.5t-4.5 48v173q0 54 25 76.5t76 22.5h145v177h110v-589h-206zM439 388q-9 0 -14.5 -4.5t-5.5 -18.5v-174q0 -30 15 -39.5t37 -9.5h85v246h-117zM306 781q-101 -102 -151.5 -208t-50.5 -222q0 -115 50.5 -221.5t151.5 -209.5
h-95q-92 84 -142 194.5t-50 236.5t50 236.5t142 193.5h95zM790 781q92 -83 142 -193.5t50 -236.5t-50 -236.5t-142 -194.5h-95q101 103 151.5 209.5t50.5 221.5q0 116 -50.5 222t-151.5 208h95z" />
    <glyph glyph-name="cid805" unicode="&#x24a0;" horiz-adv-x="1000" 
d="M601 551q36 0 54.5 -17.5t18.5 -60.5v-107q0 -25 -16 -45t-42 -20h-179v-37q0 -7 0.5 -15t5 -14.5t13 -10.5t25.5 -4h170v-81h-184q-52 0 -80.5 12.5t-41.5 35.5t-15 54.5t-2 70.5v140q0 54 25.5 76.5t76.5 22.5h171zM437 375h112q8 0 11.5 5.5t3.5 11.5v67q0 5 -1.5 8
t-10.5 3h-88q-10 0 -18.5 -3t-8.5 -22v-70zM306 781q-101 -102 -151.5 -208t-50.5 -222q0 -115 50.5 -221.5t151.5 -209.5h-95q-92 84 -142 194.5t-50 236.5t50 236.5t142 193.5h95zM790 781q92 -83 142 -193.5t50 -236.5t-50 -236.5t-142 -194.5h-95q101 103 151.5 209.5
t50.5 221.5q0 116 -50.5 222t-151.5 208h95z" />
    <glyph glyph-name="cid806" unicode="&#x24a1;" horiz-adv-x="1000" 
d="M413 411v145q0 46 21 69t57 23h161v-84h-107q-7 0 -13.5 -4t-6.5 -20v-129h120l-16 -84h-104v-268h-112v268h-75v84h75zM306 781q-101 -102 -151.5 -208t-50.5 -222q0 -115 50.5 -221.5t151.5 -209.5h-95q-92 84 -142 194.5t-50 236.5t50 236.5t142 193.5h95zM790 781
q92 -83 142 -193.5t50 -236.5t-50 -236.5t-142 -194.5h-95q101 103 151.5 209.5t50.5 221.5q0 116 -50.5 222t-151.5 208h95z" />
    <glyph glyph-name="cid807" unicode="&#x24a2;" horiz-adv-x="1000" 
d="M495 199q-55 0 -87 13.5t-49 34t-22 45t-5 47.5v173q0 54 25.5 76.5t76.5 22.5h240v-448q0 -23 -10 -45t-29 -39t-46.5 -27.5t-62.5 -10.5h-154v84h138q24 0 37.5 7.5t13.5 32.5v34h-66zM444 341q0 -21 5 -32.5t13 -17t18.5 -7t22.5 -1.5h58v245h-93q-10 0 -17 -4t-7 -19
v-164zM306 781q-101 -102 -151.5 -208t-50.5 -222q0 -115 50.5 -221.5t151.5 -209.5h-95q-92 84 -142 194.5t-50 236.5t50 236.5t142 193.5h95zM790 781q92 -83 142 -193.5t50 -236.5t-50 -236.5t-142 -194.5h-95q101 103 151.5 209.5t50.5 221.5q0 116 -50.5 222
t-151.5 208h95z" />
    <glyph glyph-name="cid808" unicode="&#x24a3;" horiz-adv-x="1000" 
d="M569 59v306q0 10 -3 16.5t-17 6.5h-115v-329h-110v589h110v-177h154q17 0 33.5 -4.5t29.5 -15.5t21 -30t8 -48v-314h-111zM306 781q-101 -102 -151.5 -208t-50.5 -222q0 -115 50.5 -221.5t151.5 -209.5h-95q-92 84 -142 194.5t-50 236.5t50 236.5t142 193.5h95zM790 781
q92 -83 142 -193.5t50 -236.5t-50 -236.5t-142 -194.5h-95q101 103 151.5 209.5t50.5 221.5q0 116 -50.5 222t-151.5 208h95z" />
    <glyph glyph-name="cid809" unicode="&#x24a4;" horiz-adv-x="1000" 
d="M443 59v412h112v-412h-112zM443 541v77q0 18 7 24t15 6h102q-5 -26 -9 -53.5t-9 -53.5h-106zM306 781q-101 -102 -151.5 -208t-50.5 -222q0 -115 50.5 -221.5t151.5 -209.5h-95q-92 84 -142 194.5t-50 236.5t50 236.5t142 193.5h95zM790 781q92 -83 142 -193.5t50 -236.5
t-50 -236.5t-142 -194.5h-95q101 103 151.5 209.5t50.5 221.5q0 116 -50.5 222t-151.5 208h95z" />
    <glyph glyph-name="cid810" unicode="&#x24a5;" horiz-adv-x="1000" 
d="M476 591v77q0 18 7 24t15 6h102q-5 -26 -9 -53.5t-9 -53.5h-106zM476 521h113v-382q0 -28 -11 -51.5t-30.5 -40.5t-47 -26.5t-60.5 -9.5h-76v84h60q26 0 39 9t13 42v375zM306 781q-101 -102 -151.5 -208t-50.5 -222q0 -115 50.5 -221.5t151.5 -209.5h-95
q-92 84 -142 194.5t-50 236.5t50 236.5t142 193.5h95zM790 781q92 -83 142 -193.5t50 -236.5t-50 -236.5t-142 -194.5h-95q101 103 151.5 209.5t50.5 221.5q0 116 -50.5 222t-151.5 208h95z" />
    <glyph glyph-name="cid811" unicode="&#x24a6;" horiz-adv-x="1000" 
d="M341 59v589h109v-324l116 147h129l-162 -198l196 -214h-131l-148 167v-167h-109zM306 781q-101 -102 -151.5 -208t-50.5 -222q0 -115 50.5 -221.5t151.5 -209.5h-95q-92 84 -142 194.5t-50 236.5t50 236.5t142 193.5h95zM790 781q92 -83 142 -193.5t50 -236.5t-50 -236.5
t-142 -194.5h-95q101 103 151.5 209.5t50.5 221.5q0 116 -50.5 222t-151.5 208h95z" />
    <glyph glyph-name="cid812" unicode="&#x24a7;" horiz-adv-x="1000" 
d="M564 59q-36 0 -64.5 5.5t-49 19.5t-31 38t-10.5 62v464h112v-463q0 -26 18.5 -34t41.5 -9v-83h-17zM306 781q-101 -102 -151.5 -208t-50.5 -222q0 -115 50.5 -221.5t151.5 -209.5h-95q-92 84 -142 194.5t-50 236.5t50 236.5t142 193.5h95zM790 781q92 -83 142 -193.5
t50 -236.5t-50 -236.5t-142 -194.5h-95q101 103 151.5 209.5t50.5 221.5q0 116 -50.5 222t-151.5 208h95z" />
    <glyph glyph-name="cid813" unicode="&#x24a8;" horiz-adv-x="1000" 
d="M763 139h-110v288q0 16 -12 28.5t-32 12.5h-51v-329h-110v329h-88v-329h-113v339q0 12 2 18t6 9l48 39q5 5 11.5 6t12.5 1h302q26 0 50 -11.5t43 -29t30 -37.5t11 -36v-298zM306 781q-101 -102 -151.5 -208t-50.5 -222q0 -115 50.5 -221.5t151.5 -209.5h-95
q-92 84 -142 194.5t-50 236.5t50 236.5t142 193.5h95zM790 781q92 -83 142 -193.5t50 -236.5t-50 -236.5t-142 -194.5h-95q101 103 151.5 209.5t50.5 221.5q0 116 -50.5 222t-151.5 208h95z" />
    <glyph glyph-name="cid814" unicode="&#x24a9;" horiz-adv-x="1000" 
d="M407 551h142q26 0 50 -11.5t43 -29t30 -37.5t11 -36v-298h-112v285q0 17 -11 29.5t-33 14.5h-88v-329h-112v339q0 12 2 18t6 9l48 39q5 5 11.5 6t12.5 1zM306 781q-101 -102 -151.5 -208t-50.5 -222q0 -115 50.5 -221.5t151.5 -209.5h-95q-92 84 -142 194.5t-50 236.5
t50 236.5t142 193.5h95zM790 781q92 -83 142 -193.5t50 -236.5t-50 -236.5t-142 -194.5h-95q101 103 151.5 209.5t50.5 221.5q0 116 -50.5 222t-151.5 208h95z" />
    <glyph glyph-name="cid815" unicode="&#x24aa;" horiz-adv-x="1000" 
d="M317 422q0 16 13.5 39.5t35.5 44.5t48.5 36t52.5 15h91q26 0 50 -10.5t43 -27t30 -36t11 -37.5v-178q0 -17 -13.5 -40t-35.5 -44t-48.5 -36t-52.5 -15h-91q-26 0 -50 12t-42.5 29t-30 37t-11.5 37v174zM427 261q0 -19 11 -31.5t35 -12.5h43q12 0 23.5 6.5t21.5 16.5
t16 21t6 20v148q0 19 -10 31.5t-33 12.5h-46q-12 0 -24 -6.5t-21.5 -16.5t-15.5 -21t-6 -20v-148zM306 781q-101 -102 -151.5 -208t-50.5 -222q0 -115 50.5 -221.5t151.5 -209.5h-95q-92 84 -142 194.5t-50 236.5t50 236.5t142 193.5h95zM790 781q92 -83 142 -193.5
t50 -236.5t-50 -236.5t-142 -194.5h-95q101 103 151.5 209.5t50.5 221.5q0 116 -50.5 222t-151.5 208h95z" />
    <glyph glyph-name="cid816" unicode="&#x24ab;" horiz-adv-x="1000" 
d="M330 31v570h259q17 0 33.5 -4.5t29 -15.5t20.5 -30t8 -48v-174q0 -23 -5 -48t-22 -45.5t-49 -33.5t-87 -13h-78v-158h-109zM439 272h67q11 0 22.5 1.5t20.5 7t15 17.5t6 33v164q0 10 -3.5 16.5t-16.5 6.5h-111v-246zM306 781q-101 -102 -151.5 -208t-50.5 -222
q0 -115 50.5 -221.5t151.5 -209.5h-95q-92 84 -142 194.5t-50 236.5t50 236.5t142 193.5h95zM790 781q92 -83 142 -193.5t50 -236.5t-50 -236.5t-142 -194.5h-95q101 103 151.5 209.5t50.5 221.5q0 116 -50.5 222t-151.5 208h95z" />
    <glyph glyph-name="cid817" unicode="&#x24ac;" horiz-adv-x="1000" 
d="M568 31v158h-75q-55 0 -87 13t-49 33.5t-22 45.5t-5 48v173q0 54 25 76.5t76 22.5h249v-570h-112zM466 518q-10 0 -17 -4t-7 -19v-164q0 -21 6 -33t15.5 -17.5t21 -7t22.5 -1.5h61v246h-102zM306 781q-101 -102 -151.5 -208t-50.5 -222q0 -115 50.5 -221.5t151.5 -209.5
h-95q-92 84 -142 194.5t-50 236.5t50 236.5t142 193.5h95zM790 781q92 -83 142 -193.5t50 -236.5t-50 -236.5t-142 -194.5h-95q101 103 151.5 209.5t50.5 221.5q0 116 -50.5 222t-151.5 208h95z" />
    <glyph glyph-name="cid818" unicode="&#x24ad;" horiz-adv-x="1000" 
d="M370 139v301q0 66 29.5 88.5t80.5 22.5h160v-83h-138q-6 0 -13 -3.5t-7 -19.5v-306h-112zM306 781q-101 -102 -151.5 -208t-50.5 -222q0 -115 50.5 -221.5t151.5 -209.5h-95q-92 84 -142 194.5t-50 236.5t50 236.5t142 193.5h95zM790 781q92 -83 142 -193.5t50 -236.5
t-50 -236.5t-142 -194.5h-95q101 103 151.5 209.5t50.5 221.5q0 116 -50.5 222t-151.5 208h95z" />
    <glyph glyph-name="cid819" unicode="&#x24ae;" horiz-adv-x="1000" 
d="M397 332q-22 7 -34 23.5t-12 49.5v53q0 49 28.5 71t65.5 22h197v-83h-164q-4 0 -9.5 -1t-5.5 -12v-42q0 -10 4.5 -13.5t13.5 -6.5l130 -36q31 -9 39.5 -28t8.5 -35v-53q0 -17 -4.5 -35t-19 -33t-40.5 -24.5t-68 -9.5h-169v83h161q15 0 21.5 6.5t6.5 17.5v35q0 6 -4 8
t-7 4zM306 781q-101 -102 -151.5 -208t-50.5 -222q0 -115 50.5 -221.5t151.5 -209.5h-95q-92 84 -142 194.5t-50 236.5t50 236.5t142 193.5h95zM790 781q92 -83 142 -193.5t50 -236.5t-50 -236.5t-142 -194.5h-95q101 103 151.5 209.5t50.5 221.5q0 116 -50.5 222
t-151.5 208h95z" />
    <glyph glyph-name="cid820" unicode="&#x24af;" horiz-adv-x="1000" 
d="M331 388v83h67v110q0 12 4.5 20t16.5 12q22 6 45.5 12.5t46.5 12.5v-167h127l-16 -83h-111v-217q0 -20 8.5 -24.5t18.5 -4.5h91v-83h-132q-55 0 -77 24t-22 78v227h-67zM306 781q-101 -102 -151.5 -208t-50.5 -222q0 -115 50.5 -221.5t151.5 -209.5h-95
q-92 84 -142 194.5t-50 236.5t50 236.5t142 193.5h95zM790 781q92 -83 142 -193.5t50 -236.5t-50 -236.5t-142 -194.5h-95q101 103 151.5 209.5t50.5 221.5q0 116 -50.5 222t-151.5 208h95z" />
    <glyph glyph-name="cid821" unicode="&#x24b0;" horiz-adv-x="1000" 
d="M600 139h-140q-26 0 -50.5 11.5t-43 29t-30 37t-11.5 36.5v298h112v-285q0 -17 11 -29.5t33 -14.5h85v329h112v-341q0 -12 -2 -17.5t-7 -8.5l-44 -38q-5 -5 -12 -6t-13 -1zM306 781q-101 -102 -151.5 -208t-50.5 -222q0 -115 50.5 -221.5t151.5 -209.5h-95
q-92 84 -142 194.5t-50 236.5t50 236.5t142 193.5h95zM790 781q92 -83 142 -193.5t50 -236.5t-50 -236.5t-142 -194.5h-95q101 103 151.5 209.5t50.5 221.5q0 116 -50.5 222t-151.5 208h95z" />
    <glyph glyph-name="cid822" unicode="&#x24b1;" horiz-adv-x="1000" 
d="M427 551l77 -331h2q19 82 38.5 165.5t38.5 165.5h108q-25 -95 -50.5 -188.5t-50.5 -189.5q-5 -14 -12.5 -24t-24.5 -10h-98q-15 0 -23 7.5t-13 24.5q-24 92 -50.5 190t-50.5 190h109zM306 781q-101 -102 -151.5 -208t-50.5 -222q0 -115 50.5 -221.5t151.5 -209.5h-95
q-92 84 -142 194.5t-50 236.5t50 236.5t142 193.5h95zM790 781q92 -83 142 -193.5t50 -236.5t-50 -236.5t-142 -194.5h-95q101 103 151.5 209.5t50.5 221.5q0 116 -50.5 222t-151.5 208h95z" />
    <glyph glyph-name="cid823" unicode="&#x24b2;" horiz-adv-x="1000" 
d="M560 484q17 -74 32.5 -143t27.5 -120h2q9 38 18.5 81t19 86.5t18 85t15.5 77.5h103q-8 -38 -18.5 -87t-22 -100t-23 -101t-22.5 -90q-3 -13 -12 -23.5t-24 -10.5h-101q-29 0 -36 32q-8 37 -17 80.5t-19 91.5h-2q-3 -20 -7.5 -43t-9.5 -46.5t-10.5 -44.5t-9.5 -36
q-5 -14 -14 -24t-26 -10h-94q-16 0 -23.5 7.5t-12.5 24.5q-8 31 -20 79.5t-24.5 101.5t-24 105.5t-20.5 93.5h109l69 -330h1q6 23 13.5 56.5t15 70t15 72t12.5 64.5h122zM306 781q-101 -102 -151.5 -208t-50.5 -222q0 -115 50.5 -221.5t151.5 -209.5h-95q-92 84 -142 194.5
t-50 236.5t50 236.5t142 193.5h95zM790 781q92 -83 142 -193.5t50 -236.5t-50 -236.5t-142 -194.5h-95q101 103 151.5 209.5t50.5 221.5q0 116 -50.5 222t-151.5 208h95z" />
    <glyph glyph-name="cid824" unicode="&#x24b3;" horiz-adv-x="1000" 
d="M302 139q35 51 71.5 103t73.5 105l-141 204h116q21 -30 42 -59.5t41 -59.5q21 30 41.5 60t40.5 59h117q-35 -50 -70.5 -100.5t-70.5 -102.5q36 -53 72 -105t73 -104h-117q-22 31 -43.5 62t-43.5 63q-22 -32 -43.5 -63.5t-42.5 -61.5h-116zM306 781q-101 -102 -151.5 -208
t-50.5 -222q0 -115 50.5 -221.5t151.5 -209.5h-95q-92 84 -142 194.5t-50 236.5t50 236.5t142 193.5h95zM790 781q92 -83 142 -193.5t50 -236.5t-50 -236.5t-142 -194.5h-95q101 103 151.5 209.5t50.5 221.5q0 116 -50.5 222t-151.5 208h95z" />
    <glyph glyph-name="cid825" unicode="&#x24b4;" horiz-adv-x="1000" 
d="M363 51v84h123q25 0 36 7.5t16 32.5l7 48h-97q-57 0 -85.5 28t-28.5 99v271h112v-280q0 -18 8.5 -26t32.5 -8h69q11 77 23.5 157t24.5 157h111q-17 -110 -34.5 -224t-34.5 -224q-5 -23 -16 -45t-29.5 -39t-45 -27.5t-60.5 -10.5h-132zM306 781q-101 -102 -151.5 -208
t-50.5 -222q0 -115 50.5 -221.5t151.5 -209.5h-95q-92 84 -142 194.5t-50 236.5t50 236.5t142 193.5h95zM790 781q92 -83 142 -193.5t50 -236.5t-50 -236.5t-142 -194.5h-95q101 103 151.5 209.5t50.5 221.5q0 116 -50.5 222t-151.5 208h95z" />
    <glyph glyph-name="cid826" unicode="&#x24b5;" horiz-adv-x="1000" 
d="M345 551h304v-81l-197 -248h205v-83h-318v83q44 60 89.5 121.5t91.5 124.5h-175v83zM306 781q-101 -102 -151.5 -208t-50.5 -222q0 -115 50.5 -221.5t151.5 -209.5h-95q-92 84 -142 194.5t-50 236.5t50 236.5t142 193.5h95zM790 781q92 -83 142 -193.5t50 -236.5
t-50 -236.5t-142 -194.5h-95q101 103 151.5 209.5t50.5 221.5q0 116 -50.5 222t-151.5 208h95z" />
    <glyph glyph-name="cid707" unicode="&#x24d0;" horiz-adv-x="1000" 
d="M401 139q-36 0 -54.5 17.5t-18.5 61.5v109q0 26 16 46t42 20h179v33q0 7 -0.5 14.5t-5 14t-13.5 10.5t-25 4h-162v82h176q52 0 80.5 -12.5t41.5 -35.5t15 -54.5t2 -70.5v-139q0 -55 -25.5 -77.5t-76.5 -22.5h-171zM565 310h-113q-8 0 -11.5 -5.5t-3.5 -10.5v-62
q0 -5 1.5 -8t10.5 -3h89q10 0 18.5 3t8.5 21v65zM19 351q0 100 38 187.5t103 153t153 103.5t187 38q100 0 187.5 -38t153 -103.5t103.5 -153t38 -187.5q0 -99 -38 -187t-103.5 -153t-153 -103t-187.5 -38q-99 0 -187 38t-153 103t-103 153t-38 187zM104 351
q0 -81 31.5 -153.5t85.5 -127t126 -86t153 -31.5q82 0 154 31.5t126 86t85.5 127t31.5 153.5q0 82 -31.5 154.5t-85.5 127t-126 86t-154 31.5q-81 0 -153 -31.5t-126 -86t-85.5 -127t-31.5 -154.5z" />
    <glyph glyph-name="cid708" unicode="&#x24d1;" horiz-adv-x="1000" 
d="M337 59v589h109v-177h160q81 0 81 -86v-186q0 -23 -5 -48t-22 -45.5t-49 -33.5t-87 -13h-187zM513 142q11 0 22.5 1.5t20.5 7t15 17.5t6 33v169q0 14 -8 16t-10 2h-113v-246h67zM19 351q0 100 38 187.5t103 153t153 103.5t187 38q100 0 187.5 -38t153 -103.5t103.5 -153
t38 -187.5q0 -99 -38 -187t-103.5 -153t-153 -103t-187.5 -38q-99 0 -187 38t-153 103t-103 153t-38 187zM104 351q0 -81 31.5 -153.5t85.5 -127t126 -86t153 -31.5q82 0 154 31.5t126 86t85.5 127t31.5 153.5q0 82 -31.5 154.5t-85.5 127t-126 86t-154 31.5
q-81 0 -153 -31.5t-126 -86t-85.5 -127t-31.5 -154.5z" />
    <glyph glyph-name="cid709" unicode="&#x24d2;" horiz-adv-x="1000" 
d="M314 403q0 33 12.5 60t33 46.5t46 30.5t51.5 11h184v-83h-165q-22 0 -36 -21t-14 -44v-145q0 -13 3 -20t7.5 -10.5t10.5 -4.5t12 -1h185v-83h-212q-51 0 -84.5 26.5t-33.5 92.5v145zM19 351q0 100 38 187.5t103 153t153 103.5t187 38q100 0 187.5 -38t153 -103.5
t103.5 -153t38 -187.5q0 -99 -38 -187t-103.5 -153t-153 -103t-187.5 -38q-99 0 -187 38t-153 103t-103 153t-38 187zM104 351q0 -81 31.5 -153.5t85.5 -127t126 -86t153 -31.5q82 0 154 31.5t126 86t85.5 127t31.5 153.5q0 82 -31.5 154.5t-85.5 127t-126 86t-154 31.5
q-81 0 -153 -31.5t-126 -86t-85.5 -127t-31.5 -154.5z" />
    <glyph glyph-name="cid710" unicode="&#x24d3;" horiz-adv-x="1000" 
d="M460 59q-50 0 -79.5 13t-45.5 33.5t-20.5 45.5t-4.5 48v173q0 54 25 76.5t76 22.5h145v177h110v-589h-206zM439 388q-9 0 -14.5 -4.5t-5.5 -18.5v-174q0 -30 15 -39.5t37 -9.5h85v246h-117zM19 351q0 100 38 187.5t103 153t153 103.5t187 38q100 0 187.5 -38t153 -103.5
t103.5 -153t38 -187.5q0 -99 -38 -187t-103.5 -153t-153 -103t-187.5 -38q-99 0 -187 38t-153 103t-103 153t-38 187zM104 351q0 -81 31.5 -153.5t85.5 -127t126 -86t153 -31.5q82 0 154 31.5t126 86t85.5 127t31.5 153.5q0 82 -31.5 154.5t-85.5 127t-126 86t-154 31.5
q-81 0 -153 -31.5t-126 -86t-85.5 -127t-31.5 -154.5z" />
    <glyph glyph-name="cid711" unicode="&#x24d4;" horiz-adv-x="1000" 
d="M601 551q36 0 54.5 -17.5t18.5 -60.5v-107q0 -25 -16 -45t-42 -20h-179v-37q0 -7 0.5 -15t5 -14.5t13 -10.5t25.5 -4h170v-81h-184q-52 0 -80.5 12.5t-41.5 35.5t-15 54.5t-2 70.5v140q0 54 25.5 76.5t76.5 22.5h171zM437 375h112q8 0 11.5 5.5t3.5 11.5v67q0 5 -1.5 8
t-10.5 3h-88q-10 0 -18.5 -3t-8.5 -22v-70zM19 351q0 100 38 187.5t103 153t153 103.5t187 38q100 0 187.5 -38t153 -103.5t103.5 -153t38 -187.5q0 -99 -38 -187t-103.5 -153t-153 -103t-187.5 -38q-99 0 -187 38t-153 103t-103 153t-38 187zM104 351q0 -81 31.5 -153.5
t85.5 -127t126 -86t153 -31.5q82 0 154 31.5t126 86t85.5 127t31.5 153.5q0 82 -31.5 154.5t-85.5 127t-126 86t-154 31.5q-81 0 -153 -31.5t-126 -86t-85.5 -127t-31.5 -154.5z" />
    <glyph glyph-name="cid712" unicode="&#x24d5;" horiz-adv-x="1000" 
d="M413 411v145q0 46 21 69t57 23h161v-84h-107q-7 0 -13.5 -4t-6.5 -20v-129h120l-16 -84h-104v-268h-112v268h-75v84h75zM19 351q0 100 38 187.5t103 153t153 103.5t187 38q100 0 187.5 -38t153 -103.5t103.5 -153t38 -187.5q0 -99 -38 -187t-103.5 -153t-153 -103
t-187.5 -38q-99 0 -187 38t-153 103t-103 153t-38 187zM104 351q0 -81 31.5 -153.5t85.5 -127t126 -86t153 -31.5q82 0 154 31.5t126 86t85.5 127t31.5 153.5q0 82 -31.5 154.5t-85.5 127t-126 86t-154 31.5q-81 0 -153 -31.5t-126 -86t-85.5 -127t-31.5 -154.5z" />
    <glyph glyph-name="cid713" unicode="&#x24d6;" horiz-adv-x="1000" 
d="M495 199q-55 0 -87 13.5t-49 34t-22 45t-5 47.5v173q0 54 25.5 76.5t76.5 22.5h240v-448q0 -23 -10 -45t-29 -39t-46.5 -27.5t-62.5 -10.5h-154v84h138q24 0 37.5 7.5t13.5 32.5v34h-66zM444 341q0 -21 5 -32.5t13 -17t18.5 -7t22.5 -1.5h58v245h-93q-10 0 -17 -4t-7 -19
v-164zM19 351q0 100 38 187.5t103 153t153 103.5t187 38q100 0 187.5 -38t153 -103.5t103.5 -153t38 -187.5q0 -99 -38 -187t-103.5 -153t-153 -103t-187.5 -38q-99 0 -187 38t-153 103t-103 153t-38 187zM104 351q0 -81 31.5 -153.5t85.5 -127t126 -86t153 -31.5
q82 0 154 31.5t126 86t85.5 127t31.5 153.5q0 82 -31.5 154.5t-85.5 127t-126 86t-154 31.5q-81 0 -153 -31.5t-126 -86t-85.5 -127t-31.5 -154.5z" />
    <glyph glyph-name="cid714" unicode="&#x24d7;" horiz-adv-x="1000" 
d="M569 59v306q0 10 -3 16.5t-17 6.5h-115v-329h-110v589h110v-177h154q17 0 33.5 -4.5t29.5 -15.5t21 -30t8 -48v-314h-111zM19 351q0 100 38 187.5t103 153t153 103.5t187 38q100 0 187.5 -38t153 -103.5t103.5 -153t38 -187.5q0 -99 -38 -187t-103.5 -153t-153 -103
t-187.5 -38q-99 0 -187 38t-153 103t-103 153t-38 187zM104 351q0 -81 31.5 -153.5t85.5 -127t126 -86t153 -31.5q82 0 154 31.5t126 86t85.5 127t31.5 153.5q0 82 -31.5 154.5t-85.5 127t-126 86t-154 31.5q-81 0 -153 -31.5t-126 -86t-85.5 -127t-31.5 -154.5z" />
    <glyph glyph-name="cid715" unicode="&#x24d8;" horiz-adv-x="1000" 
d="M443 59v412h112v-412h-112zM443 541v77q0 18 7 24t15 6h102q-5 -26 -9 -53.5t-9 -53.5h-106zM19 351q0 100 38 187.5t103 153t153 103.5t187 38q100 0 187.5 -38t153 -103.5t103.5 -153t38 -187.5q0 -99 -38 -187t-103.5 -153t-153 -103t-187.5 -38q-99 0 -187 38
t-153 103t-103 153t-38 187zM104 351q0 -81 31.5 -153.5t85.5 -127t126 -86t153 -31.5q82 0 154 31.5t126 86t85.5 127t31.5 153.5q0 82 -31.5 154.5t-85.5 127t-126 86t-154 31.5q-81 0 -153 -31.5t-126 -86t-85.5 -127t-31.5 -154.5z" />
    <glyph glyph-name="cid716" unicode="&#x24d9;" horiz-adv-x="1000" 
d="M476 591v77q0 18 7 24t15 6h102q-5 -26 -9 -53.5t-9 -53.5h-106zM476 521h113v-382q0 -28 -11 -51.5t-30.5 -40.5t-47 -26.5t-60.5 -9.5h-76v84h60q26 0 39 9t13 42v375zM19 351q0 100 38 187.5t103 153t153 103.5t187 38q100 0 187.5 -38t153 -103.5t103.5 -153
t38 -187.5q0 -99 -38 -187t-103.5 -153t-153 -103t-187.5 -38q-99 0 -187 38t-153 103t-103 153t-38 187zM104 351q0 -81 31.5 -153.5t85.5 -127t126 -86t153 -31.5q82 0 154 31.5t126 86t85.5 127t31.5 153.5q0 82 -31.5 154.5t-85.5 127t-126 86t-154 31.5
q-81 0 -153 -31.5t-126 -86t-85.5 -127t-31.5 -154.5z" />
    <glyph glyph-name="cid717" unicode="&#x24da;" horiz-adv-x="1000" 
d="M19 351q0 100 38 187.5t103 153t153 103.5t187 38q100 0 187.5 -38t153 -103.5t103.5 -153t38 -187.5q0 -99 -38 -187t-103.5 -153t-153 -103t-187.5 -38q-99 0 -187 38t-153 103t-103 153t-38 187zM104 351q0 -81 31.5 -153.5t85.5 -127t126 -86t153 -31.5
q82 0 154 31.5t126 86t85.5 127t31.5 153.5q0 82 -31.5 154.5t-85.5 127t-126 86t-154 31.5q-81 0 -153 -31.5t-126 -86t-85.5 -127t-31.5 -154.5zM341 59v589h109v-324l116 147h129l-162 -198l196 -214h-131l-148 167v-167h-109z" />
    <glyph glyph-name="cid718" unicode="&#x24db;" horiz-adv-x="1000" 
d="M564 59q-36 0 -64.5 5.5t-49 19.5t-31 38t-10.5 62v464h112v-463q0 -26 18.5 -34t41.5 -9v-83h-17zM19 351q0 100 38 187.5t103 153t153 103.5t187 38q100 0 187.5 -38t153 -103.5t103.5 -153t38 -187.5q0 -99 -38 -187t-103.5 -153t-153 -103t-187.5 -38q-99 0 -187 38
t-153 103t-103 153t-38 187zM104 351q0 -81 31.5 -153.5t85.5 -127t126 -86t153 -31.5q82 0 154 31.5t126 86t85.5 127t31.5 153.5q0 82 -31.5 154.5t-85.5 127t-126 86t-154 31.5q-81 0 -153 -31.5t-126 -86t-85.5 -127t-31.5 -154.5z" />
    <glyph glyph-name="cid719" unicode="&#x24dc;" horiz-adv-x="1000" 
d="M763 139h-110v288q0 16 -12 28.5t-32 12.5h-51v-329h-110v329h-88v-329h-113v339q0 12 2 18t6 9l48 39q5 5 11.5 6t12.5 1h302q26 0 50 -11.5t43 -29t30 -37.5t11 -36v-298zM19 351q0 100 38 187.5t103 153t153 103.5t187 38q100 0 187.5 -38t153 -103.5t103.5 -153
t38 -187.5q0 -99 -38 -187t-103.5 -153t-153 -103t-187.5 -38q-99 0 -187 38t-153 103t-103 153t-38 187zM104 351q0 -81 31.5 -153.5t85.5 -127t126 -86t153 -31.5q82 0 154 31.5t126 86t85.5 127t31.5 153.5q0 82 -31.5 154.5t-85.5 127t-126 86t-154 31.5
q-81 0 -153 -31.5t-126 -86t-85.5 -127t-31.5 -154.5z" />
    <glyph glyph-name="cid720" unicode="&#x24dd;" horiz-adv-x="1000" 
d="M407 551h142q26 0 50 -11.5t43 -29t30 -37.5t11 -36v-298h-112v285q0 17 -11 29.5t-33 14.5h-88v-329h-112v339q0 12 2 18t6 9l48 39q5 5 11.5 6t12.5 1zM19 351q0 100 38 187.5t103 153t153 103.5t187 38q100 0 187.5 -38t153 -103.5t103.5 -153t38 -187.5
q0 -99 -38 -187t-103.5 -153t-153 -103t-187.5 -38q-99 0 -187 38t-153 103t-103 153t-38 187zM104 351q0 -81 31.5 -153.5t85.5 -127t126 -86t153 -31.5q82 0 154 31.5t126 86t85.5 127t31.5 153.5q0 82 -31.5 154.5t-85.5 127t-126 86t-154 31.5q-81 0 -153 -31.5
t-126 -86t-85.5 -127t-31.5 -154.5z" />
    <glyph glyph-name="cid721" unicode="&#x24de;" horiz-adv-x="1000" 
d="M317 422q0 16 13.5 39.5t35.5 44.5t48.5 36t52.5 15h91q26 0 50 -10.5t43 -27t30 -36t11 -37.5v-178q0 -17 -13.5 -40t-35.5 -44t-48.5 -36t-52.5 -15h-91q-26 0 -50 12t-42.5 29t-30 37t-11.5 37v174zM427 261q0 -19 11 -31.5t35 -12.5h43q12 0 23.5 6.5t21.5 16.5
t16 21t6 20v148q0 19 -10 31.5t-33 12.5h-46q-12 0 -24 -6.5t-21.5 -16.5t-15.5 -21t-6 -20v-148zM19 351q0 100 38 187.5t103 153t153 103.5t187 38q100 0 187.5 -38t153 -103.5t103.5 -153t38 -187.5q0 -99 -38 -187t-103.5 -153t-153 -103t-187.5 -38q-99 0 -187 38
t-153 103t-103 153t-38 187zM104 351q0 -81 31.5 -153.5t85.5 -127t126 -86t153 -31.5q82 0 154 31.5t126 86t85.5 127t31.5 153.5q0 82 -31.5 154.5t-85.5 127t-126 86t-154 31.5q-81 0 -153 -31.5t-126 -86t-85.5 -127t-31.5 -154.5z" />
    <glyph glyph-name="cid722" unicode="&#x24df;" horiz-adv-x="1000" 
d="M330 31v570h259q17 0 33.5 -4.5t29 -15.5t20.5 -30t8 -48v-174q0 -23 -5 -48t-22 -45.5t-49 -33.5t-87 -13h-78v-158h-109zM439 272h67q11 0 22.5 1.5t20.5 7t15 17.5t6 33v164q0 10 -3.5 16.5t-16.5 6.5h-111v-246zM19 351q0 100 38 187.5t103 153t153 103.5t187 38
q100 0 187.5 -38t153 -103.5t103.5 -153t38 -187.5q0 -99 -38 -187t-103.5 -153t-153 -103t-187.5 -38q-99 0 -187 38t-153 103t-103 153t-38 187zM104 351q0 -81 31.5 -153.5t85.5 -127t126 -86t153 -31.5q82 0 154 31.5t126 86t85.5 127t31.5 153.5q0 82 -31.5 154.5
t-85.5 127t-126 86t-154 31.5q-81 0 -153 -31.5t-126 -86t-85.5 -127t-31.5 -154.5z" />
    <glyph glyph-name="cid723" unicode="&#x24e0;" horiz-adv-x="1000" 
d="M568 31v158h-75q-55 0 -87 13t-49 33.5t-22 45.5t-5 48v173q0 54 25 76.5t76 22.5h249v-570h-112zM466 518q-10 0 -17 -4t-7 -19v-164q0 -21 6 -33t15.5 -17.5t21 -7t22.5 -1.5h61v246h-102zM19 351q0 100 38 187.5t103 153t153 103.5t187 38q100 0 187.5 -38t153 -103.5
t103.5 -153t38 -187.5q0 -99 -38 -187t-103.5 -153t-153 -103t-187.5 -38q-99 0 -187 38t-153 103t-103 153t-38 187zM104 351q0 -81 31.5 -153.5t85.5 -127t126 -86t153 -31.5q82 0 154 31.5t126 86t85.5 127t31.5 153.5q0 82 -31.5 154.5t-85.5 127t-126 86t-154 31.5
q-81 0 -153 -31.5t-126 -86t-85.5 -127t-31.5 -154.5z" />
    <glyph glyph-name="cid724" unicode="&#x24e1;" horiz-adv-x="1000" 
d="M370 139v301q0 66 29.5 88.5t80.5 22.5h160v-83h-138q-6 0 -13 -3.5t-7 -19.5v-306h-112zM19 351q0 100 38 187.5t103 153t153 103.5t187 38q100 0 187.5 -38t153 -103.5t103.5 -153t38 -187.5q0 -99 -38 -187t-103.5 -153t-153 -103t-187.5 -38q-99 0 -187 38t-153 103
t-103 153t-38 187zM104 351q0 -81 31.5 -153.5t85.5 -127t126 -86t153 -31.5q82 0 154 31.5t126 86t85.5 127t31.5 153.5q0 82 -31.5 154.5t-85.5 127t-126 86t-154 31.5q-81 0 -153 -31.5t-126 -86t-85.5 -127t-31.5 -154.5z" />
    <glyph glyph-name="cid725" unicode="&#x24e2;" horiz-adv-x="1000" 
d="M397 332q-22 7 -34 23.5t-12 49.5v53q0 49 28.5 71t65.5 22h197v-83h-164q-4 0 -9.5 -1t-5.5 -12v-42q0 -10 4.5 -13.5t13.5 -6.5l130 -36q31 -9 39.5 -28t8.5 -35v-53q0 -17 -4.5 -35t-19 -33t-40.5 -24.5t-68 -9.5h-169v83h161q15 0 21.5 6.5t6.5 17.5v35q0 6 -4 8
t-7 4zM19 351q0 100 38 187.5t103 153t153 103.5t187 38q100 0 187.5 -38t153 -103.5t103.5 -153t38 -187.5q0 -99 -38 -187t-103.5 -153t-153 -103t-187.5 -38q-99 0 -187 38t-153 103t-103 153t-38 187zM104 351q0 -81 31.5 -153.5t85.5 -127t126 -86t153 -31.5
q82 0 154 31.5t126 86t85.5 127t31.5 153.5q0 82 -31.5 154.5t-85.5 127t-126 86t-154 31.5q-81 0 -153 -31.5t-126 -86t-85.5 -127t-31.5 -154.5z" />
    <glyph glyph-name="cid726" unicode="&#x24e3;" horiz-adv-x="1000" 
d="M331 388v83h67v110q0 12 4.5 20t16.5 12q22 6 45.5 12.5t46.5 12.5v-167h127l-16 -83h-111v-217q0 -20 8.5 -24.5t18.5 -4.5h91v-83h-132q-55 0 -77 24t-22 78v227h-67zM19 351q0 100 38 187.5t103 153t153 103.5t187 38q100 0 187.5 -38t153 -103.5t103.5 -153
t38 -187.5q0 -99 -38 -187t-103.5 -153t-153 -103t-187.5 -38q-99 0 -187 38t-153 103t-103 153t-38 187zM104 351q0 -81 31.5 -153.5t85.5 -127t126 -86t153 -31.5q82 0 154 31.5t126 86t85.5 127t31.5 153.5q0 82 -31.5 154.5t-85.5 127t-126 86t-154 31.5
q-81 0 -153 -31.5t-126 -86t-85.5 -127t-31.5 -154.5z" />
    <glyph glyph-name="cid727" unicode="&#x24e4;" horiz-adv-x="1000" 
d="M600 139h-140q-26 0 -50.5 11.5t-43 29t-30 37t-11.5 36.5v298h112v-285q0 -17 11 -29.5t33 -14.5h85v329h112v-341q0 -12 -2 -17.5t-7 -8.5l-44 -38q-5 -5 -12 -6t-13 -1zM19 351q0 100 38 187.5t103 153t153 103.5t187 38q100 0 187.5 -38t153 -103.5t103.5 -153
t38 -187.5q0 -99 -38 -187t-103.5 -153t-153 -103t-187.5 -38q-99 0 -187 38t-153 103t-103 153t-38 187zM104 351q0 -81 31.5 -153.5t85.5 -127t126 -86t153 -31.5q82 0 154 31.5t126 86t85.5 127t31.5 153.5q0 82 -31.5 154.5t-85.5 127t-126 86t-154 31.5
q-81 0 -153 -31.5t-126 -86t-85.5 -127t-31.5 -154.5z" />
    <glyph glyph-name="cid728" unicode="&#x24e5;" horiz-adv-x="1000" 
d="M427 551l77 -331h2q19 82 38.5 165.5t38.5 165.5h108q-25 -95 -50.5 -188.5t-50.5 -189.5q-5 -14 -12.5 -24t-24.5 -10h-98q-15 0 -23 7.5t-13 24.5q-24 92 -50.5 190t-50.5 190h109zM19 351q0 100 38 187.5t103 153t153 103.5t187 38q100 0 187.5 -38t153 -103.5
t103.5 -153t38 -187.5q0 -99 -38 -187t-103.5 -153t-153 -103t-187.5 -38q-99 0 -187 38t-153 103t-103 153t-38 187zM104 351q0 -81 31.5 -153.5t85.5 -127t126 -86t153 -31.5q82 0 154 31.5t126 86t85.5 127t31.5 153.5q0 82 -31.5 154.5t-85.5 127t-126 86t-154 31.5
q-81 0 -153 -31.5t-126 -86t-85.5 -127t-31.5 -154.5z" />
    <glyph glyph-name="cid729" unicode="&#x24e6;" horiz-adv-x="1000" 
d="M560 484q17 -74 32.5 -143t27.5 -120h2q9 38 18.5 81t19 86.5t18 85t15.5 77.5h103q-8 -38 -18.5 -87t-22 -100t-23 -101t-22.5 -90q-3 -13 -12 -23.5t-24 -10.5h-101q-29 0 -36 32q-8 37 -17 80.5t-19 91.5h-2q-3 -20 -7.5 -43t-9.5 -46.5t-10.5 -44.5t-9.5 -36
q-5 -14 -14 -24t-26 -10h-94q-16 0 -23.5 7.5t-12.5 24.5q-8 31 -20 79.5t-24.5 101.5t-24 105.5t-20.5 93.5h109l69 -330h1q6 23 13.5 56.5t15 70t15 72t12.5 64.5h122zM19 351q0 100 38 187.5t103 153t153 103.5t187 38q100 0 187.5 -38t153 -103.5t103.5 -153t38 -187.5
q0 -99 -38 -187t-103.5 -153t-153 -103t-187.5 -38q-99 0 -187 38t-153 103t-103 153t-38 187zM104 351q0 -81 31.5 -153.5t85.5 -127t126 -86t153 -31.5q82 0 154 31.5t126 86t85.5 127t31.5 153.5q0 82 -31.5 154.5t-85.5 127t-126 86t-154 31.5q-81 0 -153 -31.5
t-126 -86t-85.5 -127t-31.5 -154.5z" />
    <glyph glyph-name="cid730" unicode="&#x24e7;" horiz-adv-x="1000" 
d="M19 351q0 100 38 187.5t103 153t153 103.5t187 38q100 0 187.5 -38t153 -103.5t103.5 -153t38 -187.5q0 -99 -38 -187t-103.5 -153t-153 -103t-187.5 -38q-99 0 -187 38t-153 103t-103 153t-38 187zM104 351q0 -81 31.5 -153.5t85.5 -127t126 -86t153 -31.5
q82 0 154 31.5t126 86t85.5 127t31.5 153.5q0 82 -31.5 154.5t-85.5 127t-126 86t-154 31.5q-81 0 -153 -31.5t-126 -86t-85.5 -127t-31.5 -154.5zM302 139q35 51 71.5 103t73.5 105l-141 204h116q21 -30 42 -59.5t41 -59.5q21 30 41.5 60t40.5 59h117q-35 -50 -70.5 -100.5
t-70.5 -102.5q36 -53 72 -105t73 -104h-117q-22 31 -43.5 62t-43.5 63q-22 -32 -43.5 -63.5t-42.5 -61.5h-116z" />
    <glyph glyph-name="cid731" unicode="&#x24e8;" horiz-adv-x="1000" 
d="M363 51v84h123q25 0 36 7.5t16 32.5l7 48h-97q-57 0 -85.5 28t-28.5 99v271h112v-280q0 -18 8.5 -26t32.5 -8h69q11 77 23.5 157t24.5 157h111q-17 -110 -34.5 -224t-34.5 -224q-5 -23 -16 -45t-29.5 -39t-45 -27.5t-60.5 -10.5h-132zM19 351q0 100 38 187.5t103 153
t153 103.5t187 38q100 0 187.5 -38t153 -103.5t103.5 -153t38 -187.5q0 -99 -38 -187t-103.5 -153t-153 -103t-187.5 -38q-99 0 -187 38t-153 103t-103 153t-38 187zM104 351q0 -81 31.5 -153.5t85.5 -127t126 -86t153 -31.5q82 0 154 31.5t126 86t85.5 127t31.5 153.5
q0 82 -31.5 154.5t-85.5 127t-126 86t-154 31.5q-81 0 -153 -31.5t-126 -86t-85.5 -127t-31.5 -154.5z" />
    <glyph glyph-name="cid732" unicode="&#x24e9;" horiz-adv-x="1000" 
d="M345 551h304v-81l-197 -248h205v-83h-318v83q44 60 89.5 121.5t91.5 124.5h-175v83zM19 351q0 100 38 187.5t103 153t153 103.5t187 38q100 0 187.5 -38t153 -103.5t103.5 -153t38 -187.5q0 -99 -38 -187t-103.5 -153t-153 -103t-187.5 -38q-99 0 -187 38t-153 103
t-103 153t-38 187zM104 351q0 -81 31.5 -153.5t85.5 -127t126 -86t153 -31.5q82 0 154 31.5t126 86t85.5 127t31.5 153.5q0 82 -31.5 154.5t-85.5 127t-126 86t-154 31.5q-81 0 -153 -31.5t-126 -86t-85.5 -127t-31.5 -154.5z" />
    <glyph glyph-name="cid519" unicode="&#x2500;" horiz-adv-x="1000" 
d="M0 262v77h1000v-77h-1000z" />
    <glyph glyph-name="cid530" unicode="&#x2501;" horiz-adv-x="1000" 
d="M0 239v123h1000v-123h-1000z" />
    <glyph glyph-name="cid520" unicode="&#x2502;" horiz-adv-x="1000" 
d="M459 -199v1000h84v-1000h-84z" />
    <glyph glyph-name="cid531" unicode="&#x2503;" horiz-adv-x="1000" 
d="M435 -199v1000h129v-1000h-129z" />
    <glyph glyph-name="cid521" unicode="&#x250c;" horiz-adv-x="1000" 
d="M543 262v-461h-84v538h541v-77h-457z" />
    <glyph glyph-name="cid558" unicode="&#x250d;" horiz-adv-x="1000" 
d="M543 239v-438h-84v561h541v-123h-457z" />
    <glyph glyph-name="cid557" unicode="&#x250e;" horiz-adv-x="1000" 
d="M564 262v-461h-129v538h565v-77h-436z" />
    <glyph glyph-name="cid532" unicode="&#x250f;" horiz-adv-x="1000" 
d="M564 239v-438h-129v561h565v-123h-436z" />
    <glyph glyph-name="cid522" unicode="&#x2510;" horiz-adv-x="1000" 
d="M459 -199v461h-459v77h543v-538h-84z" />
    <glyph glyph-name="cid552" unicode="&#x2511;" horiz-adv-x="1000" 
d="M459 -199v438h-459v123h543v-561h-84z" />
    <glyph glyph-name="cid551" unicode="&#x2512;" horiz-adv-x="1000" 
d="M436 -199v461h-436v77h564v-538h-128z" />
    <glyph glyph-name="cid533" unicode="&#x2513;" horiz-adv-x="1000" 
d="M435 -199v438h-435v123h564v-561h-129z" />
    <glyph glyph-name="cid524" unicode="&#x2514;" horiz-adv-x="1000" 
d="M459 262v539h84v-462h457v-77h-541z" />
    <glyph glyph-name="cid556" unicode="&#x2515;" horiz-adv-x="1000" 
d="M459 239v562h84v-439h457v-123h-541z" />
    <glyph glyph-name="cid555" unicode="&#x2516;" horiz-adv-x="1000" 
d="M435 262v539h129v-462h436v-77h-565z" />
    <glyph glyph-name="cid535" unicode="&#x2517;" horiz-adv-x="1000" 
d="M435 239v562h129v-439h436v-123h-565z" />
    <glyph glyph-name="cid523" unicode="&#x2518;" horiz-adv-x="1000" 
d="M0 262v77h459v462h84v-539h-543z" />
    <glyph glyph-name="cid554" unicode="&#x2519;" horiz-adv-x="1000" 
d="M0 239v123h459v439h84v-562h-543z" />
    <glyph glyph-name="cid553" unicode="&#x251a;" horiz-adv-x="1000" 
d="M0 262v77h435v462h129v-539h-564z" />
    <glyph glyph-name="cid534" unicode="&#x251b;" horiz-adv-x="1000" 
d="M0 239v123h435v439h129v-562h-564z" />
    <glyph glyph-name="cid525" unicode="&#x251c;" horiz-adv-x="1000" 
d="M543 262v-461h-84v1000h84v-462h457v-77h-457z" />
    <glyph glyph-name="cid546" unicode="&#x251d;" horiz-adv-x="1000" 
d="M543 239v-438h-84v1000h84v-439h457v-123h-457z" />
    <glyph glyph-name="cid559" unicode="&#x251e;" horiz-adv-x="1000" 
d="M543 262v-461h-84v461h-24v539h129v-462h436v-77h-457z" />
    <glyph glyph-name="cid560" unicode="&#x251f;" horiz-adv-x="1000" 
d="M564 262v-461h-129v538h24v462h84v-462h457v-77h-436z" />
    <glyph glyph-name="cid541" unicode="&#x2520;" horiz-adv-x="1000" 
d="M564 262v-461h-129v1000h129v-462h436v-77h-436z" />
    <glyph glyph-name="cid561" unicode="&#x2521;" horiz-adv-x="1000" 
d="M543 239v-438h-84v437h-24v563h129v-439h436v-123h-457z" />
    <glyph glyph-name="cid562" unicode="&#x2522;" horiz-adv-x="1000" 
d="M564 239v-438h-129v561h24v439h84v-439h457v-123h-436z" />
    <glyph glyph-name="cid536" unicode="&#x2523;" horiz-adv-x="1000" 
d="M564 239v-438h-129v1000h129v-439h436v-123h-436z" />
    <glyph glyph-name="cid527" unicode="&#x2524;" horiz-adv-x="1000" 
d="M459 -199v461h-459v77h459v462h84v-1000h-84z" />
    <glyph glyph-name="cid548" unicode="&#x2525;" horiz-adv-x="1000" 
d="M459 -198v437h-459v123h459v439h84v-999h-84z" />
    <glyph glyph-name="cid563" unicode="&#x2526;" horiz-adv-x="1000" 
d="M543 262v-461h-84v461h-459v77h435v462h129v-539h-21z" />
    <glyph glyph-name="cid564" unicode="&#x2527;" horiz-adv-x="1000" 
d="M435 -200v462h-435v77h459v462h84v-462h21v-539h-129z" />
    <glyph glyph-name="cid543" unicode="&#x2528;" horiz-adv-x="1000" 
d="M435 -199v461h-435v77h435v462h129v-1000h-129z" />
    <glyph glyph-name="cid565" unicode="&#x2529;" horiz-adv-x="1000" 
d="M543 239v-437h-84v437h-459v123h435v439h129v-562h-21z" />
    <glyph glyph-name="cid566" unicode="&#x252a;" horiz-adv-x="1000" 
d="M435 -199v438h-435v123h459v439h84v-439h21v-561h-129z" />
    <glyph glyph-name="cid538" unicode="&#x252b;" horiz-adv-x="1000" 
d="M435 -198v437h-435v123h435v439h129v-999h-129z" />
    <glyph glyph-name="cid526" unicode="&#x252c;" horiz-adv-x="1000" 
d="M543 262v-461h-84v461h-459v77h1000v-77h-457z" />
    <glyph glyph-name="cid567" unicode="&#x252d;" horiz-adv-x="1000" 
d="M543 262v-461h-84v438h-459v123h543v-23h457v-77h-457z" />
    <glyph glyph-name="cid568" unicode="&#x252e;" horiz-adv-x="1000" 
d="M543 239v-438h-84v461h-459v77h459v23h541v-123h-457z" />
    <glyph glyph-name="cid542" unicode="&#x252f;" horiz-adv-x="1000" 
d="M543 239v-438h-84v438h-459v123h1000v-123h-457z" />
    <glyph glyph-name="cid547" unicode="&#x2530;" horiz-adv-x="1000" 
d="M564 262v-461h-128v461h-436v77h1000v-77h-436z" />
    <glyph glyph-name="cid569" unicode="&#x2531;" horiz-adv-x="1000" 
d="M564 262v-461h-129v438h-435v123h564v-23h436v-77h-436z" />
    <glyph glyph-name="cid570" unicode="&#x2532;" horiz-adv-x="1000" 
d="M564 239v-438h-129v461h-435v77h436v23h564v-123h-436z" />
    <glyph glyph-name="cid537" unicode="&#x2533;" horiz-adv-x="1000" 
d="M564 239v-438h-129v438h-435v123h1000v-123h-436z" />
    <glyph glyph-name="cid528" unicode="&#x2534;" horiz-adv-x="1000" 
d="M0 262v77h459v462h84v-462h457v-77h-1000z" />
    <glyph glyph-name="cid571" unicode="&#x2535;" horiz-adv-x="1000" 
d="M543 262v-23h-543v123h459v439h84v-462h457v-77h-457z" />
    <glyph glyph-name="cid572" unicode="&#x2536;" horiz-adv-x="1000" 
d="M459 239v23h-459v77h459v462h84v-439h457v-123h-541z" />
    <glyph glyph-name="cid544" unicode="&#x2537;" horiz-adv-x="1000" 
d="M0 239v123h459v439h84v-439h457v-123h-1000z" />
    <glyph glyph-name="cid549" unicode="&#x2538;" horiz-adv-x="1000" 
d="M0 262v77h435v462h129v-462h436v-77h-1000z" />
    <glyph glyph-name="cid573" unicode="&#x2539;" horiz-adv-x="1000" 
d="M564 262v-23h-564v123h435v439h129v-462h436v-77h-436z" />
    <glyph glyph-name="cid574" unicode="&#x253a;" horiz-adv-x="1000" 
d="M435 239v23h-435v77h435v462h129v-439h436v-123h-565z" />
    <glyph glyph-name="cid539" unicode="&#x253b;" horiz-adv-x="1000" 
d="M0 239v123h435v439h129v-439h436v-123h-1000z" />
    <glyph glyph-name="cid529" unicode="&#x253c;" horiz-adv-x="1000" 
d="M543 262v-461h-84v461h-459v77h459v462h84v-462h457v-77h-457z" />
    <glyph glyph-name="cid575" unicode="&#x253d;" horiz-adv-x="1000" 
d="M543 262v-461h-84v438h-459v123h459v439h84v-462h457v-77h-457z" />
    <glyph glyph-name="cid576" unicode="&#x253e;" horiz-adv-x="1000" 
d="M543 239v-438h-84v461h-459v77h459v462h84v-439h457v-123h-457z" />
    <glyph glyph-name="cid545" unicode="&#x253f;" horiz-adv-x="1000" 
d="M543 239v-438h-84v438h-459v123h459v439h84v-439h457v-123h-457z" />
    <glyph glyph-name="cid577" unicode="&#x2540;" horiz-adv-x="1000" 
d="M543 262v-461h-84v461h-459v77h435v462h129v-462h436v-77h-457z" />
    <glyph glyph-name="cid578" unicode="&#x2541;" horiz-adv-x="1000" 
d="M564 262v-461h-129v461h-435v77h459v462h84v-462h457v-77h-436z" />
    <glyph glyph-name="cid550" unicode="&#x2542;" horiz-adv-x="1000" 
d="M564 262v-461h-129v461h-435v77h435v462h129v-462h436v-77h-436z" />
    <glyph glyph-name="cid579" unicode="&#x2543;" horiz-adv-x="1000" 
d="M543 262v-461h-84v438h-459v123h435v439h129v-462h436v-77h-457z" />
    <glyph glyph-name="cid580" unicode="&#x2544;" horiz-adv-x="1000" 
d="M543 239v-438h-84v461h-459v77h435v462h129v-439h436v-123h-457z" />
    <glyph glyph-name="cid581" unicode="&#x2545;" horiz-adv-x="1000" 
d="M564 262v-461h-129v438h-435v123h459v439h84v-462h457v-77h-436z" />
    <glyph glyph-name="cid582" unicode="&#x2546;" horiz-adv-x="1000" 
d="M564 239v-438h-129v461h-435v77h459v462h84v-439h457v-123h-436z" />
    <glyph glyph-name="cid583" unicode="&#x2547;" horiz-adv-x="1000" 
d="M543 239v-438h-84v438h-459v123h435v439h129v-439h436v-123h-457z" />
    <glyph glyph-name="cid584" unicode="&#x2548;" horiz-adv-x="1000" 
d="M564 239v-438h-129v438h-435v123h459v439h84v-439h457v-123h-436z" />
    <glyph glyph-name="cid585" unicode="&#x2549;" horiz-adv-x="1000" 
d="M564 262v-461h-129v438h-435v123h435v439h129v-462h436v-77h-436z" />
    <glyph glyph-name="cid586" unicode="&#x254a;" horiz-adv-x="1000" 
d="M564 239v-438h-129v461h-435v77h435v462h129v-439h436v-123h-436z" />
    <glyph glyph-name="cid540" unicode="&#x254b;" horiz-adv-x="1000" 
d="M564 239v-438h-129v438h-435v123h435v439h129v-439h436v-123h-436z" />
    <glyph glyph-name="cid232" unicode="&#x2592;" horiz-adv-x="900" 
d="M410 25v79h80v-79h-80zM614 104h78v-79h-78v79zM591 25h-80v79h80v-79zM288 25h-79v79h79v-79zM185 25h-79v79h79v-79zM388 25h-78v79h78v-79zM715 104h79v-79h-79v79zM410 126v77h80v-77h-80zM614 203h78v-77h-78v77zM591 126h-80v77h80v-77zM288 126h-79v77h79v-77z
M185 126h-79v77h79v-77zM388 126h-78v77h78v-77zM715 203h79v-77h-79v77zM410 225v78h80v-78h-80zM614 303h78v-78h-78v78zM591 225h-80v78h80v-78zM288 225h-79v78h79v-78zM185 225h-79v78h79v-78zM388 225h-78v78h78v-78zM715 303h79v-78h-79v78zM410 326v80h80v-80h-80z
M614 406h78v-80h-78v80zM591 326h-80v80h80v-80zM288 326h-79v80h79v-80zM185 326h-79v80h79v-80zM388 326h-78v80h78v-80zM715 406h79v-80h-79v80zM410 429v78h80v-78h-80zM614 507h78v-78h-78v78zM591 429h-80v78h80v-78zM288 429h-79v78h79v-78zM185 429h-79v78h79v-78z
M388 429h-78v78h78v-78zM715 507h79v-78h-79v78zM410 528v78h80v-78h-80zM614 606h78v-78h-78v78zM591 528h-80v78h80v-78zM288 528h-79v78h79v-78zM185 528h-79v78h79v-78zM388 528h-78v78h78v-78zM715 606h79v-78h-79v78zM410 629v82h80v-82h-80zM614 711h78v-82h-78v82z
M591 629h-80v82h80v-82zM288 629h-79v82h79v-82zM185 629h-79v82h79v-82zM388 629h-78v82h78v-82zM715 711h79v-82h-79v82z" />
    <glyph glyph-name="cid165" unicode="&#x25a0;" horiz-adv-x="900" 
d="M77 -6v747h745v-747h-745z" />
    <glyph glyph-name="cid164" unicode="&#x25a1;" horiz-adv-x="900" 
d="M77 -6v747h745v-747h-745zM755 674h-609v-612h609v612z" />
    <glyph glyph-name="cid229" unicode="&#x25a3;" horiz-adv-x="900" 
d="M254 170v391h389v-391h-389zM77 -6v747h745v-747h-745zM755 674h-609v-612h609v612z" />
    <glyph glyph-name="cid233" unicode="&#x25a4;" horiz-adv-x="900" 
d="M822 741v-745h-745v745h745zM140 61h618v109h-618v-109zM140 229h618v111h-618v-111zM140 400h618v109h-618v-109zM140 571h618v109h-618v-109z" />
    <glyph glyph-name="cid234" unicode="&#x25a5;" horiz-adv-x="900" 
d="M77 741h745v-745h-745v745zM757 59v619h-109v-619h109zM588 59v619h-110v-619h110zM418 59v619h-110v-619h110zM248 59v619h-108v-619h108z" />
    <glyph glyph-name="cid237" unicode="&#x25a6;" horiz-adv-x="900" 
d="M822 741v-745h-745v745h745zM478 229h110v111h-110v-111zM478 400h110v109h-110v-109zM308 229h110v111h-110v-111zM308 400h110v109h-110v-109zM478 61h110v109h-110v-109zM648 229h108v111h-108v-111zM308 61h110v109h-110v-109zM648 400h108v109h-108v-109zM139 229
h108v111h-108v-111zM588 678h-110v-107h110v107zM648 61h108v109h-108v-109zM139 400h108v109h-108v-109zM418 678h-110v-107h110v107zM139 61h108v109h-108v-109zM756 678h-108v-107h108v107zM139 571h108v107h-108v-107z" />
    <glyph glyph-name="cid236" unicode="&#x25a7;" horiz-adv-x="900" 
d="M822 741v-745h-745v745h745zM141 58h61l-61 63v-63zM141 204l143 -146h171l-314 314v-168zM141 462l403 -404h169l-572 577v-173zM759 100v178l-400 403h-175zM759 365v169l-142 147h-169zM759 617v64h-62z" />
    <glyph glyph-name="cid235" unicode="&#x25a8;" horiz-adv-x="900" 
d="M822 741v-745h-745v745h745zM758 121l-61 -63h61v63zM758 372l-314 -314h171l143 146v168zM758 635l-572 -577h169l403 404v173zM715 681h-175l-400 -403v-178zM451 681h-169l-142 -147v-169zM202 681h-62v-64z" />
    <glyph glyph-name="cid238" unicode="&#x25a9;" horiz-adv-x="900" 
d="M315 274l95 96l-95 95l-95 -95zM446 142l94 95l-91 93l-94 -96zM355 505l94 -96l91 93l-94 95zM580 276l93 94l-93 92l-91 -92zM130 460l51 -51l94 96l-90 92l-55 -58v-79zM130 200l55 -57l90 91l-94 96l-51 -51v-79zM616 49l55 56l-91 91l-94 -94l51 -53h79zM537 689
l-51 -53l94 -94l91 92l-54 55h-80zM765 538l-55 56l-91 -91l94 -94l52 53v76zM765 276l-52 52l-93 -92l90 -91l55 56v75zM354 49l52 53l-91 92l-91 -92l50 -53h80zM274 689l-50 -53l91 -92l91 93l-52 52h-80zM149 633l-19 18v-38zM150 107l-20 19v-39zM765 650l-18 -18
l18 -19v37zM765 126l-18 -18l18 -19v37zM690 49h35l-17 18zM708 671l18 18h-37zM189 66l-16 -17h30zM189 673l15 16h-32zM142 370l-12 12v-26zM765 381l-12 -11l12 -13v24zM445 677l11 12h-22zM445 62l-11 -13h22zM822 741v-745h-745v745h745z" />
    <glyph glyph-name="cid167" unicode="&#x25b2;" horiz-adv-x="900" 
d="M844 74h-789l400 608z" />
    <glyph glyph-name="cid166" unicode="&#x25b3;" horiz-adv-x="900" 
d="M844 74h-789l400 608zM712 145l-257 404l-269 -404h526z" />
    <glyph glyph-name="cid220" unicode="&#x25b6;" horiz-adv-x="900" 
d="M145 -9v789l610 -404z" />
    <glyph glyph-name="cid219" unicode="&#x25b7;" horiz-adv-x="900" 
d="M145 -9v789l610 -404zM216 121l405 257l-405 271v-528z" />
    <glyph glyph-name="cid169" unicode="&#x25bc;" horiz-adv-x="900" 
d="M455 54l-400 608h789z" />
    <glyph glyph-name="cid168" unicode="&#x25bd;" horiz-adv-x="900" 
d="M455 54l-400 608h789zM186 591l269 -404l257 404h-526z" />
    <glyph glyph-name="cid218" unicode="&#x25c0;" horiz-adv-x="900" 
d="M145 376l610 404v-789z" />
    <glyph glyph-name="cid217" unicode="&#x25c1;" horiz-adv-x="900" 
d="M145 376l610 404v-789zM684 649l-405 -271l405 -257v528z" />
    <glyph glyph-name="cid163" unicode="&#x25c6;" horiz-adv-x="900" 
d="M451 -69l-434 436l433 437l434 -436z" />
    <glyph glyph-name="cid162" unicode="&#x25c7;" horiz-adv-x="900" 
d="M451 -69l-434 436l433 437l434 -436zM450 711l-334 -340l335 -341l333 341z" />
    <glyph glyph-name="cid228" unicode="&#x25c8;" horiz-adv-x="900" 
d="M449 711l-334 -340l335 -341l333 341zM450 140l-231 231l231 230l230 -230zM450 -69l-434 436l433 437l434 -436z" />
    <glyph glyph-name="cid159" unicode="&#x25cb;" horiz-adv-x="900" 
d="M144 368q0 -63 24.5 -119.5t66 -98.5t97 -67t118.5 -25t119 25t97.5 67t66 98.5t24.5 119.5t-24.5 119t-66 98t-97.5 67t-119 25t-118.5 -25t-97 -67t-66 -98t-24.5 -119zM826 368q0 -77 -30 -146t-81 -120.5t-119.5 -81.5t-145.5 -30t-145.5 30t-120 81.5t-81.5 120.5
t-30 146t30 145.5t81.5 119.5t120 81t145.5 30t145.5 -30t119.5 -81t81 -119.5t30 -145.5z" />
    <glyph glyph-name="cid161" unicode="&#x25ce;" horiz-adv-x="900" 
d="M144 368q0 -63 24.5 -119.5t66 -98.5t97 -67t118.5 -25t119 25t97.5 67t66 98.5t24.5 119.5t-24.5 119t-66 98t-97.5 67t-119 25t-118.5 -25t-97 -67t-66 -98t-24.5 -119zM826 368q0 -77 -30 -146t-81 -120.5t-119.5 -81.5t-145.5 -30t-145.5 30t-120 81.5t-81.5 120.5
t-30 146t30 145.5t81.5 119.5t120 81t145.5 30t145.5 -30t119.5 -81t81 -119.5t30 -145.5zM282 368q0 -35 13 -66.5t36 -55t53.5 -37t65.5 -13.5t66 13.5t54 37t36.5 55t13.5 66.5t-13.5 66t-36.5 54.5t-54 37t-66 13.5t-65.5 -13.5t-53.5 -37t-36 -54.5t-13 -66zM685 368
q0 -48 -18.5 -91t-50.5 -75.5t-74.5 -51t-91.5 -18.5q-48 0 -90.5 18.5t-75 51t-51 75.5t-18.5 91t18.5 91t51 74.5t75 50t90.5 18.5q49 0 91.5 -18.5t74.5 -50t50.5 -74.5t18.5 -91z" />
    <glyph glyph-name="cid160" unicode="&#x25cf;" horiz-adv-x="900" 
d="M826 368q0 -77 -30 -146t-81 -120.5t-119.5 -81.5t-145.5 -30t-145.5 30t-120 81.5t-81.5 120.5t-30 146t30 145.5t81.5 119.5t120 81t145.5 30t145.5 -30t119.5 -81t81 -119.5t30 -145.5z" />
    <glyph glyph-name="cid230" unicode="&#x25d0;" horiz-adv-x="900" 
d="M459 58q61 2 115.5 27.5t95 67.5t64 97.5t23.5 117.5t-23.5 117t-64 97t-95 67.5t-115.5 27.5v-619zM826 368q0 -77 -30 -146t-81 -120.5t-119.5 -81.5t-145.5 -30t-145.5 30t-120 81.5t-81.5 120.5t-30 146t30 145.5t81.5 119.5t120 81t145.5 30t145.5 -30t119.5 -81
t81 -119.5t30 -145.5z" />
    <glyph glyph-name="cid231" unicode="&#x25d1;" horiz-adv-x="900" 
d="M440 677q-62 -2 -116 -27.5t-94.5 -67.5t-64 -97t-23.5 -117t23.5 -117.5t64 -97.5t94.5 -67.5t116 -27.5v619zM73 368q0 77 30 145.5t81 119.5t119.5 81t145.5 30t145.5 -30t120 -81t81.5 -119.5t30 -145.5t-30 -146t-81.5 -120.5t-120 -81.5t-145.5 -30t-145.5 30
t-119.5 81.5t-81 120.5t-30 146z" />
    <glyph glyph-name="cid158" unicode="&#x2605;" horiz-adv-x="900" 
d="M855 480l-252 -187l105 -303l-262 195l-253 -188l95 300l-243 183h306l95 289l99 -289h310z" />
    <glyph glyph-name="cid157" unicode="&#x2606;" horiz-adv-x="900" 
d="M669 418h-176l-45 149l-47 -149h-173l139 -103l-59 -158l137 105l141 -107l-60 159zM855 480l-252 -187l105 -303l-262 195l-253 -188l95 300l-243 183h306l95 289l99 -289h310z" />
    <glyph glyph-name="cid241" unicode="&#x260e;" horiz-adv-x="900" 
d="M450 675q105 0 181.5 -17t130.5 -53q45 -29 67 -69t27 -85q2 -35 -14 -57.5t-45 -19.5q-35 4 -64 12t-51 19q-52 23 -50 58q0 6 3 14.5t6 16.5q2 8 5 16.5t1 15.5q-2 14 -12 21t-22 9q-1 -11 -1 -22t-1 -22q-2 -32 5 -60.5t22 -54.5q11 -20 24 -35.5t27 -30.5
q20 -23 38.5 -46t29.5 -53q5 -15 11 -35.5t11.5 -41.5t10 -40t6.5 -31q2 -18 -7 -32t-29 -14h-621q-20 0 -28.5 14t-6.5 32q1 11 5 29.5t10 40t12 42.5t12 36q11 30 29 53t38 46q14 15 27.5 30.5t24.5 35.5q7 13 13 27.5t9 33t3.5 42.5t-2.5 56q-27 -2 -33 -30
q-2 -7 1 -15.5t6 -16.5q2 -8 5 -16.5t3 -14.5q2 -35 -50 -58q-21 -11 -50.5 -19t-63.5 -12q-30 -3 -46 19.5t-14 57.5q5 45 27.5 85t66.5 69q54 36 131 53t182 17zM597 270q0 34 -13 61t-34.5 46t-49.5 29t-58 10q-32 0 -60 -10.5t-49 -30t-33.5 -46t-12.5 -59.5
q0 -35 13 -62t35 -46t49.5 -29t57.5 -10q31 0 59.5 10.5t49.5 30t33.5 46.5t12.5 60zM532 570q-29 -3 -51.5 -4.5t-43 -1t-40.5 3t-43 7.5v-69q0 -22 15 -28.5t31 -6.5h84q8 0 16.5 1t15.5 4.5t11.5 11t4.5 19.5v63z" />
    <glyph glyph-name="cid240" unicode="&#x260f;" horiz-adv-x="900" 
d="M450 675q105 0 181.5 -17t130.5 -53q45 -29 67 -69t27 -85q2 -35 -14 -57.5t-45 -19.5q-35 4 -64 12t-51 19q-52 23 -50 58q0 6 3 14.5t6 16.5q2 8 5 16.5t1 15.5q-2 14 -12 21t-22 9q-1 -11 -1 -22t-1 -22q-2 -32 5 -60.5t22 -54.5q11 -20 24 -35.5t27 -30.5
q20 -23 38.5 -46t29.5 -53q5 -15 11 -35.5t11.5 -41.5t10 -40t6.5 -31q2 -18 -7 -32t-29 -14h-621q-20 0 -28.5 14t-6.5 32q1 11 5 29.5t10 40t12 42.5t12 36q11 30 29 53t38 46q14 15 27.5 30.5t24.5 35.5q7 13 13 27.5t9 33t3.5 42.5t-2.5 56q-27 -2 -33 -30
q-2 -7 1 -15.5t6 -16.5q2 -8 5 -16.5t3 -14.5q2 -35 -50 -58q-21 -11 -50.5 -19t-63.5 -12q-30 -3 -46 19.5t-14 57.5q5 45 27.5 85t66.5 69q54 36 131 53t182 17zM621 262q0 -37 -14 -67t-37.5 -51.5t-55 -33.5t-66.5 -12q-33 0 -64 11.5t-55 32.5t-38.5 51.5t-14.5 68.5
q0 37 13.5 67t37 51.5t54.5 33t67 11.5q33 0 64.5 -11t55.5 -32t38.5 -51.5t14.5 -68.5zM577 262q0 27 -10 49.5t-27.5 39t-41 26t-50.5 9.5q-26 0 -49.5 -9t-41 -25t-28 -39t-10.5 -51q0 -27 10 -49.5t27.5 -38.5t40.5 -25t50 -9q25 0 48.5 8.5t41.5 24.5t29 38.5t11 50.5z
M553 513q0 -16 -6 -25.5t-15 -14t-19.5 -6t-19.5 -1.5h-90q-9 0 -19.5 2t-18.5 7t-13.5 14t-5.5 23v83q35 -7 60 -10t48 -3q20 0 43.5 1.5t55.5 5.5v-76zM509 547q-13 -1 -27 -2t-28 -1q-34 0 -68 6v-26q0 -9 3.5 -15t11.5 -6h94q10 0 12 3.5t2 12.5v28zM451 632
q-63 0 -122.5 -8t-106.5 -28q-54 -21 -88.5 -53.5t-44.5 -91.5q-3 -17 2.5 -24t14.5 -6q30 2 52 9.5t36 15.5q12 5 21 11.5t9 11.5q-3 8 -8 22.5t-7 23.5q-2 13 3.5 27.5t17.5 26.5t30.5 20.5t43.5 10.5q17 2 20.5 -5.5t4.5 -17.5q1 -8 2 -37t1 -61q0 -57 -31 -109
q-13 -19 -25.5 -33.5t-25.5 -28.5q-16 -16 -30 -33t-26 -39q-5 -10 -11 -28.5t-11.5 -39.5t-9.5 -42t-6 -35q0 -2 3 -2.5t12 -0.5h558q14 0 14 3q-1 11 -5 31t-9.5 42t-11.5 41.5t-12 30.5q-12 20 -26.5 38.5t-29.5 33.5q-13 14 -25.5 28.5t-25.5 33.5q-31 52 -31 109
q0 32 1 61t3 37q1 10 4.5 17.5t20.5 5.5q25 -2 43.5 -10.5t30.5 -20.5t17 -26.5t3 -27.5q-1 -10 -4.5 -20.5t-10.5 -25.5q0 -4 9.5 -11t21.5 -12q14 -7 36 -15t51 -10q9 -1 14.5 6t2.5 24q-10 59 -44.5 91.5t-88.5 53.5q-47 20 -105 28t-121 8z" />
    <glyph glyph-name="cid242" unicode="&#x261c;" horiz-adv-x="900" 
d="M157 441q-18 0 -43.5 0.5t-48 5.5t-37.5 17.5t-12 35.5q3 17 20 26.5t39 14t43.5 5.5t32.5 1q38 0 76 0.5t75 1.5q29 1 64 1.5t63 0.5q40 0 77 -1.5t71 -3.5q71 -5 145 -58q5 -2 14 -3.5t31 -1.5v33h118v-270h-119v24h-15q-25 -18 -60.5 -30.5t-76 -20t-82.5 -11
t-79 -3.5q-32 0 -58 2t-46 4q-18 3 -30 11.5t-18.5 19.5t-6.5 22.5t7 20.5q-12 3 -20.5 10.5t-12 17t-2.5 19.5t8 19q-27 6 -29 38q-1 32 37 46q-32 1 -63.5 2.5t-61.5 3.5zM494 521q-11 0 -21.5 -0.5t-21.5 -1.5q-19 -9 -31 -15.5t-21 -14.5t-16.5 -18t-16.5 -26
q27 -5 39 2.5t20 16.5q8 10 15.5 12.5t14.5 2.5q5 0 7.5 -6.5t0.5 -12.5q18 -4 30 -1.5t29 12.5q11 5 18 3.5t8 -7.5q1 -10 -2 -18.5t-8 -16.5q2 -4 9.5 -9t17.5 -10.5t20.5 -9.5t18.5 -7q23 -6 47 -9q21 -4 34.5 -7.5t13.5 -11.5q0 -9 -14.5 -11.5t-33 -1t-35.5 4.5t-22 5
q-26 9 -53.5 26.5t-40.5 40.5q-7 -2 -22 -2.5t-21 -0.5q11 -3 15.5 -4.5t12.5 -16.5q6 -13 3 -25t-7 -19q9 -5 16 -10.5t9 -17.5q2 -8 0 -17t-6 -15q9 -5 17 -14.5t8 -19.5q0 -8 -1.5 -15.5t-5.5 -13.5q34 3 67 7.5t62.5 12.5t54 18.5t42.5 25.5h23v144q-27 -2 -47 6t-41 22
q-39 28 -89 36t-96 8zM345 467q6 12 18 26.5t25 25.5q-63 -1 -121 -1.5t-115 -2.5q-48 -2 -72.5 -5t-24.5 -14q0 -6 4 -9t15 -5t30 -3t48 -2q15 -1 29 -2l28 -2q35 -2 68 -4t68 -2zM829 484h-27v-204h27v204zM428 408q-16 2 -35 4t-39 2q-22 0 -39.5 -3t-27.5 -11
q-8 -6 -1 -12t19 -8q10 -2 33.5 -3t48.5 -1q19 0 35.5 1.5t23.5 4.5q8 4 4 13.5t-22 12.5zM488 269q0 5 -15 7.5t-60 1.5l-70 -1q-11 0 -12 -11.5t12 -16.5q8 -3 26 -5t38 -3q16 0 30.5 0.5t25.5 3t18 8t7 16.5zM469 327q3 9 -10.5 12.5t-24.5 3.5h-109q-12 0 -14.5 -12
t10.5 -17q14 -5 42 -4.5t60 0.5q4 0 11 1t14.5 3t13 5t7.5 8z" />
    <glyph glyph-name="cid243" unicode="&#x261e;" horiz-adv-x="900" 
d="M743 441q-30 -2 -61.5 -3.5t-63.5 -2.5q38 -14 37 -46q-2 -32 -29 -38q13 -17 5 -38t-32 -28q7 -9 7 -20.5t-6.5 -22.5t-18.5 -19.5t-30 -11.5q-20 -2 -46 -4t-58 -2q-38 0 -79.5 3.5t-82 11t-76 20t-60.5 30.5h-15v-24h-119v270h118v-33q22 0 31 1.5t14 3.5
q74 53 145 58q34 2 71 3.5t77 1.5q28 0 63 -0.5t64 -1.5q37 -1 75 -1.5t76 -0.5q11 0 32.5 -1t43.5 -5.5t39 -14t20 -26.5q3 -23 -12 -35.5t-37.5 -17.5t-48 -5.5t-43.5 -0.5zM406 521q-46 0 -96 -8t-89 -36q-21 -14 -41 -22t-47 -6v-144h23q18 -15 42.5 -25.5t54 -18.5
t62.5 -12.5t67 -7.5q-4 6 -5.5 13.5t-1.5 15.5q0 10 8 19.5t17 14.5q-4 6 -6 15t0 17q2 12 9 17.5t16 10.5q-4 7 -7 19t3 25q8 15 12.5 16.5t15.5 4.5q-6 0 -21 0.5t-22 2.5q-13 -23 -40.5 -40.5t-53.5 -26.5q-5 -2 -22 -5t-35.5 -4.5t-33 1t-14.5 11.5q0 8 13.5 11.5
t34.5 7.5q24 3 47 9q8 3 18.5 7t20.5 9.5t17.5 10.5t9.5 9q-5 8 -8 16.5t-2 18.5q1 6 8 7.5t18 -3.5q17 -10 29 -12.5t30 1.5q-2 6 0.5 12.5t7.5 6.5q7 0 14.5 -2.5t15.5 -12.5q8 -9 20 -16.5t39 -2.5q-9 16 -16.5 26t-16.5 18t-21 14.5t-31 15.5q-11 1 -21.5 1.5t-21.5 0.5
zM555 467q35 0 68 2t68 4l28 2t29 2q58 1 78 4.5t19 14.5q0 11 -24.5 14t-72.5 5q-57 2 -115 2.5t-121 1.5q13 -11 25 -25.5t18 -26.5zM71 280h27v204h-27v-204zM472 408q-18 -3 -22 -12.5t4 -13.5q7 -3 23.5 -4.5t35.5 -1.5q25 0 48.5 1t33.5 3q12 2 19 8t-1 12
q-10 8 -27.5 11t-39.5 3q-20 0 -39 -2t-35 -4zM412 269q0 -11 6.5 -16.5t18 -8t26 -3t30.5 -0.5q20 1 38 3t26 5q13 5 12 16.5t-12 11.5l-70 1q-45 1 -60 -1.5t-15 -7.5zM431 327q1 -5 7 -8t13.5 -5t14.5 -3t11 -1q32 0 60 -0.5t42 4.5q13 5 10.5 17t-14.5 12h-109
q-11 0 -24.5 -3.5t-10.5 -12.5z" />
    <glyph glyph-name="cid147" unicode="&#x2640;" horiz-adv-x="900" 
d="M372 -40v139h-168v106h168v89h-4q-32 0 -62.5 14.5t-54 36.5t-37.5 46.5t-14 45.5v168q0 21 17 49.5t44 55t60.5 45t66.5 18.5h143q32 0 62.5 -13t54 -33.5t37.5 -45t14 -46.5v-173q0 -21 -17 -49.5t-44 -55t-60.5 -45t-66.5 -18.5h-2v-89h168v-106h-168v-139h-137z
M337 453q0 -23 14 -39t44 -16h84q15 0 29.5 8.5t26.5 20.5t19.5 26t7.5 25v136q0 23 -12.5 39t-40.5 16h-88q-15 0 -30 -8.5t-27 -20.5t-19.5 -26t-7.5 -25v-136z" />
    <glyph glyph-name="cid146" unicode="&#x2642;" horiz-adv-x="900" 
d="M141 314q0 21 17 49.5t44 55t60.5 45t66.5 18.5h113l77 147l-113 -26l-21 88l263 54l110 -217l-90 -42l-45 89l-63 -120q35 -21 57.5 -51.5t22.5 -59.5v-203q0 -21 -17 -49.5t-44 -55t-60.5 -45t-66.5 -18.5h-143q-32 0 -62.5 14.5t-54 36.5t-37.5 46.5t-14 45.5v198z
M278 132q0 -23 14 -39t44 -16h84q15 0 29.5 8.5t26.5 20.5t19.5 26t7.5 25v166q0 23 -12.5 39t-40.5 16h-88q-15 0 -30 -8.5t-27 -20.5t-19.5 -26t-7.5 -25v-166z" />
    <glyph glyph-name="cid222" unicode="&#x2660;" horiz-adv-x="900" 
d="M318 -52v34q38 76 47 148q-26 -14 -53 -25t-56 -11q-34 0 -60 14.5t-44 38.5t-27.5 55t-9.5 64q0 45 12 84t33 75.5t49 71t60 69.5q48 51 95.5 108.5t85.5 122.5q42 -69 87 -124.5t93 -106.5q32 -35 60 -69.5t49 -70.5t33 -75.5t12 -84.5q0 -33 -9.5 -64t-27.5 -55
t-44.5 -38.5t-60.5 -14.5q-27 0 -54 11t-54 25q9 -75 47 -148v-34h-263z" />
    <glyph glyph-name="cid223" unicode="&#x2661;" horiz-adv-x="900" 
d="M718 552q0 25 -7 48.5t-21.5 41t-36 28t-50.5 10.5q-31 0 -54 -13.5t-41 -34t-32 -44.5t-26 -45q-10 17 -24 40.5t-32.5 45t-41 36.5t-48.5 15q-25 0 -47 -7.5t-39 -22.5t-27 -38.5t-10 -55.5q0 -62 29.5 -125t71.5 -123t88 -113.5t80 -96.5q26 28 56 62.5t59.5 72.5
t57.5 78.5t49 81.5t33.5 81.5t12.5 77.5zM788 554q0 -48 -18 -99.5t-47 -103.5t-66 -102t-74.5 -94.5t-72.5 -81.5t-61 -62q-34 35 -72 77t-75.5 87.5t-72 94t-61 98t-42 98.5t-15.5 95q0 44 14 77.5t38.5 56.5t58 35t72.5 12q26 0 49.5 -8.5t43 -21.5t35.5 -29t27 -31
q15 19 30.5 35.5t34 28.5t40.5 19t50 7q89 0 136.5 -50t47.5 -138z" />
    <glyph glyph-name="cid226" unicode="&#x2663;" horiz-adv-x="900" 
d="M579 -28h-258v35q7 13 15 32t14 40t10.5 43.5t6.5 43.5l-25 -25q-51 -51 -122 -51q-38 0 -69 14t-53.5 39t-35 58.5t-12.5 71.5q0 35 12 67t34 57t53 39.5t70 14.5q31 0 64 -6.5t63 -23.5q-13 15 -28 35t-28 43t-21.5 48t-8.5 51q0 39 15.5 69.5t42 51.5t60.5 32t71 11
q41 0 76 -11.5t61 -33t40.5 -52t14.5 -67.5q0 -35 -18 -77.5t-65 -97.5q27 15 58.5 21.5t62.5 6.5q40 0 71.5 -14.5t53.5 -39.5t34 -57t12 -67q0 -38 -13 -71.5t-35.5 -58.5t-54 -39t-68.5 -14t-66.5 13t-54.5 38l-17.5 17.5t-7.5 6.5q5 -48 16 -85t30 -73v-35z" />
    <glyph glyph-name="cid221" unicode="&#x2664;" horiz-adv-x="900" 
d="M498 13q-13 42 -19 75.5t-8 65.5q-5 60 33 60q14 0 25 -6.5t22 -13.5q22 -12 44.5 -23t46.5 -11q23 0 37.5 11t22.5 27.5t11 36.5t3 37q0 31 -11.5 63t-30.5 64t-43 63t-49 60q-32 38 -68 79.5t-65 83.5q-31 -48 -66 -87t-67 -77q-26 -30 -50 -60t-42.5 -61.5t-29.5 -63
t-11 -64.5q0 -17 3 -37t11 -36.5t22 -27.5t37 -11q24 0 47 11t43 23q14 6 24.5 13t24.5 7q38 0 33 -60q-2 -32 -8 -65.5t-19 -75.5h97zM318 -52v34q38 76 47 148q-26 -14 -53 -25t-56 -11q-34 0 -60 14.5t-44 38.5t-27.5 55t-9.5 64q0 45 12 84t33 75.5t49 71t60 69.5
q48 51 95.5 108.5t85.5 122.5q42 -69 87 -124.5t93 -106.5q32 -35 60 -69.5t49 -70.5t33 -75.5t12 -84.5q0 -33 -9.5 -64t-27.5 -55t-44.5 -38.5t-60.5 -14.5q-27 0 -54 11t-54 25q9 -75 47 -148v-34h-263z" />
    <glyph glyph-name="cid224" unicode="&#x2665;" horiz-adv-x="900" 
d="M788 554q0 -48 -18 -99.5t-47 -103.5t-66 -102t-74.5 -94.5t-72.5 -81.5t-61 -62q-34 35 -72 77t-75.5 87.5t-72 94t-61 98t-42 98.5t-15.5 95q0 44 14 77.5t38.5 56.5t58 35t72.5 12q26 0 49.5 -8.5t43 -21.5t35.5 -29t27 -31q15 19 30.5 35.5t34 28.5t40.5 19t50 7
q89 0 136.5 -50t47.5 -138z" />
    <glyph glyph-name="cid225" unicode="&#x2667;" horiz-adv-x="900" 
d="M512 21q-4 13 -9.5 34t-11 44.5t-9 46.5t-3.5 41q0 19 6.5 31.5t15.5 15.5q10 2 22.5 -0.5t27.5 -16.5q28 -26 61 -48t66 -22q27 0 47 10.5t33.5 28.5t20.5 40.5t7 46.5t-7.5 46.5t-21.5 40t-34 28t-44 10.5q-22 0 -38 -2t-31 -6t-30 -10l-35 -14q-9 -3 -18.5 -2.5
t-17.5 5.5t-13.5 13t-5.5 20q0 20 12 36.5t24 30.5q20 23 37.5 55t17.5 74q0 53 -37.5 82.5t-94.5 29.5q-22 0 -45 -6t-42 -19.5t-31 -35t-12 -51.5q0 -20 7 -41t18 -41.5t25.5 -40t28.5 -36.5q13 -16 13 -35q0 -12 -5 -21.5t-13.5 -15t-20 -6t-23.5 6.5q-37 19 -65 24.5
t-64 5.5q-24 0 -43.5 -10.5t-33.5 -28t-21.5 -40t-7.5 -46.5t6.5 -46.5t20 -40.5t33 -28.5t46.5 -10.5q35 0 67.5 22t62.5 48q13 13 25 16t22 1q12 -3 19 -17t5 -34q-2 -41 -10.5 -79.5t-22.5 -82.5h124zM579 -28h-258v35q7 13 15 32t14 40t10.5 43.5t6.5 43.5l-25 -25
q-51 -51 -122 -51q-38 0 -69 14t-53.5 39t-35 58.5t-12.5 71.5q0 35 12 67t34 57t53 39.5t70 14.5q31 0 64 -6.5t63 -23.5q-13 15 -28 35t-28 43t-21.5 48t-8.5 51q0 39 15.5 69.5t42 51.5t60.5 32t71 11q41 0 76 -11.5t61 -33t40.5 -52t14.5 -67.5q0 -35 -18 -77.5
t-65 -97.5q27 15 58.5 21.5t62.5 6.5q40 0 71.5 -14.5t53.5 -39.5t34 -57t12 -67q0 -38 -13 -71.5t-35.5 -58.5t-54 -39t-68.5 -14t-66.5 13t-54.5 38l-17.5 17.5t-7.5 6.5q5 -48 16 -85t30 -73v-35z" />
    <glyph glyph-name="cid239" unicode="&#x2668;" horiz-adv-x="900" 
d="M634 326q0 -33 -12 -62.5t-27 -56.5q-5 -8 -11 -19t-10 -20q-3 -15 -8 -30t-7 -30h-22q-14 37 -10.5 72.5t11.5 70.5q5 21 9.5 43t4.5 44q0 24 -5.5 48t-12.5 50q-6 26 -12 52.5t-6 55.5q0 24 9 47t20 46q12 22 20 44t13 44h21q13 -29 12 -57.5t-8 -55.5q-3 -19 -5.5 -38
t-2.5 -38q0 -24 5.5 -49.5t13.5 -50.5q7 -26 13.5 -52.5t6.5 -57.5zM521 338q0 -27 -6.5 -52.5t-17 -48.5t-23 -44.5t-23.5 -42.5q-5 -11 -9 -23t-8 -27h-24q-5 20 -7.5 39.5t-0.5 36.5t6 32t9 31l10 46t5 48q0 23 -6 47.5t-14 50.5t-14.5 52.5t-6.5 55.5q0 23 5.5 44
t13.5 41t17 39.5t16 39.5q5 13 8 28.5t3 37.5l27 -2q22 -45 19 -87q-1 -36 -10.5 -69t-9.5 -67q0 -23 5.5 -47.5t13.5 -49.5t15 -52t7 -57zM392 326q0 -22 -5.5 -42.5t-14 -40t-18 -38t-17.5 -37.5q-6 -12 -10 -27.5t-7 -32.5h-21q-8 17 -13 34.5t-4 35.5q2 31 10 58.5
t13 56.5q3 21 3 40q0 25 -4.5 49.5t-10.5 49.5q-6 26 -10.5 53.5t-4.5 58.5q0 25 8.5 47t19.5 44q10 23 17.5 44.5t12.5 46.5h25q9 -29 7.5 -56.5t-6.5 -56.5q-4 -19 -6.5 -37.5t-2.5 -37.5q0 -25 6.5 -54t13.5 -52q7 -25 13 -51.5t6 -54.5zM819 180q0 -44 -19 -76
t-50 -54.5t-70.5 -36.5t-80.5 -22t-80 -10.5t-69 -2.5t-69 3t-80 10.5t-80.5 21t-70.5 34.5t-50 51t-19 70q0 36 21 64t51.5 49t65 35t62.5 20l8 -26q-20 -8 -42.5 -21t-41.5 -29t-31 -34.5t-12 -37.5q0 -37 29 -57.5t71.5 -30.5t91 -12t87.5 -2q22 0 53 1.5t64.5 6t67 12.5
t59.5 20.5t42.5 30t16.5 41.5q0 18 -10 34t-25 29.5t-32.5 24t-31.5 17.5l12 24q26 -8 54.5 -20t52.5 -30t39.5 -42t15.5 -55z" />
    <glyph glyph-name="cid253" unicode="&#x2669;" horiz-adv-x="900" 
d="M535 789v-664q-1 -36 -15.5 -71.5t-38 -63.5t-54.5 -45.5t-66 -17.5q-30 0 -53 16t-22 53q0 31 15.5 57.5t39.5 47t53 33t56 17.5q15 2 21.5 6t6.5 21v611h57z" />
    <glyph glyph-name="cid254" unicode="&#x266a;" horiz-adv-x="900" 
d="M422 125q0 -44 -18.5 -79.5t-50.5 -67.5q-24 -24 -50.5 -37.5t-55.5 -13.5q-32 0 -53 17t-21 52q0 28 15 54t38.5 47t53 35t58.5 19q15 2 21 6t6 21v611h43q27 -42 58.5 -76t76.5 -68q28 -22 60 -49t59.5 -58.5t45.5 -68t18 -77.5q0 -46 -19.5 -88.5t-50.5 -79.5t-68 -67
t-71 -51l-27 26q24 21 48.5 48t45 57t34 61t13.5 60q-3 24 -15.5 45t-29.5 39.5t-38 35t-41 30.5q-17 12 -41 30t-44 36v-449z" />
    <glyph glyph-name="cid255" unicode="&#x266c;" horiz-adv-x="900" 
d="M815 220q0 -26 -14 -61t-37 -63q-24 -28 -54 -45.5t-59 -17.5q-14 0 -28 4t-25.5 11.5t-19 19.5t-7.5 27q0 40 17.5 70t43.5 50t55 31t53 13q9 1 17 3.5t8 12.5v232l-436 -96v-286q0 -41 -18 -79.5t-46 -67.5q-23 -23 -50 -37t-56 -14q-38 0 -56 18.5t-18 49.5
q0 28 15 53.5t39 46.5t53 35.5t57 19.5q14 3 21 7t7 21v524l538 116v-598zM765 676l-436 -99v-39l436 102v36z" />
    <glyph glyph-name="cid252" unicode="&#x266d;" horiz-adv-x="900" 
d="M626 348q9 -65 -21.5 -125t-83.5 -107.5t-119.5 -79t-130.5 -40.5v730h71v-296q28 23 61.5 38t68.5 15q30 0 56.5 -10.5t46.5 -29t33 -43t18 -52.5zM502 332q1 30 -14.5 53.5t-47.5 25.5q-29 2 -53.5 -16.5t-44.5 -44.5v-273q72 42 113.5 108.5t46.5 146.5z" />
    <glyph glyph-name="uni3000" unicode="&#x3000;" horiz-adv-x="400" 
 />
    <glyph glyph-name="cid102" unicode="&#x3001;" horiz-adv-x="400" 
d="M241 -133l-190 223l77 66l221 -189z" />
    <glyph glyph-name="cid103" unicode="&#x3002;" horiz-adv-x="432" 
d="M50 27q0 30 13 57.5t35 47.5t51.5 32t62.5 12t62.5 -12t51.5 -32t35 -47.5t13 -57.5t-13 -57.5t-35 -47.5t-51.5 -32t-62.5 -12t-62.5 12t-51.5 32t-35 47.5t-13 57.5zM146 27q0 -26 19 -43.5t47 -17.5t47 17.5t19 43.5t-19 43.5t-47 17.5t-47 -17.5t-19 -43.5z" />
    <glyph glyph-name="cid108" unicode="&#x3003;" horiz-adv-x="600" 
d="M371 500h170l-139 -266h-117zM154 500h170l-139 -266h-117z" />
    <glyph glyph-name="cid120" unicode="&#x3008;" horiz-adv-x="440" 
d="M-1 330l342 473l100 -64l-293 -409l293 -410l-100 -64z" />
    <glyph glyph-name="cid121" unicode="&#x3009;" horiz-adv-x="440" 
d="M99 -144l-100 64l293 410l-293 409l100 64l342 -473z" />
    <glyph glyph-name="cid122" unicode="&#x300a;" horiz-adv-x="680" 
d="M44 330l272 473l100 -64l-233 -409l233 -410l-100 -64zM264 330l272 473l100 -64l-233 -409l233 -410l-100 -64z" />
    <glyph glyph-name="cid123" unicode="&#x300b;" horiz-adv-x="680" 
d="M364 -144l-100 64l233 410l-233 409l100 64l272 -473zM144 -144l-100 64l233 410l-233 409l100 64l272 -473z" />
    <glyph glyph-name="cid124" unicode="&#x300c;" horiz-adv-x="400" 
d="M48 387v409h323v-106h-181v-303h-142z" />
    <glyph glyph-name="cid125" unicode="&#x300d;" horiz-adv-x="400" 
d="M351 249v-409h-323v106h181v303h142z" />
    <glyph glyph-name="cid126" unicode="&#x300e;" horiz-adv-x="400" 
d="M171 447v240h125v40h-171v-280h46zM371 796v-176h-125v-233h-198v409h323z" />
    <glyph glyph-name="cid127" unicode="&#x300f;" horiz-adv-x="400" 
d="M228 189v-240h-125v-40h171v280h-46zM28 -160v176h125v233h198v-409h-323z" />
    <glyph glyph-name="cid128" unicode="&#x3010;" horiz-adv-x="500" 
d="M57 796h386q-51 -56 -94 -110t-73.5 -111.5t-48 -121.5t-17.5 -139q0 -74 17 -135.5t47.5 -117t73.5 -109.5t95 -112h-386v956z" />
    <glyph glyph-name="cid129" unicode="&#x3011;" horiz-adv-x="500" 
d="M443 -160h-386q52 58 94.5 112t73.5 109.5t48 117t17 135.5q0 75 -17.5 139t-48 121.5t-73.5 111.5t-94 110h386v-956z" />
    <glyph glyph-name="cid175" unicode="&#x3013;" horiz-adv-x="900" 
d="M171 320h558v-103h-558v103zM171 539h558v-103h-558v103z" />
    <glyph glyph-name="cid118" unicode="&#x3014;" horiz-adv-x="440" 
d="M310 817l74 -99l-197 -149v-477l198 -142l-71 -104l-260 189v588z" />
    <glyph glyph-name="cid119" unicode="&#x3015;" horiz-adv-x="440" 
d="M385 623v-588l-260 -189l-71 104l198 142v477l-197 149l74 99z" />
    <glyph glyph-name="cid851" unicode="&#x3041;" horiz-adv-x="1000" 
d="M563 378q2 5 6 18t7 23h-114v-44q7 1 20 1.5t27.5 1t28.5 0.5h25zM621 422q14 -5 32 -11t32 -11l-21 -56q64 -34 94 -81t32 -96q1 -35 -15.5 -71t-49.5 -65.5t-82.5 -49.5t-113.5 -23v90q38 4 67 16t48.5 28t30 35.5t10.5 39.5q1 25 -14.5 48t-39.5 41
q-30 -59 -69 -111.5t-93 -89.5q2 -18 4.5 -35.5t7.5 -37.5l-115 -24q-2 14 -4.5 27.5t-4.5 28.5q-22 -6 -40.5 -7.5t-29.5 -0.5q-54 2 -88 24t-36 73q-1 36 14 71.5t41.5 67.5t61 59t72.5 46v72h-172v93h172v106h110v-106h159v-90zM462 184q20 22 37 49t30 54q-24 0 -39 -1
t-28 -4v-98zM352 240q-36 -25 -58 -54.5t-24 -52.5q-1 -16 9.5 -25.5t25.5 -9.5q12 0 25 2t22 4v136z" />
    <glyph glyph-name="cid852" unicode="&#x3042;" horiz-adv-x="1000" 
d="M588 474q4 13 9 26.5t9 28.5h-139v-53q33 3 62.5 3t58.5 -5zM547 63q45 3 80 16t59.5 32.5t38.5 44.5t16 53q2 35 -19 73.5t-59 64.5q-15 -34 -34 -68.5t-42 -68t-52 -63.5t-64 -55q3 -11 9 -27.5t14 -34.5l-105 -38q-10 21 -15 30.5t-7 17.5q-26 -8 -56 -13t-55 -3
q-23 1 -45 9t-39.5 23t-28 37t-11.5 51q-1 46 16.5 89.5t48 82t70 71t83.5 55.5v87h-216v100h216v138h117v-138h240v-100h-73q18 -8 42 -15.5t42 -14.5l-17 -50q79 -40 119 -104t38 -136q-1 -42 -21.5 -84.5t-60 -77t-97 -57.5t-132.5 -27v100zM467 231q29 34 50 73.5
t35 71.5q-22 4 -43.5 2.5t-41.5 -6.5v-141zM350 319q-44 -33 -74 -73.5t-30 -74.5q0 -21 9.5 -34t26.5 -14q15 -1 32 2t36 11v183z" />
    <glyph glyph-name="cid853" unicode="&#x3043;" horiz-adv-x="1000" 
d="M723 140q-25 72 -66 138.5t-94 125.5l78 46q31 -22 58 -53t49.5 -66.5t39.5 -74t29 -74.5zM523 113q-35 -54 -74.5 -82t-87.5 -28q-38 0 -66 16t-47.5 42t-32 59t-19.5 67t-9.5 66.5t-2.5 56.5q0 44 7 100t25 125q27 -11 50.5 -22t46.5 -18q-13 -48 -17 -89.5t-6 -86.5
q-1 -39 2 -79t12 -72t24.5 -51.5t39.5 -18.5q12 1 24 9.5t24 22t22.5 30.5t19.5 35z" />
    <glyph glyph-name="cid854" unicode="&#x3044;" horiz-adv-x="1000" 
d="M763 200q-29 81 -78 160t-115 147l87 62q35 -29 69 -67.5t63 -81t51.5 -88t34.5 -88.5zM539 174q-45 -66 -89.5 -99t-98.5 -36q-45 -2 -80 15t-61.5 46.5t-45.5 68t-30.5 80t-16.5 82.5t-5 76q2 58 15.5 124.5t34.5 137.5l112 -57q-20 -56 -30.5 -111t-10.5 -100
q0 -44 7.5 -89t22 -81t36 -58t49.5 -21q13 0 29 11.5t32 29.5t31 39.5t26 41.5z" />
    <glyph glyph-name="cid855" unicode="&#x3045;" horiz-adv-x="1000" 
d="M591 496q-42 33 -97.5 54t-121.5 30l68 85q51 -2 106.5 -25t102.5 -55zM319 46q52 17 100 42t85.5 56t62 66t29.5 72q4 29 -4 49.5t-24 28.5q-27 12 -56.5 7t-54.5 -13q-41 -12 -77.5 -25t-71.5 -27l-40 90l163 61q45 17 90.5 20t89.5 -12q22 -9 42 -27t34 -42.5
t20.5 -54t2.5 -60.5q-9 -66 -43.5 -118t-82.5 -91.5t-102.5 -67t-102.5 -43.5z" />
    <glyph glyph-name="cid856" unicode="&#x3046;" horiz-adv-x="1000" 
d="M623 588q-29 24 -58.5 42t-62.5 31.5t-71.5 23t-84.5 15.5l83 84q65 -5 131 -30.5t129 -72.5zM326 35q52 16 105.5 45t98 69t72.5 91.5t29 112.5q0 30 -10 53.5t-27 29.5q-18 8 -38 10t-40.5 -0.5t-40 -8t-35.5 -12.5q-31 -12 -64 -27.5t-80 -41.5l-62 92q57 32 98 49.5
t76 29.5q58 20 110.5 24.5t107.5 -10.5q53 -18 85.5 -66t32.5 -114q0 -91 -35 -162t-89 -123t-120 -85t-129 -48z" />
    <glyph glyph-name="cid857" unicode="&#x3047;" horiz-adv-x="1000" 
d="M627 512h-304v90h304v-90zM784 18q-43 -8 -87 -12t-71 -4q-23 0 -44.5 2t-40.5 7q-22 7 -35 20.5t-19.5 29.5t-8 33t-0.5 33q1 10 -1.5 20.5t-8 18t-14.5 11.5t-19 2q-18 -22 -39 -46t-42 -48.5t-41 -48.5t-38 -45l-70 64l267 314q-57 -10 -114.5 -20t-109.5 -19l-33 91
l385 56l51 -52l-142 -168q34 -13 52.5 -44t17.5 -63q0 -12 0.5 -23t5 -20t15 -14t28.5 -5q9 0 26.5 1.5t39 4.5t45.5 8t45 12v-96z" />
    <glyph glyph-name="cid858" unicode="&#x3048;" horiz-adv-x="1000" 
d="M655 636h-390v99h390v-99zM853 12q-51 -9 -101.5 -14t-88.5 -5q-44 0 -80.5 7.5t-63 25.5t-40 48.5t-10.5 77.5q0 10 1 22t-0.5 22.5t-7 18.5t-19.5 11q-29 -28 -60.5 -59t-63.5 -63.5t-64 -64t-60 -59.5l-79 81l405 406q-81 -11 -163.5 -21.5t-163.5 -21.5l-33 106
l488 50l58 -76l-189 -189q44 -20 57 -53t11 -75q-3 -45 12.5 -68t61.5 -24q20 0 44 2.5t49.5 7t51 10t48.5 11.5v-114z" />
    <glyph glyph-name="cid859" unicode="&#x3049;" horiz-adv-x="1000" 
d="M766 361q-41 47 -87 76t-94 42l9 15t13 20.5t13.5 20t10.5 14.5q63 -11 111.5 -39.5t81.5 -58.5zM555 92q17 -3 30 -5.5t21 -2.5q38 0 59 28.5t21 64.5q0 29 -8 48t-21.5 31t-31.5 17t-38 6q-28 0 -64 -6.5t-72 -17.5v-252q-12 -1 -23 -1q-10 -1 -21 -1h-19
q-96 0 -146 35t-52 91q-2 52 36.5 97.5t119.5 84.5v96h-138v91h138v115h105v-115h123v-91h-123v-56q47 14 80 17.5t59 3.5q46 -1 84 -14t65 -38.5t42 -62.5t15 -85q0 -39 -15 -73t-40.5 -58.5t-60 -37.5t-74.5 -10q-15 1 -35.5 4t-51.5 11zM346 202q-54 -32 -52 -69
q1 -17 15 -28.5t37 -14.5v112z" />
    <glyph glyph-name="cid860" unicode="&#x304a;" horiz-adv-x="1000" 
d="M825 436q-48 56 -110 95.5t-126 54.5l47 83q89 -11 154 -50t98 -87zM554 117q30 -14 45 -17.5t23 -3.5q43 0 73.5 30t30.5 89q0 30 -11 53.5t-29 40.5t-41.5 26.5t-49.5 12.5q-16 1 -37.5 0.5t-46.5 -4.5t-51.5 -11t-51.5 -17v-320q-21 -1 -43.5 -1.5t-33.5 -0.5
q-58 0 -99.5 11t-68.5 32t-40.5 51t-15.5 67q-2 36 12 70t40 64t61 54.5t75 41.5v106h-189v101h189v169h113v-169h172v-101h-172v-62q48 14 92.5 19t76.5 5q48 0 96 -14.5t86.5 -44t61.5 -74t22 -105.5q-1 -45 -15 -86t-41.5 -71.5t-69 -49t-96.5 -18.5q-17 0 -44.5 5.5
t-62.5 15.5zM295 264q-14 -10 -27 -20t-23 -21.5t-16 -25.5t-6 -30q2 -36 20.5 -49t51.5 -19v165z" />
    <glyph glyph-name="cid861" unicode="&#x304b;" horiz-adv-x="1000" 
d="M182 35l-106 36l148 381q-30 -3 -62 -7t-63 -7v98l163 20q20 51 41 103t41 103l109 -40l-64 -152q31 4 57 5.5t47 3.5q33 2 59 -6.5t44.5 -26t28 -42t9.5 -53.5q0 -24 -2.5 -56t-8 -68t-13.5 -74t-18 -75q-10 -35 -28.5 -66t-48.5 -55.5t-74 -41t-105 -21.5v105
q116 21 141 105q9 31 16.5 67.5t13 71t8 65t2.5 50.5q0 13 -6 18.5t-14 4.5l-147 -14zM810 274q-31 91 -78.5 167t-127.5 142l97 43q49 -29 84 -65.5t60 -75.5t40.5 -76.5t25.5 -66.5z" />
    <glyph glyph-name="cid862" unicode="&#x304c;" horiz-adv-x="1000" 
d="M746 601q-20 32 -47 68t-59 65l57 43q15 -9 31.5 -23.5t32 -31t29 -34t23.5 -32.5zM852 647q-20 32 -47.5 68t-57.5 65l61 43q15 -10 31.5 -24.5t32 -31t29.5 -33.5t24 -32zM162 35l-106 36l148 381q-30 -3 -62 -7t-63 -7v98l163 20q20 51 41 103t41 103l109 -40
l-64 -152q31 4 57 5.5t47 3.5q33 2 59 -6.5t44.5 -26t28 -42t9.5 -53.5q0 -24 -2.5 -56t-8 -68t-13.5 -74t-18 -75q-10 -35 -28.5 -66t-48.5 -55.5t-74 -41t-105 -21.5v105q116 21 141 105q9 31 16.5 67.5t13 71t8 65t2.5 50.5q0 13 -6 18.5t-14 4.5l-147 -14zM790 274
q-31 91 -78.5 167t-127.5 142l97 43q49 -29 84 -65.5t60 -75.5t40.5 -76.5t25.5 -66.5z" />
    <glyph glyph-name="cid863" unicode="&#x304d;" horiz-adv-x="1000" 
d="M225 465q69 11 134.5 23.5t134.5 30.5l-28 50q-45 -10 -96.5 -18.5t-93.5 -14.5l-23 99q43 8 82 14t81 14q-9 23 -21 46.5t-22 46.5l106 37l50 -108q38 8 79.5 18.5t73.5 18.5l25 -90q-34 -10 -65.5 -18t-66.5 -17l28 -50q38 10 82 21t79 20l19 -90q-33 -11 -63.5 -20.5
t-65.5 -20.5q29 -44 61.5 -92t61.5 -92l-72 -65q-21 8 -50 17t-61.5 16t-66 11.5t-63.5 3.5q-29 -1 -54.5 -4t-45 -10t-31 -18t-11.5 -28q0 -29 24 -48t60.5 -31t79 -16.5t80.5 -3.5q14 0 39 3t71 11v-101q-45 -12 -79.5 -16t-57.5 -4q-58 0 -117.5 12.5t-108 37.5t-79 62.5
t-30.5 87.5q0 46 22 78.5t61 52.5t91.5 29t114.5 8q29 -1 55.5 -3t50.5 -7q-11 18 -26 40t-27 40q-35 -8 -73.5 -16.5t-78 -16.5t-78 -15.5t-72.5 -14.5z" />
    <glyph glyph-name="cid864" unicode="&#x304e;" horiz-adv-x="1000" 
d="M726 601q-20 32 -47 68t-59 65l57 43q15 -9 31.5 -23.5t32 -31t29 -34t23.5 -32.5zM832 647q-20 32 -47.5 68t-57.5 65l61 43q15 -10 31.5 -24.5t32 -31t29.5 -33.5t24 -32zM135 465q69 11 134.5 23.5t134.5 30.5l-28 50q-45 -10 -96.5 -18.5t-93.5 -14.5l-23 99
q43 8 82 14t81 14q-9 23 -21 46.5t-22 46.5l106 37l50 -108q38 8 79.5 18.5t73.5 18.5l25 -90q-34 -10 -65.5 -18t-66.5 -17l28 -50q38 10 82 21t79 20l19 -90q-33 -11 -63.5 -20.5t-65.5 -20.5q29 -44 61.5 -92t61.5 -92l-72 -65q-21 8 -50 17t-61.5 16t-66 11.5t-63.5 3.5
q-29 -1 -54.5 -4t-45 -10t-31 -18t-11.5 -28q0 -29 24 -48t60.5 -31t79 -16.5t80.5 -3.5q14 0 39 3t71 11v-101q-45 -12 -79.5 -16t-57.5 -4q-58 0 -117.5 12.5t-108 37.5t-79 62.5t-30.5 87.5q0 46 22 78.5t61 52.5t91.5 29t114.5 8q29 -1 55.5 -3t50.5 -7q-11 18 -26 40
t-27 40q-35 -8 -73.5 -16.5t-78 -16.5t-78 -15.5t-72.5 -14.5z" />
    <glyph glyph-name="cid865" unicode="&#x304f;" horiz-adv-x="950" 
d="M602 -28q-32 52 -73 114t-85.5 123t-91 116t-89.5 94l319 391l91 -73l-253 -312q44 -49 84.5 -102.5t76 -104.5t64 -97t47.5 -80z" />
    <glyph glyph-name="cid866" unicode="&#x3050;" horiz-adv-x="950" 
d="M663 561q-20 32 -47 68t-59 65l57 43q15 -9 31.5 -23.5t32 -31t29 -34t23.5 -32.5zM769 607q-20 32 -47.5 68t-57.5 65l61 43q15 -10 31.5 -24.5t32 -31t29.5 -33.5t24 -32zM446 -28q-32 52 -73 114t-85.5 123t-91 116t-89.5 94l319 391l91 -73l-253 -312
q44 -49 84.5 -102.5t76 -104.5t64 -97t47.5 -80z" />
    <glyph glyph-name="cid867" unicode="&#x3051;" horiz-adv-x="950" 
d="M838 451h-161v-129q0 -54 -12.5 -111t-44 -104.5t-84.5 -80t-135 -36.5v105q56 9 88 38t47.5 65t19 72t3.5 58v123h-252v105h252v190h118v-190h161v-105zM332 319q-21 -29 -38.5 -61t-25.5 -65.5t-5.5 -67t20.5 -66.5l-98 -67q-75 184 -73.5 373t61.5 369l108 -21
q-15 -54 -27.5 -108.5t-21.5 -107.5t-12.5 -105t1.5 -102q14 16 30.5 34t39.5 34z" />
    <glyph glyph-name="cid868" unicode="&#x3052;" horiz-adv-x="950" 
d="M766 451h-161v-129q0 -54 -12.5 -111t-44 -104.5t-84.5 -80t-135 -36.5v105q56 9 88 38t47.5 65t19 72t3.5 58v123h-252v105h252v190h118v-190h161v-105zM260 319q-29 -41 -49.5 -85.5t-20.5 -91.5q0 -21 5 -42t16 -41l-98 -67q-38 93 -56 187t-18 190q0 94 16 185
t46 180l108 -21q-25 -94 -44 -186t-19 -180q0 -29 3 -57q14 16 30.5 34t39.5 34zM732 601q-20 32 -47 68t-59 65l57 43q15 -9 31.5 -23.5t32 -31t29 -34t23.5 -32.5zM838 647q-20 32 -47.5 68t-57.5 65l61 43q15 -10 31.5 -24.5t32 -31t29.5 -33.5t24 -32z" />
    <glyph glyph-name="cid869" unicode="&#x3053;" horiz-adv-x="950" 
d="M274 704q69 -18 132.5 -28t116.5 -10q35 0 84 4t110 14v-100q-63 -13 -111.5 -17t-86.5 -4q-56 0 -123.5 9.5t-141.5 32.5zM822 98q-18 -11 -48 -20t-66 -15.5t-75.5 -10t-76.5 -3.5q-56 0 -113.5 6.5t-113 23t-106.5 44.5t-95 70l72 75q25 -20 60 -40t77 -37t90.5 -27.5
t99.5 -10.5q94 0 166.5 14.5t128.5 34.5v-104z" />
    <glyph glyph-name="cid870" unicode="&#x3054;" horiz-adv-x="950" 
d="M185 704q69 -18 132.5 -28t116.5 -10q35 0 84 4t110 14v-100q-63 -13 -111.5 -17t-86.5 -4q-56 0 -123.5 9.5t-141.5 32.5zM733 98q-18 -11 -48 -20t-66 -15.5t-75.5 -10t-76.5 -3.5q-56 0 -113.5 6.5t-113 23t-106.5 44.5t-95 70l72 75q25 -20 60 -40t77 -37t90.5 -27.5
t99.5 -10.5q94 0 166.5 14.5t128.5 34.5v-104zM732 591q-20 32 -47 68t-59 65l57 43q15 -9 31.5 -23.5t32 -31t29 -34t23.5 -32.5zM838 637q-20 32 -47.5 68t-57.5 65l61 43q15 -10 31.5 -24.5t32 -31t29.5 -33.5t24 -32z" />
    <glyph glyph-name="cid871" unicode="&#x3055;" horiz-adv-x="950" 
d="M766 573l-167 -29q40 -75 88 -132.5t105 -106.5l-68 -88q-72 39 -151 57.5t-150 18.5q-21 0 -45 -3.5t-45.5 -10.5t-37 -19t-19.5 -28q-5 -23 7.5 -41.5t35.5 -32.5t52.5 -24.5t58.5 -16.5q78 -15 205 -15v-102q-60 -3 -119 -1t-118 13q-45 9 -88 27t-76.5 44t-54.5 61
t-21 78q0 49 23.5 82.5t61.5 53.5t87 28.5t100 8.5q28 0 65.5 -4.5t77.5 -11.5q-28 38 -51.5 74.5t-41.5 69.5q-64 -11 -129.5 -23t-128.5 -23l-19 105l236 38q-10 30 -19 64t-18 80l117 10q6 -38 14 -73.5t17 -60.5q48 9 98.5 18.5t98.5 18.5z" />
    <glyph glyph-name="cid872" unicode="&#x3056;" horiz-adv-x="950" 
d="M662 573l-167 -29q40 -75 88 -132.5t105 -106.5l-68 -88q-72 39 -151 57.5t-150 18.5q-21 0 -45 -3.5t-45.5 -10.5t-37 -19t-19.5 -28q-5 -23 7.5 -41.5t35.5 -32.5t52.5 -24.5t58.5 -16.5q78 -15 205 -15v-102q-60 -3 -119 -1t-118 13q-45 9 -88 27t-76.5 44t-54.5 61
t-21 78q0 49 23.5 82.5t61.5 53.5t87 28.5t100 8.5q28 0 65.5 -4.5t77.5 -11.5q-28 38 -51.5 74.5t-41.5 69.5q-64 -11 -129.5 -23t-128.5 -23l-19 105l236 38q-10 30 -19 64t-18 80l117 10q6 -38 14 -73.5t17 -60.5q48 9 98.5 18.5t98.5 18.5zM718 601q-20 32 -47 68
t-59 65l57 43q15 -9 31.5 -23.5t32 -31t29 -34t23.5 -32.5zM824 647q-20 32 -47.5 68t-57.5 65l61 43q15 -10 31.5 -24.5t32 -31t29.5 -33.5t24 -32z" />
    <glyph glyph-name="cid873" unicode="&#x3057;" horiz-adv-x="950" 
d="M770 208q-33 -36 -78 -74.5t-101.5 -70t-123.5 -51.5t-143 -20q-31 0 -57.5 9t-45.5 27.5t-30 47.5t-11 69v621h117v-618q0 -25 10.5 -38t28.5 -13q62 0 116 18.5t99.5 48.5t83.5 67t68 74z" />
    <glyph glyph-name="cid874" unicode="&#x3058;" horiz-adv-x="950" 
d="M770 208q-33 -36 -78 -74.5t-101.5 -70t-123.5 -51.5t-143 -20q-31 0 -57.5 9t-45.5 27.5t-30 47.5t-11 69v621h117v-618q0 -25 10.5 -38t28.5 -13q62 0 116 18.5t99.5 48.5t83.5 67t68 74zM512 541q-20 32 -47 68t-59 65l57 43q15 -9 31.5 -23.5t32 -31t29 -34
t23.5 -32.5zM618 587q-20 32 -47.5 68t-57.5 65l61 43q15 -10 31.5 -24.5t32 -31t29.5 -33.5t24 -32z" />
    <glyph glyph-name="cid875" unicode="&#x3059;" horiz-adv-x="950" 
d="M882 529h-315v-223q0 -68 -9 -122t-34.5 -99t-71.5 -83t-119 -74l-71 82q139 60 174 141q-13 -3 -24.5 -5t-22.5 -2q-33 0 -62 12.5t-50 34.5t-33 52.5t-12 66.5q0 37 13 69.5t35.5 57t53 38.5t65.5 14q9 0 21 -1.5t26 -6.5v48h-379v100h379v143h121v-143h315v-100z
M397 247q26 0 39.5 20t13.5 43q0 9 -1 22.5t-5.5 25.5t-14 20.5t-27.5 8.5q-24 0 -38.5 -21t-14.5 -54q0 -28 13 -46.5t35 -18.5z" />
    <glyph glyph-name="cid876" unicode="&#x305a;" horiz-adv-x="950" 
d="M730 641q-20 32 -47 68t-59 65l57 43q15 -9 31.5 -23.5t32 -31t29 -34t23.5 -32.5zM836 687q-20 32 -47.5 68t-57.5 65l61 43q15 -10 31.5 -24.5t32 -31t29.5 -33.5t24 -32zM856 529h-315v-223q0 -68 -9 -122t-34.5 -99t-71.5 -83t-119 -74l-71 82q139 60 174 141
q-13 -3 -24.5 -5t-22.5 -2q-33 0 -62 12.5t-50 34.5t-33 52.5t-12 66.5q0 37 13 69.5t35.5 57t53 38.5t65.5 14q9 0 21 -1.5t26 -6.5v48h-379v100h379v143h121v-143h315v-100zM371 247q26 0 39.5 20t13.5 43q0 9 -1 22.5t-5.5 25.5t-14 20.5t-27.5 8.5q-24 0 -38.5 -21
t-14.5 -54q0 -28 13 -46.5t35 -18.5z" />
    <glyph glyph-name="cid877" unicode="&#x305b;" horiz-adv-x="950" 
d="M895 453l-202 -23q-1 -17 -2 -33.5t-2 -33.5q-3 -46 -20 -77.5t-45.5 -51t-66.5 -28t-81 -8.5v101q45 5 69.5 19.5t27.5 41.5q2 16 2.5 30.5t1.5 29.5l-206 -25v-237q0 -45 40 -45h364v-103h-376q-69 0 -107 39.5t-38 105.5v232q-45 -5 -90 -11t-90 -11l-20 101l200 23
v201h117v-189l213 22l13 215h115l-10 -204l172 19z" />
    <glyph glyph-name="cid878" unicode="&#x305c;" horiz-adv-x="950" 
d="M826 453l-192 -23q-1 -17 -2 -33.5t-2 -33.5q-3 -46 -20 -77.5t-45.5 -51t-66.5 -28t-81 -8.5v101q45 5 68.5 18t28.5 43q2 16 2.5 30.5t1.5 29.5l-206 -25v-237q0 -45 40 -45h364v-103h-376q-69 0 -107 39.5t-38 105.5v232q-45 -5 -85 -11t-85 -11l-20 101l190 23v201
h117v-189l213 22l13 215h115l-10 -204l162 19zM767 601q-20 32 -47 68t-59 65l57 43q15 -9 31.5 -23.5t32 -31t29 -34t23.5 -32.5zM873 647q-20 32 -47.5 68t-57.5 65l61 43q15 -10 31.5 -24.5t32 -31t29.5 -33.5t24 -32z" />
    <glyph glyph-name="cid879" unicode="&#x305d;" horiz-adv-x="950" 
d="M282 764q16 -15 34.5 -34.5t36.5 -40t34.5 -40.5t28.5 -37l-102 -73q-25 43 -58 90.5t-68 85.5zM856 444l-214 -29h1q-79 -35 -118.5 -84t-40.5 -104q-1 -38 21.5 -63.5t61 -41.5t90 -23.5t108.5 -8.5l-45 -112q-69 4 -133.5 18.5t-114 43t-79 73t-29.5 108.5q0 42 15 80
t49 76q-78 -13 -158 -26t-157 -26l-20 104l280 42q38 35 73.5 75t68.5 82t63.5 84t58.5 81l87 -72q-47 -63 -93 -119t-91 -101q73 12 148 25t147 25z" />
    <glyph glyph-name="cid880" unicode="&#x305e;" horiz-adv-x="950" 
d="M203 764q16 -15 34.5 -34.5t36.5 -40t34.5 -40.5t28.5 -37l-102 -73q-25 43 -58 90.5t-68 85.5zM777 444l-214 -29h1q-79 -35 -118.5 -84t-40.5 -104q-1 -38 21.5 -63.5t61 -41.5t90 -23.5t108.5 -8.5l-45 -112q-69 4 -133.5 18.5t-114 43t-79 73t-29.5 108.5q0 42 15 80
t49 76q-78 -13 -158 -26t-157 -26l-20 104l280 42q38 35 73 75t67 81.5t60.5 84t53.5 81.5l87 -72q-43 -66 -86.5 -119t-87.5 -101q73 12 148 25t147 25zM757 601q-20 32 -47 68t-59 65l57 43q15 -9 31.5 -23.5t32 -31t29 -34t23.5 -32.5zM863 647q-20 32 -47.5 68t-57.5 65
l61 43q15 -10 31.5 -24.5t32 -31t29.5 -33.5t24 -32z" />
    <glyph glyph-name="cid881" unicode="&#x305f;" horiz-adv-x="950" 
d="M812 378q-19 1 -41.5 1.5t-46 1t-46 1t-40.5 0.5t-41 -0.5l-46 -1l-46 -1t-41 -1.5v102q16 1 36.5 2t42 1.5t41.5 0.5h37h45t50.5 -0.5t50.5 -1.5t45 -2v-102zM445 192q59 -32 111 -50t87 -23q52 -8 101 -7t100 8l-21 -108q-57 -3 -107.5 -3.5t-100.5 7.5q-48 8 -109 29
t-130 60zM542 531q-38 -9 -74.5 -15.5t-75.5 -11.5q-28 -120 -69 -249.5t-94 -254.5l-113 45q24 58 45.5 111.5t41 107t36.5 108.5t31 115q-38 -5 -81.5 -8t-83.5 -5v106q49 2 92.5 5t95.5 9q10 48 16.5 100.5t11.5 101.5l119 -23q-4 -46 -9 -86t-13 -78q28 4 61.5 10.5
t62.5 14.5v-103z" />
    </font>
</defs>
</svg>
